G04 #@! TF.GenerationSoftware,KiCad,Pcbnew,(5.1.10-1-10_14)*
G04 #@! TF.CreationDate,2021-11-15T14:12:38-05:00*
G04 #@! TF.ProjectId,8DIN2VGA_New_Plug,3844494e-3256-4474-915f-4e65775f506c,1*
G04 #@! TF.SameCoordinates,Original*
G04 #@! TF.FileFunction,Copper,L2,Bot*
G04 #@! TF.FilePolarity,Positive*
%FSLAX46Y46*%
G04 Gerber Fmt 4.6, Leading zero omitted, Abs format (unit mm)*
G04 Created by KiCad (PCBNEW (5.1.10-1-10_14)) date 2021-11-15 14:12:38*
%MOMM*%
%LPD*%
G01*
G04 APERTURE LIST*
G04 #@! TA.AperFunction,ComponentPad*
%ADD10R,4.000000X1.500000*%
G04 #@! TD*
G04 #@! TA.AperFunction,ComponentPad*
%ADD11C,1.600000*%
G04 #@! TD*
G04 #@! TA.AperFunction,ComponentPad*
%ADD12R,1.524000X3.000000*%
G04 #@! TD*
G04 #@! TA.AperFunction,ComponentPad*
%ADD13R,1.000000X2.200000*%
G04 #@! TD*
G04 #@! TA.AperFunction,ComponentPad*
%ADD14C,2.000000*%
G04 #@! TD*
G04 #@! TA.AperFunction,ViaPad*
%ADD15C,0.700000*%
G04 #@! TD*
G04 #@! TA.AperFunction,Conductor*
%ADD16C,0.254000*%
G04 #@! TD*
G04 #@! TA.AperFunction,Conductor*
%ADD17C,0.250000*%
G04 #@! TD*
G04 #@! TA.AperFunction,Conductor*
%ADD18C,0.160000*%
G04 #@! TD*
G04 #@! TA.AperFunction,Conductor*
%ADD19C,0.152400*%
G04 #@! TD*
G04 #@! TA.AperFunction,Conductor*
%ADD20C,0.025400*%
G04 #@! TD*
G04 APERTURE END LIST*
D10*
X152140000Y-81750000D03*
D11*
X150140000Y-84350000D03*
X152140000Y-84350000D03*
X154150000Y-84360000D03*
X149640000Y-86360000D03*
X152640000Y-86360000D03*
X154650000Y-86360000D03*
X151140000Y-88360000D03*
X153140000Y-88360000D03*
D12*
X133230000Y-86910000D03*
D13*
X146890000Y-86520000D03*
D14*
X140327381Y-85410974D03*
X137577381Y-85410974D03*
X143077381Y-85410974D03*
X136187381Y-87300974D03*
X138947381Y-87300974D03*
X141707381Y-87300974D03*
X144457381Y-87300974D03*
D15*
X140450000Y-88750000D03*
X148349998Y-84660000D03*
X137310000Y-89220000D03*
D16*
X141251842Y-83898158D02*
X140320000Y-84830000D01*
X148259078Y-83898158D02*
X141251842Y-83898158D01*
X148274238Y-83882998D02*
X148259078Y-83898158D01*
X140320000Y-84830000D02*
X140320000Y-85052990D01*
X149630000Y-83000000D02*
X148747002Y-83882998D01*
X148747002Y-83882998D02*
X148274238Y-83882998D01*
X150790000Y-83000000D02*
X149630000Y-83000000D01*
X152140000Y-84350000D02*
X150790000Y-83000000D01*
D17*
X148339998Y-84670000D02*
X148349998Y-84660000D01*
X143840000Y-84670000D02*
X148339998Y-84670000D01*
X143460000Y-85050000D02*
X143840000Y-84670000D01*
X137830000Y-89740000D02*
X137310000Y-89220000D01*
X153540000Y-89740000D02*
X137830000Y-89740000D01*
X154650000Y-88630000D02*
X153540000Y-89740000D01*
X154650000Y-86360000D02*
X154650000Y-88630000D01*
D18*
X140773569Y-83820612D02*
X140769931Y-83824142D01*
X140752800Y-83842609D01*
X140673785Y-83937302D01*
X140671661Y-83939883D01*
X140600944Y-84027071D01*
X140539206Y-84091772D01*
X140482914Y-84133062D01*
X140419854Y-84158445D01*
X140313314Y-84170974D01*
X140205252Y-84170974D01*
X139965686Y-84218626D01*
X139740021Y-84312100D01*
X139536927Y-84447803D01*
X139364210Y-84620520D01*
X139228507Y-84823614D01*
X139135033Y-85049279D01*
X139118977Y-85130000D01*
X138785785Y-85130000D01*
X138769729Y-85049279D01*
X138676255Y-84823614D01*
X138540552Y-84620520D01*
X138367835Y-84447803D01*
X138164741Y-84312100D01*
X137939076Y-84218626D01*
X137699510Y-84170974D01*
X137455252Y-84170974D01*
X137215686Y-84218626D01*
X136990021Y-84312100D01*
X136786927Y-84447803D01*
X136614210Y-84620520D01*
X136478507Y-84823614D01*
X136385033Y-85049279D01*
X136368977Y-85130000D01*
X134264245Y-85130000D01*
X134250000Y-85128597D01*
X134235755Y-85130000D01*
X134193150Y-85134196D01*
X134138485Y-85150779D01*
X134088105Y-85177707D01*
X134043947Y-85213947D01*
X134007707Y-85258105D01*
X133980779Y-85308485D01*
X133964196Y-85363150D01*
X133958597Y-85420000D01*
X133960001Y-85434256D01*
X133960000Y-87285754D01*
X133958597Y-87300000D01*
X133964196Y-87356850D01*
X133980779Y-87411515D01*
X134007707Y-87461895D01*
X134034329Y-87494333D01*
X134043947Y-87506053D01*
X134088105Y-87542293D01*
X134138485Y-87569221D01*
X134193150Y-87585804D01*
X134250000Y-87591403D01*
X134264245Y-87590000D01*
X134980578Y-87590000D01*
X134995033Y-87662669D01*
X135088507Y-87888334D01*
X135224210Y-88091428D01*
X135396927Y-88264145D01*
X135600021Y-88399848D01*
X135825686Y-88493322D01*
X136065252Y-88540974D01*
X136309510Y-88540974D01*
X136549076Y-88493322D01*
X136774741Y-88399848D01*
X136977835Y-88264145D01*
X137150552Y-88091428D01*
X137286255Y-87888334D01*
X137379729Y-87662669D01*
X137394184Y-87590000D01*
X137740578Y-87590000D01*
X137755033Y-87662669D01*
X137848507Y-87888334D01*
X137984210Y-88091428D01*
X138156927Y-88264145D01*
X138360021Y-88399848D01*
X138585686Y-88493322D01*
X138825252Y-88540974D01*
X139069510Y-88540974D01*
X139309076Y-88493322D01*
X139534741Y-88399848D01*
X139737835Y-88264145D01*
X139910552Y-88091428D01*
X140046255Y-87888334D01*
X140139729Y-87662669D01*
X140154184Y-87590000D01*
X140500578Y-87590000D01*
X140515033Y-87662669D01*
X140608507Y-87888334D01*
X140744210Y-88091428D01*
X140916927Y-88264145D01*
X141120021Y-88399848D01*
X141345686Y-88493322D01*
X141585252Y-88540974D01*
X141829510Y-88540974D01*
X142069076Y-88493322D01*
X142294741Y-88399848D01*
X142497835Y-88264145D01*
X142670552Y-88091428D01*
X142806255Y-87888334D01*
X142899729Y-87662669D01*
X142914184Y-87590000D01*
X143250578Y-87590000D01*
X143265033Y-87662669D01*
X143358507Y-87888334D01*
X143494210Y-88091428D01*
X143666927Y-88264145D01*
X143870021Y-88399848D01*
X144095686Y-88493322D01*
X144335252Y-88540974D01*
X144579510Y-88540974D01*
X144819076Y-88493322D01*
X145044741Y-88399848D01*
X145247835Y-88264145D01*
X145420552Y-88091428D01*
X145556255Y-87888334D01*
X145649729Y-87662669D01*
X145664184Y-87590000D01*
X146235755Y-87590000D01*
X146250000Y-87591403D01*
X146264245Y-87590000D01*
X146306850Y-87585804D01*
X146361515Y-87569221D01*
X146411895Y-87542293D01*
X146456053Y-87506053D01*
X146492293Y-87461895D01*
X146519221Y-87411515D01*
X146535804Y-87356850D01*
X146541403Y-87300000D01*
X146540000Y-87285755D01*
X146540000Y-85434245D01*
X146541403Y-85420000D01*
X146535804Y-85363150D01*
X146519221Y-85308485D01*
X146492293Y-85258105D01*
X146456053Y-85213947D01*
X146411895Y-85177707D01*
X146361515Y-85150779D01*
X146306850Y-85134196D01*
X146264245Y-85130000D01*
X146250000Y-85128597D01*
X146235755Y-85130000D01*
X144496590Y-85130000D01*
X144529098Y-85097642D01*
X144579780Y-85068296D01*
X144659923Y-85045425D01*
X144792047Y-85035000D01*
X147646416Y-85035000D01*
X147714815Y-85037049D01*
X147763668Y-85042074D01*
X147799864Y-85049056D01*
X147828621Y-85057570D01*
X147856092Y-85068577D01*
X147887715Y-85084017D01*
X147927146Y-85105344D01*
X147974233Y-85131294D01*
X147978472Y-85133575D01*
X148032372Y-85161885D01*
X148040662Y-85166037D01*
X148057087Y-85173870D01*
X148070528Y-85182851D01*
X148177901Y-85227327D01*
X148291888Y-85250000D01*
X148408108Y-85250000D01*
X148522095Y-85227327D01*
X148629468Y-85182851D01*
X148726101Y-85118283D01*
X148808281Y-85036103D01*
X148872849Y-84939470D01*
X148917325Y-84832097D01*
X148939998Y-84718110D01*
X148939998Y-84601890D01*
X148917325Y-84487903D01*
X148872849Y-84380530D01*
X148808281Y-84283897D01*
X148773543Y-84249159D01*
X148818946Y-84244687D01*
X148888126Y-84223702D01*
X148951882Y-84189623D01*
X149007765Y-84143761D01*
X149019257Y-84129758D01*
X149166550Y-83982465D01*
X149139967Y-84046643D01*
X149100000Y-84247569D01*
X149100000Y-84452431D01*
X149139967Y-84653357D01*
X149218364Y-84842625D01*
X149332179Y-85012961D01*
X149477039Y-85157821D01*
X149647375Y-85271636D01*
X149784190Y-85328307D01*
X149742431Y-85320000D01*
X149537569Y-85320000D01*
X149336643Y-85359967D01*
X149147375Y-85438364D01*
X148977039Y-85552179D01*
X148832179Y-85697039D01*
X148718364Y-85867375D01*
X148639967Y-86056643D01*
X148600000Y-86257569D01*
X148600000Y-86462431D01*
X148639967Y-86663357D01*
X148718364Y-86852625D01*
X148832179Y-87022961D01*
X148977039Y-87167821D01*
X149147375Y-87281636D01*
X149336643Y-87360033D01*
X149537569Y-87400000D01*
X149742431Y-87400000D01*
X149943357Y-87360033D01*
X150132625Y-87281636D01*
X150302961Y-87167821D01*
X150447821Y-87022961D01*
X150535791Y-86891304D01*
X150633655Y-86989168D01*
X150766321Y-87077812D01*
X150913732Y-87138872D01*
X151070222Y-87170000D01*
X151229778Y-87170000D01*
X151386268Y-87138872D01*
X151533679Y-87077812D01*
X151666345Y-86989168D01*
X151779168Y-86876345D01*
X151867812Y-86743679D01*
X151928872Y-86596268D01*
X151960000Y-86439778D01*
X151960000Y-86280222D01*
X151928872Y-86123732D01*
X151867812Y-85976321D01*
X151779168Y-85843655D01*
X151666345Y-85730832D01*
X151533679Y-85642188D01*
X151386268Y-85581128D01*
X151229778Y-85550000D01*
X151070222Y-85550000D01*
X150913732Y-85581128D01*
X150766321Y-85642188D01*
X150633655Y-85730832D01*
X150535791Y-85828696D01*
X150447821Y-85697039D01*
X150302961Y-85552179D01*
X150132625Y-85438364D01*
X149995810Y-85381693D01*
X150037569Y-85390000D01*
X150242431Y-85390000D01*
X150443357Y-85350033D01*
X150632625Y-85271636D01*
X150802961Y-85157821D01*
X150947821Y-85012961D01*
X151061636Y-84842625D01*
X151140000Y-84653437D01*
X151218364Y-84842625D01*
X151332179Y-85012961D01*
X151477039Y-85157821D01*
X151647375Y-85271636D01*
X151836643Y-85350033D01*
X152037569Y-85390000D01*
X152242431Y-85390000D01*
X152443357Y-85350033D01*
X152632625Y-85271636D01*
X152802961Y-85157821D01*
X152947821Y-85012961D01*
X153061636Y-84842625D01*
X153140033Y-84653357D01*
X153144005Y-84633386D01*
X153149967Y-84663357D01*
X153228364Y-84852625D01*
X153342179Y-85022961D01*
X153487039Y-85167821D01*
X153657375Y-85281636D01*
X153846643Y-85360033D01*
X154047569Y-85400000D01*
X154249994Y-85400000D01*
X154157375Y-85438364D01*
X153987039Y-85552179D01*
X153842179Y-85697039D01*
X153728364Y-85867375D01*
X153649967Y-86056643D01*
X153610000Y-86257569D01*
X153610000Y-86462431D01*
X153649967Y-86663357D01*
X153728364Y-86852625D01*
X153764308Y-86906419D01*
X153800064Y-86972193D01*
X153811191Y-86990638D01*
X153893698Y-87114475D01*
X153903258Y-87127812D01*
X153984972Y-87233951D01*
X153989571Y-87239739D01*
X154066604Y-87333664D01*
X154132442Y-87417294D01*
X154184121Y-87494333D01*
X154224129Y-87573678D01*
X154255129Y-87667667D01*
X154276540Y-87789678D01*
X154285001Y-87956101D01*
X154285001Y-88478811D01*
X154149860Y-88613952D01*
X154180000Y-88462431D01*
X154180000Y-88257569D01*
X154140033Y-88056643D01*
X154061636Y-87867375D01*
X153947821Y-87697039D01*
X153802961Y-87552179D01*
X153632625Y-87438364D01*
X153443357Y-87359967D01*
X153242431Y-87320000D01*
X153037569Y-87320000D01*
X152836643Y-87359967D01*
X152647375Y-87438364D01*
X152477039Y-87552179D01*
X152332179Y-87697039D01*
X152218364Y-87867375D01*
X152140000Y-88056563D01*
X152061636Y-87867375D01*
X151947821Y-87697039D01*
X151802961Y-87552179D01*
X151632625Y-87438364D01*
X151443357Y-87359967D01*
X151242431Y-87320000D01*
X151037569Y-87320000D01*
X150836643Y-87359967D01*
X150647375Y-87438364D01*
X150477039Y-87552179D01*
X150332179Y-87697039D01*
X150218364Y-87867375D01*
X150139967Y-88056643D01*
X150100000Y-88257569D01*
X150100000Y-88462431D01*
X150139967Y-88663357D01*
X150218364Y-88852625D01*
X150332179Y-89022961D01*
X150477039Y-89167821D01*
X150647375Y-89281636D01*
X150836643Y-89360033D01*
X150911887Y-89375000D01*
X137989970Y-89375000D01*
X137985044Y-89368869D01*
X137966391Y-89340614D01*
X137953813Y-89316475D01*
X137943695Y-89291259D01*
X137933752Y-89259583D01*
X137922634Y-89217763D01*
X137909643Y-89167041D01*
X137908390Y-89162346D01*
X137892487Y-89105103D01*
X137889740Y-89095929D01*
X137882232Y-89072560D01*
X137877327Y-89047903D01*
X137832851Y-88940530D01*
X137768283Y-88843897D01*
X137686103Y-88761717D01*
X137589470Y-88697149D01*
X137482097Y-88652673D01*
X137368110Y-88630000D01*
X137251890Y-88630000D01*
X137137903Y-88652673D01*
X137030530Y-88697149D01*
X136933897Y-88761717D01*
X136851717Y-88843897D01*
X136787149Y-88940530D01*
X136742673Y-89047903D01*
X136720000Y-89161890D01*
X136720000Y-89278110D01*
X136742673Y-89392097D01*
X136787149Y-89499470D01*
X136851717Y-89596103D01*
X136933897Y-89678283D01*
X137030530Y-89742851D01*
X137137903Y-89787327D01*
X137162560Y-89792232D01*
X137185929Y-89799740D01*
X137195103Y-89802487D01*
X137252346Y-89818390D01*
X137257041Y-89819643D01*
X137307763Y-89832634D01*
X137349583Y-89843752D01*
X137381259Y-89853695D01*
X137406475Y-89863813D01*
X137430614Y-89876391D01*
X137458869Y-89895044D01*
X137494770Y-89923890D01*
X137542476Y-89968664D01*
X137559225Y-89985413D01*
X137570657Y-89999343D01*
X137626236Y-90044955D01*
X137689645Y-90078848D01*
X137758448Y-90099719D01*
X137812069Y-90105000D01*
X137812070Y-90105000D01*
X137829999Y-90106766D01*
X137847928Y-90105000D01*
X152820778Y-90105000D01*
X152744203Y-90123927D01*
X152119323Y-90170000D01*
X132260000Y-90170000D01*
X132260000Y-83820020D01*
X140773569Y-83820612D01*
G04 #@! TA.AperFunction,Conductor*
D19*
G36*
X140773569Y-83820612D02*
G01*
X140769931Y-83824142D01*
X140752800Y-83842609D01*
X140673785Y-83937302D01*
X140671661Y-83939883D01*
X140600944Y-84027071D01*
X140539206Y-84091772D01*
X140482914Y-84133062D01*
X140419854Y-84158445D01*
X140313314Y-84170974D01*
X140205252Y-84170974D01*
X139965686Y-84218626D01*
X139740021Y-84312100D01*
X139536927Y-84447803D01*
X139364210Y-84620520D01*
X139228507Y-84823614D01*
X139135033Y-85049279D01*
X139118977Y-85130000D01*
X138785785Y-85130000D01*
X138769729Y-85049279D01*
X138676255Y-84823614D01*
X138540552Y-84620520D01*
X138367835Y-84447803D01*
X138164741Y-84312100D01*
X137939076Y-84218626D01*
X137699510Y-84170974D01*
X137455252Y-84170974D01*
X137215686Y-84218626D01*
X136990021Y-84312100D01*
X136786927Y-84447803D01*
X136614210Y-84620520D01*
X136478507Y-84823614D01*
X136385033Y-85049279D01*
X136368977Y-85130000D01*
X134264245Y-85130000D01*
X134250000Y-85128597D01*
X134235755Y-85130000D01*
X134193150Y-85134196D01*
X134138485Y-85150779D01*
X134088105Y-85177707D01*
X134043947Y-85213947D01*
X134007707Y-85258105D01*
X133980779Y-85308485D01*
X133964196Y-85363150D01*
X133958597Y-85420000D01*
X133960001Y-85434256D01*
X133960000Y-87285754D01*
X133958597Y-87300000D01*
X133964196Y-87356850D01*
X133980779Y-87411515D01*
X134007707Y-87461895D01*
X134034329Y-87494333D01*
X134043947Y-87506053D01*
X134088105Y-87542293D01*
X134138485Y-87569221D01*
X134193150Y-87585804D01*
X134250000Y-87591403D01*
X134264245Y-87590000D01*
X134980578Y-87590000D01*
X134995033Y-87662669D01*
X135088507Y-87888334D01*
X135224210Y-88091428D01*
X135396927Y-88264145D01*
X135600021Y-88399848D01*
X135825686Y-88493322D01*
X136065252Y-88540974D01*
X136309510Y-88540974D01*
X136549076Y-88493322D01*
X136774741Y-88399848D01*
X136977835Y-88264145D01*
X137150552Y-88091428D01*
X137286255Y-87888334D01*
X137379729Y-87662669D01*
X137394184Y-87590000D01*
X137740578Y-87590000D01*
X137755033Y-87662669D01*
X137848507Y-87888334D01*
X137984210Y-88091428D01*
X138156927Y-88264145D01*
X138360021Y-88399848D01*
X138585686Y-88493322D01*
X138825252Y-88540974D01*
X139069510Y-88540974D01*
X139309076Y-88493322D01*
X139534741Y-88399848D01*
X139737835Y-88264145D01*
X139910552Y-88091428D01*
X140046255Y-87888334D01*
X140139729Y-87662669D01*
X140154184Y-87590000D01*
X140500578Y-87590000D01*
X140515033Y-87662669D01*
X140608507Y-87888334D01*
X140744210Y-88091428D01*
X140916927Y-88264145D01*
X141120021Y-88399848D01*
X141345686Y-88493322D01*
X141585252Y-88540974D01*
X141829510Y-88540974D01*
X142069076Y-88493322D01*
X142294741Y-88399848D01*
X142497835Y-88264145D01*
X142670552Y-88091428D01*
X142806255Y-87888334D01*
X142899729Y-87662669D01*
X142914184Y-87590000D01*
X143250578Y-87590000D01*
X143265033Y-87662669D01*
X143358507Y-87888334D01*
X143494210Y-88091428D01*
X143666927Y-88264145D01*
X143870021Y-88399848D01*
X144095686Y-88493322D01*
X144335252Y-88540974D01*
X144579510Y-88540974D01*
X144819076Y-88493322D01*
X145044741Y-88399848D01*
X145247835Y-88264145D01*
X145420552Y-88091428D01*
X145556255Y-87888334D01*
X145649729Y-87662669D01*
X145664184Y-87590000D01*
X146235755Y-87590000D01*
X146250000Y-87591403D01*
X146264245Y-87590000D01*
X146306850Y-87585804D01*
X146361515Y-87569221D01*
X146411895Y-87542293D01*
X146456053Y-87506053D01*
X146492293Y-87461895D01*
X146519221Y-87411515D01*
X146535804Y-87356850D01*
X146541403Y-87300000D01*
X146540000Y-87285755D01*
X146540000Y-85434245D01*
X146541403Y-85420000D01*
X146535804Y-85363150D01*
X146519221Y-85308485D01*
X146492293Y-85258105D01*
X146456053Y-85213947D01*
X146411895Y-85177707D01*
X146361515Y-85150779D01*
X146306850Y-85134196D01*
X146264245Y-85130000D01*
X146250000Y-85128597D01*
X146235755Y-85130000D01*
X144496590Y-85130000D01*
X144529098Y-85097642D01*
X144579780Y-85068296D01*
X144659923Y-85045425D01*
X144792047Y-85035000D01*
X147646416Y-85035000D01*
X147714815Y-85037049D01*
X147763668Y-85042074D01*
X147799864Y-85049056D01*
X147828621Y-85057570D01*
X147856092Y-85068577D01*
X147887715Y-85084017D01*
X147927146Y-85105344D01*
X147974233Y-85131294D01*
X147978472Y-85133575D01*
X148032372Y-85161885D01*
X148040662Y-85166037D01*
X148057087Y-85173870D01*
X148070528Y-85182851D01*
X148177901Y-85227327D01*
X148291888Y-85250000D01*
X148408108Y-85250000D01*
X148522095Y-85227327D01*
X148629468Y-85182851D01*
X148726101Y-85118283D01*
X148808281Y-85036103D01*
X148872849Y-84939470D01*
X148917325Y-84832097D01*
X148939998Y-84718110D01*
X148939998Y-84601890D01*
X148917325Y-84487903D01*
X148872849Y-84380530D01*
X148808281Y-84283897D01*
X148773543Y-84249159D01*
X148818946Y-84244687D01*
X148888126Y-84223702D01*
X148951882Y-84189623D01*
X149007765Y-84143761D01*
X149019257Y-84129758D01*
X149166550Y-83982465D01*
X149139967Y-84046643D01*
X149100000Y-84247569D01*
X149100000Y-84452431D01*
X149139967Y-84653357D01*
X149218364Y-84842625D01*
X149332179Y-85012961D01*
X149477039Y-85157821D01*
X149647375Y-85271636D01*
X149784190Y-85328307D01*
X149742431Y-85320000D01*
X149537569Y-85320000D01*
X149336643Y-85359967D01*
X149147375Y-85438364D01*
X148977039Y-85552179D01*
X148832179Y-85697039D01*
X148718364Y-85867375D01*
X148639967Y-86056643D01*
X148600000Y-86257569D01*
X148600000Y-86462431D01*
X148639967Y-86663357D01*
X148718364Y-86852625D01*
X148832179Y-87022961D01*
X148977039Y-87167821D01*
X149147375Y-87281636D01*
X149336643Y-87360033D01*
X149537569Y-87400000D01*
X149742431Y-87400000D01*
X149943357Y-87360033D01*
X150132625Y-87281636D01*
X150302961Y-87167821D01*
X150447821Y-87022961D01*
X150535791Y-86891304D01*
X150633655Y-86989168D01*
X150766321Y-87077812D01*
X150913732Y-87138872D01*
X151070222Y-87170000D01*
X151229778Y-87170000D01*
X151386268Y-87138872D01*
X151533679Y-87077812D01*
X151666345Y-86989168D01*
X151779168Y-86876345D01*
X151867812Y-86743679D01*
X151928872Y-86596268D01*
X151960000Y-86439778D01*
X151960000Y-86280222D01*
X151928872Y-86123732D01*
X151867812Y-85976321D01*
X151779168Y-85843655D01*
X151666345Y-85730832D01*
X151533679Y-85642188D01*
X151386268Y-85581128D01*
X151229778Y-85550000D01*
X151070222Y-85550000D01*
X150913732Y-85581128D01*
X150766321Y-85642188D01*
X150633655Y-85730832D01*
X150535791Y-85828696D01*
X150447821Y-85697039D01*
X150302961Y-85552179D01*
X150132625Y-85438364D01*
X149995810Y-85381693D01*
X150037569Y-85390000D01*
X150242431Y-85390000D01*
X150443357Y-85350033D01*
X150632625Y-85271636D01*
X150802961Y-85157821D01*
X150947821Y-85012961D01*
X151061636Y-84842625D01*
X151140000Y-84653437D01*
X151218364Y-84842625D01*
X151332179Y-85012961D01*
X151477039Y-85157821D01*
X151647375Y-85271636D01*
X151836643Y-85350033D01*
X152037569Y-85390000D01*
X152242431Y-85390000D01*
X152443357Y-85350033D01*
X152632625Y-85271636D01*
X152802961Y-85157821D01*
X152947821Y-85012961D01*
X153061636Y-84842625D01*
X153140033Y-84653357D01*
X153144005Y-84633386D01*
X153149967Y-84663357D01*
X153228364Y-84852625D01*
X153342179Y-85022961D01*
X153487039Y-85167821D01*
X153657375Y-85281636D01*
X153846643Y-85360033D01*
X154047569Y-85400000D01*
X154249994Y-85400000D01*
X154157375Y-85438364D01*
X153987039Y-85552179D01*
X153842179Y-85697039D01*
X153728364Y-85867375D01*
X153649967Y-86056643D01*
X153610000Y-86257569D01*
X153610000Y-86462431D01*
X153649967Y-86663357D01*
X153728364Y-86852625D01*
X153764308Y-86906419D01*
X153800064Y-86972193D01*
X153811191Y-86990638D01*
X153893698Y-87114475D01*
X153903258Y-87127812D01*
X153984972Y-87233951D01*
X153989571Y-87239739D01*
X154066604Y-87333664D01*
X154132442Y-87417294D01*
X154184121Y-87494333D01*
X154224129Y-87573678D01*
X154255129Y-87667667D01*
X154276540Y-87789678D01*
X154285001Y-87956101D01*
X154285001Y-88478811D01*
X154149860Y-88613952D01*
X154180000Y-88462431D01*
X154180000Y-88257569D01*
X154140033Y-88056643D01*
X154061636Y-87867375D01*
X153947821Y-87697039D01*
X153802961Y-87552179D01*
X153632625Y-87438364D01*
X153443357Y-87359967D01*
X153242431Y-87320000D01*
X153037569Y-87320000D01*
X152836643Y-87359967D01*
X152647375Y-87438364D01*
X152477039Y-87552179D01*
X152332179Y-87697039D01*
X152218364Y-87867375D01*
X152140000Y-88056563D01*
X152061636Y-87867375D01*
X151947821Y-87697039D01*
X151802961Y-87552179D01*
X151632625Y-87438364D01*
X151443357Y-87359967D01*
X151242431Y-87320000D01*
X151037569Y-87320000D01*
X150836643Y-87359967D01*
X150647375Y-87438364D01*
X150477039Y-87552179D01*
X150332179Y-87697039D01*
X150218364Y-87867375D01*
X150139967Y-88056643D01*
X150100000Y-88257569D01*
X150100000Y-88462431D01*
X150139967Y-88663357D01*
X150218364Y-88852625D01*
X150332179Y-89022961D01*
X150477039Y-89167821D01*
X150647375Y-89281636D01*
X150836643Y-89360033D01*
X150911887Y-89375000D01*
X137989970Y-89375000D01*
X137985044Y-89368869D01*
X137966391Y-89340614D01*
X137953813Y-89316475D01*
X137943695Y-89291259D01*
X137933752Y-89259583D01*
X137922634Y-89217763D01*
X137909643Y-89167041D01*
X137908390Y-89162346D01*
X137892487Y-89105103D01*
X137889740Y-89095929D01*
X137882232Y-89072560D01*
X137877327Y-89047903D01*
X137832851Y-88940530D01*
X137768283Y-88843897D01*
X137686103Y-88761717D01*
X137589470Y-88697149D01*
X137482097Y-88652673D01*
X137368110Y-88630000D01*
X137251890Y-88630000D01*
X137137903Y-88652673D01*
X137030530Y-88697149D01*
X136933897Y-88761717D01*
X136851717Y-88843897D01*
X136787149Y-88940530D01*
X136742673Y-89047903D01*
X136720000Y-89161890D01*
X136720000Y-89278110D01*
X136742673Y-89392097D01*
X136787149Y-89499470D01*
X136851717Y-89596103D01*
X136933897Y-89678283D01*
X137030530Y-89742851D01*
X137137903Y-89787327D01*
X137162560Y-89792232D01*
X137185929Y-89799740D01*
X137195103Y-89802487D01*
X137252346Y-89818390D01*
X137257041Y-89819643D01*
X137307763Y-89832634D01*
X137349583Y-89843752D01*
X137381259Y-89853695D01*
X137406475Y-89863813D01*
X137430614Y-89876391D01*
X137458869Y-89895044D01*
X137494770Y-89923890D01*
X137542476Y-89968664D01*
X137559225Y-89985413D01*
X137570657Y-89999343D01*
X137626236Y-90044955D01*
X137689645Y-90078848D01*
X137758448Y-90099719D01*
X137812069Y-90105000D01*
X137812070Y-90105000D01*
X137829999Y-90106766D01*
X137847928Y-90105000D01*
X152820778Y-90105000D01*
X152744203Y-90123927D01*
X152119323Y-90170000D01*
X132260000Y-90170000D01*
X132260000Y-83820020D01*
X140773569Y-83820612D01*
G37*
G04 #@! TD.AperFunction*
D18*
X152720567Y-81792958D02*
X153497880Y-81979809D01*
X154225838Y-82310277D01*
X154878170Y-82772434D01*
X155431344Y-83349609D01*
X155865398Y-84020977D01*
X156164666Y-84762302D01*
X156318355Y-85546848D01*
X156320916Y-86346306D01*
X156172261Y-87131811D01*
X155877747Y-87875048D01*
X155448005Y-88549180D01*
X154898543Y-89129886D01*
X154249180Y-89596219D01*
X154157757Y-89638430D01*
X154895413Y-88900775D01*
X154909343Y-88889343D01*
X154954955Y-88833764D01*
X154988848Y-88770355D01*
X155009719Y-88701552D01*
X155015000Y-88647931D01*
X155015000Y-88647930D01*
X155016766Y-88630001D01*
X155015000Y-88612072D01*
X155015000Y-87956105D01*
X155023460Y-87789670D01*
X155044870Y-87667667D01*
X155075870Y-87573678D01*
X155115878Y-87494333D01*
X155167557Y-87417294D01*
X155233395Y-87333664D01*
X155310428Y-87239739D01*
X155315027Y-87233951D01*
X155396741Y-87127812D01*
X155406301Y-87114475D01*
X155488808Y-86990638D01*
X155499935Y-86972194D01*
X155535692Y-86906419D01*
X155571636Y-86852625D01*
X155650033Y-86663357D01*
X155690000Y-86462431D01*
X155690000Y-86257569D01*
X155650033Y-86056643D01*
X155571636Y-85867375D01*
X155457821Y-85697039D01*
X155312961Y-85552179D01*
X155142625Y-85438364D01*
X154953357Y-85359967D01*
X154752431Y-85320000D01*
X154550006Y-85320000D01*
X154642625Y-85281636D01*
X154812961Y-85167821D01*
X154957821Y-85022961D01*
X155071636Y-84852625D01*
X155150033Y-84663357D01*
X155190000Y-84462431D01*
X155190000Y-84257569D01*
X155150033Y-84056643D01*
X155071636Y-83867375D01*
X154957821Y-83697039D01*
X154812961Y-83552179D01*
X154642625Y-83438364D01*
X154453357Y-83359967D01*
X154252431Y-83320000D01*
X154047569Y-83320000D01*
X153846643Y-83359967D01*
X153657375Y-83438364D01*
X153487039Y-83552179D01*
X153342179Y-83697039D01*
X153228364Y-83867375D01*
X153149967Y-84056643D01*
X153145995Y-84076614D01*
X153140033Y-84046643D01*
X153061636Y-83857375D01*
X152947821Y-83687039D01*
X152802961Y-83542179D01*
X152632625Y-83428364D01*
X152443357Y-83349967D01*
X152380195Y-83337403D01*
X152308348Y-83316139D01*
X152287579Y-83310987D01*
X152141841Y-83281663D01*
X152125790Y-83278996D01*
X151993122Y-83261550D01*
X151985892Y-83260710D01*
X151865218Y-83248551D01*
X151759694Y-83235752D01*
X151668781Y-83217624D01*
X151584409Y-83189625D01*
X151495996Y-83144907D01*
X151394561Y-83073633D01*
X151270902Y-82961887D01*
X151062255Y-82753240D01*
X151050763Y-82739237D01*
X150994880Y-82693375D01*
X150931124Y-82659296D01*
X150861944Y-82638311D01*
X150808022Y-82633000D01*
X150808011Y-82633000D01*
X150790000Y-82631226D01*
X150771989Y-82633000D01*
X149648011Y-82633000D01*
X149630000Y-82631226D01*
X149611988Y-82633000D01*
X149611978Y-82633000D01*
X149566083Y-82637520D01*
X149683997Y-82535079D01*
X150375761Y-82134342D01*
X151130832Y-81871642D01*
X151921938Y-81756463D01*
X152720567Y-81792958D01*
G04 #@! TA.AperFunction,Conductor*
D19*
G36*
X152720567Y-81792958D02*
G01*
X153497880Y-81979809D01*
X154225838Y-82310277D01*
X154878170Y-82772434D01*
X155431344Y-83349609D01*
X155865398Y-84020977D01*
X156164666Y-84762302D01*
X156318355Y-85546848D01*
X156320916Y-86346306D01*
X156172261Y-87131811D01*
X155877747Y-87875048D01*
X155448005Y-88549180D01*
X154898543Y-89129886D01*
X154249180Y-89596219D01*
X154157757Y-89638430D01*
X154895413Y-88900775D01*
X154909343Y-88889343D01*
X154954955Y-88833764D01*
X154988848Y-88770355D01*
X155009719Y-88701552D01*
X155015000Y-88647931D01*
X155015000Y-88647930D01*
X155016766Y-88630001D01*
X155015000Y-88612072D01*
X155015000Y-87956105D01*
X155023460Y-87789670D01*
X155044870Y-87667667D01*
X155075870Y-87573678D01*
X155115878Y-87494333D01*
X155167557Y-87417294D01*
X155233395Y-87333664D01*
X155310428Y-87239739D01*
X155315027Y-87233951D01*
X155396741Y-87127812D01*
X155406301Y-87114475D01*
X155488808Y-86990638D01*
X155499935Y-86972194D01*
X155535692Y-86906419D01*
X155571636Y-86852625D01*
X155650033Y-86663357D01*
X155690000Y-86462431D01*
X155690000Y-86257569D01*
X155650033Y-86056643D01*
X155571636Y-85867375D01*
X155457821Y-85697039D01*
X155312961Y-85552179D01*
X155142625Y-85438364D01*
X154953357Y-85359967D01*
X154752431Y-85320000D01*
X154550006Y-85320000D01*
X154642625Y-85281636D01*
X154812961Y-85167821D01*
X154957821Y-85022961D01*
X155071636Y-84852625D01*
X155150033Y-84663357D01*
X155190000Y-84462431D01*
X155190000Y-84257569D01*
X155150033Y-84056643D01*
X155071636Y-83867375D01*
X154957821Y-83697039D01*
X154812961Y-83552179D01*
X154642625Y-83438364D01*
X154453357Y-83359967D01*
X154252431Y-83320000D01*
X154047569Y-83320000D01*
X153846643Y-83359967D01*
X153657375Y-83438364D01*
X153487039Y-83552179D01*
X153342179Y-83697039D01*
X153228364Y-83867375D01*
X153149967Y-84056643D01*
X153145995Y-84076614D01*
X153140033Y-84046643D01*
X153061636Y-83857375D01*
X152947821Y-83687039D01*
X152802961Y-83542179D01*
X152632625Y-83428364D01*
X152443357Y-83349967D01*
X152380195Y-83337403D01*
X152308348Y-83316139D01*
X152287579Y-83310987D01*
X152141841Y-83281663D01*
X152125790Y-83278996D01*
X151993122Y-83261550D01*
X151985892Y-83260710D01*
X151865218Y-83248551D01*
X151759694Y-83235752D01*
X151668781Y-83217624D01*
X151584409Y-83189625D01*
X151495996Y-83144907D01*
X151394561Y-83073633D01*
X151270902Y-82961887D01*
X151062255Y-82753240D01*
X151050763Y-82739237D01*
X150994880Y-82693375D01*
X150931124Y-82659296D01*
X150861944Y-82638311D01*
X150808022Y-82633000D01*
X150808011Y-82633000D01*
X150790000Y-82631226D01*
X150771989Y-82633000D01*
X149648011Y-82633000D01*
X149630000Y-82631226D01*
X149611988Y-82633000D01*
X149611978Y-82633000D01*
X149566083Y-82637520D01*
X149683997Y-82535079D01*
X150375761Y-82134342D01*
X151130832Y-81871642D01*
X151921938Y-81756463D01*
X152720567Y-81792958D01*
G37*
G04 #@! TD.AperFunction*
D20*
X141431318Y-84013975D02*
X141279713Y-84033319D01*
X141277286Y-84033875D01*
X141275090Y-84034850D01*
X141170640Y-84093653D01*
X141168600Y-84095081D01*
X141166879Y-84096880D01*
X141166007Y-84098141D01*
X141110512Y-84189773D01*
X141109437Y-84192019D01*
X141108785Y-84194681D01*
X141092954Y-84313928D01*
X141092910Y-84316896D01*
X141107450Y-84458542D01*
X141107692Y-84460024D01*
X141143312Y-84618857D01*
X141143467Y-84619475D01*
X141190874Y-84790279D01*
X141190885Y-84790318D01*
X141240723Y-84967649D01*
X141283649Y-85146001D01*
X141291550Y-85197300D01*
X140246108Y-85197300D01*
X140338802Y-84422418D01*
X140481209Y-84405672D01*
X140484468Y-84404840D01*
X140605270Y-84356214D01*
X140608039Y-84354674D01*
X140705735Y-84283014D01*
X140707412Y-84281540D01*
X140790443Y-84194525D01*
X140791118Y-84193758D01*
X140867841Y-84099165D01*
X140946395Y-84005024D01*
X141034724Y-83919305D01*
X141141202Y-83849144D01*
X141274600Y-83801546D01*
X141431318Y-83785247D01*
X141431318Y-84013975D01*
G04 #@! TA.AperFunction,Conductor*
D19*
G36*
X141431318Y-84013975D02*
G01*
X141279713Y-84033319D01*
X141277286Y-84033875D01*
X141275090Y-84034850D01*
X141170640Y-84093653D01*
X141168600Y-84095081D01*
X141166879Y-84096880D01*
X141166007Y-84098141D01*
X141110512Y-84189773D01*
X141109437Y-84192019D01*
X141108785Y-84194681D01*
X141092954Y-84313928D01*
X141092910Y-84316896D01*
X141107450Y-84458542D01*
X141107692Y-84460024D01*
X141143312Y-84618857D01*
X141143467Y-84619475D01*
X141190874Y-84790279D01*
X141190885Y-84790318D01*
X141240723Y-84967649D01*
X141283649Y-85146001D01*
X141291550Y-85197300D01*
X140246108Y-85197300D01*
X140338802Y-84422418D01*
X140481209Y-84405672D01*
X140484468Y-84404840D01*
X140605270Y-84356214D01*
X140608039Y-84354674D01*
X140705735Y-84283014D01*
X140707412Y-84281540D01*
X140790443Y-84194525D01*
X140791118Y-84193758D01*
X140867841Y-84099165D01*
X140946395Y-84005024D01*
X141034724Y-83919305D01*
X141141202Y-83849144D01*
X141274600Y-83801546D01*
X141431318Y-83785247D01*
X141431318Y-84013975D01*
G37*
G04 #@! TD.AperFunction*
D20*
X151236036Y-83270974D02*
X151237250Y-83271942D01*
X151364900Y-83361636D01*
X151366469Y-83362578D01*
X151486217Y-83423145D01*
X151487949Y-83423866D01*
X151603291Y-83462142D01*
X151604808Y-83462543D01*
X151719239Y-83485360D01*
X151720193Y-83485513D01*
X151837208Y-83499706D01*
X151837464Y-83499734D01*
X151960351Y-83512116D01*
X152092429Y-83529485D01*
X152237170Y-83558608D01*
X152390024Y-83603847D01*
X152409886Y-84619886D01*
X151393847Y-84600024D01*
X151348608Y-84447170D01*
X151319485Y-84302429D01*
X151302116Y-84170351D01*
X151289734Y-84047464D01*
X151289706Y-84047208D01*
X151275513Y-83930193D01*
X151275360Y-83929239D01*
X151252543Y-83814808D01*
X151252142Y-83813291D01*
X151213866Y-83697949D01*
X151213145Y-83696217D01*
X151152578Y-83576469D01*
X151151636Y-83574900D01*
X151061942Y-83447250D01*
X151060974Y-83446036D01*
X150943417Y-83315946D01*
X151105946Y-83153417D01*
X151236036Y-83270974D01*
G04 #@! TA.AperFunction,Conductor*
D19*
G36*
X151236036Y-83270974D02*
G01*
X151237250Y-83271942D01*
X151364900Y-83361636D01*
X151366469Y-83362578D01*
X151486217Y-83423145D01*
X151487949Y-83423866D01*
X151603291Y-83462142D01*
X151604808Y-83462543D01*
X151719239Y-83485360D01*
X151720193Y-83485513D01*
X151837208Y-83499706D01*
X151837464Y-83499734D01*
X151960351Y-83512116D01*
X152092429Y-83529485D01*
X152237170Y-83558608D01*
X152390024Y-83603847D01*
X152409886Y-84619886D01*
X151393847Y-84600024D01*
X151348608Y-84447170D01*
X151319485Y-84302429D01*
X151302116Y-84170351D01*
X151289734Y-84047464D01*
X151289706Y-84047208D01*
X151275513Y-83930193D01*
X151275360Y-83929239D01*
X151252543Y-83814808D01*
X151252142Y-83813291D01*
X151213866Y-83697949D01*
X151213145Y-83696217D01*
X151152578Y-83576469D01*
X151151636Y-83574900D01*
X151061942Y-83447250D01*
X151060974Y-83446036D01*
X150943417Y-83315946D01*
X151105946Y-83153417D01*
X151236036Y-83270974D01*
G37*
G04 #@! TD.AperFunction*
D20*
X148506611Y-84655526D02*
X148203784Y-84963864D01*
X148149646Y-84938046D01*
X148096131Y-84909938D01*
X148048264Y-84883559D01*
X148048176Y-84883511D01*
X148003541Y-84859369D01*
X148003071Y-84859128D01*
X147959076Y-84837647D01*
X147958228Y-84837270D01*
X147912213Y-84818833D01*
X147911094Y-84818444D01*
X147860397Y-84803435D01*
X147859198Y-84803143D01*
X147801158Y-84791947D01*
X147800051Y-84791784D01*
X147732007Y-84784785D01*
X147731088Y-84784724D01*
X147662698Y-84782675D01*
X147662698Y-84557310D01*
X147729285Y-84555233D01*
X147730248Y-84555166D01*
X147796756Y-84548008D01*
X147797926Y-84547827D01*
X147854608Y-84536309D01*
X147855889Y-84535978D01*
X147905302Y-84520438D01*
X147906510Y-84519990D01*
X147951211Y-84500764D01*
X147952146Y-84500316D01*
X147994691Y-84477742D01*
X147995238Y-84477434D01*
X148038185Y-84451848D01*
X148038343Y-84451752D01*
X148084179Y-84423535D01*
X148135308Y-84393112D01*
X148186666Y-84364974D01*
X148506611Y-84655526D01*
G04 #@! TA.AperFunction,Conductor*
D19*
G36*
X148506611Y-84655526D02*
G01*
X148203784Y-84963864D01*
X148149646Y-84938046D01*
X148096131Y-84909938D01*
X148048264Y-84883559D01*
X148048176Y-84883511D01*
X148003541Y-84859369D01*
X148003071Y-84859128D01*
X147959076Y-84837647D01*
X147958228Y-84837270D01*
X147912213Y-84818833D01*
X147911094Y-84818444D01*
X147860397Y-84803435D01*
X147859198Y-84803143D01*
X147801158Y-84791947D01*
X147800051Y-84791784D01*
X147732007Y-84784785D01*
X147731088Y-84784724D01*
X147662698Y-84782675D01*
X147662698Y-84557310D01*
X147729285Y-84555233D01*
X147730248Y-84555166D01*
X147796756Y-84548008D01*
X147797926Y-84547827D01*
X147854608Y-84536309D01*
X147855889Y-84535978D01*
X147905302Y-84520438D01*
X147906510Y-84519990D01*
X147951211Y-84500764D01*
X147952146Y-84500316D01*
X147994691Y-84477742D01*
X147995238Y-84477434D01*
X148038185Y-84451848D01*
X148038343Y-84451752D01*
X148084179Y-84423535D01*
X148135308Y-84393112D01*
X148186666Y-84364974D01*
X148506611Y-84655526D01*
G37*
G04 #@! TD.AperFunction*
D20*
X143285633Y-84427420D02*
X143462508Y-84437576D01*
X143616714Y-84452546D01*
X143756768Y-84470726D01*
X143891487Y-84490552D01*
X143891526Y-84490557D01*
X144029247Y-84510392D01*
X144029517Y-84510428D01*
X144178738Y-84528656D01*
X144179156Y-84528700D01*
X144348441Y-84543711D01*
X144348910Y-84543744D01*
X144546828Y-84553930D01*
X144547278Y-84553945D01*
X144769898Y-84557499D01*
X144769898Y-84783262D01*
X144616129Y-84795395D01*
X144613643Y-84795844D01*
X144481801Y-84833469D01*
X144478922Y-84834690D01*
X144375506Y-84894570D01*
X144372911Y-84896560D01*
X144292718Y-84976382D01*
X144290970Y-84978552D01*
X144228798Y-85076000D01*
X144227871Y-85077739D01*
X144178519Y-85190500D01*
X144178099Y-85191592D01*
X144176205Y-85197300D01*
X142881193Y-85197300D01*
X143087096Y-84423851D01*
X143285633Y-84427420D01*
G04 #@! TA.AperFunction,Conductor*
D19*
G36*
X143285633Y-84427420D02*
G01*
X143462508Y-84437576D01*
X143616714Y-84452546D01*
X143756768Y-84470726D01*
X143891487Y-84490552D01*
X143891526Y-84490557D01*
X144029247Y-84510392D01*
X144029517Y-84510428D01*
X144178738Y-84528656D01*
X144179156Y-84528700D01*
X144348441Y-84543711D01*
X144348910Y-84543744D01*
X144546828Y-84553930D01*
X144547278Y-84553945D01*
X144769898Y-84557499D01*
X144769898Y-84783262D01*
X144616129Y-84795395D01*
X144613643Y-84795844D01*
X144481801Y-84833469D01*
X144478922Y-84834690D01*
X144375506Y-84894570D01*
X144372911Y-84896560D01*
X144292718Y-84976382D01*
X144290970Y-84978552D01*
X144228798Y-85076000D01*
X144227871Y-85077739D01*
X144178519Y-85190500D01*
X144178099Y-85191592D01*
X144176205Y-85197300D01*
X142881193Y-85197300D01*
X143087096Y-84423851D01*
X143285633Y-84427420D01*
G37*
G04 #@! TD.AperFunction*
D20*
X137631299Y-89117660D02*
X137649071Y-89172972D01*
X137664883Y-89229886D01*
X137678119Y-89281566D01*
X137678148Y-89281678D01*
X137690897Y-89329635D01*
X137691054Y-89330175D01*
X137705378Y-89375809D01*
X137705708Y-89376735D01*
X137723709Y-89421596D01*
X137724233Y-89422736D01*
X137748012Y-89468370D01*
X137748676Y-89469498D01*
X137780333Y-89517452D01*
X137781032Y-89518410D01*
X137822671Y-89570232D01*
X137823311Y-89570968D01*
X137868611Y-89619235D01*
X137709235Y-89778611D01*
X137660968Y-89733311D01*
X137660232Y-89732671D01*
X137608410Y-89691032D01*
X137607452Y-89690333D01*
X137559498Y-89658676D01*
X137558370Y-89658012D01*
X137512736Y-89634233D01*
X137511596Y-89633709D01*
X137466735Y-89615708D01*
X137465809Y-89615378D01*
X137420175Y-89601054D01*
X137419635Y-89600897D01*
X137371678Y-89588148D01*
X137371566Y-89588119D01*
X137319886Y-89574883D01*
X137262972Y-89559071D01*
X137207660Y-89541299D01*
X137199213Y-89109213D01*
X137631299Y-89117660D01*
G04 #@! TA.AperFunction,Conductor*
D19*
G36*
X137631299Y-89117660D02*
G01*
X137649071Y-89172972D01*
X137664883Y-89229886D01*
X137678119Y-89281566D01*
X137678148Y-89281678D01*
X137690897Y-89329635D01*
X137691054Y-89330175D01*
X137705378Y-89375809D01*
X137705708Y-89376735D01*
X137723709Y-89421596D01*
X137724233Y-89422736D01*
X137748012Y-89468370D01*
X137748676Y-89469498D01*
X137780333Y-89517452D01*
X137781032Y-89518410D01*
X137822671Y-89570232D01*
X137823311Y-89570968D01*
X137868611Y-89619235D01*
X137709235Y-89778611D01*
X137660968Y-89733311D01*
X137660232Y-89732671D01*
X137608410Y-89691032D01*
X137607452Y-89690333D01*
X137559498Y-89658676D01*
X137558370Y-89658012D01*
X137512736Y-89634233D01*
X137511596Y-89633709D01*
X137466735Y-89615708D01*
X137465809Y-89615378D01*
X137420175Y-89601054D01*
X137419635Y-89600897D01*
X137371678Y-89588148D01*
X137371566Y-89588119D01*
X137319886Y-89574883D01*
X137262972Y-89559071D01*
X137207660Y-89541299D01*
X137199213Y-89109213D01*
X137631299Y-89117660D01*
G37*
G04 #@! TD.AperFunction*
D20*
X155354402Y-86710813D02*
X155278192Y-86851001D01*
X155196238Y-86974007D01*
X155114929Y-87079621D01*
X155036497Y-87175252D01*
X155036338Y-87175450D01*
X154963352Y-87268159D01*
X154962784Y-87268940D01*
X154897731Y-87365916D01*
X154896938Y-87367273D01*
X154842198Y-87475837D01*
X154841477Y-87477577D01*
X154799431Y-87605053D01*
X154798983Y-87606836D01*
X154772010Y-87760543D01*
X154771835Y-87762093D01*
X154762929Y-87937300D01*
X154537071Y-87937300D01*
X154528164Y-87762093D01*
X154527989Y-87760543D01*
X154501016Y-87606836D01*
X154500568Y-87605053D01*
X154458522Y-87477577D01*
X154457801Y-87475837D01*
X154403061Y-87367273D01*
X154402268Y-87365916D01*
X154337215Y-87268940D01*
X154336647Y-87268159D01*
X154263661Y-87175450D01*
X154263502Y-87175252D01*
X154185070Y-87079621D01*
X154103761Y-86974007D01*
X154021807Y-86851001D01*
X153945598Y-86710813D01*
X154650000Y-85978322D01*
X155354402Y-86710813D01*
G04 #@! TA.AperFunction,Conductor*
D19*
G36*
X155354402Y-86710813D02*
G01*
X155278192Y-86851001D01*
X155196238Y-86974007D01*
X155114929Y-87079621D01*
X155036497Y-87175252D01*
X155036338Y-87175450D01*
X154963352Y-87268159D01*
X154962784Y-87268940D01*
X154897731Y-87365916D01*
X154896938Y-87367273D01*
X154842198Y-87475837D01*
X154841477Y-87477577D01*
X154799431Y-87605053D01*
X154798983Y-87606836D01*
X154772010Y-87760543D01*
X154771835Y-87762093D01*
X154762929Y-87937300D01*
X154537071Y-87937300D01*
X154528164Y-87762093D01*
X154527989Y-87760543D01*
X154501016Y-87606836D01*
X154500568Y-87605053D01*
X154458522Y-87477577D01*
X154457801Y-87475837D01*
X154403061Y-87367273D01*
X154402268Y-87365916D01*
X154337215Y-87268940D01*
X154336647Y-87268159D01*
X154263661Y-87175450D01*
X154263502Y-87175252D01*
X154185070Y-87079621D01*
X154103761Y-86974007D01*
X154021807Y-86851001D01*
X153945598Y-86710813D01*
X154650000Y-85978322D01*
X155354402Y-86710813D01*
G37*
G04 #@! TD.AperFunction*
M02*
