M48
; DRILL file {KiCad (5.1.10-1-10_14)} date Monday, November 15, 2021 at 02:12:40 PM
; FORMAT={-:-/ absolute / inch / decimal}
; #@! TF.CreationDate,2021-11-15T14:12:40-05:00
; #@! TF.GenerationSoftware,Kicad,Pcbnew,(5.1.10-1-10_14)
FMAT,2
INCH
T1C0.0118
T2C0.0394
T3C0.0449
T4C0.0449
%
G90
G05
T1
X5.2453Y-3.4217
X5.4059Y-3.5126
X5.5295Y-3.4941
X5.7831Y-3.4063
X5.8406Y-3.3331
T2
X5.3617Y-3.437
X5.4164Y-3.3626
X5.4704Y-3.437
X5.5247Y-3.3626
X5.579Y-3.437
X5.633Y-3.3626
X5.6873Y-3.437
T3
X5.8913Y-3.4
X5.911Y-3.3209
X5.9504Y-3.4787
X5.9898Y-3.3209
X6.0094Y-3.4
X6.0291Y-3.4787
X6.0689Y-3.3213
X6.0886Y-3.4
T4
X5.9508Y-3.4
T2
G00X5.9425Y-3.2185
M15
G01X6.037Y-3.2185
M16
G05
T0
M30
