M48
; DRILL file {KiCad (5.1.10-1-10_14)} date Monday, November 15, 2021 at 02:12:17 PM
; FORMAT={-:-/ absolute / inch / decimal}
; #@! TF.CreationDate,2021-11-15T14:12:17-05:00
; #@! TF.GenerationSoftware,Kicad,Pcbnew,(5.1.10-1-10_14)
FMAT,2
INCH
T1C0.0118
T2C0.0300
T3C0.0394
T4C0.1260
%
G90
G05
T1
X5.2352Y-4.236
X5.3394Y-3.8835
X5.4319Y-3.6185
X5.5752Y-3.7898
X5.576Y-3.7031
X5.6937Y-3.8374
X5.8173Y-3.8102
X5.9087Y-3.8102
X6.0555Y-3.85
T2
X5.5245Y-3.6583
X6.0556Y-3.6583
T3
X5.278Y-4.078
X5.323Y-4.0
X5.323Y-4.1559
X5.3681Y-4.078
X5.4132Y-4.0
X5.4132Y-4.1559
X5.4583Y-4.078
X5.5033Y-4.0
X5.5033Y-4.1559
X5.5484Y-4.078
X5.5935Y-4.0
X5.5935Y-4.1559
X5.6386Y-4.078
X5.6837Y-4.0
X5.6837Y-4.1559
T4
X5.0114Y-4.078
X5.9953Y-4.078
T3
G00X4.9539Y-3.7268
M15
G01X4.9539Y-3.7661
M16
G05
G00X5.0484Y-3.8055
M15
G01X5.0484Y-3.8449
M16
G05
G00X5.1941Y-3.7268
M15
G01X5.1941Y-3.7661
M16
G05
G00X5.265Y-3.8055
M15
G01X5.265Y-3.8449
M16
G05
G00X5.4106Y-3.7268
M15
G01X5.4106Y-3.7661
M16
G05
T0
M30
