G04 #@! TF.GenerationSoftware,KiCad,Pcbnew,(5.1.10-1-10_14)*
G04 #@! TF.CreationDate,2021-11-15T14:12:15-05:00*
G04 #@! TF.ProjectId,8DIN2VGA_New,3844494e-3256-4474-915f-4e65772e6b69,1*
G04 #@! TF.SameCoordinates,Original*
G04 #@! TF.FileFunction,Paste,Top*
G04 #@! TF.FilePolarity,Positive*
%FSLAX46Y46*%
G04 Gerber Fmt 4.6, Leading zero omitted, Abs format (unit mm)*
G04 Created by KiCad (PCBNEW (5.1.10-1-10_14)) date 2021-11-15 14:12:15*
%MOMM*%
%LPD*%
G01*
G04 APERTURE LIST*
G04 APERTURE END LIST*
G36*
G01*
X149322928Y-93865000D02*
X149322928Y-91615000D01*
G75*
G02*
X149697928Y-91240000I375000J0D01*
G01*
X150447928Y-91240000D01*
G75*
G02*
X150822928Y-91615000I0J-375000D01*
G01*
X150822928Y-93865000D01*
G75*
G02*
X150447928Y-94240000I-375000J0D01*
G01*
X149697928Y-94240000D01*
G75*
G02*
X149322928Y-93865000I0J375000D01*
G01*
G37*
G36*
G01*
X143822928Y-93865000D02*
X143822928Y-91615000D01*
G75*
G02*
X144197928Y-91240000I375000J0D01*
G01*
X144947928Y-91240000D01*
G75*
G02*
X145322928Y-91615000I0J-375000D01*
G01*
X145322928Y-93865000D01*
G75*
G02*
X144947928Y-94240000I-375000J0D01*
G01*
X144197928Y-94240000D01*
G75*
G02*
X143822928Y-93865000I0J375000D01*
G01*
G37*
G36*
G01*
X146572928Y-93865000D02*
X146572928Y-91615000D01*
G75*
G02*
X146947928Y-91240000I375000J0D01*
G01*
X147697928Y-91240000D01*
G75*
G02*
X148072928Y-91615000I0J-375000D01*
G01*
X148072928Y-93865000D01*
G75*
G02*
X147697928Y-94240000I-375000J0D01*
G01*
X146947928Y-94240000D01*
G75*
G02*
X146572928Y-93865000I0J375000D01*
G01*
G37*
G36*
G01*
X149130000Y-99785000D02*
X149630000Y-99785000D01*
G75*
G02*
X149855000Y-100010000I0J-225000D01*
G01*
X149855000Y-100460000D01*
G75*
G02*
X149630000Y-100685000I-225000J0D01*
G01*
X149130000Y-100685000D01*
G75*
G02*
X148905000Y-100460000I0J225000D01*
G01*
X148905000Y-100010000D01*
G75*
G02*
X149130000Y-99785000I225000J0D01*
G01*
G37*
G36*
G01*
X149130000Y-98235000D02*
X149630000Y-98235000D01*
G75*
G02*
X149855000Y-98460000I0J-225000D01*
G01*
X149855000Y-98910000D01*
G75*
G02*
X149630000Y-99135000I-225000J0D01*
G01*
X149130000Y-99135000D01*
G75*
G02*
X148905000Y-98910000I0J225000D01*
G01*
X148905000Y-98460000D01*
G75*
G02*
X149130000Y-98235000I225000J0D01*
G01*
G37*
G36*
G01*
X147270000Y-103995000D02*
X147770000Y-103995000D01*
G75*
G02*
X147995000Y-104220000I0J-225000D01*
G01*
X147995000Y-104670000D01*
G75*
G02*
X147770000Y-104895000I-225000J0D01*
G01*
X147270000Y-104895000D01*
G75*
G02*
X147045000Y-104670000I0J225000D01*
G01*
X147045000Y-104220000D01*
G75*
G02*
X147270000Y-103995000I225000J0D01*
G01*
G37*
G36*
G01*
X147270000Y-102445000D02*
X147770000Y-102445000D01*
G75*
G02*
X147995000Y-102670000I0J-225000D01*
G01*
X147995000Y-103120000D01*
G75*
G02*
X147770000Y-103345000I-225000J0D01*
G01*
X147270000Y-103345000D01*
G75*
G02*
X147045000Y-103120000I0J225000D01*
G01*
X147045000Y-102670000D01*
G75*
G02*
X147270000Y-102445000I225000J0D01*
G01*
G37*
M02*
