G04 #@! TF.GenerationSoftware,KiCad,Pcbnew,(5.1.10-1-10_14)*
G04 #@! TF.CreationDate,2021-11-15T14:12:15-05:00*
G04 #@! TF.ProjectId,8DIN2VGA_New,3844494e-3256-4474-915f-4e65772e6b69,1*
G04 #@! TF.SameCoordinates,Original*
G04 #@! TF.FileFunction,Legend,Top*
G04 #@! TF.FilePolarity,Positive*
%FSLAX46Y46*%
G04 Gerber Fmt 4.6, Leading zero omitted, Abs format (unit mm)*
G04 Created by KiCad (PCBNEW (5.1.10-1-10_14)) date 2021-11-15 14:12:15*
%MOMM*%
%LPD*%
G01*
G04 APERTURE LIST*
%ADD10C,0.127000*%
%ADD11C,0.200000*%
%ADD12C,0.120000*%
%ADD13C,0.150000*%
%ADD14C,1.625600*%
%ADD15O,1.609600X3.117600*%
%ADD16C,1.801600*%
%ADD17C,4.167600*%
G04 APERTURE END LIST*
D10*
X145476428Y-106812714D02*
X145476428Y-107357000D01*
X145440142Y-107465857D01*
X145367571Y-107538428D01*
X145258714Y-107574714D01*
X145186142Y-107574714D01*
X146129571Y-107538428D02*
X146057000Y-107574714D01*
X145911857Y-107574714D01*
X145839285Y-107538428D01*
X145803000Y-107465857D01*
X145803000Y-107175571D01*
X145839285Y-107103000D01*
X145911857Y-107066714D01*
X146057000Y-107066714D01*
X146129571Y-107103000D01*
X146165857Y-107175571D01*
X146165857Y-107248142D01*
X145803000Y-107320714D01*
X146383571Y-107066714D02*
X146673857Y-107066714D01*
X146492428Y-107574714D02*
X146492428Y-106921571D01*
X146528714Y-106849000D01*
X146601285Y-106812714D01*
X146673857Y-106812714D01*
X146819000Y-107066714D02*
X147109285Y-107066714D01*
X146927857Y-107574714D02*
X146927857Y-106921571D01*
X146964142Y-106849000D01*
X147036714Y-106812714D01*
X147109285Y-106812714D01*
X148379285Y-107502142D02*
X148343000Y-107538428D01*
X148234142Y-107574714D01*
X148161571Y-107574714D01*
X148052714Y-107538428D01*
X147980142Y-107465857D01*
X147943857Y-107393285D01*
X147907571Y-107248142D01*
X147907571Y-107139285D01*
X147943857Y-106994142D01*
X147980142Y-106921571D01*
X148052714Y-106849000D01*
X148161571Y-106812714D01*
X148234142Y-106812714D01*
X148343000Y-106849000D01*
X148379285Y-106885285D01*
X148705857Y-107574714D02*
X148705857Y-106812714D01*
X149032428Y-107574714D02*
X149032428Y-107175571D01*
X148996142Y-107103000D01*
X148923571Y-107066714D01*
X148814714Y-107066714D01*
X148742142Y-107103000D01*
X148705857Y-107139285D01*
X149685571Y-107538428D02*
X149613000Y-107574714D01*
X149467857Y-107574714D01*
X149395285Y-107538428D01*
X149359000Y-107465857D01*
X149359000Y-107175571D01*
X149395285Y-107103000D01*
X149467857Y-107066714D01*
X149613000Y-107066714D01*
X149685571Y-107103000D01*
X149721857Y-107175571D01*
X149721857Y-107248142D01*
X149359000Y-107320714D01*
X150048428Y-107066714D02*
X150048428Y-107574714D01*
X150048428Y-107139285D02*
X150084714Y-107103000D01*
X150157285Y-107066714D01*
X150266142Y-107066714D01*
X150338714Y-107103000D01*
X150375000Y-107175571D01*
X150375000Y-107574714D01*
X150774142Y-107538428D02*
X150774142Y-107574714D01*
X150737857Y-107647285D01*
X150701571Y-107683571D01*
X151645000Y-106885285D02*
X151681285Y-106849000D01*
X151753857Y-106812714D01*
X151935285Y-106812714D01*
X152007857Y-106849000D01*
X152044142Y-106885285D01*
X152080428Y-106957857D01*
X152080428Y-107030428D01*
X152044142Y-107139285D01*
X151608714Y-107574714D01*
X152080428Y-107574714D01*
X152552142Y-106812714D02*
X152624714Y-106812714D01*
X152697285Y-106849000D01*
X152733571Y-106885285D01*
X152769857Y-106957857D01*
X152806142Y-107103000D01*
X152806142Y-107284428D01*
X152769857Y-107429571D01*
X152733571Y-107502142D01*
X152697285Y-107538428D01*
X152624714Y-107574714D01*
X152552142Y-107574714D01*
X152479571Y-107538428D01*
X152443285Y-107502142D01*
X152407000Y-107429571D01*
X152370714Y-107284428D01*
X152370714Y-107103000D01*
X152407000Y-106957857D01*
X152443285Y-106885285D01*
X152479571Y-106849000D01*
X152552142Y-106812714D01*
X153096428Y-106885285D02*
X153132714Y-106849000D01*
X153205285Y-106812714D01*
X153386714Y-106812714D01*
X153459285Y-106849000D01*
X153495571Y-106885285D01*
X153531857Y-106957857D01*
X153531857Y-107030428D01*
X153495571Y-107139285D01*
X153060142Y-107574714D01*
X153531857Y-107574714D01*
X154257571Y-107574714D02*
X153822142Y-107574714D01*
X154039857Y-107574714D02*
X154039857Y-106812714D01*
X153967285Y-106921571D01*
X153894714Y-106994142D01*
X153822142Y-107030428D01*
D11*
X138987142Y-97593571D02*
X138987142Y-96093571D01*
X139844285Y-97593571D01*
X139844285Y-96093571D01*
X140558571Y-96807857D02*
X141058571Y-96807857D01*
X141272857Y-97593571D02*
X140558571Y-97593571D01*
X140558571Y-96093571D01*
X141272857Y-96093571D01*
X142201428Y-96093571D02*
X142487142Y-96093571D01*
X142630000Y-96165000D01*
X142772857Y-96307857D01*
X142844285Y-96593571D01*
X142844285Y-97093571D01*
X142772857Y-97379285D01*
X142630000Y-97522142D01*
X142487142Y-97593571D01*
X142201428Y-97593571D01*
X142058571Y-97522142D01*
X141915714Y-97379285D01*
X141844285Y-97093571D01*
X141844285Y-96593571D01*
X141915714Y-96307857D01*
X142058571Y-96165000D01*
X142201428Y-96093571D01*
X136094285Y-99186428D02*
X135951428Y-99115000D01*
X135880000Y-99043571D01*
X135808571Y-98900714D01*
X135808571Y-98829285D01*
X135880000Y-98686428D01*
X135951428Y-98615000D01*
X136094285Y-98543571D01*
X136380000Y-98543571D01*
X136522857Y-98615000D01*
X136594285Y-98686428D01*
X136665714Y-98829285D01*
X136665714Y-98900714D01*
X136594285Y-99043571D01*
X136522857Y-99115000D01*
X136380000Y-99186428D01*
X136094285Y-99186428D01*
X135951428Y-99257857D01*
X135880000Y-99329285D01*
X135808571Y-99472142D01*
X135808571Y-99757857D01*
X135880000Y-99900714D01*
X135951428Y-99972142D01*
X136094285Y-100043571D01*
X136380000Y-100043571D01*
X136522857Y-99972142D01*
X136594285Y-99900714D01*
X136665714Y-99757857D01*
X136665714Y-99472142D01*
X136594285Y-99329285D01*
X136522857Y-99257857D01*
X136380000Y-99186428D01*
X137308571Y-100043571D02*
X137308571Y-98543571D01*
X137665714Y-98543571D01*
X137880000Y-98615000D01*
X138022857Y-98757857D01*
X138094285Y-98900714D01*
X138165714Y-99186428D01*
X138165714Y-99400714D01*
X138094285Y-99686428D01*
X138022857Y-99829285D01*
X137880000Y-99972142D01*
X137665714Y-100043571D01*
X137308571Y-100043571D01*
X138808571Y-100043571D02*
X138808571Y-98543571D01*
X139522857Y-100043571D02*
X139522857Y-98543571D01*
X140380000Y-100043571D01*
X140380000Y-98543571D01*
X141022857Y-98686428D02*
X141094285Y-98615000D01*
X141237142Y-98543571D01*
X141594285Y-98543571D01*
X141737142Y-98615000D01*
X141808571Y-98686428D01*
X141880000Y-98829285D01*
X141880000Y-98972142D01*
X141808571Y-99186428D01*
X140951428Y-100043571D01*
X141880000Y-100043571D01*
X142308571Y-98543571D02*
X142808571Y-100043571D01*
X143308571Y-98543571D01*
X144594285Y-98615000D02*
X144451428Y-98543571D01*
X144237142Y-98543571D01*
X144022857Y-98615000D01*
X143880000Y-98757857D01*
X143808571Y-98900714D01*
X143737142Y-99186428D01*
X143737142Y-99400714D01*
X143808571Y-99686428D01*
X143880000Y-99829285D01*
X144022857Y-99972142D01*
X144237142Y-100043571D01*
X144380000Y-100043571D01*
X144594285Y-99972142D01*
X144665714Y-99900714D01*
X144665714Y-99400714D01*
X144380000Y-99400714D01*
X145237142Y-99615000D02*
X145951428Y-99615000D01*
X145094285Y-100043571D02*
X145594285Y-98543571D01*
X146094285Y-100043571D01*
D12*
X148870000Y-99319420D02*
X148870000Y-99600580D01*
X149890000Y-99319420D02*
X149890000Y-99600580D01*
X147010000Y-103529420D02*
X147010000Y-103810580D01*
X148030000Y-103529420D02*
X148030000Y-103810580D01*
D13*
X152931904Y-94940380D02*
X152931904Y-93940380D01*
X153312857Y-93940380D01*
X153408095Y-93988000D01*
X153455714Y-94035619D01*
X153503333Y-94130857D01*
X153503333Y-94273714D01*
X153455714Y-94368952D01*
X153408095Y-94416571D01*
X153312857Y-94464190D01*
X152931904Y-94464190D01*
X154455714Y-94940380D02*
X153884285Y-94940380D01*
X154170000Y-94940380D02*
X154170000Y-93940380D01*
X154074761Y-94083238D01*
X153979523Y-94178476D01*
X153884285Y-94226095D01*
X148327857Y-99585000D02*
X148363571Y-99620714D01*
X148399285Y-99727857D01*
X148399285Y-99799285D01*
X148363571Y-99906428D01*
X148292142Y-99977857D01*
X148220714Y-100013571D01*
X148077857Y-100049285D01*
X147970714Y-100049285D01*
X147827857Y-100013571D01*
X147756428Y-99977857D01*
X147685000Y-99906428D01*
X147649285Y-99799285D01*
X147649285Y-99727857D01*
X147685000Y-99620714D01*
X147720714Y-99585000D01*
X148399285Y-98870714D02*
X148399285Y-99299285D01*
X148399285Y-99085000D02*
X147649285Y-99085000D01*
X147756428Y-99156428D01*
X147827857Y-99227857D01*
X147863571Y-99299285D01*
X146437857Y-103795000D02*
X146473571Y-103830714D01*
X146509285Y-103937857D01*
X146509285Y-104009285D01*
X146473571Y-104116428D01*
X146402142Y-104187857D01*
X146330714Y-104223571D01*
X146187857Y-104259285D01*
X146080714Y-104259285D01*
X145937857Y-104223571D01*
X145866428Y-104187857D01*
X145795000Y-104116428D01*
X145759285Y-104009285D01*
X145759285Y-103937857D01*
X145795000Y-103830714D01*
X145830714Y-103795000D01*
X145830714Y-103509285D02*
X145795000Y-103473571D01*
X145759285Y-103402142D01*
X145759285Y-103223571D01*
X145795000Y-103152142D01*
X145830714Y-103116428D01*
X145902142Y-103080714D01*
X145973571Y-103080714D01*
X146080714Y-103116428D01*
X146509285Y-103545000D01*
X146509285Y-103080714D01*
%LPC*%
D14*
X140322928Y-92920000D03*
X153812928Y-92920000D03*
G36*
G01*
X149272128Y-93890400D02*
X149272128Y-91589600D01*
G75*
G02*
X149672528Y-91189200I400400J0D01*
G01*
X150473328Y-91189200D01*
G75*
G02*
X150873728Y-91589600I0J-400400D01*
G01*
X150873728Y-93890400D01*
G75*
G02*
X150473328Y-94290800I-400400J0D01*
G01*
X149672528Y-94290800D01*
G75*
G02*
X149272128Y-93890400I0J400400D01*
G01*
G37*
G36*
G01*
X143772128Y-93890400D02*
X143772128Y-91589600D01*
G75*
G02*
X144172528Y-91189200I400400J0D01*
G01*
X144973328Y-91189200D01*
G75*
G02*
X145373728Y-91589600I0J-400400D01*
G01*
X145373728Y-93890400D01*
G75*
G02*
X144973328Y-94290800I-400400J0D01*
G01*
X144172528Y-94290800D01*
G75*
G02*
X143772128Y-93890400I0J400400D01*
G01*
G37*
G36*
G01*
X146522128Y-93890400D02*
X146522128Y-91589600D01*
G75*
G02*
X146922528Y-91189200I400400J0D01*
G01*
X147723328Y-91189200D01*
G75*
G02*
X148123728Y-91589600I0J-400400D01*
G01*
X148123728Y-93890400D01*
G75*
G02*
X147723328Y-94290800I-400400J0D01*
G01*
X146922528Y-94290800D01*
G75*
G02*
X146522128Y-93890400I0J400400D01*
G01*
G37*
G36*
G01*
X149104600Y-99734200D02*
X149655400Y-99734200D01*
G75*
G02*
X149905800Y-99984600I0J-250400D01*
G01*
X149905800Y-100485400D01*
G75*
G02*
X149655400Y-100735800I-250400J0D01*
G01*
X149104600Y-100735800D01*
G75*
G02*
X148854200Y-100485400I0J250400D01*
G01*
X148854200Y-99984600D01*
G75*
G02*
X149104600Y-99734200I250400J0D01*
G01*
G37*
G36*
G01*
X149104600Y-98184200D02*
X149655400Y-98184200D01*
G75*
G02*
X149905800Y-98434600I0J-250400D01*
G01*
X149905800Y-98935400D01*
G75*
G02*
X149655400Y-99185800I-250400J0D01*
G01*
X149104600Y-99185800D01*
G75*
G02*
X148854200Y-98935400I0J250400D01*
G01*
X148854200Y-98434600D01*
G75*
G02*
X149104600Y-98184200I250400J0D01*
G01*
G37*
G36*
G01*
X147244600Y-103944200D02*
X147795400Y-103944200D01*
G75*
G02*
X148045800Y-104194600I0J-250400D01*
G01*
X148045800Y-104695400D01*
G75*
G02*
X147795400Y-104945800I-250400J0D01*
G01*
X147244600Y-104945800D01*
G75*
G02*
X146994200Y-104695400I0J250400D01*
G01*
X146994200Y-104194600D01*
G75*
G02*
X147244600Y-103944200I250400J0D01*
G01*
G37*
G36*
G01*
X147244600Y-102394200D02*
X147795400Y-102394200D01*
G75*
G02*
X148045800Y-102644600I0J-250400D01*
G01*
X148045800Y-103145400D01*
G75*
G02*
X147795400Y-103395800I-250400J0D01*
G01*
X147244600Y-103395800D01*
G75*
G02*
X146994200Y-103145400I0J250400D01*
G01*
X146994200Y-102644600D01*
G75*
G02*
X147244600Y-102394200I250400J0D01*
G01*
G37*
D15*
X125830000Y-95160000D03*
X128230000Y-97160000D03*
X131930000Y-95160000D03*
X133730000Y-97160000D03*
X137430000Y-95160000D03*
D16*
X144365000Y-105560000D03*
X142075000Y-105560000D03*
X139785000Y-105560000D03*
X137495000Y-105560000D03*
X135205000Y-105560000D03*
X143220000Y-103580000D03*
X140930000Y-103580000D03*
X138640000Y-103580000D03*
X136350000Y-103580000D03*
X134060000Y-103580000D03*
X144365000Y-101600000D03*
X142075000Y-101600000D03*
X139785000Y-101600000D03*
X137495000Y-101600000D03*
D17*
X152280000Y-103580000D03*
X127290000Y-103580000D03*
G36*
G01*
X134304200Y-102450000D02*
X134304200Y-100750000D01*
G75*
G02*
X134355000Y-100699200I50800J0D01*
G01*
X136055000Y-100699200D01*
G75*
G02*
X136105800Y-100750000I0J-50800D01*
G01*
X136105800Y-102450000D01*
G75*
G02*
X136055000Y-102500800I-50800J0D01*
G01*
X134355000Y-102500800D01*
G75*
G02*
X134304200Y-102450000I0J50800D01*
G01*
G37*
M02*
