G04 #@! TF.GenerationSoftware,KiCad,Pcbnew,(5.1.10-1-10_14)*
G04 #@! TF.CreationDate,2021-11-15T14:12:15-05:00*
G04 #@! TF.ProjectId,8DIN2VGA_New,3844494e-3256-4474-915f-4e65772e6b69,1*
G04 #@! TF.SameCoordinates,Original*
G04 #@! TF.FileFunction,Soldermask,Top*
G04 #@! TF.FilePolarity,Negative*
%FSLAX46Y46*%
G04 Gerber Fmt 4.6, Leading zero omitted, Abs format (unit mm)*
G04 Created by KiCad (PCBNEW (5.1.10-1-10_14)) date 2021-11-15 14:12:15*
%MOMM*%
%LPD*%
G01*
G04 APERTURE LIST*
%ADD10C,1.625600*%
%ADD11O,1.609600X3.117600*%
%ADD12C,1.801600*%
%ADD13C,4.167600*%
G04 APERTURE END LIST*
D10*
X140322928Y-92920000D03*
X153812928Y-92920000D03*
G36*
G01*
X149272128Y-93890400D02*
X149272128Y-91589600D01*
G75*
G02*
X149672528Y-91189200I400400J0D01*
G01*
X150473328Y-91189200D01*
G75*
G02*
X150873728Y-91589600I0J-400400D01*
G01*
X150873728Y-93890400D01*
G75*
G02*
X150473328Y-94290800I-400400J0D01*
G01*
X149672528Y-94290800D01*
G75*
G02*
X149272128Y-93890400I0J400400D01*
G01*
G37*
G36*
G01*
X143772128Y-93890400D02*
X143772128Y-91589600D01*
G75*
G02*
X144172528Y-91189200I400400J0D01*
G01*
X144973328Y-91189200D01*
G75*
G02*
X145373728Y-91589600I0J-400400D01*
G01*
X145373728Y-93890400D01*
G75*
G02*
X144973328Y-94290800I-400400J0D01*
G01*
X144172528Y-94290800D01*
G75*
G02*
X143772128Y-93890400I0J400400D01*
G01*
G37*
G36*
G01*
X146522128Y-93890400D02*
X146522128Y-91589600D01*
G75*
G02*
X146922528Y-91189200I400400J0D01*
G01*
X147723328Y-91189200D01*
G75*
G02*
X148123728Y-91589600I0J-400400D01*
G01*
X148123728Y-93890400D01*
G75*
G02*
X147723328Y-94290800I-400400J0D01*
G01*
X146922528Y-94290800D01*
G75*
G02*
X146522128Y-93890400I0J400400D01*
G01*
G37*
G36*
G01*
X149104600Y-99734200D02*
X149655400Y-99734200D01*
G75*
G02*
X149905800Y-99984600I0J-250400D01*
G01*
X149905800Y-100485400D01*
G75*
G02*
X149655400Y-100735800I-250400J0D01*
G01*
X149104600Y-100735800D01*
G75*
G02*
X148854200Y-100485400I0J250400D01*
G01*
X148854200Y-99984600D01*
G75*
G02*
X149104600Y-99734200I250400J0D01*
G01*
G37*
G36*
G01*
X149104600Y-98184200D02*
X149655400Y-98184200D01*
G75*
G02*
X149905800Y-98434600I0J-250400D01*
G01*
X149905800Y-98935400D01*
G75*
G02*
X149655400Y-99185800I-250400J0D01*
G01*
X149104600Y-99185800D01*
G75*
G02*
X148854200Y-98935400I0J250400D01*
G01*
X148854200Y-98434600D01*
G75*
G02*
X149104600Y-98184200I250400J0D01*
G01*
G37*
G36*
G01*
X147244600Y-103944200D02*
X147795400Y-103944200D01*
G75*
G02*
X148045800Y-104194600I0J-250400D01*
G01*
X148045800Y-104695400D01*
G75*
G02*
X147795400Y-104945800I-250400J0D01*
G01*
X147244600Y-104945800D01*
G75*
G02*
X146994200Y-104695400I0J250400D01*
G01*
X146994200Y-104194600D01*
G75*
G02*
X147244600Y-103944200I250400J0D01*
G01*
G37*
G36*
G01*
X147244600Y-102394200D02*
X147795400Y-102394200D01*
G75*
G02*
X148045800Y-102644600I0J-250400D01*
G01*
X148045800Y-103145400D01*
G75*
G02*
X147795400Y-103395800I-250400J0D01*
G01*
X147244600Y-103395800D01*
G75*
G02*
X146994200Y-103145400I0J250400D01*
G01*
X146994200Y-102644600D01*
G75*
G02*
X147244600Y-102394200I250400J0D01*
G01*
G37*
D11*
X125830000Y-95160000D03*
X128230000Y-97160000D03*
X131930000Y-95160000D03*
X133730000Y-97160000D03*
X137430000Y-95160000D03*
D12*
X144365000Y-105560000D03*
X142075000Y-105560000D03*
X139785000Y-105560000D03*
X137495000Y-105560000D03*
X135205000Y-105560000D03*
X143220000Y-103580000D03*
X140930000Y-103580000D03*
X138640000Y-103580000D03*
X136350000Y-103580000D03*
X134060000Y-103580000D03*
X144365000Y-101600000D03*
X142075000Y-101600000D03*
X139785000Y-101600000D03*
X137495000Y-101600000D03*
D13*
X152280000Y-103580000D03*
X127290000Y-103580000D03*
G36*
G01*
X134304200Y-102450000D02*
X134304200Y-100750000D01*
G75*
G02*
X134355000Y-100699200I50800J0D01*
G01*
X136055000Y-100699200D01*
G75*
G02*
X136105800Y-100750000I0J-50800D01*
G01*
X136105800Y-102450000D01*
G75*
G02*
X136055000Y-102500800I-50800J0D01*
G01*
X134355000Y-102500800D01*
G75*
G02*
X134304200Y-102450000I0J50800D01*
G01*
G37*
M02*
