G04 #@! TF.GenerationSoftware,KiCad,Pcbnew,(5.1.10-1-10_14)*
G04 #@! TF.CreationDate,2021-11-15T14:12:15-05:00*
G04 #@! TF.ProjectId,8DIN2VGA_New,3844494e-3256-4474-915f-4e65772e6b69,1*
G04 #@! TF.SameCoordinates,Original*
G04 #@! TF.FileFunction,Copper,L1,Top*
G04 #@! TF.FilePolarity,Positive*
%FSLAX46Y46*%
G04 Gerber Fmt 4.6, Leading zero omitted, Abs format (unit mm)*
G04 Created by KiCad (PCBNEW (5.1.10-1-10_14)) date 2021-11-15 14:12:15*
%MOMM*%
%LPD*%
G01*
G04 APERTURE LIST*
G04 #@! TA.AperFunction,ComponentPad*
%ADD10C,1.524000*%
G04 #@! TD*
G04 #@! TA.AperFunction,ComponentPad*
%ADD11O,1.508000X3.016000*%
G04 #@! TD*
G04 #@! TA.AperFunction,ComponentPad*
%ADD12C,1.700000*%
G04 #@! TD*
G04 #@! TA.AperFunction,ComponentPad*
%ADD13C,4.066000*%
G04 #@! TD*
G04 #@! TA.AperFunction,ComponentPad*
%ADD14R,1.700000X1.700000*%
G04 #@! TD*
G04 #@! TA.AperFunction,ViaPad*
%ADD15C,0.700000*%
G04 #@! TD*
G04 #@! TA.AperFunction,Conductor*
%ADD16C,0.250000*%
G04 #@! TD*
G04 #@! TA.AperFunction,Conductor*
%ADD17C,0.160000*%
G04 #@! TD*
G04 #@! TA.AperFunction,Conductor*
%ADD18C,0.152400*%
G04 #@! TD*
G04 #@! TA.AperFunction,Conductor*
%ADD19C,0.025400*%
G04 #@! TD*
G04 APERTURE END LIST*
D10*
X140322928Y-92920000D03*
X153812928Y-92920000D03*
G04 #@! TA.AperFunction,SMDPad,CuDef*
G36*
G01*
X149322928Y-93865000D02*
X149322928Y-91615000D01*
G75*
G02*
X149697928Y-91240000I375000J0D01*
G01*
X150447928Y-91240000D01*
G75*
G02*
X150822928Y-91615000I0J-375000D01*
G01*
X150822928Y-93865000D01*
G75*
G02*
X150447928Y-94240000I-375000J0D01*
G01*
X149697928Y-94240000D01*
G75*
G02*
X149322928Y-93865000I0J375000D01*
G01*
G37*
G04 #@! TD.AperFunction*
G04 #@! TA.AperFunction,SMDPad,CuDef*
G36*
G01*
X143822928Y-93865000D02*
X143822928Y-91615000D01*
G75*
G02*
X144197928Y-91240000I375000J0D01*
G01*
X144947928Y-91240000D01*
G75*
G02*
X145322928Y-91615000I0J-375000D01*
G01*
X145322928Y-93865000D01*
G75*
G02*
X144947928Y-94240000I-375000J0D01*
G01*
X144197928Y-94240000D01*
G75*
G02*
X143822928Y-93865000I0J375000D01*
G01*
G37*
G04 #@! TD.AperFunction*
G04 #@! TA.AperFunction,SMDPad,CuDef*
G36*
G01*
X146572928Y-93865000D02*
X146572928Y-91615000D01*
G75*
G02*
X146947928Y-91240000I375000J0D01*
G01*
X147697928Y-91240000D01*
G75*
G02*
X148072928Y-91615000I0J-375000D01*
G01*
X148072928Y-93865000D01*
G75*
G02*
X147697928Y-94240000I-375000J0D01*
G01*
X146947928Y-94240000D01*
G75*
G02*
X146572928Y-93865000I0J375000D01*
G01*
G37*
G04 #@! TD.AperFunction*
G04 #@! TA.AperFunction,SMDPad,CuDef*
G36*
G01*
X149130000Y-99785000D02*
X149630000Y-99785000D01*
G75*
G02*
X149855000Y-100010000I0J-225000D01*
G01*
X149855000Y-100460000D01*
G75*
G02*
X149630000Y-100685000I-225000J0D01*
G01*
X149130000Y-100685000D01*
G75*
G02*
X148905000Y-100460000I0J225000D01*
G01*
X148905000Y-100010000D01*
G75*
G02*
X149130000Y-99785000I225000J0D01*
G01*
G37*
G04 #@! TD.AperFunction*
G04 #@! TA.AperFunction,SMDPad,CuDef*
G36*
G01*
X149130000Y-98235000D02*
X149630000Y-98235000D01*
G75*
G02*
X149855000Y-98460000I0J-225000D01*
G01*
X149855000Y-98910000D01*
G75*
G02*
X149630000Y-99135000I-225000J0D01*
G01*
X149130000Y-99135000D01*
G75*
G02*
X148905000Y-98910000I0J225000D01*
G01*
X148905000Y-98460000D01*
G75*
G02*
X149130000Y-98235000I225000J0D01*
G01*
G37*
G04 #@! TD.AperFunction*
G04 #@! TA.AperFunction,SMDPad,CuDef*
G36*
G01*
X147270000Y-103995000D02*
X147770000Y-103995000D01*
G75*
G02*
X147995000Y-104220000I0J-225000D01*
G01*
X147995000Y-104670000D01*
G75*
G02*
X147770000Y-104895000I-225000J0D01*
G01*
X147270000Y-104895000D01*
G75*
G02*
X147045000Y-104670000I0J225000D01*
G01*
X147045000Y-104220000D01*
G75*
G02*
X147270000Y-103995000I225000J0D01*
G01*
G37*
G04 #@! TD.AperFunction*
G04 #@! TA.AperFunction,SMDPad,CuDef*
G36*
G01*
X147270000Y-102445000D02*
X147770000Y-102445000D01*
G75*
G02*
X147995000Y-102670000I0J-225000D01*
G01*
X147995000Y-103120000D01*
G75*
G02*
X147770000Y-103345000I-225000J0D01*
G01*
X147270000Y-103345000D01*
G75*
G02*
X147045000Y-103120000I0J225000D01*
G01*
X147045000Y-102670000D01*
G75*
G02*
X147270000Y-102445000I225000J0D01*
G01*
G37*
G04 #@! TD.AperFunction*
D11*
X125830000Y-95160000D03*
X128230000Y-97160000D03*
X131930000Y-95160000D03*
X133730000Y-97160000D03*
X137430000Y-95160000D03*
D12*
X144365000Y-105560000D03*
X142075000Y-105560000D03*
X139785000Y-105560000D03*
X137495000Y-105560000D03*
X135205000Y-105560000D03*
X143220000Y-103580000D03*
X140930000Y-103580000D03*
X138640000Y-103580000D03*
X136350000Y-103580000D03*
X134060000Y-103580000D03*
X144365000Y-101600000D03*
X142075000Y-101600000D03*
X139785000Y-101600000D03*
X137495000Y-101600000D03*
D13*
X152280000Y-103580000D03*
X127290000Y-103580000D03*
D14*
X135205000Y-101600000D03*
D15*
X144620000Y-97470000D03*
X135620000Y-98639998D03*
X137970000Y-91910000D03*
X153810002Y-97790000D03*
X141610000Y-96260000D03*
X147760000Y-96780000D03*
X150080002Y-96780000D03*
X132975000Y-107595000D03*
X141630000Y-94060000D03*
D16*
X147820000Y-98680000D02*
X149380000Y-98680000D01*
X145430000Y-96290000D02*
X147820000Y-98680000D01*
X142710000Y-97400000D02*
X143820000Y-96290000D01*
X137430000Y-96918000D02*
X137912000Y-97400000D01*
X143820000Y-96290000D02*
X145430000Y-96290000D01*
X137912000Y-97400000D02*
X142710000Y-97400000D01*
X137430000Y-95160000D02*
X137430000Y-96918000D01*
X138150000Y-107250000D02*
X137500000Y-106600000D01*
X147960000Y-107250000D02*
X138150000Y-107250000D01*
X137500000Y-106600000D02*
X137500000Y-105560000D01*
X149380000Y-105830000D02*
X147960000Y-107250000D01*
X149380000Y-100235000D02*
X149380000Y-105830000D01*
X147520000Y-101220000D02*
X147520000Y-102900000D01*
X146030000Y-99730000D02*
X147520000Y-101220000D01*
X132850000Y-99730000D02*
X146030000Y-99730000D01*
X131930000Y-98810000D02*
X132850000Y-99730000D01*
X131930000Y-95160000D02*
X131930000Y-98810000D01*
X143490000Y-98600000D02*
X135659998Y-98600000D01*
X135659998Y-98600000D02*
X135620000Y-98639998D01*
X144620000Y-97470000D02*
X143490000Y-98600000D01*
X153790000Y-93265010D02*
X153810002Y-93285012D01*
X153810002Y-97295026D02*
X153810002Y-97790000D01*
X153810002Y-97295026D02*
X153810002Y-93395010D01*
X144572928Y-93507072D02*
X141820000Y-96260000D01*
X141820000Y-96260000D02*
X141610000Y-96260000D01*
X144572928Y-92740000D02*
X144572928Y-93507072D01*
X147322928Y-92740000D02*
X147322928Y-96342928D01*
X147322928Y-96342928D02*
X147760000Y-96780000D01*
X150072928Y-92740000D02*
X150072928Y-96772926D01*
X150072928Y-96772926D02*
X150080002Y-96780000D01*
X147520000Y-104445000D02*
X147520000Y-105040000D01*
X147520000Y-105040000D02*
X147000000Y-105560000D01*
X147000000Y-105560000D02*
X144370000Y-105560000D01*
X140880000Y-94810000D02*
X141630000Y-94060000D01*
X139620000Y-94810000D02*
X140880000Y-94810000D01*
X137190000Y-92380000D02*
X139620000Y-94810000D01*
X132975000Y-107595000D02*
X130070000Y-104690000D01*
X131090000Y-92380000D02*
X137190000Y-92380000D01*
X130070000Y-104690000D02*
X130070000Y-93400000D01*
X130070000Y-93400000D02*
X131090000Y-92380000D01*
D17*
X138560000Y-93025754D02*
X138558597Y-93040000D01*
X138564196Y-93096850D01*
X138580779Y-93151515D01*
X138607707Y-93201895D01*
X138624120Y-93221894D01*
X138643947Y-93246053D01*
X138688105Y-93282293D01*
X138738485Y-93309221D01*
X138793150Y-93325804D01*
X138850000Y-93331403D01*
X138864245Y-93330000D01*
X141745755Y-93330000D01*
X141760000Y-93331403D01*
X141774245Y-93330000D01*
X141816850Y-93325804D01*
X141871515Y-93309221D01*
X141921895Y-93282293D01*
X141966053Y-93246053D01*
X142002293Y-93201895D01*
X142029221Y-93151515D01*
X142045804Y-93096850D01*
X142051403Y-93040000D01*
X142050000Y-93025755D01*
X142050000Y-91430000D01*
X143613261Y-91430000D01*
X143593606Y-91494793D01*
X143581767Y-91615000D01*
X143581767Y-93865000D01*
X143592261Y-93971551D01*
X141933190Y-95630623D01*
X141898676Y-95662336D01*
X141877205Y-95678279D01*
X141864930Y-95685102D01*
X141858580Y-95687462D01*
X141851969Y-95688812D01*
X141838520Y-95689706D01*
X141814130Y-95688884D01*
X141777514Y-95685438D01*
X141729650Y-95679775D01*
X141728343Y-95679624D01*
X141700989Y-95676540D01*
X141668110Y-95670000D01*
X141551890Y-95670000D01*
X141437903Y-95692673D01*
X141330530Y-95737149D01*
X141233897Y-95801717D01*
X141151717Y-95883897D01*
X141087149Y-95980530D01*
X141042673Y-96087903D01*
X141020000Y-96201890D01*
X141020000Y-96318110D01*
X141042673Y-96432097D01*
X141087149Y-96539470D01*
X141151717Y-96636103D01*
X141233897Y-96718283D01*
X141330530Y-96782851D01*
X141437903Y-96827327D01*
X141551890Y-96850000D01*
X141668110Y-96850000D01*
X141782097Y-96827327D01*
X141889470Y-96782851D01*
X141986103Y-96718283D01*
X142068283Y-96636103D01*
X142075363Y-96625507D01*
X142090495Y-96609101D01*
X142099120Y-96599221D01*
X142142060Y-96547233D01*
X142149796Y-96537352D01*
X142185512Y-96489189D01*
X142191097Y-96481333D01*
X142222394Y-96435381D01*
X142224845Y-96431710D01*
X142254026Y-96387124D01*
X142282292Y-96344673D01*
X142311813Y-96303193D01*
X142346373Y-96259041D01*
X142389837Y-96208955D01*
X142447662Y-96148525D01*
X144122460Y-94473728D01*
X144197928Y-94481161D01*
X144947928Y-94481161D01*
X145068135Y-94469322D01*
X145183723Y-94434259D01*
X145290249Y-94377319D01*
X145383620Y-94300692D01*
X145460247Y-94207321D01*
X145517187Y-94100795D01*
X145552250Y-93985207D01*
X145564089Y-93865000D01*
X145564089Y-91615000D01*
X145552250Y-91494793D01*
X145532595Y-91430000D01*
X146363261Y-91430000D01*
X146343606Y-91494793D01*
X146331767Y-91615000D01*
X146331767Y-93865000D01*
X146343606Y-93985207D01*
X146378669Y-94100795D01*
X146435609Y-94207321D01*
X146512236Y-94300692D01*
X146605607Y-94377319D01*
X146712133Y-94434259D01*
X146827721Y-94469322D01*
X146947928Y-94481161D01*
X146957928Y-94481161D01*
X146957929Y-96324989D01*
X146956162Y-96342928D01*
X146963085Y-96413208D01*
X146963210Y-96414480D01*
X146984081Y-96483283D01*
X147017974Y-96546692D01*
X147032121Y-96563930D01*
X147042174Y-96582296D01*
X147071016Y-96626918D01*
X147083345Y-96644255D01*
X147114732Y-96684490D01*
X147117131Y-96687516D01*
X147143848Y-96720651D01*
X147158939Y-96741945D01*
X147164683Y-96752960D01*
X147167293Y-96761618D01*
X147170000Y-96791012D01*
X147170000Y-96838110D01*
X147192673Y-96952097D01*
X147237149Y-97059470D01*
X147301717Y-97156103D01*
X147383897Y-97238283D01*
X147480530Y-97302851D01*
X147587903Y-97347327D01*
X147701890Y-97370000D01*
X147818110Y-97370000D01*
X147932097Y-97347327D01*
X148039470Y-97302851D01*
X148136103Y-97238283D01*
X148218283Y-97156103D01*
X148282851Y-97059470D01*
X148327327Y-96952097D01*
X148350000Y-96838110D01*
X148350000Y-96721890D01*
X148327327Y-96607903D01*
X148282851Y-96500530D01*
X148218283Y-96403897D01*
X148136103Y-96321717D01*
X148039470Y-96257149D01*
X147932097Y-96212673D01*
X147818110Y-96190000D01*
X147795005Y-96190000D01*
X147788745Y-96189218D01*
X147771636Y-96187700D01*
X147713211Y-96184618D01*
X147708795Y-96184426D01*
X147687928Y-96183710D01*
X147687928Y-94481161D01*
X147697928Y-94481161D01*
X147818135Y-94469322D01*
X147933723Y-94434259D01*
X148040249Y-94377319D01*
X148133620Y-94300692D01*
X148210247Y-94207321D01*
X148267187Y-94100795D01*
X148302250Y-93985207D01*
X148314089Y-93865000D01*
X148314089Y-91615000D01*
X148302250Y-91494793D01*
X148282595Y-91430000D01*
X149113261Y-91430000D01*
X149093606Y-91494793D01*
X149081767Y-91615000D01*
X149081767Y-93865000D01*
X149093606Y-93985207D01*
X149128669Y-94100795D01*
X149185609Y-94207321D01*
X149262236Y-94300692D01*
X149355607Y-94377319D01*
X149462133Y-94434259D01*
X149577721Y-94469322D01*
X149697928Y-94481161D01*
X149707928Y-94481161D01*
X149707929Y-96079229D01*
X149705869Y-96146821D01*
X149700851Y-96194767D01*
X149693915Y-96230090D01*
X149685492Y-96258024D01*
X149674570Y-96284769D01*
X149659144Y-96315741D01*
X149637672Y-96354630D01*
X149611510Y-96401113D01*
X149609184Y-96405345D01*
X149580598Y-96458614D01*
X149576327Y-96466959D01*
X149567555Y-96484960D01*
X149557151Y-96500530D01*
X149512675Y-96607903D01*
X149490002Y-96721890D01*
X149490002Y-96838110D01*
X149512675Y-96952097D01*
X149557151Y-97059470D01*
X149621719Y-97156103D01*
X149703899Y-97238283D01*
X149800532Y-97302851D01*
X149907905Y-97347327D01*
X150021892Y-97370000D01*
X150138112Y-97370000D01*
X150252099Y-97347327D01*
X150359472Y-97302851D01*
X150456105Y-97238283D01*
X150538285Y-97156103D01*
X150602853Y-97059470D01*
X150647329Y-96952097D01*
X150670002Y-96838110D01*
X150670002Y-96721890D01*
X150647329Y-96607903D01*
X150602853Y-96500530D01*
X150585722Y-96474892D01*
X150571101Y-96447714D01*
X150566776Y-96440017D01*
X150536575Y-96388515D01*
X150534538Y-96385107D01*
X150507373Y-96340491D01*
X150485724Y-96303871D01*
X150470478Y-96275005D01*
X150459903Y-96250371D01*
X150451764Y-96224499D01*
X150444973Y-96191148D01*
X150439990Y-96145013D01*
X150437928Y-96079179D01*
X150437928Y-94481161D01*
X150447928Y-94481161D01*
X150568135Y-94469322D01*
X150683723Y-94434259D01*
X150790249Y-94377319D01*
X150883620Y-94300692D01*
X150960247Y-94207321D01*
X151017187Y-94100795D01*
X151052250Y-93985207D01*
X151064089Y-93865000D01*
X151064089Y-91615000D01*
X151052250Y-91494793D01*
X151032595Y-91430000D01*
X152610001Y-91430000D01*
X152610000Y-93045754D01*
X152608597Y-93060000D01*
X152614196Y-93116850D01*
X152630779Y-93171515D01*
X152657707Y-93221895D01*
X152678910Y-93247730D01*
X152693947Y-93266053D01*
X152738105Y-93302293D01*
X152788485Y-93329221D01*
X152843150Y-93345804D01*
X152900000Y-93351403D01*
X152914245Y-93350000D01*
X155150001Y-93350000D01*
X155150000Y-108370000D01*
X124920000Y-108370000D01*
X124920000Y-105232149D01*
X125701490Y-105232149D01*
X125930999Y-105527063D01*
X126336966Y-105754779D01*
X126779556Y-105898919D01*
X127241763Y-105953944D01*
X127705823Y-105917740D01*
X128153903Y-105791698D01*
X128568785Y-105580662D01*
X128649001Y-105527063D01*
X128878510Y-105232149D01*
X127290000Y-103643640D01*
X125701490Y-105232149D01*
X124920000Y-105232149D01*
X124920000Y-103582317D01*
X124952260Y-103995823D01*
X125078302Y-104443903D01*
X125289338Y-104858785D01*
X125342937Y-104939001D01*
X125637851Y-105168510D01*
X127226360Y-103580000D01*
X127353640Y-103580000D01*
X128942149Y-105168510D01*
X129237063Y-104939001D01*
X129464779Y-104533034D01*
X129608919Y-104090444D01*
X129663944Y-103628237D01*
X129627740Y-103164177D01*
X129501698Y-102716097D01*
X129290662Y-102301215D01*
X129237063Y-102220999D01*
X128942149Y-101991490D01*
X127353640Y-103580000D01*
X127226360Y-103580000D01*
X125637851Y-101991490D01*
X125342937Y-102220999D01*
X125115221Y-102626966D01*
X124971081Y-103069556D01*
X124920000Y-103498634D01*
X124920000Y-101927851D01*
X125701490Y-101927851D01*
X127290000Y-103516360D01*
X128878510Y-101927851D01*
X128649001Y-101632937D01*
X128243034Y-101405221D01*
X127800444Y-101261081D01*
X127338237Y-101206056D01*
X126874177Y-101242260D01*
X126426097Y-101368302D01*
X126011215Y-101579338D01*
X125930999Y-101632937D01*
X125701490Y-101927851D01*
X124920000Y-101927851D01*
X124920000Y-96496470D01*
X124953687Y-96553654D01*
X125095315Y-96712323D01*
X125265177Y-96840313D01*
X125456745Y-96932706D01*
X125616125Y-96976692D01*
X125785000Y-96914489D01*
X125785000Y-95205000D01*
X125875000Y-95205000D01*
X125875000Y-96914489D01*
X126043875Y-96976692D01*
X126203255Y-96932706D01*
X126394823Y-96840313D01*
X126564685Y-96712323D01*
X126706313Y-96553654D01*
X126814265Y-96370403D01*
X126818884Y-96357175D01*
X127236000Y-96357175D01*
X127236001Y-97962826D01*
X127250384Y-98108858D01*
X127307222Y-98296228D01*
X127399522Y-98468909D01*
X127523736Y-98620265D01*
X127675092Y-98744479D01*
X127847773Y-98836779D01*
X128035143Y-98893617D01*
X128230000Y-98912809D01*
X128424858Y-98893617D01*
X128612228Y-98836779D01*
X128784909Y-98744479D01*
X128936265Y-98620265D01*
X129060479Y-98468909D01*
X129152779Y-98296228D01*
X129209617Y-98108858D01*
X129224000Y-97962826D01*
X129224000Y-96357174D01*
X129209617Y-96211142D01*
X129152779Y-96023772D01*
X129060479Y-95851091D01*
X128936265Y-95699735D01*
X128784909Y-95575521D01*
X128612227Y-95483221D01*
X128424857Y-95426383D01*
X128230000Y-95407191D01*
X128035142Y-95426383D01*
X127847772Y-95483221D01*
X127675091Y-95575521D01*
X127523735Y-95699735D01*
X127399521Y-95851091D01*
X127307221Y-96023773D01*
X127250383Y-96211143D01*
X127236000Y-96357175D01*
X126818884Y-96357175D01*
X126884392Y-96169613D01*
X126914000Y-95959000D01*
X126914000Y-95205000D01*
X125875000Y-95205000D01*
X125785000Y-95205000D01*
X125765000Y-95205000D01*
X125765000Y-95115000D01*
X125785000Y-95115000D01*
X125785000Y-93405511D01*
X125875000Y-93405511D01*
X125875000Y-95115000D01*
X126914000Y-95115000D01*
X126914000Y-94361000D01*
X126884392Y-94150387D01*
X126814265Y-93949597D01*
X126706313Y-93766346D01*
X126564685Y-93607677D01*
X126394823Y-93479687D01*
X126229600Y-93400000D01*
X129703234Y-93400000D01*
X129705001Y-93417939D01*
X129705000Y-104672071D01*
X129703234Y-104690000D01*
X129705000Y-104707929D01*
X129705000Y-104707930D01*
X129710281Y-104761551D01*
X129731152Y-104830354D01*
X129765045Y-104893763D01*
X129810657Y-104949342D01*
X129824588Y-104960775D01*
X132226335Y-107362523D01*
X132271109Y-107410229D01*
X132299955Y-107446130D01*
X132318608Y-107474385D01*
X132331186Y-107498524D01*
X132341304Y-107523740D01*
X132351247Y-107555416D01*
X132362365Y-107597236D01*
X132375356Y-107647958D01*
X132376609Y-107652653D01*
X132392512Y-107709896D01*
X132395260Y-107719072D01*
X132402769Y-107742440D01*
X132407673Y-107767097D01*
X132452149Y-107874470D01*
X132516717Y-107971103D01*
X132598897Y-108053283D01*
X132695530Y-108117851D01*
X132802903Y-108162327D01*
X132916890Y-108185000D01*
X133033110Y-108185000D01*
X133147097Y-108162327D01*
X133254470Y-108117851D01*
X133351103Y-108053283D01*
X133433283Y-107971103D01*
X133497851Y-107874470D01*
X133542327Y-107767097D01*
X133565000Y-107653110D01*
X133565000Y-107536890D01*
X133542327Y-107422903D01*
X133497851Y-107315530D01*
X133433283Y-107218897D01*
X133351103Y-107136717D01*
X133254470Y-107072149D01*
X133147097Y-107027673D01*
X133122440Y-107022769D01*
X133099072Y-107015260D01*
X133089896Y-107012512D01*
X133032653Y-106996609D01*
X133027958Y-106995356D01*
X132977236Y-106982365D01*
X132935416Y-106971247D01*
X132903740Y-106961304D01*
X132878524Y-106951186D01*
X132854385Y-106938608D01*
X132826130Y-106919955D01*
X132790229Y-106891109D01*
X132742523Y-106846335D01*
X131348832Y-105452644D01*
X134115000Y-105452644D01*
X134115000Y-105667356D01*
X134156888Y-105877941D01*
X134239055Y-106076309D01*
X134358342Y-106254834D01*
X134510166Y-106406658D01*
X134688691Y-106525945D01*
X134887059Y-106608112D01*
X135097644Y-106650000D01*
X135312356Y-106650000D01*
X135522941Y-106608112D01*
X135721309Y-106525945D01*
X135899834Y-106406658D01*
X136051658Y-106254834D01*
X136170945Y-106076309D01*
X136253112Y-105877941D01*
X136295000Y-105667356D01*
X136295000Y-105452644D01*
X136405000Y-105452644D01*
X136405000Y-105667356D01*
X136446888Y-105877941D01*
X136529055Y-106076309D01*
X136648342Y-106254834D01*
X136724509Y-106331001D01*
X136844164Y-106450925D01*
X136945980Y-106553476D01*
X137034779Y-106643356D01*
X137115369Y-106725259D01*
X137193135Y-106804460D01*
X137193168Y-106804494D01*
X137208224Y-106819821D01*
X137240657Y-106859342D01*
X137254588Y-106870775D01*
X137879225Y-107495413D01*
X137890657Y-107509343D01*
X137946236Y-107554955D01*
X138009645Y-107588848D01*
X138078448Y-107609719D01*
X138132069Y-107615000D01*
X138132071Y-107615000D01*
X138150000Y-107616766D01*
X138167929Y-107615000D01*
X147942071Y-107615000D01*
X147960000Y-107616766D01*
X147977929Y-107615000D01*
X147977931Y-107615000D01*
X148031552Y-107609719D01*
X148100355Y-107588848D01*
X148163764Y-107554955D01*
X148219343Y-107509343D01*
X148230779Y-107495408D01*
X149625413Y-106100775D01*
X149639343Y-106089343D01*
X149665167Y-106057875D01*
X149684954Y-106033766D01*
X149718847Y-105970356D01*
X149718848Y-105970355D01*
X149739719Y-105901552D01*
X149745000Y-105847931D01*
X149745000Y-105847930D01*
X149746766Y-105830001D01*
X149745000Y-105812072D01*
X149745000Y-105232149D01*
X150691490Y-105232149D01*
X150920999Y-105527063D01*
X151326966Y-105754779D01*
X151769556Y-105898919D01*
X152231763Y-105953944D01*
X152695823Y-105917740D01*
X153143903Y-105791698D01*
X153558785Y-105580662D01*
X153639001Y-105527063D01*
X153868510Y-105232149D01*
X152280000Y-103643640D01*
X150691490Y-105232149D01*
X149745000Y-105232149D01*
X149745000Y-103531763D01*
X149906056Y-103531763D01*
X149942260Y-103995823D01*
X150068302Y-104443903D01*
X150279338Y-104858785D01*
X150332937Y-104939001D01*
X150627851Y-105168510D01*
X152216360Y-103580000D01*
X152343640Y-103580000D01*
X153932149Y-105168510D01*
X154227063Y-104939001D01*
X154454779Y-104533034D01*
X154598919Y-104090444D01*
X154653944Y-103628237D01*
X154617740Y-103164177D01*
X154491698Y-102716097D01*
X154280662Y-102301215D01*
X154227063Y-102220999D01*
X153932149Y-101991490D01*
X152343640Y-103580000D01*
X152216360Y-103580000D01*
X150627851Y-101991490D01*
X150332937Y-102220999D01*
X150105221Y-102626966D01*
X149961081Y-103069556D01*
X149906056Y-103531763D01*
X149745000Y-103531763D01*
X149745000Y-101927851D01*
X150691490Y-101927851D01*
X152280000Y-103516360D01*
X153868510Y-101927851D01*
X153639001Y-101632937D01*
X153233034Y-101405221D01*
X152790444Y-101261081D01*
X152328237Y-101206056D01*
X151864177Y-101242260D01*
X151416097Y-101368302D01*
X151001215Y-101579338D01*
X150920999Y-101632937D01*
X150691490Y-101927851D01*
X149745000Y-101927851D01*
X149745000Y-101129728D01*
X149748407Y-101043402D01*
X149756619Y-100982828D01*
X149767953Y-100938185D01*
X149782067Y-100901820D01*
X149784019Y-100898070D01*
X149808392Y-100890677D01*
X149888985Y-100847599D01*
X149959626Y-100789626D01*
X150017599Y-100718985D01*
X150060677Y-100638392D01*
X150087204Y-100550943D01*
X150096161Y-100460000D01*
X150096161Y-100010000D01*
X150087204Y-99919057D01*
X150060677Y-99831608D01*
X150017599Y-99751015D01*
X149959626Y-99680374D01*
X149888985Y-99622401D01*
X149808392Y-99579323D01*
X149720943Y-99552796D01*
X149630000Y-99543839D01*
X149130000Y-99543839D01*
X149039057Y-99552796D01*
X148951608Y-99579323D01*
X148871015Y-99622401D01*
X148800374Y-99680374D01*
X148742401Y-99751015D01*
X148699323Y-99831608D01*
X148672796Y-99919057D01*
X148663839Y-100010000D01*
X148663839Y-100460000D01*
X148672796Y-100550943D01*
X148699323Y-100638392D01*
X148742401Y-100718985D01*
X148800374Y-100789626D01*
X148871015Y-100847599D01*
X148951608Y-100890677D01*
X148975980Y-100898070D01*
X148977932Y-100901820D01*
X148992046Y-100938185D01*
X149003380Y-100982828D01*
X149011592Y-101043402D01*
X149015000Y-101129735D01*
X149015001Y-105678811D01*
X147808813Y-106885000D01*
X138301188Y-106885000D01*
X138232424Y-106816236D01*
X138165514Y-106736049D01*
X138141871Y-106688589D01*
X138136499Y-106657740D01*
X138140679Y-106622030D01*
X138160278Y-106567006D01*
X138200035Y-106491807D01*
X138257929Y-106399598D01*
X138326729Y-106294597D01*
X138330020Y-106289432D01*
X138400663Y-106175372D01*
X138408439Y-106161855D01*
X138426756Y-106127477D01*
X138460945Y-106076309D01*
X138543112Y-105877941D01*
X138585000Y-105667356D01*
X138585000Y-105452644D01*
X138695000Y-105452644D01*
X138695000Y-105667356D01*
X138736888Y-105877941D01*
X138819055Y-106076309D01*
X138938342Y-106254834D01*
X139090166Y-106406658D01*
X139268691Y-106525945D01*
X139467059Y-106608112D01*
X139677644Y-106650000D01*
X139892356Y-106650000D01*
X140102941Y-106608112D01*
X140301309Y-106525945D01*
X140479834Y-106406658D01*
X140631658Y-106254834D01*
X140750945Y-106076309D01*
X140833112Y-105877941D01*
X140875000Y-105667356D01*
X140875000Y-105452644D01*
X140985000Y-105452644D01*
X140985000Y-105667356D01*
X141026888Y-105877941D01*
X141109055Y-106076309D01*
X141228342Y-106254834D01*
X141380166Y-106406658D01*
X141558691Y-106525945D01*
X141757059Y-106608112D01*
X141967644Y-106650000D01*
X142182356Y-106650000D01*
X142392941Y-106608112D01*
X142591309Y-106525945D01*
X142769834Y-106406658D01*
X142921658Y-106254834D01*
X143040945Y-106076309D01*
X143123112Y-105877941D01*
X143165000Y-105667356D01*
X143165000Y-105452644D01*
X143275000Y-105452644D01*
X143275000Y-105667356D01*
X143316888Y-105877941D01*
X143399055Y-106076309D01*
X143518342Y-106254834D01*
X143670166Y-106406658D01*
X143848691Y-106525945D01*
X144047059Y-106608112D01*
X144257644Y-106650000D01*
X144472356Y-106650000D01*
X144682941Y-106608112D01*
X144881309Y-106525945D01*
X144938400Y-106487798D01*
X145009493Y-106449090D01*
X145028213Y-106437762D01*
X145160518Y-106349217D01*
X145174097Y-106339427D01*
X145287346Y-106251615D01*
X145293334Y-106246817D01*
X145393613Y-106163796D01*
X145483412Y-106092315D01*
X145566747Y-106035745D01*
X145653038Y-105991711D01*
X145755190Y-105957621D01*
X145887192Y-105934196D01*
X146066165Y-105925000D01*
X146982071Y-105925000D01*
X147000000Y-105926766D01*
X147017929Y-105925000D01*
X147017931Y-105925000D01*
X147071552Y-105919719D01*
X147140355Y-105898848D01*
X147203764Y-105864955D01*
X147259343Y-105819343D01*
X147270779Y-105805408D01*
X147765413Y-105310775D01*
X147779343Y-105299343D01*
X147824955Y-105243764D01*
X147858848Y-105180355D01*
X147876393Y-105122517D01*
X147948392Y-105100677D01*
X148028985Y-105057599D01*
X148099626Y-104999626D01*
X148157599Y-104928985D01*
X148200677Y-104848392D01*
X148227204Y-104760943D01*
X148236161Y-104670000D01*
X148236161Y-104220000D01*
X148227204Y-104129057D01*
X148200677Y-104041608D01*
X148157599Y-103961015D01*
X148099626Y-103890374D01*
X148028985Y-103832401D01*
X147948392Y-103789323D01*
X147860943Y-103762796D01*
X147770000Y-103753839D01*
X147270000Y-103753839D01*
X147179057Y-103762796D01*
X147091608Y-103789323D01*
X147011015Y-103832401D01*
X146940374Y-103890374D01*
X146882401Y-103961015D01*
X146839323Y-104041608D01*
X146812796Y-104129057D01*
X146803839Y-104220000D01*
X146803839Y-104670000D01*
X146812796Y-104760943D01*
X146839323Y-104848392D01*
X146882401Y-104928985D01*
X146940374Y-104999626D01*
X146997393Y-105046420D01*
X146848813Y-105195000D01*
X146066167Y-105195000D01*
X145887192Y-105185803D01*
X145755190Y-105162378D01*
X145653038Y-105128288D01*
X145566747Y-105084254D01*
X145483412Y-105027684D01*
X145393613Y-104956203D01*
X145293334Y-104873182D01*
X145287346Y-104868384D01*
X145174097Y-104780572D01*
X145160518Y-104770782D01*
X145028213Y-104682237D01*
X145009492Y-104670908D01*
X144938391Y-104632196D01*
X144881309Y-104594055D01*
X144682941Y-104511888D01*
X144472356Y-104470000D01*
X144257644Y-104470000D01*
X144047059Y-104511888D01*
X143848691Y-104594055D01*
X143670166Y-104713342D01*
X143518342Y-104865166D01*
X143399055Y-105043691D01*
X143316888Y-105242059D01*
X143275000Y-105452644D01*
X143165000Y-105452644D01*
X143123112Y-105242059D01*
X143040945Y-105043691D01*
X142921658Y-104865166D01*
X142769834Y-104713342D01*
X142591309Y-104594055D01*
X142392941Y-104511888D01*
X142182356Y-104470000D01*
X141967644Y-104470000D01*
X141757059Y-104511888D01*
X141558691Y-104594055D01*
X141380166Y-104713342D01*
X141228342Y-104865166D01*
X141109055Y-105043691D01*
X141026888Y-105242059D01*
X140985000Y-105452644D01*
X140875000Y-105452644D01*
X140833112Y-105242059D01*
X140750945Y-105043691D01*
X140631658Y-104865166D01*
X140479834Y-104713342D01*
X140301309Y-104594055D01*
X140102941Y-104511888D01*
X139892356Y-104470000D01*
X139677644Y-104470000D01*
X139467059Y-104511888D01*
X139268691Y-104594055D01*
X139090166Y-104713342D01*
X138938342Y-104865166D01*
X138819055Y-105043691D01*
X138736888Y-105242059D01*
X138695000Y-105452644D01*
X138585000Y-105452644D01*
X138543112Y-105242059D01*
X138460945Y-105043691D01*
X138341658Y-104865166D01*
X138189834Y-104713342D01*
X138011309Y-104594055D01*
X137812941Y-104511888D01*
X137602356Y-104470000D01*
X137387644Y-104470000D01*
X137177059Y-104511888D01*
X136978691Y-104594055D01*
X136800166Y-104713342D01*
X136648342Y-104865166D01*
X136529055Y-105043691D01*
X136446888Y-105242059D01*
X136405000Y-105452644D01*
X136295000Y-105452644D01*
X136253112Y-105242059D01*
X136170945Y-105043691D01*
X136051658Y-104865166D01*
X135899834Y-104713342D01*
X135721309Y-104594055D01*
X135522941Y-104511888D01*
X135312356Y-104470000D01*
X135097644Y-104470000D01*
X134887059Y-104511888D01*
X134688691Y-104594055D01*
X134510166Y-104713342D01*
X134358342Y-104865166D01*
X134239055Y-105043691D01*
X134156888Y-105242059D01*
X134115000Y-105452644D01*
X131348832Y-105452644D01*
X130435000Y-104538813D01*
X130435000Y-104391258D01*
X133312382Y-104391258D01*
X133399965Y-104565019D01*
X133604814Y-104674859D01*
X133827157Y-104742624D01*
X134058447Y-104765709D01*
X134289797Y-104743229D01*
X134512316Y-104676047D01*
X134717453Y-104566744D01*
X134720035Y-104565019D01*
X134807618Y-104391258D01*
X135602382Y-104391258D01*
X135689965Y-104565019D01*
X135894814Y-104674859D01*
X136117157Y-104742624D01*
X136348447Y-104765709D01*
X136579797Y-104743229D01*
X136802316Y-104676047D01*
X137007453Y-104566744D01*
X137010035Y-104565019D01*
X137097618Y-104391258D01*
X137892382Y-104391258D01*
X137979965Y-104565019D01*
X138184814Y-104674859D01*
X138407157Y-104742624D01*
X138638447Y-104765709D01*
X138869797Y-104743229D01*
X139092316Y-104676047D01*
X139297453Y-104566744D01*
X139300035Y-104565019D01*
X139387618Y-104391258D01*
X138640000Y-103643640D01*
X137892382Y-104391258D01*
X137097618Y-104391258D01*
X136350000Y-103643640D01*
X135602382Y-104391258D01*
X134807618Y-104391258D01*
X134060000Y-103643640D01*
X133312382Y-104391258D01*
X130435000Y-104391258D01*
X130435000Y-103578447D01*
X132874291Y-103578447D01*
X132896771Y-103809797D01*
X132963953Y-104032316D01*
X133073256Y-104237453D01*
X133074981Y-104240035D01*
X133248742Y-104327618D01*
X133996360Y-103580000D01*
X134123640Y-103580000D01*
X134871258Y-104327618D01*
X135045019Y-104240035D01*
X135154859Y-104035186D01*
X135205075Y-103870423D01*
X135253953Y-104032316D01*
X135363256Y-104237453D01*
X135364981Y-104240035D01*
X135538742Y-104327618D01*
X136286360Y-103580000D01*
X136413640Y-103580000D01*
X137161258Y-104327618D01*
X137335019Y-104240035D01*
X137444859Y-104035186D01*
X137495075Y-103870423D01*
X137543953Y-104032316D01*
X137653256Y-104237453D01*
X137654981Y-104240035D01*
X137828742Y-104327618D01*
X138576360Y-103580000D01*
X138703640Y-103580000D01*
X139451258Y-104327618D01*
X139625019Y-104240035D01*
X139734859Y-104035186D01*
X139802624Y-103812843D01*
X139825709Y-103581553D01*
X139815127Y-103472644D01*
X139840000Y-103472644D01*
X139840000Y-103687356D01*
X139881888Y-103897941D01*
X139964055Y-104096309D01*
X140083342Y-104274834D01*
X140235166Y-104426658D01*
X140413691Y-104545945D01*
X140612059Y-104628112D01*
X140822644Y-104670000D01*
X141037356Y-104670000D01*
X141247941Y-104628112D01*
X141446309Y-104545945D01*
X141624834Y-104426658D01*
X141660234Y-104391258D01*
X142472382Y-104391258D01*
X142559965Y-104565019D01*
X142764814Y-104674859D01*
X142987157Y-104742624D01*
X143218447Y-104765709D01*
X143449797Y-104743229D01*
X143672316Y-104676047D01*
X143877453Y-104566744D01*
X143880035Y-104565019D01*
X143967618Y-104391258D01*
X143220000Y-103643640D01*
X142472382Y-104391258D01*
X141660234Y-104391258D01*
X141776658Y-104274834D01*
X141895945Y-104096309D01*
X141978112Y-103897941D01*
X142020000Y-103687356D01*
X142020000Y-103578447D01*
X142034291Y-103578447D01*
X142056771Y-103809797D01*
X142123953Y-104032316D01*
X142233256Y-104237453D01*
X142234981Y-104240035D01*
X142408742Y-104327618D01*
X143156360Y-103580000D01*
X143283640Y-103580000D01*
X144031258Y-104327618D01*
X144205019Y-104240035D01*
X144314859Y-104035186D01*
X144382624Y-103812843D01*
X144405709Y-103581553D01*
X144383229Y-103350203D01*
X144316047Y-103127684D01*
X144206744Y-102922547D01*
X144205019Y-102919965D01*
X144031258Y-102832382D01*
X143283640Y-103580000D01*
X143156360Y-103580000D01*
X142408742Y-102832382D01*
X142234981Y-102919965D01*
X142125141Y-103124814D01*
X142057376Y-103347157D01*
X142034291Y-103578447D01*
X142020000Y-103578447D01*
X142020000Y-103472644D01*
X141978112Y-103262059D01*
X141895945Y-103063691D01*
X141776658Y-102885166D01*
X141660234Y-102768742D01*
X142472382Y-102768742D01*
X143220000Y-103516360D01*
X143967618Y-102768742D01*
X143934110Y-102702264D01*
X144132157Y-102762624D01*
X144363447Y-102785709D01*
X144594797Y-102763229D01*
X144817316Y-102696047D01*
X145022453Y-102586744D01*
X145025035Y-102585019D01*
X145112618Y-102411258D01*
X144365000Y-101663640D01*
X143617382Y-102411258D01*
X143650890Y-102477736D01*
X143452843Y-102417376D01*
X143221553Y-102394291D01*
X142990203Y-102416771D01*
X142767684Y-102483953D01*
X142562547Y-102593256D01*
X142559965Y-102594981D01*
X142472382Y-102768742D01*
X141660234Y-102768742D01*
X141624834Y-102733342D01*
X141446309Y-102614055D01*
X141247941Y-102531888D01*
X141037356Y-102490000D01*
X140822644Y-102490000D01*
X140612059Y-102531888D01*
X140413691Y-102614055D01*
X140235166Y-102733342D01*
X140083342Y-102885166D01*
X139964055Y-103063691D01*
X139881888Y-103262059D01*
X139840000Y-103472644D01*
X139815127Y-103472644D01*
X139803229Y-103350203D01*
X139736047Y-103127684D01*
X139626744Y-102922547D01*
X139625019Y-102919965D01*
X139451258Y-102832382D01*
X138703640Y-103580000D01*
X138576360Y-103580000D01*
X137828742Y-102832382D01*
X137654981Y-102919965D01*
X137545141Y-103124814D01*
X137494925Y-103289577D01*
X137446047Y-103127684D01*
X137336744Y-102922547D01*
X137335019Y-102919965D01*
X137161258Y-102832382D01*
X136413640Y-103580000D01*
X136286360Y-103580000D01*
X135538742Y-102832382D01*
X135364981Y-102919965D01*
X135255141Y-103124814D01*
X135204925Y-103289577D01*
X135156047Y-103127684D01*
X135046744Y-102922547D01*
X135045019Y-102919965D01*
X134871258Y-102832382D01*
X134123640Y-103580000D01*
X133996360Y-103580000D01*
X133248742Y-102832382D01*
X133074981Y-102919965D01*
X132965141Y-103124814D01*
X132897376Y-103347157D01*
X132874291Y-103578447D01*
X130435000Y-103578447D01*
X130435000Y-102768742D01*
X133312382Y-102768742D01*
X134060000Y-103516360D01*
X134807618Y-102768742D01*
X134768514Y-102691161D01*
X135641486Y-102691161D01*
X135602382Y-102768742D01*
X136350000Y-103516360D01*
X137097618Y-102768742D01*
X137892382Y-102768742D01*
X138640000Y-103516360D01*
X139387618Y-102768742D01*
X139300035Y-102594981D01*
X139095186Y-102485141D01*
X138872843Y-102417376D01*
X138641553Y-102394291D01*
X138410203Y-102416771D01*
X138187684Y-102483953D01*
X137982547Y-102593256D01*
X137979965Y-102594981D01*
X137892382Y-102768742D01*
X137097618Y-102768742D01*
X137010035Y-102594981D01*
X136805186Y-102485141D01*
X136582843Y-102417376D01*
X136351553Y-102394291D01*
X136296161Y-102399673D01*
X136296161Y-101492644D01*
X136405000Y-101492644D01*
X136405000Y-101707356D01*
X136446888Y-101917941D01*
X136529055Y-102116309D01*
X136648342Y-102294834D01*
X136800166Y-102446658D01*
X136978691Y-102565945D01*
X137177059Y-102648112D01*
X137387644Y-102690000D01*
X137602356Y-102690000D01*
X137812941Y-102648112D01*
X138011309Y-102565945D01*
X138189834Y-102446658D01*
X138341658Y-102294834D01*
X138460945Y-102116309D01*
X138543112Y-101917941D01*
X138585000Y-101707356D01*
X138585000Y-101492644D01*
X138695000Y-101492644D01*
X138695000Y-101707356D01*
X138736888Y-101917941D01*
X138819055Y-102116309D01*
X138938342Y-102294834D01*
X139090166Y-102446658D01*
X139268691Y-102565945D01*
X139467059Y-102648112D01*
X139677644Y-102690000D01*
X139892356Y-102690000D01*
X140102941Y-102648112D01*
X140301309Y-102565945D01*
X140479834Y-102446658D01*
X140631658Y-102294834D01*
X140750945Y-102116309D01*
X140833112Y-101917941D01*
X140875000Y-101707356D01*
X140875000Y-101492644D01*
X140985000Y-101492644D01*
X140985000Y-101707356D01*
X141026888Y-101917941D01*
X141109055Y-102116309D01*
X141228342Y-102294834D01*
X141380166Y-102446658D01*
X141558691Y-102565945D01*
X141757059Y-102648112D01*
X141967644Y-102690000D01*
X142182356Y-102690000D01*
X142392941Y-102648112D01*
X142591309Y-102565945D01*
X142769834Y-102446658D01*
X142921658Y-102294834D01*
X143040945Y-102116309D01*
X143123112Y-101917941D01*
X143165000Y-101707356D01*
X143165000Y-101598447D01*
X143179291Y-101598447D01*
X143201771Y-101829797D01*
X143268953Y-102052316D01*
X143378256Y-102257453D01*
X143379981Y-102260035D01*
X143553742Y-102347618D01*
X144301360Y-101600000D01*
X144428640Y-101600000D01*
X145176258Y-102347618D01*
X145350019Y-102260035D01*
X145459859Y-102055186D01*
X145527624Y-101832843D01*
X145550709Y-101601553D01*
X145528229Y-101370203D01*
X145461047Y-101147684D01*
X145351744Y-100942547D01*
X145350019Y-100939965D01*
X145176258Y-100852382D01*
X144428640Y-101600000D01*
X144301360Y-101600000D01*
X143553742Y-100852382D01*
X143379981Y-100939965D01*
X143270141Y-101144814D01*
X143202376Y-101367157D01*
X143179291Y-101598447D01*
X143165000Y-101598447D01*
X143165000Y-101492644D01*
X143123112Y-101282059D01*
X143040945Y-101083691D01*
X142921658Y-100905166D01*
X142805234Y-100788742D01*
X143617382Y-100788742D01*
X144365000Y-101536360D01*
X145112618Y-100788742D01*
X145025035Y-100614981D01*
X144820186Y-100505141D01*
X144597843Y-100437376D01*
X144366553Y-100414291D01*
X144135203Y-100436771D01*
X143912684Y-100503953D01*
X143707547Y-100613256D01*
X143704965Y-100614981D01*
X143617382Y-100788742D01*
X142805234Y-100788742D01*
X142769834Y-100753342D01*
X142591309Y-100634055D01*
X142392941Y-100551888D01*
X142182356Y-100510000D01*
X141967644Y-100510000D01*
X141757059Y-100551888D01*
X141558691Y-100634055D01*
X141380166Y-100753342D01*
X141228342Y-100905166D01*
X141109055Y-101083691D01*
X141026888Y-101282059D01*
X140985000Y-101492644D01*
X140875000Y-101492644D01*
X140833112Y-101282059D01*
X140750945Y-101083691D01*
X140631658Y-100905166D01*
X140479834Y-100753342D01*
X140301309Y-100634055D01*
X140102941Y-100551888D01*
X139892356Y-100510000D01*
X139677644Y-100510000D01*
X139467059Y-100551888D01*
X139268691Y-100634055D01*
X139090166Y-100753342D01*
X138938342Y-100905166D01*
X138819055Y-101083691D01*
X138736888Y-101282059D01*
X138695000Y-101492644D01*
X138585000Y-101492644D01*
X138543112Y-101282059D01*
X138460945Y-101083691D01*
X138341658Y-100905166D01*
X138189834Y-100753342D01*
X138011309Y-100634055D01*
X137812941Y-100551888D01*
X137602356Y-100510000D01*
X137387644Y-100510000D01*
X137177059Y-100551888D01*
X136978691Y-100634055D01*
X136800166Y-100753342D01*
X136648342Y-100905166D01*
X136529055Y-101083691D01*
X136446888Y-101282059D01*
X136405000Y-101492644D01*
X136296161Y-101492644D01*
X136296161Y-100750000D01*
X136291527Y-100702952D01*
X136277804Y-100657712D01*
X136255518Y-100616018D01*
X136225527Y-100579473D01*
X136188982Y-100549482D01*
X136147288Y-100527196D01*
X136102048Y-100513473D01*
X136055000Y-100508839D01*
X134355000Y-100508839D01*
X134307952Y-100513473D01*
X134262712Y-100527196D01*
X134221018Y-100549482D01*
X134184473Y-100579473D01*
X134154482Y-100616018D01*
X134132196Y-100657712D01*
X134118473Y-100702952D01*
X134113839Y-100750000D01*
X134113839Y-102399510D01*
X134061553Y-102394291D01*
X133830203Y-102416771D01*
X133607684Y-102483953D01*
X133402547Y-102593256D01*
X133399965Y-102594981D01*
X133312382Y-102768742D01*
X130435000Y-102768742D01*
X130435000Y-94357175D01*
X130936000Y-94357175D01*
X130936001Y-95962826D01*
X130950384Y-96108858D01*
X131007222Y-96296228D01*
X131099522Y-96468909D01*
X131223736Y-96620265D01*
X131375092Y-96744479D01*
X131547773Y-96836779D01*
X131565000Y-96842005D01*
X131565001Y-98792061D01*
X131563234Y-98810000D01*
X131568398Y-98862425D01*
X131570282Y-98881552D01*
X131591153Y-98950355D01*
X131625046Y-99013764D01*
X131670658Y-99069343D01*
X131684587Y-99080774D01*
X132579225Y-99975413D01*
X132590657Y-99989343D01*
X132615828Y-100010000D01*
X132646234Y-100034954D01*
X132646236Y-100034955D01*
X132709645Y-100068848D01*
X132778448Y-100089719D01*
X132832069Y-100095000D01*
X132832070Y-100095000D01*
X132849999Y-100096766D01*
X132867928Y-100095000D01*
X145878813Y-100095000D01*
X147155000Y-101371187D01*
X147155000Y-102005181D01*
X147151582Y-102090697D01*
X147143388Y-102150420D01*
X147132121Y-102194283D01*
X147118086Y-102230036D01*
X147117300Y-102231529D01*
X147091608Y-102239323D01*
X147011015Y-102282401D01*
X146940374Y-102340374D01*
X146882401Y-102411015D01*
X146839323Y-102491608D01*
X146812796Y-102579057D01*
X146803839Y-102670000D01*
X146803839Y-103120000D01*
X146812796Y-103210943D01*
X146839323Y-103298392D01*
X146882401Y-103378985D01*
X146940374Y-103449626D01*
X147011015Y-103507599D01*
X147091608Y-103550677D01*
X147179057Y-103577204D01*
X147270000Y-103586161D01*
X147770000Y-103586161D01*
X147860943Y-103577204D01*
X147948392Y-103550677D01*
X148028985Y-103507599D01*
X148099626Y-103449626D01*
X148157599Y-103378985D01*
X148200677Y-103298392D01*
X148227204Y-103210943D01*
X148236161Y-103120000D01*
X148236161Y-102670000D01*
X148227204Y-102579057D01*
X148200677Y-102491608D01*
X148157599Y-102411015D01*
X148099626Y-102340374D01*
X148028985Y-102282401D01*
X147948392Y-102239323D01*
X147922698Y-102231529D01*
X147921913Y-102230036D01*
X147907878Y-102194283D01*
X147896611Y-102150420D01*
X147888417Y-102090697D01*
X147885000Y-102005196D01*
X147885000Y-101237928D01*
X147886766Y-101219999D01*
X147885000Y-101202069D01*
X147879719Y-101148448D01*
X147858848Y-101079645D01*
X147824955Y-101016236D01*
X147779342Y-100960657D01*
X147765412Y-100949225D01*
X146300779Y-99484592D01*
X146289343Y-99470657D01*
X146233764Y-99425045D01*
X146170355Y-99391152D01*
X146101552Y-99370281D01*
X146047931Y-99365000D01*
X146047929Y-99365000D01*
X146030000Y-99363234D01*
X146012071Y-99365000D01*
X133001188Y-99365000D01*
X132295000Y-98658813D01*
X132295000Y-96842005D01*
X132312228Y-96836779D01*
X132484909Y-96744479D01*
X132636265Y-96620265D01*
X132736000Y-96498737D01*
X132736001Y-97962826D01*
X132750384Y-98108858D01*
X132807222Y-98296228D01*
X132899522Y-98468909D01*
X133023736Y-98620265D01*
X133175092Y-98744479D01*
X133347773Y-98836779D01*
X133535143Y-98893617D01*
X133730000Y-98912809D01*
X133924858Y-98893617D01*
X134112228Y-98836779D01*
X134284909Y-98744479D01*
X134436265Y-98620265D01*
X134467760Y-98581888D01*
X135030000Y-98581888D01*
X135030000Y-98698108D01*
X135052673Y-98812095D01*
X135097149Y-98919468D01*
X135161717Y-99016101D01*
X135243897Y-99098281D01*
X135340530Y-99162849D01*
X135447903Y-99207325D01*
X135561890Y-99229998D01*
X135678110Y-99229998D01*
X135792097Y-99207325D01*
X135899470Y-99162849D01*
X135959711Y-99122597D01*
X135994698Y-99099443D01*
X136000624Y-99095392D01*
X136048336Y-99061722D01*
X136049694Y-99060757D01*
X136090190Y-99031756D01*
X136122184Y-99010021D01*
X136146662Y-98995493D01*
X136167063Y-98985846D01*
X136188875Y-98978411D01*
X136218525Y-98971952D01*
X136261252Y-98967065D01*
X136323951Y-98965000D01*
X143472071Y-98965000D01*
X143490000Y-98966766D01*
X143507929Y-98965000D01*
X143507931Y-98965000D01*
X143561552Y-98959719D01*
X143630355Y-98938848D01*
X143693764Y-98904955D01*
X143749343Y-98859343D01*
X143760779Y-98845408D01*
X144387505Y-98218682D01*
X144435236Y-98173884D01*
X144471130Y-98145044D01*
X144499385Y-98126391D01*
X144523524Y-98113813D01*
X144548740Y-98103695D01*
X144580416Y-98093752D01*
X144622236Y-98082634D01*
X144672958Y-98069643D01*
X144677653Y-98068390D01*
X144734896Y-98052487D01*
X144744068Y-98049740D01*
X144767433Y-98042233D01*
X144792097Y-98037327D01*
X144899470Y-97992851D01*
X144996103Y-97928283D01*
X145078283Y-97846103D01*
X145142851Y-97749470D01*
X145187327Y-97642097D01*
X145210000Y-97528110D01*
X145210000Y-97411890D01*
X145187327Y-97297903D01*
X145142851Y-97190530D01*
X145078283Y-97093897D01*
X144996103Y-97011717D01*
X144899470Y-96947149D01*
X144792097Y-96902673D01*
X144678110Y-96880000D01*
X144561890Y-96880000D01*
X144447903Y-96902673D01*
X144340530Y-96947149D01*
X144243897Y-97011717D01*
X144161717Y-97093897D01*
X144097149Y-97190530D01*
X144052673Y-97297903D01*
X144047769Y-97322556D01*
X144040260Y-97345926D01*
X144037512Y-97355103D01*
X144021609Y-97412346D01*
X144020356Y-97417041D01*
X144007365Y-97467763D01*
X143996247Y-97509583D01*
X143986304Y-97541259D01*
X143976186Y-97566475D01*
X143963608Y-97590614D01*
X143944955Y-97618869D01*
X143916114Y-97654763D01*
X143871312Y-97702500D01*
X143338813Y-98235000D01*
X136323347Y-98235000D01*
X136251155Y-98232981D01*
X136198156Y-98227937D01*
X136157535Y-98220773D01*
X136124108Y-98211852D01*
X136091883Y-98200410D01*
X136055550Y-98184995D01*
X136011577Y-98164772D01*
X136011215Y-98164606D01*
X135960228Y-98141260D01*
X135954377Y-98138675D01*
X135896817Y-98114153D01*
X135887417Y-98110381D01*
X135839760Y-98092414D01*
X135792097Y-98072671D01*
X135678110Y-98049998D01*
X135561890Y-98049998D01*
X135447903Y-98072671D01*
X135340530Y-98117147D01*
X135243897Y-98181715D01*
X135161717Y-98263895D01*
X135097149Y-98360528D01*
X135052673Y-98467901D01*
X135030000Y-98581888D01*
X134467760Y-98581888D01*
X134560479Y-98468909D01*
X134652779Y-98296228D01*
X134709617Y-98108858D01*
X134724000Y-97962826D01*
X134724000Y-96357174D01*
X134709617Y-96211142D01*
X134652779Y-96023772D01*
X134560479Y-95851091D01*
X134436265Y-95699735D01*
X134284909Y-95575521D01*
X134112227Y-95483221D01*
X133924857Y-95426383D01*
X133730000Y-95407191D01*
X133535142Y-95426383D01*
X133347772Y-95483221D01*
X133175091Y-95575521D01*
X133023735Y-95699735D01*
X132924000Y-95821263D01*
X132924000Y-94357174D01*
X132909617Y-94211142D01*
X132852779Y-94023772D01*
X132760479Y-93851091D01*
X132636265Y-93699735D01*
X132484909Y-93575521D01*
X132312227Y-93483221D01*
X132124857Y-93426383D01*
X131930000Y-93407191D01*
X131735142Y-93426383D01*
X131547772Y-93483221D01*
X131375091Y-93575521D01*
X131223735Y-93699735D01*
X131099521Y-93851091D01*
X131007221Y-94023773D01*
X130950383Y-94211143D01*
X130936000Y-94357175D01*
X130435000Y-94357175D01*
X130435000Y-93551187D01*
X131241188Y-92745000D01*
X137038813Y-92745000D01*
X137761709Y-93467897D01*
X137624857Y-93426383D01*
X137430000Y-93407191D01*
X137235142Y-93426383D01*
X137047772Y-93483221D01*
X136875091Y-93575521D01*
X136723735Y-93699735D01*
X136599521Y-93851091D01*
X136507221Y-94023773D01*
X136450383Y-94211143D01*
X136436000Y-94357175D01*
X136436001Y-95962826D01*
X136450384Y-96108858D01*
X136507222Y-96296228D01*
X136599522Y-96468909D01*
X136723736Y-96620265D01*
X136875092Y-96744479D01*
X137047773Y-96836779D01*
X137065001Y-96842005D01*
X137065001Y-96900061D01*
X137063234Y-96918000D01*
X137069015Y-96976690D01*
X137070282Y-96989552D01*
X137091153Y-97058355D01*
X137125046Y-97121764D01*
X137170658Y-97177343D01*
X137184587Y-97188774D01*
X137641225Y-97645413D01*
X137652657Y-97659343D01*
X137708236Y-97704955D01*
X137771645Y-97738848D01*
X137840448Y-97759719D01*
X137894069Y-97765000D01*
X137894071Y-97765000D01*
X137912000Y-97766766D01*
X137929929Y-97765000D01*
X142692071Y-97765000D01*
X142710000Y-97766766D01*
X142727929Y-97765000D01*
X142727931Y-97765000D01*
X142781552Y-97759719D01*
X142850355Y-97738848D01*
X142913764Y-97704955D01*
X142969343Y-97659343D01*
X142980779Y-97645408D01*
X143971188Y-96655000D01*
X145278813Y-96655000D01*
X147549225Y-98925413D01*
X147560657Y-98939343D01*
X147585486Y-98959719D01*
X147616234Y-98984954D01*
X147674506Y-99016101D01*
X147679645Y-99018848D01*
X147748448Y-99039719D01*
X147802069Y-99045000D01*
X147802070Y-99045000D01*
X147819999Y-99046766D01*
X147837928Y-99045000D01*
X148485243Y-99045000D01*
X148571030Y-99048405D01*
X148631016Y-99056591D01*
X148675049Y-99067859D01*
X148695529Y-99075886D01*
X148699323Y-99088392D01*
X148742401Y-99168985D01*
X148800374Y-99239626D01*
X148871015Y-99297599D01*
X148951608Y-99340677D01*
X149039057Y-99367204D01*
X149130000Y-99376161D01*
X149630000Y-99376161D01*
X149720943Y-99367204D01*
X149808392Y-99340677D01*
X149888985Y-99297599D01*
X149959626Y-99239626D01*
X150017599Y-99168985D01*
X150060677Y-99088392D01*
X150087204Y-99000943D01*
X150096161Y-98910000D01*
X150096161Y-98460000D01*
X150087204Y-98369057D01*
X150060677Y-98281608D01*
X150017599Y-98201015D01*
X149959626Y-98130374D01*
X149888985Y-98072401D01*
X149808392Y-98029323D01*
X149720943Y-98002796D01*
X149630000Y-97993839D01*
X149130000Y-97993839D01*
X149039057Y-98002796D01*
X148951608Y-98029323D01*
X148871015Y-98072401D01*
X148800374Y-98130374D01*
X148742401Y-98201015D01*
X148699323Y-98281608D01*
X148698505Y-98284306D01*
X148678600Y-98291954D01*
X148633334Y-98303353D01*
X148572177Y-98311589D01*
X148485296Y-98315000D01*
X147971188Y-98315000D01*
X145700779Y-96044592D01*
X145689343Y-96030657D01*
X145633764Y-95985045D01*
X145570355Y-95951152D01*
X145501552Y-95930281D01*
X145447931Y-95925000D01*
X145447929Y-95925000D01*
X145430000Y-95923234D01*
X145412071Y-95925000D01*
X143837928Y-95925000D01*
X143819999Y-95923234D01*
X143802070Y-95925000D01*
X143802069Y-95925000D01*
X143748448Y-95930281D01*
X143679645Y-95951152D01*
X143616236Y-95985045D01*
X143560657Y-96030657D01*
X143549225Y-96044587D01*
X142558813Y-97035000D01*
X138063188Y-97035000D01*
X137846596Y-96818409D01*
X137984909Y-96744479D01*
X138136265Y-96620265D01*
X138260479Y-96468909D01*
X138352779Y-96296228D01*
X138409617Y-96108858D01*
X138424000Y-95962826D01*
X138424000Y-94357174D01*
X138409617Y-94211142D01*
X138368104Y-94074291D01*
X139349225Y-95055413D01*
X139360657Y-95069343D01*
X139416236Y-95114955D01*
X139479645Y-95148848D01*
X139548448Y-95169719D01*
X139602069Y-95175000D01*
X139602071Y-95175000D01*
X139620000Y-95176766D01*
X139637929Y-95175000D01*
X140862071Y-95175000D01*
X140880000Y-95176766D01*
X140897929Y-95175000D01*
X140897931Y-95175000D01*
X140951552Y-95169719D01*
X141020355Y-95148848D01*
X141083764Y-95114955D01*
X141139343Y-95069343D01*
X141150779Y-95055408D01*
X141397496Y-94808691D01*
X141445236Y-94763884D01*
X141481130Y-94735044D01*
X141509385Y-94716391D01*
X141533524Y-94703813D01*
X141558740Y-94693695D01*
X141590416Y-94683752D01*
X141632236Y-94672634D01*
X141682958Y-94659643D01*
X141687653Y-94658390D01*
X141744896Y-94642487D01*
X141754068Y-94639740D01*
X141777433Y-94632233D01*
X141802097Y-94627327D01*
X141909470Y-94582851D01*
X142006103Y-94518283D01*
X142088283Y-94436103D01*
X142152851Y-94339470D01*
X142197327Y-94232097D01*
X142220000Y-94118110D01*
X142220000Y-94001890D01*
X142197327Y-93887903D01*
X142152851Y-93780530D01*
X142088283Y-93683897D01*
X142006103Y-93601717D01*
X141909470Y-93537149D01*
X141802097Y-93492673D01*
X141688110Y-93470000D01*
X141571890Y-93470000D01*
X141457903Y-93492673D01*
X141350530Y-93537149D01*
X141253897Y-93601717D01*
X141171717Y-93683897D01*
X141107149Y-93780530D01*
X141062673Y-93887903D01*
X141057769Y-93912556D01*
X141050260Y-93935926D01*
X141047512Y-93945103D01*
X141031609Y-94002346D01*
X141030356Y-94007041D01*
X141017365Y-94057763D01*
X141006247Y-94099583D01*
X140996304Y-94131259D01*
X140986186Y-94156475D01*
X140973608Y-94180614D01*
X140954955Y-94208869D01*
X140926114Y-94244763D01*
X140881304Y-94292509D01*
X140728813Y-94445000D01*
X139771188Y-94445000D01*
X137460779Y-92134592D01*
X137449343Y-92120657D01*
X137393764Y-92075045D01*
X137330355Y-92041152D01*
X137261552Y-92020281D01*
X137207931Y-92015000D01*
X137207929Y-92015000D01*
X137190000Y-92013234D01*
X137172071Y-92015000D01*
X131107929Y-92015000D01*
X131090000Y-92013234D01*
X131072071Y-92015000D01*
X131072069Y-92015000D01*
X131018448Y-92020281D01*
X130949645Y-92041152D01*
X130886236Y-92075045D01*
X130830657Y-92120657D01*
X130819225Y-92134587D01*
X129824587Y-93129226D01*
X129810658Y-93140657D01*
X129777299Y-93181305D01*
X129765046Y-93196236D01*
X129731153Y-93259645D01*
X129710282Y-93328448D01*
X129703234Y-93400000D01*
X126229600Y-93400000D01*
X126203255Y-93387294D01*
X126043875Y-93343308D01*
X125875000Y-93405511D01*
X125785000Y-93405511D01*
X125616125Y-93343308D01*
X125456745Y-93387294D01*
X125265177Y-93479687D01*
X125095315Y-93607677D01*
X124953687Y-93766346D01*
X124920000Y-93823530D01*
X124920000Y-91430000D01*
X138560001Y-91430000D01*
X138560000Y-93025754D01*
G04 #@! TA.AperFunction,Conductor*
D18*
G36*
X138560000Y-93025754D02*
G01*
X138558597Y-93040000D01*
X138564196Y-93096850D01*
X138580779Y-93151515D01*
X138607707Y-93201895D01*
X138624120Y-93221894D01*
X138643947Y-93246053D01*
X138688105Y-93282293D01*
X138738485Y-93309221D01*
X138793150Y-93325804D01*
X138850000Y-93331403D01*
X138864245Y-93330000D01*
X141745755Y-93330000D01*
X141760000Y-93331403D01*
X141774245Y-93330000D01*
X141816850Y-93325804D01*
X141871515Y-93309221D01*
X141921895Y-93282293D01*
X141966053Y-93246053D01*
X142002293Y-93201895D01*
X142029221Y-93151515D01*
X142045804Y-93096850D01*
X142051403Y-93040000D01*
X142050000Y-93025755D01*
X142050000Y-91430000D01*
X143613261Y-91430000D01*
X143593606Y-91494793D01*
X143581767Y-91615000D01*
X143581767Y-93865000D01*
X143592261Y-93971551D01*
X141933190Y-95630623D01*
X141898676Y-95662336D01*
X141877205Y-95678279D01*
X141864930Y-95685102D01*
X141858580Y-95687462D01*
X141851969Y-95688812D01*
X141838520Y-95689706D01*
X141814130Y-95688884D01*
X141777514Y-95685438D01*
X141729650Y-95679775D01*
X141728343Y-95679624D01*
X141700989Y-95676540D01*
X141668110Y-95670000D01*
X141551890Y-95670000D01*
X141437903Y-95692673D01*
X141330530Y-95737149D01*
X141233897Y-95801717D01*
X141151717Y-95883897D01*
X141087149Y-95980530D01*
X141042673Y-96087903D01*
X141020000Y-96201890D01*
X141020000Y-96318110D01*
X141042673Y-96432097D01*
X141087149Y-96539470D01*
X141151717Y-96636103D01*
X141233897Y-96718283D01*
X141330530Y-96782851D01*
X141437903Y-96827327D01*
X141551890Y-96850000D01*
X141668110Y-96850000D01*
X141782097Y-96827327D01*
X141889470Y-96782851D01*
X141986103Y-96718283D01*
X142068283Y-96636103D01*
X142075363Y-96625507D01*
X142090495Y-96609101D01*
X142099120Y-96599221D01*
X142142060Y-96547233D01*
X142149796Y-96537352D01*
X142185512Y-96489189D01*
X142191097Y-96481333D01*
X142222394Y-96435381D01*
X142224845Y-96431710D01*
X142254026Y-96387124D01*
X142282292Y-96344673D01*
X142311813Y-96303193D01*
X142346373Y-96259041D01*
X142389837Y-96208955D01*
X142447662Y-96148525D01*
X144122460Y-94473728D01*
X144197928Y-94481161D01*
X144947928Y-94481161D01*
X145068135Y-94469322D01*
X145183723Y-94434259D01*
X145290249Y-94377319D01*
X145383620Y-94300692D01*
X145460247Y-94207321D01*
X145517187Y-94100795D01*
X145552250Y-93985207D01*
X145564089Y-93865000D01*
X145564089Y-91615000D01*
X145552250Y-91494793D01*
X145532595Y-91430000D01*
X146363261Y-91430000D01*
X146343606Y-91494793D01*
X146331767Y-91615000D01*
X146331767Y-93865000D01*
X146343606Y-93985207D01*
X146378669Y-94100795D01*
X146435609Y-94207321D01*
X146512236Y-94300692D01*
X146605607Y-94377319D01*
X146712133Y-94434259D01*
X146827721Y-94469322D01*
X146947928Y-94481161D01*
X146957928Y-94481161D01*
X146957929Y-96324989D01*
X146956162Y-96342928D01*
X146963085Y-96413208D01*
X146963210Y-96414480D01*
X146984081Y-96483283D01*
X147017974Y-96546692D01*
X147032121Y-96563930D01*
X147042174Y-96582296D01*
X147071016Y-96626918D01*
X147083345Y-96644255D01*
X147114732Y-96684490D01*
X147117131Y-96687516D01*
X147143848Y-96720651D01*
X147158939Y-96741945D01*
X147164683Y-96752960D01*
X147167293Y-96761618D01*
X147170000Y-96791012D01*
X147170000Y-96838110D01*
X147192673Y-96952097D01*
X147237149Y-97059470D01*
X147301717Y-97156103D01*
X147383897Y-97238283D01*
X147480530Y-97302851D01*
X147587903Y-97347327D01*
X147701890Y-97370000D01*
X147818110Y-97370000D01*
X147932097Y-97347327D01*
X148039470Y-97302851D01*
X148136103Y-97238283D01*
X148218283Y-97156103D01*
X148282851Y-97059470D01*
X148327327Y-96952097D01*
X148350000Y-96838110D01*
X148350000Y-96721890D01*
X148327327Y-96607903D01*
X148282851Y-96500530D01*
X148218283Y-96403897D01*
X148136103Y-96321717D01*
X148039470Y-96257149D01*
X147932097Y-96212673D01*
X147818110Y-96190000D01*
X147795005Y-96190000D01*
X147788745Y-96189218D01*
X147771636Y-96187700D01*
X147713211Y-96184618D01*
X147708795Y-96184426D01*
X147687928Y-96183710D01*
X147687928Y-94481161D01*
X147697928Y-94481161D01*
X147818135Y-94469322D01*
X147933723Y-94434259D01*
X148040249Y-94377319D01*
X148133620Y-94300692D01*
X148210247Y-94207321D01*
X148267187Y-94100795D01*
X148302250Y-93985207D01*
X148314089Y-93865000D01*
X148314089Y-91615000D01*
X148302250Y-91494793D01*
X148282595Y-91430000D01*
X149113261Y-91430000D01*
X149093606Y-91494793D01*
X149081767Y-91615000D01*
X149081767Y-93865000D01*
X149093606Y-93985207D01*
X149128669Y-94100795D01*
X149185609Y-94207321D01*
X149262236Y-94300692D01*
X149355607Y-94377319D01*
X149462133Y-94434259D01*
X149577721Y-94469322D01*
X149697928Y-94481161D01*
X149707928Y-94481161D01*
X149707929Y-96079229D01*
X149705869Y-96146821D01*
X149700851Y-96194767D01*
X149693915Y-96230090D01*
X149685492Y-96258024D01*
X149674570Y-96284769D01*
X149659144Y-96315741D01*
X149637672Y-96354630D01*
X149611510Y-96401113D01*
X149609184Y-96405345D01*
X149580598Y-96458614D01*
X149576327Y-96466959D01*
X149567555Y-96484960D01*
X149557151Y-96500530D01*
X149512675Y-96607903D01*
X149490002Y-96721890D01*
X149490002Y-96838110D01*
X149512675Y-96952097D01*
X149557151Y-97059470D01*
X149621719Y-97156103D01*
X149703899Y-97238283D01*
X149800532Y-97302851D01*
X149907905Y-97347327D01*
X150021892Y-97370000D01*
X150138112Y-97370000D01*
X150252099Y-97347327D01*
X150359472Y-97302851D01*
X150456105Y-97238283D01*
X150538285Y-97156103D01*
X150602853Y-97059470D01*
X150647329Y-96952097D01*
X150670002Y-96838110D01*
X150670002Y-96721890D01*
X150647329Y-96607903D01*
X150602853Y-96500530D01*
X150585722Y-96474892D01*
X150571101Y-96447714D01*
X150566776Y-96440017D01*
X150536575Y-96388515D01*
X150534538Y-96385107D01*
X150507373Y-96340491D01*
X150485724Y-96303871D01*
X150470478Y-96275005D01*
X150459903Y-96250371D01*
X150451764Y-96224499D01*
X150444973Y-96191148D01*
X150439990Y-96145013D01*
X150437928Y-96079179D01*
X150437928Y-94481161D01*
X150447928Y-94481161D01*
X150568135Y-94469322D01*
X150683723Y-94434259D01*
X150790249Y-94377319D01*
X150883620Y-94300692D01*
X150960247Y-94207321D01*
X151017187Y-94100795D01*
X151052250Y-93985207D01*
X151064089Y-93865000D01*
X151064089Y-91615000D01*
X151052250Y-91494793D01*
X151032595Y-91430000D01*
X152610001Y-91430000D01*
X152610000Y-93045754D01*
X152608597Y-93060000D01*
X152614196Y-93116850D01*
X152630779Y-93171515D01*
X152657707Y-93221895D01*
X152678910Y-93247730D01*
X152693947Y-93266053D01*
X152738105Y-93302293D01*
X152788485Y-93329221D01*
X152843150Y-93345804D01*
X152900000Y-93351403D01*
X152914245Y-93350000D01*
X155150001Y-93350000D01*
X155150000Y-108370000D01*
X124920000Y-108370000D01*
X124920000Y-105232149D01*
X125701490Y-105232149D01*
X125930999Y-105527063D01*
X126336966Y-105754779D01*
X126779556Y-105898919D01*
X127241763Y-105953944D01*
X127705823Y-105917740D01*
X128153903Y-105791698D01*
X128568785Y-105580662D01*
X128649001Y-105527063D01*
X128878510Y-105232149D01*
X127290000Y-103643640D01*
X125701490Y-105232149D01*
X124920000Y-105232149D01*
X124920000Y-103582317D01*
X124952260Y-103995823D01*
X125078302Y-104443903D01*
X125289338Y-104858785D01*
X125342937Y-104939001D01*
X125637851Y-105168510D01*
X127226360Y-103580000D01*
X127353640Y-103580000D01*
X128942149Y-105168510D01*
X129237063Y-104939001D01*
X129464779Y-104533034D01*
X129608919Y-104090444D01*
X129663944Y-103628237D01*
X129627740Y-103164177D01*
X129501698Y-102716097D01*
X129290662Y-102301215D01*
X129237063Y-102220999D01*
X128942149Y-101991490D01*
X127353640Y-103580000D01*
X127226360Y-103580000D01*
X125637851Y-101991490D01*
X125342937Y-102220999D01*
X125115221Y-102626966D01*
X124971081Y-103069556D01*
X124920000Y-103498634D01*
X124920000Y-101927851D01*
X125701490Y-101927851D01*
X127290000Y-103516360D01*
X128878510Y-101927851D01*
X128649001Y-101632937D01*
X128243034Y-101405221D01*
X127800444Y-101261081D01*
X127338237Y-101206056D01*
X126874177Y-101242260D01*
X126426097Y-101368302D01*
X126011215Y-101579338D01*
X125930999Y-101632937D01*
X125701490Y-101927851D01*
X124920000Y-101927851D01*
X124920000Y-96496470D01*
X124953687Y-96553654D01*
X125095315Y-96712323D01*
X125265177Y-96840313D01*
X125456745Y-96932706D01*
X125616125Y-96976692D01*
X125785000Y-96914489D01*
X125785000Y-95205000D01*
X125875000Y-95205000D01*
X125875000Y-96914489D01*
X126043875Y-96976692D01*
X126203255Y-96932706D01*
X126394823Y-96840313D01*
X126564685Y-96712323D01*
X126706313Y-96553654D01*
X126814265Y-96370403D01*
X126818884Y-96357175D01*
X127236000Y-96357175D01*
X127236001Y-97962826D01*
X127250384Y-98108858D01*
X127307222Y-98296228D01*
X127399522Y-98468909D01*
X127523736Y-98620265D01*
X127675092Y-98744479D01*
X127847773Y-98836779D01*
X128035143Y-98893617D01*
X128230000Y-98912809D01*
X128424858Y-98893617D01*
X128612228Y-98836779D01*
X128784909Y-98744479D01*
X128936265Y-98620265D01*
X129060479Y-98468909D01*
X129152779Y-98296228D01*
X129209617Y-98108858D01*
X129224000Y-97962826D01*
X129224000Y-96357174D01*
X129209617Y-96211142D01*
X129152779Y-96023772D01*
X129060479Y-95851091D01*
X128936265Y-95699735D01*
X128784909Y-95575521D01*
X128612227Y-95483221D01*
X128424857Y-95426383D01*
X128230000Y-95407191D01*
X128035142Y-95426383D01*
X127847772Y-95483221D01*
X127675091Y-95575521D01*
X127523735Y-95699735D01*
X127399521Y-95851091D01*
X127307221Y-96023773D01*
X127250383Y-96211143D01*
X127236000Y-96357175D01*
X126818884Y-96357175D01*
X126884392Y-96169613D01*
X126914000Y-95959000D01*
X126914000Y-95205000D01*
X125875000Y-95205000D01*
X125785000Y-95205000D01*
X125765000Y-95205000D01*
X125765000Y-95115000D01*
X125785000Y-95115000D01*
X125785000Y-93405511D01*
X125875000Y-93405511D01*
X125875000Y-95115000D01*
X126914000Y-95115000D01*
X126914000Y-94361000D01*
X126884392Y-94150387D01*
X126814265Y-93949597D01*
X126706313Y-93766346D01*
X126564685Y-93607677D01*
X126394823Y-93479687D01*
X126229600Y-93400000D01*
X129703234Y-93400000D01*
X129705001Y-93417939D01*
X129705000Y-104672071D01*
X129703234Y-104690000D01*
X129705000Y-104707929D01*
X129705000Y-104707930D01*
X129710281Y-104761551D01*
X129731152Y-104830354D01*
X129765045Y-104893763D01*
X129810657Y-104949342D01*
X129824588Y-104960775D01*
X132226335Y-107362523D01*
X132271109Y-107410229D01*
X132299955Y-107446130D01*
X132318608Y-107474385D01*
X132331186Y-107498524D01*
X132341304Y-107523740D01*
X132351247Y-107555416D01*
X132362365Y-107597236D01*
X132375356Y-107647958D01*
X132376609Y-107652653D01*
X132392512Y-107709896D01*
X132395260Y-107719072D01*
X132402769Y-107742440D01*
X132407673Y-107767097D01*
X132452149Y-107874470D01*
X132516717Y-107971103D01*
X132598897Y-108053283D01*
X132695530Y-108117851D01*
X132802903Y-108162327D01*
X132916890Y-108185000D01*
X133033110Y-108185000D01*
X133147097Y-108162327D01*
X133254470Y-108117851D01*
X133351103Y-108053283D01*
X133433283Y-107971103D01*
X133497851Y-107874470D01*
X133542327Y-107767097D01*
X133565000Y-107653110D01*
X133565000Y-107536890D01*
X133542327Y-107422903D01*
X133497851Y-107315530D01*
X133433283Y-107218897D01*
X133351103Y-107136717D01*
X133254470Y-107072149D01*
X133147097Y-107027673D01*
X133122440Y-107022769D01*
X133099072Y-107015260D01*
X133089896Y-107012512D01*
X133032653Y-106996609D01*
X133027958Y-106995356D01*
X132977236Y-106982365D01*
X132935416Y-106971247D01*
X132903740Y-106961304D01*
X132878524Y-106951186D01*
X132854385Y-106938608D01*
X132826130Y-106919955D01*
X132790229Y-106891109D01*
X132742523Y-106846335D01*
X131348832Y-105452644D01*
X134115000Y-105452644D01*
X134115000Y-105667356D01*
X134156888Y-105877941D01*
X134239055Y-106076309D01*
X134358342Y-106254834D01*
X134510166Y-106406658D01*
X134688691Y-106525945D01*
X134887059Y-106608112D01*
X135097644Y-106650000D01*
X135312356Y-106650000D01*
X135522941Y-106608112D01*
X135721309Y-106525945D01*
X135899834Y-106406658D01*
X136051658Y-106254834D01*
X136170945Y-106076309D01*
X136253112Y-105877941D01*
X136295000Y-105667356D01*
X136295000Y-105452644D01*
X136405000Y-105452644D01*
X136405000Y-105667356D01*
X136446888Y-105877941D01*
X136529055Y-106076309D01*
X136648342Y-106254834D01*
X136724509Y-106331001D01*
X136844164Y-106450925D01*
X136945980Y-106553476D01*
X137034779Y-106643356D01*
X137115369Y-106725259D01*
X137193135Y-106804460D01*
X137193168Y-106804494D01*
X137208224Y-106819821D01*
X137240657Y-106859342D01*
X137254588Y-106870775D01*
X137879225Y-107495413D01*
X137890657Y-107509343D01*
X137946236Y-107554955D01*
X138009645Y-107588848D01*
X138078448Y-107609719D01*
X138132069Y-107615000D01*
X138132071Y-107615000D01*
X138150000Y-107616766D01*
X138167929Y-107615000D01*
X147942071Y-107615000D01*
X147960000Y-107616766D01*
X147977929Y-107615000D01*
X147977931Y-107615000D01*
X148031552Y-107609719D01*
X148100355Y-107588848D01*
X148163764Y-107554955D01*
X148219343Y-107509343D01*
X148230779Y-107495408D01*
X149625413Y-106100775D01*
X149639343Y-106089343D01*
X149665167Y-106057875D01*
X149684954Y-106033766D01*
X149718847Y-105970356D01*
X149718848Y-105970355D01*
X149739719Y-105901552D01*
X149745000Y-105847931D01*
X149745000Y-105847930D01*
X149746766Y-105830001D01*
X149745000Y-105812072D01*
X149745000Y-105232149D01*
X150691490Y-105232149D01*
X150920999Y-105527063D01*
X151326966Y-105754779D01*
X151769556Y-105898919D01*
X152231763Y-105953944D01*
X152695823Y-105917740D01*
X153143903Y-105791698D01*
X153558785Y-105580662D01*
X153639001Y-105527063D01*
X153868510Y-105232149D01*
X152280000Y-103643640D01*
X150691490Y-105232149D01*
X149745000Y-105232149D01*
X149745000Y-103531763D01*
X149906056Y-103531763D01*
X149942260Y-103995823D01*
X150068302Y-104443903D01*
X150279338Y-104858785D01*
X150332937Y-104939001D01*
X150627851Y-105168510D01*
X152216360Y-103580000D01*
X152343640Y-103580000D01*
X153932149Y-105168510D01*
X154227063Y-104939001D01*
X154454779Y-104533034D01*
X154598919Y-104090444D01*
X154653944Y-103628237D01*
X154617740Y-103164177D01*
X154491698Y-102716097D01*
X154280662Y-102301215D01*
X154227063Y-102220999D01*
X153932149Y-101991490D01*
X152343640Y-103580000D01*
X152216360Y-103580000D01*
X150627851Y-101991490D01*
X150332937Y-102220999D01*
X150105221Y-102626966D01*
X149961081Y-103069556D01*
X149906056Y-103531763D01*
X149745000Y-103531763D01*
X149745000Y-101927851D01*
X150691490Y-101927851D01*
X152280000Y-103516360D01*
X153868510Y-101927851D01*
X153639001Y-101632937D01*
X153233034Y-101405221D01*
X152790444Y-101261081D01*
X152328237Y-101206056D01*
X151864177Y-101242260D01*
X151416097Y-101368302D01*
X151001215Y-101579338D01*
X150920999Y-101632937D01*
X150691490Y-101927851D01*
X149745000Y-101927851D01*
X149745000Y-101129728D01*
X149748407Y-101043402D01*
X149756619Y-100982828D01*
X149767953Y-100938185D01*
X149782067Y-100901820D01*
X149784019Y-100898070D01*
X149808392Y-100890677D01*
X149888985Y-100847599D01*
X149959626Y-100789626D01*
X150017599Y-100718985D01*
X150060677Y-100638392D01*
X150087204Y-100550943D01*
X150096161Y-100460000D01*
X150096161Y-100010000D01*
X150087204Y-99919057D01*
X150060677Y-99831608D01*
X150017599Y-99751015D01*
X149959626Y-99680374D01*
X149888985Y-99622401D01*
X149808392Y-99579323D01*
X149720943Y-99552796D01*
X149630000Y-99543839D01*
X149130000Y-99543839D01*
X149039057Y-99552796D01*
X148951608Y-99579323D01*
X148871015Y-99622401D01*
X148800374Y-99680374D01*
X148742401Y-99751015D01*
X148699323Y-99831608D01*
X148672796Y-99919057D01*
X148663839Y-100010000D01*
X148663839Y-100460000D01*
X148672796Y-100550943D01*
X148699323Y-100638392D01*
X148742401Y-100718985D01*
X148800374Y-100789626D01*
X148871015Y-100847599D01*
X148951608Y-100890677D01*
X148975980Y-100898070D01*
X148977932Y-100901820D01*
X148992046Y-100938185D01*
X149003380Y-100982828D01*
X149011592Y-101043402D01*
X149015000Y-101129735D01*
X149015001Y-105678811D01*
X147808813Y-106885000D01*
X138301188Y-106885000D01*
X138232424Y-106816236D01*
X138165514Y-106736049D01*
X138141871Y-106688589D01*
X138136499Y-106657740D01*
X138140679Y-106622030D01*
X138160278Y-106567006D01*
X138200035Y-106491807D01*
X138257929Y-106399598D01*
X138326729Y-106294597D01*
X138330020Y-106289432D01*
X138400663Y-106175372D01*
X138408439Y-106161855D01*
X138426756Y-106127477D01*
X138460945Y-106076309D01*
X138543112Y-105877941D01*
X138585000Y-105667356D01*
X138585000Y-105452644D01*
X138695000Y-105452644D01*
X138695000Y-105667356D01*
X138736888Y-105877941D01*
X138819055Y-106076309D01*
X138938342Y-106254834D01*
X139090166Y-106406658D01*
X139268691Y-106525945D01*
X139467059Y-106608112D01*
X139677644Y-106650000D01*
X139892356Y-106650000D01*
X140102941Y-106608112D01*
X140301309Y-106525945D01*
X140479834Y-106406658D01*
X140631658Y-106254834D01*
X140750945Y-106076309D01*
X140833112Y-105877941D01*
X140875000Y-105667356D01*
X140875000Y-105452644D01*
X140985000Y-105452644D01*
X140985000Y-105667356D01*
X141026888Y-105877941D01*
X141109055Y-106076309D01*
X141228342Y-106254834D01*
X141380166Y-106406658D01*
X141558691Y-106525945D01*
X141757059Y-106608112D01*
X141967644Y-106650000D01*
X142182356Y-106650000D01*
X142392941Y-106608112D01*
X142591309Y-106525945D01*
X142769834Y-106406658D01*
X142921658Y-106254834D01*
X143040945Y-106076309D01*
X143123112Y-105877941D01*
X143165000Y-105667356D01*
X143165000Y-105452644D01*
X143275000Y-105452644D01*
X143275000Y-105667356D01*
X143316888Y-105877941D01*
X143399055Y-106076309D01*
X143518342Y-106254834D01*
X143670166Y-106406658D01*
X143848691Y-106525945D01*
X144047059Y-106608112D01*
X144257644Y-106650000D01*
X144472356Y-106650000D01*
X144682941Y-106608112D01*
X144881309Y-106525945D01*
X144938400Y-106487798D01*
X145009493Y-106449090D01*
X145028213Y-106437762D01*
X145160518Y-106349217D01*
X145174097Y-106339427D01*
X145287346Y-106251615D01*
X145293334Y-106246817D01*
X145393613Y-106163796D01*
X145483412Y-106092315D01*
X145566747Y-106035745D01*
X145653038Y-105991711D01*
X145755190Y-105957621D01*
X145887192Y-105934196D01*
X146066165Y-105925000D01*
X146982071Y-105925000D01*
X147000000Y-105926766D01*
X147017929Y-105925000D01*
X147017931Y-105925000D01*
X147071552Y-105919719D01*
X147140355Y-105898848D01*
X147203764Y-105864955D01*
X147259343Y-105819343D01*
X147270779Y-105805408D01*
X147765413Y-105310775D01*
X147779343Y-105299343D01*
X147824955Y-105243764D01*
X147858848Y-105180355D01*
X147876393Y-105122517D01*
X147948392Y-105100677D01*
X148028985Y-105057599D01*
X148099626Y-104999626D01*
X148157599Y-104928985D01*
X148200677Y-104848392D01*
X148227204Y-104760943D01*
X148236161Y-104670000D01*
X148236161Y-104220000D01*
X148227204Y-104129057D01*
X148200677Y-104041608D01*
X148157599Y-103961015D01*
X148099626Y-103890374D01*
X148028985Y-103832401D01*
X147948392Y-103789323D01*
X147860943Y-103762796D01*
X147770000Y-103753839D01*
X147270000Y-103753839D01*
X147179057Y-103762796D01*
X147091608Y-103789323D01*
X147011015Y-103832401D01*
X146940374Y-103890374D01*
X146882401Y-103961015D01*
X146839323Y-104041608D01*
X146812796Y-104129057D01*
X146803839Y-104220000D01*
X146803839Y-104670000D01*
X146812796Y-104760943D01*
X146839323Y-104848392D01*
X146882401Y-104928985D01*
X146940374Y-104999626D01*
X146997393Y-105046420D01*
X146848813Y-105195000D01*
X146066167Y-105195000D01*
X145887192Y-105185803D01*
X145755190Y-105162378D01*
X145653038Y-105128288D01*
X145566747Y-105084254D01*
X145483412Y-105027684D01*
X145393613Y-104956203D01*
X145293334Y-104873182D01*
X145287346Y-104868384D01*
X145174097Y-104780572D01*
X145160518Y-104770782D01*
X145028213Y-104682237D01*
X145009492Y-104670908D01*
X144938391Y-104632196D01*
X144881309Y-104594055D01*
X144682941Y-104511888D01*
X144472356Y-104470000D01*
X144257644Y-104470000D01*
X144047059Y-104511888D01*
X143848691Y-104594055D01*
X143670166Y-104713342D01*
X143518342Y-104865166D01*
X143399055Y-105043691D01*
X143316888Y-105242059D01*
X143275000Y-105452644D01*
X143165000Y-105452644D01*
X143123112Y-105242059D01*
X143040945Y-105043691D01*
X142921658Y-104865166D01*
X142769834Y-104713342D01*
X142591309Y-104594055D01*
X142392941Y-104511888D01*
X142182356Y-104470000D01*
X141967644Y-104470000D01*
X141757059Y-104511888D01*
X141558691Y-104594055D01*
X141380166Y-104713342D01*
X141228342Y-104865166D01*
X141109055Y-105043691D01*
X141026888Y-105242059D01*
X140985000Y-105452644D01*
X140875000Y-105452644D01*
X140833112Y-105242059D01*
X140750945Y-105043691D01*
X140631658Y-104865166D01*
X140479834Y-104713342D01*
X140301309Y-104594055D01*
X140102941Y-104511888D01*
X139892356Y-104470000D01*
X139677644Y-104470000D01*
X139467059Y-104511888D01*
X139268691Y-104594055D01*
X139090166Y-104713342D01*
X138938342Y-104865166D01*
X138819055Y-105043691D01*
X138736888Y-105242059D01*
X138695000Y-105452644D01*
X138585000Y-105452644D01*
X138543112Y-105242059D01*
X138460945Y-105043691D01*
X138341658Y-104865166D01*
X138189834Y-104713342D01*
X138011309Y-104594055D01*
X137812941Y-104511888D01*
X137602356Y-104470000D01*
X137387644Y-104470000D01*
X137177059Y-104511888D01*
X136978691Y-104594055D01*
X136800166Y-104713342D01*
X136648342Y-104865166D01*
X136529055Y-105043691D01*
X136446888Y-105242059D01*
X136405000Y-105452644D01*
X136295000Y-105452644D01*
X136253112Y-105242059D01*
X136170945Y-105043691D01*
X136051658Y-104865166D01*
X135899834Y-104713342D01*
X135721309Y-104594055D01*
X135522941Y-104511888D01*
X135312356Y-104470000D01*
X135097644Y-104470000D01*
X134887059Y-104511888D01*
X134688691Y-104594055D01*
X134510166Y-104713342D01*
X134358342Y-104865166D01*
X134239055Y-105043691D01*
X134156888Y-105242059D01*
X134115000Y-105452644D01*
X131348832Y-105452644D01*
X130435000Y-104538813D01*
X130435000Y-104391258D01*
X133312382Y-104391258D01*
X133399965Y-104565019D01*
X133604814Y-104674859D01*
X133827157Y-104742624D01*
X134058447Y-104765709D01*
X134289797Y-104743229D01*
X134512316Y-104676047D01*
X134717453Y-104566744D01*
X134720035Y-104565019D01*
X134807618Y-104391258D01*
X135602382Y-104391258D01*
X135689965Y-104565019D01*
X135894814Y-104674859D01*
X136117157Y-104742624D01*
X136348447Y-104765709D01*
X136579797Y-104743229D01*
X136802316Y-104676047D01*
X137007453Y-104566744D01*
X137010035Y-104565019D01*
X137097618Y-104391258D01*
X137892382Y-104391258D01*
X137979965Y-104565019D01*
X138184814Y-104674859D01*
X138407157Y-104742624D01*
X138638447Y-104765709D01*
X138869797Y-104743229D01*
X139092316Y-104676047D01*
X139297453Y-104566744D01*
X139300035Y-104565019D01*
X139387618Y-104391258D01*
X138640000Y-103643640D01*
X137892382Y-104391258D01*
X137097618Y-104391258D01*
X136350000Y-103643640D01*
X135602382Y-104391258D01*
X134807618Y-104391258D01*
X134060000Y-103643640D01*
X133312382Y-104391258D01*
X130435000Y-104391258D01*
X130435000Y-103578447D01*
X132874291Y-103578447D01*
X132896771Y-103809797D01*
X132963953Y-104032316D01*
X133073256Y-104237453D01*
X133074981Y-104240035D01*
X133248742Y-104327618D01*
X133996360Y-103580000D01*
X134123640Y-103580000D01*
X134871258Y-104327618D01*
X135045019Y-104240035D01*
X135154859Y-104035186D01*
X135205075Y-103870423D01*
X135253953Y-104032316D01*
X135363256Y-104237453D01*
X135364981Y-104240035D01*
X135538742Y-104327618D01*
X136286360Y-103580000D01*
X136413640Y-103580000D01*
X137161258Y-104327618D01*
X137335019Y-104240035D01*
X137444859Y-104035186D01*
X137495075Y-103870423D01*
X137543953Y-104032316D01*
X137653256Y-104237453D01*
X137654981Y-104240035D01*
X137828742Y-104327618D01*
X138576360Y-103580000D01*
X138703640Y-103580000D01*
X139451258Y-104327618D01*
X139625019Y-104240035D01*
X139734859Y-104035186D01*
X139802624Y-103812843D01*
X139825709Y-103581553D01*
X139815127Y-103472644D01*
X139840000Y-103472644D01*
X139840000Y-103687356D01*
X139881888Y-103897941D01*
X139964055Y-104096309D01*
X140083342Y-104274834D01*
X140235166Y-104426658D01*
X140413691Y-104545945D01*
X140612059Y-104628112D01*
X140822644Y-104670000D01*
X141037356Y-104670000D01*
X141247941Y-104628112D01*
X141446309Y-104545945D01*
X141624834Y-104426658D01*
X141660234Y-104391258D01*
X142472382Y-104391258D01*
X142559965Y-104565019D01*
X142764814Y-104674859D01*
X142987157Y-104742624D01*
X143218447Y-104765709D01*
X143449797Y-104743229D01*
X143672316Y-104676047D01*
X143877453Y-104566744D01*
X143880035Y-104565019D01*
X143967618Y-104391258D01*
X143220000Y-103643640D01*
X142472382Y-104391258D01*
X141660234Y-104391258D01*
X141776658Y-104274834D01*
X141895945Y-104096309D01*
X141978112Y-103897941D01*
X142020000Y-103687356D01*
X142020000Y-103578447D01*
X142034291Y-103578447D01*
X142056771Y-103809797D01*
X142123953Y-104032316D01*
X142233256Y-104237453D01*
X142234981Y-104240035D01*
X142408742Y-104327618D01*
X143156360Y-103580000D01*
X143283640Y-103580000D01*
X144031258Y-104327618D01*
X144205019Y-104240035D01*
X144314859Y-104035186D01*
X144382624Y-103812843D01*
X144405709Y-103581553D01*
X144383229Y-103350203D01*
X144316047Y-103127684D01*
X144206744Y-102922547D01*
X144205019Y-102919965D01*
X144031258Y-102832382D01*
X143283640Y-103580000D01*
X143156360Y-103580000D01*
X142408742Y-102832382D01*
X142234981Y-102919965D01*
X142125141Y-103124814D01*
X142057376Y-103347157D01*
X142034291Y-103578447D01*
X142020000Y-103578447D01*
X142020000Y-103472644D01*
X141978112Y-103262059D01*
X141895945Y-103063691D01*
X141776658Y-102885166D01*
X141660234Y-102768742D01*
X142472382Y-102768742D01*
X143220000Y-103516360D01*
X143967618Y-102768742D01*
X143934110Y-102702264D01*
X144132157Y-102762624D01*
X144363447Y-102785709D01*
X144594797Y-102763229D01*
X144817316Y-102696047D01*
X145022453Y-102586744D01*
X145025035Y-102585019D01*
X145112618Y-102411258D01*
X144365000Y-101663640D01*
X143617382Y-102411258D01*
X143650890Y-102477736D01*
X143452843Y-102417376D01*
X143221553Y-102394291D01*
X142990203Y-102416771D01*
X142767684Y-102483953D01*
X142562547Y-102593256D01*
X142559965Y-102594981D01*
X142472382Y-102768742D01*
X141660234Y-102768742D01*
X141624834Y-102733342D01*
X141446309Y-102614055D01*
X141247941Y-102531888D01*
X141037356Y-102490000D01*
X140822644Y-102490000D01*
X140612059Y-102531888D01*
X140413691Y-102614055D01*
X140235166Y-102733342D01*
X140083342Y-102885166D01*
X139964055Y-103063691D01*
X139881888Y-103262059D01*
X139840000Y-103472644D01*
X139815127Y-103472644D01*
X139803229Y-103350203D01*
X139736047Y-103127684D01*
X139626744Y-102922547D01*
X139625019Y-102919965D01*
X139451258Y-102832382D01*
X138703640Y-103580000D01*
X138576360Y-103580000D01*
X137828742Y-102832382D01*
X137654981Y-102919965D01*
X137545141Y-103124814D01*
X137494925Y-103289577D01*
X137446047Y-103127684D01*
X137336744Y-102922547D01*
X137335019Y-102919965D01*
X137161258Y-102832382D01*
X136413640Y-103580000D01*
X136286360Y-103580000D01*
X135538742Y-102832382D01*
X135364981Y-102919965D01*
X135255141Y-103124814D01*
X135204925Y-103289577D01*
X135156047Y-103127684D01*
X135046744Y-102922547D01*
X135045019Y-102919965D01*
X134871258Y-102832382D01*
X134123640Y-103580000D01*
X133996360Y-103580000D01*
X133248742Y-102832382D01*
X133074981Y-102919965D01*
X132965141Y-103124814D01*
X132897376Y-103347157D01*
X132874291Y-103578447D01*
X130435000Y-103578447D01*
X130435000Y-102768742D01*
X133312382Y-102768742D01*
X134060000Y-103516360D01*
X134807618Y-102768742D01*
X134768514Y-102691161D01*
X135641486Y-102691161D01*
X135602382Y-102768742D01*
X136350000Y-103516360D01*
X137097618Y-102768742D01*
X137892382Y-102768742D01*
X138640000Y-103516360D01*
X139387618Y-102768742D01*
X139300035Y-102594981D01*
X139095186Y-102485141D01*
X138872843Y-102417376D01*
X138641553Y-102394291D01*
X138410203Y-102416771D01*
X138187684Y-102483953D01*
X137982547Y-102593256D01*
X137979965Y-102594981D01*
X137892382Y-102768742D01*
X137097618Y-102768742D01*
X137010035Y-102594981D01*
X136805186Y-102485141D01*
X136582843Y-102417376D01*
X136351553Y-102394291D01*
X136296161Y-102399673D01*
X136296161Y-101492644D01*
X136405000Y-101492644D01*
X136405000Y-101707356D01*
X136446888Y-101917941D01*
X136529055Y-102116309D01*
X136648342Y-102294834D01*
X136800166Y-102446658D01*
X136978691Y-102565945D01*
X137177059Y-102648112D01*
X137387644Y-102690000D01*
X137602356Y-102690000D01*
X137812941Y-102648112D01*
X138011309Y-102565945D01*
X138189834Y-102446658D01*
X138341658Y-102294834D01*
X138460945Y-102116309D01*
X138543112Y-101917941D01*
X138585000Y-101707356D01*
X138585000Y-101492644D01*
X138695000Y-101492644D01*
X138695000Y-101707356D01*
X138736888Y-101917941D01*
X138819055Y-102116309D01*
X138938342Y-102294834D01*
X139090166Y-102446658D01*
X139268691Y-102565945D01*
X139467059Y-102648112D01*
X139677644Y-102690000D01*
X139892356Y-102690000D01*
X140102941Y-102648112D01*
X140301309Y-102565945D01*
X140479834Y-102446658D01*
X140631658Y-102294834D01*
X140750945Y-102116309D01*
X140833112Y-101917941D01*
X140875000Y-101707356D01*
X140875000Y-101492644D01*
X140985000Y-101492644D01*
X140985000Y-101707356D01*
X141026888Y-101917941D01*
X141109055Y-102116309D01*
X141228342Y-102294834D01*
X141380166Y-102446658D01*
X141558691Y-102565945D01*
X141757059Y-102648112D01*
X141967644Y-102690000D01*
X142182356Y-102690000D01*
X142392941Y-102648112D01*
X142591309Y-102565945D01*
X142769834Y-102446658D01*
X142921658Y-102294834D01*
X143040945Y-102116309D01*
X143123112Y-101917941D01*
X143165000Y-101707356D01*
X143165000Y-101598447D01*
X143179291Y-101598447D01*
X143201771Y-101829797D01*
X143268953Y-102052316D01*
X143378256Y-102257453D01*
X143379981Y-102260035D01*
X143553742Y-102347618D01*
X144301360Y-101600000D01*
X144428640Y-101600000D01*
X145176258Y-102347618D01*
X145350019Y-102260035D01*
X145459859Y-102055186D01*
X145527624Y-101832843D01*
X145550709Y-101601553D01*
X145528229Y-101370203D01*
X145461047Y-101147684D01*
X145351744Y-100942547D01*
X145350019Y-100939965D01*
X145176258Y-100852382D01*
X144428640Y-101600000D01*
X144301360Y-101600000D01*
X143553742Y-100852382D01*
X143379981Y-100939965D01*
X143270141Y-101144814D01*
X143202376Y-101367157D01*
X143179291Y-101598447D01*
X143165000Y-101598447D01*
X143165000Y-101492644D01*
X143123112Y-101282059D01*
X143040945Y-101083691D01*
X142921658Y-100905166D01*
X142805234Y-100788742D01*
X143617382Y-100788742D01*
X144365000Y-101536360D01*
X145112618Y-100788742D01*
X145025035Y-100614981D01*
X144820186Y-100505141D01*
X144597843Y-100437376D01*
X144366553Y-100414291D01*
X144135203Y-100436771D01*
X143912684Y-100503953D01*
X143707547Y-100613256D01*
X143704965Y-100614981D01*
X143617382Y-100788742D01*
X142805234Y-100788742D01*
X142769834Y-100753342D01*
X142591309Y-100634055D01*
X142392941Y-100551888D01*
X142182356Y-100510000D01*
X141967644Y-100510000D01*
X141757059Y-100551888D01*
X141558691Y-100634055D01*
X141380166Y-100753342D01*
X141228342Y-100905166D01*
X141109055Y-101083691D01*
X141026888Y-101282059D01*
X140985000Y-101492644D01*
X140875000Y-101492644D01*
X140833112Y-101282059D01*
X140750945Y-101083691D01*
X140631658Y-100905166D01*
X140479834Y-100753342D01*
X140301309Y-100634055D01*
X140102941Y-100551888D01*
X139892356Y-100510000D01*
X139677644Y-100510000D01*
X139467059Y-100551888D01*
X139268691Y-100634055D01*
X139090166Y-100753342D01*
X138938342Y-100905166D01*
X138819055Y-101083691D01*
X138736888Y-101282059D01*
X138695000Y-101492644D01*
X138585000Y-101492644D01*
X138543112Y-101282059D01*
X138460945Y-101083691D01*
X138341658Y-100905166D01*
X138189834Y-100753342D01*
X138011309Y-100634055D01*
X137812941Y-100551888D01*
X137602356Y-100510000D01*
X137387644Y-100510000D01*
X137177059Y-100551888D01*
X136978691Y-100634055D01*
X136800166Y-100753342D01*
X136648342Y-100905166D01*
X136529055Y-101083691D01*
X136446888Y-101282059D01*
X136405000Y-101492644D01*
X136296161Y-101492644D01*
X136296161Y-100750000D01*
X136291527Y-100702952D01*
X136277804Y-100657712D01*
X136255518Y-100616018D01*
X136225527Y-100579473D01*
X136188982Y-100549482D01*
X136147288Y-100527196D01*
X136102048Y-100513473D01*
X136055000Y-100508839D01*
X134355000Y-100508839D01*
X134307952Y-100513473D01*
X134262712Y-100527196D01*
X134221018Y-100549482D01*
X134184473Y-100579473D01*
X134154482Y-100616018D01*
X134132196Y-100657712D01*
X134118473Y-100702952D01*
X134113839Y-100750000D01*
X134113839Y-102399510D01*
X134061553Y-102394291D01*
X133830203Y-102416771D01*
X133607684Y-102483953D01*
X133402547Y-102593256D01*
X133399965Y-102594981D01*
X133312382Y-102768742D01*
X130435000Y-102768742D01*
X130435000Y-94357175D01*
X130936000Y-94357175D01*
X130936001Y-95962826D01*
X130950384Y-96108858D01*
X131007222Y-96296228D01*
X131099522Y-96468909D01*
X131223736Y-96620265D01*
X131375092Y-96744479D01*
X131547773Y-96836779D01*
X131565000Y-96842005D01*
X131565001Y-98792061D01*
X131563234Y-98810000D01*
X131568398Y-98862425D01*
X131570282Y-98881552D01*
X131591153Y-98950355D01*
X131625046Y-99013764D01*
X131670658Y-99069343D01*
X131684587Y-99080774D01*
X132579225Y-99975413D01*
X132590657Y-99989343D01*
X132615828Y-100010000D01*
X132646234Y-100034954D01*
X132646236Y-100034955D01*
X132709645Y-100068848D01*
X132778448Y-100089719D01*
X132832069Y-100095000D01*
X132832070Y-100095000D01*
X132849999Y-100096766D01*
X132867928Y-100095000D01*
X145878813Y-100095000D01*
X147155000Y-101371187D01*
X147155000Y-102005181D01*
X147151582Y-102090697D01*
X147143388Y-102150420D01*
X147132121Y-102194283D01*
X147118086Y-102230036D01*
X147117300Y-102231529D01*
X147091608Y-102239323D01*
X147011015Y-102282401D01*
X146940374Y-102340374D01*
X146882401Y-102411015D01*
X146839323Y-102491608D01*
X146812796Y-102579057D01*
X146803839Y-102670000D01*
X146803839Y-103120000D01*
X146812796Y-103210943D01*
X146839323Y-103298392D01*
X146882401Y-103378985D01*
X146940374Y-103449626D01*
X147011015Y-103507599D01*
X147091608Y-103550677D01*
X147179057Y-103577204D01*
X147270000Y-103586161D01*
X147770000Y-103586161D01*
X147860943Y-103577204D01*
X147948392Y-103550677D01*
X148028985Y-103507599D01*
X148099626Y-103449626D01*
X148157599Y-103378985D01*
X148200677Y-103298392D01*
X148227204Y-103210943D01*
X148236161Y-103120000D01*
X148236161Y-102670000D01*
X148227204Y-102579057D01*
X148200677Y-102491608D01*
X148157599Y-102411015D01*
X148099626Y-102340374D01*
X148028985Y-102282401D01*
X147948392Y-102239323D01*
X147922698Y-102231529D01*
X147921913Y-102230036D01*
X147907878Y-102194283D01*
X147896611Y-102150420D01*
X147888417Y-102090697D01*
X147885000Y-102005196D01*
X147885000Y-101237928D01*
X147886766Y-101219999D01*
X147885000Y-101202069D01*
X147879719Y-101148448D01*
X147858848Y-101079645D01*
X147824955Y-101016236D01*
X147779342Y-100960657D01*
X147765412Y-100949225D01*
X146300779Y-99484592D01*
X146289343Y-99470657D01*
X146233764Y-99425045D01*
X146170355Y-99391152D01*
X146101552Y-99370281D01*
X146047931Y-99365000D01*
X146047929Y-99365000D01*
X146030000Y-99363234D01*
X146012071Y-99365000D01*
X133001188Y-99365000D01*
X132295000Y-98658813D01*
X132295000Y-96842005D01*
X132312228Y-96836779D01*
X132484909Y-96744479D01*
X132636265Y-96620265D01*
X132736000Y-96498737D01*
X132736001Y-97962826D01*
X132750384Y-98108858D01*
X132807222Y-98296228D01*
X132899522Y-98468909D01*
X133023736Y-98620265D01*
X133175092Y-98744479D01*
X133347773Y-98836779D01*
X133535143Y-98893617D01*
X133730000Y-98912809D01*
X133924858Y-98893617D01*
X134112228Y-98836779D01*
X134284909Y-98744479D01*
X134436265Y-98620265D01*
X134467760Y-98581888D01*
X135030000Y-98581888D01*
X135030000Y-98698108D01*
X135052673Y-98812095D01*
X135097149Y-98919468D01*
X135161717Y-99016101D01*
X135243897Y-99098281D01*
X135340530Y-99162849D01*
X135447903Y-99207325D01*
X135561890Y-99229998D01*
X135678110Y-99229998D01*
X135792097Y-99207325D01*
X135899470Y-99162849D01*
X135959711Y-99122597D01*
X135994698Y-99099443D01*
X136000624Y-99095392D01*
X136048336Y-99061722D01*
X136049694Y-99060757D01*
X136090190Y-99031756D01*
X136122184Y-99010021D01*
X136146662Y-98995493D01*
X136167063Y-98985846D01*
X136188875Y-98978411D01*
X136218525Y-98971952D01*
X136261252Y-98967065D01*
X136323951Y-98965000D01*
X143472071Y-98965000D01*
X143490000Y-98966766D01*
X143507929Y-98965000D01*
X143507931Y-98965000D01*
X143561552Y-98959719D01*
X143630355Y-98938848D01*
X143693764Y-98904955D01*
X143749343Y-98859343D01*
X143760779Y-98845408D01*
X144387505Y-98218682D01*
X144435236Y-98173884D01*
X144471130Y-98145044D01*
X144499385Y-98126391D01*
X144523524Y-98113813D01*
X144548740Y-98103695D01*
X144580416Y-98093752D01*
X144622236Y-98082634D01*
X144672958Y-98069643D01*
X144677653Y-98068390D01*
X144734896Y-98052487D01*
X144744068Y-98049740D01*
X144767433Y-98042233D01*
X144792097Y-98037327D01*
X144899470Y-97992851D01*
X144996103Y-97928283D01*
X145078283Y-97846103D01*
X145142851Y-97749470D01*
X145187327Y-97642097D01*
X145210000Y-97528110D01*
X145210000Y-97411890D01*
X145187327Y-97297903D01*
X145142851Y-97190530D01*
X145078283Y-97093897D01*
X144996103Y-97011717D01*
X144899470Y-96947149D01*
X144792097Y-96902673D01*
X144678110Y-96880000D01*
X144561890Y-96880000D01*
X144447903Y-96902673D01*
X144340530Y-96947149D01*
X144243897Y-97011717D01*
X144161717Y-97093897D01*
X144097149Y-97190530D01*
X144052673Y-97297903D01*
X144047769Y-97322556D01*
X144040260Y-97345926D01*
X144037512Y-97355103D01*
X144021609Y-97412346D01*
X144020356Y-97417041D01*
X144007365Y-97467763D01*
X143996247Y-97509583D01*
X143986304Y-97541259D01*
X143976186Y-97566475D01*
X143963608Y-97590614D01*
X143944955Y-97618869D01*
X143916114Y-97654763D01*
X143871312Y-97702500D01*
X143338813Y-98235000D01*
X136323347Y-98235000D01*
X136251155Y-98232981D01*
X136198156Y-98227937D01*
X136157535Y-98220773D01*
X136124108Y-98211852D01*
X136091883Y-98200410D01*
X136055550Y-98184995D01*
X136011577Y-98164772D01*
X136011215Y-98164606D01*
X135960228Y-98141260D01*
X135954377Y-98138675D01*
X135896817Y-98114153D01*
X135887417Y-98110381D01*
X135839760Y-98092414D01*
X135792097Y-98072671D01*
X135678110Y-98049998D01*
X135561890Y-98049998D01*
X135447903Y-98072671D01*
X135340530Y-98117147D01*
X135243897Y-98181715D01*
X135161717Y-98263895D01*
X135097149Y-98360528D01*
X135052673Y-98467901D01*
X135030000Y-98581888D01*
X134467760Y-98581888D01*
X134560479Y-98468909D01*
X134652779Y-98296228D01*
X134709617Y-98108858D01*
X134724000Y-97962826D01*
X134724000Y-96357174D01*
X134709617Y-96211142D01*
X134652779Y-96023772D01*
X134560479Y-95851091D01*
X134436265Y-95699735D01*
X134284909Y-95575521D01*
X134112227Y-95483221D01*
X133924857Y-95426383D01*
X133730000Y-95407191D01*
X133535142Y-95426383D01*
X133347772Y-95483221D01*
X133175091Y-95575521D01*
X133023735Y-95699735D01*
X132924000Y-95821263D01*
X132924000Y-94357174D01*
X132909617Y-94211142D01*
X132852779Y-94023772D01*
X132760479Y-93851091D01*
X132636265Y-93699735D01*
X132484909Y-93575521D01*
X132312227Y-93483221D01*
X132124857Y-93426383D01*
X131930000Y-93407191D01*
X131735142Y-93426383D01*
X131547772Y-93483221D01*
X131375091Y-93575521D01*
X131223735Y-93699735D01*
X131099521Y-93851091D01*
X131007221Y-94023773D01*
X130950383Y-94211143D01*
X130936000Y-94357175D01*
X130435000Y-94357175D01*
X130435000Y-93551187D01*
X131241188Y-92745000D01*
X137038813Y-92745000D01*
X137761709Y-93467897D01*
X137624857Y-93426383D01*
X137430000Y-93407191D01*
X137235142Y-93426383D01*
X137047772Y-93483221D01*
X136875091Y-93575521D01*
X136723735Y-93699735D01*
X136599521Y-93851091D01*
X136507221Y-94023773D01*
X136450383Y-94211143D01*
X136436000Y-94357175D01*
X136436001Y-95962826D01*
X136450384Y-96108858D01*
X136507222Y-96296228D01*
X136599522Y-96468909D01*
X136723736Y-96620265D01*
X136875092Y-96744479D01*
X137047773Y-96836779D01*
X137065001Y-96842005D01*
X137065001Y-96900061D01*
X137063234Y-96918000D01*
X137069015Y-96976690D01*
X137070282Y-96989552D01*
X137091153Y-97058355D01*
X137125046Y-97121764D01*
X137170658Y-97177343D01*
X137184587Y-97188774D01*
X137641225Y-97645413D01*
X137652657Y-97659343D01*
X137708236Y-97704955D01*
X137771645Y-97738848D01*
X137840448Y-97759719D01*
X137894069Y-97765000D01*
X137894071Y-97765000D01*
X137912000Y-97766766D01*
X137929929Y-97765000D01*
X142692071Y-97765000D01*
X142710000Y-97766766D01*
X142727929Y-97765000D01*
X142727931Y-97765000D01*
X142781552Y-97759719D01*
X142850355Y-97738848D01*
X142913764Y-97704955D01*
X142969343Y-97659343D01*
X142980779Y-97645408D01*
X143971188Y-96655000D01*
X145278813Y-96655000D01*
X147549225Y-98925413D01*
X147560657Y-98939343D01*
X147585486Y-98959719D01*
X147616234Y-98984954D01*
X147674506Y-99016101D01*
X147679645Y-99018848D01*
X147748448Y-99039719D01*
X147802069Y-99045000D01*
X147802070Y-99045000D01*
X147819999Y-99046766D01*
X147837928Y-99045000D01*
X148485243Y-99045000D01*
X148571030Y-99048405D01*
X148631016Y-99056591D01*
X148675049Y-99067859D01*
X148695529Y-99075886D01*
X148699323Y-99088392D01*
X148742401Y-99168985D01*
X148800374Y-99239626D01*
X148871015Y-99297599D01*
X148951608Y-99340677D01*
X149039057Y-99367204D01*
X149130000Y-99376161D01*
X149630000Y-99376161D01*
X149720943Y-99367204D01*
X149808392Y-99340677D01*
X149888985Y-99297599D01*
X149959626Y-99239626D01*
X150017599Y-99168985D01*
X150060677Y-99088392D01*
X150087204Y-99000943D01*
X150096161Y-98910000D01*
X150096161Y-98460000D01*
X150087204Y-98369057D01*
X150060677Y-98281608D01*
X150017599Y-98201015D01*
X149959626Y-98130374D01*
X149888985Y-98072401D01*
X149808392Y-98029323D01*
X149720943Y-98002796D01*
X149630000Y-97993839D01*
X149130000Y-97993839D01*
X149039057Y-98002796D01*
X148951608Y-98029323D01*
X148871015Y-98072401D01*
X148800374Y-98130374D01*
X148742401Y-98201015D01*
X148699323Y-98281608D01*
X148698505Y-98284306D01*
X148678600Y-98291954D01*
X148633334Y-98303353D01*
X148572177Y-98311589D01*
X148485296Y-98315000D01*
X147971188Y-98315000D01*
X145700779Y-96044592D01*
X145689343Y-96030657D01*
X145633764Y-95985045D01*
X145570355Y-95951152D01*
X145501552Y-95930281D01*
X145447931Y-95925000D01*
X145447929Y-95925000D01*
X145430000Y-95923234D01*
X145412071Y-95925000D01*
X143837928Y-95925000D01*
X143819999Y-95923234D01*
X143802070Y-95925000D01*
X143802069Y-95925000D01*
X143748448Y-95930281D01*
X143679645Y-95951152D01*
X143616236Y-95985045D01*
X143560657Y-96030657D01*
X143549225Y-96044587D01*
X142558813Y-97035000D01*
X138063188Y-97035000D01*
X137846596Y-96818409D01*
X137984909Y-96744479D01*
X138136265Y-96620265D01*
X138260479Y-96468909D01*
X138352779Y-96296228D01*
X138409617Y-96108858D01*
X138424000Y-95962826D01*
X138424000Y-94357174D01*
X138409617Y-94211142D01*
X138368104Y-94074291D01*
X139349225Y-95055413D01*
X139360657Y-95069343D01*
X139416236Y-95114955D01*
X139479645Y-95148848D01*
X139548448Y-95169719D01*
X139602069Y-95175000D01*
X139602071Y-95175000D01*
X139620000Y-95176766D01*
X139637929Y-95175000D01*
X140862071Y-95175000D01*
X140880000Y-95176766D01*
X140897929Y-95175000D01*
X140897931Y-95175000D01*
X140951552Y-95169719D01*
X141020355Y-95148848D01*
X141083764Y-95114955D01*
X141139343Y-95069343D01*
X141150779Y-95055408D01*
X141397496Y-94808691D01*
X141445236Y-94763884D01*
X141481130Y-94735044D01*
X141509385Y-94716391D01*
X141533524Y-94703813D01*
X141558740Y-94693695D01*
X141590416Y-94683752D01*
X141632236Y-94672634D01*
X141682958Y-94659643D01*
X141687653Y-94658390D01*
X141744896Y-94642487D01*
X141754068Y-94639740D01*
X141777433Y-94632233D01*
X141802097Y-94627327D01*
X141909470Y-94582851D01*
X142006103Y-94518283D01*
X142088283Y-94436103D01*
X142152851Y-94339470D01*
X142197327Y-94232097D01*
X142220000Y-94118110D01*
X142220000Y-94001890D01*
X142197327Y-93887903D01*
X142152851Y-93780530D01*
X142088283Y-93683897D01*
X142006103Y-93601717D01*
X141909470Y-93537149D01*
X141802097Y-93492673D01*
X141688110Y-93470000D01*
X141571890Y-93470000D01*
X141457903Y-93492673D01*
X141350530Y-93537149D01*
X141253897Y-93601717D01*
X141171717Y-93683897D01*
X141107149Y-93780530D01*
X141062673Y-93887903D01*
X141057769Y-93912556D01*
X141050260Y-93935926D01*
X141047512Y-93945103D01*
X141031609Y-94002346D01*
X141030356Y-94007041D01*
X141017365Y-94057763D01*
X141006247Y-94099583D01*
X140996304Y-94131259D01*
X140986186Y-94156475D01*
X140973608Y-94180614D01*
X140954955Y-94208869D01*
X140926114Y-94244763D01*
X140881304Y-94292509D01*
X140728813Y-94445000D01*
X139771188Y-94445000D01*
X137460779Y-92134592D01*
X137449343Y-92120657D01*
X137393764Y-92075045D01*
X137330355Y-92041152D01*
X137261552Y-92020281D01*
X137207931Y-92015000D01*
X137207929Y-92015000D01*
X137190000Y-92013234D01*
X137172071Y-92015000D01*
X131107929Y-92015000D01*
X131090000Y-92013234D01*
X131072071Y-92015000D01*
X131072069Y-92015000D01*
X131018448Y-92020281D01*
X130949645Y-92041152D01*
X130886236Y-92075045D01*
X130830657Y-92120657D01*
X130819225Y-92134587D01*
X129824587Y-93129226D01*
X129810658Y-93140657D01*
X129777299Y-93181305D01*
X129765046Y-93196236D01*
X129731153Y-93259645D01*
X129710282Y-93328448D01*
X129703234Y-93400000D01*
X126229600Y-93400000D01*
X126203255Y-93387294D01*
X126043875Y-93343308D01*
X125875000Y-93405511D01*
X125785000Y-93405511D01*
X125616125Y-93343308D01*
X125456745Y-93387294D01*
X125265177Y-93479687D01*
X125095315Y-93607677D01*
X124953687Y-93766346D01*
X124920000Y-93823530D01*
X124920000Y-91430000D01*
X138560001Y-91430000D01*
X138560000Y-93025754D01*
G37*
G04 #@! TD.AperFunction*
D19*
X149586665Y-98687348D02*
X149177238Y-99072217D01*
X149106601Y-99034051D01*
X149039952Y-98992706D01*
X148981229Y-98953016D01*
X148927015Y-98915894D01*
X148926631Y-98915641D01*
X148873400Y-98881955D01*
X148872528Y-98881451D01*
X148816738Y-98852060D01*
X148815453Y-98851472D01*
X148753501Y-98827191D01*
X148752016Y-98826711D01*
X148680298Y-98808358D01*
X148678866Y-98808079D01*
X148593778Y-98796468D01*
X148592565Y-98796361D01*
X148502700Y-98792794D01*
X148502700Y-98567211D01*
X148593448Y-98563648D01*
X148594645Y-98563544D01*
X148680495Y-98551983D01*
X148681901Y-98551712D01*
X148754304Y-98533479D01*
X148755758Y-98533019D01*
X148818369Y-98508960D01*
X148819622Y-98508399D01*
X148876094Y-98479360D01*
X148876935Y-98478887D01*
X148930923Y-98445715D01*
X148931277Y-98445489D01*
X148986435Y-98409029D01*
X149046089Y-98370341D01*
X149114000Y-98330171D01*
X149186093Y-98293279D01*
X149586665Y-98687348D01*
G04 #@! TA.AperFunction,Conductor*
D18*
G36*
X149586665Y-98687348D02*
G01*
X149177238Y-99072217D01*
X149106601Y-99034051D01*
X149039952Y-98992706D01*
X148981229Y-98953016D01*
X148927015Y-98915894D01*
X148926631Y-98915641D01*
X148873400Y-98881955D01*
X148872528Y-98881451D01*
X148816738Y-98852060D01*
X148815453Y-98851472D01*
X148753501Y-98827191D01*
X148752016Y-98826711D01*
X148680298Y-98808358D01*
X148678866Y-98808079D01*
X148593778Y-98796468D01*
X148592565Y-98796361D01*
X148502700Y-98792794D01*
X148502700Y-98567211D01*
X148593448Y-98563648D01*
X148594645Y-98563544D01*
X148680495Y-98551983D01*
X148681901Y-98551712D01*
X148754304Y-98533479D01*
X148755758Y-98533019D01*
X148818369Y-98508960D01*
X148819622Y-98508399D01*
X148876094Y-98479360D01*
X148876935Y-98478887D01*
X148930923Y-98445715D01*
X148931277Y-98445489D01*
X148986435Y-98409029D01*
X149046089Y-98370341D01*
X149114000Y-98330171D01*
X149186093Y-98293279D01*
X149586665Y-98687348D01*
G37*
G04 #@! TD.AperFunction*
D19*
X138093012Y-95490772D02*
X138021634Y-95622537D01*
X137944962Y-95738774D01*
X137869102Y-95838871D01*
X137796174Y-95929628D01*
X137796005Y-95929843D01*
X137728277Y-96017949D01*
X137727716Y-96018739D01*
X137667464Y-96110896D01*
X137666695Y-96112247D01*
X137616078Y-96215306D01*
X137615386Y-96217019D01*
X137576559Y-96337831D01*
X137576132Y-96339575D01*
X137551254Y-96484989D01*
X137551088Y-96486502D01*
X137542915Y-96651300D01*
X137317085Y-96651300D01*
X137308911Y-96486502D01*
X137308745Y-96484989D01*
X137283867Y-96339575D01*
X137283440Y-96337831D01*
X137244613Y-96217019D01*
X137243921Y-96215306D01*
X137193304Y-96112247D01*
X137192535Y-96110896D01*
X137132283Y-96018739D01*
X137131722Y-96017949D01*
X137063994Y-95929843D01*
X137063825Y-95929628D01*
X136990897Y-95838871D01*
X136915037Y-95738774D01*
X136838365Y-95622537D01*
X136766988Y-95490772D01*
X137430000Y-94801322D01*
X138093012Y-95490772D01*
G04 #@! TA.AperFunction,Conductor*
D18*
G36*
X138093012Y-95490772D02*
G01*
X138021634Y-95622537D01*
X137944962Y-95738774D01*
X137869102Y-95838871D01*
X137796174Y-95929628D01*
X137796005Y-95929843D01*
X137728277Y-96017949D01*
X137727716Y-96018739D01*
X137667464Y-96110896D01*
X137666695Y-96112247D01*
X137616078Y-96215306D01*
X137615386Y-96217019D01*
X137576559Y-96337831D01*
X137576132Y-96339575D01*
X137551254Y-96484989D01*
X137551088Y-96486502D01*
X137542915Y-96651300D01*
X137317085Y-96651300D01*
X137308911Y-96486502D01*
X137308745Y-96484989D01*
X137283867Y-96339575D01*
X137283440Y-96337831D01*
X137244613Y-96217019D01*
X137243921Y-96215306D01*
X137193304Y-96112247D01*
X137192535Y-96110896D01*
X137132283Y-96018739D01*
X137131722Y-96017949D01*
X137063994Y-95929843D01*
X137063825Y-95929628D01*
X136990897Y-95838871D01*
X136915037Y-95738774D01*
X136838365Y-95622537D01*
X136766988Y-95490772D01*
X137430000Y-94801322D01*
X138093012Y-95490772D01*
G37*
G04 #@! TD.AperFunction*
D19*
X138246622Y-105928158D02*
X138185615Y-106042662D01*
X138115271Y-106156239D01*
X138045282Y-106263055D01*
X138045149Y-106263262D01*
X137981275Y-106364996D01*
X137980804Y-106365813D01*
X137928778Y-106464217D01*
X137928041Y-106465892D01*
X137893505Y-106562853D01*
X137892855Y-106565637D01*
X137881452Y-106663044D01*
X137881554Y-106666700D01*
X137898926Y-106766441D01*
X137900070Y-106769925D01*
X137951860Y-106873889D01*
X137953477Y-106876363D01*
X138037892Y-106977528D01*
X137878311Y-107137109D01*
X137751329Y-107009874D01*
X137636947Y-106894756D01*
X137636948Y-106894755D01*
X137539114Y-106795835D01*
X137452938Y-106708341D01*
X137373445Y-106627413D01*
X137295681Y-106548214D01*
X137295672Y-106548205D01*
X137214697Y-106465911D01*
X137214678Y-106465892D01*
X137125543Y-106375671D01*
X137125521Y-106375649D01*
X137023276Y-106272667D01*
X137023254Y-106272645D01*
X136909857Y-106158993D01*
X137495022Y-105155839D01*
X138246622Y-105928158D01*
G04 #@! TA.AperFunction,Conductor*
D18*
G36*
X138246622Y-105928158D02*
G01*
X138185615Y-106042662D01*
X138115271Y-106156239D01*
X138045282Y-106263055D01*
X138045149Y-106263262D01*
X137981275Y-106364996D01*
X137980804Y-106365813D01*
X137928778Y-106464217D01*
X137928041Y-106465892D01*
X137893505Y-106562853D01*
X137892855Y-106565637D01*
X137881452Y-106663044D01*
X137881554Y-106666700D01*
X137898926Y-106766441D01*
X137900070Y-106769925D01*
X137951860Y-106873889D01*
X137953477Y-106876363D01*
X138037892Y-106977528D01*
X137878311Y-107137109D01*
X137751329Y-107009874D01*
X137636947Y-106894756D01*
X137636948Y-106894755D01*
X137539114Y-106795835D01*
X137452938Y-106708341D01*
X137373445Y-106627413D01*
X137295681Y-106548214D01*
X137295672Y-106548205D01*
X137214697Y-106465911D01*
X137214678Y-106465892D01*
X137125543Y-106375671D01*
X137125521Y-106375649D01*
X137023276Y-106272667D01*
X137023254Y-106272645D01*
X136909857Y-106158993D01*
X137495022Y-105155839D01*
X138246622Y-105928158D01*
G37*
G04 #@! TD.AperFunction*
D19*
X149769494Y-100433348D02*
X149731960Y-100504711D01*
X149691202Y-100571984D01*
X149652026Y-100631149D01*
X149615210Y-100685865D01*
X149614971Y-100686235D01*
X149581539Y-100739843D01*
X149581050Y-100740699D01*
X149551833Y-100796828D01*
X149551258Y-100798097D01*
X149527087Y-100860376D01*
X149526618Y-100861846D01*
X149508323Y-100933904D01*
X149508047Y-100935323D01*
X149496461Y-101020790D01*
X149496356Y-101021995D01*
X149492792Y-101112300D01*
X149267208Y-101112300D01*
X149263643Y-101021995D01*
X149263538Y-101020790D01*
X149251952Y-100935323D01*
X149251676Y-100933904D01*
X149233381Y-100861846D01*
X149232912Y-100860376D01*
X149208741Y-100798097D01*
X149208166Y-100796828D01*
X149178949Y-100740699D01*
X149178460Y-100739843D01*
X149145028Y-100686235D01*
X149144789Y-100685865D01*
X149107973Y-100631149D01*
X149068797Y-100571984D01*
X149028039Y-100504711D01*
X148990506Y-100433348D01*
X149380000Y-100028322D01*
X149769494Y-100433348D01*
G04 #@! TA.AperFunction,Conductor*
D18*
G36*
X149769494Y-100433348D02*
G01*
X149731960Y-100504711D01*
X149691202Y-100571984D01*
X149652026Y-100631149D01*
X149615210Y-100685865D01*
X149614971Y-100686235D01*
X149581539Y-100739843D01*
X149581050Y-100740699D01*
X149551833Y-100796828D01*
X149551258Y-100798097D01*
X149527087Y-100860376D01*
X149526618Y-100861846D01*
X149508323Y-100933904D01*
X149508047Y-100935323D01*
X149496461Y-101020790D01*
X149496356Y-101021995D01*
X149492792Y-101112300D01*
X149267208Y-101112300D01*
X149263643Y-101021995D01*
X149263538Y-101020790D01*
X149251952Y-100935323D01*
X149251676Y-100933904D01*
X149233381Y-100861846D01*
X149232912Y-100860376D01*
X149208741Y-100798097D01*
X149208166Y-100796828D01*
X149178949Y-100740699D01*
X149178460Y-100739843D01*
X149145028Y-100686235D01*
X149144789Y-100685865D01*
X149107973Y-100631149D01*
X149068797Y-100571984D01*
X149028039Y-100504711D01*
X148990506Y-100433348D01*
X149380000Y-100028322D01*
X149769494Y-100433348D01*
G37*
G04 #@! TD.AperFunction*
D19*
X147636380Y-102112356D02*
X147636488Y-102113575D01*
X147648134Y-102198459D01*
X147648415Y-102199893D01*
X147666790Y-102271426D01*
X147667269Y-102272907D01*
X147691527Y-102334704D01*
X147692110Y-102335976D01*
X147721403Y-102391654D01*
X147721895Y-102392508D01*
X147755376Y-102445680D01*
X147755613Y-102446043D01*
X147792437Y-102500324D01*
X147831557Y-102559034D01*
X147872175Y-102625807D01*
X147909490Y-102696656D01*
X147520000Y-103101678D01*
X147130509Y-102696656D01*
X147167824Y-102625807D01*
X147208442Y-102559034D01*
X147247562Y-102500324D01*
X147284386Y-102446043D01*
X147284623Y-102445680D01*
X147318104Y-102392508D01*
X147318596Y-102391654D01*
X147347889Y-102335976D01*
X147348472Y-102334704D01*
X147372730Y-102272907D01*
X147373209Y-102271426D01*
X147391584Y-102199893D01*
X147391865Y-102198459D01*
X147403511Y-102113575D01*
X147403619Y-102112356D01*
X147407203Y-102022700D01*
X147632797Y-102022700D01*
X147636380Y-102112356D01*
G04 #@! TA.AperFunction,Conductor*
D18*
G36*
X147636380Y-102112356D02*
G01*
X147636488Y-102113575D01*
X147648134Y-102198459D01*
X147648415Y-102199893D01*
X147666790Y-102271426D01*
X147667269Y-102272907D01*
X147691527Y-102334704D01*
X147692110Y-102335976D01*
X147721403Y-102391654D01*
X147721895Y-102392508D01*
X147755376Y-102445680D01*
X147755613Y-102446043D01*
X147792437Y-102500324D01*
X147831557Y-102559034D01*
X147872175Y-102625807D01*
X147909490Y-102696656D01*
X147520000Y-103101678D01*
X147130509Y-102696656D01*
X147167824Y-102625807D01*
X147208442Y-102559034D01*
X147247562Y-102500324D01*
X147284386Y-102446043D01*
X147284623Y-102445680D01*
X147318104Y-102392508D01*
X147318596Y-102391654D01*
X147347889Y-102335976D01*
X147348472Y-102334704D01*
X147372730Y-102272907D01*
X147373209Y-102271426D01*
X147391584Y-102199893D01*
X147391865Y-102198459D01*
X147403511Y-102113575D01*
X147403619Y-102112356D01*
X147407203Y-102022700D01*
X147632797Y-102022700D01*
X147636380Y-102112356D01*
G37*
G04 #@! TD.AperFunction*
D19*
X132593012Y-95490772D02*
X132521634Y-95622537D01*
X132444962Y-95738774D01*
X132369102Y-95838871D01*
X132296174Y-95929628D01*
X132296005Y-95929843D01*
X132228277Y-96017949D01*
X132227716Y-96018739D01*
X132167464Y-96110896D01*
X132166695Y-96112247D01*
X132116078Y-96215306D01*
X132115386Y-96217019D01*
X132076559Y-96337831D01*
X132076132Y-96339575D01*
X132051254Y-96484989D01*
X132051088Y-96486502D01*
X132042915Y-96651300D01*
X131817085Y-96651300D01*
X131808911Y-96486502D01*
X131808745Y-96484989D01*
X131783867Y-96339575D01*
X131783440Y-96337831D01*
X131744613Y-96217019D01*
X131743921Y-96215306D01*
X131693304Y-96112247D01*
X131692535Y-96110896D01*
X131632283Y-96018739D01*
X131631722Y-96017949D01*
X131563994Y-95929843D01*
X131563825Y-95929628D01*
X131490897Y-95838871D01*
X131415037Y-95738774D01*
X131338365Y-95622537D01*
X131266988Y-95490772D01*
X131930000Y-94801322D01*
X132593012Y-95490772D01*
G04 #@! TA.AperFunction,Conductor*
D18*
G36*
X132593012Y-95490772D02*
G01*
X132521634Y-95622537D01*
X132444962Y-95738774D01*
X132369102Y-95838871D01*
X132296174Y-95929628D01*
X132296005Y-95929843D01*
X132228277Y-96017949D01*
X132227716Y-96018739D01*
X132167464Y-96110896D01*
X132166695Y-96112247D01*
X132116078Y-96215306D01*
X132115386Y-96217019D01*
X132076559Y-96337831D01*
X132076132Y-96339575D01*
X132051254Y-96484989D01*
X132051088Y-96486502D01*
X132042915Y-96651300D01*
X131817085Y-96651300D01*
X131808911Y-96486502D01*
X131808745Y-96484989D01*
X131783867Y-96339575D01*
X131783440Y-96337831D01*
X131744613Y-96217019D01*
X131743921Y-96215306D01*
X131693304Y-96112247D01*
X131692535Y-96110896D01*
X131632283Y-96018739D01*
X131631722Y-96017949D01*
X131563994Y-95929843D01*
X131563825Y-95929628D01*
X131490897Y-95838871D01*
X131415037Y-95738774D01*
X131338365Y-95622537D01*
X131266988Y-95490772D01*
X131930000Y-94801322D01*
X132593012Y-95490772D01*
G37*
G04 #@! TD.AperFunction*
D19*
X135798024Y-98346741D02*
X135855193Y-98371097D01*
X135906012Y-98394366D01*
X135953213Y-98416073D01*
X135953559Y-98416226D01*
X135999821Y-98435854D01*
X136000531Y-98436131D01*
X136048642Y-98453214D01*
X136049618Y-98453517D01*
X136102388Y-98467599D01*
X136103456Y-98467835D01*
X136163691Y-98478459D01*
X136164694Y-98478595D01*
X136235203Y-98485305D01*
X136236051Y-98485357D01*
X136307298Y-98487350D01*
X136307298Y-98712712D01*
X136243221Y-98714822D01*
X136242196Y-98714897D01*
X136177799Y-98722263D01*
X136176539Y-98722472D01*
X136121709Y-98734415D01*
X136120314Y-98734803D01*
X136072656Y-98751049D01*
X136071325Y-98751589D01*
X136028444Y-98771866D01*
X136027391Y-98772426D01*
X135986895Y-98796461D01*
X135986240Y-98796877D01*
X135945732Y-98824396D01*
X135945475Y-98824576D01*
X135902634Y-98855256D01*
X135855086Y-98888810D01*
X135807865Y-98920061D01*
X135464335Y-98657786D01*
X135739813Y-98324796D01*
X135798024Y-98346741D01*
G04 #@! TA.AperFunction,Conductor*
D18*
G36*
X135798024Y-98346741D02*
G01*
X135855193Y-98371097D01*
X135906012Y-98394366D01*
X135953213Y-98416073D01*
X135953559Y-98416226D01*
X135999821Y-98435854D01*
X136000531Y-98436131D01*
X136048642Y-98453214D01*
X136049618Y-98453517D01*
X136102388Y-98467599D01*
X136103456Y-98467835D01*
X136163691Y-98478459D01*
X136164694Y-98478595D01*
X136235203Y-98485305D01*
X136236051Y-98485357D01*
X136307298Y-98487350D01*
X136307298Y-98712712D01*
X136243221Y-98714822D01*
X136242196Y-98714897D01*
X136177799Y-98722263D01*
X136176539Y-98722472D01*
X136121709Y-98734415D01*
X136120314Y-98734803D01*
X136072656Y-98751049D01*
X136071325Y-98751589D01*
X136028444Y-98771866D01*
X136027391Y-98772426D01*
X135986895Y-98796461D01*
X135986240Y-98796877D01*
X135945732Y-98824396D01*
X135945475Y-98824576D01*
X135902634Y-98855256D01*
X135855086Y-98888810D01*
X135807865Y-98920061D01*
X135464335Y-98657786D01*
X135739813Y-98324796D01*
X135798024Y-98346741D01*
G37*
G04 #@! TD.AperFunction*
D19*
X144722340Y-97791299D02*
X144667027Y-97809071D01*
X144610113Y-97824883D01*
X144558433Y-97838119D01*
X144558321Y-97838148D01*
X144510364Y-97850897D01*
X144509824Y-97851054D01*
X144464190Y-97865378D01*
X144463264Y-97865708D01*
X144418403Y-97883709D01*
X144417263Y-97884233D01*
X144371629Y-97908012D01*
X144370501Y-97908676D01*
X144322547Y-97940333D01*
X144321589Y-97941032D01*
X144269767Y-97982671D01*
X144269031Y-97983311D01*
X144220765Y-98028611D01*
X144061389Y-97869235D01*
X144106688Y-97820968D01*
X144107328Y-97820232D01*
X144148967Y-97768410D01*
X144149666Y-97767452D01*
X144181323Y-97719498D01*
X144181987Y-97718370D01*
X144205766Y-97672736D01*
X144206290Y-97671596D01*
X144224291Y-97626735D01*
X144224621Y-97625809D01*
X144238945Y-97580175D01*
X144239102Y-97579635D01*
X144251851Y-97531678D01*
X144251880Y-97531566D01*
X144265116Y-97479886D01*
X144280928Y-97422972D01*
X144298701Y-97367660D01*
X144730787Y-97359213D01*
X144722340Y-97791299D01*
G04 #@! TA.AperFunction,Conductor*
D18*
G36*
X144722340Y-97791299D02*
G01*
X144667027Y-97809071D01*
X144610113Y-97824883D01*
X144558433Y-97838119D01*
X144558321Y-97838148D01*
X144510364Y-97850897D01*
X144509824Y-97851054D01*
X144464190Y-97865378D01*
X144463264Y-97865708D01*
X144418403Y-97883709D01*
X144417263Y-97884233D01*
X144371629Y-97908012D01*
X144370501Y-97908676D01*
X144322547Y-97940333D01*
X144321589Y-97941032D01*
X144269767Y-97982671D01*
X144269031Y-97983311D01*
X144220765Y-98028611D01*
X144061389Y-97869235D01*
X144106688Y-97820968D01*
X144107328Y-97820232D01*
X144148967Y-97768410D01*
X144149666Y-97767452D01*
X144181323Y-97719498D01*
X144181987Y-97718370D01*
X144205766Y-97672736D01*
X144206290Y-97671596D01*
X144224291Y-97626735D01*
X144224621Y-97625809D01*
X144238945Y-97580175D01*
X144239102Y-97579635D01*
X144251851Y-97531678D01*
X144251880Y-97531566D01*
X144265116Y-97479886D01*
X144280928Y-97422972D01*
X144298701Y-97367660D01*
X144730787Y-97359213D01*
X144722340Y-97791299D01*
G37*
G04 #@! TD.AperFunction*
D19*
X142258318Y-95980888D02*
X142203224Y-96038465D01*
X142202808Y-96038921D01*
X142151534Y-96098007D01*
X142151125Y-96098503D01*
X142109456Y-96151737D01*
X142109110Y-96152201D01*
X142074241Y-96201196D01*
X142074017Y-96201521D01*
X142043143Y-96247888D01*
X142043088Y-96247972D01*
X142013482Y-96293207D01*
X141982378Y-96338876D01*
X141947019Y-96386558D01*
X141904504Y-96438032D01*
X141857939Y-96488516D01*
X141462774Y-96313595D01*
X141653068Y-95925438D01*
X141700002Y-95930730D01*
X141750687Y-95936726D01*
X141750989Y-95936758D01*
X141797635Y-95941149D01*
X141798398Y-95941198D01*
X141842015Y-95942667D01*
X141843284Y-95942646D01*
X141884922Y-95939880D01*
X141886621Y-95939651D01*
X141927329Y-95931338D01*
X141929212Y-95930799D01*
X141970040Y-95915625D01*
X141971787Y-95914821D01*
X142013782Y-95891476D01*
X142015182Y-95890572D01*
X142059396Y-95857741D01*
X142060418Y-95856897D01*
X142098936Y-95821506D01*
X142258318Y-95980888D01*
G04 #@! TA.AperFunction,Conductor*
D18*
G36*
X142258318Y-95980888D02*
G01*
X142203224Y-96038465D01*
X142202808Y-96038921D01*
X142151534Y-96098007D01*
X142151125Y-96098503D01*
X142109456Y-96151737D01*
X142109110Y-96152201D01*
X142074241Y-96201196D01*
X142074017Y-96201521D01*
X142043143Y-96247888D01*
X142043088Y-96247972D01*
X142013482Y-96293207D01*
X141982378Y-96338876D01*
X141947019Y-96386558D01*
X141904504Y-96438032D01*
X141857939Y-96488516D01*
X141462774Y-96313595D01*
X141653068Y-95925438D01*
X141700002Y-95930730D01*
X141750687Y-95936726D01*
X141750989Y-95936758D01*
X141797635Y-95941149D01*
X141798398Y-95941198D01*
X141842015Y-95942667D01*
X141843284Y-95942646D01*
X141884922Y-95939880D01*
X141886621Y-95939651D01*
X141927329Y-95931338D01*
X141929212Y-95930799D01*
X141970040Y-95915625D01*
X141971787Y-95914821D01*
X142013782Y-95891476D01*
X142015182Y-95890572D01*
X142059396Y-95857741D01*
X142060418Y-95856897D01*
X142098936Y-95821506D01*
X142258318Y-95980888D01*
G37*
G04 #@! TD.AperFunction*
D19*
X145087265Y-93268154D02*
X144983257Y-93369106D01*
X144885699Y-93457813D01*
X144797802Y-93532671D01*
X144715684Y-93598933D01*
X144635653Y-93661698D01*
X144635626Y-93661719D01*
X144553865Y-93726192D01*
X144553690Y-93726333D01*
X144466534Y-93797603D01*
X144466269Y-93797825D01*
X144369950Y-93881061D01*
X144369662Y-93881318D01*
X144260413Y-93981689D01*
X144260144Y-93981943D01*
X144143175Y-94095875D01*
X143983601Y-93936301D01*
X144053484Y-93855227D01*
X144054844Y-93853317D01*
X144104703Y-93767535D01*
X144105862Y-93764887D01*
X144131360Y-93681997D01*
X144131902Y-93678964D01*
X144136399Y-93597631D01*
X144136255Y-93594899D01*
X144123114Y-93513789D01*
X144122625Y-93511802D01*
X144095205Y-93429581D01*
X144094726Y-93428361D01*
X144056390Y-93343694D01*
X144056094Y-93343083D01*
X144010203Y-93254637D01*
X144010127Y-93254492D01*
X143960101Y-93161041D01*
X143913345Y-93069207D01*
X144570451Y-92385897D01*
X145087265Y-93268154D01*
G04 #@! TA.AperFunction,Conductor*
D18*
G36*
X145087265Y-93268154D02*
G01*
X144983257Y-93369106D01*
X144885699Y-93457813D01*
X144797802Y-93532671D01*
X144715684Y-93598933D01*
X144635653Y-93661698D01*
X144635626Y-93661719D01*
X144553865Y-93726192D01*
X144553690Y-93726333D01*
X144466534Y-93797603D01*
X144466269Y-93797825D01*
X144369950Y-93881061D01*
X144369662Y-93881318D01*
X144260413Y-93981689D01*
X144260144Y-93981943D01*
X144143175Y-94095875D01*
X143983601Y-93936301D01*
X144053484Y-93855227D01*
X144054844Y-93853317D01*
X144104703Y-93767535D01*
X144105862Y-93764887D01*
X144131360Y-93681997D01*
X144131902Y-93678964D01*
X144136399Y-93597631D01*
X144136255Y-93594899D01*
X144123114Y-93513789D01*
X144122625Y-93511802D01*
X144095205Y-93429581D01*
X144094726Y-93428361D01*
X144056390Y-93343694D01*
X144056094Y-93343083D01*
X144010203Y-93254637D01*
X144010127Y-93254492D01*
X143960101Y-93161041D01*
X143913345Y-93069207D01*
X144570451Y-92385897D01*
X145087265Y-93268154D01*
G37*
G04 #@! TD.AperFunction*
D19*
X147982337Y-93069027D02*
X147911665Y-93199380D01*
X147835608Y-93314415D01*
X147760320Y-93413399D01*
X147687848Y-93503175D01*
X147687681Y-93503386D01*
X147620346Y-93590516D01*
X147619784Y-93591304D01*
X147559852Y-93682448D01*
X147559077Y-93683800D01*
X147508705Y-93785751D01*
X147508007Y-93787470D01*
X147469355Y-93907021D01*
X147468923Y-93908774D01*
X147444149Y-94052717D01*
X147443981Y-94054238D01*
X147435846Y-94217300D01*
X147210010Y-94217300D01*
X147201874Y-94054238D01*
X147201706Y-94052717D01*
X147176932Y-93908774D01*
X147176500Y-93907021D01*
X147137848Y-93787470D01*
X147137150Y-93785751D01*
X147086778Y-93683800D01*
X147086003Y-93682448D01*
X147026071Y-93591304D01*
X147025509Y-93590516D01*
X146958174Y-93503386D01*
X146958007Y-93503175D01*
X146885535Y-93413399D01*
X146810247Y-93314415D01*
X146734190Y-93199380D01*
X146663519Y-93069027D01*
X147322928Y-92383322D01*
X147982337Y-93069027D01*
G04 #@! TA.AperFunction,Conductor*
D18*
G36*
X147982337Y-93069027D02*
G01*
X147911665Y-93199380D01*
X147835608Y-93314415D01*
X147760320Y-93413399D01*
X147687848Y-93503175D01*
X147687681Y-93503386D01*
X147620346Y-93590516D01*
X147619784Y-93591304D01*
X147559852Y-93682448D01*
X147559077Y-93683800D01*
X147508705Y-93785751D01*
X147508007Y-93787470D01*
X147469355Y-93907021D01*
X147468923Y-93908774D01*
X147444149Y-94052717D01*
X147443981Y-94054238D01*
X147435846Y-94217300D01*
X147210010Y-94217300D01*
X147201874Y-94054238D01*
X147201706Y-94052717D01*
X147176932Y-93908774D01*
X147176500Y-93907021D01*
X147137848Y-93787470D01*
X147137150Y-93785751D01*
X147086778Y-93683800D01*
X147086003Y-93682448D01*
X147026071Y-93591304D01*
X147025509Y-93590516D01*
X146958174Y-93503386D01*
X146958007Y-93503175D01*
X146885535Y-93413399D01*
X146810247Y-93314415D01*
X146734190Y-93199380D01*
X146663519Y-93069027D01*
X147322928Y-92383322D01*
X147982337Y-93069027D01*
G37*
G04 #@! TD.AperFunction*
D19*
X147442240Y-96322717D02*
X147442766Y-96325150D01*
X147443313Y-96326559D01*
X147462918Y-96369309D01*
X147464173Y-96371459D01*
X147465812Y-96373314D01*
X147496320Y-96401695D01*
X147498300Y-96403203D01*
X147499936Y-96404056D01*
X147539574Y-96421169D01*
X147542232Y-96421985D01*
X147589227Y-96430936D01*
X147590666Y-96431125D01*
X147643244Y-96435016D01*
X147643746Y-96435044D01*
X147700060Y-96436976D01*
X147757866Y-96440025D01*
X147815304Y-96447201D01*
X147862352Y-96459284D01*
X147870717Y-96887214D01*
X147421830Y-96769963D01*
X147416708Y-96714353D01*
X147416222Y-96711853D01*
X147400105Y-96658378D01*
X147399206Y-96656171D01*
X147375454Y-96610624D01*
X147374555Y-96609153D01*
X147345713Y-96568456D01*
X147345238Y-96567827D01*
X147313894Y-96528954D01*
X147282937Y-96489269D01*
X147254904Y-96445898D01*
X147232003Y-96395679D01*
X147216442Y-96335208D01*
X147211656Y-96273742D01*
X147436605Y-96273742D01*
X147442240Y-96322717D01*
G04 #@! TA.AperFunction,Conductor*
D18*
G36*
X147442240Y-96322717D02*
G01*
X147442766Y-96325150D01*
X147443313Y-96326559D01*
X147462918Y-96369309D01*
X147464173Y-96371459D01*
X147465812Y-96373314D01*
X147496320Y-96401695D01*
X147498300Y-96403203D01*
X147499936Y-96404056D01*
X147539574Y-96421169D01*
X147542232Y-96421985D01*
X147589227Y-96430936D01*
X147590666Y-96431125D01*
X147643244Y-96435016D01*
X147643746Y-96435044D01*
X147700060Y-96436976D01*
X147757866Y-96440025D01*
X147815304Y-96447201D01*
X147862352Y-96459284D01*
X147870717Y-96887214D01*
X147421830Y-96769963D01*
X147416708Y-96714353D01*
X147416222Y-96711853D01*
X147400105Y-96658378D01*
X147399206Y-96656171D01*
X147375454Y-96610624D01*
X147374555Y-96609153D01*
X147345713Y-96568456D01*
X147345238Y-96567827D01*
X147313894Y-96528954D01*
X147282937Y-96489269D01*
X147254904Y-96445898D01*
X147232003Y-96395679D01*
X147216442Y-96335208D01*
X147211656Y-96273742D01*
X147436605Y-96273742D01*
X147442240Y-96322717D01*
G37*
G04 #@! TD.AperFunction*
D19*
X150187701Y-96162079D02*
X150187768Y-96163045D01*
X150194937Y-96229421D01*
X150195119Y-96230591D01*
X150206636Y-96287153D01*
X150206966Y-96288430D01*
X150222478Y-96337739D01*
X150222923Y-96338938D01*
X150242078Y-96383560D01*
X150242518Y-96384481D01*
X150264963Y-96426977D01*
X150265261Y-96427509D01*
X150290644Y-96470444D01*
X150290728Y-96470586D01*
X150318674Y-96516485D01*
X150348669Y-96567637D01*
X150376351Y-96619092D01*
X150083194Y-96936644D01*
X149777347Y-96631306D01*
X149803384Y-96577878D01*
X149831806Y-96524913D01*
X149858395Y-96477673D01*
X149858446Y-96477582D01*
X149882816Y-96433443D01*
X149883066Y-96432967D01*
X149904747Y-96389437D01*
X149905136Y-96388577D01*
X149923742Y-96343017D01*
X149924144Y-96341881D01*
X149939289Y-96291654D01*
X149939592Y-96290435D01*
X149950888Y-96232903D01*
X149951057Y-96231778D01*
X149958119Y-96164303D01*
X149958182Y-96163368D01*
X149960247Y-96095626D01*
X150185619Y-96095626D01*
X150187701Y-96162079D01*
G04 #@! TA.AperFunction,Conductor*
D18*
G36*
X150187701Y-96162079D02*
G01*
X150187768Y-96163045D01*
X150194937Y-96229421D01*
X150195119Y-96230591D01*
X150206636Y-96287153D01*
X150206966Y-96288430D01*
X150222478Y-96337739D01*
X150222923Y-96338938D01*
X150242078Y-96383560D01*
X150242518Y-96384481D01*
X150264963Y-96426977D01*
X150265261Y-96427509D01*
X150290644Y-96470444D01*
X150290728Y-96470586D01*
X150318674Y-96516485D01*
X150348669Y-96567637D01*
X150376351Y-96619092D01*
X150083194Y-96936644D01*
X149777347Y-96631306D01*
X149803384Y-96577878D01*
X149831806Y-96524913D01*
X149858395Y-96477673D01*
X149858446Y-96477582D01*
X149882816Y-96433443D01*
X149883066Y-96432967D01*
X149904747Y-96389437D01*
X149905136Y-96388577D01*
X149923742Y-96343017D01*
X149924144Y-96341881D01*
X149939289Y-96291654D01*
X149939592Y-96290435D01*
X149950888Y-96232903D01*
X149951057Y-96231778D01*
X149958119Y-96164303D01*
X149958182Y-96163368D01*
X149960247Y-96095626D01*
X150185619Y-96095626D01*
X150187701Y-96162079D01*
G37*
G04 #@! TD.AperFunction*
D19*
X150732337Y-93069027D02*
X150661665Y-93199380D01*
X150585608Y-93314415D01*
X150510320Y-93413399D01*
X150437848Y-93503175D01*
X150437681Y-93503386D01*
X150370346Y-93590516D01*
X150369784Y-93591304D01*
X150309852Y-93682448D01*
X150309077Y-93683800D01*
X150258705Y-93785751D01*
X150258007Y-93787470D01*
X150219355Y-93907021D01*
X150218923Y-93908774D01*
X150194149Y-94052717D01*
X150193981Y-94054238D01*
X150185846Y-94217300D01*
X149960010Y-94217300D01*
X149951874Y-94054238D01*
X149951706Y-94052717D01*
X149926932Y-93908774D01*
X149926500Y-93907021D01*
X149887848Y-93787470D01*
X149887150Y-93785751D01*
X149836778Y-93683800D01*
X149836003Y-93682448D01*
X149776071Y-93591304D01*
X149775509Y-93590516D01*
X149708174Y-93503386D01*
X149708007Y-93503175D01*
X149635535Y-93413399D01*
X149560247Y-93314415D01*
X149484190Y-93199380D01*
X149413519Y-93069027D01*
X150072928Y-92383322D01*
X150732337Y-93069027D01*
G04 #@! TA.AperFunction,Conductor*
D18*
G36*
X150732337Y-93069027D02*
G01*
X150661665Y-93199380D01*
X150585608Y-93314415D01*
X150510320Y-93413399D01*
X150437848Y-93503175D01*
X150437681Y-93503386D01*
X150370346Y-93590516D01*
X150369784Y-93591304D01*
X150309852Y-93682448D01*
X150309077Y-93683800D01*
X150258705Y-93785751D01*
X150258007Y-93787470D01*
X150219355Y-93907021D01*
X150218923Y-93908774D01*
X150194149Y-94052717D01*
X150193981Y-94054238D01*
X150185846Y-94217300D01*
X149960010Y-94217300D01*
X149951874Y-94054238D01*
X149951706Y-94052717D01*
X149926932Y-93908774D01*
X149926500Y-93907021D01*
X149887848Y-93787470D01*
X149887150Y-93785751D01*
X149836778Y-93683800D01*
X149836003Y-93682448D01*
X149776071Y-93591304D01*
X149775509Y-93590516D01*
X149708174Y-93503386D01*
X149708007Y-93503175D01*
X149635535Y-93413399D01*
X149560247Y-93314415D01*
X149484190Y-93199380D01*
X149413519Y-93069027D01*
X150072928Y-92383322D01*
X150732337Y-93069027D01*
G37*
G04 #@! TD.AperFunction*
D19*
X147822438Y-104761419D02*
X147769278Y-104817956D01*
X147768718Y-104818593D01*
X147721280Y-104876319D01*
X147720774Y-104876978D01*
X147682240Y-104930675D01*
X147681869Y-104931221D01*
X147648913Y-104982589D01*
X147648737Y-104982872D01*
X147618071Y-105033548D01*
X147586405Y-105085178D01*
X147550540Y-105139292D01*
X147507062Y-105197786D01*
X147452591Y-105262454D01*
X147392479Y-105325853D01*
X147233122Y-105166496D01*
X147271620Y-105120255D01*
X147273237Y-105117773D01*
X147299213Y-105065411D01*
X147300345Y-105061962D01*
X147309190Y-105011556D01*
X147309303Y-105007959D01*
X147303828Y-104958672D01*
X147303206Y-104955915D01*
X147286222Y-104906913D01*
X147285497Y-104905227D01*
X147259812Y-104855677D01*
X147259331Y-104854830D01*
X147227757Y-104803898D01*
X147227601Y-104803654D01*
X147193036Y-104750641D01*
X147158379Y-104694869D01*
X147130574Y-104643277D01*
X147517523Y-104240897D01*
X147822438Y-104761419D01*
G04 #@! TA.AperFunction,Conductor*
D18*
G36*
X147822438Y-104761419D02*
G01*
X147769278Y-104817956D01*
X147768718Y-104818593D01*
X147721280Y-104876319D01*
X147720774Y-104876978D01*
X147682240Y-104930675D01*
X147681869Y-104931221D01*
X147648913Y-104982589D01*
X147648737Y-104982872D01*
X147618071Y-105033548D01*
X147586405Y-105085178D01*
X147550540Y-105139292D01*
X147507062Y-105197786D01*
X147452591Y-105262454D01*
X147392479Y-105325853D01*
X147233122Y-105166496D01*
X147271620Y-105120255D01*
X147273237Y-105117773D01*
X147299213Y-105065411D01*
X147300345Y-105061962D01*
X147309190Y-105011556D01*
X147309303Y-105007959D01*
X147303828Y-104958672D01*
X147303206Y-104955915D01*
X147286222Y-104906913D01*
X147285497Y-104905227D01*
X147259812Y-104855677D01*
X147259331Y-104854830D01*
X147227757Y-104803898D01*
X147227601Y-104803654D01*
X147193036Y-104750641D01*
X147158379Y-104694869D01*
X147130574Y-104643277D01*
X147517523Y-104240897D01*
X147822438Y-104761419D01*
G37*
G04 #@! TD.AperFunction*
D19*
X144888149Y-104892569D02*
X145019605Y-104980546D01*
X145132340Y-105067959D01*
X145234241Y-105152323D01*
X145234431Y-105152477D01*
X145333159Y-105231065D01*
X145333935Y-105231637D01*
X145437198Y-105301735D01*
X145438558Y-105302539D01*
X145554219Y-105361561D01*
X145555972Y-105362296D01*
X145691895Y-105407656D01*
X145693696Y-105408114D01*
X145857744Y-105437226D01*
X145859311Y-105437404D01*
X146047300Y-105447064D01*
X146047300Y-105672936D01*
X145859311Y-105682595D01*
X145857744Y-105682773D01*
X145693696Y-105711885D01*
X145691895Y-105712343D01*
X145555972Y-105757703D01*
X145554219Y-105758438D01*
X145438558Y-105817460D01*
X145437198Y-105818264D01*
X145333935Y-105888362D01*
X145333159Y-105888934D01*
X145234431Y-105967522D01*
X145234241Y-105967676D01*
X145132340Y-106052040D01*
X145019605Y-106139453D01*
X144888149Y-106227430D01*
X144737603Y-106309397D01*
X143958322Y-105560000D01*
X144737603Y-104810602D01*
X144888149Y-104892569D01*
G04 #@! TA.AperFunction,Conductor*
D18*
G36*
X144888149Y-104892569D02*
G01*
X145019605Y-104980546D01*
X145132340Y-105067959D01*
X145234241Y-105152323D01*
X145234431Y-105152477D01*
X145333159Y-105231065D01*
X145333935Y-105231637D01*
X145437198Y-105301735D01*
X145438558Y-105302539D01*
X145554219Y-105361561D01*
X145555972Y-105362296D01*
X145691895Y-105407656D01*
X145693696Y-105408114D01*
X145857744Y-105437226D01*
X145859311Y-105437404D01*
X146047300Y-105447064D01*
X146047300Y-105672936D01*
X145859311Y-105682595D01*
X145857744Y-105682773D01*
X145693696Y-105711885D01*
X145691895Y-105712343D01*
X145555972Y-105757703D01*
X145554219Y-105758438D01*
X145438558Y-105817460D01*
X145437198Y-105818264D01*
X145333935Y-105888362D01*
X145333159Y-105888934D01*
X145234431Y-105967522D01*
X145234241Y-105967676D01*
X145132340Y-106052040D01*
X145019605Y-106139453D01*
X144888149Y-106227430D01*
X144737603Y-106309397D01*
X143958322Y-105560000D01*
X144737603Y-104810602D01*
X144888149Y-104892569D01*
G37*
G04 #@! TD.AperFunction*
D19*
X141732340Y-94381299D02*
X141677027Y-94399071D01*
X141620113Y-94414883D01*
X141568433Y-94428119D01*
X141568321Y-94428148D01*
X141520364Y-94440897D01*
X141519824Y-94441054D01*
X141474190Y-94455378D01*
X141473264Y-94455708D01*
X141428403Y-94473709D01*
X141427263Y-94474233D01*
X141381629Y-94498012D01*
X141380501Y-94498676D01*
X141332547Y-94530333D01*
X141331589Y-94531032D01*
X141279767Y-94572671D01*
X141279031Y-94573311D01*
X141230765Y-94618611D01*
X141071389Y-94459235D01*
X141116688Y-94410968D01*
X141117328Y-94410232D01*
X141158967Y-94358410D01*
X141159666Y-94357452D01*
X141191323Y-94309498D01*
X141191987Y-94308370D01*
X141215766Y-94262736D01*
X141216290Y-94261596D01*
X141234291Y-94216735D01*
X141234621Y-94215809D01*
X141248945Y-94170175D01*
X141249102Y-94169635D01*
X141261851Y-94121678D01*
X141261880Y-94121566D01*
X141275116Y-94069886D01*
X141290928Y-94012972D01*
X141308701Y-93957660D01*
X141740787Y-93949213D01*
X141732340Y-94381299D01*
G04 #@! TA.AperFunction,Conductor*
D18*
G36*
X141732340Y-94381299D02*
G01*
X141677027Y-94399071D01*
X141620113Y-94414883D01*
X141568433Y-94428119D01*
X141568321Y-94428148D01*
X141520364Y-94440897D01*
X141519824Y-94441054D01*
X141474190Y-94455378D01*
X141473264Y-94455708D01*
X141428403Y-94473709D01*
X141427263Y-94474233D01*
X141381629Y-94498012D01*
X141380501Y-94498676D01*
X141332547Y-94530333D01*
X141331589Y-94531032D01*
X141279767Y-94572671D01*
X141279031Y-94573311D01*
X141230765Y-94618611D01*
X141071389Y-94459235D01*
X141116688Y-94410968D01*
X141117328Y-94410232D01*
X141158967Y-94358410D01*
X141159666Y-94357452D01*
X141191323Y-94309498D01*
X141191987Y-94308370D01*
X141215766Y-94262736D01*
X141216290Y-94261596D01*
X141234291Y-94216735D01*
X141234621Y-94215809D01*
X141248945Y-94170175D01*
X141249102Y-94169635D01*
X141261851Y-94121678D01*
X141261880Y-94121566D01*
X141275116Y-94069886D01*
X141290928Y-94012972D01*
X141308701Y-93957660D01*
X141740787Y-93949213D01*
X141732340Y-94381299D01*
G37*
G04 #@! TD.AperFunction*
D19*
X132624031Y-107081688D02*
X132624767Y-107082328D01*
X132676589Y-107123967D01*
X132677547Y-107124666D01*
X132725501Y-107156323D01*
X132726629Y-107156987D01*
X132772263Y-107180766D01*
X132773403Y-107181290D01*
X132818264Y-107199291D01*
X132819190Y-107199621D01*
X132864824Y-107213945D01*
X132865364Y-107214102D01*
X132913321Y-107226851D01*
X132913433Y-107226880D01*
X132965113Y-107240116D01*
X133022027Y-107255928D01*
X133077340Y-107273701D01*
X133085787Y-107705787D01*
X132653701Y-107697340D01*
X132635928Y-107642027D01*
X132620116Y-107585113D01*
X132606880Y-107533433D01*
X132606851Y-107533321D01*
X132594102Y-107485364D01*
X132593945Y-107484824D01*
X132579621Y-107439190D01*
X132579291Y-107438264D01*
X132561290Y-107393403D01*
X132560766Y-107392263D01*
X132536987Y-107346629D01*
X132536323Y-107345501D01*
X132504666Y-107297547D01*
X132503967Y-107296589D01*
X132462328Y-107244767D01*
X132461688Y-107244031D01*
X132416389Y-107195765D01*
X132575765Y-107036389D01*
X132624031Y-107081688D01*
G04 #@! TA.AperFunction,Conductor*
D18*
G36*
X132624031Y-107081688D02*
G01*
X132624767Y-107082328D01*
X132676589Y-107123967D01*
X132677547Y-107124666D01*
X132725501Y-107156323D01*
X132726629Y-107156987D01*
X132772263Y-107180766D01*
X132773403Y-107181290D01*
X132818264Y-107199291D01*
X132819190Y-107199621D01*
X132864824Y-107213945D01*
X132865364Y-107214102D01*
X132913321Y-107226851D01*
X132913433Y-107226880D01*
X132965113Y-107240116D01*
X133022027Y-107255928D01*
X133077340Y-107273701D01*
X133085787Y-107705787D01*
X132653701Y-107697340D01*
X132635928Y-107642027D01*
X132620116Y-107585113D01*
X132606880Y-107533433D01*
X132606851Y-107533321D01*
X132594102Y-107485364D01*
X132593945Y-107484824D01*
X132579621Y-107439190D01*
X132579291Y-107438264D01*
X132561290Y-107393403D01*
X132560766Y-107392263D01*
X132536987Y-107346629D01*
X132536323Y-107345501D01*
X132504666Y-107297547D01*
X132503967Y-107296589D01*
X132462328Y-107244767D01*
X132461688Y-107244031D01*
X132416389Y-107195765D01*
X132575765Y-107036389D01*
X132624031Y-107081688D01*
G37*
G04 #@! TD.AperFunction*
M02*
