G04 #@! TF.GenerationSoftware,KiCad,Pcbnew,(5.1.8-0-10_14)*
G04 #@! TF.CreationDate,2021-09-26T16:35:41-04:00*
G04 #@! TF.ProjectId,8DIN2VGA_Top,3844494e-3256-4474-915f-546f702e6b69,1*
G04 #@! TF.SameCoordinates,Original*
G04 #@! TF.FileFunction,Legend,Top*
G04 #@! TF.FilePolarity,Positive*
%FSLAX46Y46*%
G04 Gerber Fmt 4.6, Leading zero omitted, Abs format (unit mm)*
G04 Created by KiCad (PCBNEW (5.1.8-0-10_14)) date 2021-09-26 16:35:41*
%MOMM*%
%LPD*%
G01*
G04 APERTURE LIST*
%ADD10C,0.187500*%
%ADD11C,0.150000*%
%ADD12C,0.701600*%
%ADD13C,1.601600*%
G04 APERTURE END LIST*
D10*
X143507857Y-101209285D02*
X143507857Y-100459285D01*
X143793571Y-100459285D01*
X143865000Y-100495000D01*
X143900714Y-100530714D01*
X143936428Y-100602142D01*
X143936428Y-100709285D01*
X143900714Y-100780714D01*
X143865000Y-100816428D01*
X143793571Y-100852142D01*
X143507857Y-100852142D01*
X144615000Y-101209285D02*
X144257857Y-101209285D01*
X144257857Y-100459285D01*
X144865000Y-100459285D02*
X144865000Y-101066428D01*
X144900714Y-101137857D01*
X144936428Y-101173571D01*
X145007857Y-101209285D01*
X145150714Y-101209285D01*
X145222142Y-101173571D01*
X145257857Y-101137857D01*
X145293571Y-101066428D01*
X145293571Y-100459285D01*
X146043571Y-100495000D02*
X145972142Y-100459285D01*
X145865000Y-100459285D01*
X145757857Y-100495000D01*
X145686428Y-100566428D01*
X145650714Y-100637857D01*
X145615000Y-100780714D01*
X145615000Y-100887857D01*
X145650714Y-101030714D01*
X145686428Y-101102142D01*
X145757857Y-101173571D01*
X145865000Y-101209285D01*
X145936428Y-101209285D01*
X146043571Y-101173571D01*
X146079285Y-101137857D01*
X146079285Y-100887857D01*
X145936428Y-100887857D01*
X146686428Y-101209285D02*
X146686428Y-100637857D01*
X146543571Y-100780714D02*
X146686428Y-100637857D01*
X146829285Y-100780714D01*
X144579285Y-105222142D02*
X144579285Y-104793571D01*
X145329285Y-105007857D02*
X144579285Y-105007857D01*
X144579285Y-104400714D02*
X144579285Y-104257857D01*
X144615000Y-104186428D01*
X144686428Y-104115000D01*
X144829285Y-104079285D01*
X145079285Y-104079285D01*
X145222142Y-104115000D01*
X145293571Y-104186428D01*
X145329285Y-104257857D01*
X145329285Y-104400714D01*
X145293571Y-104472142D01*
X145222142Y-104543571D01*
X145079285Y-104579285D01*
X144829285Y-104579285D01*
X144686428Y-104543571D01*
X144615000Y-104472142D01*
X144579285Y-104400714D01*
X145329285Y-103757857D02*
X144579285Y-103757857D01*
X144579285Y-103472142D01*
X144615000Y-103400714D01*
X144650714Y-103365000D01*
X144722142Y-103329285D01*
X144829285Y-103329285D01*
X144900714Y-103365000D01*
X144936428Y-103400714D01*
X144972142Y-103472142D01*
X144972142Y-103757857D01*
D11*
X144261904Y-99012380D02*
X144261904Y-98012380D01*
X144642857Y-98012380D01*
X144738095Y-98060000D01*
X144785714Y-98107619D01*
X144833333Y-98202857D01*
X144833333Y-98345714D01*
X144785714Y-98440952D01*
X144738095Y-98488571D01*
X144642857Y-98536190D01*
X144261904Y-98536190D01*
X145785714Y-99012380D02*
X145214285Y-99012380D01*
X145500000Y-99012380D02*
X145500000Y-98012380D01*
X145404761Y-98155238D01*
X145309523Y-98250476D01*
X145214285Y-98298095D01*
X144261904Y-112353178D02*
X144261904Y-111353178D01*
X144642857Y-111353178D01*
X144738095Y-111400798D01*
X144785714Y-111448417D01*
X144833333Y-111543655D01*
X144833333Y-111686512D01*
X144785714Y-111781750D01*
X144738095Y-111829369D01*
X144642857Y-111876988D01*
X144261904Y-111876988D01*
X145214285Y-111448417D02*
X145261904Y-111400798D01*
X145357142Y-111353178D01*
X145595238Y-111353178D01*
X145690476Y-111400798D01*
X145738095Y-111448417D01*
X145785714Y-111543655D01*
X145785714Y-111638893D01*
X145738095Y-111781750D01*
X145166666Y-112353178D01*
X145785714Y-112353178D01*
%LPC*%
D12*
X142430000Y-99140000D03*
G36*
G01*
X146224200Y-95812900D02*
X146224200Y-91987100D01*
G75*
G02*
X146612100Y-91599200I387900J0D01*
G01*
X147387900Y-91599200D01*
G75*
G02*
X147775800Y-91987100I0J-387900D01*
G01*
X147775800Y-95812900D01*
G75*
G02*
X147387900Y-96200800I-387900J0D01*
G01*
X146612100Y-96200800D01*
G75*
G02*
X146224200Y-95812900I0J387900D01*
G01*
G37*
G36*
G01*
X142224200Y-95812900D02*
X142224200Y-91987100D01*
G75*
G02*
X142612100Y-91599200I387900J0D01*
G01*
X143387900Y-91599200D01*
G75*
G02*
X143775800Y-91987100I0J-387900D01*
G01*
X143775800Y-95812900D01*
G75*
G02*
X143387900Y-96200800I-387900J0D01*
G01*
X142612100Y-96200800D01*
G75*
G02*
X142224200Y-95812900I0J387900D01*
G01*
G37*
G36*
G01*
X144224200Y-95812900D02*
X144224200Y-91987100D01*
G75*
G02*
X144612100Y-91599200I387900J0D01*
G01*
X145387900Y-91599200D01*
G75*
G02*
X145775800Y-91987100I0J-387900D01*
G01*
X145775800Y-95812900D01*
G75*
G02*
X145387900Y-96200800I-387900J0D01*
G01*
X144612100Y-96200800D01*
G75*
G02*
X144224200Y-95812900I0J387900D01*
G01*
G37*
G36*
G01*
X144199200Y-111651198D02*
X144199200Y-110350398D01*
G75*
G02*
X144599600Y-109949998I400400J0D01*
G01*
X145400400Y-109949998D01*
G75*
G02*
X145800800Y-110350398I0J-400400D01*
G01*
X145800800Y-111651198D01*
G75*
G02*
X145400400Y-112051598I-400400J0D01*
G01*
X144599600Y-112051598D01*
G75*
G02*
X144199200Y-111651198I0J400400D01*
G01*
G37*
G36*
G01*
X142275200Y-111651198D02*
X142275200Y-110350398D01*
G75*
G02*
X142675600Y-109949998I400400J0D01*
G01*
X143476400Y-109949998D01*
G75*
G02*
X143876800Y-110350398I0J-400400D01*
G01*
X143876800Y-111651198D01*
G75*
G02*
X143476400Y-112051598I-400400J0D01*
G01*
X142675600Y-112051598D01*
G75*
G02*
X142275200Y-111651198I0J400400D01*
G01*
G37*
G36*
G01*
X146123200Y-111651198D02*
X146123200Y-110350398D01*
G75*
G02*
X146523600Y-109949998I400400J0D01*
G01*
X147324400Y-109949998D01*
G75*
G02*
X147724800Y-110350398I0J-400400D01*
G01*
X147724800Y-111651198D01*
G75*
G02*
X147324400Y-112051598I-400400J0D01*
G01*
X146523600Y-112051598D01*
G75*
G02*
X146123200Y-111651198I0J400400D01*
G01*
G37*
D13*
X145000000Y-111400798D03*
X146924000Y-111400798D03*
X143076000Y-111400798D03*
G36*
G01*
X141179600Y-105849998D02*
X142480400Y-105849998D01*
G75*
G02*
X142880800Y-106250398I0J-400400D01*
G01*
X142880800Y-107051198D01*
G75*
G02*
X142480400Y-107451598I-400400J0D01*
G01*
X141179600Y-107451598D01*
G75*
G02*
X140779200Y-107051198I0J400400D01*
G01*
X140779200Y-106250398D01*
G75*
G02*
X141179600Y-105849998I400400J0D01*
G01*
G37*
X141430000Y-106650798D03*
M02*
