G04 #@! TF.GenerationSoftware,KiCad,Pcbnew,(5.1.8-0-10_14)*
G04 #@! TF.CreationDate,2021-09-26T16:35:41-04:00*
G04 #@! TF.ProjectId,8DIN2VGA_Top,3844494e-3256-4474-915f-546f702e6b69,1*
G04 #@! TF.SameCoordinates,Original*
G04 #@! TF.FileFunction,Soldermask,Bot*
G04 #@! TF.FilePolarity,Negative*
%FSLAX46Y46*%
G04 Gerber Fmt 4.6, Leading zero omitted, Abs format (unit mm)*
G04 Created by KiCad (PCBNEW (5.1.8-0-10_14)) date 2021-09-26 16:35:41*
%MOMM*%
%LPD*%
G01*
G04 APERTURE LIST*
%ADD10C,0.701600*%
%ADD11C,1.601600*%
G04 APERTURE END LIST*
D10*
X142430000Y-99140000D03*
G36*
G01*
X144199200Y-111651198D02*
X144199200Y-110350398D01*
G75*
G02*
X144599600Y-109949998I400400J0D01*
G01*
X145400400Y-109949998D01*
G75*
G02*
X145800800Y-110350398I0J-400400D01*
G01*
X145800800Y-111651198D01*
G75*
G02*
X145400400Y-112051598I-400400J0D01*
G01*
X144599600Y-112051598D01*
G75*
G02*
X144199200Y-111651198I0J400400D01*
G01*
G37*
G36*
G01*
X142275200Y-111651198D02*
X142275200Y-110350398D01*
G75*
G02*
X142675600Y-109949998I400400J0D01*
G01*
X143476400Y-109949998D01*
G75*
G02*
X143876800Y-110350398I0J-400400D01*
G01*
X143876800Y-111651198D01*
G75*
G02*
X143476400Y-112051598I-400400J0D01*
G01*
X142675600Y-112051598D01*
G75*
G02*
X142275200Y-111651198I0J400400D01*
G01*
G37*
G36*
G01*
X146123200Y-111651198D02*
X146123200Y-110350398D01*
G75*
G02*
X146523600Y-109949998I400400J0D01*
G01*
X147324400Y-109949998D01*
G75*
G02*
X147724800Y-110350398I0J-400400D01*
G01*
X147724800Y-111651198D01*
G75*
G02*
X147324400Y-112051598I-400400J0D01*
G01*
X146523600Y-112051598D01*
G75*
G02*
X146123200Y-111651198I0J400400D01*
G01*
G37*
D11*
X145000000Y-111400798D03*
X146924000Y-111400798D03*
X143076000Y-111400798D03*
G36*
G01*
X141179600Y-105849998D02*
X142480400Y-105849998D01*
G75*
G02*
X142880800Y-106250398I0J-400400D01*
G01*
X142880800Y-107051198D01*
G75*
G02*
X142480400Y-107451598I-400400J0D01*
G01*
X141179600Y-107451598D01*
G75*
G02*
X140779200Y-107051198I0J400400D01*
G01*
X140779200Y-106250398D01*
G75*
G02*
X141179600Y-105849998I400400J0D01*
G01*
G37*
X141430000Y-106650798D03*
M02*
