G04 #@! TF.GenerationSoftware,KiCad,Pcbnew,(5.1.8-0-10_14)*
G04 #@! TF.CreationDate,2021-09-26T16:35:41-04:00*
G04 #@! TF.ProjectId,8DIN2VGA_Top,3844494e-3256-4474-915f-546f702e6b69,1*
G04 #@! TF.SameCoordinates,Original*
G04 #@! TF.FileFunction,Copper,L2,Bot*
G04 #@! TF.FilePolarity,Positive*
%FSLAX46Y46*%
G04 Gerber Fmt 4.6, Leading zero omitted, Abs format (unit mm)*
G04 Created by KiCad (PCBNEW (5.1.8-0-10_14)) date 2021-09-26 16:35:41*
%MOMM*%
%LPD*%
G01*
G04 APERTURE LIST*
G04 #@! TA.AperFunction,ComponentPad*
%ADD10C,0.600000*%
G04 #@! TD*
G04 #@! TA.AperFunction,ComponentPad*
%ADD11C,1.500000*%
G04 #@! TD*
G04 #@! TA.AperFunction,ViaPad*
%ADD12C,0.600000*%
G04 #@! TD*
G04 #@! TA.AperFunction,Conductor*
%ADD13C,0.200000*%
G04 #@! TD*
G04 #@! TA.AperFunction,Conductor*
%ADD14C,0.152400*%
G04 #@! TD*
G04 APERTURE END LIST*
D10*
X142430000Y-99140000D03*
G04 #@! TA.AperFunction,ComponentPad*
G36*
G01*
X144250000Y-111625798D02*
X144250000Y-110375798D01*
G75*
G02*
X144625000Y-110000798I375000J0D01*
G01*
X145375000Y-110000798D01*
G75*
G02*
X145750000Y-110375798I0J-375000D01*
G01*
X145750000Y-111625798D01*
G75*
G02*
X145375000Y-112000798I-375000J0D01*
G01*
X144625000Y-112000798D01*
G75*
G02*
X144250000Y-111625798I0J375000D01*
G01*
G37*
G04 #@! TD.AperFunction*
G04 #@! TA.AperFunction,ComponentPad*
G36*
G01*
X142326000Y-111625798D02*
X142326000Y-110375798D01*
G75*
G02*
X142701000Y-110000798I375000J0D01*
G01*
X143451000Y-110000798D01*
G75*
G02*
X143826000Y-110375798I0J-375000D01*
G01*
X143826000Y-111625798D01*
G75*
G02*
X143451000Y-112000798I-375000J0D01*
G01*
X142701000Y-112000798D01*
G75*
G02*
X142326000Y-111625798I0J375000D01*
G01*
G37*
G04 #@! TD.AperFunction*
G04 #@! TA.AperFunction,ComponentPad*
G36*
G01*
X146174000Y-111625798D02*
X146174000Y-110375798D01*
G75*
G02*
X146549000Y-110000798I375000J0D01*
G01*
X147299000Y-110000798D01*
G75*
G02*
X147674000Y-110375798I0J-375000D01*
G01*
X147674000Y-111625798D01*
G75*
G02*
X147299000Y-112000798I-375000J0D01*
G01*
X146549000Y-112000798D01*
G75*
G02*
X146174000Y-111625798I0J375000D01*
G01*
G37*
G04 #@! TD.AperFunction*
D11*
X145000000Y-111400798D03*
X146924000Y-111400798D03*
X143076000Y-111400798D03*
G04 #@! TA.AperFunction,ComponentPad*
G36*
G01*
X141205000Y-105900798D02*
X142455000Y-105900798D01*
G75*
G02*
X142830000Y-106275798I0J-375000D01*
G01*
X142830000Y-107025798D01*
G75*
G02*
X142455000Y-107400798I-375000J0D01*
G01*
X141205000Y-107400798D01*
G75*
G02*
X140830000Y-107025798I0J375000D01*
G01*
X140830000Y-106275798D01*
G75*
G02*
X141205000Y-105900798I375000J0D01*
G01*
G37*
G04 #@! TD.AperFunction*
X141430000Y-106650798D03*
D12*
X147610000Y-99130000D03*
X144020000Y-97560000D03*
X146010000Y-97550000D03*
X144030000Y-108740000D03*
X145970000Y-108740000D03*
X147280000Y-106220000D03*
D13*
X148250000Y-111110000D02*
X148025693Y-111110000D01*
X148025693Y-110375798D01*
X148011730Y-110234027D01*
X147970377Y-110097705D01*
X147903223Y-109972069D01*
X147812850Y-109861948D01*
X147702729Y-109771575D01*
X147577093Y-109704421D01*
X147440771Y-109663068D01*
X147299000Y-109649105D01*
X146549000Y-109649105D01*
X146407229Y-109663068D01*
X146270907Y-109704421D01*
X146145271Y-109771575D01*
X146035150Y-109861948D01*
X145962000Y-109951082D01*
X145888850Y-109861948D01*
X145778729Y-109771575D01*
X145653093Y-109704421D01*
X145516771Y-109663068D01*
X145375000Y-109649105D01*
X144625000Y-109649105D01*
X144483229Y-109663068D01*
X144346907Y-109704421D01*
X144221271Y-109771575D01*
X144111150Y-109861948D01*
X144038000Y-109951082D01*
X143964850Y-109861948D01*
X143854729Y-109771575D01*
X143729093Y-109704421D01*
X143592771Y-109663068D01*
X143451000Y-109649105D01*
X142701000Y-109649105D01*
X142559229Y-109663068D01*
X142422907Y-109704421D01*
X142297271Y-109771575D01*
X142187150Y-109861948D01*
X142096777Y-109972069D01*
X142029623Y-110097705D01*
X141988270Y-110234027D01*
X141974307Y-110375798D01*
X141974307Y-111110000D01*
X141730000Y-111110000D01*
X141730000Y-91790000D01*
X148250001Y-91790000D01*
X148250000Y-111110000D01*
G04 #@! TA.AperFunction,Conductor*
D14*
G36*
X148250000Y-111110000D02*
G01*
X148025693Y-111110000D01*
X148025693Y-110375798D01*
X148011730Y-110234027D01*
X147970377Y-110097705D01*
X147903223Y-109972069D01*
X147812850Y-109861948D01*
X147702729Y-109771575D01*
X147577093Y-109704421D01*
X147440771Y-109663068D01*
X147299000Y-109649105D01*
X146549000Y-109649105D01*
X146407229Y-109663068D01*
X146270907Y-109704421D01*
X146145271Y-109771575D01*
X146035150Y-109861948D01*
X145962000Y-109951082D01*
X145888850Y-109861948D01*
X145778729Y-109771575D01*
X145653093Y-109704421D01*
X145516771Y-109663068D01*
X145375000Y-109649105D01*
X144625000Y-109649105D01*
X144483229Y-109663068D01*
X144346907Y-109704421D01*
X144221271Y-109771575D01*
X144111150Y-109861948D01*
X144038000Y-109951082D01*
X143964850Y-109861948D01*
X143854729Y-109771575D01*
X143729093Y-109704421D01*
X143592771Y-109663068D01*
X143451000Y-109649105D01*
X142701000Y-109649105D01*
X142559229Y-109663068D01*
X142422907Y-109704421D01*
X142297271Y-109771575D01*
X142187150Y-109861948D01*
X142096777Y-109972069D01*
X142029623Y-110097705D01*
X141988270Y-110234027D01*
X141974307Y-110375798D01*
X141974307Y-111110000D01*
X141730000Y-111110000D01*
X141730000Y-91790000D01*
X148250001Y-91790000D01*
X148250000Y-111110000D01*
G37*
G04 #@! TD.AperFunction*
M02*
