G04 #@! TF.GenerationSoftware,KiCad,Pcbnew,(5.1.10-1-10_14)*
G04 #@! TF.CreationDate,2021-10-23T02:31:54-04:00*
G04 #@! TF.ProjectId,8DIN2VGA,3844494e-3256-4474-912e-6b696361645f,1*
G04 #@! TF.SameCoordinates,Original*
G04 #@! TF.FileFunction,Legend,Top*
G04 #@! TF.FilePolarity,Positive*
%FSLAX46Y46*%
G04 Gerber Fmt 4.6, Leading zero omitted, Abs format (unit mm)*
G04 Created by KiCad (PCBNEW (5.1.10-1-10_14)) date 2021-10-23 02:31:54*
%MOMM*%
%LPD*%
G01*
G04 APERTURE LIST*
%ADD10C,0.127000*%
%ADD11C,0.098425*%
%ADD12C,0.100000*%
%ADD13C,0.125000*%
%ADD14C,0.010000*%
%ADD15C,4.167600*%
%ADD16C,1.801600*%
%ADD17O,1.609600X3.117600*%
G04 APERTURE END LIST*
D10*
X145462142Y-104872714D02*
X145897571Y-104872714D01*
X145679857Y-105634714D02*
X145679857Y-104872714D01*
X146296714Y-104872714D02*
X146441857Y-104872714D01*
X146514428Y-104909000D01*
X146587000Y-104981571D01*
X146623285Y-105126714D01*
X146623285Y-105380714D01*
X146587000Y-105525857D01*
X146514428Y-105598428D01*
X146441857Y-105634714D01*
X146296714Y-105634714D01*
X146224142Y-105598428D01*
X146151571Y-105525857D01*
X146115285Y-105380714D01*
X146115285Y-105126714D01*
X146151571Y-104981571D01*
X146224142Y-104909000D01*
X146296714Y-104872714D01*
X146949857Y-105634714D02*
X146949857Y-104872714D01*
X147240142Y-104872714D01*
X147312714Y-104909000D01*
X147349000Y-104945285D01*
X147385285Y-105017857D01*
X147385285Y-105126714D01*
X147349000Y-105199285D01*
X147312714Y-105235571D01*
X147240142Y-105271857D01*
X146949857Y-105271857D01*
D11*
X139258177Y-99358102D02*
X139033205Y-99358102D01*
X139145691Y-99358102D02*
X139145691Y-98964401D01*
X139108196Y-99020644D01*
X139070700Y-99058140D01*
X139033205Y-99076887D01*
X139501897Y-98964401D02*
X139539392Y-98964401D01*
X139576887Y-98983149D01*
X139595635Y-99001897D01*
X139614383Y-99039392D01*
X139633130Y-99114383D01*
X139633130Y-99208121D01*
X139614383Y-99283112D01*
X139595635Y-99320607D01*
X139576887Y-99339355D01*
X139539392Y-99358102D01*
X139501897Y-99358102D01*
X139464401Y-99339355D01*
X139445654Y-99320607D01*
X139426906Y-99283112D01*
X139408158Y-99208121D01*
X139408158Y-99114383D01*
X139426906Y-99039392D01*
X139445654Y-99001897D01*
X139464401Y-98983149D01*
X139501897Y-98964401D01*
X139970588Y-99095635D02*
X139970588Y-99358102D01*
X139801859Y-99095635D02*
X139801859Y-99301859D01*
X139820607Y-99339355D01*
X139858102Y-99358102D01*
X139914345Y-99358102D01*
X139951841Y-99339355D01*
X139970588Y-99320607D01*
X140289299Y-99151878D02*
X140158065Y-99151878D01*
X140158065Y-99358102D02*
X140158065Y-98964401D01*
X140345542Y-98964401D01*
X135858177Y-100798102D02*
X135633205Y-100798102D01*
X135745691Y-100798102D02*
X135745691Y-100404401D01*
X135708196Y-100460644D01*
X135670700Y-100498140D01*
X135633205Y-100516887D01*
X136101897Y-100404401D02*
X136139392Y-100404401D01*
X136176887Y-100423149D01*
X136195635Y-100441897D01*
X136214383Y-100479392D01*
X136233130Y-100554383D01*
X136233130Y-100648121D01*
X136214383Y-100723112D01*
X136195635Y-100760607D01*
X136176887Y-100779355D01*
X136139392Y-100798102D01*
X136101897Y-100798102D01*
X136064401Y-100779355D01*
X136045654Y-100760607D01*
X136026906Y-100723112D01*
X136008158Y-100648121D01*
X136008158Y-100554383D01*
X136026906Y-100479392D01*
X136045654Y-100441897D01*
X136064401Y-100423149D01*
X136101897Y-100404401D01*
X136570588Y-100535635D02*
X136570588Y-100798102D01*
X136401859Y-100535635D02*
X136401859Y-100741859D01*
X136420607Y-100779355D01*
X136458102Y-100798102D01*
X136514345Y-100798102D01*
X136551841Y-100779355D01*
X136570588Y-100760607D01*
X136889299Y-100591878D02*
X136758065Y-100591878D01*
X136758065Y-100798102D02*
X136758065Y-100404401D01*
X136945542Y-100404401D01*
X134314383Y-100720607D02*
X134295635Y-100739355D01*
X134239392Y-100758102D01*
X134201897Y-100758102D01*
X134145654Y-100739355D01*
X134108158Y-100701859D01*
X134089411Y-100664364D01*
X134070663Y-100589373D01*
X134070663Y-100533130D01*
X134089411Y-100458140D01*
X134108158Y-100420644D01*
X134145654Y-100383149D01*
X134201897Y-100364401D01*
X134239392Y-100364401D01*
X134295635Y-100383149D01*
X134314383Y-100401897D01*
X134689336Y-100758102D02*
X134464364Y-100758102D01*
X134576850Y-100758102D02*
X134576850Y-100364401D01*
X134539355Y-100420644D01*
X134501859Y-100458140D01*
X134464364Y-100476887D01*
X140834383Y-98340607D02*
X140815635Y-98359355D01*
X140759392Y-98378102D01*
X140721897Y-98378102D01*
X140665654Y-98359355D01*
X140628158Y-98321859D01*
X140609411Y-98284364D01*
X140590663Y-98209373D01*
X140590663Y-98153130D01*
X140609411Y-98078140D01*
X140628158Y-98040644D01*
X140665654Y-98003149D01*
X140721897Y-97984401D01*
X140759392Y-97984401D01*
X140815635Y-98003149D01*
X140834383Y-98021897D01*
X140984364Y-98021897D02*
X141003112Y-98003149D01*
X141040607Y-97984401D01*
X141134345Y-97984401D01*
X141171841Y-98003149D01*
X141190588Y-98021897D01*
X141209336Y-98059392D01*
X141209336Y-98096887D01*
X141190588Y-98153130D01*
X140965616Y-98378102D01*
X141209336Y-98378102D01*
%LPC*%
D12*
G36*
X150610000Y-106950000D02*
G01*
X149630000Y-106950000D01*
X149030000Y-106350000D01*
X149030000Y-96640000D01*
X150610000Y-96640000D01*
X150610000Y-106950000D01*
G37*
X150610000Y-106950000D02*
X149630000Y-106950000D01*
X149030000Y-106350000D01*
X149030000Y-96640000D01*
X150610000Y-96640000D01*
X150610000Y-106950000D01*
D13*
X155365714Y-100092142D02*
X155722857Y-99842142D01*
X155365714Y-99663571D02*
X156115714Y-99663571D01*
X156115714Y-99949285D01*
X156080000Y-100020714D01*
X156044285Y-100056428D01*
X155972857Y-100092142D01*
X155865714Y-100092142D01*
X155794285Y-100056428D01*
X155758571Y-100020714D01*
X155722857Y-99949285D01*
X155722857Y-99663571D01*
X156080000Y-100806428D02*
X156115714Y-100735000D01*
X156115714Y-100627857D01*
X156080000Y-100520714D01*
X156008571Y-100449285D01*
X155937142Y-100413571D01*
X155794285Y-100377857D01*
X155687142Y-100377857D01*
X155544285Y-100413571D01*
X155472857Y-100449285D01*
X155401428Y-100520714D01*
X155365714Y-100627857D01*
X155365714Y-100699285D01*
X155401428Y-100806428D01*
X155437142Y-100842142D01*
X155687142Y-100842142D01*
X155687142Y-100699285D01*
X155758571Y-101413571D02*
X155722857Y-101520714D01*
X155687142Y-101556428D01*
X155615714Y-101592142D01*
X155508571Y-101592142D01*
X155437142Y-101556428D01*
X155401428Y-101520714D01*
X155365714Y-101449285D01*
X155365714Y-101163571D01*
X156115714Y-101163571D01*
X156115714Y-101413571D01*
X156080000Y-101485000D01*
X156044285Y-101520714D01*
X155972857Y-101556428D01*
X155901428Y-101556428D01*
X155830000Y-101520714D01*
X155794285Y-101485000D01*
X155758571Y-101413571D01*
X155758571Y-101163571D01*
X155401428Y-101877857D02*
X155365714Y-101949285D01*
X155365714Y-102092142D01*
X155401428Y-102163571D01*
X155472857Y-102199285D01*
X155508571Y-102199285D01*
X155580000Y-102163571D01*
X155615714Y-102092142D01*
X155615714Y-101985000D01*
X155651428Y-101913571D01*
X155722857Y-101877857D01*
X155758571Y-101877857D01*
X155830000Y-101913571D01*
X155865714Y-101985000D01*
X155865714Y-102092142D01*
X155830000Y-102163571D01*
X155794285Y-103199285D02*
X155830000Y-103127857D01*
X155865714Y-103092142D01*
X155937142Y-103056428D01*
X155972857Y-103056428D01*
X156044285Y-103092142D01*
X156080000Y-103127857D01*
X156115714Y-103199285D01*
X156115714Y-103342142D01*
X156080000Y-103413571D01*
X156044285Y-103449285D01*
X155972857Y-103485000D01*
X155937142Y-103485000D01*
X155865714Y-103449285D01*
X155830000Y-103413571D01*
X155794285Y-103342142D01*
X155794285Y-103199285D01*
X155758571Y-103127857D01*
X155722857Y-103092142D01*
X155651428Y-103056428D01*
X155508571Y-103056428D01*
X155437142Y-103092142D01*
X155401428Y-103127857D01*
X155365714Y-103199285D01*
X155365714Y-103342142D01*
X155401428Y-103413571D01*
X155437142Y-103449285D01*
X155508571Y-103485000D01*
X155651428Y-103485000D01*
X155722857Y-103449285D01*
X155758571Y-103413571D01*
X155794285Y-103342142D01*
X155365714Y-104199285D02*
X155365714Y-103770714D01*
X155365714Y-103985000D02*
X156115714Y-103985000D01*
X156008571Y-103913571D01*
X155937142Y-103842142D01*
X155901428Y-103770714D01*
X155365714Y-104520714D02*
X156115714Y-104520714D01*
X155365714Y-104877857D02*
X156115714Y-104877857D01*
X155365714Y-105306428D01*
X156115714Y-105306428D01*
X156044285Y-105627857D02*
X156080000Y-105663571D01*
X156115714Y-105735000D01*
X156115714Y-105913571D01*
X156080000Y-105985000D01*
X156044285Y-106020714D01*
X155972857Y-106056428D01*
X155901428Y-106056428D01*
X155794285Y-106020714D01*
X155365714Y-105592142D01*
X155365714Y-106056428D01*
X156115714Y-106270714D02*
X155365714Y-106520714D01*
X156115714Y-106770714D01*
X156080000Y-107413571D02*
X156115714Y-107342142D01*
X156115714Y-107235000D01*
X156080000Y-107127857D01*
X156008571Y-107056428D01*
X155937142Y-107020714D01*
X155794285Y-106985000D01*
X155687142Y-106985000D01*
X155544285Y-107020714D01*
X155472857Y-107056428D01*
X155401428Y-107127857D01*
X155365714Y-107235000D01*
X155365714Y-107306428D01*
X155401428Y-107413571D01*
X155437142Y-107449285D01*
X155687142Y-107449285D01*
X155687142Y-107306428D01*
X155580000Y-107735000D02*
X155580000Y-108092142D01*
X155365714Y-107663571D02*
X156115714Y-107913571D01*
X155365714Y-108163571D01*
X154865714Y-99663571D02*
X154330000Y-99663571D01*
X154222857Y-99627857D01*
X154151428Y-99556428D01*
X154115714Y-99449285D01*
X154115714Y-99377857D01*
X154151428Y-100306428D02*
X154115714Y-100235000D01*
X154115714Y-100092142D01*
X154151428Y-100020714D01*
X154222857Y-99985000D01*
X154508571Y-99985000D01*
X154580000Y-100020714D01*
X154615714Y-100092142D01*
X154615714Y-100235000D01*
X154580000Y-100306428D01*
X154508571Y-100342142D01*
X154437142Y-100342142D01*
X154365714Y-99985000D01*
X154615714Y-100556428D02*
X154615714Y-100842142D01*
X154115714Y-100663571D02*
X154758571Y-100663571D01*
X154830000Y-100699285D01*
X154865714Y-100770714D01*
X154865714Y-100842142D01*
X154615714Y-100985000D02*
X154615714Y-101270714D01*
X154115714Y-101092142D02*
X154758571Y-101092142D01*
X154830000Y-101127857D01*
X154865714Y-101199285D01*
X154865714Y-101270714D01*
X154187142Y-102520714D02*
X154151428Y-102485000D01*
X154115714Y-102377857D01*
X154115714Y-102306428D01*
X154151428Y-102199285D01*
X154222857Y-102127857D01*
X154294285Y-102092142D01*
X154437142Y-102056428D01*
X154544285Y-102056428D01*
X154687142Y-102092142D01*
X154758571Y-102127857D01*
X154830000Y-102199285D01*
X154865714Y-102306428D01*
X154865714Y-102377857D01*
X154830000Y-102485000D01*
X154794285Y-102520714D01*
X154115714Y-102842142D02*
X154865714Y-102842142D01*
X154115714Y-103163571D02*
X154508571Y-103163571D01*
X154580000Y-103127857D01*
X154615714Y-103056428D01*
X154615714Y-102949285D01*
X154580000Y-102877857D01*
X154544285Y-102842142D01*
X154151428Y-103806428D02*
X154115714Y-103735000D01*
X154115714Y-103592142D01*
X154151428Y-103520714D01*
X154222857Y-103485000D01*
X154508571Y-103485000D01*
X154580000Y-103520714D01*
X154615714Y-103592142D01*
X154615714Y-103735000D01*
X154580000Y-103806428D01*
X154508571Y-103842142D01*
X154437142Y-103842142D01*
X154365714Y-103485000D01*
X154615714Y-104163571D02*
X154115714Y-104163571D01*
X154544285Y-104163571D02*
X154580000Y-104199285D01*
X154615714Y-104270714D01*
X154615714Y-104377857D01*
X154580000Y-104449285D01*
X154508571Y-104485000D01*
X154115714Y-104485000D01*
X154151428Y-104877857D02*
X154115714Y-104877857D01*
X154044285Y-104842142D01*
X154008571Y-104806428D01*
X154794285Y-105735000D02*
X154830000Y-105770714D01*
X154865714Y-105842142D01*
X154865714Y-106020714D01*
X154830000Y-106092142D01*
X154794285Y-106127857D01*
X154722857Y-106163571D01*
X154651428Y-106163571D01*
X154544285Y-106127857D01*
X154115714Y-105699285D01*
X154115714Y-106163571D01*
X154865714Y-106627857D02*
X154865714Y-106699285D01*
X154830000Y-106770714D01*
X154794285Y-106806428D01*
X154722857Y-106842142D01*
X154580000Y-106877857D01*
X154401428Y-106877857D01*
X154258571Y-106842142D01*
X154187142Y-106806428D01*
X154151428Y-106770714D01*
X154115714Y-106699285D01*
X154115714Y-106627857D01*
X154151428Y-106556428D01*
X154187142Y-106520714D01*
X154258571Y-106485000D01*
X154401428Y-106449285D01*
X154580000Y-106449285D01*
X154722857Y-106485000D01*
X154794285Y-106520714D01*
X154830000Y-106556428D01*
X154865714Y-106627857D01*
X154794285Y-107163571D02*
X154830000Y-107199285D01*
X154865714Y-107270714D01*
X154865714Y-107449285D01*
X154830000Y-107520714D01*
X154794285Y-107556428D01*
X154722857Y-107592142D01*
X154651428Y-107592142D01*
X154544285Y-107556428D01*
X154115714Y-107127857D01*
X154115714Y-107592142D01*
X154115714Y-108306428D02*
X154115714Y-107877857D01*
X154115714Y-108092142D02*
X154865714Y-108092142D01*
X154758571Y-108020714D01*
X154687142Y-107949285D01*
X154651428Y-107877857D01*
D14*
G36*
X149049777Y-99350451D02*
G01*
X149046991Y-99397211D01*
X149044825Y-99421469D01*
X149042971Y-99438352D01*
X149040799Y-99455547D01*
X149038385Y-99472626D01*
X149035805Y-99489165D01*
X149033136Y-99504738D01*
X149030453Y-99518918D01*
X149027833Y-99531279D01*
X149025353Y-99541397D01*
X149023088Y-99548845D01*
X149021273Y-99552952D01*
X149014110Y-99561856D01*
X149004021Y-99570063D01*
X148990932Y-99577598D01*
X148974770Y-99584486D01*
X148955465Y-99590753D01*
X148932941Y-99596424D01*
X148907128Y-99601525D01*
X148877951Y-99606081D01*
X148864523Y-99607858D01*
X148841448Y-99610548D01*
X148815486Y-99613187D01*
X148787255Y-99615732D01*
X148757370Y-99618135D01*
X148726448Y-99620351D01*
X148695107Y-99622333D01*
X148663963Y-99624035D01*
X148633632Y-99625412D01*
X148624796Y-99625754D01*
X148602529Y-99626446D01*
X148581115Y-99626811D01*
X148560096Y-99626829D01*
X148539017Y-99626479D01*
X148517423Y-99625740D01*
X148494857Y-99624589D01*
X148470864Y-99623006D01*
X148444988Y-99620969D01*
X148416772Y-99618457D01*
X148385761Y-99615450D01*
X148370220Y-99613872D01*
X148360319Y-99612920D01*
X148351661Y-99612210D01*
X148344833Y-99611781D01*
X148340421Y-99611672D01*
X148339020Y-99611844D01*
X148338376Y-99613713D01*
X148336962Y-99618628D01*
X148334873Y-99626243D01*
X148332199Y-99636208D01*
X148329035Y-99648175D01*
X148325474Y-99661797D01*
X148321608Y-99676724D01*
X148318713Y-99687984D01*
X148301991Y-99752492D01*
X148285681Y-99813867D01*
X148269679Y-99872443D01*
X148253884Y-99928553D01*
X148238192Y-99982530D01*
X148222502Y-100034707D01*
X148206710Y-100085417D01*
X148190714Y-100134994D01*
X148174413Y-100183771D01*
X148157702Y-100232080D01*
X148140481Y-100280255D01*
X148122645Y-100328630D01*
X148116963Y-100343752D01*
X148079768Y-100438949D01*
X148040987Y-100531644D01*
X148000663Y-100621760D01*
X147958838Y-100709223D01*
X147915556Y-100793955D01*
X147870859Y-100875880D01*
X147824788Y-100954921D01*
X147777388Y-101031004D01*
X147728699Y-101104050D01*
X147678766Y-101173984D01*
X147627630Y-101240730D01*
X147592781Y-101283552D01*
X147544430Y-101339645D01*
X147492837Y-101395941D01*
X147438238Y-101452241D01*
X147380871Y-101508349D01*
X147320974Y-101564064D01*
X147258784Y-101619191D01*
X147194539Y-101673529D01*
X147128476Y-101726882D01*
X147060833Y-101779052D01*
X146991848Y-101829839D01*
X146921757Y-101879046D01*
X146850799Y-101926476D01*
X146779211Y-101971929D01*
X146735327Y-101998605D01*
X146664316Y-102039618D01*
X146590340Y-102079599D01*
X146513838Y-102118334D01*
X146435251Y-102155612D01*
X146355020Y-102191223D01*
X146273584Y-102224953D01*
X146224608Y-102244094D01*
X146134217Y-102277232D01*
X146043390Y-102307759D01*
X145952518Y-102335561D01*
X145861992Y-102360524D01*
X145772202Y-102382534D01*
X145690434Y-102400106D01*
X145676247Y-102402875D01*
X145661033Y-102405723D01*
X145645188Y-102408585D01*
X145629105Y-102411399D01*
X145613181Y-102414101D01*
X145597810Y-102416628D01*
X145583387Y-102418916D01*
X145570307Y-102420901D01*
X145558964Y-102422521D01*
X145549755Y-102423712D01*
X145543073Y-102424410D01*
X145539314Y-102424552D01*
X145538791Y-102424469D01*
X145539711Y-102423403D01*
X145543447Y-102420650D01*
X145549813Y-102416326D01*
X145558622Y-102410548D01*
X145569688Y-102403431D01*
X145582822Y-102395093D01*
X145597838Y-102385649D01*
X145614550Y-102375216D01*
X145632770Y-102363909D01*
X145652311Y-102351846D01*
X145672987Y-102339143D01*
X145694611Y-102325915D01*
X145716995Y-102312279D01*
X145739952Y-102298351D01*
X145763297Y-102284249D01*
X145786841Y-102270087D01*
X145790282Y-102268022D01*
X145823798Y-102247823D01*
X145855090Y-102228741D01*
X145884562Y-102210507D01*
X145912618Y-102192848D01*
X145939663Y-102175493D01*
X145966100Y-102158171D01*
X145992334Y-102140611D01*
X146018769Y-102122542D01*
X146045809Y-102103693D01*
X146073857Y-102083792D01*
X146103319Y-102062568D01*
X146134598Y-102039750D01*
X146168098Y-102015066D01*
X146176674Y-102008715D01*
X146191645Y-101997676D01*
X146207961Y-101985740D01*
X146224895Y-101973435D01*
X146241720Y-101961287D01*
X146257708Y-101949821D01*
X146272130Y-101939564D01*
X146280902Y-101933386D01*
X146307918Y-101914408D01*
X146332327Y-101897144D01*
X146354075Y-101881635D01*
X146373105Y-101867921D01*
X146389362Y-101856042D01*
X146402790Y-101846038D01*
X146409517Y-101840913D01*
X146415004Y-101836401D01*
X146422273Y-101830002D01*
X146430919Y-101822107D01*
X146440539Y-101813112D01*
X146450727Y-101803408D01*
X146461081Y-101793391D01*
X146471195Y-101783452D01*
X146480667Y-101773985D01*
X146489092Y-101765385D01*
X146496065Y-101758043D01*
X146501184Y-101752354D01*
X146503688Y-101749233D01*
X146507624Y-101743700D01*
X146493211Y-101749778D01*
X146475525Y-101756853D01*
X146454725Y-101764502D01*
X146431137Y-101772630D01*
X146405087Y-101781145D01*
X146376901Y-101789953D01*
X146346905Y-101798960D01*
X146315423Y-101808071D01*
X146282782Y-101817195D01*
X146249308Y-101826236D01*
X146215326Y-101835102D01*
X146181162Y-101843697D01*
X146147141Y-101851930D01*
X146113590Y-101859706D01*
X146102089Y-101862286D01*
X146007533Y-101882182D01*
X145914733Y-101899400D01*
X145823260Y-101914001D01*
X145732685Y-101926044D01*
X145642579Y-101935591D01*
X145552512Y-101942701D01*
X145512634Y-101945081D01*
X145483438Y-101946334D01*
X145451513Y-101947130D01*
X145417603Y-101947479D01*
X145382451Y-101947395D01*
X145346801Y-101946887D01*
X145311396Y-101945969D01*
X145276979Y-101944650D01*
X145244293Y-101942944D01*
X145214082Y-101940860D01*
X145207834Y-101940352D01*
X145138343Y-101933170D01*
X145066999Y-101923140D01*
X144993938Y-101910300D01*
X144919294Y-101894690D01*
X144843200Y-101876347D01*
X144765792Y-101855310D01*
X144687204Y-101831617D01*
X144607570Y-101805307D01*
X144527024Y-101776417D01*
X144445701Y-101744987D01*
X144363736Y-101711054D01*
X144288803Y-101678079D01*
X144278078Y-101673190D01*
X144266017Y-101667631D01*
X144252979Y-101661572D01*
X144239321Y-101655183D01*
X144225402Y-101648635D01*
X144211579Y-101642099D01*
X144198212Y-101635745D01*
X144185657Y-101629743D01*
X144174274Y-101624264D01*
X144164420Y-101619479D01*
X144156454Y-101615558D01*
X144150733Y-101612671D01*
X144147616Y-101610990D01*
X144147144Y-101610631D01*
X144148941Y-101610647D01*
X144153503Y-101611064D01*
X144160127Y-101611808D01*
X144167512Y-101612728D01*
X144188840Y-101615260D01*
X144213176Y-101617719D01*
X144240026Y-101620069D01*
X144268896Y-101622272D01*
X144299290Y-101624292D01*
X144330714Y-101626091D01*
X144362674Y-101627632D01*
X144368995Y-101627902D01*
X144381329Y-101628315D01*
X144396153Y-101628642D01*
X144413047Y-101628885D01*
X144431593Y-101629048D01*
X144451373Y-101629132D01*
X144471968Y-101629142D01*
X144492959Y-101629079D01*
X144513928Y-101628946D01*
X144534456Y-101628747D01*
X144554126Y-101628485D01*
X144572517Y-101628161D01*
X144589213Y-101627780D01*
X144603793Y-101627344D01*
X144615841Y-101626855D01*
X144624936Y-101626317D01*
X144627137Y-101626136D01*
X144644643Y-101624498D01*
X144661951Y-101622747D01*
X144679544Y-101620825D01*
X144697901Y-101618672D01*
X144717504Y-101616229D01*
X144738833Y-101613437D01*
X144762370Y-101610236D01*
X144788596Y-101606568D01*
X144805813Y-101604119D01*
X144826663Y-101601139D01*
X144844888Y-101598541D01*
X144860931Y-101596267D01*
X144875236Y-101594261D01*
X144888246Y-101592467D01*
X144900404Y-101590828D01*
X144912154Y-101589287D01*
X144923939Y-101587788D01*
X144936202Y-101586274D01*
X144949387Y-101584689D01*
X144963937Y-101582977D01*
X144980295Y-101581079D01*
X144998905Y-101578941D01*
X145020210Y-101576505D01*
X145038793Y-101574383D01*
X145072840Y-101570475D01*
X145103664Y-101566886D01*
X145131528Y-101563580D01*
X145156694Y-101560523D01*
X145179425Y-101557677D01*
X145199983Y-101555007D01*
X145218632Y-101552477D01*
X145235633Y-101550052D01*
X145251250Y-101547695D01*
X145265744Y-101545371D01*
X145279378Y-101543043D01*
X145292416Y-101540677D01*
X145305118Y-101538235D01*
X145308558Y-101537552D01*
X145325639Y-101533954D01*
X145341234Y-101530310D01*
X145354855Y-101526748D01*
X145366014Y-101523396D01*
X145374223Y-101520382D01*
X145374663Y-101520192D01*
X145376849Y-101519143D01*
X145377455Y-101518430D01*
X145376073Y-101517983D01*
X145372289Y-101517730D01*
X145365695Y-101517599D01*
X145359358Y-101517544D01*
X145328704Y-101516351D01*
X145295562Y-101513254D01*
X145260314Y-101508352D01*
X145223345Y-101501746D01*
X145185041Y-101493535D01*
X145145784Y-101483821D01*
X145105959Y-101472702D01*
X145065951Y-101460279D01*
X145026143Y-101446651D01*
X144986920Y-101431920D01*
X144948667Y-101416185D01*
X144918847Y-101402860D01*
X144904682Y-101396193D01*
X144891195Y-101389622D01*
X144878066Y-101382959D01*
X144864974Y-101376014D01*
X144851599Y-101368599D01*
X144837620Y-101360525D01*
X144822716Y-101351601D01*
X144806567Y-101341640D01*
X144788851Y-101330453D01*
X144769248Y-101317849D01*
X144747438Y-101303641D01*
X144723099Y-101287639D01*
X144720855Y-101286158D01*
X144697106Y-101270553D01*
X144675888Y-101256769D01*
X144656869Y-101244607D01*
X144639721Y-101233865D01*
X144624112Y-101224344D01*
X144609713Y-101215843D01*
X144596192Y-101208160D01*
X144583220Y-101201096D01*
X144570467Y-101194449D01*
X144566952Y-101192667D01*
X144537001Y-101178223D01*
X144508836Y-101166068D01*
X144481805Y-101155976D01*
X144455250Y-101147725D01*
X144428518Y-101141091D01*
X144400954Y-101135850D01*
X144400289Y-101135741D01*
X144352275Y-101128446D01*
X144301343Y-101121685D01*
X144248049Y-101115516D01*
X144192946Y-101110000D01*
X144136590Y-101105197D01*
X144079534Y-101101165D01*
X144077972Y-101101066D01*
X144064483Y-101100360D01*
X144048075Y-101099737D01*
X144029193Y-101099198D01*
X144008282Y-101098747D01*
X143985784Y-101098382D01*
X143962146Y-101098107D01*
X143937810Y-101097922D01*
X143913222Y-101097828D01*
X143888826Y-101097828D01*
X143865067Y-101097921D01*
X143842388Y-101098110D01*
X143821233Y-101098396D01*
X143802049Y-101098780D01*
X143785277Y-101099263D01*
X143771364Y-101099847D01*
X143766165Y-101100143D01*
X143709303Y-101104165D01*
X143655500Y-101108892D01*
X143604371Y-101114373D01*
X143555533Y-101120659D01*
X143508603Y-101127799D01*
X143463197Y-101135843D01*
X143418932Y-101144842D01*
X143413193Y-101146095D01*
X143401235Y-101148806D01*
X143388461Y-101151838D01*
X143375542Y-101155020D01*
X143363149Y-101158179D01*
X143351953Y-101161143D01*
X143342626Y-101163740D01*
X143335840Y-101165798D01*
X143334365Y-101166297D01*
X143334153Y-101165654D01*
X143336298Y-101162832D01*
X143340587Y-101158040D01*
X143346810Y-101151483D01*
X143354756Y-101143367D01*
X143364213Y-101133899D01*
X143374971Y-101123285D01*
X143386817Y-101111732D01*
X143399542Y-101099446D01*
X143412933Y-101086633D01*
X143426780Y-101073499D01*
X143440871Y-101060252D01*
X143454996Y-101047097D01*
X143468943Y-101034242D01*
X143477131Y-101026764D01*
X143553813Y-100958457D01*
X143632551Y-100891159D01*
X143712551Y-100825524D01*
X143793024Y-100762206D01*
X143845868Y-100722109D01*
X143923021Y-100665698D01*
X143999633Y-100612195D01*
X144075629Y-100561647D01*
X144150929Y-100514100D01*
X144225455Y-100469600D01*
X144299130Y-100428193D01*
X144371875Y-100389925D01*
X144443612Y-100354843D01*
X144514264Y-100322992D01*
X144539551Y-100312270D01*
X144563617Y-100302414D01*
X144590616Y-100291669D01*
X144620134Y-100280186D01*
X144651759Y-100268113D01*
X144685078Y-100255601D01*
X144719676Y-100242800D01*
X144755142Y-100229859D01*
X144791061Y-100216929D01*
X144827022Y-100204159D01*
X144862610Y-100191699D01*
X144897413Y-100179699D01*
X144931017Y-100168308D01*
X144963009Y-100157678D01*
X144989209Y-100149164D01*
X145000289Y-100145553D01*
X145010123Y-100142245D01*
X145018263Y-100139400D01*
X145024260Y-100137177D01*
X145027666Y-100135735D01*
X145028274Y-100135283D01*
X145026503Y-100134231D01*
X145022090Y-100132082D01*
X145015616Y-100129107D01*
X145007664Y-100125576D01*
X145003676Y-100123843D01*
X144994090Y-100119630D01*
X144987119Y-100116324D01*
X144982121Y-100113535D01*
X144978457Y-100110874D01*
X144975485Y-100107951D01*
X144973371Y-100105409D01*
X144966973Y-100097298D01*
X144922457Y-100096153D01*
X144908401Y-100095820D01*
X144893761Y-100095526D01*
X144879453Y-100095284D01*
X144866393Y-100095110D01*
X144855498Y-100095018D01*
X144851483Y-100095007D01*
X144825025Y-100095007D01*
X144804909Y-100115277D01*
X144783447Y-100136255D01*
X144762829Y-100155114D01*
X144743226Y-100171726D01*
X144724809Y-100185957D01*
X144707751Y-100197679D01*
X144692222Y-100206759D01*
X144678394Y-100213068D01*
X144675310Y-100214168D01*
X144667757Y-100216351D01*
X144661211Y-100217216D01*
X144653687Y-100216982D01*
X144651662Y-100216801D01*
X144620272Y-100212072D01*
X144588847Y-100203974D01*
X144557610Y-100192633D01*
X144526781Y-100178175D01*
X144496581Y-100160725D01*
X144467233Y-100140410D01*
X144438957Y-100117354D01*
X144411976Y-100091684D01*
X144391216Y-100069054D01*
X144371748Y-100045514D01*
X144353605Y-100021437D01*
X144336432Y-99996266D01*
X144319874Y-99969448D01*
X144303575Y-99940426D01*
X144287181Y-99908645D01*
X144282775Y-99899690D01*
X144257526Y-99844126D01*
X144234839Y-99786328D01*
X144214778Y-99726521D01*
X144197409Y-99664933D01*
X144182798Y-99601787D01*
X144171010Y-99537309D01*
X144164813Y-99494166D01*
X144162543Y-99475870D01*
X144160687Y-99459361D01*
X144159208Y-99443963D01*
X144158067Y-99429005D01*
X144157226Y-99413811D01*
X144156646Y-99397708D01*
X144156288Y-99380023D01*
X144156116Y-99360082D01*
X144156086Y-99340890D01*
X144156314Y-99308292D01*
X144156982Y-99277356D01*
X144158138Y-99247282D01*
X144159828Y-99217272D01*
X144162102Y-99186528D01*
X144165006Y-99154251D01*
X144168587Y-99119642D01*
X144170086Y-99106159D01*
X144177837Y-99043856D01*
X144186813Y-98983785D01*
X144197139Y-98925500D01*
X144208940Y-98868555D01*
X144222340Y-98812504D01*
X144237464Y-98756901D01*
X144254437Y-98701298D01*
X144273383Y-98645251D01*
X144294426Y-98588311D01*
X144317692Y-98530035D01*
X144343306Y-98469974D01*
X144355366Y-98442835D01*
X144359830Y-98432905D01*
X144332325Y-98452351D01*
X144252413Y-98506913D01*
X144169731Y-98559598D01*
X144084546Y-98610272D01*
X143997128Y-98658799D01*
X143907745Y-98705044D01*
X143816667Y-98748873D01*
X143724162Y-98790150D01*
X143630498Y-98828741D01*
X143535945Y-98864511D01*
X143455234Y-98892544D01*
X143393457Y-98912471D01*
X143334132Y-98930282D01*
X143277294Y-98945969D01*
X143222981Y-98959523D01*
X143171230Y-98970936D01*
X143122078Y-98980200D01*
X143075563Y-98987307D01*
X143031720Y-98992248D01*
X142996282Y-98994754D01*
X142985798Y-98995187D01*
X142975967Y-98995436D01*
X142967566Y-98995492D01*
X142961373Y-98995347D01*
X142958883Y-98995139D01*
X142951263Y-98994049D01*
X142961510Y-98989090D01*
X142972981Y-98983418D01*
X142987087Y-98976241D01*
X143003413Y-98967781D01*
X143021545Y-98958262D01*
X143041070Y-98947905D01*
X143061575Y-98936934D01*
X143082644Y-98925570D01*
X143103865Y-98914036D01*
X143124824Y-98902555D01*
X143145106Y-98891348D01*
X143164298Y-98880639D01*
X143181986Y-98870650D01*
X143184484Y-98869227D01*
X143216658Y-98850725D01*
X143246166Y-98833399D01*
X143273507Y-98816917D01*
X143299180Y-98800952D01*
X143323684Y-98785173D01*
X143347516Y-98769251D01*
X143371175Y-98752856D01*
X143395160Y-98735659D01*
X143419969Y-98717331D01*
X143446102Y-98697540D01*
X143457862Y-98688505D01*
X143476708Y-98674020D01*
X143493122Y-98661521D01*
X143507397Y-98650796D01*
X143519827Y-98641631D01*
X143530707Y-98633814D01*
X143540332Y-98627132D01*
X143548995Y-98621373D01*
X143556991Y-98616324D01*
X143561618Y-98613530D01*
X143568206Y-98609495D01*
X143573314Y-98606123D01*
X143576411Y-98603783D01*
X143577018Y-98602854D01*
X143574678Y-98602971D01*
X143569064Y-98603741D01*
X143560335Y-98605134D01*
X143548653Y-98607122D01*
X143534179Y-98609674D01*
X143517073Y-98612760D01*
X143497498Y-98616350D01*
X143475613Y-98620415D01*
X143451580Y-98624925D01*
X143425559Y-98629850D01*
X143397713Y-98635159D01*
X143368201Y-98640824D01*
X143337184Y-98646813D01*
X143304824Y-98653098D01*
X143280062Y-98657931D01*
X143207867Y-98672181D01*
X143133816Y-98687051D01*
X143058863Y-98702344D01*
X142983961Y-98717863D01*
X142910066Y-98733412D01*
X142838131Y-98748792D01*
X142797462Y-98757607D01*
X142766810Y-98764196D01*
X142738967Y-98769978D01*
X142713354Y-98775048D01*
X142689396Y-98779502D01*
X142666515Y-98783437D01*
X142644134Y-98786950D01*
X142621677Y-98790136D01*
X142598568Y-98793093D01*
X142574228Y-98795916D01*
X142557475Y-98797726D01*
X142530195Y-98800387D01*
X142501124Y-98802832D01*
X142470771Y-98805040D01*
X142439644Y-98806990D01*
X142408252Y-98808660D01*
X142377102Y-98810028D01*
X142346704Y-98811073D01*
X142317566Y-98811774D01*
X142290197Y-98812109D01*
X142265104Y-98812057D01*
X142242796Y-98811595D01*
X142235570Y-98811326D01*
X142207079Y-98810117D01*
X142226521Y-98779462D01*
X142263831Y-98721644D01*
X142303564Y-98661982D01*
X142345433Y-98600857D01*
X142389156Y-98538650D01*
X142434448Y-98475741D01*
X142481025Y-98412513D01*
X142528602Y-98349345D01*
X142576896Y-98286620D01*
X142625622Y-98224717D01*
X142674496Y-98164018D01*
X142723233Y-98104905D01*
X142771549Y-98047757D01*
X142778006Y-98040235D01*
X142838997Y-97970475D01*
X142900583Y-97902328D01*
X142962535Y-97836027D01*
X143024621Y-97771804D01*
X143086613Y-97709892D01*
X143148279Y-97650523D01*
X143209390Y-97593931D01*
X143269714Y-97540347D01*
X143291448Y-97521621D01*
X143346673Y-97475420D01*
X143403946Y-97429379D01*
X143462641Y-97383965D01*
X143522132Y-97339642D01*
X143581793Y-97296875D01*
X143640999Y-97256130D01*
X143699124Y-97217871D01*
X143706606Y-97213079D01*
X143786269Y-97163846D01*
X143868300Y-97116266D01*
X143952031Y-97070692D01*
X144036795Y-97027479D01*
X144121921Y-96986978D01*
X144198280Y-96953146D01*
X144233577Y-96938359D01*
X144270407Y-96923486D01*
X144308203Y-96908733D01*
X144346397Y-96894306D01*
X144384422Y-96880412D01*
X144421709Y-96867257D01*
X144457692Y-96855050D01*
X144491802Y-96843996D01*
X144523472Y-96834302D01*
X144529086Y-96832654D01*
X144578356Y-96819083D01*
X144629398Y-96806576D01*
X144682366Y-96795110D01*
X144737418Y-96784665D01*
X144794711Y-96775219D01*
X144854399Y-96766750D01*
X144916640Y-96759237D01*
X144958213Y-96755027D01*
X144958213Y-96906791D01*
X144917048Y-96907654D01*
X144858764Y-96910302D01*
X144801882Y-96915830D01*
X144745746Y-96924339D01*
X144689701Y-96935927D01*
X144633089Y-96950695D01*
X144632393Y-96950895D01*
X144614031Y-96956363D01*
X144592748Y-96963027D01*
X144568870Y-96970770D01*
X144542722Y-96979472D01*
X144514629Y-96989014D01*
X144484918Y-96999279D01*
X144453915Y-97010148D01*
X144421945Y-97021501D01*
X144389333Y-97033221D01*
X144356406Y-97045188D01*
X144323490Y-97057284D01*
X144290910Y-97069390D01*
X144258992Y-97081388D01*
X144228061Y-97093159D01*
X144198444Y-97104584D01*
X144170466Y-97115545D01*
X144144452Y-97125922D01*
X144120730Y-97135598D01*
X144099624Y-97144454D01*
X144091986Y-97147740D01*
X144023508Y-97178265D01*
X143958263Y-97209053D01*
X143895978Y-97240273D01*
X143836382Y-97272096D01*
X143779207Y-97304689D01*
X143724180Y-97338224D01*
X143671030Y-97372870D01*
X143619488Y-97408797D01*
X143569283Y-97446173D01*
X143520143Y-97485169D01*
X143471798Y-97525954D01*
X143432462Y-97560940D01*
X143419776Y-97572630D01*
X143404925Y-97586568D01*
X143388183Y-97602484D01*
X143369821Y-97620109D01*
X143350112Y-97639173D01*
X143329328Y-97659407D01*
X143307740Y-97680540D01*
X143285622Y-97702304D01*
X143263246Y-97724429D01*
X143240884Y-97746645D01*
X143218808Y-97768682D01*
X143197291Y-97790272D01*
X143176605Y-97811144D01*
X143157022Y-97831029D01*
X143138814Y-97849657D01*
X143122254Y-97866760D01*
X143107614Y-97882066D01*
X143100632Y-97889459D01*
X143090225Y-97900595D01*
X143078825Y-97912894D01*
X143066641Y-97926126D01*
X143053879Y-97940059D01*
X143040746Y-97954463D01*
X143027450Y-97969107D01*
X143014197Y-97983759D01*
X143001195Y-97998189D01*
X142988651Y-98012167D01*
X142976772Y-98025460D01*
X142965765Y-98037839D01*
X142955837Y-98049073D01*
X142947195Y-98058929D01*
X142940046Y-98067179D01*
X142934598Y-98073591D01*
X142931058Y-98077933D01*
X142929632Y-98079975D01*
X142929623Y-98080094D01*
X142931344Y-98079758D01*
X142935937Y-98078568D01*
X142942914Y-98076661D01*
X142951785Y-98074169D01*
X142962061Y-98071227D01*
X142966656Y-98069897D01*
X143030998Y-98050237D01*
X143095956Y-98028505D01*
X143160919Y-98004947D01*
X143225276Y-97979806D01*
X143288416Y-97953328D01*
X143349726Y-97925757D01*
X143408597Y-97897339D01*
X143447771Y-97877208D01*
X143492365Y-97853199D01*
X143535613Y-97828917D01*
X143577909Y-97804102D01*
X143619648Y-97778495D01*
X143661222Y-97751838D01*
X143703026Y-97723871D01*
X143745453Y-97694335D01*
X143788896Y-97662972D01*
X143833749Y-97629522D01*
X143880407Y-97593726D01*
X143890537Y-97585835D01*
X143922577Y-97560728D01*
X143952137Y-97537367D01*
X143979578Y-97515445D01*
X144005260Y-97494656D01*
X144029543Y-97474693D01*
X144052787Y-97455250D01*
X144075353Y-97436021D01*
X144097600Y-97416698D01*
X144119888Y-97396976D01*
X144142578Y-97376547D01*
X144166030Y-97355106D01*
X144190604Y-97332345D01*
X144212855Y-97311535D01*
X144232474Y-97293160D01*
X144249899Y-97276954D01*
X144265446Y-97262642D01*
X144279433Y-97249950D01*
X144292177Y-97238604D01*
X144303995Y-97228331D01*
X144315205Y-97218855D01*
X144326123Y-97209903D01*
X144337068Y-97201202D01*
X144348355Y-97192476D01*
X144360303Y-97183453D01*
X144366442Y-97178879D01*
X144422299Y-97139508D01*
X144480817Y-97102335D01*
X144541891Y-97067409D01*
X144605413Y-97034783D01*
X144671275Y-97004506D01*
X144739372Y-96976629D01*
X144809595Y-96951203D01*
X144881838Y-96928280D01*
X144913544Y-96919192D01*
X144958213Y-96906791D01*
X144958213Y-96755027D01*
X144981590Y-96752659D01*
X145049405Y-96746994D01*
X145120242Y-96742221D01*
X145194256Y-96738319D01*
X145227103Y-96736902D01*
X145245871Y-96736248D01*
X145267647Y-96735666D01*
X145291939Y-96735159D01*
X145318251Y-96734731D01*
X145346091Y-96734383D01*
X145374964Y-96734120D01*
X145404376Y-96733942D01*
X145433834Y-96733854D01*
X145462843Y-96733857D01*
X145490910Y-96733955D01*
X145517541Y-96734150D01*
X145542241Y-96734445D01*
X145564518Y-96734843D01*
X145571317Y-96734999D01*
X145647451Y-96737147D01*
X145720372Y-96739810D01*
X145790334Y-96743015D01*
X145857593Y-96746787D01*
X145922404Y-96751150D01*
X145985023Y-96756131D01*
X146045704Y-96761754D01*
X146104704Y-96768046D01*
X146162276Y-96775032D01*
X146198435Y-96779971D01*
X146198435Y-97116798D01*
X146190058Y-97117287D01*
X146178883Y-97118298D01*
X146172158Y-97118977D01*
X146109516Y-97126168D01*
X146045836Y-97134939D01*
X145981687Y-97145175D01*
X145917640Y-97156764D01*
X145854262Y-97169589D01*
X145792125Y-97183537D01*
X145731797Y-97198494D01*
X145673848Y-97214344D01*
X145626496Y-97228557D01*
X145585920Y-97242027D01*
X145542837Y-97257754D01*
X145497371Y-97275676D01*
X145449643Y-97295733D01*
X145399776Y-97317864D01*
X145347891Y-97342008D01*
X145294110Y-97368105D01*
X145238555Y-97396093D01*
X145181348Y-97425913D01*
X145122612Y-97457502D01*
X145062469Y-97490801D01*
X145001039Y-97525748D01*
X144938446Y-97562284D01*
X144874811Y-97600346D01*
X144850723Y-97614989D01*
X144792981Y-97650621D01*
X144737302Y-97685741D01*
X144683833Y-97720250D01*
X144632720Y-97754048D01*
X144584110Y-97787036D01*
X144538147Y-97819114D01*
X144494980Y-97850184D01*
X144454753Y-97880145D01*
X144417613Y-97908900D01*
X144414303Y-97911524D01*
X144394243Y-97927355D01*
X144374481Y-97942730D01*
X144354800Y-97957802D01*
X144334981Y-97972720D01*
X144314807Y-97987638D01*
X144294060Y-98002705D01*
X144272523Y-98018074D01*
X144249978Y-98033896D01*
X144226206Y-98050322D01*
X144200992Y-98067505D01*
X144174116Y-98085595D01*
X144145361Y-98104744D01*
X144114510Y-98125103D01*
X144081344Y-98146825D01*
X144045646Y-98170059D01*
X144007198Y-98194959D01*
X144003524Y-98197333D01*
X143974502Y-98216048D01*
X143948075Y-98233010D01*
X143923924Y-98248415D01*
X143901730Y-98262458D01*
X143881176Y-98275333D01*
X143861943Y-98287234D01*
X143843712Y-98298357D01*
X143826166Y-98308896D01*
X143808985Y-98319045D01*
X143791852Y-98329000D01*
X143774448Y-98338955D01*
X143756454Y-98349105D01*
X143743091Y-98356567D01*
X143727403Y-98365161D01*
X143710385Y-98374246D01*
X143692369Y-98383660D01*
X143673687Y-98393243D01*
X143654673Y-98402834D01*
X143635660Y-98412271D01*
X143616980Y-98421395D01*
X143598966Y-98430044D01*
X143581950Y-98438058D01*
X143566267Y-98445275D01*
X143552248Y-98451536D01*
X143540226Y-98456679D01*
X143530534Y-98460543D01*
X143523505Y-98462968D01*
X143522010Y-98463380D01*
X143518483Y-98464549D01*
X143517839Y-98465617D01*
X143520220Y-98466634D01*
X143525767Y-98467646D01*
X143534621Y-98468701D01*
X143538879Y-98469124D01*
X143571989Y-98471879D01*
X143603089Y-98473655D01*
X143631930Y-98474450D01*
X143658266Y-98474265D01*
X143681849Y-98473098D01*
X143702433Y-98470950D01*
X143710986Y-98469603D01*
X143739125Y-98463926D01*
X143768325Y-98456804D01*
X143796751Y-98448700D01*
X143809629Y-98444582D01*
X143820005Y-98441190D01*
X143827626Y-98438870D01*
X143833031Y-98437503D01*
X143836758Y-98436968D01*
X143839345Y-98437145D01*
X143840747Y-98437618D01*
X143845443Y-98441393D01*
X143847914Y-98446763D01*
X143847607Y-98452478D01*
X143847496Y-98452786D01*
X143845636Y-98455842D01*
X143841566Y-98461250D01*
X143835468Y-98468805D01*
X143827526Y-98478301D01*
X143817923Y-98489532D01*
X143806843Y-98502294D01*
X143794469Y-98516381D01*
X143780985Y-98531587D01*
X143766575Y-98547707D01*
X143751421Y-98564536D01*
X143735708Y-98581869D01*
X143719619Y-98599499D01*
X143703337Y-98617221D01*
X143687045Y-98634831D01*
X143670929Y-98652122D01*
X143655170Y-98668890D01*
X143642310Y-98682454D01*
X143629837Y-98695566D01*
X143619603Y-98706357D01*
X143611424Y-98715037D01*
X143605116Y-98721813D01*
X143600492Y-98726895D01*
X143597368Y-98730489D01*
X143595559Y-98732805D01*
X143594878Y-98734050D01*
X143595142Y-98734433D01*
X143596166Y-98734162D01*
X143596443Y-98734049D01*
X143599356Y-98732922D01*
X143604981Y-98730835D01*
X143612730Y-98728002D01*
X143622015Y-98724639D01*
X143632249Y-98720959D01*
X143633034Y-98720677D01*
X143688434Y-98699818D01*
X143745326Y-98676428D01*
X143803114Y-98650789D01*
X143861201Y-98623181D01*
X143918991Y-98593887D01*
X143975886Y-98563187D01*
X144018387Y-98538957D01*
X144054403Y-98517531D01*
X144090844Y-98495059D01*
X144128001Y-98471345D01*
X144166162Y-98446196D01*
X144205616Y-98419417D01*
X144246654Y-98390815D01*
X144289564Y-98360194D01*
X144334636Y-98327362D01*
X144343967Y-98320489D01*
X144363888Y-98305724D01*
X144382368Y-98291862D01*
X144399687Y-98278665D01*
X144416122Y-98265894D01*
X144431952Y-98253309D01*
X144447455Y-98240671D01*
X144462908Y-98227742D01*
X144478591Y-98214282D01*
X144494782Y-98200052D01*
X144511758Y-98184812D01*
X144529798Y-98168325D01*
X144549180Y-98150350D01*
X144570183Y-98130649D01*
X144593084Y-98108982D01*
X144618162Y-98085111D01*
X144621006Y-98082397D01*
X144651077Y-98053747D01*
X144679549Y-98026726D01*
X144706327Y-98001420D01*
X144731319Y-97977918D01*
X144754431Y-97956306D01*
X144775569Y-97936671D01*
X144794641Y-97919099D01*
X144811553Y-97903678D01*
X144826211Y-97890495D01*
X144838522Y-97879635D01*
X144844452Y-97874520D01*
X144857261Y-97863994D01*
X144872883Y-97851849D01*
X144891103Y-97838226D01*
X144911705Y-97823264D01*
X144934473Y-97807105D01*
X144959190Y-97789889D01*
X144985640Y-97771756D01*
X145013608Y-97752846D01*
X145042877Y-97733299D01*
X145073232Y-97713257D01*
X145104456Y-97692860D01*
X145136333Y-97672247D01*
X145168647Y-97651559D01*
X145201183Y-97630937D01*
X145233723Y-97610520D01*
X145266052Y-97590450D01*
X145297955Y-97570866D01*
X145329214Y-97551909D01*
X145359614Y-97533719D01*
X145388938Y-97516437D01*
X145416971Y-97500203D01*
X145443497Y-97485157D01*
X145446068Y-97483718D01*
X145526330Y-97439938D01*
X145609548Y-97396654D01*
X145695184Y-97354115D01*
X145782699Y-97312569D01*
X145871555Y-97272265D01*
X145961213Y-97233453D01*
X146051135Y-97196379D01*
X146140783Y-97161294D01*
X146159837Y-97154085D01*
X146175072Y-97148318D01*
X146187312Y-97143570D01*
X146196857Y-97139674D01*
X146204009Y-97136463D01*
X146209070Y-97133772D01*
X146212342Y-97131435D01*
X146214126Y-97129285D01*
X146214723Y-97127157D01*
X146214434Y-97124884D01*
X146214216Y-97124134D01*
X146213030Y-97121177D01*
X146211312Y-97119021D01*
X146208609Y-97117610D01*
X146204468Y-97116887D01*
X146198435Y-97116798D01*
X146198435Y-96779971D01*
X146218677Y-96782736D01*
X146274162Y-96791185D01*
X146328986Y-96800404D01*
X146383404Y-96810418D01*
X146437544Y-96821227D01*
X146533400Y-96842612D01*
X146629021Y-96866988D01*
X146724518Y-96894397D01*
X146745392Y-96901061D01*
X146745392Y-97138325D01*
X146687178Y-97138706D01*
X146627264Y-97140569D01*
X146566016Y-97143916D01*
X146560165Y-97144309D01*
X146530347Y-97146427D01*
X146503670Y-97148511D01*
X146479775Y-97150615D01*
X146458300Y-97152797D01*
X146438886Y-97155112D01*
X146421171Y-97157616D01*
X146404794Y-97160364D01*
X146389397Y-97163413D01*
X146374617Y-97166819D01*
X146360094Y-97170636D01*
X146345469Y-97174922D01*
X146330379Y-97179731D01*
X146329465Y-97180033D01*
X146314980Y-97184966D01*
X146300864Y-97190092D01*
X146286810Y-97195559D01*
X146272512Y-97201512D01*
X146257663Y-97208100D01*
X146241959Y-97215470D01*
X146225092Y-97223768D01*
X146206758Y-97233143D01*
X146186649Y-97243741D01*
X146164460Y-97255709D01*
X146139885Y-97269196D01*
X146112618Y-97284347D01*
X146112600Y-97284357D01*
X146089812Y-97296910D01*
X146066905Y-97309208D01*
X146044340Y-97321016D01*
X146022584Y-97332100D01*
X146002099Y-97342226D01*
X145983349Y-97351161D01*
X145966799Y-97358671D01*
X145956696Y-97362985D01*
X145947631Y-97366593D01*
X145936129Y-97370967D01*
X145923082Y-97375781D01*
X145909383Y-97380705D01*
X145895922Y-97385414D01*
X145891312Y-97386992D01*
X145867193Y-97395413D01*
X145843300Y-97404228D01*
X145819471Y-97413526D01*
X145795544Y-97423398D01*
X145771356Y-97433932D01*
X145746743Y-97445219D01*
X145721543Y-97457348D01*
X145695595Y-97470408D01*
X145668733Y-97484490D01*
X145640798Y-97499683D01*
X145611624Y-97516075D01*
X145581050Y-97533759D01*
X145548914Y-97552821D01*
X145515051Y-97573353D01*
X145479301Y-97595444D01*
X145441499Y-97619183D01*
X145401484Y-97644661D01*
X145359092Y-97671966D01*
X145314161Y-97701189D01*
X145278769Y-97724371D01*
X145250114Y-97743221D01*
X145224098Y-97760405D01*
X145200405Y-97776147D01*
X145178723Y-97790669D01*
X145158736Y-97804192D01*
X145140132Y-97816939D01*
X145122595Y-97829130D01*
X145105813Y-97840990D01*
X145089471Y-97852739D01*
X145073255Y-97864600D01*
X145056850Y-97876794D01*
X145039944Y-97889543D01*
X145022222Y-97903071D01*
X145003370Y-97917598D01*
X144983074Y-97933346D01*
X144981701Y-97934415D01*
X144966978Y-97945925D01*
X144950761Y-97958701D01*
X144933225Y-97972598D01*
X144914545Y-97987473D01*
X144894898Y-98003181D01*
X144874459Y-98019580D01*
X144853405Y-98036526D01*
X144831911Y-98053875D01*
X144810152Y-98071482D01*
X144788306Y-98089205D01*
X144766547Y-98106900D01*
X144745052Y-98124423D01*
X144723996Y-98141630D01*
X144703555Y-98158378D01*
X144683905Y-98174523D01*
X144665222Y-98189921D01*
X144647681Y-98204429D01*
X144631459Y-98217902D01*
X144616732Y-98230198D01*
X144603674Y-98241172D01*
X144592463Y-98250680D01*
X144583273Y-98258580D01*
X144576281Y-98264727D01*
X144571663Y-98268977D01*
X144569594Y-98271188D01*
X144569561Y-98271241D01*
X144567853Y-98274476D01*
X144564916Y-98280359D01*
X144561004Y-98288366D01*
X144556373Y-98297973D01*
X144551278Y-98308654D01*
X144547998Y-98315586D01*
X144511599Y-98396011D01*
X144477943Y-98477085D01*
X144447089Y-98558602D01*
X144419094Y-98640358D01*
X144394017Y-98722150D01*
X144371916Y-98803773D01*
X144352849Y-98885023D01*
X144336874Y-98965695D01*
X144324050Y-99045587D01*
X144314435Y-99124492D01*
X144312803Y-99141193D01*
X144311307Y-99157549D01*
X144309998Y-99172713D01*
X144308851Y-99187150D01*
X144307843Y-99201322D01*
X144306947Y-99215696D01*
X144306140Y-99230735D01*
X144305396Y-99246903D01*
X144304691Y-99264665D01*
X144304000Y-99284485D01*
X144303298Y-99306828D01*
X144302562Y-99332157D01*
X144302476Y-99335197D01*
X144302490Y-99340606D01*
X144302819Y-99344263D01*
X144303250Y-99345269D01*
X144304753Y-99344067D01*
X144308243Y-99340739D01*
X144313299Y-99335704D01*
X144319497Y-99329380D01*
X144324498Y-99324195D01*
X144343798Y-99305407D01*
X144362868Y-99289739D01*
X144382235Y-99276890D01*
X144402424Y-99266561D01*
X144423963Y-99258449D01*
X144447377Y-99252254D01*
X144452186Y-99251248D01*
X144462874Y-99249697D01*
X144476318Y-99248690D01*
X144491811Y-99248220D01*
X144508648Y-99248280D01*
X144526125Y-99248865D01*
X144543536Y-99249968D01*
X144560175Y-99251583D01*
X144565827Y-99252286D01*
X144598877Y-99257312D01*
X144628550Y-99263173D01*
X144654873Y-99269879D01*
X144677873Y-99277437D01*
X144697576Y-99285857D01*
X144714010Y-99295146D01*
X144722731Y-99301476D01*
X144729055Y-99306893D01*
X144734882Y-99312454D01*
X144739632Y-99317545D01*
X144742728Y-99321553D01*
X144743627Y-99323632D01*
X144741977Y-99324144D01*
X144737403Y-99324324D01*
X144730469Y-99324171D01*
X144722168Y-99323711D01*
X144711987Y-99323218D01*
X144699104Y-99322911D01*
X144684132Y-99322778D01*
X144667683Y-99322809D01*
X144650369Y-99322992D01*
X144632800Y-99323315D01*
X144615589Y-99323766D01*
X144599348Y-99324335D01*
X144584687Y-99325009D01*
X144572219Y-99325776D01*
X144562556Y-99326626D01*
X144561448Y-99326753D01*
X144535976Y-99330138D01*
X144513301Y-99333967D01*
X144492726Y-99338386D01*
X144473556Y-99343542D01*
X144456971Y-99348922D01*
X144443951Y-99354070D01*
X144429261Y-99360851D01*
X144413964Y-99368707D01*
X144399124Y-99377081D01*
X144385804Y-99385416D01*
X144381053Y-99388677D01*
X144372111Y-99395494D01*
X144362205Y-99403846D01*
X144351945Y-99413144D01*
X144341938Y-99422797D01*
X144332793Y-99432215D01*
X144325120Y-99440807D01*
X144319525Y-99447983D01*
X144318796Y-99449064D01*
X144312200Y-99459142D01*
X144313361Y-99473067D01*
X144314266Y-99481468D01*
X144315781Y-99492716D01*
X144317810Y-99506227D01*
X144320256Y-99521417D01*
X144323019Y-99537702D01*
X144326002Y-99554498D01*
X144329107Y-99571222D01*
X144332237Y-99587289D01*
X144333779Y-99594890D01*
X144342642Y-99635234D01*
X144352544Y-99675447D01*
X144363371Y-99715219D01*
X144375009Y-99754238D01*
X144387345Y-99792192D01*
X144400265Y-99828770D01*
X144413655Y-99863660D01*
X144427401Y-99896549D01*
X144441389Y-99927128D01*
X144455506Y-99955083D01*
X144469637Y-99980104D01*
X144480997Y-99997977D01*
X144492786Y-100014387D01*
X144506142Y-100031152D01*
X144520501Y-100047668D01*
X144535298Y-100063329D01*
X144549968Y-100077530D01*
X144563947Y-100089666D01*
X144572959Y-100096564D01*
X144591791Y-100108630D01*
X144609867Y-100117315D01*
X144627264Y-100122640D01*
X144644059Y-100124625D01*
X144660330Y-100123293D01*
X144665745Y-100122091D01*
X144684179Y-100115563D01*
X144702258Y-100105625D01*
X144719885Y-100092362D01*
X144736961Y-100075860D01*
X144753389Y-100056204D01*
X144769070Y-100033477D01*
X144770235Y-100031617D01*
X144773984Y-100025169D01*
X144778729Y-100016378D01*
X144784030Y-100006095D01*
X144789446Y-99995171D01*
X144793632Y-99986400D01*
X144802492Y-99967910D01*
X144810447Y-99952380D01*
X144817752Y-99939464D01*
X144824660Y-99928816D01*
X144831425Y-99920090D01*
X144838301Y-99912940D01*
X144845543Y-99907019D01*
X144853403Y-99901982D01*
X144857010Y-99900015D01*
X144873456Y-99892568D01*
X144893189Y-99885627D01*
X144916025Y-99879219D01*
X144921427Y-99877993D01*
X144921427Y-100012676D01*
X144920551Y-100013552D01*
X144921427Y-100014428D01*
X144922303Y-100013552D01*
X144921427Y-100012676D01*
X144921427Y-99877993D01*
X144941779Y-99873371D01*
X144970268Y-99868110D01*
X145001308Y-99863464D01*
X145034716Y-99859460D01*
X145070306Y-99856125D01*
X145107895Y-99853487D01*
X145147300Y-99851572D01*
X145188335Y-99850409D01*
X145192068Y-99850342D01*
X145209811Y-99850071D01*
X145224414Y-99849934D01*
X145236239Y-99849961D01*
X145245650Y-99850182D01*
X145253009Y-99850625D01*
X145254856Y-99850851D01*
X145254856Y-99993922D01*
X145247994Y-99994273D01*
X145241390Y-99995113D01*
X145225348Y-99999402D01*
X145211434Y-100006406D01*
X145199773Y-100015967D01*
X145190491Y-100027925D01*
X145183712Y-100042121D01*
X145179562Y-100058396D01*
X145178170Y-100075446D01*
X145178247Y-100082909D01*
X145178669Y-100087333D01*
X145179504Y-100089171D01*
X145180244Y-100089217D01*
X145182485Y-100088500D01*
X145187586Y-100086935D01*
X145195050Y-100084672D01*
X145204380Y-100081862D01*
X145215077Y-100078656D01*
X145222052Y-100076573D01*
X145261671Y-100064755D01*
X145262734Y-100049664D01*
X145263312Y-100041153D01*
X145263984Y-100030787D01*
X145264645Y-100020208D01*
X145264960Y-100014990D01*
X145266124Y-99995408D01*
X145259854Y-99994232D01*
X145254856Y-99993922D01*
X145254856Y-99850851D01*
X145258677Y-99851321D01*
X145263018Y-99852298D01*
X145266394Y-99853586D01*
X145269167Y-99855214D01*
X145271168Y-99856760D01*
X145273802Y-99859352D01*
X145273798Y-99861007D01*
X145272648Y-99861965D01*
X145272068Y-99862991D01*
X145274396Y-99863522D01*
X145279655Y-99863631D01*
X145289289Y-99863535D01*
X145301551Y-99848482D01*
X145311701Y-99836923D01*
X145321969Y-99826895D01*
X145331802Y-99818885D01*
X145340648Y-99813378D01*
X145342289Y-99812602D01*
X145350940Y-99809641D01*
X145362608Y-99806976D01*
X145376811Y-99804663D01*
X145393071Y-99802758D01*
X145410909Y-99801316D01*
X145429843Y-99800392D01*
X145449396Y-99800044D01*
X145450448Y-99800042D01*
X145466739Y-99800440D01*
X145480948Y-99801811D01*
X145494377Y-99804396D01*
X145508331Y-99808437D01*
X145521646Y-99813222D01*
X145530499Y-99817031D01*
X145539236Y-99821524D01*
X145547126Y-99826252D01*
X145553439Y-99830766D01*
X145557443Y-99834618D01*
X145558115Y-99835633D01*
X145558791Y-99837114D01*
X145558605Y-99838124D01*
X145557043Y-99838753D01*
X145553593Y-99839091D01*
X145547739Y-99839228D01*
X145538967Y-99839255D01*
X145537474Y-99839255D01*
X145509779Y-99839865D01*
X145483629Y-99841655D01*
X145459294Y-99844568D01*
X145437044Y-99848550D01*
X145417149Y-99853541D01*
X145399879Y-99859487D01*
X145385503Y-99866330D01*
X145375009Y-99873414D01*
X145365303Y-99882973D01*
X145355977Y-99895127D01*
X145347577Y-99908971D01*
X145340650Y-99923600D01*
X145335742Y-99938109D01*
X145335587Y-99938708D01*
X145334532Y-99943246D01*
X145333718Y-99947940D01*
X145333114Y-99953316D01*
X145332691Y-99959896D01*
X145332419Y-99968202D01*
X145332269Y-99978758D01*
X145332211Y-99992086D01*
X145332206Y-99998254D01*
X145332228Y-100012343D01*
X145332308Y-100023293D01*
X145332466Y-100031465D01*
X145332723Y-100037225D01*
X145333098Y-100040935D01*
X145333613Y-100042958D01*
X145334289Y-100043658D01*
X145334759Y-100043602D01*
X145337591Y-100042702D01*
X145343459Y-100040984D01*
X145352016Y-100038543D01*
X145362916Y-100035476D01*
X145375813Y-100031877D01*
X145390360Y-100027842D01*
X145406212Y-100023466D01*
X145423020Y-100018846D01*
X145440440Y-100014075D01*
X145458124Y-100009251D01*
X145475727Y-100004467D01*
X145492901Y-99999820D01*
X145509301Y-99995405D01*
X145523540Y-99991595D01*
X145555998Y-99983026D01*
X145590472Y-99974086D01*
X145626451Y-99964899D01*
X145663423Y-99955591D01*
X145700876Y-99946285D01*
X145738300Y-99937109D01*
X145775181Y-99928185D01*
X145811009Y-99919640D01*
X145845272Y-99911599D01*
X145877459Y-99904186D01*
X145907057Y-99897527D01*
X145921643Y-99894319D01*
X145928495Y-99892697D01*
X145932193Y-99891462D01*
X145933048Y-99890485D01*
X145932153Y-99889896D01*
X145929687Y-99889083D01*
X145924280Y-99887404D01*
X145916351Y-99884983D01*
X145906317Y-99881949D01*
X145894597Y-99878428D01*
X145881610Y-99874546D01*
X145871737Y-99871608D01*
X145827925Y-99858349D01*
X145785851Y-99845131D01*
X145745714Y-99832027D01*
X145707714Y-99819109D01*
X145672050Y-99806447D01*
X145638922Y-99794114D01*
X145608531Y-99782181D01*
X145581074Y-99770721D01*
X145556752Y-99759805D01*
X145545041Y-99754185D01*
X145528948Y-99746019D01*
X145510715Y-99736314D01*
X145490243Y-99725014D01*
X145467432Y-99712062D01*
X145442186Y-99697401D01*
X145414404Y-99680973D01*
X145383990Y-99662723D01*
X145350843Y-99642592D01*
X145327827Y-99628496D01*
X145312532Y-99619075D01*
X145296189Y-99608960D01*
X145279038Y-99598304D01*
X145261322Y-99587260D01*
X145243283Y-99575981D01*
X145225162Y-99564619D01*
X145207201Y-99553327D01*
X145189641Y-99542260D01*
X145172725Y-99531568D01*
X145156695Y-99521406D01*
X145141791Y-99511927D01*
X145128256Y-99503282D01*
X145116331Y-99495626D01*
X145106259Y-99489110D01*
X145098280Y-99483889D01*
X145092637Y-99480115D01*
X145089572Y-99477940D01*
X145089075Y-99477458D01*
X145090899Y-99477435D01*
X145095731Y-99477663D01*
X145103085Y-99478110D01*
X145112477Y-99478747D01*
X145123422Y-99479542D01*
X145131650Y-99480169D01*
X145166233Y-99482734D01*
X145202108Y-99485156D01*
X145239631Y-99487456D01*
X145279155Y-99489653D01*
X145321035Y-99491766D01*
X145365626Y-99493815D01*
X145413281Y-99495819D01*
X145425048Y-99496289D01*
X145437613Y-99496701D01*
X145453252Y-99497072D01*
X145471641Y-99497403D01*
X145492453Y-99497693D01*
X145515364Y-99497942D01*
X145540048Y-99498151D01*
X145566180Y-99498319D01*
X145593435Y-99498447D01*
X145621487Y-99498534D01*
X145650011Y-99498580D01*
X145678682Y-99498586D01*
X145707174Y-99498551D01*
X145735162Y-99498475D01*
X145762322Y-99498359D01*
X145788327Y-99498202D01*
X145812852Y-99498004D01*
X145835572Y-99497766D01*
X145856162Y-99497486D01*
X145874296Y-99497166D01*
X145889649Y-99496805D01*
X145901896Y-99496403D01*
X145904144Y-99496310D01*
X145965663Y-99493418D01*
X146023828Y-99490289D01*
X146078781Y-99486908D01*
X146130665Y-99483264D01*
X146179623Y-99479344D01*
X146225795Y-99475135D01*
X146269325Y-99470625D01*
X146310355Y-99465802D01*
X146349028Y-99460652D01*
X146385485Y-99455165D01*
X146399882Y-99452804D01*
X146467337Y-99440205D01*
X146536596Y-99424797D01*
X146607460Y-99406644D01*
X146679728Y-99385810D01*
X146753203Y-99362360D01*
X146827683Y-99336360D01*
X146902971Y-99307872D01*
X146978866Y-99276963D01*
X147055169Y-99243696D01*
X147078675Y-99233005D01*
X147096591Y-99224674D01*
X147115499Y-99215690D01*
X147135164Y-99206177D01*
X147155350Y-99196259D01*
X147175822Y-99186062D01*
X147196346Y-99175708D01*
X147216686Y-99165322D01*
X147236606Y-99155029D01*
X147255873Y-99144952D01*
X147274250Y-99135217D01*
X147291502Y-99125947D01*
X147307394Y-99117266D01*
X147321692Y-99109299D01*
X147334159Y-99102170D01*
X147344561Y-99096004D01*
X147352663Y-99090924D01*
X147358228Y-99087055D01*
X147361024Y-99084521D01*
X147361268Y-99083685D01*
X147359950Y-99081660D01*
X147356985Y-99077209D01*
X147352689Y-99070802D01*
X147347382Y-99062914D01*
X147341378Y-99054018D01*
X147340230Y-99052319D01*
X147333398Y-99042141D01*
X147328324Y-99034359D01*
X147324753Y-99028498D01*
X147322432Y-99024088D01*
X147321106Y-99020654D01*
X147320520Y-99017726D01*
X147320413Y-99015502D01*
X147321911Y-99007110D01*
X147325967Y-98999920D01*
X147331929Y-98994368D01*
X147339143Y-98990893D01*
X147346954Y-98989933D01*
X147354708Y-98991924D01*
X147355241Y-98992190D01*
X147358337Y-98994492D01*
X147363028Y-98998820D01*
X147368643Y-99004527D01*
X147373794Y-99010145D01*
X147411835Y-99051438D01*
X147452200Y-99092173D01*
X147466348Y-99105504D01*
X147466348Y-99208066D01*
X147464067Y-99208454D01*
X147459485Y-99210564D01*
X147453171Y-99214105D01*
X147447079Y-99217888D01*
X147415729Y-99237472D01*
X147381402Y-99257737D01*
X147344506Y-99278475D01*
X147305452Y-99299477D01*
X147264651Y-99320533D01*
X147222512Y-99341434D01*
X147179446Y-99361972D01*
X147135863Y-99381938D01*
X147092172Y-99401122D01*
X147064662Y-99412760D01*
X146993004Y-99441579D01*
X146919827Y-99468994D01*
X146845654Y-99494845D01*
X146771007Y-99518973D01*
X146696410Y-99541219D01*
X146622386Y-99561421D01*
X146549457Y-99579421D01*
X146478148Y-99595059D01*
X146448931Y-99600859D01*
X146374314Y-99614243D01*
X146299937Y-99625633D01*
X146225265Y-99635082D01*
X146149762Y-99642643D01*
X146072893Y-99648367D01*
X145994122Y-99652306D01*
X145912913Y-99654514D01*
X145896262Y-99654753D01*
X145829269Y-99654929D01*
X145763230Y-99653817D01*
X145698640Y-99651440D01*
X145635994Y-99647819D01*
X145575788Y-99642977D01*
X145533655Y-99638682D01*
X145534139Y-99639022D01*
X145537989Y-99640308D01*
X145545200Y-99642540D01*
X145555765Y-99645715D01*
X145569678Y-99649832D01*
X145586933Y-99654889D01*
X145607525Y-99660883D01*
X145631446Y-99667814D01*
X145658691Y-99675680D01*
X145689253Y-99684478D01*
X145723127Y-99694207D01*
X145760306Y-99704866D01*
X145800785Y-99716452D01*
X145844557Y-99728964D01*
X145891616Y-99742400D01*
X145941956Y-99756759D01*
X145995571Y-99772037D01*
X146052455Y-99788235D01*
X146112601Y-99805350D01*
X146164519Y-99820114D01*
X146192095Y-99827964D01*
X146218721Y-99835563D01*
X146244203Y-99842854D01*
X146268350Y-99849782D01*
X146290969Y-99856292D01*
X146311869Y-99862326D01*
X146330857Y-99867830D01*
X146347742Y-99872748D01*
X146362330Y-99877024D01*
X146374430Y-99880603D01*
X146383850Y-99883427D01*
X146390397Y-99885443D01*
X146393880Y-99886593D01*
X146394419Y-99886844D01*
X146392502Y-99888314D01*
X146387908Y-99891119D01*
X146381086Y-99895014D01*
X146372487Y-99899756D01*
X146362559Y-99905100D01*
X146351753Y-99910801D01*
X146340518Y-99916616D01*
X146329305Y-99922298D01*
X146328062Y-99922920D01*
X146286256Y-99942858D01*
X146241775Y-99962316D01*
X146195443Y-99980963D01*
X146148084Y-99998473D01*
X146100524Y-100014517D01*
X146088075Y-100018455D01*
X146054939Y-100028486D01*
X146018562Y-100038934D01*
X145979176Y-100049741D01*
X145937012Y-100060849D01*
X145892301Y-100072200D01*
X145845275Y-100083738D01*
X145796163Y-100095405D01*
X145745198Y-100107143D01*
X145692610Y-100118894D01*
X145638630Y-100130602D01*
X145629124Y-100132628D01*
X145610505Y-100136587D01*
X145595026Y-100139882D01*
X145582401Y-100142577D01*
X145572343Y-100144735D01*
X145564564Y-100146420D01*
X145558779Y-100147696D01*
X145554700Y-100148626D01*
X145552041Y-100149273D01*
X145550515Y-100149701D01*
X145549834Y-100149975D01*
X145549713Y-100150156D01*
X145549763Y-100150224D01*
X145551883Y-100150890D01*
X145557142Y-100151996D01*
X145565211Y-100153490D01*
X145575760Y-100155321D01*
X145588459Y-100157437D01*
X145602978Y-100159788D01*
X145618989Y-100162321D01*
X145636161Y-100164985D01*
X145654164Y-100167729D01*
X145672670Y-100170500D01*
X145691348Y-100173249D01*
X145709869Y-100175923D01*
X145727904Y-100178470D01*
X145745122Y-100180840D01*
X145750868Y-100181615D01*
X145846141Y-100193605D01*
X145940880Y-100203996D01*
X146034883Y-100212781D01*
X146127945Y-100219958D01*
X146219862Y-100225521D01*
X146310428Y-100229466D01*
X146399441Y-100231788D01*
X146486694Y-100232484D01*
X146571985Y-100231549D01*
X146655109Y-100228978D01*
X146735861Y-100224767D01*
X146814037Y-100218912D01*
X146889432Y-100211408D01*
X146926275Y-100207004D01*
X147008956Y-100195153D01*
X147092126Y-100180504D01*
X147175517Y-100163155D01*
X147258863Y-100143201D01*
X147341899Y-100120738D01*
X147424357Y-100095864D01*
X147505972Y-100068675D01*
X147586476Y-100039266D01*
X147665603Y-100007734D01*
X147743087Y-99974176D01*
X147818662Y-99938687D01*
X147892060Y-99901365D01*
X147963015Y-99862305D01*
X148031262Y-99821603D01*
X148064449Y-99800331D01*
X148064449Y-100165829D01*
X148063023Y-100166782D01*
X148059145Y-100169667D01*
X148053117Y-100174253D01*
X148045242Y-100180307D01*
X148035820Y-100187597D01*
X148025154Y-100195889D01*
X148013547Y-100204953D01*
X148011601Y-100206476D01*
X147949497Y-100254925D01*
X147887155Y-100303215D01*
X147824738Y-100351225D01*
X147762411Y-100398836D01*
X147700336Y-100445928D01*
X147638679Y-100492380D01*
X147577602Y-100538073D01*
X147517269Y-100582887D01*
X147457844Y-100626701D01*
X147399492Y-100669396D01*
X147342375Y-100710852D01*
X147286657Y-100750949D01*
X147232503Y-100789566D01*
X147180075Y-100826584D01*
X147129539Y-100861884D01*
X147081057Y-100895343D01*
X147034794Y-100926844D01*
X146990912Y-100956266D01*
X146962186Y-100975241D01*
X146892022Y-101020659D01*
X146821132Y-101065296D01*
X146749210Y-101109328D01*
X146675951Y-101152928D01*
X146601046Y-101196274D01*
X146524192Y-101239539D01*
X146445081Y-101282899D01*
X146363407Y-101326529D01*
X146278864Y-101370604D01*
X146208944Y-101406311D01*
X146129478Y-101446086D01*
X146048197Y-101485896D01*
X145965591Y-101525518D01*
X145882150Y-101564730D01*
X145798364Y-101603309D01*
X145714723Y-101641034D01*
X145631717Y-101677682D01*
X145549837Y-101713031D01*
X145469571Y-101746859D01*
X145391411Y-101778943D01*
X145355478Y-101793383D01*
X145343420Y-101798213D01*
X145332514Y-101802623D01*
X145323156Y-101806446D01*
X145315745Y-101809520D01*
X145310679Y-101811680D01*
X145308356Y-101812762D01*
X145308252Y-101812851D01*
X145310048Y-101813130D01*
X145314835Y-101813666D01*
X145322112Y-101814409D01*
X145331381Y-101815308D01*
X145342142Y-101816313D01*
X145348043Y-101816851D01*
X145366867Y-101818507D01*
X145383987Y-101819908D01*
X145399990Y-101821081D01*
X145415465Y-101822052D01*
X145430997Y-101822849D01*
X145447174Y-101823499D01*
X145464584Y-101824030D01*
X145483812Y-101824468D01*
X145505447Y-101824841D01*
X145526648Y-101825133D01*
X145587516Y-101825327D01*
X145645736Y-101824301D01*
X145701960Y-101822009D01*
X145756840Y-101818405D01*
X145811028Y-101813442D01*
X145865178Y-101807074D01*
X145919942Y-101799256D01*
X145941806Y-101795772D01*
X146001287Y-101785117D01*
X146058256Y-101773007D01*
X146113474Y-101759235D01*
X146167704Y-101743594D01*
X146221707Y-101725879D01*
X146276245Y-101705882D01*
X146283393Y-101703112D01*
X146337312Y-101681810D01*
X146390807Y-101660118D01*
X146443668Y-101638136D01*
X146495683Y-101615962D01*
X146546641Y-101593696D01*
X146596332Y-101571438D01*
X146644544Y-101549287D01*
X146691067Y-101527342D01*
X146735689Y-101505703D01*
X146778199Y-101484469D01*
X146818386Y-101463740D01*
X146856040Y-101443615D01*
X146890949Y-101424194D01*
X146922903Y-101405575D01*
X146949363Y-101389332D01*
X146958918Y-101383535D01*
X146966087Y-101379824D01*
X146971241Y-101378124D01*
X146974752Y-101378360D01*
X146976990Y-101380457D01*
X146978132Y-101383498D01*
X146978295Y-101384853D01*
X146978032Y-101386503D01*
X146977180Y-101388674D01*
X146975575Y-101391589D01*
X146973054Y-101395474D01*
X146969453Y-101400553D01*
X146964611Y-101407051D01*
X146958363Y-101415193D01*
X146950546Y-101425203D01*
X146940997Y-101437306D01*
X146929553Y-101451728D01*
X146918409Y-101465731D01*
X146856700Y-101541559D01*
X146794810Y-101614287D01*
X146732400Y-101684316D01*
X146732052Y-101684697D01*
X146721599Y-101695959D01*
X146709038Y-101709173D01*
X146694756Y-101723954D01*
X146679136Y-101739920D01*
X146662564Y-101756688D01*
X146645424Y-101773875D01*
X146628101Y-101791097D01*
X146610981Y-101807972D01*
X146594448Y-101824117D01*
X146578886Y-101839148D01*
X146564681Y-101852683D01*
X146552218Y-101864338D01*
X146544400Y-101871476D01*
X146502154Y-101908890D01*
X146458597Y-101946276D01*
X146414343Y-101983134D01*
X146370008Y-102018963D01*
X146326208Y-102053261D01*
X146283558Y-102085527D01*
X146261119Y-102102005D01*
X146251465Y-102109058D01*
X146242866Y-102115424D01*
X146235695Y-102120822D01*
X146230322Y-102124969D01*
X146227121Y-102127582D01*
X146226376Y-102128381D01*
X146228161Y-102127952D01*
X146232758Y-102126278D01*
X146239767Y-102123526D01*
X146248794Y-102119860D01*
X146259442Y-102115447D01*
X146271313Y-102110452D01*
X146284010Y-102105041D01*
X146297138Y-102099379D01*
X146310300Y-102093632D01*
X146321931Y-102088486D01*
X146362372Y-102070056D01*
X146404706Y-102049992D01*
X146448011Y-102028750D01*
X146491368Y-102006788D01*
X146533858Y-101984562D01*
X146565420Y-101967548D01*
X146654606Y-101917254D01*
X146741250Y-101865284D01*
X146825276Y-101811698D01*
X146906606Y-101756555D01*
X146985161Y-101699916D01*
X147060865Y-101641840D01*
X147133639Y-101582389D01*
X147203405Y-101521623D01*
X147270087Y-101459600D01*
X147333607Y-101396382D01*
X147393886Y-101332029D01*
X147410133Y-101313859D01*
X147471159Y-101242695D01*
X147530601Y-101168958D01*
X147588294Y-101092919D01*
X147644074Y-101014850D01*
X147697775Y-100935023D01*
X147749234Y-100853711D01*
X147798285Y-100771184D01*
X147844765Y-100687714D01*
X147888508Y-100603574D01*
X147929351Y-100519036D01*
X147967127Y-100434370D01*
X148001674Y-100349849D01*
X148015035Y-100314849D01*
X148019515Y-100302680D01*
X148024336Y-100289261D01*
X148029375Y-100274966D01*
X148034507Y-100260168D01*
X148039610Y-100245240D01*
X148044559Y-100230555D01*
X148049231Y-100216488D01*
X148053501Y-100203411D01*
X148057246Y-100191699D01*
X148060342Y-100181723D01*
X148062665Y-100173859D01*
X148064092Y-100168478D01*
X148064498Y-100165956D01*
X148064449Y-100165829D01*
X148064449Y-99800331D01*
X148081537Y-99789378D01*
X148093553Y-99781356D01*
X148105890Y-99772992D01*
X148117858Y-99764764D01*
X148128767Y-99757148D01*
X148137926Y-99750623D01*
X148143043Y-99746872D01*
X148164258Y-99731027D01*
X148167927Y-99717262D01*
X148173758Y-99692712D01*
X148178471Y-99666816D01*
X148182203Y-99638759D01*
X148183870Y-99622306D01*
X148184642Y-99614701D01*
X148185420Y-99608475D01*
X148186097Y-99604403D01*
X148186464Y-99603241D01*
X148188552Y-99602454D01*
X148193070Y-99601327D01*
X148198407Y-99600228D01*
X148209413Y-99598152D01*
X148196275Y-99594227D01*
X148142719Y-99577969D01*
X148092540Y-99562206D01*
X148045652Y-99546906D01*
X148001968Y-99532035D01*
X147961402Y-99517562D01*
X147923866Y-99503454D01*
X147889276Y-99489679D01*
X147857544Y-99476204D01*
X147828583Y-99462997D01*
X147802308Y-99450025D01*
X147781764Y-99439017D01*
X147757205Y-99424723D01*
X147730578Y-99408138D01*
X147702229Y-99389513D01*
X147672501Y-99369099D01*
X147641741Y-99347145D01*
X147610294Y-99323901D01*
X147578505Y-99299617D01*
X147546719Y-99274544D01*
X147515282Y-99248930D01*
X147490331Y-99227977D01*
X147482839Y-99221627D01*
X147476190Y-99216047D01*
X147470878Y-99211649D01*
X147467400Y-99208845D01*
X147466348Y-99208066D01*
X147466348Y-99105504D01*
X147494469Y-99132002D01*
X147538217Y-99170577D01*
X147583026Y-99207551D01*
X147628471Y-99242575D01*
X147674132Y-99275301D01*
X147719587Y-99305381D01*
X147764414Y-99332468D01*
X147764475Y-99332503D01*
X147813029Y-99358556D01*
X147864413Y-99382610D01*
X147918568Y-99404642D01*
X147975430Y-99424631D01*
X148034941Y-99442555D01*
X148097038Y-99458393D01*
X148148979Y-99469635D01*
X148183136Y-99476123D01*
X148216771Y-99481782D01*
X148250759Y-99486735D01*
X148285972Y-99491103D01*
X148323284Y-99495007D01*
X148346924Y-99497167D01*
X148361212Y-99498164D01*
X148378598Y-99498967D01*
X148398683Y-99499579D01*
X148421067Y-99500005D01*
X148445350Y-99500249D01*
X148471133Y-99500315D01*
X148498017Y-99500208D01*
X148525602Y-99499932D01*
X148553487Y-99499491D01*
X148581275Y-99498889D01*
X148608564Y-99498131D01*
X148634956Y-99497222D01*
X148660051Y-99496164D01*
X148683450Y-99494963D01*
X148704752Y-99493623D01*
X148709531Y-99493280D01*
X148741033Y-99490534D01*
X148769202Y-99487172D01*
X148794164Y-99483154D01*
X148816041Y-99478434D01*
X148834957Y-99472973D01*
X148851037Y-99466725D01*
X148864405Y-99459651D01*
X148875183Y-99451706D01*
X148883497Y-99442848D01*
X148889471Y-99433036D01*
X148890227Y-99431352D01*
X148895135Y-99417611D01*
X148899447Y-99400781D01*
X148903068Y-99381240D01*
X148903468Y-99378623D01*
X148904672Y-99367901D01*
X148905568Y-99354355D01*
X148906159Y-99338649D01*
X148906443Y-99321449D01*
X148906422Y-99303419D01*
X148906097Y-99285226D01*
X148905468Y-99267534D01*
X148904535Y-99251008D01*
X148903335Y-99236662D01*
X148896240Y-99178983D01*
X148886475Y-99119400D01*
X148874128Y-99058174D01*
X148859285Y-98995565D01*
X148842030Y-98931833D01*
X148822452Y-98867241D01*
X148800635Y-98802047D01*
X148776665Y-98736514D01*
X148750629Y-98670901D01*
X148722613Y-98605469D01*
X148692703Y-98540478D01*
X148660985Y-98476190D01*
X148637288Y-98430878D01*
X148592147Y-98349976D01*
X148544766Y-98271644D01*
X148495084Y-98195822D01*
X148443040Y-98122444D01*
X148388576Y-98051448D01*
X148331630Y-97982771D01*
X148272144Y-97916350D01*
X148210055Y-97852121D01*
X148145306Y-97790020D01*
X148077835Y-97729986D01*
X148007582Y-97671954D01*
X147934487Y-97615861D01*
X147858491Y-97561645D01*
X147779533Y-97509241D01*
X147734696Y-97481092D01*
X147683198Y-97450189D01*
X147628837Y-97419076D01*
X147572215Y-97388057D01*
X147513936Y-97357432D01*
X147454602Y-97327505D01*
X147394815Y-97298578D01*
X147335179Y-97270953D01*
X147276296Y-97244933D01*
X147218769Y-97220820D01*
X147203924Y-97214826D01*
X147157162Y-97197683D01*
X147107809Y-97182632D01*
X147056126Y-97169734D01*
X147002374Y-97159049D01*
X146946816Y-97150637D01*
X146906131Y-97146051D01*
X146855237Y-97141999D01*
X146801534Y-97139423D01*
X146745392Y-97138325D01*
X146745392Y-96901061D01*
X146819998Y-96924881D01*
X146915572Y-96958481D01*
X147011350Y-96995239D01*
X147107440Y-97035198D01*
X147203952Y-97078398D01*
X147300996Y-97124881D01*
X147398681Y-97174690D01*
X147479820Y-97218308D01*
X147580918Y-97275349D01*
X147678948Y-97333588D01*
X147773870Y-97392998D01*
X147865647Y-97453554D01*
X147954240Y-97515229D01*
X148039610Y-97577997D01*
X148121720Y-97641831D01*
X148200530Y-97706705D01*
X148240944Y-97741497D01*
X148279583Y-97775972D01*
X148318934Y-97812394D01*
X148358476Y-97850236D01*
X148397685Y-97888972D01*
X148436036Y-97928075D01*
X148473008Y-97967021D01*
X148508077Y-98005282D01*
X148540718Y-98042332D01*
X148544185Y-98046366D01*
X148600195Y-98113982D01*
X148653071Y-98182474D01*
X148702785Y-98251784D01*
X148749311Y-98321856D01*
X148792621Y-98392632D01*
X148832690Y-98464056D01*
X148869490Y-98536069D01*
X148902994Y-98608615D01*
X148933175Y-98681637D01*
X148960008Y-98755077D01*
X148983464Y-98828878D01*
X149003517Y-98902984D01*
X149020141Y-98977336D01*
X149033308Y-99051878D01*
X149040486Y-99104407D01*
X149045404Y-99152569D01*
X149048803Y-99202058D01*
X149050672Y-99252071D01*
X149051000Y-99301803D01*
X149049777Y-99350451D01*
G37*
X149049777Y-99350451D02*
X149046991Y-99397211D01*
X149044825Y-99421469D01*
X149042971Y-99438352D01*
X149040799Y-99455547D01*
X149038385Y-99472626D01*
X149035805Y-99489165D01*
X149033136Y-99504738D01*
X149030453Y-99518918D01*
X149027833Y-99531279D01*
X149025353Y-99541397D01*
X149023088Y-99548845D01*
X149021273Y-99552952D01*
X149014110Y-99561856D01*
X149004021Y-99570063D01*
X148990932Y-99577598D01*
X148974770Y-99584486D01*
X148955465Y-99590753D01*
X148932941Y-99596424D01*
X148907128Y-99601525D01*
X148877951Y-99606081D01*
X148864523Y-99607858D01*
X148841448Y-99610548D01*
X148815486Y-99613187D01*
X148787255Y-99615732D01*
X148757370Y-99618135D01*
X148726448Y-99620351D01*
X148695107Y-99622333D01*
X148663963Y-99624035D01*
X148633632Y-99625412D01*
X148624796Y-99625754D01*
X148602529Y-99626446D01*
X148581115Y-99626811D01*
X148560096Y-99626829D01*
X148539017Y-99626479D01*
X148517423Y-99625740D01*
X148494857Y-99624589D01*
X148470864Y-99623006D01*
X148444988Y-99620969D01*
X148416772Y-99618457D01*
X148385761Y-99615450D01*
X148370220Y-99613872D01*
X148360319Y-99612920D01*
X148351661Y-99612210D01*
X148344833Y-99611781D01*
X148340421Y-99611672D01*
X148339020Y-99611844D01*
X148338376Y-99613713D01*
X148336962Y-99618628D01*
X148334873Y-99626243D01*
X148332199Y-99636208D01*
X148329035Y-99648175D01*
X148325474Y-99661797D01*
X148321608Y-99676724D01*
X148318713Y-99687984D01*
X148301991Y-99752492D01*
X148285681Y-99813867D01*
X148269679Y-99872443D01*
X148253884Y-99928553D01*
X148238192Y-99982530D01*
X148222502Y-100034707D01*
X148206710Y-100085417D01*
X148190714Y-100134994D01*
X148174413Y-100183771D01*
X148157702Y-100232080D01*
X148140481Y-100280255D01*
X148122645Y-100328630D01*
X148116963Y-100343752D01*
X148079768Y-100438949D01*
X148040987Y-100531644D01*
X148000663Y-100621760D01*
X147958838Y-100709223D01*
X147915556Y-100793955D01*
X147870859Y-100875880D01*
X147824788Y-100954921D01*
X147777388Y-101031004D01*
X147728699Y-101104050D01*
X147678766Y-101173984D01*
X147627630Y-101240730D01*
X147592781Y-101283552D01*
X147544430Y-101339645D01*
X147492837Y-101395941D01*
X147438238Y-101452241D01*
X147380871Y-101508349D01*
X147320974Y-101564064D01*
X147258784Y-101619191D01*
X147194539Y-101673529D01*
X147128476Y-101726882D01*
X147060833Y-101779052D01*
X146991848Y-101829839D01*
X146921757Y-101879046D01*
X146850799Y-101926476D01*
X146779211Y-101971929D01*
X146735327Y-101998605D01*
X146664316Y-102039618D01*
X146590340Y-102079599D01*
X146513838Y-102118334D01*
X146435251Y-102155612D01*
X146355020Y-102191223D01*
X146273584Y-102224953D01*
X146224608Y-102244094D01*
X146134217Y-102277232D01*
X146043390Y-102307759D01*
X145952518Y-102335561D01*
X145861992Y-102360524D01*
X145772202Y-102382534D01*
X145690434Y-102400106D01*
X145676247Y-102402875D01*
X145661033Y-102405723D01*
X145645188Y-102408585D01*
X145629105Y-102411399D01*
X145613181Y-102414101D01*
X145597810Y-102416628D01*
X145583387Y-102418916D01*
X145570307Y-102420901D01*
X145558964Y-102422521D01*
X145549755Y-102423712D01*
X145543073Y-102424410D01*
X145539314Y-102424552D01*
X145538791Y-102424469D01*
X145539711Y-102423403D01*
X145543447Y-102420650D01*
X145549813Y-102416326D01*
X145558622Y-102410548D01*
X145569688Y-102403431D01*
X145582822Y-102395093D01*
X145597838Y-102385649D01*
X145614550Y-102375216D01*
X145632770Y-102363909D01*
X145652311Y-102351846D01*
X145672987Y-102339143D01*
X145694611Y-102325915D01*
X145716995Y-102312279D01*
X145739952Y-102298351D01*
X145763297Y-102284249D01*
X145786841Y-102270087D01*
X145790282Y-102268022D01*
X145823798Y-102247823D01*
X145855090Y-102228741D01*
X145884562Y-102210507D01*
X145912618Y-102192848D01*
X145939663Y-102175493D01*
X145966100Y-102158171D01*
X145992334Y-102140611D01*
X146018769Y-102122542D01*
X146045809Y-102103693D01*
X146073857Y-102083792D01*
X146103319Y-102062568D01*
X146134598Y-102039750D01*
X146168098Y-102015066D01*
X146176674Y-102008715D01*
X146191645Y-101997676D01*
X146207961Y-101985740D01*
X146224895Y-101973435D01*
X146241720Y-101961287D01*
X146257708Y-101949821D01*
X146272130Y-101939564D01*
X146280902Y-101933386D01*
X146307918Y-101914408D01*
X146332327Y-101897144D01*
X146354075Y-101881635D01*
X146373105Y-101867921D01*
X146389362Y-101856042D01*
X146402790Y-101846038D01*
X146409517Y-101840913D01*
X146415004Y-101836401D01*
X146422273Y-101830002D01*
X146430919Y-101822107D01*
X146440539Y-101813112D01*
X146450727Y-101803408D01*
X146461081Y-101793391D01*
X146471195Y-101783452D01*
X146480667Y-101773985D01*
X146489092Y-101765385D01*
X146496065Y-101758043D01*
X146501184Y-101752354D01*
X146503688Y-101749233D01*
X146507624Y-101743700D01*
X146493211Y-101749778D01*
X146475525Y-101756853D01*
X146454725Y-101764502D01*
X146431137Y-101772630D01*
X146405087Y-101781145D01*
X146376901Y-101789953D01*
X146346905Y-101798960D01*
X146315423Y-101808071D01*
X146282782Y-101817195D01*
X146249308Y-101826236D01*
X146215326Y-101835102D01*
X146181162Y-101843697D01*
X146147141Y-101851930D01*
X146113590Y-101859706D01*
X146102089Y-101862286D01*
X146007533Y-101882182D01*
X145914733Y-101899400D01*
X145823260Y-101914001D01*
X145732685Y-101926044D01*
X145642579Y-101935591D01*
X145552512Y-101942701D01*
X145512634Y-101945081D01*
X145483438Y-101946334D01*
X145451513Y-101947130D01*
X145417603Y-101947479D01*
X145382451Y-101947395D01*
X145346801Y-101946887D01*
X145311396Y-101945969D01*
X145276979Y-101944650D01*
X145244293Y-101942944D01*
X145214082Y-101940860D01*
X145207834Y-101940352D01*
X145138343Y-101933170D01*
X145066999Y-101923140D01*
X144993938Y-101910300D01*
X144919294Y-101894690D01*
X144843200Y-101876347D01*
X144765792Y-101855310D01*
X144687204Y-101831617D01*
X144607570Y-101805307D01*
X144527024Y-101776417D01*
X144445701Y-101744987D01*
X144363736Y-101711054D01*
X144288803Y-101678079D01*
X144278078Y-101673190D01*
X144266017Y-101667631D01*
X144252979Y-101661572D01*
X144239321Y-101655183D01*
X144225402Y-101648635D01*
X144211579Y-101642099D01*
X144198212Y-101635745D01*
X144185657Y-101629743D01*
X144174274Y-101624264D01*
X144164420Y-101619479D01*
X144156454Y-101615558D01*
X144150733Y-101612671D01*
X144147616Y-101610990D01*
X144147144Y-101610631D01*
X144148941Y-101610647D01*
X144153503Y-101611064D01*
X144160127Y-101611808D01*
X144167512Y-101612728D01*
X144188840Y-101615260D01*
X144213176Y-101617719D01*
X144240026Y-101620069D01*
X144268896Y-101622272D01*
X144299290Y-101624292D01*
X144330714Y-101626091D01*
X144362674Y-101627632D01*
X144368995Y-101627902D01*
X144381329Y-101628315D01*
X144396153Y-101628642D01*
X144413047Y-101628885D01*
X144431593Y-101629048D01*
X144451373Y-101629132D01*
X144471968Y-101629142D01*
X144492959Y-101629079D01*
X144513928Y-101628946D01*
X144534456Y-101628747D01*
X144554126Y-101628485D01*
X144572517Y-101628161D01*
X144589213Y-101627780D01*
X144603793Y-101627344D01*
X144615841Y-101626855D01*
X144624936Y-101626317D01*
X144627137Y-101626136D01*
X144644643Y-101624498D01*
X144661951Y-101622747D01*
X144679544Y-101620825D01*
X144697901Y-101618672D01*
X144717504Y-101616229D01*
X144738833Y-101613437D01*
X144762370Y-101610236D01*
X144788596Y-101606568D01*
X144805813Y-101604119D01*
X144826663Y-101601139D01*
X144844888Y-101598541D01*
X144860931Y-101596267D01*
X144875236Y-101594261D01*
X144888246Y-101592467D01*
X144900404Y-101590828D01*
X144912154Y-101589287D01*
X144923939Y-101587788D01*
X144936202Y-101586274D01*
X144949387Y-101584689D01*
X144963937Y-101582977D01*
X144980295Y-101581079D01*
X144998905Y-101578941D01*
X145020210Y-101576505D01*
X145038793Y-101574383D01*
X145072840Y-101570475D01*
X145103664Y-101566886D01*
X145131528Y-101563580D01*
X145156694Y-101560523D01*
X145179425Y-101557677D01*
X145199983Y-101555007D01*
X145218632Y-101552477D01*
X145235633Y-101550052D01*
X145251250Y-101547695D01*
X145265744Y-101545371D01*
X145279378Y-101543043D01*
X145292416Y-101540677D01*
X145305118Y-101538235D01*
X145308558Y-101537552D01*
X145325639Y-101533954D01*
X145341234Y-101530310D01*
X145354855Y-101526748D01*
X145366014Y-101523396D01*
X145374223Y-101520382D01*
X145374663Y-101520192D01*
X145376849Y-101519143D01*
X145377455Y-101518430D01*
X145376073Y-101517983D01*
X145372289Y-101517730D01*
X145365695Y-101517599D01*
X145359358Y-101517544D01*
X145328704Y-101516351D01*
X145295562Y-101513254D01*
X145260314Y-101508352D01*
X145223345Y-101501746D01*
X145185041Y-101493535D01*
X145145784Y-101483821D01*
X145105959Y-101472702D01*
X145065951Y-101460279D01*
X145026143Y-101446651D01*
X144986920Y-101431920D01*
X144948667Y-101416185D01*
X144918847Y-101402860D01*
X144904682Y-101396193D01*
X144891195Y-101389622D01*
X144878066Y-101382959D01*
X144864974Y-101376014D01*
X144851599Y-101368599D01*
X144837620Y-101360525D01*
X144822716Y-101351601D01*
X144806567Y-101341640D01*
X144788851Y-101330453D01*
X144769248Y-101317849D01*
X144747438Y-101303641D01*
X144723099Y-101287639D01*
X144720855Y-101286158D01*
X144697106Y-101270553D01*
X144675888Y-101256769D01*
X144656869Y-101244607D01*
X144639721Y-101233865D01*
X144624112Y-101224344D01*
X144609713Y-101215843D01*
X144596192Y-101208160D01*
X144583220Y-101201096D01*
X144570467Y-101194449D01*
X144566952Y-101192667D01*
X144537001Y-101178223D01*
X144508836Y-101166068D01*
X144481805Y-101155976D01*
X144455250Y-101147725D01*
X144428518Y-101141091D01*
X144400954Y-101135850D01*
X144400289Y-101135741D01*
X144352275Y-101128446D01*
X144301343Y-101121685D01*
X144248049Y-101115516D01*
X144192946Y-101110000D01*
X144136590Y-101105197D01*
X144079534Y-101101165D01*
X144077972Y-101101066D01*
X144064483Y-101100360D01*
X144048075Y-101099737D01*
X144029193Y-101099198D01*
X144008282Y-101098747D01*
X143985784Y-101098382D01*
X143962146Y-101098107D01*
X143937810Y-101097922D01*
X143913222Y-101097828D01*
X143888826Y-101097828D01*
X143865067Y-101097921D01*
X143842388Y-101098110D01*
X143821233Y-101098396D01*
X143802049Y-101098780D01*
X143785277Y-101099263D01*
X143771364Y-101099847D01*
X143766165Y-101100143D01*
X143709303Y-101104165D01*
X143655500Y-101108892D01*
X143604371Y-101114373D01*
X143555533Y-101120659D01*
X143508603Y-101127799D01*
X143463197Y-101135843D01*
X143418932Y-101144842D01*
X143413193Y-101146095D01*
X143401235Y-101148806D01*
X143388461Y-101151838D01*
X143375542Y-101155020D01*
X143363149Y-101158179D01*
X143351953Y-101161143D01*
X143342626Y-101163740D01*
X143335840Y-101165798D01*
X143334365Y-101166297D01*
X143334153Y-101165654D01*
X143336298Y-101162832D01*
X143340587Y-101158040D01*
X143346810Y-101151483D01*
X143354756Y-101143367D01*
X143364213Y-101133899D01*
X143374971Y-101123285D01*
X143386817Y-101111732D01*
X143399542Y-101099446D01*
X143412933Y-101086633D01*
X143426780Y-101073499D01*
X143440871Y-101060252D01*
X143454996Y-101047097D01*
X143468943Y-101034242D01*
X143477131Y-101026764D01*
X143553813Y-100958457D01*
X143632551Y-100891159D01*
X143712551Y-100825524D01*
X143793024Y-100762206D01*
X143845868Y-100722109D01*
X143923021Y-100665698D01*
X143999633Y-100612195D01*
X144075629Y-100561647D01*
X144150929Y-100514100D01*
X144225455Y-100469600D01*
X144299130Y-100428193D01*
X144371875Y-100389925D01*
X144443612Y-100354843D01*
X144514264Y-100322992D01*
X144539551Y-100312270D01*
X144563617Y-100302414D01*
X144590616Y-100291669D01*
X144620134Y-100280186D01*
X144651759Y-100268113D01*
X144685078Y-100255601D01*
X144719676Y-100242800D01*
X144755142Y-100229859D01*
X144791061Y-100216929D01*
X144827022Y-100204159D01*
X144862610Y-100191699D01*
X144897413Y-100179699D01*
X144931017Y-100168308D01*
X144963009Y-100157678D01*
X144989209Y-100149164D01*
X145000289Y-100145553D01*
X145010123Y-100142245D01*
X145018263Y-100139400D01*
X145024260Y-100137177D01*
X145027666Y-100135735D01*
X145028274Y-100135283D01*
X145026503Y-100134231D01*
X145022090Y-100132082D01*
X145015616Y-100129107D01*
X145007664Y-100125576D01*
X145003676Y-100123843D01*
X144994090Y-100119630D01*
X144987119Y-100116324D01*
X144982121Y-100113535D01*
X144978457Y-100110874D01*
X144975485Y-100107951D01*
X144973371Y-100105409D01*
X144966973Y-100097298D01*
X144922457Y-100096153D01*
X144908401Y-100095820D01*
X144893761Y-100095526D01*
X144879453Y-100095284D01*
X144866393Y-100095110D01*
X144855498Y-100095018D01*
X144851483Y-100095007D01*
X144825025Y-100095007D01*
X144804909Y-100115277D01*
X144783447Y-100136255D01*
X144762829Y-100155114D01*
X144743226Y-100171726D01*
X144724809Y-100185957D01*
X144707751Y-100197679D01*
X144692222Y-100206759D01*
X144678394Y-100213068D01*
X144675310Y-100214168D01*
X144667757Y-100216351D01*
X144661211Y-100217216D01*
X144653687Y-100216982D01*
X144651662Y-100216801D01*
X144620272Y-100212072D01*
X144588847Y-100203974D01*
X144557610Y-100192633D01*
X144526781Y-100178175D01*
X144496581Y-100160725D01*
X144467233Y-100140410D01*
X144438957Y-100117354D01*
X144411976Y-100091684D01*
X144391216Y-100069054D01*
X144371748Y-100045514D01*
X144353605Y-100021437D01*
X144336432Y-99996266D01*
X144319874Y-99969448D01*
X144303575Y-99940426D01*
X144287181Y-99908645D01*
X144282775Y-99899690D01*
X144257526Y-99844126D01*
X144234839Y-99786328D01*
X144214778Y-99726521D01*
X144197409Y-99664933D01*
X144182798Y-99601787D01*
X144171010Y-99537309D01*
X144164813Y-99494166D01*
X144162543Y-99475870D01*
X144160687Y-99459361D01*
X144159208Y-99443963D01*
X144158067Y-99429005D01*
X144157226Y-99413811D01*
X144156646Y-99397708D01*
X144156288Y-99380023D01*
X144156116Y-99360082D01*
X144156086Y-99340890D01*
X144156314Y-99308292D01*
X144156982Y-99277356D01*
X144158138Y-99247282D01*
X144159828Y-99217272D01*
X144162102Y-99186528D01*
X144165006Y-99154251D01*
X144168587Y-99119642D01*
X144170086Y-99106159D01*
X144177837Y-99043856D01*
X144186813Y-98983785D01*
X144197139Y-98925500D01*
X144208940Y-98868555D01*
X144222340Y-98812504D01*
X144237464Y-98756901D01*
X144254437Y-98701298D01*
X144273383Y-98645251D01*
X144294426Y-98588311D01*
X144317692Y-98530035D01*
X144343306Y-98469974D01*
X144355366Y-98442835D01*
X144359830Y-98432905D01*
X144332325Y-98452351D01*
X144252413Y-98506913D01*
X144169731Y-98559598D01*
X144084546Y-98610272D01*
X143997128Y-98658799D01*
X143907745Y-98705044D01*
X143816667Y-98748873D01*
X143724162Y-98790150D01*
X143630498Y-98828741D01*
X143535945Y-98864511D01*
X143455234Y-98892544D01*
X143393457Y-98912471D01*
X143334132Y-98930282D01*
X143277294Y-98945969D01*
X143222981Y-98959523D01*
X143171230Y-98970936D01*
X143122078Y-98980200D01*
X143075563Y-98987307D01*
X143031720Y-98992248D01*
X142996282Y-98994754D01*
X142985798Y-98995187D01*
X142975967Y-98995436D01*
X142967566Y-98995492D01*
X142961373Y-98995347D01*
X142958883Y-98995139D01*
X142951263Y-98994049D01*
X142961510Y-98989090D01*
X142972981Y-98983418D01*
X142987087Y-98976241D01*
X143003413Y-98967781D01*
X143021545Y-98958262D01*
X143041070Y-98947905D01*
X143061575Y-98936934D01*
X143082644Y-98925570D01*
X143103865Y-98914036D01*
X143124824Y-98902555D01*
X143145106Y-98891348D01*
X143164298Y-98880639D01*
X143181986Y-98870650D01*
X143184484Y-98869227D01*
X143216658Y-98850725D01*
X143246166Y-98833399D01*
X143273507Y-98816917D01*
X143299180Y-98800952D01*
X143323684Y-98785173D01*
X143347516Y-98769251D01*
X143371175Y-98752856D01*
X143395160Y-98735659D01*
X143419969Y-98717331D01*
X143446102Y-98697540D01*
X143457862Y-98688505D01*
X143476708Y-98674020D01*
X143493122Y-98661521D01*
X143507397Y-98650796D01*
X143519827Y-98641631D01*
X143530707Y-98633814D01*
X143540332Y-98627132D01*
X143548995Y-98621373D01*
X143556991Y-98616324D01*
X143561618Y-98613530D01*
X143568206Y-98609495D01*
X143573314Y-98606123D01*
X143576411Y-98603783D01*
X143577018Y-98602854D01*
X143574678Y-98602971D01*
X143569064Y-98603741D01*
X143560335Y-98605134D01*
X143548653Y-98607122D01*
X143534179Y-98609674D01*
X143517073Y-98612760D01*
X143497498Y-98616350D01*
X143475613Y-98620415D01*
X143451580Y-98624925D01*
X143425559Y-98629850D01*
X143397713Y-98635159D01*
X143368201Y-98640824D01*
X143337184Y-98646813D01*
X143304824Y-98653098D01*
X143280062Y-98657931D01*
X143207867Y-98672181D01*
X143133816Y-98687051D01*
X143058863Y-98702344D01*
X142983961Y-98717863D01*
X142910066Y-98733412D01*
X142838131Y-98748792D01*
X142797462Y-98757607D01*
X142766810Y-98764196D01*
X142738967Y-98769978D01*
X142713354Y-98775048D01*
X142689396Y-98779502D01*
X142666515Y-98783437D01*
X142644134Y-98786950D01*
X142621677Y-98790136D01*
X142598568Y-98793093D01*
X142574228Y-98795916D01*
X142557475Y-98797726D01*
X142530195Y-98800387D01*
X142501124Y-98802832D01*
X142470771Y-98805040D01*
X142439644Y-98806990D01*
X142408252Y-98808660D01*
X142377102Y-98810028D01*
X142346704Y-98811073D01*
X142317566Y-98811774D01*
X142290197Y-98812109D01*
X142265104Y-98812057D01*
X142242796Y-98811595D01*
X142235570Y-98811326D01*
X142207079Y-98810117D01*
X142226521Y-98779462D01*
X142263831Y-98721644D01*
X142303564Y-98661982D01*
X142345433Y-98600857D01*
X142389156Y-98538650D01*
X142434448Y-98475741D01*
X142481025Y-98412513D01*
X142528602Y-98349345D01*
X142576896Y-98286620D01*
X142625622Y-98224717D01*
X142674496Y-98164018D01*
X142723233Y-98104905D01*
X142771549Y-98047757D01*
X142778006Y-98040235D01*
X142838997Y-97970475D01*
X142900583Y-97902328D01*
X142962535Y-97836027D01*
X143024621Y-97771804D01*
X143086613Y-97709892D01*
X143148279Y-97650523D01*
X143209390Y-97593931D01*
X143269714Y-97540347D01*
X143291448Y-97521621D01*
X143346673Y-97475420D01*
X143403946Y-97429379D01*
X143462641Y-97383965D01*
X143522132Y-97339642D01*
X143581793Y-97296875D01*
X143640999Y-97256130D01*
X143699124Y-97217871D01*
X143706606Y-97213079D01*
X143786269Y-97163846D01*
X143868300Y-97116266D01*
X143952031Y-97070692D01*
X144036795Y-97027479D01*
X144121921Y-96986978D01*
X144198280Y-96953146D01*
X144233577Y-96938359D01*
X144270407Y-96923486D01*
X144308203Y-96908733D01*
X144346397Y-96894306D01*
X144384422Y-96880412D01*
X144421709Y-96867257D01*
X144457692Y-96855050D01*
X144491802Y-96843996D01*
X144523472Y-96834302D01*
X144529086Y-96832654D01*
X144578356Y-96819083D01*
X144629398Y-96806576D01*
X144682366Y-96795110D01*
X144737418Y-96784665D01*
X144794711Y-96775219D01*
X144854399Y-96766750D01*
X144916640Y-96759237D01*
X144958213Y-96755027D01*
X144958213Y-96906791D01*
X144917048Y-96907654D01*
X144858764Y-96910302D01*
X144801882Y-96915830D01*
X144745746Y-96924339D01*
X144689701Y-96935927D01*
X144633089Y-96950695D01*
X144632393Y-96950895D01*
X144614031Y-96956363D01*
X144592748Y-96963027D01*
X144568870Y-96970770D01*
X144542722Y-96979472D01*
X144514629Y-96989014D01*
X144484918Y-96999279D01*
X144453915Y-97010148D01*
X144421945Y-97021501D01*
X144389333Y-97033221D01*
X144356406Y-97045188D01*
X144323490Y-97057284D01*
X144290910Y-97069390D01*
X144258992Y-97081388D01*
X144228061Y-97093159D01*
X144198444Y-97104584D01*
X144170466Y-97115545D01*
X144144452Y-97125922D01*
X144120730Y-97135598D01*
X144099624Y-97144454D01*
X144091986Y-97147740D01*
X144023508Y-97178265D01*
X143958263Y-97209053D01*
X143895978Y-97240273D01*
X143836382Y-97272096D01*
X143779207Y-97304689D01*
X143724180Y-97338224D01*
X143671030Y-97372870D01*
X143619488Y-97408797D01*
X143569283Y-97446173D01*
X143520143Y-97485169D01*
X143471798Y-97525954D01*
X143432462Y-97560940D01*
X143419776Y-97572630D01*
X143404925Y-97586568D01*
X143388183Y-97602484D01*
X143369821Y-97620109D01*
X143350112Y-97639173D01*
X143329328Y-97659407D01*
X143307740Y-97680540D01*
X143285622Y-97702304D01*
X143263246Y-97724429D01*
X143240884Y-97746645D01*
X143218808Y-97768682D01*
X143197291Y-97790272D01*
X143176605Y-97811144D01*
X143157022Y-97831029D01*
X143138814Y-97849657D01*
X143122254Y-97866760D01*
X143107614Y-97882066D01*
X143100632Y-97889459D01*
X143090225Y-97900595D01*
X143078825Y-97912894D01*
X143066641Y-97926126D01*
X143053879Y-97940059D01*
X143040746Y-97954463D01*
X143027450Y-97969107D01*
X143014197Y-97983759D01*
X143001195Y-97998189D01*
X142988651Y-98012167D01*
X142976772Y-98025460D01*
X142965765Y-98037839D01*
X142955837Y-98049073D01*
X142947195Y-98058929D01*
X142940046Y-98067179D01*
X142934598Y-98073591D01*
X142931058Y-98077933D01*
X142929632Y-98079975D01*
X142929623Y-98080094D01*
X142931344Y-98079758D01*
X142935937Y-98078568D01*
X142942914Y-98076661D01*
X142951785Y-98074169D01*
X142962061Y-98071227D01*
X142966656Y-98069897D01*
X143030998Y-98050237D01*
X143095956Y-98028505D01*
X143160919Y-98004947D01*
X143225276Y-97979806D01*
X143288416Y-97953328D01*
X143349726Y-97925757D01*
X143408597Y-97897339D01*
X143447771Y-97877208D01*
X143492365Y-97853199D01*
X143535613Y-97828917D01*
X143577909Y-97804102D01*
X143619648Y-97778495D01*
X143661222Y-97751838D01*
X143703026Y-97723871D01*
X143745453Y-97694335D01*
X143788896Y-97662972D01*
X143833749Y-97629522D01*
X143880407Y-97593726D01*
X143890537Y-97585835D01*
X143922577Y-97560728D01*
X143952137Y-97537367D01*
X143979578Y-97515445D01*
X144005260Y-97494656D01*
X144029543Y-97474693D01*
X144052787Y-97455250D01*
X144075353Y-97436021D01*
X144097600Y-97416698D01*
X144119888Y-97396976D01*
X144142578Y-97376547D01*
X144166030Y-97355106D01*
X144190604Y-97332345D01*
X144212855Y-97311535D01*
X144232474Y-97293160D01*
X144249899Y-97276954D01*
X144265446Y-97262642D01*
X144279433Y-97249950D01*
X144292177Y-97238604D01*
X144303995Y-97228331D01*
X144315205Y-97218855D01*
X144326123Y-97209903D01*
X144337068Y-97201202D01*
X144348355Y-97192476D01*
X144360303Y-97183453D01*
X144366442Y-97178879D01*
X144422299Y-97139508D01*
X144480817Y-97102335D01*
X144541891Y-97067409D01*
X144605413Y-97034783D01*
X144671275Y-97004506D01*
X144739372Y-96976629D01*
X144809595Y-96951203D01*
X144881838Y-96928280D01*
X144913544Y-96919192D01*
X144958213Y-96906791D01*
X144958213Y-96755027D01*
X144981590Y-96752659D01*
X145049405Y-96746994D01*
X145120242Y-96742221D01*
X145194256Y-96738319D01*
X145227103Y-96736902D01*
X145245871Y-96736248D01*
X145267647Y-96735666D01*
X145291939Y-96735159D01*
X145318251Y-96734731D01*
X145346091Y-96734383D01*
X145374964Y-96734120D01*
X145404376Y-96733942D01*
X145433834Y-96733854D01*
X145462843Y-96733857D01*
X145490910Y-96733955D01*
X145517541Y-96734150D01*
X145542241Y-96734445D01*
X145564518Y-96734843D01*
X145571317Y-96734999D01*
X145647451Y-96737147D01*
X145720372Y-96739810D01*
X145790334Y-96743015D01*
X145857593Y-96746787D01*
X145922404Y-96751150D01*
X145985023Y-96756131D01*
X146045704Y-96761754D01*
X146104704Y-96768046D01*
X146162276Y-96775032D01*
X146198435Y-96779971D01*
X146198435Y-97116798D01*
X146190058Y-97117287D01*
X146178883Y-97118298D01*
X146172158Y-97118977D01*
X146109516Y-97126168D01*
X146045836Y-97134939D01*
X145981687Y-97145175D01*
X145917640Y-97156764D01*
X145854262Y-97169589D01*
X145792125Y-97183537D01*
X145731797Y-97198494D01*
X145673848Y-97214344D01*
X145626496Y-97228557D01*
X145585920Y-97242027D01*
X145542837Y-97257754D01*
X145497371Y-97275676D01*
X145449643Y-97295733D01*
X145399776Y-97317864D01*
X145347891Y-97342008D01*
X145294110Y-97368105D01*
X145238555Y-97396093D01*
X145181348Y-97425913D01*
X145122612Y-97457502D01*
X145062469Y-97490801D01*
X145001039Y-97525748D01*
X144938446Y-97562284D01*
X144874811Y-97600346D01*
X144850723Y-97614989D01*
X144792981Y-97650621D01*
X144737302Y-97685741D01*
X144683833Y-97720250D01*
X144632720Y-97754048D01*
X144584110Y-97787036D01*
X144538147Y-97819114D01*
X144494980Y-97850184D01*
X144454753Y-97880145D01*
X144417613Y-97908900D01*
X144414303Y-97911524D01*
X144394243Y-97927355D01*
X144374481Y-97942730D01*
X144354800Y-97957802D01*
X144334981Y-97972720D01*
X144314807Y-97987638D01*
X144294060Y-98002705D01*
X144272523Y-98018074D01*
X144249978Y-98033896D01*
X144226206Y-98050322D01*
X144200992Y-98067505D01*
X144174116Y-98085595D01*
X144145361Y-98104744D01*
X144114510Y-98125103D01*
X144081344Y-98146825D01*
X144045646Y-98170059D01*
X144007198Y-98194959D01*
X144003524Y-98197333D01*
X143974502Y-98216048D01*
X143948075Y-98233010D01*
X143923924Y-98248415D01*
X143901730Y-98262458D01*
X143881176Y-98275333D01*
X143861943Y-98287234D01*
X143843712Y-98298357D01*
X143826166Y-98308896D01*
X143808985Y-98319045D01*
X143791852Y-98329000D01*
X143774448Y-98338955D01*
X143756454Y-98349105D01*
X143743091Y-98356567D01*
X143727403Y-98365161D01*
X143710385Y-98374246D01*
X143692369Y-98383660D01*
X143673687Y-98393243D01*
X143654673Y-98402834D01*
X143635660Y-98412271D01*
X143616980Y-98421395D01*
X143598966Y-98430044D01*
X143581950Y-98438058D01*
X143566267Y-98445275D01*
X143552248Y-98451536D01*
X143540226Y-98456679D01*
X143530534Y-98460543D01*
X143523505Y-98462968D01*
X143522010Y-98463380D01*
X143518483Y-98464549D01*
X143517839Y-98465617D01*
X143520220Y-98466634D01*
X143525767Y-98467646D01*
X143534621Y-98468701D01*
X143538879Y-98469124D01*
X143571989Y-98471879D01*
X143603089Y-98473655D01*
X143631930Y-98474450D01*
X143658266Y-98474265D01*
X143681849Y-98473098D01*
X143702433Y-98470950D01*
X143710986Y-98469603D01*
X143739125Y-98463926D01*
X143768325Y-98456804D01*
X143796751Y-98448700D01*
X143809629Y-98444582D01*
X143820005Y-98441190D01*
X143827626Y-98438870D01*
X143833031Y-98437503D01*
X143836758Y-98436968D01*
X143839345Y-98437145D01*
X143840747Y-98437618D01*
X143845443Y-98441393D01*
X143847914Y-98446763D01*
X143847607Y-98452478D01*
X143847496Y-98452786D01*
X143845636Y-98455842D01*
X143841566Y-98461250D01*
X143835468Y-98468805D01*
X143827526Y-98478301D01*
X143817923Y-98489532D01*
X143806843Y-98502294D01*
X143794469Y-98516381D01*
X143780985Y-98531587D01*
X143766575Y-98547707D01*
X143751421Y-98564536D01*
X143735708Y-98581869D01*
X143719619Y-98599499D01*
X143703337Y-98617221D01*
X143687045Y-98634831D01*
X143670929Y-98652122D01*
X143655170Y-98668890D01*
X143642310Y-98682454D01*
X143629837Y-98695566D01*
X143619603Y-98706357D01*
X143611424Y-98715037D01*
X143605116Y-98721813D01*
X143600492Y-98726895D01*
X143597368Y-98730489D01*
X143595559Y-98732805D01*
X143594878Y-98734050D01*
X143595142Y-98734433D01*
X143596166Y-98734162D01*
X143596443Y-98734049D01*
X143599356Y-98732922D01*
X143604981Y-98730835D01*
X143612730Y-98728002D01*
X143622015Y-98724639D01*
X143632249Y-98720959D01*
X143633034Y-98720677D01*
X143688434Y-98699818D01*
X143745326Y-98676428D01*
X143803114Y-98650789D01*
X143861201Y-98623181D01*
X143918991Y-98593887D01*
X143975886Y-98563187D01*
X144018387Y-98538957D01*
X144054403Y-98517531D01*
X144090844Y-98495059D01*
X144128001Y-98471345D01*
X144166162Y-98446196D01*
X144205616Y-98419417D01*
X144246654Y-98390815D01*
X144289564Y-98360194D01*
X144334636Y-98327362D01*
X144343967Y-98320489D01*
X144363888Y-98305724D01*
X144382368Y-98291862D01*
X144399687Y-98278665D01*
X144416122Y-98265894D01*
X144431952Y-98253309D01*
X144447455Y-98240671D01*
X144462908Y-98227742D01*
X144478591Y-98214282D01*
X144494782Y-98200052D01*
X144511758Y-98184812D01*
X144529798Y-98168325D01*
X144549180Y-98150350D01*
X144570183Y-98130649D01*
X144593084Y-98108982D01*
X144618162Y-98085111D01*
X144621006Y-98082397D01*
X144651077Y-98053747D01*
X144679549Y-98026726D01*
X144706327Y-98001420D01*
X144731319Y-97977918D01*
X144754431Y-97956306D01*
X144775569Y-97936671D01*
X144794641Y-97919099D01*
X144811553Y-97903678D01*
X144826211Y-97890495D01*
X144838522Y-97879635D01*
X144844452Y-97874520D01*
X144857261Y-97863994D01*
X144872883Y-97851849D01*
X144891103Y-97838226D01*
X144911705Y-97823264D01*
X144934473Y-97807105D01*
X144959190Y-97789889D01*
X144985640Y-97771756D01*
X145013608Y-97752846D01*
X145042877Y-97733299D01*
X145073232Y-97713257D01*
X145104456Y-97692860D01*
X145136333Y-97672247D01*
X145168647Y-97651559D01*
X145201183Y-97630937D01*
X145233723Y-97610520D01*
X145266052Y-97590450D01*
X145297955Y-97570866D01*
X145329214Y-97551909D01*
X145359614Y-97533719D01*
X145388938Y-97516437D01*
X145416971Y-97500203D01*
X145443497Y-97485157D01*
X145446068Y-97483718D01*
X145526330Y-97439938D01*
X145609548Y-97396654D01*
X145695184Y-97354115D01*
X145782699Y-97312569D01*
X145871555Y-97272265D01*
X145961213Y-97233453D01*
X146051135Y-97196379D01*
X146140783Y-97161294D01*
X146159837Y-97154085D01*
X146175072Y-97148318D01*
X146187312Y-97143570D01*
X146196857Y-97139674D01*
X146204009Y-97136463D01*
X146209070Y-97133772D01*
X146212342Y-97131435D01*
X146214126Y-97129285D01*
X146214723Y-97127157D01*
X146214434Y-97124884D01*
X146214216Y-97124134D01*
X146213030Y-97121177D01*
X146211312Y-97119021D01*
X146208609Y-97117610D01*
X146204468Y-97116887D01*
X146198435Y-97116798D01*
X146198435Y-96779971D01*
X146218677Y-96782736D01*
X146274162Y-96791185D01*
X146328986Y-96800404D01*
X146383404Y-96810418D01*
X146437544Y-96821227D01*
X146533400Y-96842612D01*
X146629021Y-96866988D01*
X146724518Y-96894397D01*
X146745392Y-96901061D01*
X146745392Y-97138325D01*
X146687178Y-97138706D01*
X146627264Y-97140569D01*
X146566016Y-97143916D01*
X146560165Y-97144309D01*
X146530347Y-97146427D01*
X146503670Y-97148511D01*
X146479775Y-97150615D01*
X146458300Y-97152797D01*
X146438886Y-97155112D01*
X146421171Y-97157616D01*
X146404794Y-97160364D01*
X146389397Y-97163413D01*
X146374617Y-97166819D01*
X146360094Y-97170636D01*
X146345469Y-97174922D01*
X146330379Y-97179731D01*
X146329465Y-97180033D01*
X146314980Y-97184966D01*
X146300864Y-97190092D01*
X146286810Y-97195559D01*
X146272512Y-97201512D01*
X146257663Y-97208100D01*
X146241959Y-97215470D01*
X146225092Y-97223768D01*
X146206758Y-97233143D01*
X146186649Y-97243741D01*
X146164460Y-97255709D01*
X146139885Y-97269196D01*
X146112618Y-97284347D01*
X146112600Y-97284357D01*
X146089812Y-97296910D01*
X146066905Y-97309208D01*
X146044340Y-97321016D01*
X146022584Y-97332100D01*
X146002099Y-97342226D01*
X145983349Y-97351161D01*
X145966799Y-97358671D01*
X145956696Y-97362985D01*
X145947631Y-97366593D01*
X145936129Y-97370967D01*
X145923082Y-97375781D01*
X145909383Y-97380705D01*
X145895922Y-97385414D01*
X145891312Y-97386992D01*
X145867193Y-97395413D01*
X145843300Y-97404228D01*
X145819471Y-97413526D01*
X145795544Y-97423398D01*
X145771356Y-97433932D01*
X145746743Y-97445219D01*
X145721543Y-97457348D01*
X145695595Y-97470408D01*
X145668733Y-97484490D01*
X145640798Y-97499683D01*
X145611624Y-97516075D01*
X145581050Y-97533759D01*
X145548914Y-97552821D01*
X145515051Y-97573353D01*
X145479301Y-97595444D01*
X145441499Y-97619183D01*
X145401484Y-97644661D01*
X145359092Y-97671966D01*
X145314161Y-97701189D01*
X145278769Y-97724371D01*
X145250114Y-97743221D01*
X145224098Y-97760405D01*
X145200405Y-97776147D01*
X145178723Y-97790669D01*
X145158736Y-97804192D01*
X145140132Y-97816939D01*
X145122595Y-97829130D01*
X145105813Y-97840990D01*
X145089471Y-97852739D01*
X145073255Y-97864600D01*
X145056850Y-97876794D01*
X145039944Y-97889543D01*
X145022222Y-97903071D01*
X145003370Y-97917598D01*
X144983074Y-97933346D01*
X144981701Y-97934415D01*
X144966978Y-97945925D01*
X144950761Y-97958701D01*
X144933225Y-97972598D01*
X144914545Y-97987473D01*
X144894898Y-98003181D01*
X144874459Y-98019580D01*
X144853405Y-98036526D01*
X144831911Y-98053875D01*
X144810152Y-98071482D01*
X144788306Y-98089205D01*
X144766547Y-98106900D01*
X144745052Y-98124423D01*
X144723996Y-98141630D01*
X144703555Y-98158378D01*
X144683905Y-98174523D01*
X144665222Y-98189921D01*
X144647681Y-98204429D01*
X144631459Y-98217902D01*
X144616732Y-98230198D01*
X144603674Y-98241172D01*
X144592463Y-98250680D01*
X144583273Y-98258580D01*
X144576281Y-98264727D01*
X144571663Y-98268977D01*
X144569594Y-98271188D01*
X144569561Y-98271241D01*
X144567853Y-98274476D01*
X144564916Y-98280359D01*
X144561004Y-98288366D01*
X144556373Y-98297973D01*
X144551278Y-98308654D01*
X144547998Y-98315586D01*
X144511599Y-98396011D01*
X144477943Y-98477085D01*
X144447089Y-98558602D01*
X144419094Y-98640358D01*
X144394017Y-98722150D01*
X144371916Y-98803773D01*
X144352849Y-98885023D01*
X144336874Y-98965695D01*
X144324050Y-99045587D01*
X144314435Y-99124492D01*
X144312803Y-99141193D01*
X144311307Y-99157549D01*
X144309998Y-99172713D01*
X144308851Y-99187150D01*
X144307843Y-99201322D01*
X144306947Y-99215696D01*
X144306140Y-99230735D01*
X144305396Y-99246903D01*
X144304691Y-99264665D01*
X144304000Y-99284485D01*
X144303298Y-99306828D01*
X144302562Y-99332157D01*
X144302476Y-99335197D01*
X144302490Y-99340606D01*
X144302819Y-99344263D01*
X144303250Y-99345269D01*
X144304753Y-99344067D01*
X144308243Y-99340739D01*
X144313299Y-99335704D01*
X144319497Y-99329380D01*
X144324498Y-99324195D01*
X144343798Y-99305407D01*
X144362868Y-99289739D01*
X144382235Y-99276890D01*
X144402424Y-99266561D01*
X144423963Y-99258449D01*
X144447377Y-99252254D01*
X144452186Y-99251248D01*
X144462874Y-99249697D01*
X144476318Y-99248690D01*
X144491811Y-99248220D01*
X144508648Y-99248280D01*
X144526125Y-99248865D01*
X144543536Y-99249968D01*
X144560175Y-99251583D01*
X144565827Y-99252286D01*
X144598877Y-99257312D01*
X144628550Y-99263173D01*
X144654873Y-99269879D01*
X144677873Y-99277437D01*
X144697576Y-99285857D01*
X144714010Y-99295146D01*
X144722731Y-99301476D01*
X144729055Y-99306893D01*
X144734882Y-99312454D01*
X144739632Y-99317545D01*
X144742728Y-99321553D01*
X144743627Y-99323632D01*
X144741977Y-99324144D01*
X144737403Y-99324324D01*
X144730469Y-99324171D01*
X144722168Y-99323711D01*
X144711987Y-99323218D01*
X144699104Y-99322911D01*
X144684132Y-99322778D01*
X144667683Y-99322809D01*
X144650369Y-99322992D01*
X144632800Y-99323315D01*
X144615589Y-99323766D01*
X144599348Y-99324335D01*
X144584687Y-99325009D01*
X144572219Y-99325776D01*
X144562556Y-99326626D01*
X144561448Y-99326753D01*
X144535976Y-99330138D01*
X144513301Y-99333967D01*
X144492726Y-99338386D01*
X144473556Y-99343542D01*
X144456971Y-99348922D01*
X144443951Y-99354070D01*
X144429261Y-99360851D01*
X144413964Y-99368707D01*
X144399124Y-99377081D01*
X144385804Y-99385416D01*
X144381053Y-99388677D01*
X144372111Y-99395494D01*
X144362205Y-99403846D01*
X144351945Y-99413144D01*
X144341938Y-99422797D01*
X144332793Y-99432215D01*
X144325120Y-99440807D01*
X144319525Y-99447983D01*
X144318796Y-99449064D01*
X144312200Y-99459142D01*
X144313361Y-99473067D01*
X144314266Y-99481468D01*
X144315781Y-99492716D01*
X144317810Y-99506227D01*
X144320256Y-99521417D01*
X144323019Y-99537702D01*
X144326002Y-99554498D01*
X144329107Y-99571222D01*
X144332237Y-99587289D01*
X144333779Y-99594890D01*
X144342642Y-99635234D01*
X144352544Y-99675447D01*
X144363371Y-99715219D01*
X144375009Y-99754238D01*
X144387345Y-99792192D01*
X144400265Y-99828770D01*
X144413655Y-99863660D01*
X144427401Y-99896549D01*
X144441389Y-99927128D01*
X144455506Y-99955083D01*
X144469637Y-99980104D01*
X144480997Y-99997977D01*
X144492786Y-100014387D01*
X144506142Y-100031152D01*
X144520501Y-100047668D01*
X144535298Y-100063329D01*
X144549968Y-100077530D01*
X144563947Y-100089666D01*
X144572959Y-100096564D01*
X144591791Y-100108630D01*
X144609867Y-100117315D01*
X144627264Y-100122640D01*
X144644059Y-100124625D01*
X144660330Y-100123293D01*
X144665745Y-100122091D01*
X144684179Y-100115563D01*
X144702258Y-100105625D01*
X144719885Y-100092362D01*
X144736961Y-100075860D01*
X144753389Y-100056204D01*
X144769070Y-100033477D01*
X144770235Y-100031617D01*
X144773984Y-100025169D01*
X144778729Y-100016378D01*
X144784030Y-100006095D01*
X144789446Y-99995171D01*
X144793632Y-99986400D01*
X144802492Y-99967910D01*
X144810447Y-99952380D01*
X144817752Y-99939464D01*
X144824660Y-99928816D01*
X144831425Y-99920090D01*
X144838301Y-99912940D01*
X144845543Y-99907019D01*
X144853403Y-99901982D01*
X144857010Y-99900015D01*
X144873456Y-99892568D01*
X144893189Y-99885627D01*
X144916025Y-99879219D01*
X144921427Y-99877993D01*
X144921427Y-100012676D01*
X144920551Y-100013552D01*
X144921427Y-100014428D01*
X144922303Y-100013552D01*
X144921427Y-100012676D01*
X144921427Y-99877993D01*
X144941779Y-99873371D01*
X144970268Y-99868110D01*
X145001308Y-99863464D01*
X145034716Y-99859460D01*
X145070306Y-99856125D01*
X145107895Y-99853487D01*
X145147300Y-99851572D01*
X145188335Y-99850409D01*
X145192068Y-99850342D01*
X145209811Y-99850071D01*
X145224414Y-99849934D01*
X145236239Y-99849961D01*
X145245650Y-99850182D01*
X145253009Y-99850625D01*
X145254856Y-99850851D01*
X145254856Y-99993922D01*
X145247994Y-99994273D01*
X145241390Y-99995113D01*
X145225348Y-99999402D01*
X145211434Y-100006406D01*
X145199773Y-100015967D01*
X145190491Y-100027925D01*
X145183712Y-100042121D01*
X145179562Y-100058396D01*
X145178170Y-100075446D01*
X145178247Y-100082909D01*
X145178669Y-100087333D01*
X145179504Y-100089171D01*
X145180244Y-100089217D01*
X145182485Y-100088500D01*
X145187586Y-100086935D01*
X145195050Y-100084672D01*
X145204380Y-100081862D01*
X145215077Y-100078656D01*
X145222052Y-100076573D01*
X145261671Y-100064755D01*
X145262734Y-100049664D01*
X145263312Y-100041153D01*
X145263984Y-100030787D01*
X145264645Y-100020208D01*
X145264960Y-100014990D01*
X145266124Y-99995408D01*
X145259854Y-99994232D01*
X145254856Y-99993922D01*
X145254856Y-99850851D01*
X145258677Y-99851321D01*
X145263018Y-99852298D01*
X145266394Y-99853586D01*
X145269167Y-99855214D01*
X145271168Y-99856760D01*
X145273802Y-99859352D01*
X145273798Y-99861007D01*
X145272648Y-99861965D01*
X145272068Y-99862991D01*
X145274396Y-99863522D01*
X145279655Y-99863631D01*
X145289289Y-99863535D01*
X145301551Y-99848482D01*
X145311701Y-99836923D01*
X145321969Y-99826895D01*
X145331802Y-99818885D01*
X145340648Y-99813378D01*
X145342289Y-99812602D01*
X145350940Y-99809641D01*
X145362608Y-99806976D01*
X145376811Y-99804663D01*
X145393071Y-99802758D01*
X145410909Y-99801316D01*
X145429843Y-99800392D01*
X145449396Y-99800044D01*
X145450448Y-99800042D01*
X145466739Y-99800440D01*
X145480948Y-99801811D01*
X145494377Y-99804396D01*
X145508331Y-99808437D01*
X145521646Y-99813222D01*
X145530499Y-99817031D01*
X145539236Y-99821524D01*
X145547126Y-99826252D01*
X145553439Y-99830766D01*
X145557443Y-99834618D01*
X145558115Y-99835633D01*
X145558791Y-99837114D01*
X145558605Y-99838124D01*
X145557043Y-99838753D01*
X145553593Y-99839091D01*
X145547739Y-99839228D01*
X145538967Y-99839255D01*
X145537474Y-99839255D01*
X145509779Y-99839865D01*
X145483629Y-99841655D01*
X145459294Y-99844568D01*
X145437044Y-99848550D01*
X145417149Y-99853541D01*
X145399879Y-99859487D01*
X145385503Y-99866330D01*
X145375009Y-99873414D01*
X145365303Y-99882973D01*
X145355977Y-99895127D01*
X145347577Y-99908971D01*
X145340650Y-99923600D01*
X145335742Y-99938109D01*
X145335587Y-99938708D01*
X145334532Y-99943246D01*
X145333718Y-99947940D01*
X145333114Y-99953316D01*
X145332691Y-99959896D01*
X145332419Y-99968202D01*
X145332269Y-99978758D01*
X145332211Y-99992086D01*
X145332206Y-99998254D01*
X145332228Y-100012343D01*
X145332308Y-100023293D01*
X145332466Y-100031465D01*
X145332723Y-100037225D01*
X145333098Y-100040935D01*
X145333613Y-100042958D01*
X145334289Y-100043658D01*
X145334759Y-100043602D01*
X145337591Y-100042702D01*
X145343459Y-100040984D01*
X145352016Y-100038543D01*
X145362916Y-100035476D01*
X145375813Y-100031877D01*
X145390360Y-100027842D01*
X145406212Y-100023466D01*
X145423020Y-100018846D01*
X145440440Y-100014075D01*
X145458124Y-100009251D01*
X145475727Y-100004467D01*
X145492901Y-99999820D01*
X145509301Y-99995405D01*
X145523540Y-99991595D01*
X145555998Y-99983026D01*
X145590472Y-99974086D01*
X145626451Y-99964899D01*
X145663423Y-99955591D01*
X145700876Y-99946285D01*
X145738300Y-99937109D01*
X145775181Y-99928185D01*
X145811009Y-99919640D01*
X145845272Y-99911599D01*
X145877459Y-99904186D01*
X145907057Y-99897527D01*
X145921643Y-99894319D01*
X145928495Y-99892697D01*
X145932193Y-99891462D01*
X145933048Y-99890485D01*
X145932153Y-99889896D01*
X145929687Y-99889083D01*
X145924280Y-99887404D01*
X145916351Y-99884983D01*
X145906317Y-99881949D01*
X145894597Y-99878428D01*
X145881610Y-99874546D01*
X145871737Y-99871608D01*
X145827925Y-99858349D01*
X145785851Y-99845131D01*
X145745714Y-99832027D01*
X145707714Y-99819109D01*
X145672050Y-99806447D01*
X145638922Y-99794114D01*
X145608531Y-99782181D01*
X145581074Y-99770721D01*
X145556752Y-99759805D01*
X145545041Y-99754185D01*
X145528948Y-99746019D01*
X145510715Y-99736314D01*
X145490243Y-99725014D01*
X145467432Y-99712062D01*
X145442186Y-99697401D01*
X145414404Y-99680973D01*
X145383990Y-99662723D01*
X145350843Y-99642592D01*
X145327827Y-99628496D01*
X145312532Y-99619075D01*
X145296189Y-99608960D01*
X145279038Y-99598304D01*
X145261322Y-99587260D01*
X145243283Y-99575981D01*
X145225162Y-99564619D01*
X145207201Y-99553327D01*
X145189641Y-99542260D01*
X145172725Y-99531568D01*
X145156695Y-99521406D01*
X145141791Y-99511927D01*
X145128256Y-99503282D01*
X145116331Y-99495626D01*
X145106259Y-99489110D01*
X145098280Y-99483889D01*
X145092637Y-99480115D01*
X145089572Y-99477940D01*
X145089075Y-99477458D01*
X145090899Y-99477435D01*
X145095731Y-99477663D01*
X145103085Y-99478110D01*
X145112477Y-99478747D01*
X145123422Y-99479542D01*
X145131650Y-99480169D01*
X145166233Y-99482734D01*
X145202108Y-99485156D01*
X145239631Y-99487456D01*
X145279155Y-99489653D01*
X145321035Y-99491766D01*
X145365626Y-99493815D01*
X145413281Y-99495819D01*
X145425048Y-99496289D01*
X145437613Y-99496701D01*
X145453252Y-99497072D01*
X145471641Y-99497403D01*
X145492453Y-99497693D01*
X145515364Y-99497942D01*
X145540048Y-99498151D01*
X145566180Y-99498319D01*
X145593435Y-99498447D01*
X145621487Y-99498534D01*
X145650011Y-99498580D01*
X145678682Y-99498586D01*
X145707174Y-99498551D01*
X145735162Y-99498475D01*
X145762322Y-99498359D01*
X145788327Y-99498202D01*
X145812852Y-99498004D01*
X145835572Y-99497766D01*
X145856162Y-99497486D01*
X145874296Y-99497166D01*
X145889649Y-99496805D01*
X145901896Y-99496403D01*
X145904144Y-99496310D01*
X145965663Y-99493418D01*
X146023828Y-99490289D01*
X146078781Y-99486908D01*
X146130665Y-99483264D01*
X146179623Y-99479344D01*
X146225795Y-99475135D01*
X146269325Y-99470625D01*
X146310355Y-99465802D01*
X146349028Y-99460652D01*
X146385485Y-99455165D01*
X146399882Y-99452804D01*
X146467337Y-99440205D01*
X146536596Y-99424797D01*
X146607460Y-99406644D01*
X146679728Y-99385810D01*
X146753203Y-99362360D01*
X146827683Y-99336360D01*
X146902971Y-99307872D01*
X146978866Y-99276963D01*
X147055169Y-99243696D01*
X147078675Y-99233005D01*
X147096591Y-99224674D01*
X147115499Y-99215690D01*
X147135164Y-99206177D01*
X147155350Y-99196259D01*
X147175822Y-99186062D01*
X147196346Y-99175708D01*
X147216686Y-99165322D01*
X147236606Y-99155029D01*
X147255873Y-99144952D01*
X147274250Y-99135217D01*
X147291502Y-99125947D01*
X147307394Y-99117266D01*
X147321692Y-99109299D01*
X147334159Y-99102170D01*
X147344561Y-99096004D01*
X147352663Y-99090924D01*
X147358228Y-99087055D01*
X147361024Y-99084521D01*
X147361268Y-99083685D01*
X147359950Y-99081660D01*
X147356985Y-99077209D01*
X147352689Y-99070802D01*
X147347382Y-99062914D01*
X147341378Y-99054018D01*
X147340230Y-99052319D01*
X147333398Y-99042141D01*
X147328324Y-99034359D01*
X147324753Y-99028498D01*
X147322432Y-99024088D01*
X147321106Y-99020654D01*
X147320520Y-99017726D01*
X147320413Y-99015502D01*
X147321911Y-99007110D01*
X147325967Y-98999920D01*
X147331929Y-98994368D01*
X147339143Y-98990893D01*
X147346954Y-98989933D01*
X147354708Y-98991924D01*
X147355241Y-98992190D01*
X147358337Y-98994492D01*
X147363028Y-98998820D01*
X147368643Y-99004527D01*
X147373794Y-99010145D01*
X147411835Y-99051438D01*
X147452200Y-99092173D01*
X147466348Y-99105504D01*
X147466348Y-99208066D01*
X147464067Y-99208454D01*
X147459485Y-99210564D01*
X147453171Y-99214105D01*
X147447079Y-99217888D01*
X147415729Y-99237472D01*
X147381402Y-99257737D01*
X147344506Y-99278475D01*
X147305452Y-99299477D01*
X147264651Y-99320533D01*
X147222512Y-99341434D01*
X147179446Y-99361972D01*
X147135863Y-99381938D01*
X147092172Y-99401122D01*
X147064662Y-99412760D01*
X146993004Y-99441579D01*
X146919827Y-99468994D01*
X146845654Y-99494845D01*
X146771007Y-99518973D01*
X146696410Y-99541219D01*
X146622386Y-99561421D01*
X146549457Y-99579421D01*
X146478148Y-99595059D01*
X146448931Y-99600859D01*
X146374314Y-99614243D01*
X146299937Y-99625633D01*
X146225265Y-99635082D01*
X146149762Y-99642643D01*
X146072893Y-99648367D01*
X145994122Y-99652306D01*
X145912913Y-99654514D01*
X145896262Y-99654753D01*
X145829269Y-99654929D01*
X145763230Y-99653817D01*
X145698640Y-99651440D01*
X145635994Y-99647819D01*
X145575788Y-99642977D01*
X145533655Y-99638682D01*
X145534139Y-99639022D01*
X145537989Y-99640308D01*
X145545200Y-99642540D01*
X145555765Y-99645715D01*
X145569678Y-99649832D01*
X145586933Y-99654889D01*
X145607525Y-99660883D01*
X145631446Y-99667814D01*
X145658691Y-99675680D01*
X145689253Y-99684478D01*
X145723127Y-99694207D01*
X145760306Y-99704866D01*
X145800785Y-99716452D01*
X145844557Y-99728964D01*
X145891616Y-99742400D01*
X145941956Y-99756759D01*
X145995571Y-99772037D01*
X146052455Y-99788235D01*
X146112601Y-99805350D01*
X146164519Y-99820114D01*
X146192095Y-99827964D01*
X146218721Y-99835563D01*
X146244203Y-99842854D01*
X146268350Y-99849782D01*
X146290969Y-99856292D01*
X146311869Y-99862326D01*
X146330857Y-99867830D01*
X146347742Y-99872748D01*
X146362330Y-99877024D01*
X146374430Y-99880603D01*
X146383850Y-99883427D01*
X146390397Y-99885443D01*
X146393880Y-99886593D01*
X146394419Y-99886844D01*
X146392502Y-99888314D01*
X146387908Y-99891119D01*
X146381086Y-99895014D01*
X146372487Y-99899756D01*
X146362559Y-99905100D01*
X146351753Y-99910801D01*
X146340518Y-99916616D01*
X146329305Y-99922298D01*
X146328062Y-99922920D01*
X146286256Y-99942858D01*
X146241775Y-99962316D01*
X146195443Y-99980963D01*
X146148084Y-99998473D01*
X146100524Y-100014517D01*
X146088075Y-100018455D01*
X146054939Y-100028486D01*
X146018562Y-100038934D01*
X145979176Y-100049741D01*
X145937012Y-100060849D01*
X145892301Y-100072200D01*
X145845275Y-100083738D01*
X145796163Y-100095405D01*
X145745198Y-100107143D01*
X145692610Y-100118894D01*
X145638630Y-100130602D01*
X145629124Y-100132628D01*
X145610505Y-100136587D01*
X145595026Y-100139882D01*
X145582401Y-100142577D01*
X145572343Y-100144735D01*
X145564564Y-100146420D01*
X145558779Y-100147696D01*
X145554700Y-100148626D01*
X145552041Y-100149273D01*
X145550515Y-100149701D01*
X145549834Y-100149975D01*
X145549713Y-100150156D01*
X145549763Y-100150224D01*
X145551883Y-100150890D01*
X145557142Y-100151996D01*
X145565211Y-100153490D01*
X145575760Y-100155321D01*
X145588459Y-100157437D01*
X145602978Y-100159788D01*
X145618989Y-100162321D01*
X145636161Y-100164985D01*
X145654164Y-100167729D01*
X145672670Y-100170500D01*
X145691348Y-100173249D01*
X145709869Y-100175923D01*
X145727904Y-100178470D01*
X145745122Y-100180840D01*
X145750868Y-100181615D01*
X145846141Y-100193605D01*
X145940880Y-100203996D01*
X146034883Y-100212781D01*
X146127945Y-100219958D01*
X146219862Y-100225521D01*
X146310428Y-100229466D01*
X146399441Y-100231788D01*
X146486694Y-100232484D01*
X146571985Y-100231549D01*
X146655109Y-100228978D01*
X146735861Y-100224767D01*
X146814037Y-100218912D01*
X146889432Y-100211408D01*
X146926275Y-100207004D01*
X147008956Y-100195153D01*
X147092126Y-100180504D01*
X147175517Y-100163155D01*
X147258863Y-100143201D01*
X147341899Y-100120738D01*
X147424357Y-100095864D01*
X147505972Y-100068675D01*
X147586476Y-100039266D01*
X147665603Y-100007734D01*
X147743087Y-99974176D01*
X147818662Y-99938687D01*
X147892060Y-99901365D01*
X147963015Y-99862305D01*
X148031262Y-99821603D01*
X148064449Y-99800331D01*
X148064449Y-100165829D01*
X148063023Y-100166782D01*
X148059145Y-100169667D01*
X148053117Y-100174253D01*
X148045242Y-100180307D01*
X148035820Y-100187597D01*
X148025154Y-100195889D01*
X148013547Y-100204953D01*
X148011601Y-100206476D01*
X147949497Y-100254925D01*
X147887155Y-100303215D01*
X147824738Y-100351225D01*
X147762411Y-100398836D01*
X147700336Y-100445928D01*
X147638679Y-100492380D01*
X147577602Y-100538073D01*
X147517269Y-100582887D01*
X147457844Y-100626701D01*
X147399492Y-100669396D01*
X147342375Y-100710852D01*
X147286657Y-100750949D01*
X147232503Y-100789566D01*
X147180075Y-100826584D01*
X147129539Y-100861884D01*
X147081057Y-100895343D01*
X147034794Y-100926844D01*
X146990912Y-100956266D01*
X146962186Y-100975241D01*
X146892022Y-101020659D01*
X146821132Y-101065296D01*
X146749210Y-101109328D01*
X146675951Y-101152928D01*
X146601046Y-101196274D01*
X146524192Y-101239539D01*
X146445081Y-101282899D01*
X146363407Y-101326529D01*
X146278864Y-101370604D01*
X146208944Y-101406311D01*
X146129478Y-101446086D01*
X146048197Y-101485896D01*
X145965591Y-101525518D01*
X145882150Y-101564730D01*
X145798364Y-101603309D01*
X145714723Y-101641034D01*
X145631717Y-101677682D01*
X145549837Y-101713031D01*
X145469571Y-101746859D01*
X145391411Y-101778943D01*
X145355478Y-101793383D01*
X145343420Y-101798213D01*
X145332514Y-101802623D01*
X145323156Y-101806446D01*
X145315745Y-101809520D01*
X145310679Y-101811680D01*
X145308356Y-101812762D01*
X145308252Y-101812851D01*
X145310048Y-101813130D01*
X145314835Y-101813666D01*
X145322112Y-101814409D01*
X145331381Y-101815308D01*
X145342142Y-101816313D01*
X145348043Y-101816851D01*
X145366867Y-101818507D01*
X145383987Y-101819908D01*
X145399990Y-101821081D01*
X145415465Y-101822052D01*
X145430997Y-101822849D01*
X145447174Y-101823499D01*
X145464584Y-101824030D01*
X145483812Y-101824468D01*
X145505447Y-101824841D01*
X145526648Y-101825133D01*
X145587516Y-101825327D01*
X145645736Y-101824301D01*
X145701960Y-101822009D01*
X145756840Y-101818405D01*
X145811028Y-101813442D01*
X145865178Y-101807074D01*
X145919942Y-101799256D01*
X145941806Y-101795772D01*
X146001287Y-101785117D01*
X146058256Y-101773007D01*
X146113474Y-101759235D01*
X146167704Y-101743594D01*
X146221707Y-101725879D01*
X146276245Y-101705882D01*
X146283393Y-101703112D01*
X146337312Y-101681810D01*
X146390807Y-101660118D01*
X146443668Y-101638136D01*
X146495683Y-101615962D01*
X146546641Y-101593696D01*
X146596332Y-101571438D01*
X146644544Y-101549287D01*
X146691067Y-101527342D01*
X146735689Y-101505703D01*
X146778199Y-101484469D01*
X146818386Y-101463740D01*
X146856040Y-101443615D01*
X146890949Y-101424194D01*
X146922903Y-101405575D01*
X146949363Y-101389332D01*
X146958918Y-101383535D01*
X146966087Y-101379824D01*
X146971241Y-101378124D01*
X146974752Y-101378360D01*
X146976990Y-101380457D01*
X146978132Y-101383498D01*
X146978295Y-101384853D01*
X146978032Y-101386503D01*
X146977180Y-101388674D01*
X146975575Y-101391589D01*
X146973054Y-101395474D01*
X146969453Y-101400553D01*
X146964611Y-101407051D01*
X146958363Y-101415193D01*
X146950546Y-101425203D01*
X146940997Y-101437306D01*
X146929553Y-101451728D01*
X146918409Y-101465731D01*
X146856700Y-101541559D01*
X146794810Y-101614287D01*
X146732400Y-101684316D01*
X146732052Y-101684697D01*
X146721599Y-101695959D01*
X146709038Y-101709173D01*
X146694756Y-101723954D01*
X146679136Y-101739920D01*
X146662564Y-101756688D01*
X146645424Y-101773875D01*
X146628101Y-101791097D01*
X146610981Y-101807972D01*
X146594448Y-101824117D01*
X146578886Y-101839148D01*
X146564681Y-101852683D01*
X146552218Y-101864338D01*
X146544400Y-101871476D01*
X146502154Y-101908890D01*
X146458597Y-101946276D01*
X146414343Y-101983134D01*
X146370008Y-102018963D01*
X146326208Y-102053261D01*
X146283558Y-102085527D01*
X146261119Y-102102005D01*
X146251465Y-102109058D01*
X146242866Y-102115424D01*
X146235695Y-102120822D01*
X146230322Y-102124969D01*
X146227121Y-102127582D01*
X146226376Y-102128381D01*
X146228161Y-102127952D01*
X146232758Y-102126278D01*
X146239767Y-102123526D01*
X146248794Y-102119860D01*
X146259442Y-102115447D01*
X146271313Y-102110452D01*
X146284010Y-102105041D01*
X146297138Y-102099379D01*
X146310300Y-102093632D01*
X146321931Y-102088486D01*
X146362372Y-102070056D01*
X146404706Y-102049992D01*
X146448011Y-102028750D01*
X146491368Y-102006788D01*
X146533858Y-101984562D01*
X146565420Y-101967548D01*
X146654606Y-101917254D01*
X146741250Y-101865284D01*
X146825276Y-101811698D01*
X146906606Y-101756555D01*
X146985161Y-101699916D01*
X147060865Y-101641840D01*
X147133639Y-101582389D01*
X147203405Y-101521623D01*
X147270087Y-101459600D01*
X147333607Y-101396382D01*
X147393886Y-101332029D01*
X147410133Y-101313859D01*
X147471159Y-101242695D01*
X147530601Y-101168958D01*
X147588294Y-101092919D01*
X147644074Y-101014850D01*
X147697775Y-100935023D01*
X147749234Y-100853711D01*
X147798285Y-100771184D01*
X147844765Y-100687714D01*
X147888508Y-100603574D01*
X147929351Y-100519036D01*
X147967127Y-100434370D01*
X148001674Y-100349849D01*
X148015035Y-100314849D01*
X148019515Y-100302680D01*
X148024336Y-100289261D01*
X148029375Y-100274966D01*
X148034507Y-100260168D01*
X148039610Y-100245240D01*
X148044559Y-100230555D01*
X148049231Y-100216488D01*
X148053501Y-100203411D01*
X148057246Y-100191699D01*
X148060342Y-100181723D01*
X148062665Y-100173859D01*
X148064092Y-100168478D01*
X148064498Y-100165956D01*
X148064449Y-100165829D01*
X148064449Y-99800331D01*
X148081537Y-99789378D01*
X148093553Y-99781356D01*
X148105890Y-99772992D01*
X148117858Y-99764764D01*
X148128767Y-99757148D01*
X148137926Y-99750623D01*
X148143043Y-99746872D01*
X148164258Y-99731027D01*
X148167927Y-99717262D01*
X148173758Y-99692712D01*
X148178471Y-99666816D01*
X148182203Y-99638759D01*
X148183870Y-99622306D01*
X148184642Y-99614701D01*
X148185420Y-99608475D01*
X148186097Y-99604403D01*
X148186464Y-99603241D01*
X148188552Y-99602454D01*
X148193070Y-99601327D01*
X148198407Y-99600228D01*
X148209413Y-99598152D01*
X148196275Y-99594227D01*
X148142719Y-99577969D01*
X148092540Y-99562206D01*
X148045652Y-99546906D01*
X148001968Y-99532035D01*
X147961402Y-99517562D01*
X147923866Y-99503454D01*
X147889276Y-99489679D01*
X147857544Y-99476204D01*
X147828583Y-99462997D01*
X147802308Y-99450025D01*
X147781764Y-99439017D01*
X147757205Y-99424723D01*
X147730578Y-99408138D01*
X147702229Y-99389513D01*
X147672501Y-99369099D01*
X147641741Y-99347145D01*
X147610294Y-99323901D01*
X147578505Y-99299617D01*
X147546719Y-99274544D01*
X147515282Y-99248930D01*
X147490331Y-99227977D01*
X147482839Y-99221627D01*
X147476190Y-99216047D01*
X147470878Y-99211649D01*
X147467400Y-99208845D01*
X147466348Y-99208066D01*
X147466348Y-99105504D01*
X147494469Y-99132002D01*
X147538217Y-99170577D01*
X147583026Y-99207551D01*
X147628471Y-99242575D01*
X147674132Y-99275301D01*
X147719587Y-99305381D01*
X147764414Y-99332468D01*
X147764475Y-99332503D01*
X147813029Y-99358556D01*
X147864413Y-99382610D01*
X147918568Y-99404642D01*
X147975430Y-99424631D01*
X148034941Y-99442555D01*
X148097038Y-99458393D01*
X148148979Y-99469635D01*
X148183136Y-99476123D01*
X148216771Y-99481782D01*
X148250759Y-99486735D01*
X148285972Y-99491103D01*
X148323284Y-99495007D01*
X148346924Y-99497167D01*
X148361212Y-99498164D01*
X148378598Y-99498967D01*
X148398683Y-99499579D01*
X148421067Y-99500005D01*
X148445350Y-99500249D01*
X148471133Y-99500315D01*
X148498017Y-99500208D01*
X148525602Y-99499932D01*
X148553487Y-99499491D01*
X148581275Y-99498889D01*
X148608564Y-99498131D01*
X148634956Y-99497222D01*
X148660051Y-99496164D01*
X148683450Y-99494963D01*
X148704752Y-99493623D01*
X148709531Y-99493280D01*
X148741033Y-99490534D01*
X148769202Y-99487172D01*
X148794164Y-99483154D01*
X148816041Y-99478434D01*
X148834957Y-99472973D01*
X148851037Y-99466725D01*
X148864405Y-99459651D01*
X148875183Y-99451706D01*
X148883497Y-99442848D01*
X148889471Y-99433036D01*
X148890227Y-99431352D01*
X148895135Y-99417611D01*
X148899447Y-99400781D01*
X148903068Y-99381240D01*
X148903468Y-99378623D01*
X148904672Y-99367901D01*
X148905568Y-99354355D01*
X148906159Y-99338649D01*
X148906443Y-99321449D01*
X148906422Y-99303419D01*
X148906097Y-99285226D01*
X148905468Y-99267534D01*
X148904535Y-99251008D01*
X148903335Y-99236662D01*
X148896240Y-99178983D01*
X148886475Y-99119400D01*
X148874128Y-99058174D01*
X148859285Y-98995565D01*
X148842030Y-98931833D01*
X148822452Y-98867241D01*
X148800635Y-98802047D01*
X148776665Y-98736514D01*
X148750629Y-98670901D01*
X148722613Y-98605469D01*
X148692703Y-98540478D01*
X148660985Y-98476190D01*
X148637288Y-98430878D01*
X148592147Y-98349976D01*
X148544766Y-98271644D01*
X148495084Y-98195822D01*
X148443040Y-98122444D01*
X148388576Y-98051448D01*
X148331630Y-97982771D01*
X148272144Y-97916350D01*
X148210055Y-97852121D01*
X148145306Y-97790020D01*
X148077835Y-97729986D01*
X148007582Y-97671954D01*
X147934487Y-97615861D01*
X147858491Y-97561645D01*
X147779533Y-97509241D01*
X147734696Y-97481092D01*
X147683198Y-97450189D01*
X147628837Y-97419076D01*
X147572215Y-97388057D01*
X147513936Y-97357432D01*
X147454602Y-97327505D01*
X147394815Y-97298578D01*
X147335179Y-97270953D01*
X147276296Y-97244933D01*
X147218769Y-97220820D01*
X147203924Y-97214826D01*
X147157162Y-97197683D01*
X147107809Y-97182632D01*
X147056126Y-97169734D01*
X147002374Y-97159049D01*
X146946816Y-97150637D01*
X146906131Y-97146051D01*
X146855237Y-97141999D01*
X146801534Y-97139423D01*
X146745392Y-97138325D01*
X146745392Y-96901061D01*
X146819998Y-96924881D01*
X146915572Y-96958481D01*
X147011350Y-96995239D01*
X147107440Y-97035198D01*
X147203952Y-97078398D01*
X147300996Y-97124881D01*
X147398681Y-97174690D01*
X147479820Y-97218308D01*
X147580918Y-97275349D01*
X147678948Y-97333588D01*
X147773870Y-97392998D01*
X147865647Y-97453554D01*
X147954240Y-97515229D01*
X148039610Y-97577997D01*
X148121720Y-97641831D01*
X148200530Y-97706705D01*
X148240944Y-97741497D01*
X148279583Y-97775972D01*
X148318934Y-97812394D01*
X148358476Y-97850236D01*
X148397685Y-97888972D01*
X148436036Y-97928075D01*
X148473008Y-97967021D01*
X148508077Y-98005282D01*
X148540718Y-98042332D01*
X148544185Y-98046366D01*
X148600195Y-98113982D01*
X148653071Y-98182474D01*
X148702785Y-98251784D01*
X148749311Y-98321856D01*
X148792621Y-98392632D01*
X148832690Y-98464056D01*
X148869490Y-98536069D01*
X148902994Y-98608615D01*
X148933175Y-98681637D01*
X148960008Y-98755077D01*
X148983464Y-98828878D01*
X149003517Y-98902984D01*
X149020141Y-98977336D01*
X149033308Y-99051878D01*
X149040486Y-99104407D01*
X149045404Y-99152569D01*
X149048803Y-99202058D01*
X149050672Y-99252071D01*
X149051000Y-99301803D01*
X149049777Y-99350451D01*
G36*
X144800878Y-99642544D02*
G01*
X144796416Y-99646027D01*
X144789844Y-99648019D01*
X144785632Y-99648317D01*
X144779861Y-99648935D01*
X144771791Y-99650609D01*
X144762364Y-99653066D01*
X144752522Y-99656036D01*
X144743209Y-99659248D01*
X144735368Y-99662432D01*
X144733530Y-99663297D01*
X144724799Y-99668322D01*
X144716465Y-99674368D01*
X144712063Y-99678297D01*
X144701992Y-99689867D01*
X144691817Y-99704404D01*
X144681845Y-99721393D01*
X144672382Y-99740321D01*
X144665574Y-99756049D01*
X144662444Y-99763289D01*
X144659945Y-99767757D01*
X144657698Y-99770036D01*
X144656015Y-99770649D01*
X144652228Y-99770451D01*
X144650488Y-99769590D01*
X144649881Y-99767499D01*
X144648958Y-99762412D01*
X144647780Y-99754816D01*
X144646407Y-99745196D01*
X144644900Y-99734040D01*
X144643318Y-99721835D01*
X144641722Y-99709066D01*
X144640171Y-99696222D01*
X144638728Y-99683789D01*
X144637450Y-99672253D01*
X144636399Y-99662101D01*
X144635636Y-99653820D01*
X144635219Y-99647897D01*
X144635160Y-99645690D01*
X144635723Y-99638628D01*
X144637017Y-99631527D01*
X144637562Y-99629550D01*
X144642893Y-99617109D01*
X144650309Y-99606511D01*
X144659366Y-99598106D01*
X144669617Y-99592244D01*
X144680616Y-99589273D01*
X144689077Y-99589152D01*
X144692990Y-99590005D01*
X144699427Y-99591947D01*
X144707916Y-99594796D01*
X144717982Y-99598367D01*
X144729151Y-99602475D01*
X144740950Y-99606936D01*
X144752903Y-99611567D01*
X144764538Y-99616182D01*
X144775380Y-99620598D01*
X144784955Y-99624630D01*
X144792789Y-99628094D01*
X144798408Y-99630806D01*
X144801338Y-99632581D01*
X144801618Y-99632895D01*
X144802766Y-99638018D01*
X144800878Y-99642544D01*
G37*
X144800878Y-99642544D02*
X144796416Y-99646027D01*
X144789844Y-99648019D01*
X144785632Y-99648317D01*
X144779861Y-99648935D01*
X144771791Y-99650609D01*
X144762364Y-99653066D01*
X144752522Y-99656036D01*
X144743209Y-99659248D01*
X144735368Y-99662432D01*
X144733530Y-99663297D01*
X144724799Y-99668322D01*
X144716465Y-99674368D01*
X144712063Y-99678297D01*
X144701992Y-99689867D01*
X144691817Y-99704404D01*
X144681845Y-99721393D01*
X144672382Y-99740321D01*
X144665574Y-99756049D01*
X144662444Y-99763289D01*
X144659945Y-99767757D01*
X144657698Y-99770036D01*
X144656015Y-99770649D01*
X144652228Y-99770451D01*
X144650488Y-99769590D01*
X144649881Y-99767499D01*
X144648958Y-99762412D01*
X144647780Y-99754816D01*
X144646407Y-99745196D01*
X144644900Y-99734040D01*
X144643318Y-99721835D01*
X144641722Y-99709066D01*
X144640171Y-99696222D01*
X144638728Y-99683789D01*
X144637450Y-99672253D01*
X144636399Y-99662101D01*
X144635636Y-99653820D01*
X144635219Y-99647897D01*
X144635160Y-99645690D01*
X144635723Y-99638628D01*
X144637017Y-99631527D01*
X144637562Y-99629550D01*
X144642893Y-99617109D01*
X144650309Y-99606511D01*
X144659366Y-99598106D01*
X144669617Y-99592244D01*
X144680616Y-99589273D01*
X144689077Y-99589152D01*
X144692990Y-99590005D01*
X144699427Y-99591947D01*
X144707916Y-99594796D01*
X144717982Y-99598367D01*
X144729151Y-99602475D01*
X144740950Y-99606936D01*
X144752903Y-99611567D01*
X144764538Y-99616182D01*
X144775380Y-99620598D01*
X144784955Y-99624630D01*
X144792789Y-99628094D01*
X144798408Y-99630806D01*
X144801338Y-99632581D01*
X144801618Y-99632895D01*
X144802766Y-99638018D01*
X144800878Y-99642544D01*
G36*
X146969830Y-97826408D02*
G01*
X146968373Y-97829062D01*
X146965099Y-97832581D01*
X146958725Y-97837557D01*
X146949244Y-97843993D01*
X146936650Y-97851892D01*
X146920936Y-97861259D01*
X146902097Y-97872097D01*
X146880125Y-97884410D01*
X146855015Y-97898201D01*
X146826759Y-97913473D01*
X146795353Y-97930232D01*
X146760788Y-97948479D01*
X146736213Y-97961355D01*
X146718807Y-97970461D01*
X146702147Y-97979195D01*
X146686523Y-97987405D01*
X146672225Y-97994937D01*
X146659542Y-98001639D01*
X146648764Y-98007357D01*
X146640180Y-98011939D01*
X146634080Y-98015232D01*
X146630753Y-98017082D01*
X146630507Y-98017228D01*
X146628671Y-98018859D01*
X146624497Y-98022915D01*
X146618078Y-98029301D01*
X146609509Y-98037919D01*
X146598883Y-98048672D01*
X146586293Y-98061465D01*
X146571833Y-98076200D01*
X146555597Y-98092781D01*
X146537677Y-98111110D01*
X146518169Y-98131092D01*
X146497165Y-98152630D01*
X146474759Y-98175626D01*
X146451045Y-98199985D01*
X146426115Y-98225609D01*
X146400064Y-98252402D01*
X146372986Y-98280268D01*
X146344973Y-98309109D01*
X146316119Y-98338829D01*
X146286519Y-98369331D01*
X146256265Y-98400519D01*
X146225451Y-98432296D01*
X146194171Y-98464565D01*
X146162518Y-98497230D01*
X146130586Y-98530193D01*
X146098468Y-98563358D01*
X146066258Y-98596630D01*
X146034050Y-98629910D01*
X146001937Y-98663102D01*
X145970013Y-98696109D01*
X145938371Y-98728836D01*
X145907105Y-98761184D01*
X145876308Y-98793058D01*
X145846074Y-98824361D01*
X145816497Y-98854996D01*
X145787670Y-98884867D01*
X145759687Y-98913876D01*
X145732641Y-98941927D01*
X145706626Y-98968924D01*
X145681735Y-98994770D01*
X145658063Y-99019367D01*
X145635702Y-99042621D01*
X145614746Y-99064432D01*
X145595289Y-99084706D01*
X145577425Y-99103346D01*
X145561246Y-99120254D01*
X145546847Y-99135334D01*
X145534321Y-99148489D01*
X145523762Y-99159623D01*
X145515263Y-99168639D01*
X145508917Y-99175441D01*
X145504819Y-99179931D01*
X145503104Y-99181952D01*
X145495864Y-99193033D01*
X145488234Y-99206170D01*
X145480781Y-99220273D01*
X145474068Y-99234253D01*
X145468660Y-99247018D01*
X145466821Y-99252021D01*
X145462749Y-99266737D01*
X145460596Y-99281289D01*
X145460431Y-99294814D01*
X145462324Y-99306450D01*
X145462432Y-99306828D01*
X145468076Y-99320764D01*
X145477094Y-99335606D01*
X145489480Y-99351347D01*
X145505227Y-99367979D01*
X145524328Y-99385494D01*
X145546775Y-99403884D01*
X145558179Y-99412602D01*
X145567857Y-99419996D01*
X145574898Y-99425816D01*
X145579566Y-99430449D01*
X145582130Y-99434279D01*
X145582857Y-99437691D01*
X145582012Y-99441072D01*
X145580162Y-99444355D01*
X145578216Y-99446714D01*
X145575622Y-99448003D01*
X145571359Y-99448533D01*
X145566160Y-99448621D01*
X145553968Y-99447962D01*
X145539354Y-99446103D01*
X145523121Y-99443224D01*
X145506068Y-99439503D01*
X145488996Y-99435119D01*
X145472704Y-99430251D01*
X145457994Y-99425077D01*
X145454408Y-99423655D01*
X145429404Y-99411631D01*
X145406080Y-99396739D01*
X145384736Y-99379254D01*
X145365674Y-99359450D01*
X145349193Y-99337602D01*
X145336665Y-99316119D01*
X145330375Y-99301832D01*
X145326812Y-99288809D01*
X145325825Y-99276316D01*
X145326654Y-99267057D01*
X145330879Y-99249941D01*
X145338138Y-99232569D01*
X145348109Y-99215703D01*
X145348486Y-99215156D01*
X145351226Y-99211694D01*
X145356167Y-99206055D01*
X145363334Y-99198209D01*
X145372756Y-99188128D01*
X145384461Y-99175784D01*
X145398474Y-99161147D01*
X145414825Y-99144189D01*
X145433540Y-99124881D01*
X145454647Y-99103195D01*
X145478174Y-99079102D01*
X145504148Y-99052572D01*
X145511758Y-99044811D01*
X145531003Y-99025183D01*
X145549562Y-99006243D01*
X145567289Y-98988143D01*
X145584035Y-98971033D01*
X145599655Y-98955063D01*
X145614000Y-98940385D01*
X145626924Y-98927149D01*
X145638279Y-98915506D01*
X145647918Y-98905607D01*
X145655694Y-98897602D01*
X145661460Y-98891642D01*
X145665069Y-98887878D01*
X145666373Y-98886460D01*
X145666375Y-98886457D01*
X145664980Y-98885733D01*
X145660857Y-98884786D01*
X145654759Y-98883776D01*
X145651485Y-98883332D01*
X145627841Y-98879406D01*
X145602173Y-98873473D01*
X145575152Y-98865769D01*
X145547447Y-98856529D01*
X145519726Y-98845989D01*
X145492659Y-98834383D01*
X145466915Y-98821947D01*
X145448292Y-98811884D01*
X145434279Y-98803560D01*
X145418022Y-98793314D01*
X145399974Y-98781461D01*
X145380584Y-98768319D01*
X145360303Y-98754205D01*
X145339582Y-98739436D01*
X145318871Y-98724330D01*
X145298621Y-98709203D01*
X145279282Y-98694373D01*
X145262811Y-98681366D01*
X145248623Y-98669980D01*
X145247510Y-98658593D01*
X145246948Y-98649698D01*
X145246680Y-98638081D01*
X145246698Y-98624509D01*
X145246995Y-98609749D01*
X145247563Y-98594571D01*
X145248263Y-98581756D01*
X145249111Y-98570937D01*
X145250296Y-98559061D01*
X145251639Y-98547831D01*
X145252543Y-98541466D01*
X145256632Y-98519866D01*
X145262483Y-98495846D01*
X145269923Y-98469908D01*
X145278778Y-98442552D01*
X145288876Y-98414280D01*
X145300044Y-98385592D01*
X145312108Y-98356991D01*
X145324896Y-98328976D01*
X145328544Y-98321386D01*
X145343452Y-98291764D01*
X145358058Y-98265019D01*
X145372748Y-98240596D01*
X145387909Y-98217937D01*
X145403930Y-98196486D01*
X145421197Y-98175687D01*
X145440098Y-98154982D01*
X145454707Y-98140048D01*
X145484598Y-98111666D01*
X145515988Y-98084685D01*
X145549199Y-98058882D01*
X145584554Y-98034032D01*
X145622375Y-98009911D01*
X145662985Y-97986296D01*
X145706705Y-97962961D01*
X145716710Y-97957875D01*
X145721947Y-97955347D01*
X145721947Y-98651586D01*
X145709545Y-98652749D01*
X145695843Y-98655976D01*
X145681818Y-98660876D01*
X145668450Y-98667059D01*
X145656719Y-98674134D01*
X145648336Y-98680973D01*
X145636314Y-98694783D01*
X145627555Y-98709330D01*
X145622131Y-98724453D01*
X145620112Y-98739992D01*
X145620203Y-98745148D01*
X145620843Y-98752806D01*
X145622082Y-98759059D01*
X145624326Y-98765370D01*
X145627982Y-98773202D01*
X145628012Y-98773262D01*
X145636577Y-98787128D01*
X145647538Y-98799488D01*
X145660091Y-98809474D01*
X145663282Y-98811439D01*
X145671097Y-98815282D01*
X145681338Y-98819299D01*
X145692968Y-98823135D01*
X145704952Y-98826428D01*
X145710011Y-98827601D01*
X145721965Y-98830196D01*
X145768817Y-98782494D01*
X145779727Y-98771361D01*
X145790208Y-98760619D01*
X145799923Y-98750617D01*
X145808534Y-98741704D01*
X145815703Y-98734230D01*
X145821093Y-98728545D01*
X145824367Y-98724997D01*
X145824408Y-98724951D01*
X145833148Y-98715108D01*
X145818934Y-98699916D01*
X145805020Y-98686245D01*
X145791277Y-98675329D01*
X145776894Y-98666560D01*
X145769858Y-98663087D01*
X145758557Y-98658664D01*
X145746024Y-98655055D01*
X145733629Y-98652588D01*
X145722739Y-98651593D01*
X145721947Y-98651586D01*
X145721947Y-97955347D01*
X145777138Y-97928701D01*
X145837085Y-97902330D01*
X145896398Y-97878814D01*
X145954922Y-97858205D01*
X146012503Y-97840554D01*
X146062170Y-97827681D01*
X146062170Y-98306877D01*
X146055668Y-98307033D01*
X146038039Y-98307938D01*
X146022678Y-98309565D01*
X146008387Y-98312124D01*
X145993969Y-98315826D01*
X145979640Y-98320396D01*
X145961052Y-98327658D01*
X145942612Y-98336573D01*
X145924835Y-98346783D01*
X145908238Y-98357931D01*
X145893335Y-98369659D01*
X145880643Y-98381611D01*
X145870677Y-98393429D01*
X145867600Y-98397990D01*
X145857505Y-98416198D01*
X145848766Y-98435935D01*
X145841841Y-98456022D01*
X145837186Y-98475282D01*
X145836834Y-98477290D01*
X145835674Y-98487807D01*
X145835230Y-98500288D01*
X145835482Y-98513319D01*
X145836407Y-98525484D01*
X145837662Y-98533857D01*
X145843168Y-98552841D01*
X145851614Y-98570001D01*
X145862841Y-98585146D01*
X145876689Y-98598086D01*
X145893001Y-98608630D01*
X145904532Y-98613982D01*
X145910710Y-98616357D01*
X145916201Y-98618283D01*
X145919039Y-98619135D01*
X145919894Y-98619133D01*
X145921099Y-98618678D01*
X145922789Y-98617638D01*
X145925101Y-98615878D01*
X145928172Y-98613264D01*
X145932136Y-98609663D01*
X145937132Y-98604940D01*
X145943295Y-98598962D01*
X145950761Y-98591595D01*
X145959666Y-98582705D01*
X145970148Y-98572158D01*
X145982342Y-98559820D01*
X145996384Y-98545558D01*
X146012411Y-98529238D01*
X146030559Y-98510725D01*
X146050964Y-98489886D01*
X146059177Y-98481495D01*
X146077201Y-98463067D01*
X146094523Y-98445338D01*
X146110989Y-98428468D01*
X146126442Y-98412618D01*
X146140725Y-98397949D01*
X146153684Y-98384620D01*
X146165161Y-98372793D01*
X146175001Y-98362629D01*
X146183048Y-98354288D01*
X146189146Y-98347930D01*
X146193138Y-98343717D01*
X146194869Y-98341809D01*
X146194931Y-98341713D01*
X146193394Y-98340225D01*
X146189193Y-98337779D01*
X146182944Y-98334652D01*
X146175260Y-98331121D01*
X146166756Y-98327465D01*
X146158046Y-98323960D01*
X146149745Y-98320883D01*
X146145912Y-98319584D01*
X146124788Y-98313493D01*
X146104633Y-98309463D01*
X146084182Y-98307316D01*
X146062170Y-98306877D01*
X146062170Y-97827681D01*
X146068988Y-97825913D01*
X146124222Y-97814333D01*
X146166903Y-97807378D01*
X146189921Y-97804372D01*
X146210951Y-97802215D01*
X146231377Y-97800806D01*
X146252582Y-97800047D01*
X146272354Y-97799840D01*
X146284697Y-97799808D01*
X146294018Y-97799720D01*
X146300801Y-97799530D01*
X146305527Y-97799195D01*
X146308677Y-97798669D01*
X146310735Y-97797907D01*
X146312183Y-97796866D01*
X146312968Y-97796079D01*
X146314398Y-97794074D01*
X146317552Y-97789319D01*
X146322291Y-97782030D01*
X146328477Y-97772424D01*
X146335972Y-97760717D01*
X146344638Y-97747127D01*
X146354336Y-97731870D01*
X146364928Y-97715164D01*
X146376276Y-97697224D01*
X146388242Y-97678268D01*
X146400687Y-97658513D01*
X146400784Y-97658359D01*
X146413241Y-97638587D01*
X146425225Y-97619606D01*
X146436598Y-97601632D01*
X146447221Y-97584884D01*
X146456956Y-97569579D01*
X146465663Y-97555935D01*
X146473203Y-97544169D01*
X146479438Y-97534500D01*
X146484228Y-97527144D01*
X146487435Y-97522321D01*
X146488919Y-97520246D01*
X146488922Y-97520244D01*
X146495946Y-97514523D01*
X146503429Y-97511675D01*
X146510751Y-97511818D01*
X146517060Y-97514883D01*
X146522841Y-97521478D01*
X146527086Y-97530552D01*
X146529622Y-97541357D01*
X146530275Y-97553146D01*
X146528871Y-97565170D01*
X146528806Y-97565477D01*
X146527319Y-97570128D01*
X146524334Y-97577508D01*
X146520028Y-97587269D01*
X146514577Y-97599060D01*
X146508157Y-97612533D01*
X146500944Y-97627340D01*
X146493114Y-97643130D01*
X146484845Y-97659556D01*
X146476311Y-97676269D01*
X146467689Y-97692919D01*
X146459155Y-97709157D01*
X146450886Y-97724635D01*
X146443058Y-97739004D01*
X146435846Y-97751914D01*
X146429428Y-97763017D01*
X146427066Y-97766966D01*
X146418844Y-97780654D01*
X146412366Y-97791765D01*
X146407485Y-97800670D01*
X146404056Y-97807743D01*
X146401934Y-97813357D01*
X146400972Y-97817883D01*
X146401026Y-97821696D01*
X146401949Y-97825167D01*
X146403231Y-97827977D01*
X146406674Y-97832626D01*
X146412308Y-97838152D01*
X146419226Y-97843788D01*
X146426523Y-97848774D01*
X146430693Y-97851128D01*
X146440122Y-97854705D01*
X146449006Y-97855755D01*
X146456270Y-97854276D01*
X146458550Y-97852694D01*
X146463175Y-97848973D01*
X146469894Y-97843330D01*
X146478459Y-97835980D01*
X146488620Y-97827140D01*
X146500129Y-97817028D01*
X146512735Y-97805859D01*
X146526190Y-97793850D01*
X146537672Y-97783536D01*
X146567971Y-97756265D01*
X146595783Y-97731281D01*
X146621201Y-97708502D01*
X146644320Y-97687845D01*
X146665234Y-97669230D01*
X146684038Y-97652573D01*
X146700825Y-97637794D01*
X146715689Y-97624810D01*
X146728725Y-97613540D01*
X146740027Y-97603901D01*
X146749689Y-97595812D01*
X146757804Y-97589191D01*
X146764469Y-97583956D01*
X146769775Y-97580025D01*
X146773818Y-97577317D01*
X146776503Y-97575834D01*
X146784675Y-97573462D01*
X146794395Y-97572711D01*
X146804087Y-97573622D01*
X146809351Y-97575024D01*
X146819344Y-97580033D01*
X146827081Y-97586849D01*
X146832307Y-97594966D01*
X146834767Y-97603880D01*
X146834206Y-97613086D01*
X146831838Y-97619517D01*
X146829983Y-97622031D01*
X146825919Y-97626780D01*
X146819891Y-97633498D01*
X146812147Y-97641921D01*
X146802931Y-97651783D01*
X146792491Y-97662820D01*
X146781072Y-97674767D01*
X146768920Y-97687359D01*
X146765552Y-97690830D01*
X146751130Y-97705635D01*
X146737669Y-97719379D01*
X146724838Y-97732387D01*
X146712307Y-97744984D01*
X146699747Y-97757492D01*
X146686828Y-97770238D01*
X146673220Y-97783545D01*
X146658593Y-97797738D01*
X146642618Y-97813140D01*
X146624964Y-97830077D01*
X146605302Y-97848873D01*
X146591083Y-97862437D01*
X146580750Y-97872432D01*
X146571691Y-97881481D01*
X146564207Y-97889269D01*
X146558600Y-97895477D01*
X146555170Y-97899790D01*
X146554458Y-97900947D01*
X146551273Y-97910235D01*
X146551170Y-97919136D01*
X146554034Y-97927077D01*
X146559750Y-97933489D01*
X146561250Y-97934554D01*
X146564552Y-97936252D01*
X146568126Y-97936662D01*
X146573361Y-97935892D01*
X146574802Y-97935590D01*
X146577994Y-97934532D01*
X146584070Y-97932158D01*
X146592723Y-97928599D01*
X146603645Y-97923986D01*
X146616531Y-97918451D01*
X146631073Y-97912126D01*
X146646966Y-97905143D01*
X146663902Y-97897633D01*
X146681575Y-97889728D01*
X146681910Y-97889578D01*
X146706726Y-97878439D01*
X146728685Y-97868610D01*
X146748117Y-97859947D01*
X146765355Y-97852308D01*
X146780729Y-97845551D01*
X146794570Y-97839533D01*
X146807210Y-97834111D01*
X146818980Y-97829143D01*
X146830210Y-97824487D01*
X146841233Y-97819999D01*
X146852379Y-97815537D01*
X146863979Y-97810959D01*
X146870220Y-97808516D01*
X146906131Y-97794495D01*
X146926104Y-97793671D01*
X146937666Y-97793423D01*
X146946458Y-97793887D01*
X146953171Y-97795239D01*
X146958500Y-97797657D01*
X146963134Y-97801319D01*
X146965497Y-97803770D01*
X146970428Y-97811177D01*
X146971868Y-97818686D01*
X146969830Y-97826408D01*
G37*
X146969830Y-97826408D02*
X146968373Y-97829062D01*
X146965099Y-97832581D01*
X146958725Y-97837557D01*
X146949244Y-97843993D01*
X146936650Y-97851892D01*
X146920936Y-97861259D01*
X146902097Y-97872097D01*
X146880125Y-97884410D01*
X146855015Y-97898201D01*
X146826759Y-97913473D01*
X146795353Y-97930232D01*
X146760788Y-97948479D01*
X146736213Y-97961355D01*
X146718807Y-97970461D01*
X146702147Y-97979195D01*
X146686523Y-97987405D01*
X146672225Y-97994937D01*
X146659542Y-98001639D01*
X146648764Y-98007357D01*
X146640180Y-98011939D01*
X146634080Y-98015232D01*
X146630753Y-98017082D01*
X146630507Y-98017228D01*
X146628671Y-98018859D01*
X146624497Y-98022915D01*
X146618078Y-98029301D01*
X146609509Y-98037919D01*
X146598883Y-98048672D01*
X146586293Y-98061465D01*
X146571833Y-98076200D01*
X146555597Y-98092781D01*
X146537677Y-98111110D01*
X146518169Y-98131092D01*
X146497165Y-98152630D01*
X146474759Y-98175626D01*
X146451045Y-98199985D01*
X146426115Y-98225609D01*
X146400064Y-98252402D01*
X146372986Y-98280268D01*
X146344973Y-98309109D01*
X146316119Y-98338829D01*
X146286519Y-98369331D01*
X146256265Y-98400519D01*
X146225451Y-98432296D01*
X146194171Y-98464565D01*
X146162518Y-98497230D01*
X146130586Y-98530193D01*
X146098468Y-98563358D01*
X146066258Y-98596630D01*
X146034050Y-98629910D01*
X146001937Y-98663102D01*
X145970013Y-98696109D01*
X145938371Y-98728836D01*
X145907105Y-98761184D01*
X145876308Y-98793058D01*
X145846074Y-98824361D01*
X145816497Y-98854996D01*
X145787670Y-98884867D01*
X145759687Y-98913876D01*
X145732641Y-98941927D01*
X145706626Y-98968924D01*
X145681735Y-98994770D01*
X145658063Y-99019367D01*
X145635702Y-99042621D01*
X145614746Y-99064432D01*
X145595289Y-99084706D01*
X145577425Y-99103346D01*
X145561246Y-99120254D01*
X145546847Y-99135334D01*
X145534321Y-99148489D01*
X145523762Y-99159623D01*
X145515263Y-99168639D01*
X145508917Y-99175441D01*
X145504819Y-99179931D01*
X145503104Y-99181952D01*
X145495864Y-99193033D01*
X145488234Y-99206170D01*
X145480781Y-99220273D01*
X145474068Y-99234253D01*
X145468660Y-99247018D01*
X145466821Y-99252021D01*
X145462749Y-99266737D01*
X145460596Y-99281289D01*
X145460431Y-99294814D01*
X145462324Y-99306450D01*
X145462432Y-99306828D01*
X145468076Y-99320764D01*
X145477094Y-99335606D01*
X145489480Y-99351347D01*
X145505227Y-99367979D01*
X145524328Y-99385494D01*
X145546775Y-99403884D01*
X145558179Y-99412602D01*
X145567857Y-99419996D01*
X145574898Y-99425816D01*
X145579566Y-99430449D01*
X145582130Y-99434279D01*
X145582857Y-99437691D01*
X145582012Y-99441072D01*
X145580162Y-99444355D01*
X145578216Y-99446714D01*
X145575622Y-99448003D01*
X145571359Y-99448533D01*
X145566160Y-99448621D01*
X145553968Y-99447962D01*
X145539354Y-99446103D01*
X145523121Y-99443224D01*
X145506068Y-99439503D01*
X145488996Y-99435119D01*
X145472704Y-99430251D01*
X145457994Y-99425077D01*
X145454408Y-99423655D01*
X145429404Y-99411631D01*
X145406080Y-99396739D01*
X145384736Y-99379254D01*
X145365674Y-99359450D01*
X145349193Y-99337602D01*
X145336665Y-99316119D01*
X145330375Y-99301832D01*
X145326812Y-99288809D01*
X145325825Y-99276316D01*
X145326654Y-99267057D01*
X145330879Y-99249941D01*
X145338138Y-99232569D01*
X145348109Y-99215703D01*
X145348486Y-99215156D01*
X145351226Y-99211694D01*
X145356167Y-99206055D01*
X145363334Y-99198209D01*
X145372756Y-99188128D01*
X145384461Y-99175784D01*
X145398474Y-99161147D01*
X145414825Y-99144189D01*
X145433540Y-99124881D01*
X145454647Y-99103195D01*
X145478174Y-99079102D01*
X145504148Y-99052572D01*
X145511758Y-99044811D01*
X145531003Y-99025183D01*
X145549562Y-99006243D01*
X145567289Y-98988143D01*
X145584035Y-98971033D01*
X145599655Y-98955063D01*
X145614000Y-98940385D01*
X145626924Y-98927149D01*
X145638279Y-98915506D01*
X145647918Y-98905607D01*
X145655694Y-98897602D01*
X145661460Y-98891642D01*
X145665069Y-98887878D01*
X145666373Y-98886460D01*
X145666375Y-98886457D01*
X145664980Y-98885733D01*
X145660857Y-98884786D01*
X145654759Y-98883776D01*
X145651485Y-98883332D01*
X145627841Y-98879406D01*
X145602173Y-98873473D01*
X145575152Y-98865769D01*
X145547447Y-98856529D01*
X145519726Y-98845989D01*
X145492659Y-98834383D01*
X145466915Y-98821947D01*
X145448292Y-98811884D01*
X145434279Y-98803560D01*
X145418022Y-98793314D01*
X145399974Y-98781461D01*
X145380584Y-98768319D01*
X145360303Y-98754205D01*
X145339582Y-98739436D01*
X145318871Y-98724330D01*
X145298621Y-98709203D01*
X145279282Y-98694373D01*
X145262811Y-98681366D01*
X145248623Y-98669980D01*
X145247510Y-98658593D01*
X145246948Y-98649698D01*
X145246680Y-98638081D01*
X145246698Y-98624509D01*
X145246995Y-98609749D01*
X145247563Y-98594571D01*
X145248263Y-98581756D01*
X145249111Y-98570937D01*
X145250296Y-98559061D01*
X145251639Y-98547831D01*
X145252543Y-98541466D01*
X145256632Y-98519866D01*
X145262483Y-98495846D01*
X145269923Y-98469908D01*
X145278778Y-98442552D01*
X145288876Y-98414280D01*
X145300044Y-98385592D01*
X145312108Y-98356991D01*
X145324896Y-98328976D01*
X145328544Y-98321386D01*
X145343452Y-98291764D01*
X145358058Y-98265019D01*
X145372748Y-98240596D01*
X145387909Y-98217937D01*
X145403930Y-98196486D01*
X145421197Y-98175687D01*
X145440098Y-98154982D01*
X145454707Y-98140048D01*
X145484598Y-98111666D01*
X145515988Y-98084685D01*
X145549199Y-98058882D01*
X145584554Y-98034032D01*
X145622375Y-98009911D01*
X145662985Y-97986296D01*
X145706705Y-97962961D01*
X145716710Y-97957875D01*
X145721947Y-97955347D01*
X145721947Y-98651586D01*
X145709545Y-98652749D01*
X145695843Y-98655976D01*
X145681818Y-98660876D01*
X145668450Y-98667059D01*
X145656719Y-98674134D01*
X145648336Y-98680973D01*
X145636314Y-98694783D01*
X145627555Y-98709330D01*
X145622131Y-98724453D01*
X145620112Y-98739992D01*
X145620203Y-98745148D01*
X145620843Y-98752806D01*
X145622082Y-98759059D01*
X145624326Y-98765370D01*
X145627982Y-98773202D01*
X145628012Y-98773262D01*
X145636577Y-98787128D01*
X145647538Y-98799488D01*
X145660091Y-98809474D01*
X145663282Y-98811439D01*
X145671097Y-98815282D01*
X145681338Y-98819299D01*
X145692968Y-98823135D01*
X145704952Y-98826428D01*
X145710011Y-98827601D01*
X145721965Y-98830196D01*
X145768817Y-98782494D01*
X145779727Y-98771361D01*
X145790208Y-98760619D01*
X145799923Y-98750617D01*
X145808534Y-98741704D01*
X145815703Y-98734230D01*
X145821093Y-98728545D01*
X145824367Y-98724997D01*
X145824408Y-98724951D01*
X145833148Y-98715108D01*
X145818934Y-98699916D01*
X145805020Y-98686245D01*
X145791277Y-98675329D01*
X145776894Y-98666560D01*
X145769858Y-98663087D01*
X145758557Y-98658664D01*
X145746024Y-98655055D01*
X145733629Y-98652588D01*
X145722739Y-98651593D01*
X145721947Y-98651586D01*
X145721947Y-97955347D01*
X145777138Y-97928701D01*
X145837085Y-97902330D01*
X145896398Y-97878814D01*
X145954922Y-97858205D01*
X146012503Y-97840554D01*
X146062170Y-97827681D01*
X146062170Y-98306877D01*
X146055668Y-98307033D01*
X146038039Y-98307938D01*
X146022678Y-98309565D01*
X146008387Y-98312124D01*
X145993969Y-98315826D01*
X145979640Y-98320396D01*
X145961052Y-98327658D01*
X145942612Y-98336573D01*
X145924835Y-98346783D01*
X145908238Y-98357931D01*
X145893335Y-98369659D01*
X145880643Y-98381611D01*
X145870677Y-98393429D01*
X145867600Y-98397990D01*
X145857505Y-98416198D01*
X145848766Y-98435935D01*
X145841841Y-98456022D01*
X145837186Y-98475282D01*
X145836834Y-98477290D01*
X145835674Y-98487807D01*
X145835230Y-98500288D01*
X145835482Y-98513319D01*
X145836407Y-98525484D01*
X145837662Y-98533857D01*
X145843168Y-98552841D01*
X145851614Y-98570001D01*
X145862841Y-98585146D01*
X145876689Y-98598086D01*
X145893001Y-98608630D01*
X145904532Y-98613982D01*
X145910710Y-98616357D01*
X145916201Y-98618283D01*
X145919039Y-98619135D01*
X145919894Y-98619133D01*
X145921099Y-98618678D01*
X145922789Y-98617638D01*
X145925101Y-98615878D01*
X145928172Y-98613264D01*
X145932136Y-98609663D01*
X145937132Y-98604940D01*
X145943295Y-98598962D01*
X145950761Y-98591595D01*
X145959666Y-98582705D01*
X145970148Y-98572158D01*
X145982342Y-98559820D01*
X145996384Y-98545558D01*
X146012411Y-98529238D01*
X146030559Y-98510725D01*
X146050964Y-98489886D01*
X146059177Y-98481495D01*
X146077201Y-98463067D01*
X146094523Y-98445338D01*
X146110989Y-98428468D01*
X146126442Y-98412618D01*
X146140725Y-98397949D01*
X146153684Y-98384620D01*
X146165161Y-98372793D01*
X146175001Y-98362629D01*
X146183048Y-98354288D01*
X146189146Y-98347930D01*
X146193138Y-98343717D01*
X146194869Y-98341809D01*
X146194931Y-98341713D01*
X146193394Y-98340225D01*
X146189193Y-98337779D01*
X146182944Y-98334652D01*
X146175260Y-98331121D01*
X146166756Y-98327465D01*
X146158046Y-98323960D01*
X146149745Y-98320883D01*
X146145912Y-98319584D01*
X146124788Y-98313493D01*
X146104633Y-98309463D01*
X146084182Y-98307316D01*
X146062170Y-98306877D01*
X146062170Y-97827681D01*
X146068988Y-97825913D01*
X146124222Y-97814333D01*
X146166903Y-97807378D01*
X146189921Y-97804372D01*
X146210951Y-97802215D01*
X146231377Y-97800806D01*
X146252582Y-97800047D01*
X146272354Y-97799840D01*
X146284697Y-97799808D01*
X146294018Y-97799720D01*
X146300801Y-97799530D01*
X146305527Y-97799195D01*
X146308677Y-97798669D01*
X146310735Y-97797907D01*
X146312183Y-97796866D01*
X146312968Y-97796079D01*
X146314398Y-97794074D01*
X146317552Y-97789319D01*
X146322291Y-97782030D01*
X146328477Y-97772424D01*
X146335972Y-97760717D01*
X146344638Y-97747127D01*
X146354336Y-97731870D01*
X146364928Y-97715164D01*
X146376276Y-97697224D01*
X146388242Y-97678268D01*
X146400687Y-97658513D01*
X146400784Y-97658359D01*
X146413241Y-97638587D01*
X146425225Y-97619606D01*
X146436598Y-97601632D01*
X146447221Y-97584884D01*
X146456956Y-97569579D01*
X146465663Y-97555935D01*
X146473203Y-97544169D01*
X146479438Y-97534500D01*
X146484228Y-97527144D01*
X146487435Y-97522321D01*
X146488919Y-97520246D01*
X146488922Y-97520244D01*
X146495946Y-97514523D01*
X146503429Y-97511675D01*
X146510751Y-97511818D01*
X146517060Y-97514883D01*
X146522841Y-97521478D01*
X146527086Y-97530552D01*
X146529622Y-97541357D01*
X146530275Y-97553146D01*
X146528871Y-97565170D01*
X146528806Y-97565477D01*
X146527319Y-97570128D01*
X146524334Y-97577508D01*
X146520028Y-97587269D01*
X146514577Y-97599060D01*
X146508157Y-97612533D01*
X146500944Y-97627340D01*
X146493114Y-97643130D01*
X146484845Y-97659556D01*
X146476311Y-97676269D01*
X146467689Y-97692919D01*
X146459155Y-97709157D01*
X146450886Y-97724635D01*
X146443058Y-97739004D01*
X146435846Y-97751914D01*
X146429428Y-97763017D01*
X146427066Y-97766966D01*
X146418844Y-97780654D01*
X146412366Y-97791765D01*
X146407485Y-97800670D01*
X146404056Y-97807743D01*
X146401934Y-97813357D01*
X146400972Y-97817883D01*
X146401026Y-97821696D01*
X146401949Y-97825167D01*
X146403231Y-97827977D01*
X146406674Y-97832626D01*
X146412308Y-97838152D01*
X146419226Y-97843788D01*
X146426523Y-97848774D01*
X146430693Y-97851128D01*
X146440122Y-97854705D01*
X146449006Y-97855755D01*
X146456270Y-97854276D01*
X146458550Y-97852694D01*
X146463175Y-97848973D01*
X146469894Y-97843330D01*
X146478459Y-97835980D01*
X146488620Y-97827140D01*
X146500129Y-97817028D01*
X146512735Y-97805859D01*
X146526190Y-97793850D01*
X146537672Y-97783536D01*
X146567971Y-97756265D01*
X146595783Y-97731281D01*
X146621201Y-97708502D01*
X146644320Y-97687845D01*
X146665234Y-97669230D01*
X146684038Y-97652573D01*
X146700825Y-97637794D01*
X146715689Y-97624810D01*
X146728725Y-97613540D01*
X146740027Y-97603901D01*
X146749689Y-97595812D01*
X146757804Y-97589191D01*
X146764469Y-97583956D01*
X146769775Y-97580025D01*
X146773818Y-97577317D01*
X146776503Y-97575834D01*
X146784675Y-97573462D01*
X146794395Y-97572711D01*
X146804087Y-97573622D01*
X146809351Y-97575024D01*
X146819344Y-97580033D01*
X146827081Y-97586849D01*
X146832307Y-97594966D01*
X146834767Y-97603880D01*
X146834206Y-97613086D01*
X146831838Y-97619517D01*
X146829983Y-97622031D01*
X146825919Y-97626780D01*
X146819891Y-97633498D01*
X146812147Y-97641921D01*
X146802931Y-97651783D01*
X146792491Y-97662820D01*
X146781072Y-97674767D01*
X146768920Y-97687359D01*
X146765552Y-97690830D01*
X146751130Y-97705635D01*
X146737669Y-97719379D01*
X146724838Y-97732387D01*
X146712307Y-97744984D01*
X146699747Y-97757492D01*
X146686828Y-97770238D01*
X146673220Y-97783545D01*
X146658593Y-97797738D01*
X146642618Y-97813140D01*
X146624964Y-97830077D01*
X146605302Y-97848873D01*
X146591083Y-97862437D01*
X146580750Y-97872432D01*
X146571691Y-97881481D01*
X146564207Y-97889269D01*
X146558600Y-97895477D01*
X146555170Y-97899790D01*
X146554458Y-97900947D01*
X146551273Y-97910235D01*
X146551170Y-97919136D01*
X146554034Y-97927077D01*
X146559750Y-97933489D01*
X146561250Y-97934554D01*
X146564552Y-97936252D01*
X146568126Y-97936662D01*
X146573361Y-97935892D01*
X146574802Y-97935590D01*
X146577994Y-97934532D01*
X146584070Y-97932158D01*
X146592723Y-97928599D01*
X146603645Y-97923986D01*
X146616531Y-97918451D01*
X146631073Y-97912126D01*
X146646966Y-97905143D01*
X146663902Y-97897633D01*
X146681575Y-97889728D01*
X146681910Y-97889578D01*
X146706726Y-97878439D01*
X146728685Y-97868610D01*
X146748117Y-97859947D01*
X146765355Y-97852308D01*
X146780729Y-97845551D01*
X146794570Y-97839533D01*
X146807210Y-97834111D01*
X146818980Y-97829143D01*
X146830210Y-97824487D01*
X146841233Y-97819999D01*
X146852379Y-97815537D01*
X146863979Y-97810959D01*
X146870220Y-97808516D01*
X146906131Y-97794495D01*
X146926104Y-97793671D01*
X146937666Y-97793423D01*
X146946458Y-97793887D01*
X146953171Y-97795239D01*
X146958500Y-97797657D01*
X146963134Y-97801319D01*
X146965497Y-97803770D01*
X146970428Y-97811177D01*
X146971868Y-97818686D01*
X146969830Y-97826408D01*
G36*
X148515671Y-98969981D02*
G01*
X148513488Y-98970400D01*
X148511509Y-98969196D01*
X148507445Y-98965801D01*
X148501646Y-98960541D01*
X148494463Y-98953743D01*
X148486248Y-98945732D01*
X148477351Y-98936834D01*
X148477327Y-98936810D01*
X148443456Y-98902825D01*
X148411384Y-98871262D01*
X148381177Y-98842182D01*
X148352896Y-98815644D01*
X148326607Y-98791709D01*
X148302372Y-98770437D01*
X148288392Y-98758601D01*
X148281970Y-98753455D01*
X148273221Y-98746748D01*
X148262712Y-98738898D01*
X148251007Y-98730321D01*
X148238672Y-98721435D01*
X148226271Y-98712656D01*
X148223578Y-98710772D01*
X148201661Y-98695376D01*
X148182104Y-98681409D01*
X148164311Y-98668424D01*
X148147685Y-98655970D01*
X148131631Y-98643599D01*
X148115551Y-98630864D01*
X148098848Y-98617314D01*
X148093800Y-98613166D01*
X148064445Y-98589285D01*
X148037238Y-98567786D01*
X148011935Y-98548488D01*
X147988298Y-98531206D01*
X147966084Y-98515761D01*
X147955872Y-98508956D01*
X147948919Y-98504688D01*
X147939072Y-98499086D01*
X147926613Y-98492290D01*
X147911825Y-98484441D01*
X147894990Y-98475680D01*
X147876391Y-98466149D01*
X147856311Y-98455989D01*
X147835032Y-98445340D01*
X147812838Y-98434345D01*
X147790010Y-98423143D01*
X147766832Y-98411877D01*
X147743586Y-98400688D01*
X147720555Y-98389716D01*
X147698022Y-98379103D01*
X147676269Y-98368989D01*
X147667255Y-98364843D01*
X147631725Y-98348773D01*
X147593621Y-98331938D01*
X147553696Y-98314662D01*
X147512708Y-98297265D01*
X147471411Y-98280070D01*
X147430560Y-98263399D01*
X147410627Y-98255396D01*
X147398807Y-98250643D01*
X147387900Y-98246191D01*
X147378378Y-98242238D01*
X147370714Y-98238982D01*
X147365382Y-98236621D01*
X147362893Y-98235380D01*
X147359649Y-98231465D01*
X147358769Y-98226303D01*
X147360225Y-98221206D01*
X147363264Y-98217917D01*
X147364464Y-98217257D01*
X147365955Y-98216841D01*
X147368061Y-98216733D01*
X147371105Y-98216997D01*
X147375409Y-98217697D01*
X147381297Y-98218897D01*
X147389092Y-98220660D01*
X147399117Y-98223051D01*
X147411695Y-98226133D01*
X147427149Y-98229970D01*
X147438150Y-98232715D01*
X147468566Y-98240386D01*
X147496134Y-98247515D01*
X147521433Y-98254276D01*
X147545046Y-98260841D01*
X147567552Y-98267383D01*
X147589534Y-98274076D01*
X147611572Y-98281092D01*
X147634246Y-98288605D01*
X147658139Y-98296787D01*
X147683830Y-98305811D01*
X147684772Y-98306145D01*
X147715312Y-98317090D01*
X147746089Y-98328316D01*
X147776870Y-98339730D01*
X147807424Y-98351239D01*
X147837522Y-98362748D01*
X147866930Y-98374163D01*
X147895418Y-98385393D01*
X147922755Y-98396341D01*
X147948710Y-98406916D01*
X147973051Y-98417023D01*
X147995548Y-98426569D01*
X148015968Y-98435459D01*
X148034081Y-98443602D01*
X148049655Y-98450901D01*
X148062460Y-98457265D01*
X148072264Y-98462600D01*
X148074788Y-98464110D01*
X148084248Y-98470356D01*
X148094396Y-98477887D01*
X148105506Y-98486941D01*
X148117850Y-98497757D01*
X148131703Y-98510573D01*
X148147337Y-98525625D01*
X148161336Y-98539463D01*
X148190231Y-98568902D01*
X148220560Y-98600948D01*
X148251974Y-98635193D01*
X148284124Y-98671231D01*
X148316660Y-98708652D01*
X148349233Y-98747049D01*
X148381493Y-98786015D01*
X148413090Y-98825142D01*
X148443676Y-98864022D01*
X148472901Y-98902247D01*
X148477253Y-98908043D01*
X148485473Y-98919037D01*
X148493232Y-98929452D01*
X148500216Y-98938866D01*
X148506115Y-98946857D01*
X148510616Y-98953004D01*
X148513408Y-98956885D01*
X148513825Y-98957484D01*
X148516877Y-98963190D01*
X148517488Y-98967503D01*
X148515671Y-98969981D01*
G37*
X148515671Y-98969981D02*
X148513488Y-98970400D01*
X148511509Y-98969196D01*
X148507445Y-98965801D01*
X148501646Y-98960541D01*
X148494463Y-98953743D01*
X148486248Y-98945732D01*
X148477351Y-98936834D01*
X148477327Y-98936810D01*
X148443456Y-98902825D01*
X148411384Y-98871262D01*
X148381177Y-98842182D01*
X148352896Y-98815644D01*
X148326607Y-98791709D01*
X148302372Y-98770437D01*
X148288392Y-98758601D01*
X148281970Y-98753455D01*
X148273221Y-98746748D01*
X148262712Y-98738898D01*
X148251007Y-98730321D01*
X148238672Y-98721435D01*
X148226271Y-98712656D01*
X148223578Y-98710772D01*
X148201661Y-98695376D01*
X148182104Y-98681409D01*
X148164311Y-98668424D01*
X148147685Y-98655970D01*
X148131631Y-98643599D01*
X148115551Y-98630864D01*
X148098848Y-98617314D01*
X148093800Y-98613166D01*
X148064445Y-98589285D01*
X148037238Y-98567786D01*
X148011935Y-98548488D01*
X147988298Y-98531206D01*
X147966084Y-98515761D01*
X147955872Y-98508956D01*
X147948919Y-98504688D01*
X147939072Y-98499086D01*
X147926613Y-98492290D01*
X147911825Y-98484441D01*
X147894990Y-98475680D01*
X147876391Y-98466149D01*
X147856311Y-98455989D01*
X147835032Y-98445340D01*
X147812838Y-98434345D01*
X147790010Y-98423143D01*
X147766832Y-98411877D01*
X147743586Y-98400688D01*
X147720555Y-98389716D01*
X147698022Y-98379103D01*
X147676269Y-98368989D01*
X147667255Y-98364843D01*
X147631725Y-98348773D01*
X147593621Y-98331938D01*
X147553696Y-98314662D01*
X147512708Y-98297265D01*
X147471411Y-98280070D01*
X147430560Y-98263399D01*
X147410627Y-98255396D01*
X147398807Y-98250643D01*
X147387900Y-98246191D01*
X147378378Y-98242238D01*
X147370714Y-98238982D01*
X147365382Y-98236621D01*
X147362893Y-98235380D01*
X147359649Y-98231465D01*
X147358769Y-98226303D01*
X147360225Y-98221206D01*
X147363264Y-98217917D01*
X147364464Y-98217257D01*
X147365955Y-98216841D01*
X147368061Y-98216733D01*
X147371105Y-98216997D01*
X147375409Y-98217697D01*
X147381297Y-98218897D01*
X147389092Y-98220660D01*
X147399117Y-98223051D01*
X147411695Y-98226133D01*
X147427149Y-98229970D01*
X147438150Y-98232715D01*
X147468566Y-98240386D01*
X147496134Y-98247515D01*
X147521433Y-98254276D01*
X147545046Y-98260841D01*
X147567552Y-98267383D01*
X147589534Y-98274076D01*
X147611572Y-98281092D01*
X147634246Y-98288605D01*
X147658139Y-98296787D01*
X147683830Y-98305811D01*
X147684772Y-98306145D01*
X147715312Y-98317090D01*
X147746089Y-98328316D01*
X147776870Y-98339730D01*
X147807424Y-98351239D01*
X147837522Y-98362748D01*
X147866930Y-98374163D01*
X147895418Y-98385393D01*
X147922755Y-98396341D01*
X147948710Y-98406916D01*
X147973051Y-98417023D01*
X147995548Y-98426569D01*
X148015968Y-98435459D01*
X148034081Y-98443602D01*
X148049655Y-98450901D01*
X148062460Y-98457265D01*
X148072264Y-98462600D01*
X148074788Y-98464110D01*
X148084248Y-98470356D01*
X148094396Y-98477887D01*
X148105506Y-98486941D01*
X148117850Y-98497757D01*
X148131703Y-98510573D01*
X148147337Y-98525625D01*
X148161336Y-98539463D01*
X148190231Y-98568902D01*
X148220560Y-98600948D01*
X148251974Y-98635193D01*
X148284124Y-98671231D01*
X148316660Y-98708652D01*
X148349233Y-98747049D01*
X148381493Y-98786015D01*
X148413090Y-98825142D01*
X148443676Y-98864022D01*
X148472901Y-98902247D01*
X148477253Y-98908043D01*
X148485473Y-98919037D01*
X148493232Y-98929452D01*
X148500216Y-98938866D01*
X148506115Y-98946857D01*
X148510616Y-98953004D01*
X148513408Y-98956885D01*
X148513825Y-98957484D01*
X148516877Y-98963190D01*
X148517488Y-98967503D01*
X148515671Y-98969981D01*
G36*
G01*
X134234200Y-100015000D02*
X134234200Y-99045000D01*
G75*
G02*
X134285000Y-98994200I50800J0D01*
G01*
X135205000Y-98994200D01*
G75*
G02*
X135255800Y-99045000I0J-50800D01*
G01*
X135255800Y-100015000D01*
G75*
G02*
X135205000Y-100065800I-50800J0D01*
G01*
X134285000Y-100065800D01*
G75*
G02*
X134234200Y-100015000I0J50800D01*
G01*
G37*
G36*
G01*
X135784200Y-100015000D02*
X135784200Y-99045000D01*
G75*
G02*
X135835000Y-98994200I50800J0D01*
G01*
X136755000Y-98994200D01*
G75*
G02*
X136805800Y-99045000I0J-50800D01*
G01*
X136805800Y-100015000D01*
G75*
G02*
X136755000Y-100065800I-50800J0D01*
G01*
X135835000Y-100065800D01*
G75*
G02*
X135784200Y-100015000I0J50800D01*
G01*
G37*
G36*
G01*
X137634200Y-98605000D02*
X137634200Y-97635000D01*
G75*
G02*
X137685000Y-97584200I50800J0D01*
G01*
X138605000Y-97584200D01*
G75*
G02*
X138655800Y-97635000I0J-50800D01*
G01*
X138655800Y-98605000D01*
G75*
G02*
X138605000Y-98655800I-50800J0D01*
G01*
X137685000Y-98655800D01*
G75*
G02*
X137634200Y-98605000I0J50800D01*
G01*
G37*
G36*
G01*
X139184200Y-98605000D02*
X139184200Y-97635000D01*
G75*
G02*
X139235000Y-97584200I50800J0D01*
G01*
X140155000Y-97584200D01*
G75*
G02*
X140205800Y-97635000I0J-50800D01*
G01*
X140205800Y-98605000D01*
G75*
G02*
X140155000Y-98655800I-50800J0D01*
G01*
X139235000Y-98655800D01*
G75*
G02*
X139184200Y-98605000I0J50800D01*
G01*
G37*
G36*
G01*
X150791900Y-106699200D02*
X152568100Y-106699200D01*
G75*
G02*
X152730800Y-106861900I0J-162700D01*
G01*
X152730800Y-107838100D01*
G75*
G02*
X152568100Y-108000800I-162700J0D01*
G01*
X150791900Y-108000800D01*
G75*
G02*
X150629200Y-107838100I0J162700D01*
G01*
X150629200Y-106861900D01*
G75*
G02*
X150791900Y-106699200I162700J0D01*
G01*
G37*
G36*
G01*
X157618800Y-110941900D02*
X157618800Y-112718100D01*
G75*
G02*
X157456100Y-112880800I-162700J0D01*
G01*
X156479900Y-112880800D01*
G75*
G02*
X156317200Y-112718100I0J162700D01*
G01*
X156317200Y-110941900D01*
G75*
G02*
X156479900Y-110779200I162700J0D01*
G01*
X157456100Y-110779200D01*
G75*
G02*
X157618800Y-110941900I0J-162700D01*
G01*
G37*
G36*
G01*
X155694800Y-110941900D02*
X155694800Y-112718100D01*
G75*
G02*
X155532100Y-112880800I-162700J0D01*
G01*
X154555900Y-112880800D01*
G75*
G02*
X154393200Y-112718100I0J162700D01*
G01*
X154393200Y-110941900D01*
G75*
G02*
X154555900Y-110779200I162700J0D01*
G01*
X155532100Y-110779200D01*
G75*
G02*
X155694800Y-110941900I0J-162700D01*
G01*
G37*
G36*
G01*
X153770800Y-110941900D02*
X153770800Y-112718100D01*
G75*
G02*
X153608100Y-112880800I-162700J0D01*
G01*
X152631900Y-112880800D01*
G75*
G02*
X152469200Y-112718100I0J162700D01*
G01*
X152469200Y-110941900D01*
G75*
G02*
X152631900Y-110779200I162700J0D01*
G01*
X153608100Y-110779200D01*
G75*
G02*
X153770800Y-110941900I0J-162700D01*
G01*
G37*
G36*
G01*
X129054200Y-108220000D02*
X129054200Y-106520000D01*
G75*
G02*
X129105000Y-106469200I50800J0D01*
G01*
X130805000Y-106469200D01*
G75*
G02*
X130855800Y-106520000I0J-50800D01*
G01*
X130855800Y-108220000D01*
G75*
G02*
X130805000Y-108270800I-50800J0D01*
G01*
X129105000Y-108270800D01*
G75*
G02*
X129054200Y-108220000I0J50800D01*
G01*
G37*
D15*
X122040000Y-109350000D03*
X147030000Y-109350000D03*
D16*
X132245000Y-107370000D03*
X134535000Y-107370000D03*
X136825000Y-107370000D03*
X139115000Y-107370000D03*
X128810000Y-109350000D03*
X131100000Y-109350000D03*
X133390000Y-109350000D03*
X135680000Y-109350000D03*
X137970000Y-109350000D03*
X129955000Y-111330000D03*
X132245000Y-111330000D03*
X134535000Y-111330000D03*
X136825000Y-111330000D03*
X139115000Y-111330000D03*
D17*
X120300000Y-100890000D03*
X122700000Y-102890000D03*
X126400000Y-100890000D03*
X128200000Y-102890000D03*
X131900000Y-100890000D03*
M02*
