G04 #@! TF.GenerationSoftware,KiCad,Pcbnew,(5.1.10-1-10_14)*
G04 #@! TF.CreationDate,2021-10-23T02:31:54-04:00*
G04 #@! TF.ProjectId,8DIN2VGA,3844494e-3256-4474-912e-6b696361645f,1*
G04 #@! TF.SameCoordinates,Original*
G04 #@! TF.FileFunction,Copper,L1,Top*
G04 #@! TF.FilePolarity,Positive*
%FSLAX46Y46*%
G04 Gerber Fmt 4.6, Leading zero omitted, Abs format (unit mm)*
G04 Created by KiCad (PCBNEW (5.1.10-1-10_14)) date 2021-10-23 02:31:54*
%MOMM*%
%LPD*%
G01*
G04 APERTURE LIST*
G04 #@! TA.AperFunction,SMDPad,CuDef*
%ADD10R,0.920000X0.970000*%
G04 #@! TD*
G04 #@! TA.AperFunction,ComponentPad*
%ADD11R,1.700000X1.700000*%
G04 #@! TD*
G04 #@! TA.AperFunction,ComponentPad*
%ADD12C,4.066000*%
G04 #@! TD*
G04 #@! TA.AperFunction,ComponentPad*
%ADD13C,1.700000*%
G04 #@! TD*
G04 #@! TA.AperFunction,ComponentPad*
%ADD14O,1.508000X3.016000*%
G04 #@! TD*
G04 #@! TA.AperFunction,ViaPad*
%ADD15C,0.600000*%
G04 #@! TD*
G04 #@! TA.AperFunction,Conductor*
%ADD16C,0.200000*%
G04 #@! TD*
G04 #@! TA.AperFunction,Conductor*
%ADD17C,0.160000*%
G04 #@! TD*
G04 #@! TA.AperFunction,Conductor*
%ADD18C,0.152400*%
G04 #@! TD*
G04 #@! TA.AperFunction,Conductor*
%ADD19C,0.025400*%
G04 #@! TD*
G04 APERTURE END LIST*
D10*
X134745000Y-99530000D03*
X136295000Y-99530000D03*
X138145000Y-98120000D03*
X139695000Y-98120000D03*
G04 #@! TA.AperFunction,SMDPad,CuDef*
G36*
G01*
X150830000Y-106750000D02*
X152530000Y-106750000D01*
G75*
G02*
X152680000Y-106900000I0J-150000D01*
G01*
X152680000Y-107800000D01*
G75*
G02*
X152530000Y-107950000I-150000J0D01*
G01*
X150830000Y-107950000D01*
G75*
G02*
X150680000Y-107800000I0J150000D01*
G01*
X150680000Y-106900000D01*
G75*
G02*
X150830000Y-106750000I150000J0D01*
G01*
G37*
G04 #@! TD.AperFunction*
G04 #@! TA.AperFunction,SMDPad,CuDef*
G36*
G01*
X157568000Y-110980000D02*
X157568000Y-112680000D01*
G75*
G02*
X157418000Y-112830000I-150000J0D01*
G01*
X156518000Y-112830000D01*
G75*
G02*
X156368000Y-112680000I0J150000D01*
G01*
X156368000Y-110980000D01*
G75*
G02*
X156518000Y-110830000I150000J0D01*
G01*
X157418000Y-110830000D01*
G75*
G02*
X157568000Y-110980000I0J-150000D01*
G01*
G37*
G04 #@! TD.AperFunction*
G04 #@! TA.AperFunction,SMDPad,CuDef*
G36*
G01*
X155644000Y-110980000D02*
X155644000Y-112680000D01*
G75*
G02*
X155494000Y-112830000I-150000J0D01*
G01*
X154594000Y-112830000D01*
G75*
G02*
X154444000Y-112680000I0J150000D01*
G01*
X154444000Y-110980000D01*
G75*
G02*
X154594000Y-110830000I150000J0D01*
G01*
X155494000Y-110830000D01*
G75*
G02*
X155644000Y-110980000I0J-150000D01*
G01*
G37*
G04 #@! TD.AperFunction*
G04 #@! TA.AperFunction,SMDPad,CuDef*
G36*
G01*
X153720000Y-110980000D02*
X153720000Y-112680000D01*
G75*
G02*
X153570000Y-112830000I-150000J0D01*
G01*
X152670000Y-112830000D01*
G75*
G02*
X152520000Y-112680000I0J150000D01*
G01*
X152520000Y-110980000D01*
G75*
G02*
X152670000Y-110830000I150000J0D01*
G01*
X153570000Y-110830000D01*
G75*
G02*
X153720000Y-110980000I0J-150000D01*
G01*
G37*
G04 #@! TD.AperFunction*
D11*
X129955000Y-107370000D03*
D12*
X122040000Y-109350000D03*
X147030000Y-109350000D03*
D13*
X132245000Y-107370000D03*
X134535000Y-107370000D03*
X136825000Y-107370000D03*
X139115000Y-107370000D03*
X128810000Y-109350000D03*
X131100000Y-109350000D03*
X133390000Y-109350000D03*
X135680000Y-109350000D03*
X137970000Y-109350000D03*
X129955000Y-111330000D03*
X132245000Y-111330000D03*
X134535000Y-111330000D03*
X136825000Y-111330000D03*
X139115000Y-111330000D03*
D14*
X120300000Y-100890000D03*
X122700000Y-102890000D03*
X126400000Y-100890000D03*
X128200000Y-102890000D03*
X131900000Y-100890000D03*
D15*
X137830000Y-99839998D03*
X139680000Y-99830000D03*
X143130000Y-104200000D03*
X143120000Y-107480000D03*
X136670000Y-103150000D03*
X138470000Y-104540000D03*
X137760000Y-112820000D03*
X133360000Y-112610000D03*
X153460000Y-99440000D03*
X156730000Y-99440000D03*
X153840000Y-109870000D03*
X143260000Y-111810000D03*
X153460000Y-107080000D03*
X156730000Y-107090000D03*
X146049980Y-104199984D03*
D16*
X137520002Y-99530000D02*
X137830000Y-99839998D01*
X136295000Y-99530000D02*
X137520002Y-99530000D01*
X139680000Y-99830000D02*
X139680000Y-98390000D01*
X128260000Y-98150000D02*
X137960000Y-98150000D01*
X126400000Y-100010000D02*
X128260000Y-98150000D01*
X137960000Y-98150000D02*
X138110000Y-98300000D01*
X126400000Y-100890000D02*
X126400000Y-100010000D01*
X129640000Y-107340000D02*
X134510000Y-102470000D01*
X134510000Y-102470000D02*
X141400000Y-102470000D01*
X141400000Y-102470000D02*
X143130000Y-104200000D01*
X143120000Y-109750000D02*
X143120000Y-107480000D01*
X145650000Y-112280000D02*
X143120000Y-109750000D01*
X152790000Y-112280000D02*
X145650000Y-112280000D01*
X153140000Y-111930000D02*
X152790000Y-112280000D01*
X155040000Y-109490000D02*
X155040000Y-111740000D01*
X154460000Y-108910000D02*
X155040000Y-109490000D01*
X150740000Y-108910000D02*
X154460000Y-108910000D01*
X142591196Y-105920000D02*
X147750000Y-105920000D01*
X140521196Y-103850000D02*
X142591196Y-105920000D01*
X135770000Y-103850000D02*
X140521196Y-103850000D01*
X147750000Y-105920000D02*
X150740000Y-108910000D01*
X132280000Y-107340000D02*
X135770000Y-103850000D01*
X132020000Y-107340000D02*
X132280000Y-107340000D01*
X156950000Y-113000000D02*
X156950000Y-111820000D01*
X151900000Y-113630000D02*
X156320000Y-113630000D01*
X151430000Y-113160000D02*
X151900000Y-113630000D01*
X141070000Y-106610000D02*
X141070000Y-111790000D01*
X156320000Y-113630000D02*
X156950000Y-113000000D01*
X141070000Y-111790000D02*
X142440000Y-113160000D01*
X139690000Y-105230000D02*
X141070000Y-106610000D01*
X136650000Y-105230000D02*
X139690000Y-105230000D01*
X142440000Y-113160000D02*
X151430000Y-113160000D01*
X134500000Y-107380000D02*
X136650000Y-105230000D01*
X134280000Y-107380000D02*
X134500000Y-107380000D01*
X132220000Y-99820000D02*
X132220000Y-99830000D01*
X132510000Y-99530000D02*
X132220000Y-99820000D01*
X134745000Y-99530000D02*
X132510000Y-99530000D01*
X134580000Y-101090000D02*
X142939996Y-101090000D01*
X135680000Y-112130000D02*
X134590000Y-113220000D01*
X135395001Y-109395001D02*
X135680000Y-109680000D01*
X135680000Y-109680000D02*
X135680000Y-112130000D01*
X130260000Y-105410000D02*
X134580000Y-101090000D01*
X127870000Y-105410000D02*
X130260000Y-105410000D01*
X127830000Y-113220000D02*
X126370000Y-111760000D01*
X126370000Y-111760000D02*
X126370000Y-106910000D01*
X126370000Y-106910000D02*
X127870000Y-105410000D01*
X134590000Y-113220000D02*
X127830000Y-113220000D01*
X142939996Y-101090000D02*
X146049980Y-104199984D01*
D17*
X149760001Y-107285744D02*
X149758597Y-107300000D01*
X149764196Y-107356850D01*
X149780779Y-107411515D01*
X149807707Y-107461895D01*
X149843947Y-107506053D01*
X149888105Y-107542293D01*
X149938485Y-107569221D01*
X149993150Y-107585804D01*
X150035755Y-107590000D01*
X150050000Y-107591403D01*
X150064245Y-107590000D01*
X151165755Y-107590000D01*
X151180000Y-107591403D01*
X151194245Y-107590000D01*
X151236850Y-107585804D01*
X151291515Y-107569221D01*
X151341895Y-107542293D01*
X151386053Y-107506053D01*
X151422293Y-107461895D01*
X151449221Y-107411515D01*
X151465804Y-107356850D01*
X151471403Y-107300000D01*
X151470000Y-107285755D01*
X151470000Y-98290000D01*
X158540000Y-98290000D01*
X158540001Y-112299877D01*
X156709879Y-114130000D01*
X119390000Y-114130000D01*
X119390000Y-111053272D01*
X120506434Y-111053272D01*
X120743208Y-111339037D01*
X121156167Y-111553810D01*
X121603092Y-111683891D01*
X122066807Y-111724283D01*
X122529491Y-111673432D01*
X122973365Y-111533293D01*
X123336792Y-111339037D01*
X123573566Y-111053272D01*
X122040000Y-109519706D01*
X120506434Y-111053272D01*
X119390000Y-111053272D01*
X119390000Y-109376807D01*
X119665717Y-109376807D01*
X119716568Y-109839491D01*
X119856707Y-110283365D01*
X120050963Y-110646792D01*
X120336728Y-110883566D01*
X121870294Y-109350000D01*
X122209706Y-109350000D01*
X123743272Y-110883566D01*
X124029037Y-110646792D01*
X124243810Y-110233833D01*
X124373891Y-109786908D01*
X124414283Y-109323193D01*
X124363432Y-108860509D01*
X124223293Y-108416635D01*
X124029037Y-108053208D01*
X123743272Y-107816434D01*
X122209706Y-109350000D01*
X121870294Y-109350000D01*
X120336728Y-107816434D01*
X120050963Y-108053208D01*
X119836190Y-108466167D01*
X119706109Y-108913092D01*
X119665717Y-109376807D01*
X119390000Y-109376807D01*
X119390000Y-107646728D01*
X120506434Y-107646728D01*
X122040000Y-109180294D01*
X123573566Y-107646728D01*
X123336792Y-107360963D01*
X122923833Y-107146190D01*
X122476908Y-107016109D01*
X122013193Y-106975717D01*
X121550509Y-107026568D01*
X121106635Y-107166707D01*
X120743208Y-107360963D01*
X120506434Y-107646728D01*
X119390000Y-107646728D01*
X119390000Y-106910000D01*
X126028356Y-106910000D01*
X126030001Y-106926703D01*
X126030000Y-111743307D01*
X126028356Y-111760000D01*
X126030000Y-111776693D01*
X126030000Y-111776700D01*
X126034920Y-111826651D01*
X126054361Y-111890741D01*
X126085933Y-111949807D01*
X126128421Y-112001578D01*
X126141394Y-112012225D01*
X127577775Y-113448607D01*
X127588421Y-113461579D01*
X127640192Y-113504067D01*
X127699258Y-113535639D01*
X127763348Y-113555080D01*
X127813299Y-113560000D01*
X127813307Y-113560000D01*
X127830000Y-113561644D01*
X127846693Y-113560000D01*
X134573307Y-113560000D01*
X134590000Y-113561644D01*
X134606693Y-113560000D01*
X134606701Y-113560000D01*
X134656652Y-113555080D01*
X134720742Y-113535639D01*
X134779808Y-113504067D01*
X134831579Y-113461579D01*
X134842230Y-113448602D01*
X135908607Y-112382225D01*
X135921579Y-112371579D01*
X135964067Y-112319808D01*
X135995639Y-112260742D01*
X136015080Y-112196652D01*
X136020000Y-112146701D01*
X136020000Y-112146693D01*
X136021644Y-112130000D01*
X136020000Y-112113307D01*
X136020000Y-112066492D01*
X136130166Y-112176658D01*
X136308691Y-112295945D01*
X136507059Y-112378112D01*
X136717644Y-112420000D01*
X136932356Y-112420000D01*
X137142941Y-112378112D01*
X137341309Y-112295945D01*
X137519834Y-112176658D01*
X137671658Y-112024834D01*
X137790945Y-111846309D01*
X137873112Y-111647941D01*
X137915000Y-111437356D01*
X137915000Y-111222644D01*
X138025000Y-111222644D01*
X138025000Y-111437356D01*
X138066888Y-111647941D01*
X138149055Y-111846309D01*
X138268342Y-112024834D01*
X138420166Y-112176658D01*
X138598691Y-112295945D01*
X138797059Y-112378112D01*
X139007644Y-112420000D01*
X139222356Y-112420000D01*
X139432941Y-112378112D01*
X139631309Y-112295945D01*
X139809834Y-112176658D01*
X139961658Y-112024834D01*
X140080945Y-111846309D01*
X140163112Y-111647941D01*
X140205000Y-111437356D01*
X140205000Y-111222644D01*
X140163112Y-111012059D01*
X140080945Y-110813691D01*
X139961658Y-110635166D01*
X139809834Y-110483342D01*
X139631309Y-110364055D01*
X139432941Y-110281888D01*
X139222356Y-110240000D01*
X139007644Y-110240000D01*
X138797059Y-110281888D01*
X138598691Y-110364055D01*
X138420166Y-110483342D01*
X138268342Y-110635166D01*
X138149055Y-110813691D01*
X138066888Y-111012059D01*
X138025000Y-111222644D01*
X137915000Y-111222644D01*
X137873112Y-111012059D01*
X137790945Y-110813691D01*
X137671658Y-110635166D01*
X137519834Y-110483342D01*
X137341309Y-110364055D01*
X137142941Y-110281888D01*
X136932356Y-110240000D01*
X136717644Y-110240000D01*
X136507059Y-110281888D01*
X136308691Y-110364055D01*
X136262120Y-110395172D01*
X136269828Y-110385938D01*
X136356437Y-110285494D01*
X136362098Y-110278678D01*
X136416781Y-110210311D01*
X137279394Y-110210311D01*
X137373717Y-110374869D01*
X137585117Y-110471505D01*
X137811307Y-110525042D01*
X138043595Y-110533423D01*
X138273055Y-110496327D01*
X138490869Y-110415177D01*
X138566283Y-110374869D01*
X138660606Y-110210311D01*
X137970000Y-109519706D01*
X137279394Y-110210311D01*
X136416781Y-110210311D01*
X136452952Y-110165090D01*
X136463757Y-110150481D01*
X136554801Y-110017094D01*
X136567021Y-109997171D01*
X136605950Y-109926166D01*
X136645945Y-109866309D01*
X136728112Y-109667941D01*
X136770000Y-109457356D01*
X136770000Y-109423595D01*
X136786577Y-109423595D01*
X136823673Y-109653055D01*
X136904823Y-109870869D01*
X136945131Y-109946283D01*
X137109689Y-110040606D01*
X137800294Y-109350000D01*
X138139706Y-109350000D01*
X138830311Y-110040606D01*
X138994869Y-109946283D01*
X139091505Y-109734883D01*
X139145042Y-109508693D01*
X139153423Y-109276405D01*
X139116327Y-109046945D01*
X139035177Y-108829131D01*
X138994869Y-108753717D01*
X138830311Y-108659394D01*
X138139706Y-109350000D01*
X137800294Y-109350000D01*
X137109689Y-108659394D01*
X136945131Y-108753717D01*
X136848495Y-108965117D01*
X136794958Y-109191307D01*
X136786577Y-109423595D01*
X136770000Y-109423595D01*
X136770000Y-109242644D01*
X136728112Y-109032059D01*
X136645945Y-108833691D01*
X136526658Y-108655166D01*
X136374834Y-108503342D01*
X136354401Y-108489689D01*
X137279394Y-108489689D01*
X137970000Y-109180294D01*
X138660606Y-108489689D01*
X138637337Y-108449093D01*
X138730117Y-108491505D01*
X138956307Y-108545042D01*
X139188595Y-108553423D01*
X139418055Y-108516327D01*
X139635869Y-108435177D01*
X139711283Y-108394869D01*
X139805606Y-108230311D01*
X139115000Y-107539706D01*
X138424394Y-108230311D01*
X138447663Y-108270907D01*
X138354883Y-108228495D01*
X138128693Y-108174958D01*
X137896405Y-108166577D01*
X137666945Y-108203673D01*
X137449131Y-108284823D01*
X137373717Y-108325131D01*
X137279394Y-108489689D01*
X136354401Y-108489689D01*
X136196309Y-108384055D01*
X135997941Y-108301888D01*
X135787356Y-108260000D01*
X135572644Y-108260000D01*
X135362059Y-108301888D01*
X135163691Y-108384055D01*
X134985166Y-108503342D01*
X134833342Y-108655166D01*
X134714055Y-108833691D01*
X134631888Y-109032059D01*
X134590000Y-109242644D01*
X134590000Y-109457356D01*
X134631888Y-109667941D01*
X134714055Y-109866309D01*
X134754050Y-109926166D01*
X134792978Y-109997170D01*
X134805198Y-110017094D01*
X134896242Y-110150481D01*
X134907047Y-110165090D01*
X134997901Y-110278678D01*
X135003562Y-110285494D01*
X135090171Y-110385938D01*
X135097878Y-110395172D01*
X135051309Y-110364055D01*
X134852941Y-110281888D01*
X134642356Y-110240000D01*
X134427644Y-110240000D01*
X134217059Y-110281888D01*
X134018691Y-110364055D01*
X133840166Y-110483342D01*
X133688342Y-110635166D01*
X133569055Y-110813691D01*
X133486888Y-111012059D01*
X133445000Y-111222644D01*
X133445000Y-111437356D01*
X133486888Y-111647941D01*
X133569055Y-111846309D01*
X133688342Y-112024834D01*
X133840166Y-112176658D01*
X134018691Y-112295945D01*
X134217059Y-112378112D01*
X134427644Y-112420000D01*
X134642356Y-112420000D01*
X134852941Y-112378112D01*
X135020435Y-112308734D01*
X134449169Y-112880000D01*
X127970832Y-112880000D01*
X126710000Y-111619169D01*
X126710000Y-111222644D01*
X128865000Y-111222644D01*
X128865000Y-111437356D01*
X128906888Y-111647941D01*
X128989055Y-111846309D01*
X129108342Y-112024834D01*
X129260166Y-112176658D01*
X129438691Y-112295945D01*
X129637059Y-112378112D01*
X129847644Y-112420000D01*
X130062356Y-112420000D01*
X130272941Y-112378112D01*
X130471309Y-112295945D01*
X130649834Y-112176658D01*
X130801658Y-112024834D01*
X130920945Y-111846309D01*
X131003112Y-111647941D01*
X131045000Y-111437356D01*
X131045000Y-111222644D01*
X131155000Y-111222644D01*
X131155000Y-111437356D01*
X131196888Y-111647941D01*
X131279055Y-111846309D01*
X131398342Y-112024834D01*
X131550166Y-112176658D01*
X131728691Y-112295945D01*
X131927059Y-112378112D01*
X132137644Y-112420000D01*
X132352356Y-112420000D01*
X132562941Y-112378112D01*
X132761309Y-112295945D01*
X132939834Y-112176658D01*
X133091658Y-112024834D01*
X133210945Y-111846309D01*
X133293112Y-111647941D01*
X133335000Y-111437356D01*
X133335000Y-111222644D01*
X133293112Y-111012059D01*
X133210945Y-110813691D01*
X133091658Y-110635166D01*
X132939834Y-110483342D01*
X132761309Y-110364055D01*
X132562941Y-110281888D01*
X132352356Y-110240000D01*
X132137644Y-110240000D01*
X131927059Y-110281888D01*
X131728691Y-110364055D01*
X131550166Y-110483342D01*
X131398342Y-110635166D01*
X131279055Y-110813691D01*
X131196888Y-111012059D01*
X131155000Y-111222644D01*
X131045000Y-111222644D01*
X131003112Y-111012059D01*
X130920945Y-110813691D01*
X130801658Y-110635166D01*
X130649834Y-110483342D01*
X130471309Y-110364055D01*
X130272941Y-110281888D01*
X130062356Y-110240000D01*
X129847644Y-110240000D01*
X129637059Y-110281888D01*
X129438691Y-110364055D01*
X129260166Y-110483342D01*
X129108342Y-110635166D01*
X128989055Y-110813691D01*
X128906888Y-111012059D01*
X128865000Y-111222644D01*
X126710000Y-111222644D01*
X126710000Y-110210311D01*
X128119394Y-110210311D01*
X128213717Y-110374869D01*
X128425117Y-110471505D01*
X128651307Y-110525042D01*
X128883595Y-110533423D01*
X129113055Y-110496327D01*
X129330869Y-110415177D01*
X129406283Y-110374869D01*
X129500606Y-110210311D01*
X130409394Y-110210311D01*
X130503717Y-110374869D01*
X130715117Y-110471505D01*
X130941307Y-110525042D01*
X131173595Y-110533423D01*
X131403055Y-110496327D01*
X131620869Y-110415177D01*
X131696283Y-110374869D01*
X131790606Y-110210311D01*
X132699394Y-110210311D01*
X132793717Y-110374869D01*
X133005117Y-110471505D01*
X133231307Y-110525042D01*
X133463595Y-110533423D01*
X133693055Y-110496327D01*
X133910869Y-110415177D01*
X133986283Y-110374869D01*
X134080606Y-110210311D01*
X133390000Y-109519706D01*
X132699394Y-110210311D01*
X131790606Y-110210311D01*
X131100000Y-109519706D01*
X130409394Y-110210311D01*
X129500606Y-110210311D01*
X128810000Y-109519706D01*
X128119394Y-110210311D01*
X126710000Y-110210311D01*
X126710000Y-109423595D01*
X127626577Y-109423595D01*
X127663673Y-109653055D01*
X127744823Y-109870869D01*
X127785131Y-109946283D01*
X127949689Y-110040606D01*
X128640294Y-109350000D01*
X128979706Y-109350000D01*
X129670311Y-110040606D01*
X129834869Y-109946283D01*
X129931505Y-109734883D01*
X129952537Y-109646026D01*
X129953673Y-109653055D01*
X130034823Y-109870869D01*
X130075131Y-109946283D01*
X130239689Y-110040606D01*
X130930294Y-109350000D01*
X131269706Y-109350000D01*
X131960311Y-110040606D01*
X132124869Y-109946283D01*
X132221505Y-109734883D01*
X132242537Y-109646026D01*
X132243673Y-109653055D01*
X132324823Y-109870869D01*
X132365131Y-109946283D01*
X132529689Y-110040606D01*
X133220294Y-109350000D01*
X133559706Y-109350000D01*
X134250311Y-110040606D01*
X134414869Y-109946283D01*
X134511505Y-109734883D01*
X134565042Y-109508693D01*
X134573423Y-109276405D01*
X134536327Y-109046945D01*
X134455177Y-108829131D01*
X134414869Y-108753717D01*
X134250311Y-108659394D01*
X133559706Y-109350000D01*
X133220294Y-109350000D01*
X132529689Y-108659394D01*
X132365131Y-108753717D01*
X132268495Y-108965117D01*
X132247463Y-109053974D01*
X132246327Y-109046945D01*
X132165177Y-108829131D01*
X132124869Y-108753717D01*
X131960311Y-108659394D01*
X131269706Y-109350000D01*
X130930294Y-109350000D01*
X130239689Y-108659394D01*
X130075131Y-108753717D01*
X129978495Y-108965117D01*
X129957463Y-109053974D01*
X129956327Y-109046945D01*
X129875177Y-108829131D01*
X129834869Y-108753717D01*
X129670311Y-108659394D01*
X128979706Y-109350000D01*
X128640294Y-109350000D01*
X127949689Y-108659394D01*
X127785131Y-108753717D01*
X127688495Y-108965117D01*
X127634958Y-109191307D01*
X127626577Y-109423595D01*
X126710000Y-109423595D01*
X126710000Y-108489689D01*
X128119394Y-108489689D01*
X128810000Y-109180294D01*
X129500606Y-108489689D01*
X129484254Y-108461161D01*
X130425746Y-108461161D01*
X130409394Y-108489689D01*
X131100000Y-109180294D01*
X131790606Y-108489689D01*
X132699394Y-108489689D01*
X133390000Y-109180294D01*
X134080606Y-108489689D01*
X133986283Y-108325131D01*
X133774883Y-108228495D01*
X133548693Y-108174958D01*
X133316405Y-108166577D01*
X133086945Y-108203673D01*
X132869131Y-108284823D01*
X132793717Y-108325131D01*
X132699394Y-108489689D01*
X131790606Y-108489689D01*
X131696283Y-108325131D01*
X131484883Y-108228495D01*
X131258693Y-108174958D01*
X131046161Y-108167290D01*
X131046161Y-107262644D01*
X131155000Y-107262644D01*
X131155000Y-107477356D01*
X131196888Y-107687941D01*
X131279055Y-107886309D01*
X131398342Y-108064834D01*
X131550166Y-108216658D01*
X131728691Y-108335945D01*
X131927059Y-108418112D01*
X132137644Y-108460000D01*
X132352356Y-108460000D01*
X132562941Y-108418112D01*
X132761309Y-108335945D01*
X132939834Y-108216658D01*
X133091658Y-108064834D01*
X133210945Y-107886309D01*
X133293112Y-107687941D01*
X133306532Y-107620476D01*
X133329410Y-107543353D01*
X133334931Y-107520790D01*
X133365806Y-107361586D01*
X133368578Y-107343718D01*
X133378041Y-107262644D01*
X133445000Y-107262644D01*
X133445000Y-107477356D01*
X133486888Y-107687941D01*
X133569055Y-107886309D01*
X133688342Y-108064834D01*
X133840166Y-108216658D01*
X134018691Y-108335945D01*
X134217059Y-108418112D01*
X134427644Y-108460000D01*
X134642356Y-108460000D01*
X134852941Y-108418112D01*
X135051309Y-108335945D01*
X135229834Y-108216658D01*
X135381658Y-108064834D01*
X135500945Y-107886309D01*
X135583112Y-107687941D01*
X135601042Y-107597800D01*
X135621531Y-107520615D01*
X135626596Y-107496672D01*
X135651210Y-107341639D01*
X135653440Y-107322826D01*
X135658173Y-107262644D01*
X135735000Y-107262644D01*
X135735000Y-107477356D01*
X135776888Y-107687941D01*
X135859055Y-107886309D01*
X135978342Y-108064834D01*
X136130166Y-108216658D01*
X136308691Y-108335945D01*
X136507059Y-108418112D01*
X136717644Y-108460000D01*
X136932356Y-108460000D01*
X137142941Y-108418112D01*
X137341309Y-108335945D01*
X137519834Y-108216658D01*
X137671658Y-108064834D01*
X137790945Y-107886309D01*
X137873112Y-107687941D01*
X137915000Y-107477356D01*
X137915000Y-107443595D01*
X137931577Y-107443595D01*
X137968673Y-107673055D01*
X138049823Y-107890869D01*
X138090131Y-107966283D01*
X138254689Y-108060606D01*
X138945294Y-107370000D01*
X139284706Y-107370000D01*
X139975311Y-108060606D01*
X140139869Y-107966283D01*
X140236505Y-107754883D01*
X140290042Y-107528693D01*
X140298423Y-107296405D01*
X140261327Y-107066945D01*
X140180177Y-106849131D01*
X140139869Y-106773717D01*
X139975311Y-106679394D01*
X139284706Y-107370000D01*
X138945294Y-107370000D01*
X138254689Y-106679394D01*
X138090131Y-106773717D01*
X137993495Y-106985117D01*
X137939958Y-107211307D01*
X137931577Y-107443595D01*
X137915000Y-107443595D01*
X137915000Y-107262644D01*
X137873112Y-107052059D01*
X137790945Y-106853691D01*
X137671658Y-106675166D01*
X137519834Y-106523342D01*
X137499401Y-106509689D01*
X138424394Y-106509689D01*
X139115000Y-107200294D01*
X139805606Y-106509689D01*
X139711283Y-106345131D01*
X139499883Y-106248495D01*
X139273693Y-106194958D01*
X139041405Y-106186577D01*
X138811945Y-106223673D01*
X138594131Y-106304823D01*
X138518717Y-106345131D01*
X138424394Y-106509689D01*
X137499401Y-106509689D01*
X137341309Y-106404055D01*
X137142941Y-106321888D01*
X136932356Y-106280000D01*
X136717644Y-106280000D01*
X136507059Y-106321888D01*
X136308691Y-106404055D01*
X136130166Y-106523342D01*
X135978342Y-106675166D01*
X135859055Y-106853691D01*
X135776888Y-107052059D01*
X135735000Y-107262644D01*
X135658173Y-107262644D01*
X135664559Y-107181468D01*
X135665106Y-107172238D01*
X135670276Y-107042953D01*
X135676651Y-106929407D01*
X135689666Y-106832643D01*
X135713687Y-106744560D01*
X135755410Y-106653493D01*
X135825605Y-106548976D01*
X135940231Y-106420601D01*
X136790833Y-105570000D01*
X139549169Y-105570000D01*
X140730000Y-106750832D01*
X140730001Y-111773297D01*
X140728356Y-111790000D01*
X140734920Y-111856651D01*
X140754361Y-111920741D01*
X140785933Y-111979807D01*
X140813638Y-112013565D01*
X140828422Y-112031579D01*
X140841394Y-112042225D01*
X142187774Y-113388606D01*
X142198421Y-113401579D01*
X142250192Y-113444067D01*
X142309258Y-113475639D01*
X142373348Y-113495080D01*
X142423299Y-113500000D01*
X142423307Y-113500000D01*
X142440000Y-113501644D01*
X142456693Y-113500000D01*
X151289169Y-113500000D01*
X151647779Y-113858612D01*
X151658421Y-113871579D01*
X151671387Y-113882220D01*
X151671392Y-113882225D01*
X151710192Y-113914067D01*
X151769258Y-113945639D01*
X151833348Y-113965080D01*
X151883299Y-113970000D01*
X151883308Y-113970000D01*
X151899999Y-113971644D01*
X151916690Y-113970000D01*
X156303307Y-113970000D01*
X156320000Y-113971644D01*
X156336693Y-113970000D01*
X156336701Y-113970000D01*
X156386652Y-113965080D01*
X156450742Y-113945639D01*
X156509808Y-113914067D01*
X156561579Y-113871579D01*
X156572229Y-113858602D01*
X157178617Y-113252216D01*
X157191578Y-113241579D01*
X157202216Y-113228617D01*
X157202226Y-113228607D01*
X157223879Y-113202222D01*
X157234067Y-113189808D01*
X157235367Y-113187376D01*
X157269614Y-113147912D01*
X157292273Y-113117164D01*
X157320822Y-113071161D01*
X157418000Y-113071161D01*
X157494312Y-113063645D01*
X157567691Y-113041386D01*
X157635317Y-113005238D01*
X157694593Y-112956593D01*
X157743238Y-112897317D01*
X157779386Y-112829691D01*
X157801645Y-112756312D01*
X157809161Y-112680000D01*
X157809161Y-110980000D01*
X157801645Y-110903688D01*
X157779386Y-110830309D01*
X157743238Y-110762683D01*
X157694593Y-110703407D01*
X157635317Y-110654762D01*
X157567691Y-110618614D01*
X157494312Y-110596355D01*
X157418000Y-110588839D01*
X156518000Y-110588839D01*
X156441688Y-110596355D01*
X156368309Y-110618614D01*
X156300683Y-110654762D01*
X156241407Y-110703407D01*
X156192762Y-110762683D01*
X156156614Y-110830309D01*
X156134355Y-110903688D01*
X156126839Y-110980000D01*
X156126839Y-112680000D01*
X156134355Y-112756312D01*
X156156614Y-112829691D01*
X156192762Y-112897317D01*
X156241407Y-112956593D01*
X156300683Y-113005238D01*
X156368309Y-113041386D01*
X156413940Y-113055228D01*
X156179169Y-113290000D01*
X152040833Y-113290000D01*
X151682229Y-112931398D01*
X151671579Y-112918421D01*
X151619808Y-112875933D01*
X151560742Y-112844361D01*
X151496652Y-112824920D01*
X151446701Y-112820000D01*
X151446693Y-112820000D01*
X151430000Y-112818356D01*
X151413307Y-112820000D01*
X142580832Y-112820000D01*
X141410000Y-111649169D01*
X141410000Y-107426815D01*
X142580000Y-107426815D01*
X142580000Y-107533185D01*
X142600752Y-107637512D01*
X142641458Y-107735786D01*
X142654842Y-107755817D01*
X142663680Y-107772885D01*
X142669092Y-107782763D01*
X142694803Y-107827180D01*
X142698120Y-107832736D01*
X142722111Y-107871719D01*
X142741613Y-107903660D01*
X142754686Y-107927197D01*
X142762946Y-107945237D01*
X142768914Y-107962843D01*
X142774088Y-107986253D01*
X142778172Y-108020891D01*
X142780001Y-108074152D01*
X142780000Y-109733307D01*
X142778356Y-109750000D01*
X142780000Y-109766693D01*
X142780000Y-109766700D01*
X142784920Y-109816651D01*
X142804361Y-109880741D01*
X142835933Y-109939807D01*
X142878421Y-109991578D01*
X142891394Y-110002225D01*
X145397779Y-112508612D01*
X145408421Y-112521579D01*
X145421387Y-112532220D01*
X145421392Y-112532225D01*
X145440580Y-112547972D01*
X145460192Y-112564067D01*
X145519258Y-112595639D01*
X145583348Y-112615080D01*
X145633299Y-112620000D01*
X145633306Y-112620000D01*
X145649999Y-112621644D01*
X145666692Y-112620000D01*
X152118741Y-112620000D01*
X152252620Y-112621361D01*
X152278839Y-112622218D01*
X152278839Y-112680000D01*
X152286355Y-112756312D01*
X152308614Y-112829691D01*
X152344762Y-112897317D01*
X152393407Y-112956593D01*
X152452683Y-113005238D01*
X152520309Y-113041386D01*
X152593688Y-113063645D01*
X152670000Y-113071161D01*
X153570000Y-113071161D01*
X153646312Y-113063645D01*
X153719691Y-113041386D01*
X153787317Y-113005238D01*
X153846593Y-112956593D01*
X153895238Y-112897317D01*
X153931386Y-112829691D01*
X153953645Y-112756312D01*
X153961161Y-112680000D01*
X153961161Y-110980000D01*
X153953645Y-110903688D01*
X153931386Y-110830309D01*
X153895238Y-110762683D01*
X153846593Y-110703407D01*
X153787317Y-110654762D01*
X153719691Y-110618614D01*
X153646312Y-110596355D01*
X153570000Y-110588839D01*
X152670000Y-110588839D01*
X152593688Y-110596355D01*
X152520309Y-110618614D01*
X152452683Y-110654762D01*
X152393407Y-110703407D01*
X152344762Y-110762683D01*
X152308614Y-110830309D01*
X152286355Y-110903688D01*
X152278839Y-110980000D01*
X152278839Y-111725063D01*
X152268429Y-111765210D01*
X152250343Y-111828668D01*
X152233489Y-111876209D01*
X152219013Y-111906025D01*
X152209309Y-111919646D01*
X152204199Y-111924243D01*
X152195595Y-111928818D01*
X152170267Y-111935566D01*
X152111035Y-111940000D01*
X145790833Y-111940000D01*
X144904105Y-111053272D01*
X145496434Y-111053272D01*
X145733208Y-111339037D01*
X146146167Y-111553810D01*
X146593092Y-111683891D01*
X147056807Y-111724283D01*
X147519491Y-111673432D01*
X147963365Y-111533293D01*
X148326792Y-111339037D01*
X148563566Y-111053272D01*
X147030000Y-109519706D01*
X145496434Y-111053272D01*
X144904105Y-111053272D01*
X143460000Y-109609169D01*
X143460000Y-109376807D01*
X144655717Y-109376807D01*
X144706568Y-109839491D01*
X144846707Y-110283365D01*
X145040963Y-110646792D01*
X145326728Y-110883566D01*
X146860294Y-109350000D01*
X147199706Y-109350000D01*
X148733272Y-110883566D01*
X149019037Y-110646792D01*
X149233810Y-110233833D01*
X149363891Y-109786908D01*
X149404283Y-109323193D01*
X149353432Y-108860509D01*
X149213293Y-108416635D01*
X149019037Y-108053208D01*
X148733272Y-107816434D01*
X147199706Y-109350000D01*
X146860294Y-109350000D01*
X145326728Y-107816434D01*
X145040963Y-108053208D01*
X144826190Y-108466167D01*
X144696109Y-108913092D01*
X144655717Y-109376807D01*
X143460000Y-109376807D01*
X143460000Y-108074125D01*
X143461827Y-108020890D01*
X143465911Y-107986253D01*
X143471085Y-107962843D01*
X143477053Y-107945237D01*
X143485313Y-107927197D01*
X143498386Y-107903660D01*
X143517888Y-107871719D01*
X143541879Y-107832736D01*
X143545196Y-107827180D01*
X143570907Y-107782763D01*
X143576318Y-107772888D01*
X143585157Y-107755817D01*
X143598542Y-107735786D01*
X143635430Y-107646728D01*
X145496434Y-107646728D01*
X147030000Y-109180294D01*
X148563566Y-107646728D01*
X148326792Y-107360963D01*
X147913833Y-107146190D01*
X147466908Y-107016109D01*
X147003193Y-106975717D01*
X146540509Y-107026568D01*
X146096635Y-107166707D01*
X145733208Y-107360963D01*
X145496434Y-107646728D01*
X143635430Y-107646728D01*
X143639248Y-107637512D01*
X143660000Y-107533185D01*
X143660000Y-107426815D01*
X143639248Y-107322488D01*
X143598542Y-107224214D01*
X143539446Y-107135770D01*
X143464230Y-107060554D01*
X143375786Y-107001458D01*
X143277512Y-106960752D01*
X143173185Y-106940000D01*
X143066815Y-106940000D01*
X142962488Y-106960752D01*
X142864214Y-107001458D01*
X142775770Y-107060554D01*
X142700554Y-107135770D01*
X142641458Y-107224214D01*
X142600752Y-107322488D01*
X142580000Y-107426815D01*
X141410000Y-107426815D01*
X141410000Y-106626693D01*
X141411644Y-106610000D01*
X141410000Y-106593307D01*
X141410000Y-106593299D01*
X141405080Y-106543348D01*
X141385639Y-106479258D01*
X141354067Y-106420192D01*
X141352211Y-106417931D01*
X141322225Y-106381393D01*
X141322221Y-106381389D01*
X141311578Y-106368421D01*
X141298611Y-106357779D01*
X139942230Y-105001399D01*
X139931579Y-104988421D01*
X139879808Y-104945933D01*
X139820742Y-104914361D01*
X139756652Y-104894920D01*
X139706701Y-104890000D01*
X139706693Y-104890000D01*
X139690000Y-104888356D01*
X139673307Y-104890000D01*
X136666692Y-104890000D01*
X136649999Y-104888356D01*
X136633306Y-104890000D01*
X136633299Y-104890000D01*
X136583348Y-104894920D01*
X136519258Y-104914361D01*
X136460192Y-104945933D01*
X136421392Y-104977775D01*
X136421387Y-104977780D01*
X136408421Y-104988421D01*
X136397779Y-105001388D01*
X135459334Y-105939834D01*
X135328602Y-106056714D01*
X135221528Y-106129091D01*
X135127686Y-106172894D01*
X135036773Y-106198931D01*
X134937378Y-106214207D01*
X134821626Y-106223586D01*
X134690925Y-106232810D01*
X134680434Y-106233783D01*
X134538657Y-106250067D01*
X134518891Y-106253176D01*
X134363664Y-106284279D01*
X134339308Y-106290503D01*
X134276877Y-106309989D01*
X134217059Y-106321888D01*
X134018691Y-106404055D01*
X133840166Y-106523342D01*
X133688342Y-106675166D01*
X133569055Y-106853691D01*
X133486888Y-107052059D01*
X133445000Y-107262644D01*
X133378041Y-107262644D01*
X133385504Y-107198710D01*
X133386366Y-107189921D01*
X133396924Y-107057232D01*
X133408109Y-106940159D01*
X133425490Y-106838946D01*
X133454086Y-106745314D01*
X133501203Y-106647938D01*
X133577634Y-106536867D01*
X133698746Y-106402085D01*
X135910833Y-104190000D01*
X140380365Y-104190000D01*
X142338970Y-106148606D01*
X142349617Y-106161579D01*
X142401388Y-106204067D01*
X142460454Y-106235639D01*
X142524544Y-106255080D01*
X142574495Y-106260000D01*
X142574502Y-106260000D01*
X142591195Y-106261644D01*
X142607888Y-106260000D01*
X147609169Y-106260000D01*
X150487779Y-109138612D01*
X150498421Y-109151579D01*
X150511387Y-109162220D01*
X150511393Y-109162226D01*
X150532653Y-109179673D01*
X150550192Y-109194067D01*
X150609258Y-109225639D01*
X150673348Y-109245080D01*
X150723299Y-109250000D01*
X150723307Y-109250000D01*
X150740000Y-109251644D01*
X150756693Y-109250000D01*
X154319169Y-109250000D01*
X154700000Y-109630832D01*
X154700000Y-110588839D01*
X154594000Y-110588839D01*
X154517688Y-110596355D01*
X154444309Y-110618614D01*
X154376683Y-110654762D01*
X154317407Y-110703407D01*
X154268762Y-110762683D01*
X154232614Y-110830309D01*
X154210355Y-110903688D01*
X154202839Y-110980000D01*
X154202839Y-112680000D01*
X154210355Y-112756312D01*
X154232614Y-112829691D01*
X154268762Y-112897317D01*
X154317407Y-112956593D01*
X154376683Y-113005238D01*
X154444309Y-113041386D01*
X154517688Y-113063645D01*
X154594000Y-113071161D01*
X155494000Y-113071161D01*
X155570312Y-113063645D01*
X155643691Y-113041386D01*
X155711317Y-113005238D01*
X155770593Y-112956593D01*
X155819238Y-112897317D01*
X155855386Y-112829691D01*
X155877645Y-112756312D01*
X155885161Y-112680000D01*
X155885161Y-110980000D01*
X155877645Y-110903688D01*
X155855386Y-110830309D01*
X155819238Y-110762683D01*
X155770593Y-110703407D01*
X155711317Y-110654762D01*
X155643691Y-110618614D01*
X155570312Y-110596355D01*
X155494000Y-110588839D01*
X155380000Y-110588839D01*
X155380000Y-109506693D01*
X155381644Y-109490000D01*
X155380000Y-109473307D01*
X155380000Y-109473299D01*
X155375080Y-109423348D01*
X155355639Y-109359258D01*
X155324067Y-109300192D01*
X155304545Y-109276405D01*
X155292225Y-109261393D01*
X155292221Y-109261389D01*
X155281578Y-109248421D01*
X155268611Y-109237779D01*
X154712229Y-108681398D01*
X154701579Y-108668421D01*
X154649808Y-108625933D01*
X154590742Y-108594361D01*
X154526652Y-108574920D01*
X154476701Y-108570000D01*
X154476693Y-108570000D01*
X154460000Y-108568356D01*
X154443307Y-108570000D01*
X150880833Y-108570000D01*
X148002230Y-105691399D01*
X147991579Y-105678421D01*
X147939808Y-105635933D01*
X147880742Y-105604361D01*
X147816652Y-105584920D01*
X147766701Y-105580000D01*
X147766693Y-105580000D01*
X147750000Y-105578356D01*
X147733307Y-105580000D01*
X142732028Y-105580000D01*
X140773426Y-103621399D01*
X140762775Y-103608421D01*
X140711004Y-103565933D01*
X140651938Y-103534361D01*
X140587848Y-103514920D01*
X140537897Y-103510000D01*
X140537889Y-103510000D01*
X140521196Y-103508356D01*
X140504503Y-103510000D01*
X135786690Y-103510000D01*
X135769999Y-103508356D01*
X135753308Y-103510000D01*
X135753299Y-103510000D01*
X135703348Y-103514920D01*
X135639258Y-103534361D01*
X135580192Y-103565933D01*
X135541392Y-103597775D01*
X135541387Y-103597780D01*
X135528421Y-103608421D01*
X135517779Y-103621388D01*
X133217933Y-105921235D01*
X133083583Y-106041925D01*
X132972984Y-106117929D01*
X132876112Y-106164631D01*
X132782987Y-106192816D01*
X132682248Y-106209733D01*
X132565585Y-106220311D01*
X132433107Y-106230065D01*
X132424549Y-106230849D01*
X132279586Y-106246757D01*
X132261884Y-106249371D01*
X132102686Y-106278978D01*
X132080189Y-106284294D01*
X131999932Y-106307393D01*
X131927059Y-106321888D01*
X131728691Y-106404055D01*
X131550166Y-106523342D01*
X131398342Y-106675166D01*
X131279055Y-106853691D01*
X131196888Y-107052059D01*
X131155000Y-107262644D01*
X131046161Y-107262644D01*
X131046161Y-106520000D01*
X131041527Y-106472952D01*
X131030769Y-106437486D01*
X131081241Y-106379591D01*
X134650832Y-102810000D01*
X141259169Y-102810000D01*
X142469476Y-104020308D01*
X142505821Y-104059238D01*
X142527430Y-104086623D01*
X142540320Y-104106828D01*
X142548554Y-104123508D01*
X142555471Y-104142108D01*
X142562864Y-104167975D01*
X142571644Y-104204281D01*
X142582264Y-104248891D01*
X142583847Y-104255162D01*
X142597074Y-104304750D01*
X142600231Y-104315561D01*
X142606052Y-104333886D01*
X142610752Y-104357512D01*
X142651458Y-104455786D01*
X142710554Y-104544230D01*
X142785770Y-104619446D01*
X142874214Y-104678542D01*
X142972488Y-104719248D01*
X143076815Y-104740000D01*
X143183185Y-104740000D01*
X143287512Y-104719248D01*
X143385786Y-104678542D01*
X143474230Y-104619446D01*
X143549446Y-104544230D01*
X143608542Y-104455786D01*
X143649248Y-104357512D01*
X143670000Y-104253185D01*
X143670000Y-104146815D01*
X143649248Y-104042488D01*
X143608542Y-103944214D01*
X143549446Y-103855770D01*
X143474230Y-103780554D01*
X143385786Y-103721458D01*
X143287512Y-103680752D01*
X143263886Y-103676052D01*
X143245561Y-103670231D01*
X143234750Y-103667074D01*
X143185162Y-103653847D01*
X143178891Y-103652264D01*
X143134281Y-103641644D01*
X143097975Y-103632864D01*
X143072108Y-103625471D01*
X143053508Y-103618554D01*
X143036828Y-103610320D01*
X143016623Y-103597430D01*
X142989238Y-103575821D01*
X142950308Y-103539476D01*
X141652229Y-102241398D01*
X141641579Y-102228421D01*
X141589808Y-102185933D01*
X141530742Y-102154361D01*
X141466652Y-102134920D01*
X141416701Y-102130000D01*
X141416693Y-102130000D01*
X141400000Y-102128356D01*
X141383307Y-102130000D01*
X134526692Y-102130000D01*
X134509999Y-102128356D01*
X134493306Y-102130000D01*
X134493299Y-102130000D01*
X134443348Y-102134920D01*
X134379258Y-102154361D01*
X134320192Y-102185933D01*
X134268421Y-102228421D01*
X134257775Y-102241393D01*
X130599810Y-105899359D01*
X130464665Y-106018871D01*
X130350841Y-106094065D01*
X130246544Y-106142556D01*
X130142203Y-106175280D01*
X130028778Y-106200394D01*
X129905891Y-106224734D01*
X129895191Y-106227109D01*
X129767876Y-106258428D01*
X129744000Y-106265636D01*
X129707281Y-106278839D01*
X129105000Y-106278839D01*
X129057952Y-106283473D01*
X129012712Y-106297196D01*
X128971018Y-106319482D01*
X128934473Y-106349473D01*
X128904482Y-106386018D01*
X128882196Y-106427712D01*
X128868473Y-106472952D01*
X128863839Y-106520000D01*
X128863839Y-108171175D01*
X128736405Y-108166577D01*
X128506945Y-108203673D01*
X128289131Y-108284823D01*
X128213717Y-108325131D01*
X128119394Y-108489689D01*
X126710000Y-108489689D01*
X126710000Y-107050831D01*
X128010833Y-105750000D01*
X130243307Y-105750000D01*
X130260000Y-105751644D01*
X130276693Y-105750000D01*
X130276701Y-105750000D01*
X130326652Y-105745080D01*
X130390742Y-105725639D01*
X130449808Y-105694067D01*
X130501579Y-105651579D01*
X130512230Y-105638601D01*
X134720832Y-101430000D01*
X142799165Y-101430000D01*
X145389459Y-104020295D01*
X145425801Y-104059222D01*
X145447410Y-104086607D01*
X145460300Y-104106812D01*
X145468534Y-104123492D01*
X145475451Y-104142092D01*
X145482844Y-104167959D01*
X145491624Y-104204265D01*
X145502244Y-104248875D01*
X145503827Y-104255146D01*
X145517054Y-104304734D01*
X145520211Y-104315545D01*
X145526032Y-104333870D01*
X145530732Y-104357496D01*
X145571438Y-104455770D01*
X145630534Y-104544214D01*
X145705750Y-104619430D01*
X145794194Y-104678526D01*
X145892468Y-104719232D01*
X145996795Y-104739984D01*
X146103165Y-104739984D01*
X146207492Y-104719232D01*
X146305766Y-104678526D01*
X146394210Y-104619430D01*
X146469426Y-104544214D01*
X146528522Y-104455770D01*
X146569228Y-104357496D01*
X146589980Y-104253169D01*
X146589980Y-104146799D01*
X146569228Y-104042472D01*
X146528522Y-103944198D01*
X146469426Y-103855754D01*
X146394210Y-103780538D01*
X146305766Y-103721442D01*
X146207492Y-103680736D01*
X146183866Y-103676036D01*
X146165541Y-103670215D01*
X146154730Y-103667058D01*
X146105142Y-103653831D01*
X146098871Y-103652248D01*
X146054261Y-103641628D01*
X146017955Y-103632848D01*
X145992088Y-103625455D01*
X145973488Y-103618538D01*
X145956808Y-103610304D01*
X145936603Y-103597414D01*
X145909218Y-103575805D01*
X145870291Y-103539463D01*
X143192226Y-100861399D01*
X143181575Y-100848421D01*
X143129804Y-100805933D01*
X143070738Y-100774361D01*
X143006648Y-100754920D01*
X142956697Y-100750000D01*
X142956689Y-100750000D01*
X142939996Y-100748356D01*
X142923303Y-100750000D01*
X134596693Y-100750000D01*
X134580000Y-100748356D01*
X134563307Y-100750000D01*
X134563299Y-100750000D01*
X134513348Y-100754920D01*
X134449258Y-100774361D01*
X134390192Y-100805933D01*
X134338421Y-100848421D01*
X134327775Y-100861393D01*
X130119169Y-105070000D01*
X127886690Y-105070000D01*
X127869999Y-105068356D01*
X127853308Y-105070000D01*
X127853299Y-105070000D01*
X127803348Y-105074920D01*
X127739258Y-105094361D01*
X127730097Y-105099258D01*
X127680192Y-105125933D01*
X127641392Y-105157775D01*
X127641387Y-105157780D01*
X127628421Y-105168421D01*
X127617779Y-105181388D01*
X126141394Y-106657775D01*
X126128422Y-106668421D01*
X126117776Y-106681393D01*
X126117775Y-106681394D01*
X126085933Y-106720193D01*
X126054361Y-106779259D01*
X126034920Y-106843349D01*
X126028356Y-106910000D01*
X119390000Y-106910000D01*
X119390000Y-102236132D01*
X119465356Y-102346014D01*
X119618350Y-102495356D01*
X119797539Y-102611981D01*
X120012945Y-102689301D01*
X120180000Y-102638285D01*
X120180000Y-101010000D01*
X120420000Y-101010000D01*
X120420000Y-102638285D01*
X120587055Y-102689301D01*
X120802461Y-102611981D01*
X120981650Y-102495356D01*
X121134644Y-102346014D01*
X121255563Y-102169694D01*
X121290917Y-102087175D01*
X121706000Y-102087175D01*
X121706001Y-103692826D01*
X121720384Y-103838858D01*
X121777222Y-104026228D01*
X121869522Y-104198909D01*
X121993736Y-104350265D01*
X122145092Y-104474479D01*
X122317773Y-104566779D01*
X122505143Y-104623617D01*
X122700000Y-104642809D01*
X122894858Y-104623617D01*
X123082228Y-104566779D01*
X123254909Y-104474479D01*
X123406265Y-104350265D01*
X123530479Y-104198909D01*
X123622779Y-104026228D01*
X123679617Y-103838858D01*
X123694000Y-103692826D01*
X123694000Y-102087174D01*
X123679617Y-101941142D01*
X123622779Y-101753772D01*
X123530479Y-101581091D01*
X123406265Y-101429735D01*
X123254909Y-101305521D01*
X123082227Y-101213221D01*
X122894857Y-101156383D01*
X122700000Y-101137191D01*
X122505142Y-101156383D01*
X122317772Y-101213221D01*
X122145091Y-101305521D01*
X121993735Y-101429735D01*
X121869521Y-101581091D01*
X121777221Y-101753773D01*
X121720383Y-101941143D01*
X121706000Y-102087175D01*
X121290917Y-102087175D01*
X121339760Y-101973172D01*
X121384000Y-101764000D01*
X121384000Y-101010000D01*
X120420000Y-101010000D01*
X120180000Y-101010000D01*
X120160000Y-101010000D01*
X120160000Y-100770000D01*
X120180000Y-100770000D01*
X120180000Y-99141715D01*
X120420000Y-99141715D01*
X120420000Y-100770000D01*
X121384000Y-100770000D01*
X121384000Y-100087175D01*
X125406000Y-100087175D01*
X125406001Y-101692826D01*
X125420384Y-101838858D01*
X125477222Y-102026228D01*
X125569522Y-102198909D01*
X125693736Y-102350265D01*
X125845092Y-102474479D01*
X126017773Y-102566779D01*
X126205143Y-102623617D01*
X126400000Y-102642809D01*
X126594858Y-102623617D01*
X126782228Y-102566779D01*
X126954909Y-102474479D01*
X127106265Y-102350265D01*
X127206000Y-102228737D01*
X127206001Y-103692826D01*
X127220384Y-103838858D01*
X127277222Y-104026228D01*
X127369522Y-104198909D01*
X127493736Y-104350265D01*
X127645092Y-104474479D01*
X127817773Y-104566779D01*
X128005143Y-104623617D01*
X128200000Y-104642809D01*
X128394858Y-104623617D01*
X128582228Y-104566779D01*
X128754909Y-104474479D01*
X128906265Y-104350265D01*
X129030479Y-104198909D01*
X129122779Y-104026228D01*
X129179617Y-103838858D01*
X129194000Y-103692826D01*
X129194000Y-102087174D01*
X129179617Y-101941142D01*
X129122779Y-101753772D01*
X129030479Y-101581091D01*
X128906265Y-101429735D01*
X128754909Y-101305521D01*
X128582227Y-101213221D01*
X128394857Y-101156383D01*
X128200000Y-101137191D01*
X128005142Y-101156383D01*
X127817772Y-101213221D01*
X127645091Y-101305521D01*
X127493735Y-101429735D01*
X127394000Y-101551263D01*
X127394000Y-100087175D01*
X130906000Y-100087175D01*
X130906001Y-101692826D01*
X130920384Y-101838858D01*
X130977222Y-102026228D01*
X131069522Y-102198909D01*
X131193736Y-102350265D01*
X131345092Y-102474479D01*
X131517773Y-102566779D01*
X131705143Y-102623617D01*
X131900000Y-102642809D01*
X132094858Y-102623617D01*
X132282228Y-102566779D01*
X132454909Y-102474479D01*
X132606265Y-102350265D01*
X132730479Y-102198909D01*
X132822779Y-102026228D01*
X132879617Y-101838858D01*
X132894000Y-101692826D01*
X132894000Y-100087174D01*
X132879617Y-99941142D01*
X132858036Y-99870000D01*
X133829553Y-99870000D01*
X133916869Y-99873965D01*
X133976053Y-99883211D01*
X134018682Y-99895695D01*
X134043839Y-99906942D01*
X134043839Y-100015000D01*
X134048473Y-100062048D01*
X134062196Y-100107288D01*
X134084482Y-100148982D01*
X134114473Y-100185527D01*
X134151018Y-100215518D01*
X134192712Y-100237804D01*
X134237952Y-100251527D01*
X134285000Y-100256161D01*
X135205000Y-100256161D01*
X135252048Y-100251527D01*
X135297288Y-100237804D01*
X135338982Y-100215518D01*
X135375527Y-100185527D01*
X135405518Y-100148982D01*
X135427804Y-100107288D01*
X135441527Y-100062048D01*
X135446161Y-100015000D01*
X135446161Y-99045000D01*
X135593839Y-99045000D01*
X135593839Y-100015000D01*
X135598473Y-100062048D01*
X135612196Y-100107288D01*
X135634482Y-100148982D01*
X135664473Y-100185527D01*
X135701018Y-100215518D01*
X135742712Y-100237804D01*
X135787952Y-100251527D01*
X135835000Y-100256161D01*
X136755000Y-100256161D01*
X136802048Y-100251527D01*
X136847288Y-100237804D01*
X136888982Y-100215518D01*
X136925527Y-100185527D01*
X136955518Y-100148982D01*
X136977804Y-100107288D01*
X136991527Y-100062048D01*
X136996161Y-100015000D01*
X136996161Y-99906942D01*
X137021317Y-99895695D01*
X137063946Y-99883211D01*
X137123130Y-99873965D01*
X137210447Y-99870000D01*
X137284937Y-99870000D01*
X137288309Y-99890194D01*
X137289864Y-99898584D01*
X137298808Y-99942480D01*
X137303349Y-99960981D01*
X137303792Y-99962518D01*
X137310752Y-99997510D01*
X137351458Y-100095784D01*
X137410554Y-100184228D01*
X137485770Y-100259444D01*
X137574214Y-100318540D01*
X137672488Y-100359246D01*
X137776815Y-100379998D01*
X137883185Y-100379998D01*
X137987512Y-100359246D01*
X138085786Y-100318540D01*
X138174230Y-100259444D01*
X138249446Y-100184228D01*
X138308542Y-100095784D01*
X138349248Y-99997510D01*
X138370000Y-99893183D01*
X138370000Y-99786813D01*
X138349248Y-99682486D01*
X138308542Y-99584212D01*
X138249446Y-99495768D01*
X138174230Y-99420552D01*
X138085786Y-99361456D01*
X137987512Y-99320750D01*
X137883185Y-99299998D01*
X137836509Y-99299998D01*
X137800458Y-99298039D01*
X137779616Y-99294421D01*
X137762352Y-99289361D01*
X137761581Y-99288421D01*
X137709810Y-99245933D01*
X137650744Y-99214361D01*
X137586654Y-99194920D01*
X137536703Y-99190000D01*
X137536695Y-99190000D01*
X137520002Y-99188356D01*
X137503309Y-99190000D01*
X137210450Y-99190000D01*
X137123130Y-99186034D01*
X137063946Y-99176788D01*
X137021317Y-99164304D01*
X136996161Y-99153057D01*
X136996161Y-99045000D01*
X136991527Y-98997952D01*
X136977804Y-98952712D01*
X136955518Y-98911018D01*
X136925527Y-98874473D01*
X136888982Y-98844482D01*
X136847288Y-98822196D01*
X136802048Y-98808473D01*
X136755000Y-98803839D01*
X135835000Y-98803839D01*
X135787952Y-98808473D01*
X135742712Y-98822196D01*
X135701018Y-98844482D01*
X135664473Y-98874473D01*
X135634482Y-98911018D01*
X135612196Y-98952712D01*
X135598473Y-98997952D01*
X135593839Y-99045000D01*
X135446161Y-99045000D01*
X135441527Y-98997952D01*
X135427804Y-98952712D01*
X135405518Y-98911018D01*
X135375527Y-98874473D01*
X135338982Y-98844482D01*
X135297288Y-98822196D01*
X135252048Y-98808473D01*
X135205000Y-98803839D01*
X134285000Y-98803839D01*
X134237952Y-98808473D01*
X134192712Y-98822196D01*
X134151018Y-98844482D01*
X134114473Y-98874473D01*
X134084482Y-98911018D01*
X134062196Y-98952712D01*
X134048473Y-98997952D01*
X134043839Y-99045000D01*
X134043839Y-99153057D01*
X134018682Y-99164304D01*
X133976053Y-99176788D01*
X133916869Y-99186034D01*
X133829550Y-99190000D01*
X132526693Y-99190000D01*
X132510000Y-99188356D01*
X132493307Y-99190000D01*
X132493299Y-99190000D01*
X132443348Y-99194920D01*
X132379258Y-99214361D01*
X132331809Y-99239723D01*
X132282227Y-99213221D01*
X132094857Y-99156383D01*
X131900000Y-99137191D01*
X131705142Y-99156383D01*
X131517772Y-99213221D01*
X131345091Y-99305521D01*
X131193735Y-99429735D01*
X131069521Y-99581091D01*
X130977221Y-99753773D01*
X130920383Y-99941143D01*
X130906000Y-100087175D01*
X127394000Y-100087175D01*
X127394000Y-100087174D01*
X127379617Y-99941142D01*
X127322779Y-99753772D01*
X127258088Y-99632744D01*
X128400833Y-98490000D01*
X137214899Y-98490000D01*
X137307911Y-98493963D01*
X137373106Y-98503459D01*
X137421694Y-98516612D01*
X137443839Y-98525671D01*
X137443839Y-98605000D01*
X137448473Y-98652048D01*
X137462196Y-98697288D01*
X137484482Y-98738982D01*
X137514473Y-98775527D01*
X137551018Y-98805518D01*
X137592712Y-98827804D01*
X137637952Y-98841527D01*
X137685000Y-98846161D01*
X138605000Y-98846161D01*
X138652048Y-98841527D01*
X138697288Y-98827804D01*
X138738982Y-98805518D01*
X138775527Y-98775527D01*
X138805518Y-98738982D01*
X138827804Y-98697288D01*
X138841527Y-98652048D01*
X138846161Y-98605000D01*
X138846161Y-97635000D01*
X138993839Y-97635000D01*
X138993839Y-98605000D01*
X138998473Y-98652048D01*
X139012196Y-98697288D01*
X139034482Y-98738982D01*
X139064473Y-98775527D01*
X139101018Y-98805518D01*
X139142712Y-98827804D01*
X139187952Y-98841527D01*
X139235000Y-98846161D01*
X139313767Y-98846161D01*
X139326633Y-98892064D01*
X139336033Y-98954663D01*
X139340001Y-99045260D01*
X139340000Y-99235857D01*
X139338172Y-99289108D01*
X139334088Y-99323746D01*
X139328914Y-99347156D01*
X139322946Y-99364762D01*
X139314686Y-99382802D01*
X139301613Y-99406339D01*
X139282111Y-99438280D01*
X139258120Y-99477263D01*
X139254803Y-99482819D01*
X139229092Y-99527236D01*
X139223679Y-99537116D01*
X139214841Y-99554185D01*
X139201458Y-99574214D01*
X139160752Y-99672488D01*
X139140000Y-99776815D01*
X139140000Y-99883185D01*
X139160752Y-99987512D01*
X139201458Y-100085786D01*
X139260554Y-100174230D01*
X139335770Y-100249446D01*
X139424214Y-100308542D01*
X139522488Y-100349248D01*
X139626815Y-100370000D01*
X139733185Y-100370000D01*
X139837512Y-100349248D01*
X139935786Y-100308542D01*
X140024230Y-100249446D01*
X140099446Y-100174230D01*
X140158542Y-100085786D01*
X140199248Y-99987512D01*
X140220000Y-99883185D01*
X140220000Y-99776815D01*
X140199248Y-99672488D01*
X140158542Y-99574214D01*
X140145159Y-99554185D01*
X140136319Y-99537113D01*
X140130907Y-99527236D01*
X140105196Y-99482819D01*
X140101879Y-99477263D01*
X140077888Y-99438280D01*
X140058386Y-99406339D01*
X140045313Y-99382802D01*
X140037053Y-99364762D01*
X140031085Y-99347156D01*
X140025911Y-99323746D01*
X140021827Y-99289108D01*
X140020000Y-99235875D01*
X140020000Y-99045401D01*
X140023940Y-98957910D01*
X140033149Y-98898653D01*
X140045558Y-98856236D01*
X140050084Y-98846161D01*
X140155000Y-98846161D01*
X140202048Y-98841527D01*
X140247288Y-98827804D01*
X140288982Y-98805518D01*
X140325527Y-98775527D01*
X140355518Y-98738982D01*
X140377804Y-98697288D01*
X140391527Y-98652048D01*
X140396161Y-98605000D01*
X140396161Y-97635000D01*
X140391527Y-97587952D01*
X140377804Y-97542712D01*
X140355518Y-97501018D01*
X140325527Y-97464473D01*
X140288982Y-97434482D01*
X140247288Y-97412196D01*
X140202048Y-97398473D01*
X140155000Y-97393839D01*
X139235000Y-97393839D01*
X139187952Y-97398473D01*
X139142712Y-97412196D01*
X139101018Y-97434482D01*
X139064473Y-97464473D01*
X139034482Y-97501018D01*
X139012196Y-97542712D01*
X138998473Y-97587952D01*
X138993839Y-97635000D01*
X138846161Y-97635000D01*
X138841527Y-97587952D01*
X138827804Y-97542712D01*
X138805518Y-97501018D01*
X138775527Y-97464473D01*
X138738982Y-97434482D01*
X138697288Y-97412196D01*
X138652048Y-97398473D01*
X138605000Y-97393839D01*
X137685000Y-97393839D01*
X137637952Y-97398473D01*
X137592712Y-97412196D01*
X137551018Y-97434482D01*
X137514473Y-97464473D01*
X137484482Y-97501018D01*
X137462196Y-97542712D01*
X137448473Y-97587952D01*
X137443839Y-97635000D01*
X137443839Y-97763980D01*
X137435017Y-97769420D01*
X137401579Y-97784660D01*
X137360046Y-97796924D01*
X137301477Y-97806075D01*
X137214574Y-97810000D01*
X128276692Y-97810000D01*
X128259999Y-97808356D01*
X128243306Y-97810000D01*
X128243299Y-97810000D01*
X128193348Y-97814920D01*
X128129258Y-97834361D01*
X128122254Y-97838105D01*
X128070192Y-97865933D01*
X128031392Y-97897775D01*
X128031387Y-97897780D01*
X128018421Y-97908421D01*
X128007779Y-97921388D01*
X126731374Y-99197795D01*
X126594857Y-99156383D01*
X126400000Y-99137191D01*
X126205142Y-99156383D01*
X126017772Y-99213221D01*
X125845091Y-99305521D01*
X125693735Y-99429735D01*
X125569521Y-99581091D01*
X125477221Y-99753773D01*
X125420383Y-99941143D01*
X125406000Y-100087175D01*
X121384000Y-100087175D01*
X121384000Y-100016000D01*
X121339760Y-99806828D01*
X121255563Y-99610306D01*
X121134644Y-99433986D01*
X120981650Y-99284644D01*
X120802461Y-99168019D01*
X120587055Y-99090699D01*
X120420000Y-99141715D01*
X120180000Y-99141715D01*
X120012945Y-99090699D01*
X119797539Y-99168019D01*
X119618350Y-99284644D01*
X119465356Y-99433986D01*
X119390000Y-99543868D01*
X119390000Y-97160000D01*
X149760000Y-97160000D01*
X149760001Y-107285744D01*
G04 #@! TA.AperFunction,Conductor*
D18*
G36*
X149760001Y-107285744D02*
G01*
X149758597Y-107300000D01*
X149764196Y-107356850D01*
X149780779Y-107411515D01*
X149807707Y-107461895D01*
X149843947Y-107506053D01*
X149888105Y-107542293D01*
X149938485Y-107569221D01*
X149993150Y-107585804D01*
X150035755Y-107590000D01*
X150050000Y-107591403D01*
X150064245Y-107590000D01*
X151165755Y-107590000D01*
X151180000Y-107591403D01*
X151194245Y-107590000D01*
X151236850Y-107585804D01*
X151291515Y-107569221D01*
X151341895Y-107542293D01*
X151386053Y-107506053D01*
X151422293Y-107461895D01*
X151449221Y-107411515D01*
X151465804Y-107356850D01*
X151471403Y-107300000D01*
X151470000Y-107285755D01*
X151470000Y-98290000D01*
X158540000Y-98290000D01*
X158540001Y-112299877D01*
X156709879Y-114130000D01*
X119390000Y-114130000D01*
X119390000Y-111053272D01*
X120506434Y-111053272D01*
X120743208Y-111339037D01*
X121156167Y-111553810D01*
X121603092Y-111683891D01*
X122066807Y-111724283D01*
X122529491Y-111673432D01*
X122973365Y-111533293D01*
X123336792Y-111339037D01*
X123573566Y-111053272D01*
X122040000Y-109519706D01*
X120506434Y-111053272D01*
X119390000Y-111053272D01*
X119390000Y-109376807D01*
X119665717Y-109376807D01*
X119716568Y-109839491D01*
X119856707Y-110283365D01*
X120050963Y-110646792D01*
X120336728Y-110883566D01*
X121870294Y-109350000D01*
X122209706Y-109350000D01*
X123743272Y-110883566D01*
X124029037Y-110646792D01*
X124243810Y-110233833D01*
X124373891Y-109786908D01*
X124414283Y-109323193D01*
X124363432Y-108860509D01*
X124223293Y-108416635D01*
X124029037Y-108053208D01*
X123743272Y-107816434D01*
X122209706Y-109350000D01*
X121870294Y-109350000D01*
X120336728Y-107816434D01*
X120050963Y-108053208D01*
X119836190Y-108466167D01*
X119706109Y-108913092D01*
X119665717Y-109376807D01*
X119390000Y-109376807D01*
X119390000Y-107646728D01*
X120506434Y-107646728D01*
X122040000Y-109180294D01*
X123573566Y-107646728D01*
X123336792Y-107360963D01*
X122923833Y-107146190D01*
X122476908Y-107016109D01*
X122013193Y-106975717D01*
X121550509Y-107026568D01*
X121106635Y-107166707D01*
X120743208Y-107360963D01*
X120506434Y-107646728D01*
X119390000Y-107646728D01*
X119390000Y-106910000D01*
X126028356Y-106910000D01*
X126030001Y-106926703D01*
X126030000Y-111743307D01*
X126028356Y-111760000D01*
X126030000Y-111776693D01*
X126030000Y-111776700D01*
X126034920Y-111826651D01*
X126054361Y-111890741D01*
X126085933Y-111949807D01*
X126128421Y-112001578D01*
X126141394Y-112012225D01*
X127577775Y-113448607D01*
X127588421Y-113461579D01*
X127640192Y-113504067D01*
X127699258Y-113535639D01*
X127763348Y-113555080D01*
X127813299Y-113560000D01*
X127813307Y-113560000D01*
X127830000Y-113561644D01*
X127846693Y-113560000D01*
X134573307Y-113560000D01*
X134590000Y-113561644D01*
X134606693Y-113560000D01*
X134606701Y-113560000D01*
X134656652Y-113555080D01*
X134720742Y-113535639D01*
X134779808Y-113504067D01*
X134831579Y-113461579D01*
X134842230Y-113448602D01*
X135908607Y-112382225D01*
X135921579Y-112371579D01*
X135964067Y-112319808D01*
X135995639Y-112260742D01*
X136015080Y-112196652D01*
X136020000Y-112146701D01*
X136020000Y-112146693D01*
X136021644Y-112130000D01*
X136020000Y-112113307D01*
X136020000Y-112066492D01*
X136130166Y-112176658D01*
X136308691Y-112295945D01*
X136507059Y-112378112D01*
X136717644Y-112420000D01*
X136932356Y-112420000D01*
X137142941Y-112378112D01*
X137341309Y-112295945D01*
X137519834Y-112176658D01*
X137671658Y-112024834D01*
X137790945Y-111846309D01*
X137873112Y-111647941D01*
X137915000Y-111437356D01*
X137915000Y-111222644D01*
X138025000Y-111222644D01*
X138025000Y-111437356D01*
X138066888Y-111647941D01*
X138149055Y-111846309D01*
X138268342Y-112024834D01*
X138420166Y-112176658D01*
X138598691Y-112295945D01*
X138797059Y-112378112D01*
X139007644Y-112420000D01*
X139222356Y-112420000D01*
X139432941Y-112378112D01*
X139631309Y-112295945D01*
X139809834Y-112176658D01*
X139961658Y-112024834D01*
X140080945Y-111846309D01*
X140163112Y-111647941D01*
X140205000Y-111437356D01*
X140205000Y-111222644D01*
X140163112Y-111012059D01*
X140080945Y-110813691D01*
X139961658Y-110635166D01*
X139809834Y-110483342D01*
X139631309Y-110364055D01*
X139432941Y-110281888D01*
X139222356Y-110240000D01*
X139007644Y-110240000D01*
X138797059Y-110281888D01*
X138598691Y-110364055D01*
X138420166Y-110483342D01*
X138268342Y-110635166D01*
X138149055Y-110813691D01*
X138066888Y-111012059D01*
X138025000Y-111222644D01*
X137915000Y-111222644D01*
X137873112Y-111012059D01*
X137790945Y-110813691D01*
X137671658Y-110635166D01*
X137519834Y-110483342D01*
X137341309Y-110364055D01*
X137142941Y-110281888D01*
X136932356Y-110240000D01*
X136717644Y-110240000D01*
X136507059Y-110281888D01*
X136308691Y-110364055D01*
X136262120Y-110395172D01*
X136269828Y-110385938D01*
X136356437Y-110285494D01*
X136362098Y-110278678D01*
X136416781Y-110210311D01*
X137279394Y-110210311D01*
X137373717Y-110374869D01*
X137585117Y-110471505D01*
X137811307Y-110525042D01*
X138043595Y-110533423D01*
X138273055Y-110496327D01*
X138490869Y-110415177D01*
X138566283Y-110374869D01*
X138660606Y-110210311D01*
X137970000Y-109519706D01*
X137279394Y-110210311D01*
X136416781Y-110210311D01*
X136452952Y-110165090D01*
X136463757Y-110150481D01*
X136554801Y-110017094D01*
X136567021Y-109997171D01*
X136605950Y-109926166D01*
X136645945Y-109866309D01*
X136728112Y-109667941D01*
X136770000Y-109457356D01*
X136770000Y-109423595D01*
X136786577Y-109423595D01*
X136823673Y-109653055D01*
X136904823Y-109870869D01*
X136945131Y-109946283D01*
X137109689Y-110040606D01*
X137800294Y-109350000D01*
X138139706Y-109350000D01*
X138830311Y-110040606D01*
X138994869Y-109946283D01*
X139091505Y-109734883D01*
X139145042Y-109508693D01*
X139153423Y-109276405D01*
X139116327Y-109046945D01*
X139035177Y-108829131D01*
X138994869Y-108753717D01*
X138830311Y-108659394D01*
X138139706Y-109350000D01*
X137800294Y-109350000D01*
X137109689Y-108659394D01*
X136945131Y-108753717D01*
X136848495Y-108965117D01*
X136794958Y-109191307D01*
X136786577Y-109423595D01*
X136770000Y-109423595D01*
X136770000Y-109242644D01*
X136728112Y-109032059D01*
X136645945Y-108833691D01*
X136526658Y-108655166D01*
X136374834Y-108503342D01*
X136354401Y-108489689D01*
X137279394Y-108489689D01*
X137970000Y-109180294D01*
X138660606Y-108489689D01*
X138637337Y-108449093D01*
X138730117Y-108491505D01*
X138956307Y-108545042D01*
X139188595Y-108553423D01*
X139418055Y-108516327D01*
X139635869Y-108435177D01*
X139711283Y-108394869D01*
X139805606Y-108230311D01*
X139115000Y-107539706D01*
X138424394Y-108230311D01*
X138447663Y-108270907D01*
X138354883Y-108228495D01*
X138128693Y-108174958D01*
X137896405Y-108166577D01*
X137666945Y-108203673D01*
X137449131Y-108284823D01*
X137373717Y-108325131D01*
X137279394Y-108489689D01*
X136354401Y-108489689D01*
X136196309Y-108384055D01*
X135997941Y-108301888D01*
X135787356Y-108260000D01*
X135572644Y-108260000D01*
X135362059Y-108301888D01*
X135163691Y-108384055D01*
X134985166Y-108503342D01*
X134833342Y-108655166D01*
X134714055Y-108833691D01*
X134631888Y-109032059D01*
X134590000Y-109242644D01*
X134590000Y-109457356D01*
X134631888Y-109667941D01*
X134714055Y-109866309D01*
X134754050Y-109926166D01*
X134792978Y-109997170D01*
X134805198Y-110017094D01*
X134896242Y-110150481D01*
X134907047Y-110165090D01*
X134997901Y-110278678D01*
X135003562Y-110285494D01*
X135090171Y-110385938D01*
X135097878Y-110395172D01*
X135051309Y-110364055D01*
X134852941Y-110281888D01*
X134642356Y-110240000D01*
X134427644Y-110240000D01*
X134217059Y-110281888D01*
X134018691Y-110364055D01*
X133840166Y-110483342D01*
X133688342Y-110635166D01*
X133569055Y-110813691D01*
X133486888Y-111012059D01*
X133445000Y-111222644D01*
X133445000Y-111437356D01*
X133486888Y-111647941D01*
X133569055Y-111846309D01*
X133688342Y-112024834D01*
X133840166Y-112176658D01*
X134018691Y-112295945D01*
X134217059Y-112378112D01*
X134427644Y-112420000D01*
X134642356Y-112420000D01*
X134852941Y-112378112D01*
X135020435Y-112308734D01*
X134449169Y-112880000D01*
X127970832Y-112880000D01*
X126710000Y-111619169D01*
X126710000Y-111222644D01*
X128865000Y-111222644D01*
X128865000Y-111437356D01*
X128906888Y-111647941D01*
X128989055Y-111846309D01*
X129108342Y-112024834D01*
X129260166Y-112176658D01*
X129438691Y-112295945D01*
X129637059Y-112378112D01*
X129847644Y-112420000D01*
X130062356Y-112420000D01*
X130272941Y-112378112D01*
X130471309Y-112295945D01*
X130649834Y-112176658D01*
X130801658Y-112024834D01*
X130920945Y-111846309D01*
X131003112Y-111647941D01*
X131045000Y-111437356D01*
X131045000Y-111222644D01*
X131155000Y-111222644D01*
X131155000Y-111437356D01*
X131196888Y-111647941D01*
X131279055Y-111846309D01*
X131398342Y-112024834D01*
X131550166Y-112176658D01*
X131728691Y-112295945D01*
X131927059Y-112378112D01*
X132137644Y-112420000D01*
X132352356Y-112420000D01*
X132562941Y-112378112D01*
X132761309Y-112295945D01*
X132939834Y-112176658D01*
X133091658Y-112024834D01*
X133210945Y-111846309D01*
X133293112Y-111647941D01*
X133335000Y-111437356D01*
X133335000Y-111222644D01*
X133293112Y-111012059D01*
X133210945Y-110813691D01*
X133091658Y-110635166D01*
X132939834Y-110483342D01*
X132761309Y-110364055D01*
X132562941Y-110281888D01*
X132352356Y-110240000D01*
X132137644Y-110240000D01*
X131927059Y-110281888D01*
X131728691Y-110364055D01*
X131550166Y-110483342D01*
X131398342Y-110635166D01*
X131279055Y-110813691D01*
X131196888Y-111012059D01*
X131155000Y-111222644D01*
X131045000Y-111222644D01*
X131003112Y-111012059D01*
X130920945Y-110813691D01*
X130801658Y-110635166D01*
X130649834Y-110483342D01*
X130471309Y-110364055D01*
X130272941Y-110281888D01*
X130062356Y-110240000D01*
X129847644Y-110240000D01*
X129637059Y-110281888D01*
X129438691Y-110364055D01*
X129260166Y-110483342D01*
X129108342Y-110635166D01*
X128989055Y-110813691D01*
X128906888Y-111012059D01*
X128865000Y-111222644D01*
X126710000Y-111222644D01*
X126710000Y-110210311D01*
X128119394Y-110210311D01*
X128213717Y-110374869D01*
X128425117Y-110471505D01*
X128651307Y-110525042D01*
X128883595Y-110533423D01*
X129113055Y-110496327D01*
X129330869Y-110415177D01*
X129406283Y-110374869D01*
X129500606Y-110210311D01*
X130409394Y-110210311D01*
X130503717Y-110374869D01*
X130715117Y-110471505D01*
X130941307Y-110525042D01*
X131173595Y-110533423D01*
X131403055Y-110496327D01*
X131620869Y-110415177D01*
X131696283Y-110374869D01*
X131790606Y-110210311D01*
X132699394Y-110210311D01*
X132793717Y-110374869D01*
X133005117Y-110471505D01*
X133231307Y-110525042D01*
X133463595Y-110533423D01*
X133693055Y-110496327D01*
X133910869Y-110415177D01*
X133986283Y-110374869D01*
X134080606Y-110210311D01*
X133390000Y-109519706D01*
X132699394Y-110210311D01*
X131790606Y-110210311D01*
X131100000Y-109519706D01*
X130409394Y-110210311D01*
X129500606Y-110210311D01*
X128810000Y-109519706D01*
X128119394Y-110210311D01*
X126710000Y-110210311D01*
X126710000Y-109423595D01*
X127626577Y-109423595D01*
X127663673Y-109653055D01*
X127744823Y-109870869D01*
X127785131Y-109946283D01*
X127949689Y-110040606D01*
X128640294Y-109350000D01*
X128979706Y-109350000D01*
X129670311Y-110040606D01*
X129834869Y-109946283D01*
X129931505Y-109734883D01*
X129952537Y-109646026D01*
X129953673Y-109653055D01*
X130034823Y-109870869D01*
X130075131Y-109946283D01*
X130239689Y-110040606D01*
X130930294Y-109350000D01*
X131269706Y-109350000D01*
X131960311Y-110040606D01*
X132124869Y-109946283D01*
X132221505Y-109734883D01*
X132242537Y-109646026D01*
X132243673Y-109653055D01*
X132324823Y-109870869D01*
X132365131Y-109946283D01*
X132529689Y-110040606D01*
X133220294Y-109350000D01*
X133559706Y-109350000D01*
X134250311Y-110040606D01*
X134414869Y-109946283D01*
X134511505Y-109734883D01*
X134565042Y-109508693D01*
X134573423Y-109276405D01*
X134536327Y-109046945D01*
X134455177Y-108829131D01*
X134414869Y-108753717D01*
X134250311Y-108659394D01*
X133559706Y-109350000D01*
X133220294Y-109350000D01*
X132529689Y-108659394D01*
X132365131Y-108753717D01*
X132268495Y-108965117D01*
X132247463Y-109053974D01*
X132246327Y-109046945D01*
X132165177Y-108829131D01*
X132124869Y-108753717D01*
X131960311Y-108659394D01*
X131269706Y-109350000D01*
X130930294Y-109350000D01*
X130239689Y-108659394D01*
X130075131Y-108753717D01*
X129978495Y-108965117D01*
X129957463Y-109053974D01*
X129956327Y-109046945D01*
X129875177Y-108829131D01*
X129834869Y-108753717D01*
X129670311Y-108659394D01*
X128979706Y-109350000D01*
X128640294Y-109350000D01*
X127949689Y-108659394D01*
X127785131Y-108753717D01*
X127688495Y-108965117D01*
X127634958Y-109191307D01*
X127626577Y-109423595D01*
X126710000Y-109423595D01*
X126710000Y-108489689D01*
X128119394Y-108489689D01*
X128810000Y-109180294D01*
X129500606Y-108489689D01*
X129484254Y-108461161D01*
X130425746Y-108461161D01*
X130409394Y-108489689D01*
X131100000Y-109180294D01*
X131790606Y-108489689D01*
X132699394Y-108489689D01*
X133390000Y-109180294D01*
X134080606Y-108489689D01*
X133986283Y-108325131D01*
X133774883Y-108228495D01*
X133548693Y-108174958D01*
X133316405Y-108166577D01*
X133086945Y-108203673D01*
X132869131Y-108284823D01*
X132793717Y-108325131D01*
X132699394Y-108489689D01*
X131790606Y-108489689D01*
X131696283Y-108325131D01*
X131484883Y-108228495D01*
X131258693Y-108174958D01*
X131046161Y-108167290D01*
X131046161Y-107262644D01*
X131155000Y-107262644D01*
X131155000Y-107477356D01*
X131196888Y-107687941D01*
X131279055Y-107886309D01*
X131398342Y-108064834D01*
X131550166Y-108216658D01*
X131728691Y-108335945D01*
X131927059Y-108418112D01*
X132137644Y-108460000D01*
X132352356Y-108460000D01*
X132562941Y-108418112D01*
X132761309Y-108335945D01*
X132939834Y-108216658D01*
X133091658Y-108064834D01*
X133210945Y-107886309D01*
X133293112Y-107687941D01*
X133306532Y-107620476D01*
X133329410Y-107543353D01*
X133334931Y-107520790D01*
X133365806Y-107361586D01*
X133368578Y-107343718D01*
X133378041Y-107262644D01*
X133445000Y-107262644D01*
X133445000Y-107477356D01*
X133486888Y-107687941D01*
X133569055Y-107886309D01*
X133688342Y-108064834D01*
X133840166Y-108216658D01*
X134018691Y-108335945D01*
X134217059Y-108418112D01*
X134427644Y-108460000D01*
X134642356Y-108460000D01*
X134852941Y-108418112D01*
X135051309Y-108335945D01*
X135229834Y-108216658D01*
X135381658Y-108064834D01*
X135500945Y-107886309D01*
X135583112Y-107687941D01*
X135601042Y-107597800D01*
X135621531Y-107520615D01*
X135626596Y-107496672D01*
X135651210Y-107341639D01*
X135653440Y-107322826D01*
X135658173Y-107262644D01*
X135735000Y-107262644D01*
X135735000Y-107477356D01*
X135776888Y-107687941D01*
X135859055Y-107886309D01*
X135978342Y-108064834D01*
X136130166Y-108216658D01*
X136308691Y-108335945D01*
X136507059Y-108418112D01*
X136717644Y-108460000D01*
X136932356Y-108460000D01*
X137142941Y-108418112D01*
X137341309Y-108335945D01*
X137519834Y-108216658D01*
X137671658Y-108064834D01*
X137790945Y-107886309D01*
X137873112Y-107687941D01*
X137915000Y-107477356D01*
X137915000Y-107443595D01*
X137931577Y-107443595D01*
X137968673Y-107673055D01*
X138049823Y-107890869D01*
X138090131Y-107966283D01*
X138254689Y-108060606D01*
X138945294Y-107370000D01*
X139284706Y-107370000D01*
X139975311Y-108060606D01*
X140139869Y-107966283D01*
X140236505Y-107754883D01*
X140290042Y-107528693D01*
X140298423Y-107296405D01*
X140261327Y-107066945D01*
X140180177Y-106849131D01*
X140139869Y-106773717D01*
X139975311Y-106679394D01*
X139284706Y-107370000D01*
X138945294Y-107370000D01*
X138254689Y-106679394D01*
X138090131Y-106773717D01*
X137993495Y-106985117D01*
X137939958Y-107211307D01*
X137931577Y-107443595D01*
X137915000Y-107443595D01*
X137915000Y-107262644D01*
X137873112Y-107052059D01*
X137790945Y-106853691D01*
X137671658Y-106675166D01*
X137519834Y-106523342D01*
X137499401Y-106509689D01*
X138424394Y-106509689D01*
X139115000Y-107200294D01*
X139805606Y-106509689D01*
X139711283Y-106345131D01*
X139499883Y-106248495D01*
X139273693Y-106194958D01*
X139041405Y-106186577D01*
X138811945Y-106223673D01*
X138594131Y-106304823D01*
X138518717Y-106345131D01*
X138424394Y-106509689D01*
X137499401Y-106509689D01*
X137341309Y-106404055D01*
X137142941Y-106321888D01*
X136932356Y-106280000D01*
X136717644Y-106280000D01*
X136507059Y-106321888D01*
X136308691Y-106404055D01*
X136130166Y-106523342D01*
X135978342Y-106675166D01*
X135859055Y-106853691D01*
X135776888Y-107052059D01*
X135735000Y-107262644D01*
X135658173Y-107262644D01*
X135664559Y-107181468D01*
X135665106Y-107172238D01*
X135670276Y-107042953D01*
X135676651Y-106929407D01*
X135689666Y-106832643D01*
X135713687Y-106744560D01*
X135755410Y-106653493D01*
X135825605Y-106548976D01*
X135940231Y-106420601D01*
X136790833Y-105570000D01*
X139549169Y-105570000D01*
X140730000Y-106750832D01*
X140730001Y-111773297D01*
X140728356Y-111790000D01*
X140734920Y-111856651D01*
X140754361Y-111920741D01*
X140785933Y-111979807D01*
X140813638Y-112013565D01*
X140828422Y-112031579D01*
X140841394Y-112042225D01*
X142187774Y-113388606D01*
X142198421Y-113401579D01*
X142250192Y-113444067D01*
X142309258Y-113475639D01*
X142373348Y-113495080D01*
X142423299Y-113500000D01*
X142423307Y-113500000D01*
X142440000Y-113501644D01*
X142456693Y-113500000D01*
X151289169Y-113500000D01*
X151647779Y-113858612D01*
X151658421Y-113871579D01*
X151671387Y-113882220D01*
X151671392Y-113882225D01*
X151710192Y-113914067D01*
X151769258Y-113945639D01*
X151833348Y-113965080D01*
X151883299Y-113970000D01*
X151883308Y-113970000D01*
X151899999Y-113971644D01*
X151916690Y-113970000D01*
X156303307Y-113970000D01*
X156320000Y-113971644D01*
X156336693Y-113970000D01*
X156336701Y-113970000D01*
X156386652Y-113965080D01*
X156450742Y-113945639D01*
X156509808Y-113914067D01*
X156561579Y-113871579D01*
X156572229Y-113858602D01*
X157178617Y-113252216D01*
X157191578Y-113241579D01*
X157202216Y-113228617D01*
X157202226Y-113228607D01*
X157223879Y-113202222D01*
X157234067Y-113189808D01*
X157235367Y-113187376D01*
X157269614Y-113147912D01*
X157292273Y-113117164D01*
X157320822Y-113071161D01*
X157418000Y-113071161D01*
X157494312Y-113063645D01*
X157567691Y-113041386D01*
X157635317Y-113005238D01*
X157694593Y-112956593D01*
X157743238Y-112897317D01*
X157779386Y-112829691D01*
X157801645Y-112756312D01*
X157809161Y-112680000D01*
X157809161Y-110980000D01*
X157801645Y-110903688D01*
X157779386Y-110830309D01*
X157743238Y-110762683D01*
X157694593Y-110703407D01*
X157635317Y-110654762D01*
X157567691Y-110618614D01*
X157494312Y-110596355D01*
X157418000Y-110588839D01*
X156518000Y-110588839D01*
X156441688Y-110596355D01*
X156368309Y-110618614D01*
X156300683Y-110654762D01*
X156241407Y-110703407D01*
X156192762Y-110762683D01*
X156156614Y-110830309D01*
X156134355Y-110903688D01*
X156126839Y-110980000D01*
X156126839Y-112680000D01*
X156134355Y-112756312D01*
X156156614Y-112829691D01*
X156192762Y-112897317D01*
X156241407Y-112956593D01*
X156300683Y-113005238D01*
X156368309Y-113041386D01*
X156413940Y-113055228D01*
X156179169Y-113290000D01*
X152040833Y-113290000D01*
X151682229Y-112931398D01*
X151671579Y-112918421D01*
X151619808Y-112875933D01*
X151560742Y-112844361D01*
X151496652Y-112824920D01*
X151446701Y-112820000D01*
X151446693Y-112820000D01*
X151430000Y-112818356D01*
X151413307Y-112820000D01*
X142580832Y-112820000D01*
X141410000Y-111649169D01*
X141410000Y-107426815D01*
X142580000Y-107426815D01*
X142580000Y-107533185D01*
X142600752Y-107637512D01*
X142641458Y-107735786D01*
X142654842Y-107755817D01*
X142663680Y-107772885D01*
X142669092Y-107782763D01*
X142694803Y-107827180D01*
X142698120Y-107832736D01*
X142722111Y-107871719D01*
X142741613Y-107903660D01*
X142754686Y-107927197D01*
X142762946Y-107945237D01*
X142768914Y-107962843D01*
X142774088Y-107986253D01*
X142778172Y-108020891D01*
X142780001Y-108074152D01*
X142780000Y-109733307D01*
X142778356Y-109750000D01*
X142780000Y-109766693D01*
X142780000Y-109766700D01*
X142784920Y-109816651D01*
X142804361Y-109880741D01*
X142835933Y-109939807D01*
X142878421Y-109991578D01*
X142891394Y-110002225D01*
X145397779Y-112508612D01*
X145408421Y-112521579D01*
X145421387Y-112532220D01*
X145421392Y-112532225D01*
X145440580Y-112547972D01*
X145460192Y-112564067D01*
X145519258Y-112595639D01*
X145583348Y-112615080D01*
X145633299Y-112620000D01*
X145633306Y-112620000D01*
X145649999Y-112621644D01*
X145666692Y-112620000D01*
X152118741Y-112620000D01*
X152252620Y-112621361D01*
X152278839Y-112622218D01*
X152278839Y-112680000D01*
X152286355Y-112756312D01*
X152308614Y-112829691D01*
X152344762Y-112897317D01*
X152393407Y-112956593D01*
X152452683Y-113005238D01*
X152520309Y-113041386D01*
X152593688Y-113063645D01*
X152670000Y-113071161D01*
X153570000Y-113071161D01*
X153646312Y-113063645D01*
X153719691Y-113041386D01*
X153787317Y-113005238D01*
X153846593Y-112956593D01*
X153895238Y-112897317D01*
X153931386Y-112829691D01*
X153953645Y-112756312D01*
X153961161Y-112680000D01*
X153961161Y-110980000D01*
X153953645Y-110903688D01*
X153931386Y-110830309D01*
X153895238Y-110762683D01*
X153846593Y-110703407D01*
X153787317Y-110654762D01*
X153719691Y-110618614D01*
X153646312Y-110596355D01*
X153570000Y-110588839D01*
X152670000Y-110588839D01*
X152593688Y-110596355D01*
X152520309Y-110618614D01*
X152452683Y-110654762D01*
X152393407Y-110703407D01*
X152344762Y-110762683D01*
X152308614Y-110830309D01*
X152286355Y-110903688D01*
X152278839Y-110980000D01*
X152278839Y-111725063D01*
X152268429Y-111765210D01*
X152250343Y-111828668D01*
X152233489Y-111876209D01*
X152219013Y-111906025D01*
X152209309Y-111919646D01*
X152204199Y-111924243D01*
X152195595Y-111928818D01*
X152170267Y-111935566D01*
X152111035Y-111940000D01*
X145790833Y-111940000D01*
X144904105Y-111053272D01*
X145496434Y-111053272D01*
X145733208Y-111339037D01*
X146146167Y-111553810D01*
X146593092Y-111683891D01*
X147056807Y-111724283D01*
X147519491Y-111673432D01*
X147963365Y-111533293D01*
X148326792Y-111339037D01*
X148563566Y-111053272D01*
X147030000Y-109519706D01*
X145496434Y-111053272D01*
X144904105Y-111053272D01*
X143460000Y-109609169D01*
X143460000Y-109376807D01*
X144655717Y-109376807D01*
X144706568Y-109839491D01*
X144846707Y-110283365D01*
X145040963Y-110646792D01*
X145326728Y-110883566D01*
X146860294Y-109350000D01*
X147199706Y-109350000D01*
X148733272Y-110883566D01*
X149019037Y-110646792D01*
X149233810Y-110233833D01*
X149363891Y-109786908D01*
X149404283Y-109323193D01*
X149353432Y-108860509D01*
X149213293Y-108416635D01*
X149019037Y-108053208D01*
X148733272Y-107816434D01*
X147199706Y-109350000D01*
X146860294Y-109350000D01*
X145326728Y-107816434D01*
X145040963Y-108053208D01*
X144826190Y-108466167D01*
X144696109Y-108913092D01*
X144655717Y-109376807D01*
X143460000Y-109376807D01*
X143460000Y-108074125D01*
X143461827Y-108020890D01*
X143465911Y-107986253D01*
X143471085Y-107962843D01*
X143477053Y-107945237D01*
X143485313Y-107927197D01*
X143498386Y-107903660D01*
X143517888Y-107871719D01*
X143541879Y-107832736D01*
X143545196Y-107827180D01*
X143570907Y-107782763D01*
X143576318Y-107772888D01*
X143585157Y-107755817D01*
X143598542Y-107735786D01*
X143635430Y-107646728D01*
X145496434Y-107646728D01*
X147030000Y-109180294D01*
X148563566Y-107646728D01*
X148326792Y-107360963D01*
X147913833Y-107146190D01*
X147466908Y-107016109D01*
X147003193Y-106975717D01*
X146540509Y-107026568D01*
X146096635Y-107166707D01*
X145733208Y-107360963D01*
X145496434Y-107646728D01*
X143635430Y-107646728D01*
X143639248Y-107637512D01*
X143660000Y-107533185D01*
X143660000Y-107426815D01*
X143639248Y-107322488D01*
X143598542Y-107224214D01*
X143539446Y-107135770D01*
X143464230Y-107060554D01*
X143375786Y-107001458D01*
X143277512Y-106960752D01*
X143173185Y-106940000D01*
X143066815Y-106940000D01*
X142962488Y-106960752D01*
X142864214Y-107001458D01*
X142775770Y-107060554D01*
X142700554Y-107135770D01*
X142641458Y-107224214D01*
X142600752Y-107322488D01*
X142580000Y-107426815D01*
X141410000Y-107426815D01*
X141410000Y-106626693D01*
X141411644Y-106610000D01*
X141410000Y-106593307D01*
X141410000Y-106593299D01*
X141405080Y-106543348D01*
X141385639Y-106479258D01*
X141354067Y-106420192D01*
X141352211Y-106417931D01*
X141322225Y-106381393D01*
X141322221Y-106381389D01*
X141311578Y-106368421D01*
X141298611Y-106357779D01*
X139942230Y-105001399D01*
X139931579Y-104988421D01*
X139879808Y-104945933D01*
X139820742Y-104914361D01*
X139756652Y-104894920D01*
X139706701Y-104890000D01*
X139706693Y-104890000D01*
X139690000Y-104888356D01*
X139673307Y-104890000D01*
X136666692Y-104890000D01*
X136649999Y-104888356D01*
X136633306Y-104890000D01*
X136633299Y-104890000D01*
X136583348Y-104894920D01*
X136519258Y-104914361D01*
X136460192Y-104945933D01*
X136421392Y-104977775D01*
X136421387Y-104977780D01*
X136408421Y-104988421D01*
X136397779Y-105001388D01*
X135459334Y-105939834D01*
X135328602Y-106056714D01*
X135221528Y-106129091D01*
X135127686Y-106172894D01*
X135036773Y-106198931D01*
X134937378Y-106214207D01*
X134821626Y-106223586D01*
X134690925Y-106232810D01*
X134680434Y-106233783D01*
X134538657Y-106250067D01*
X134518891Y-106253176D01*
X134363664Y-106284279D01*
X134339308Y-106290503D01*
X134276877Y-106309989D01*
X134217059Y-106321888D01*
X134018691Y-106404055D01*
X133840166Y-106523342D01*
X133688342Y-106675166D01*
X133569055Y-106853691D01*
X133486888Y-107052059D01*
X133445000Y-107262644D01*
X133378041Y-107262644D01*
X133385504Y-107198710D01*
X133386366Y-107189921D01*
X133396924Y-107057232D01*
X133408109Y-106940159D01*
X133425490Y-106838946D01*
X133454086Y-106745314D01*
X133501203Y-106647938D01*
X133577634Y-106536867D01*
X133698746Y-106402085D01*
X135910833Y-104190000D01*
X140380365Y-104190000D01*
X142338970Y-106148606D01*
X142349617Y-106161579D01*
X142401388Y-106204067D01*
X142460454Y-106235639D01*
X142524544Y-106255080D01*
X142574495Y-106260000D01*
X142574502Y-106260000D01*
X142591195Y-106261644D01*
X142607888Y-106260000D01*
X147609169Y-106260000D01*
X150487779Y-109138612D01*
X150498421Y-109151579D01*
X150511387Y-109162220D01*
X150511393Y-109162226D01*
X150532653Y-109179673D01*
X150550192Y-109194067D01*
X150609258Y-109225639D01*
X150673348Y-109245080D01*
X150723299Y-109250000D01*
X150723307Y-109250000D01*
X150740000Y-109251644D01*
X150756693Y-109250000D01*
X154319169Y-109250000D01*
X154700000Y-109630832D01*
X154700000Y-110588839D01*
X154594000Y-110588839D01*
X154517688Y-110596355D01*
X154444309Y-110618614D01*
X154376683Y-110654762D01*
X154317407Y-110703407D01*
X154268762Y-110762683D01*
X154232614Y-110830309D01*
X154210355Y-110903688D01*
X154202839Y-110980000D01*
X154202839Y-112680000D01*
X154210355Y-112756312D01*
X154232614Y-112829691D01*
X154268762Y-112897317D01*
X154317407Y-112956593D01*
X154376683Y-113005238D01*
X154444309Y-113041386D01*
X154517688Y-113063645D01*
X154594000Y-113071161D01*
X155494000Y-113071161D01*
X155570312Y-113063645D01*
X155643691Y-113041386D01*
X155711317Y-113005238D01*
X155770593Y-112956593D01*
X155819238Y-112897317D01*
X155855386Y-112829691D01*
X155877645Y-112756312D01*
X155885161Y-112680000D01*
X155885161Y-110980000D01*
X155877645Y-110903688D01*
X155855386Y-110830309D01*
X155819238Y-110762683D01*
X155770593Y-110703407D01*
X155711317Y-110654762D01*
X155643691Y-110618614D01*
X155570312Y-110596355D01*
X155494000Y-110588839D01*
X155380000Y-110588839D01*
X155380000Y-109506693D01*
X155381644Y-109490000D01*
X155380000Y-109473307D01*
X155380000Y-109473299D01*
X155375080Y-109423348D01*
X155355639Y-109359258D01*
X155324067Y-109300192D01*
X155304545Y-109276405D01*
X155292225Y-109261393D01*
X155292221Y-109261389D01*
X155281578Y-109248421D01*
X155268611Y-109237779D01*
X154712229Y-108681398D01*
X154701579Y-108668421D01*
X154649808Y-108625933D01*
X154590742Y-108594361D01*
X154526652Y-108574920D01*
X154476701Y-108570000D01*
X154476693Y-108570000D01*
X154460000Y-108568356D01*
X154443307Y-108570000D01*
X150880833Y-108570000D01*
X148002230Y-105691399D01*
X147991579Y-105678421D01*
X147939808Y-105635933D01*
X147880742Y-105604361D01*
X147816652Y-105584920D01*
X147766701Y-105580000D01*
X147766693Y-105580000D01*
X147750000Y-105578356D01*
X147733307Y-105580000D01*
X142732028Y-105580000D01*
X140773426Y-103621399D01*
X140762775Y-103608421D01*
X140711004Y-103565933D01*
X140651938Y-103534361D01*
X140587848Y-103514920D01*
X140537897Y-103510000D01*
X140537889Y-103510000D01*
X140521196Y-103508356D01*
X140504503Y-103510000D01*
X135786690Y-103510000D01*
X135769999Y-103508356D01*
X135753308Y-103510000D01*
X135753299Y-103510000D01*
X135703348Y-103514920D01*
X135639258Y-103534361D01*
X135580192Y-103565933D01*
X135541392Y-103597775D01*
X135541387Y-103597780D01*
X135528421Y-103608421D01*
X135517779Y-103621388D01*
X133217933Y-105921235D01*
X133083583Y-106041925D01*
X132972984Y-106117929D01*
X132876112Y-106164631D01*
X132782987Y-106192816D01*
X132682248Y-106209733D01*
X132565585Y-106220311D01*
X132433107Y-106230065D01*
X132424549Y-106230849D01*
X132279586Y-106246757D01*
X132261884Y-106249371D01*
X132102686Y-106278978D01*
X132080189Y-106284294D01*
X131999932Y-106307393D01*
X131927059Y-106321888D01*
X131728691Y-106404055D01*
X131550166Y-106523342D01*
X131398342Y-106675166D01*
X131279055Y-106853691D01*
X131196888Y-107052059D01*
X131155000Y-107262644D01*
X131046161Y-107262644D01*
X131046161Y-106520000D01*
X131041527Y-106472952D01*
X131030769Y-106437486D01*
X131081241Y-106379591D01*
X134650832Y-102810000D01*
X141259169Y-102810000D01*
X142469476Y-104020308D01*
X142505821Y-104059238D01*
X142527430Y-104086623D01*
X142540320Y-104106828D01*
X142548554Y-104123508D01*
X142555471Y-104142108D01*
X142562864Y-104167975D01*
X142571644Y-104204281D01*
X142582264Y-104248891D01*
X142583847Y-104255162D01*
X142597074Y-104304750D01*
X142600231Y-104315561D01*
X142606052Y-104333886D01*
X142610752Y-104357512D01*
X142651458Y-104455786D01*
X142710554Y-104544230D01*
X142785770Y-104619446D01*
X142874214Y-104678542D01*
X142972488Y-104719248D01*
X143076815Y-104740000D01*
X143183185Y-104740000D01*
X143287512Y-104719248D01*
X143385786Y-104678542D01*
X143474230Y-104619446D01*
X143549446Y-104544230D01*
X143608542Y-104455786D01*
X143649248Y-104357512D01*
X143670000Y-104253185D01*
X143670000Y-104146815D01*
X143649248Y-104042488D01*
X143608542Y-103944214D01*
X143549446Y-103855770D01*
X143474230Y-103780554D01*
X143385786Y-103721458D01*
X143287512Y-103680752D01*
X143263886Y-103676052D01*
X143245561Y-103670231D01*
X143234750Y-103667074D01*
X143185162Y-103653847D01*
X143178891Y-103652264D01*
X143134281Y-103641644D01*
X143097975Y-103632864D01*
X143072108Y-103625471D01*
X143053508Y-103618554D01*
X143036828Y-103610320D01*
X143016623Y-103597430D01*
X142989238Y-103575821D01*
X142950308Y-103539476D01*
X141652229Y-102241398D01*
X141641579Y-102228421D01*
X141589808Y-102185933D01*
X141530742Y-102154361D01*
X141466652Y-102134920D01*
X141416701Y-102130000D01*
X141416693Y-102130000D01*
X141400000Y-102128356D01*
X141383307Y-102130000D01*
X134526692Y-102130000D01*
X134509999Y-102128356D01*
X134493306Y-102130000D01*
X134493299Y-102130000D01*
X134443348Y-102134920D01*
X134379258Y-102154361D01*
X134320192Y-102185933D01*
X134268421Y-102228421D01*
X134257775Y-102241393D01*
X130599810Y-105899359D01*
X130464665Y-106018871D01*
X130350841Y-106094065D01*
X130246544Y-106142556D01*
X130142203Y-106175280D01*
X130028778Y-106200394D01*
X129905891Y-106224734D01*
X129895191Y-106227109D01*
X129767876Y-106258428D01*
X129744000Y-106265636D01*
X129707281Y-106278839D01*
X129105000Y-106278839D01*
X129057952Y-106283473D01*
X129012712Y-106297196D01*
X128971018Y-106319482D01*
X128934473Y-106349473D01*
X128904482Y-106386018D01*
X128882196Y-106427712D01*
X128868473Y-106472952D01*
X128863839Y-106520000D01*
X128863839Y-108171175D01*
X128736405Y-108166577D01*
X128506945Y-108203673D01*
X128289131Y-108284823D01*
X128213717Y-108325131D01*
X128119394Y-108489689D01*
X126710000Y-108489689D01*
X126710000Y-107050831D01*
X128010833Y-105750000D01*
X130243307Y-105750000D01*
X130260000Y-105751644D01*
X130276693Y-105750000D01*
X130276701Y-105750000D01*
X130326652Y-105745080D01*
X130390742Y-105725639D01*
X130449808Y-105694067D01*
X130501579Y-105651579D01*
X130512230Y-105638601D01*
X134720832Y-101430000D01*
X142799165Y-101430000D01*
X145389459Y-104020295D01*
X145425801Y-104059222D01*
X145447410Y-104086607D01*
X145460300Y-104106812D01*
X145468534Y-104123492D01*
X145475451Y-104142092D01*
X145482844Y-104167959D01*
X145491624Y-104204265D01*
X145502244Y-104248875D01*
X145503827Y-104255146D01*
X145517054Y-104304734D01*
X145520211Y-104315545D01*
X145526032Y-104333870D01*
X145530732Y-104357496D01*
X145571438Y-104455770D01*
X145630534Y-104544214D01*
X145705750Y-104619430D01*
X145794194Y-104678526D01*
X145892468Y-104719232D01*
X145996795Y-104739984D01*
X146103165Y-104739984D01*
X146207492Y-104719232D01*
X146305766Y-104678526D01*
X146394210Y-104619430D01*
X146469426Y-104544214D01*
X146528522Y-104455770D01*
X146569228Y-104357496D01*
X146589980Y-104253169D01*
X146589980Y-104146799D01*
X146569228Y-104042472D01*
X146528522Y-103944198D01*
X146469426Y-103855754D01*
X146394210Y-103780538D01*
X146305766Y-103721442D01*
X146207492Y-103680736D01*
X146183866Y-103676036D01*
X146165541Y-103670215D01*
X146154730Y-103667058D01*
X146105142Y-103653831D01*
X146098871Y-103652248D01*
X146054261Y-103641628D01*
X146017955Y-103632848D01*
X145992088Y-103625455D01*
X145973488Y-103618538D01*
X145956808Y-103610304D01*
X145936603Y-103597414D01*
X145909218Y-103575805D01*
X145870291Y-103539463D01*
X143192226Y-100861399D01*
X143181575Y-100848421D01*
X143129804Y-100805933D01*
X143070738Y-100774361D01*
X143006648Y-100754920D01*
X142956697Y-100750000D01*
X142956689Y-100750000D01*
X142939996Y-100748356D01*
X142923303Y-100750000D01*
X134596693Y-100750000D01*
X134580000Y-100748356D01*
X134563307Y-100750000D01*
X134563299Y-100750000D01*
X134513348Y-100754920D01*
X134449258Y-100774361D01*
X134390192Y-100805933D01*
X134338421Y-100848421D01*
X134327775Y-100861393D01*
X130119169Y-105070000D01*
X127886690Y-105070000D01*
X127869999Y-105068356D01*
X127853308Y-105070000D01*
X127853299Y-105070000D01*
X127803348Y-105074920D01*
X127739258Y-105094361D01*
X127730097Y-105099258D01*
X127680192Y-105125933D01*
X127641392Y-105157775D01*
X127641387Y-105157780D01*
X127628421Y-105168421D01*
X127617779Y-105181388D01*
X126141394Y-106657775D01*
X126128422Y-106668421D01*
X126117776Y-106681393D01*
X126117775Y-106681394D01*
X126085933Y-106720193D01*
X126054361Y-106779259D01*
X126034920Y-106843349D01*
X126028356Y-106910000D01*
X119390000Y-106910000D01*
X119390000Y-102236132D01*
X119465356Y-102346014D01*
X119618350Y-102495356D01*
X119797539Y-102611981D01*
X120012945Y-102689301D01*
X120180000Y-102638285D01*
X120180000Y-101010000D01*
X120420000Y-101010000D01*
X120420000Y-102638285D01*
X120587055Y-102689301D01*
X120802461Y-102611981D01*
X120981650Y-102495356D01*
X121134644Y-102346014D01*
X121255563Y-102169694D01*
X121290917Y-102087175D01*
X121706000Y-102087175D01*
X121706001Y-103692826D01*
X121720384Y-103838858D01*
X121777222Y-104026228D01*
X121869522Y-104198909D01*
X121993736Y-104350265D01*
X122145092Y-104474479D01*
X122317773Y-104566779D01*
X122505143Y-104623617D01*
X122700000Y-104642809D01*
X122894858Y-104623617D01*
X123082228Y-104566779D01*
X123254909Y-104474479D01*
X123406265Y-104350265D01*
X123530479Y-104198909D01*
X123622779Y-104026228D01*
X123679617Y-103838858D01*
X123694000Y-103692826D01*
X123694000Y-102087174D01*
X123679617Y-101941142D01*
X123622779Y-101753772D01*
X123530479Y-101581091D01*
X123406265Y-101429735D01*
X123254909Y-101305521D01*
X123082227Y-101213221D01*
X122894857Y-101156383D01*
X122700000Y-101137191D01*
X122505142Y-101156383D01*
X122317772Y-101213221D01*
X122145091Y-101305521D01*
X121993735Y-101429735D01*
X121869521Y-101581091D01*
X121777221Y-101753773D01*
X121720383Y-101941143D01*
X121706000Y-102087175D01*
X121290917Y-102087175D01*
X121339760Y-101973172D01*
X121384000Y-101764000D01*
X121384000Y-101010000D01*
X120420000Y-101010000D01*
X120180000Y-101010000D01*
X120160000Y-101010000D01*
X120160000Y-100770000D01*
X120180000Y-100770000D01*
X120180000Y-99141715D01*
X120420000Y-99141715D01*
X120420000Y-100770000D01*
X121384000Y-100770000D01*
X121384000Y-100087175D01*
X125406000Y-100087175D01*
X125406001Y-101692826D01*
X125420384Y-101838858D01*
X125477222Y-102026228D01*
X125569522Y-102198909D01*
X125693736Y-102350265D01*
X125845092Y-102474479D01*
X126017773Y-102566779D01*
X126205143Y-102623617D01*
X126400000Y-102642809D01*
X126594858Y-102623617D01*
X126782228Y-102566779D01*
X126954909Y-102474479D01*
X127106265Y-102350265D01*
X127206000Y-102228737D01*
X127206001Y-103692826D01*
X127220384Y-103838858D01*
X127277222Y-104026228D01*
X127369522Y-104198909D01*
X127493736Y-104350265D01*
X127645092Y-104474479D01*
X127817773Y-104566779D01*
X128005143Y-104623617D01*
X128200000Y-104642809D01*
X128394858Y-104623617D01*
X128582228Y-104566779D01*
X128754909Y-104474479D01*
X128906265Y-104350265D01*
X129030479Y-104198909D01*
X129122779Y-104026228D01*
X129179617Y-103838858D01*
X129194000Y-103692826D01*
X129194000Y-102087174D01*
X129179617Y-101941142D01*
X129122779Y-101753772D01*
X129030479Y-101581091D01*
X128906265Y-101429735D01*
X128754909Y-101305521D01*
X128582227Y-101213221D01*
X128394857Y-101156383D01*
X128200000Y-101137191D01*
X128005142Y-101156383D01*
X127817772Y-101213221D01*
X127645091Y-101305521D01*
X127493735Y-101429735D01*
X127394000Y-101551263D01*
X127394000Y-100087175D01*
X130906000Y-100087175D01*
X130906001Y-101692826D01*
X130920384Y-101838858D01*
X130977222Y-102026228D01*
X131069522Y-102198909D01*
X131193736Y-102350265D01*
X131345092Y-102474479D01*
X131517773Y-102566779D01*
X131705143Y-102623617D01*
X131900000Y-102642809D01*
X132094858Y-102623617D01*
X132282228Y-102566779D01*
X132454909Y-102474479D01*
X132606265Y-102350265D01*
X132730479Y-102198909D01*
X132822779Y-102026228D01*
X132879617Y-101838858D01*
X132894000Y-101692826D01*
X132894000Y-100087174D01*
X132879617Y-99941142D01*
X132858036Y-99870000D01*
X133829553Y-99870000D01*
X133916869Y-99873965D01*
X133976053Y-99883211D01*
X134018682Y-99895695D01*
X134043839Y-99906942D01*
X134043839Y-100015000D01*
X134048473Y-100062048D01*
X134062196Y-100107288D01*
X134084482Y-100148982D01*
X134114473Y-100185527D01*
X134151018Y-100215518D01*
X134192712Y-100237804D01*
X134237952Y-100251527D01*
X134285000Y-100256161D01*
X135205000Y-100256161D01*
X135252048Y-100251527D01*
X135297288Y-100237804D01*
X135338982Y-100215518D01*
X135375527Y-100185527D01*
X135405518Y-100148982D01*
X135427804Y-100107288D01*
X135441527Y-100062048D01*
X135446161Y-100015000D01*
X135446161Y-99045000D01*
X135593839Y-99045000D01*
X135593839Y-100015000D01*
X135598473Y-100062048D01*
X135612196Y-100107288D01*
X135634482Y-100148982D01*
X135664473Y-100185527D01*
X135701018Y-100215518D01*
X135742712Y-100237804D01*
X135787952Y-100251527D01*
X135835000Y-100256161D01*
X136755000Y-100256161D01*
X136802048Y-100251527D01*
X136847288Y-100237804D01*
X136888982Y-100215518D01*
X136925527Y-100185527D01*
X136955518Y-100148982D01*
X136977804Y-100107288D01*
X136991527Y-100062048D01*
X136996161Y-100015000D01*
X136996161Y-99906942D01*
X137021317Y-99895695D01*
X137063946Y-99883211D01*
X137123130Y-99873965D01*
X137210447Y-99870000D01*
X137284937Y-99870000D01*
X137288309Y-99890194D01*
X137289864Y-99898584D01*
X137298808Y-99942480D01*
X137303349Y-99960981D01*
X137303792Y-99962518D01*
X137310752Y-99997510D01*
X137351458Y-100095784D01*
X137410554Y-100184228D01*
X137485770Y-100259444D01*
X137574214Y-100318540D01*
X137672488Y-100359246D01*
X137776815Y-100379998D01*
X137883185Y-100379998D01*
X137987512Y-100359246D01*
X138085786Y-100318540D01*
X138174230Y-100259444D01*
X138249446Y-100184228D01*
X138308542Y-100095784D01*
X138349248Y-99997510D01*
X138370000Y-99893183D01*
X138370000Y-99786813D01*
X138349248Y-99682486D01*
X138308542Y-99584212D01*
X138249446Y-99495768D01*
X138174230Y-99420552D01*
X138085786Y-99361456D01*
X137987512Y-99320750D01*
X137883185Y-99299998D01*
X137836509Y-99299998D01*
X137800458Y-99298039D01*
X137779616Y-99294421D01*
X137762352Y-99289361D01*
X137761581Y-99288421D01*
X137709810Y-99245933D01*
X137650744Y-99214361D01*
X137586654Y-99194920D01*
X137536703Y-99190000D01*
X137536695Y-99190000D01*
X137520002Y-99188356D01*
X137503309Y-99190000D01*
X137210450Y-99190000D01*
X137123130Y-99186034D01*
X137063946Y-99176788D01*
X137021317Y-99164304D01*
X136996161Y-99153057D01*
X136996161Y-99045000D01*
X136991527Y-98997952D01*
X136977804Y-98952712D01*
X136955518Y-98911018D01*
X136925527Y-98874473D01*
X136888982Y-98844482D01*
X136847288Y-98822196D01*
X136802048Y-98808473D01*
X136755000Y-98803839D01*
X135835000Y-98803839D01*
X135787952Y-98808473D01*
X135742712Y-98822196D01*
X135701018Y-98844482D01*
X135664473Y-98874473D01*
X135634482Y-98911018D01*
X135612196Y-98952712D01*
X135598473Y-98997952D01*
X135593839Y-99045000D01*
X135446161Y-99045000D01*
X135441527Y-98997952D01*
X135427804Y-98952712D01*
X135405518Y-98911018D01*
X135375527Y-98874473D01*
X135338982Y-98844482D01*
X135297288Y-98822196D01*
X135252048Y-98808473D01*
X135205000Y-98803839D01*
X134285000Y-98803839D01*
X134237952Y-98808473D01*
X134192712Y-98822196D01*
X134151018Y-98844482D01*
X134114473Y-98874473D01*
X134084482Y-98911018D01*
X134062196Y-98952712D01*
X134048473Y-98997952D01*
X134043839Y-99045000D01*
X134043839Y-99153057D01*
X134018682Y-99164304D01*
X133976053Y-99176788D01*
X133916869Y-99186034D01*
X133829550Y-99190000D01*
X132526693Y-99190000D01*
X132510000Y-99188356D01*
X132493307Y-99190000D01*
X132493299Y-99190000D01*
X132443348Y-99194920D01*
X132379258Y-99214361D01*
X132331809Y-99239723D01*
X132282227Y-99213221D01*
X132094857Y-99156383D01*
X131900000Y-99137191D01*
X131705142Y-99156383D01*
X131517772Y-99213221D01*
X131345091Y-99305521D01*
X131193735Y-99429735D01*
X131069521Y-99581091D01*
X130977221Y-99753773D01*
X130920383Y-99941143D01*
X130906000Y-100087175D01*
X127394000Y-100087175D01*
X127394000Y-100087174D01*
X127379617Y-99941142D01*
X127322779Y-99753772D01*
X127258088Y-99632744D01*
X128400833Y-98490000D01*
X137214899Y-98490000D01*
X137307911Y-98493963D01*
X137373106Y-98503459D01*
X137421694Y-98516612D01*
X137443839Y-98525671D01*
X137443839Y-98605000D01*
X137448473Y-98652048D01*
X137462196Y-98697288D01*
X137484482Y-98738982D01*
X137514473Y-98775527D01*
X137551018Y-98805518D01*
X137592712Y-98827804D01*
X137637952Y-98841527D01*
X137685000Y-98846161D01*
X138605000Y-98846161D01*
X138652048Y-98841527D01*
X138697288Y-98827804D01*
X138738982Y-98805518D01*
X138775527Y-98775527D01*
X138805518Y-98738982D01*
X138827804Y-98697288D01*
X138841527Y-98652048D01*
X138846161Y-98605000D01*
X138846161Y-97635000D01*
X138993839Y-97635000D01*
X138993839Y-98605000D01*
X138998473Y-98652048D01*
X139012196Y-98697288D01*
X139034482Y-98738982D01*
X139064473Y-98775527D01*
X139101018Y-98805518D01*
X139142712Y-98827804D01*
X139187952Y-98841527D01*
X139235000Y-98846161D01*
X139313767Y-98846161D01*
X139326633Y-98892064D01*
X139336033Y-98954663D01*
X139340001Y-99045260D01*
X139340000Y-99235857D01*
X139338172Y-99289108D01*
X139334088Y-99323746D01*
X139328914Y-99347156D01*
X139322946Y-99364762D01*
X139314686Y-99382802D01*
X139301613Y-99406339D01*
X139282111Y-99438280D01*
X139258120Y-99477263D01*
X139254803Y-99482819D01*
X139229092Y-99527236D01*
X139223679Y-99537116D01*
X139214841Y-99554185D01*
X139201458Y-99574214D01*
X139160752Y-99672488D01*
X139140000Y-99776815D01*
X139140000Y-99883185D01*
X139160752Y-99987512D01*
X139201458Y-100085786D01*
X139260554Y-100174230D01*
X139335770Y-100249446D01*
X139424214Y-100308542D01*
X139522488Y-100349248D01*
X139626815Y-100370000D01*
X139733185Y-100370000D01*
X139837512Y-100349248D01*
X139935786Y-100308542D01*
X140024230Y-100249446D01*
X140099446Y-100174230D01*
X140158542Y-100085786D01*
X140199248Y-99987512D01*
X140220000Y-99883185D01*
X140220000Y-99776815D01*
X140199248Y-99672488D01*
X140158542Y-99574214D01*
X140145159Y-99554185D01*
X140136319Y-99537113D01*
X140130907Y-99527236D01*
X140105196Y-99482819D01*
X140101879Y-99477263D01*
X140077888Y-99438280D01*
X140058386Y-99406339D01*
X140045313Y-99382802D01*
X140037053Y-99364762D01*
X140031085Y-99347156D01*
X140025911Y-99323746D01*
X140021827Y-99289108D01*
X140020000Y-99235875D01*
X140020000Y-99045401D01*
X140023940Y-98957910D01*
X140033149Y-98898653D01*
X140045558Y-98856236D01*
X140050084Y-98846161D01*
X140155000Y-98846161D01*
X140202048Y-98841527D01*
X140247288Y-98827804D01*
X140288982Y-98805518D01*
X140325527Y-98775527D01*
X140355518Y-98738982D01*
X140377804Y-98697288D01*
X140391527Y-98652048D01*
X140396161Y-98605000D01*
X140396161Y-97635000D01*
X140391527Y-97587952D01*
X140377804Y-97542712D01*
X140355518Y-97501018D01*
X140325527Y-97464473D01*
X140288982Y-97434482D01*
X140247288Y-97412196D01*
X140202048Y-97398473D01*
X140155000Y-97393839D01*
X139235000Y-97393839D01*
X139187952Y-97398473D01*
X139142712Y-97412196D01*
X139101018Y-97434482D01*
X139064473Y-97464473D01*
X139034482Y-97501018D01*
X139012196Y-97542712D01*
X138998473Y-97587952D01*
X138993839Y-97635000D01*
X138846161Y-97635000D01*
X138841527Y-97587952D01*
X138827804Y-97542712D01*
X138805518Y-97501018D01*
X138775527Y-97464473D01*
X138738982Y-97434482D01*
X138697288Y-97412196D01*
X138652048Y-97398473D01*
X138605000Y-97393839D01*
X137685000Y-97393839D01*
X137637952Y-97398473D01*
X137592712Y-97412196D01*
X137551018Y-97434482D01*
X137514473Y-97464473D01*
X137484482Y-97501018D01*
X137462196Y-97542712D01*
X137448473Y-97587952D01*
X137443839Y-97635000D01*
X137443839Y-97763980D01*
X137435017Y-97769420D01*
X137401579Y-97784660D01*
X137360046Y-97796924D01*
X137301477Y-97806075D01*
X137214574Y-97810000D01*
X128276692Y-97810000D01*
X128259999Y-97808356D01*
X128243306Y-97810000D01*
X128243299Y-97810000D01*
X128193348Y-97814920D01*
X128129258Y-97834361D01*
X128122254Y-97838105D01*
X128070192Y-97865933D01*
X128031392Y-97897775D01*
X128031387Y-97897780D01*
X128018421Y-97908421D01*
X128007779Y-97921388D01*
X126731374Y-99197795D01*
X126594857Y-99156383D01*
X126400000Y-99137191D01*
X126205142Y-99156383D01*
X126017772Y-99213221D01*
X125845091Y-99305521D01*
X125693735Y-99429735D01*
X125569521Y-99581091D01*
X125477221Y-99753773D01*
X125420383Y-99941143D01*
X125406000Y-100087175D01*
X121384000Y-100087175D01*
X121384000Y-100016000D01*
X121339760Y-99806828D01*
X121255563Y-99610306D01*
X121134644Y-99433986D01*
X120981650Y-99284644D01*
X120802461Y-99168019D01*
X120587055Y-99090699D01*
X120420000Y-99141715D01*
X120180000Y-99141715D01*
X120012945Y-99090699D01*
X119797539Y-99168019D01*
X119618350Y-99284644D01*
X119465356Y-99433986D01*
X119390000Y-99543868D01*
X119390000Y-97160000D01*
X149760000Y-97160000D01*
X149760001Y-107285744D01*
G37*
G04 #@! TD.AperFunction*
D19*
X137423646Y-99445735D02*
X137478127Y-99453900D01*
X137524402Y-99465907D01*
X137565083Y-99480543D01*
X137602707Y-99496624D01*
X137639707Y-99512903D01*
X137640203Y-99513108D01*
X137678517Y-99528068D01*
X137679564Y-99528425D01*
X137721596Y-99540745D01*
X137722996Y-99541071D01*
X137771149Y-99549431D01*
X137772632Y-99549599D01*
X137820054Y-99552176D01*
X137919537Y-99933038D01*
X137556227Y-99925935D01*
X137546319Y-99891529D01*
X137537525Y-99848372D01*
X137530410Y-99805760D01*
X137530385Y-99805620D01*
X137523128Y-99764976D01*
X137522953Y-99764153D01*
X137513689Y-99726771D01*
X137513158Y-99725121D01*
X137499985Y-99692091D01*
X137498652Y-99689597D01*
X137479671Y-99662009D01*
X137478065Y-99660107D01*
X137477074Y-99659237D01*
X137450384Y-99638181D01*
X137448288Y-99636838D01*
X137446925Y-99636241D01*
X137410624Y-99622808D01*
X137407464Y-99622080D01*
X137371106Y-99618491D01*
X137371106Y-99443301D01*
X137423646Y-99445735D01*
G04 #@! TA.AperFunction,Conductor*
D18*
G36*
X137423646Y-99445735D02*
G01*
X137478127Y-99453900D01*
X137524402Y-99465907D01*
X137565083Y-99480543D01*
X137602707Y-99496624D01*
X137639707Y-99512903D01*
X137640203Y-99513108D01*
X137678517Y-99528068D01*
X137679564Y-99528425D01*
X137721596Y-99540745D01*
X137722996Y-99541071D01*
X137771149Y-99549431D01*
X137772632Y-99549599D01*
X137820054Y-99552176D01*
X137919537Y-99933038D01*
X137556227Y-99925935D01*
X137546319Y-99891529D01*
X137537525Y-99848372D01*
X137530410Y-99805760D01*
X137530385Y-99805620D01*
X137523128Y-99764976D01*
X137522953Y-99764153D01*
X137513689Y-99726771D01*
X137513158Y-99725121D01*
X137499985Y-99692091D01*
X137498652Y-99689597D01*
X137479671Y-99662009D01*
X137478065Y-99660107D01*
X137477074Y-99659237D01*
X137450384Y-99638181D01*
X137448288Y-99636838D01*
X137446925Y-99636241D01*
X137410624Y-99622808D01*
X137407464Y-99622080D01*
X137371106Y-99618491D01*
X137371106Y-99443301D01*
X137423646Y-99445735D01*
G37*
G04 #@! TD.AperFunction*
D19*
X136572482Y-99171601D02*
X136641878Y-99215817D01*
X136702225Y-99259107D01*
X136757477Y-99300415D01*
X136757754Y-99300617D01*
X136811650Y-99338682D01*
X136812471Y-99339215D01*
X136868869Y-99372856D01*
X136870191Y-99373543D01*
X136933042Y-99401645D01*
X136934657Y-99402239D01*
X137007911Y-99423691D01*
X137009520Y-99424051D01*
X137097128Y-99437738D01*
X137098512Y-99437877D01*
X137192300Y-99442136D01*
X137192300Y-99617863D01*
X137098512Y-99622122D01*
X137097128Y-99622261D01*
X137009520Y-99635948D01*
X137007911Y-99636308D01*
X136934657Y-99657760D01*
X136933042Y-99658354D01*
X136870191Y-99686456D01*
X136868869Y-99687143D01*
X136812471Y-99720784D01*
X136811650Y-99721317D01*
X136757754Y-99759382D01*
X136757477Y-99759584D01*
X136702225Y-99800892D01*
X136641878Y-99844182D01*
X136572481Y-99888398D01*
X136497657Y-99928446D01*
X136083322Y-99530000D01*
X136497657Y-99131554D01*
X136572482Y-99171601D01*
G04 #@! TA.AperFunction,Conductor*
D18*
G36*
X136572482Y-99171601D02*
G01*
X136641878Y-99215817D01*
X136702225Y-99259107D01*
X136757477Y-99300415D01*
X136757754Y-99300617D01*
X136811650Y-99338682D01*
X136812471Y-99339215D01*
X136868869Y-99372856D01*
X136870191Y-99373543D01*
X136933042Y-99401645D01*
X136934657Y-99402239D01*
X137007911Y-99423691D01*
X137009520Y-99424051D01*
X137097128Y-99437738D01*
X137098512Y-99437877D01*
X137192300Y-99442136D01*
X137192300Y-99617863D01*
X137098512Y-99622122D01*
X137097128Y-99622261D01*
X137009520Y-99635948D01*
X137007911Y-99636308D01*
X136934657Y-99657760D01*
X136933042Y-99658354D01*
X136870191Y-99686456D01*
X136868869Y-99687143D01*
X136812471Y-99720784D01*
X136811650Y-99721317D01*
X136757754Y-99759382D01*
X136757477Y-99759584D01*
X136702225Y-99800892D01*
X136641878Y-99844182D01*
X136572481Y-99888398D01*
X136497657Y-99928446D01*
X136083322Y-99530000D01*
X136497657Y-99131554D01*
X136572482Y-99171601D01*
G37*
G04 #@! TD.AperFunction*
D19*
X139769617Y-99307734D02*
X139769697Y-99308785D01*
X139776358Y-99365286D01*
X139776570Y-99366540D01*
X139787173Y-99414511D01*
X139787546Y-99415847D01*
X139801685Y-99457556D01*
X139802166Y-99458766D01*
X139819434Y-99496480D01*
X139819879Y-99497360D01*
X139839868Y-99533349D01*
X139840131Y-99533800D01*
X139862435Y-99570331D01*
X139862458Y-99570369D01*
X139886588Y-99609577D01*
X139912047Y-99653558D01*
X139934537Y-99696992D01*
X139680000Y-99961678D01*
X139425463Y-99696992D01*
X139447952Y-99653558D01*
X139473411Y-99609577D01*
X139497541Y-99570369D01*
X139497564Y-99570331D01*
X139519868Y-99533800D01*
X139520131Y-99533349D01*
X139540120Y-99497360D01*
X139540565Y-99496480D01*
X139557833Y-99458766D01*
X139558314Y-99457556D01*
X139572453Y-99415847D01*
X139572826Y-99414511D01*
X139583429Y-99366540D01*
X139583641Y-99365286D01*
X139590302Y-99308785D01*
X139590382Y-99307734D01*
X139592272Y-99252700D01*
X139767728Y-99252700D01*
X139769617Y-99307734D01*
G04 #@! TA.AperFunction,Conductor*
D18*
G36*
X139769617Y-99307734D02*
G01*
X139769697Y-99308785D01*
X139776358Y-99365286D01*
X139776570Y-99366540D01*
X139787173Y-99414511D01*
X139787546Y-99415847D01*
X139801685Y-99457556D01*
X139802166Y-99458766D01*
X139819434Y-99496480D01*
X139819879Y-99497360D01*
X139839868Y-99533349D01*
X139840131Y-99533800D01*
X139862435Y-99570331D01*
X139862458Y-99570369D01*
X139886588Y-99609577D01*
X139912047Y-99653558D01*
X139934537Y-99696992D01*
X139680000Y-99961678D01*
X139425463Y-99696992D01*
X139447952Y-99653558D01*
X139473411Y-99609577D01*
X139497541Y-99570369D01*
X139497564Y-99570331D01*
X139519868Y-99533800D01*
X139520131Y-99533349D01*
X139540120Y-99497360D01*
X139540565Y-99496480D01*
X139557833Y-99458766D01*
X139558314Y-99457556D01*
X139572453Y-99415847D01*
X139572826Y-99414511D01*
X139583429Y-99366540D01*
X139583641Y-99365286D01*
X139590302Y-99308785D01*
X139590382Y-99307734D01*
X139592272Y-99252700D01*
X139767728Y-99252700D01*
X139769617Y-99307734D01*
G37*
G04 #@! TD.AperFunction*
D19*
X140086640Y-98335546D02*
X140044191Y-98409284D01*
X139997942Y-98477780D01*
X139953125Y-98537526D01*
X139910768Y-98592372D01*
X139910520Y-98592704D01*
X139871800Y-98646363D01*
X139871227Y-98647230D01*
X139837228Y-98703541D01*
X139836515Y-98704901D01*
X139808272Y-98767771D01*
X139807668Y-98769409D01*
X139786214Y-98842744D01*
X139785854Y-98844360D01*
X139772224Y-98932066D01*
X139772086Y-98933445D01*
X139767859Y-99027300D01*
X139592156Y-99027300D01*
X139587938Y-98930975D01*
X139587809Y-98929645D01*
X139574315Y-98839779D01*
X139573985Y-98838237D01*
X139552877Y-98762928D01*
X139552333Y-98761381D01*
X139524742Y-98696583D01*
X139524115Y-98695313D01*
X139491171Y-98636979D01*
X139490690Y-98636194D01*
X139453525Y-98580279D01*
X139453354Y-98580029D01*
X139413173Y-98522593D01*
X139371235Y-98459793D01*
X139328612Y-98387573D01*
X139290156Y-98309569D01*
X139701899Y-97908435D01*
X140086640Y-98335546D01*
G04 #@! TA.AperFunction,Conductor*
D18*
G36*
X140086640Y-98335546D02*
G01*
X140044191Y-98409284D01*
X139997942Y-98477780D01*
X139953125Y-98537526D01*
X139910768Y-98592372D01*
X139910520Y-98592704D01*
X139871800Y-98646363D01*
X139871227Y-98647230D01*
X139837228Y-98703541D01*
X139836515Y-98704901D01*
X139808272Y-98767771D01*
X139807668Y-98769409D01*
X139786214Y-98842744D01*
X139785854Y-98844360D01*
X139772224Y-98932066D01*
X139772086Y-98933445D01*
X139767859Y-99027300D01*
X139592156Y-99027300D01*
X139587938Y-98930975D01*
X139587809Y-98929645D01*
X139574315Y-98839779D01*
X139573985Y-98838237D01*
X139552877Y-98762928D01*
X139552333Y-98761381D01*
X139524742Y-98696583D01*
X139524115Y-98695313D01*
X139491171Y-98636979D01*
X139490690Y-98636194D01*
X139453525Y-98580279D01*
X139453354Y-98580029D01*
X139413173Y-98522593D01*
X139371235Y-98459793D01*
X139328612Y-98387573D01*
X139290156Y-98309569D01*
X139701899Y-97908435D01*
X140086640Y-98335546D01*
G37*
G04 #@! TD.AperFunction*
D19*
X138356238Y-98106373D02*
X137968410Y-98530674D01*
X137887812Y-98494113D01*
X137813300Y-98453292D01*
X137748541Y-98412846D01*
X137689366Y-98373855D01*
X137689151Y-98373717D01*
X137631656Y-98337473D01*
X137630911Y-98337038D01*
X137571087Y-98304778D01*
X137569868Y-98304202D01*
X137503592Y-98277089D01*
X137502102Y-98276584D01*
X137425250Y-98255779D01*
X137423761Y-98255471D01*
X137332208Y-98242136D01*
X137330919Y-98242015D01*
X137232700Y-98237830D01*
X137232700Y-98062139D01*
X137326057Y-98057923D01*
X137327445Y-98057784D01*
X137414744Y-98044144D01*
X137416380Y-98043776D01*
X137489341Y-98022232D01*
X137491011Y-98021608D01*
X137553482Y-97993135D01*
X137554881Y-97992389D01*
X137610711Y-97957961D01*
X137611620Y-97957345D01*
X137664656Y-97917935D01*
X137665031Y-97917645D01*
X137719070Y-97874269D01*
X137777791Y-97828034D01*
X137844952Y-97779942D01*
X137917090Y-97735412D01*
X138356238Y-98106373D01*
G04 #@! TA.AperFunction,Conductor*
D18*
G36*
X138356238Y-98106373D02*
G01*
X137968410Y-98530674D01*
X137887812Y-98494113D01*
X137813300Y-98453292D01*
X137748541Y-98412846D01*
X137689366Y-98373855D01*
X137689151Y-98373717D01*
X137631656Y-98337473D01*
X137630911Y-98337038D01*
X137571087Y-98304778D01*
X137569868Y-98304202D01*
X137503592Y-98277089D01*
X137502102Y-98276584D01*
X137425250Y-98255779D01*
X137423761Y-98255471D01*
X137332208Y-98242136D01*
X137330919Y-98242015D01*
X137232700Y-98237830D01*
X137232700Y-98062139D01*
X137326057Y-98057923D01*
X137327445Y-98057784D01*
X137414744Y-98044144D01*
X137416380Y-98043776D01*
X137489341Y-98022232D01*
X137491011Y-98021608D01*
X137553482Y-97993135D01*
X137554881Y-97992389D01*
X137610711Y-97957961D01*
X137611620Y-97957345D01*
X137664656Y-97917935D01*
X137665031Y-97917645D01*
X137719070Y-97874269D01*
X137777791Y-97828034D01*
X137844952Y-97779942D01*
X137917090Y-97735412D01*
X138356238Y-98106373D01*
G37*
G04 #@! TD.AperFunction*
D19*
X126901800Y-99633149D02*
X126827878Y-99721088D01*
X126826318Y-99723428D01*
X126778919Y-99815122D01*
X126777758Y-99818410D01*
X126759736Y-99906548D01*
X126759517Y-99910078D01*
X126766227Y-99996265D01*
X126766766Y-99999064D01*
X126793568Y-100084905D01*
X126794264Y-100086663D01*
X126836515Y-100173765D01*
X126837003Y-100174673D01*
X126890061Y-100264640D01*
X126890241Y-100264936D01*
X126949398Y-100359267D01*
X127009925Y-100459419D01*
X127063060Y-100559178D01*
X126402477Y-101246103D01*
X125882788Y-100358937D01*
X125984703Y-100258196D01*
X126078615Y-100167693D01*
X126161594Y-100089736D01*
X126237875Y-100019556D01*
X126311556Y-99952514D01*
X126311565Y-99952506D01*
X126386835Y-99883881D01*
X126386901Y-99883821D01*
X126467850Y-99808977D01*
X126467949Y-99808884D01*
X126558723Y-99723139D01*
X126558832Y-99723035D01*
X126663573Y-99621706D01*
X126663677Y-99621604D01*
X126777549Y-99508898D01*
X126901800Y-99633149D01*
G04 #@! TA.AperFunction,Conductor*
D18*
G36*
X126901800Y-99633149D02*
G01*
X126827878Y-99721088D01*
X126826318Y-99723428D01*
X126778919Y-99815122D01*
X126777758Y-99818410D01*
X126759736Y-99906548D01*
X126759517Y-99910078D01*
X126766227Y-99996265D01*
X126766766Y-99999064D01*
X126793568Y-100084905D01*
X126794264Y-100086663D01*
X126836515Y-100173765D01*
X126837003Y-100174673D01*
X126890061Y-100264640D01*
X126890241Y-100264936D01*
X126949398Y-100359267D01*
X127009925Y-100459419D01*
X127063060Y-100559178D01*
X126402477Y-101246103D01*
X125882788Y-100358937D01*
X125984703Y-100258196D01*
X126078615Y-100167693D01*
X126161594Y-100089736D01*
X126237875Y-100019556D01*
X126311556Y-99952514D01*
X126311565Y-99952506D01*
X126386835Y-99883881D01*
X126386901Y-99883821D01*
X126467850Y-99808977D01*
X126467949Y-99808884D01*
X126558723Y-99723139D01*
X126558832Y-99723035D01*
X126663573Y-99621706D01*
X126663677Y-99621604D01*
X126777549Y-99508898D01*
X126901800Y-99633149D01*
G37*
G04 #@! TD.AperFunction*
D19*
X130888354Y-106216295D02*
X130795576Y-106322718D01*
X130794289Y-106324481D01*
X130729072Y-106432067D01*
X130727934Y-106434486D01*
X130692351Y-106537000D01*
X130691734Y-106539694D01*
X130680065Y-106639841D01*
X130680007Y-106642134D01*
X130686534Y-106742621D01*
X130686716Y-106744091D01*
X130705720Y-106847621D01*
X130705850Y-106848242D01*
X130731588Y-106957427D01*
X130758309Y-107074824D01*
X130780275Y-107202838D01*
X130791181Y-107335727D01*
X129789014Y-107741261D01*
X129423012Y-106724163D01*
X129562069Y-106622429D01*
X129698758Y-106550442D01*
X129828884Y-106503654D01*
X129955269Y-106472563D01*
X130080492Y-106447761D01*
X130080770Y-106447703D01*
X130206917Y-106419772D01*
X130207973Y-106419490D01*
X130337220Y-106378955D01*
X130338773Y-106378353D01*
X130473572Y-106315681D01*
X130475218Y-106314762D01*
X130618027Y-106220420D01*
X130619440Y-106219337D01*
X130763765Y-106091706D01*
X130888354Y-106216295D01*
G04 #@! TA.AperFunction,Conductor*
D18*
G36*
X130888354Y-106216295D02*
G01*
X130795576Y-106322718D01*
X130794289Y-106324481D01*
X130729072Y-106432067D01*
X130727934Y-106434486D01*
X130692351Y-106537000D01*
X130691734Y-106539694D01*
X130680065Y-106639841D01*
X130680007Y-106642134D01*
X130686534Y-106742621D01*
X130686716Y-106744091D01*
X130705720Y-106847621D01*
X130705850Y-106848242D01*
X130731588Y-106957427D01*
X130758309Y-107074824D01*
X130780275Y-107202838D01*
X130791181Y-107335727D01*
X129789014Y-107741261D01*
X129423012Y-106724163D01*
X129562069Y-106622429D01*
X129698758Y-106550442D01*
X129828884Y-106503654D01*
X129955269Y-106472563D01*
X130080492Y-106447761D01*
X130080770Y-106447703D01*
X130206917Y-106419772D01*
X130207973Y-106419490D01*
X130337220Y-106378955D01*
X130338773Y-106378353D01*
X130473572Y-106315681D01*
X130475218Y-106314762D01*
X130618027Y-106220420D01*
X130619440Y-106219337D01*
X130763765Y-106091706D01*
X130888354Y-106216295D01*
G37*
G04 #@! TD.AperFunction*
D19*
X142824072Y-103767334D02*
X142824872Y-103768021D01*
X142869534Y-103803263D01*
X142870571Y-103804000D01*
X142911989Y-103830422D01*
X142913197Y-103831103D01*
X142952687Y-103850598D01*
X142953882Y-103851114D01*
X142992760Y-103865572D01*
X142993697Y-103865879D01*
X143033280Y-103877192D01*
X143033785Y-103877325D01*
X143075386Y-103887385D01*
X143075430Y-103887396D01*
X143120208Y-103898056D01*
X143169334Y-103911160D01*
X143215932Y-103925963D01*
X143223110Y-104293110D01*
X142855963Y-104285932D01*
X142841160Y-104239334D01*
X142828056Y-104190208D01*
X142817396Y-104145430D01*
X142817385Y-104145386D01*
X142807325Y-104103785D01*
X142807192Y-104103280D01*
X142795879Y-104063697D01*
X142795572Y-104062760D01*
X142781114Y-104023882D01*
X142780598Y-104022687D01*
X142761103Y-103983197D01*
X142760422Y-103981989D01*
X142734000Y-103940571D01*
X142733263Y-103939534D01*
X142698021Y-103894872D01*
X142697334Y-103894072D01*
X142659755Y-103853822D01*
X142783822Y-103729755D01*
X142824072Y-103767334D01*
G04 #@! TA.AperFunction,Conductor*
D18*
G36*
X142824072Y-103767334D02*
G01*
X142824872Y-103768021D01*
X142869534Y-103803263D01*
X142870571Y-103804000D01*
X142911989Y-103830422D01*
X142913197Y-103831103D01*
X142952687Y-103850598D01*
X142953882Y-103851114D01*
X142992760Y-103865572D01*
X142993697Y-103865879D01*
X143033280Y-103877192D01*
X143033785Y-103877325D01*
X143075386Y-103887385D01*
X143075430Y-103887396D01*
X143120208Y-103898056D01*
X143169334Y-103911160D01*
X143215932Y-103925963D01*
X143223110Y-104293110D01*
X142855963Y-104285932D01*
X142841160Y-104239334D01*
X142828056Y-104190208D01*
X142817396Y-104145430D01*
X142817385Y-104145386D01*
X142807325Y-104103785D01*
X142807192Y-104103280D01*
X142795879Y-104063697D01*
X142795572Y-104062760D01*
X142781114Y-104023882D01*
X142780598Y-104022687D01*
X142761103Y-103983197D01*
X142760422Y-103981989D01*
X142734000Y-103940571D01*
X142733263Y-103939534D01*
X142698021Y-103894872D01*
X142697334Y-103894072D01*
X142659755Y-103853822D01*
X142783822Y-103729755D01*
X142824072Y-103767334D01*
G37*
G04 #@! TD.AperFunction*
D19*
X143374537Y-107613008D02*
X143352047Y-107656441D01*
X143326588Y-107700422D01*
X143302458Y-107739630D01*
X143302435Y-107739668D01*
X143280131Y-107776199D01*
X143279868Y-107776650D01*
X143259879Y-107812639D01*
X143259434Y-107813519D01*
X143242166Y-107851233D01*
X143241685Y-107852443D01*
X143227546Y-107894152D01*
X143227173Y-107895488D01*
X143216570Y-107943459D01*
X143216358Y-107944713D01*
X143209697Y-108001214D01*
X143209617Y-108002265D01*
X143207728Y-108057300D01*
X143032272Y-108057300D01*
X143030382Y-108002265D01*
X143030302Y-108001214D01*
X143023641Y-107944713D01*
X143023429Y-107943459D01*
X143012826Y-107895488D01*
X143012453Y-107894152D01*
X142998314Y-107852443D01*
X142997833Y-107851233D01*
X142980565Y-107813519D01*
X142980120Y-107812639D01*
X142960131Y-107776650D01*
X142959868Y-107776199D01*
X142937564Y-107739668D01*
X142937541Y-107739630D01*
X142913411Y-107700422D01*
X142887952Y-107656441D01*
X142865463Y-107613008D01*
X143120000Y-107348322D01*
X143374537Y-107613008D01*
G04 #@! TA.AperFunction,Conductor*
D18*
G36*
X143374537Y-107613008D02*
G01*
X143352047Y-107656441D01*
X143326588Y-107700422D01*
X143302458Y-107739630D01*
X143302435Y-107739668D01*
X143280131Y-107776199D01*
X143279868Y-107776650D01*
X143259879Y-107812639D01*
X143259434Y-107813519D01*
X143242166Y-107851233D01*
X143241685Y-107852443D01*
X143227546Y-107894152D01*
X143227173Y-107895488D01*
X143216570Y-107943459D01*
X143216358Y-107944713D01*
X143209697Y-108001214D01*
X143209617Y-108002265D01*
X143207728Y-108057300D01*
X143032272Y-108057300D01*
X143030382Y-108002265D01*
X143030302Y-108001214D01*
X143023641Y-107944713D01*
X143023429Y-107943459D01*
X143012826Y-107895488D01*
X143012453Y-107894152D01*
X142998314Y-107852443D01*
X142997833Y-107851233D01*
X142980565Y-107813519D01*
X142980120Y-107812639D01*
X142960131Y-107776650D01*
X142959868Y-107776199D01*
X142937564Y-107739668D01*
X142937541Y-107739630D01*
X142913411Y-107700422D01*
X142887952Y-107656441D01*
X142865463Y-107613008D01*
X143120000Y-107348322D01*
X143374537Y-107613008D01*
G37*
G04 #@! TD.AperFunction*
D19*
X153110033Y-112417185D02*
X152998758Y-112415903D01*
X152895539Y-112412116D01*
X152805237Y-112406531D01*
X152722961Y-112399748D01*
X152643707Y-112392355D01*
X152643682Y-112392352D01*
X152562545Y-112384952D01*
X152562371Y-112384938D01*
X152474491Y-112378137D01*
X152474224Y-112378119D01*
X152374660Y-112372520D01*
X152374362Y-112372507D01*
X152258171Y-112368707D01*
X152257885Y-112368701D01*
X152132700Y-112367429D01*
X152132700Y-112191785D01*
X152211417Y-112185893D01*
X152213739Y-112185500D01*
X152287242Y-112165915D01*
X152289934Y-112164857D01*
X152348816Y-112133550D01*
X152351349Y-112131777D01*
X152397955Y-112089841D01*
X152399803Y-112087769D01*
X152436478Y-112036294D01*
X152437560Y-112034472D01*
X152466651Y-111974553D01*
X152467196Y-111973250D01*
X152491046Y-111905977D01*
X152491290Y-111905214D01*
X152512247Y-111831680D01*
X152512326Y-111831387D01*
X152532734Y-111752684D01*
X152552587Y-111678676D01*
X153302850Y-111619808D01*
X153110033Y-112417185D01*
G04 #@! TA.AperFunction,Conductor*
D18*
G36*
X153110033Y-112417185D02*
G01*
X152998758Y-112415903D01*
X152895539Y-112412116D01*
X152805237Y-112406531D01*
X152722961Y-112399748D01*
X152643707Y-112392355D01*
X152643682Y-112392352D01*
X152562545Y-112384952D01*
X152562371Y-112384938D01*
X152474491Y-112378137D01*
X152474224Y-112378119D01*
X152374660Y-112372520D01*
X152374362Y-112372507D01*
X152258171Y-112368707D01*
X152257885Y-112368701D01*
X152132700Y-112367429D01*
X152132700Y-112191785D01*
X152211417Y-112185893D01*
X152213739Y-112185500D01*
X152287242Y-112165915D01*
X152289934Y-112164857D01*
X152348816Y-112133550D01*
X152351349Y-112131777D01*
X152397955Y-112089841D01*
X152399803Y-112087769D01*
X152436478Y-112036294D01*
X152437560Y-112034472D01*
X152466651Y-111974553D01*
X152467196Y-111973250D01*
X152491046Y-111905977D01*
X152491290Y-111905214D01*
X152512247Y-111831680D01*
X152512326Y-111831387D01*
X152532734Y-111752684D01*
X152552587Y-111678676D01*
X153302850Y-111619808D01*
X153110033Y-112417185D01*
G37*
G04 #@! TD.AperFunction*
D19*
X155134268Y-110771435D02*
X155134434Y-110772943D01*
X155154171Y-110888738D01*
X155154596Y-110890479D01*
X155185427Y-110986696D01*
X155186118Y-110988412D01*
X155226356Y-111070488D01*
X155227128Y-111071846D01*
X155275087Y-111145218D01*
X155275656Y-111146018D01*
X155329647Y-111216123D01*
X155329826Y-111216350D01*
X155388057Y-111288497D01*
X155448694Y-111367913D01*
X155510133Y-111460059D01*
X155566645Y-111562859D01*
X155045877Y-112111671D01*
X154517841Y-111569854D01*
X154573223Y-111465888D01*
X154633673Y-111372745D01*
X154693531Y-111292508D01*
X154751191Y-111219651D01*
X154751354Y-111219440D01*
X154804938Y-111148724D01*
X154805488Y-111147939D01*
X154853178Y-111074022D01*
X154853932Y-111072682D01*
X154894012Y-110990090D01*
X154894689Y-110988392D01*
X154925441Y-110891654D01*
X154925860Y-110889928D01*
X154945570Y-110773570D01*
X154945733Y-110772072D01*
X154952091Y-110642700D01*
X155127911Y-110642700D01*
X155134268Y-110771435D01*
G04 #@! TA.AperFunction,Conductor*
D18*
G36*
X155134268Y-110771435D02*
G01*
X155134434Y-110772943D01*
X155154171Y-110888738D01*
X155154596Y-110890479D01*
X155185427Y-110986696D01*
X155186118Y-110988412D01*
X155226356Y-111070488D01*
X155227128Y-111071846D01*
X155275087Y-111145218D01*
X155275656Y-111146018D01*
X155329647Y-111216123D01*
X155329826Y-111216350D01*
X155388057Y-111288497D01*
X155448694Y-111367913D01*
X155510133Y-111460059D01*
X155566645Y-111562859D01*
X155045877Y-112111671D01*
X154517841Y-111569854D01*
X154573223Y-111465888D01*
X154633673Y-111372745D01*
X154693531Y-111292508D01*
X154751191Y-111219651D01*
X154751354Y-111219440D01*
X154804938Y-111148724D01*
X154805488Y-111147939D01*
X154853178Y-111074022D01*
X154853932Y-111072682D01*
X154894012Y-110990090D01*
X154894689Y-110988392D01*
X154925441Y-110891654D01*
X154925860Y-110889928D01*
X154945570Y-110773570D01*
X154945733Y-110772072D01*
X154952091Y-110642700D01*
X155127911Y-110642700D01*
X155134268Y-110771435D01*
G37*
G04 #@! TD.AperFunction*
D19*
X133507014Y-106237381D02*
X133379284Y-106379527D01*
X133378268Y-106380816D01*
X133282666Y-106519748D01*
X133281696Y-106521415D01*
X133218537Y-106651943D01*
X133217823Y-106653766D01*
X133179375Y-106779658D01*
X133179004Y-106781218D01*
X133157535Y-106906239D01*
X133157410Y-106907180D01*
X133145188Y-107035097D01*
X133145170Y-107035298D01*
X133134480Y-107169655D01*
X133117639Y-107313936D01*
X133086970Y-107472073D01*
X133037242Y-107639709D01*
X131956250Y-107656374D01*
X131981845Y-106575557D01*
X132149497Y-106527305D01*
X132307627Y-106497897D01*
X132451873Y-106482068D01*
X132586153Y-106472181D01*
X132586367Y-106472163D01*
X132714152Y-106460576D01*
X132715108Y-106460453D01*
X132839950Y-106439489D01*
X132841526Y-106439119D01*
X132967191Y-106401086D01*
X132969027Y-106400371D01*
X133099279Y-106337576D01*
X133100957Y-106336603D01*
X133239560Y-106241354D01*
X133240854Y-106240335D01*
X133382618Y-106112985D01*
X133507014Y-106237381D01*
G04 #@! TA.AperFunction,Conductor*
D18*
G36*
X133507014Y-106237381D02*
G01*
X133379284Y-106379527D01*
X133378268Y-106380816D01*
X133282666Y-106519748D01*
X133281696Y-106521415D01*
X133218537Y-106651943D01*
X133217823Y-106653766D01*
X133179375Y-106779658D01*
X133179004Y-106781218D01*
X133157535Y-106906239D01*
X133157410Y-106907180D01*
X133145188Y-107035097D01*
X133145170Y-107035298D01*
X133134480Y-107169655D01*
X133117639Y-107313936D01*
X133086970Y-107472073D01*
X133037242Y-107639709D01*
X131956250Y-107656374D01*
X131981845Y-106575557D01*
X132149497Y-106527305D01*
X132307627Y-106497897D01*
X132451873Y-106482068D01*
X132586153Y-106472181D01*
X132586367Y-106472163D01*
X132714152Y-106460576D01*
X132715108Y-106460453D01*
X132839950Y-106439489D01*
X132841526Y-106439119D01*
X132967191Y-106401086D01*
X132969027Y-106400371D01*
X133099279Y-106337576D01*
X133100957Y-106336603D01*
X133239560Y-106241354D01*
X133240854Y-106240335D01*
X133382618Y-106112985D01*
X133507014Y-106237381D01*
G37*
G04 #@! TD.AperFunction*
D19*
X157376805Y-112252831D02*
X157311299Y-112329782D01*
X157309995Y-112331623D01*
X157262849Y-112412581D01*
X157261915Y-112414560D01*
X157232587Y-112493715D01*
X157232113Y-112495308D01*
X157214276Y-112573650D01*
X157214121Y-112574445D01*
X157201459Y-112652892D01*
X157187722Y-112731984D01*
X157166744Y-112812456D01*
X157132317Y-112895680D01*
X157078095Y-112983053D01*
X157005910Y-113066234D01*
X156882067Y-112942391D01*
X156951291Y-112853644D01*
X156952622Y-112851540D01*
X156953417Y-112849563D01*
X156980341Y-112761935D01*
X156980835Y-112759495D01*
X156980716Y-112756047D01*
X156966834Y-112675544D01*
X156966173Y-112673144D01*
X156965174Y-112671110D01*
X156918886Y-112594887D01*
X156917285Y-112592781D01*
X156846990Y-112517991D01*
X156846164Y-112517188D01*
X156760262Y-112440987D01*
X156760138Y-112440879D01*
X156667271Y-112360630D01*
X156576064Y-112273746D01*
X156494896Y-112177607D01*
X156436110Y-112076816D01*
X156974446Y-111550698D01*
X157376805Y-112252831D01*
G04 #@! TA.AperFunction,Conductor*
D18*
G36*
X157376805Y-112252831D02*
G01*
X157311299Y-112329782D01*
X157309995Y-112331623D01*
X157262849Y-112412581D01*
X157261915Y-112414560D01*
X157232587Y-112493715D01*
X157232113Y-112495308D01*
X157214276Y-112573650D01*
X157214121Y-112574445D01*
X157201459Y-112652892D01*
X157187722Y-112731984D01*
X157166744Y-112812456D01*
X157132317Y-112895680D01*
X157078095Y-112983053D01*
X157005910Y-113066234D01*
X156882067Y-112942391D01*
X156951291Y-112853644D01*
X156952622Y-112851540D01*
X156953417Y-112849563D01*
X156980341Y-112761935D01*
X156980835Y-112759495D01*
X156980716Y-112756047D01*
X156966834Y-112675544D01*
X156966173Y-112673144D01*
X156965174Y-112671110D01*
X156918886Y-112594887D01*
X156917285Y-112592781D01*
X156846990Y-112517991D01*
X156846164Y-112517188D01*
X156760262Y-112440987D01*
X156760138Y-112440879D01*
X156667271Y-112360630D01*
X156576064Y-112273746D01*
X156494896Y-112177607D01*
X156436110Y-112076816D01*
X156974446Y-111550698D01*
X157376805Y-112252831D01*
G37*
G04 #@! TD.AperFunction*
D19*
X135748253Y-106256194D02*
X135626111Y-106392988D01*
X135625041Y-106394366D01*
X135534781Y-106528759D01*
X135533778Y-106530550D01*
X135475768Y-106657165D01*
X135475061Y-106659114D01*
X135441678Y-106781527D01*
X135441344Y-106783175D01*
X135424963Y-106904961D01*
X135424870Y-106905942D01*
X135417867Y-107030677D01*
X135417857Y-107030882D01*
X135412618Y-107161896D01*
X135401557Y-107302511D01*
X135377124Y-107456408D01*
X135333958Y-107619021D01*
X134253793Y-107663784D01*
X134251282Y-106582701D01*
X134413967Y-106531923D01*
X134568013Y-106501056D01*
X134709002Y-106484863D01*
X134840620Y-106475574D01*
X134840752Y-106475565D01*
X134966365Y-106465387D01*
X134967268Y-106465281D01*
X135090169Y-106446392D01*
X135091737Y-106446048D01*
X135215505Y-106410602D01*
X135217380Y-106409901D01*
X135345592Y-106350055D01*
X135347332Y-106349069D01*
X135483570Y-106256979D01*
X135484923Y-106255925D01*
X135623811Y-106131752D01*
X135748253Y-106256194D01*
G04 #@! TA.AperFunction,Conductor*
D18*
G36*
X135748253Y-106256194D02*
G01*
X135626111Y-106392988D01*
X135625041Y-106394366D01*
X135534781Y-106528759D01*
X135533778Y-106530550D01*
X135475768Y-106657165D01*
X135475061Y-106659114D01*
X135441678Y-106781527D01*
X135441344Y-106783175D01*
X135424963Y-106904961D01*
X135424870Y-106905942D01*
X135417867Y-107030677D01*
X135417857Y-107030882D01*
X135412618Y-107161896D01*
X135401557Y-107302511D01*
X135377124Y-107456408D01*
X135333958Y-107619021D01*
X134253793Y-107663784D01*
X134251282Y-106582701D01*
X134413967Y-106531923D01*
X134568013Y-106501056D01*
X134709002Y-106484863D01*
X134840620Y-106475574D01*
X134840752Y-106475565D01*
X134966365Y-106465387D01*
X134967268Y-106465281D01*
X135090169Y-106446392D01*
X135091737Y-106446048D01*
X135215505Y-106410602D01*
X135217380Y-106409901D01*
X135345592Y-106350055D01*
X135347332Y-106349069D01*
X135483570Y-106256979D01*
X135484923Y-106255925D01*
X135623811Y-106131752D01*
X135748253Y-106256194D01*
G37*
G04 #@! TD.AperFunction*
D19*
X134956678Y-99530000D02*
X134542343Y-99928446D01*
X134467518Y-99888398D01*
X134398121Y-99844182D01*
X134337774Y-99800892D01*
X134282522Y-99759584D01*
X134282245Y-99759382D01*
X134228349Y-99721317D01*
X134227528Y-99720784D01*
X134171130Y-99687143D01*
X134169808Y-99686456D01*
X134106957Y-99658354D01*
X134105342Y-99657760D01*
X134032088Y-99636308D01*
X134030479Y-99635948D01*
X133942871Y-99622261D01*
X133941487Y-99622122D01*
X133847700Y-99617864D01*
X133847700Y-99442136D01*
X133941487Y-99437877D01*
X133942871Y-99437738D01*
X134030479Y-99424051D01*
X134032088Y-99423691D01*
X134105342Y-99402239D01*
X134106957Y-99401645D01*
X134169808Y-99373543D01*
X134171130Y-99372856D01*
X134227528Y-99339215D01*
X134228349Y-99338682D01*
X134282245Y-99300617D01*
X134282522Y-99300415D01*
X134337774Y-99259107D01*
X134398121Y-99215817D01*
X134467517Y-99171601D01*
X134542343Y-99131554D01*
X134956678Y-99530000D01*
G04 #@! TA.AperFunction,Conductor*
D18*
G36*
X134956678Y-99530000D02*
G01*
X134542343Y-99928446D01*
X134467518Y-99888398D01*
X134398121Y-99844182D01*
X134337774Y-99800892D01*
X134282522Y-99759584D01*
X134282245Y-99759382D01*
X134228349Y-99721317D01*
X134227528Y-99720784D01*
X134171130Y-99687143D01*
X134169808Y-99686456D01*
X134106957Y-99658354D01*
X134105342Y-99657760D01*
X134032088Y-99636308D01*
X134030479Y-99635948D01*
X133942871Y-99622261D01*
X133941487Y-99622122D01*
X133847700Y-99617864D01*
X133847700Y-99442136D01*
X133941487Y-99437877D01*
X133942871Y-99437738D01*
X134030479Y-99424051D01*
X134032088Y-99423691D01*
X134105342Y-99402239D01*
X134106957Y-99401645D01*
X134169808Y-99373543D01*
X134171130Y-99372856D01*
X134227528Y-99339215D01*
X134228349Y-99338682D01*
X134282245Y-99300617D01*
X134282522Y-99300415D01*
X134337774Y-99259107D01*
X134398121Y-99215817D01*
X134467517Y-99171601D01*
X134542343Y-99131554D01*
X134956678Y-99530000D01*
G37*
G04 #@! TD.AperFunction*
D19*
X136429378Y-109722583D02*
X136345736Y-109875144D01*
X136255316Y-110007617D01*
X136164891Y-110120668D01*
X136077203Y-110222364D01*
X136077071Y-110222519D01*
X135995026Y-110320812D01*
X135994442Y-110321568D01*
X135921013Y-110424365D01*
X135920159Y-110425736D01*
X135858159Y-110541138D01*
X135857363Y-110542944D01*
X135809598Y-110679053D01*
X135809097Y-110680932D01*
X135778378Y-110845848D01*
X135778181Y-110847491D01*
X135767965Y-111037300D01*
X135592035Y-111037300D01*
X135581818Y-110847491D01*
X135581621Y-110845848D01*
X135550902Y-110680932D01*
X135550401Y-110679053D01*
X135502636Y-110542944D01*
X135501840Y-110541138D01*
X135439840Y-110425736D01*
X135438986Y-110424365D01*
X135365557Y-110321568D01*
X135364973Y-110320812D01*
X135282928Y-110222519D01*
X135282796Y-110222364D01*
X135195108Y-110120668D01*
X135104683Y-110007617D01*
X135014263Y-109875144D01*
X134930622Y-109722583D01*
X135680000Y-108943322D01*
X136429378Y-109722583D01*
G04 #@! TA.AperFunction,Conductor*
D18*
G36*
X136429378Y-109722583D02*
G01*
X136345736Y-109875144D01*
X136255316Y-110007617D01*
X136164891Y-110120668D01*
X136077203Y-110222364D01*
X136077071Y-110222519D01*
X135995026Y-110320812D01*
X135994442Y-110321568D01*
X135921013Y-110424365D01*
X135920159Y-110425736D01*
X135858159Y-110541138D01*
X135857363Y-110542944D01*
X135809598Y-110679053D01*
X135809097Y-110680932D01*
X135778378Y-110845848D01*
X135778181Y-110847491D01*
X135767965Y-111037300D01*
X135592035Y-111037300D01*
X135581818Y-110847491D01*
X135581621Y-110845848D01*
X135550902Y-110680932D01*
X135550401Y-110679053D01*
X135502636Y-110542944D01*
X135501840Y-110541138D01*
X135439840Y-110425736D01*
X135438986Y-110424365D01*
X135365557Y-110321568D01*
X135364973Y-110320812D01*
X135282928Y-110222519D01*
X135282796Y-110222364D01*
X135195108Y-110120668D01*
X135104683Y-110007617D01*
X135014263Y-109875144D01*
X134930622Y-109722583D01*
X135680000Y-108943322D01*
X136429378Y-109722583D01*
G37*
G04 #@! TD.AperFunction*
D19*
X145744052Y-103767318D02*
X145744852Y-103768005D01*
X145789514Y-103803247D01*
X145790551Y-103803984D01*
X145831969Y-103830406D01*
X145833177Y-103831087D01*
X145872667Y-103850582D01*
X145873862Y-103851098D01*
X145912740Y-103865556D01*
X145913677Y-103865863D01*
X145953260Y-103877176D01*
X145953765Y-103877309D01*
X145995366Y-103887369D01*
X145995410Y-103887380D01*
X146040188Y-103898040D01*
X146089314Y-103911144D01*
X146135912Y-103925947D01*
X146143090Y-104293094D01*
X145775943Y-104285916D01*
X145761140Y-104239318D01*
X145748036Y-104190192D01*
X145737376Y-104145414D01*
X145737365Y-104145370D01*
X145727305Y-104103769D01*
X145727172Y-104103264D01*
X145715859Y-104063681D01*
X145715552Y-104062744D01*
X145701094Y-104023866D01*
X145700578Y-104022671D01*
X145681083Y-103983181D01*
X145680402Y-103981973D01*
X145653980Y-103940555D01*
X145653243Y-103939518D01*
X145618001Y-103894856D01*
X145617314Y-103894056D01*
X145579735Y-103853806D01*
X145703802Y-103729739D01*
X145744052Y-103767318D01*
G04 #@! TA.AperFunction,Conductor*
D18*
G36*
X145744052Y-103767318D02*
G01*
X145744852Y-103768005D01*
X145789514Y-103803247D01*
X145790551Y-103803984D01*
X145831969Y-103830406D01*
X145833177Y-103831087D01*
X145872667Y-103850582D01*
X145873862Y-103851098D01*
X145912740Y-103865556D01*
X145913677Y-103865863D01*
X145953260Y-103877176D01*
X145953765Y-103877309D01*
X145995366Y-103887369D01*
X145995410Y-103887380D01*
X146040188Y-103898040D01*
X146089314Y-103911144D01*
X146135912Y-103925947D01*
X146143090Y-104293094D01*
X145775943Y-104285916D01*
X145761140Y-104239318D01*
X145748036Y-104190192D01*
X145737376Y-104145414D01*
X145737365Y-104145370D01*
X145727305Y-104103769D01*
X145727172Y-104103264D01*
X145715859Y-104063681D01*
X145715552Y-104062744D01*
X145701094Y-104023866D01*
X145700578Y-104022671D01*
X145681083Y-103983181D01*
X145680402Y-103981973D01*
X145653980Y-103940555D01*
X145653243Y-103939518D01*
X145618001Y-103894856D01*
X145617314Y-103894056D01*
X145579735Y-103853806D01*
X145703802Y-103729739D01*
X145744052Y-103767318D01*
G37*
G04 #@! TD.AperFunction*
M02*
