G04 #@! TF.GenerationSoftware,KiCad,Pcbnew,(5.1.8-0-10_14)*
G04 #@! TF.CreationDate,2021-09-26T16:35:17-04:00*
G04 #@! TF.ProjectId,8DIN2VGA,3844494e-3256-4474-912e-6b696361645f,1*
G04 #@! TF.SameCoordinates,Original*
G04 #@! TF.FileFunction,Legend,Bot*
G04 #@! TF.FilePolarity,Positive*
%FSLAX46Y46*%
G04 Gerber Fmt 4.6, Leading zero omitted, Abs format (unit mm)*
G04 Created by KiCad (PCBNEW (5.1.8-0-10_14)) date 2021-09-26 16:35:17*
%MOMM*%
%LPD*%
G01*
G04 APERTURE LIST*
%ADD10C,0.127000*%
%ADD11C,0.187500*%
%ADD12C,0.350000*%
%ADD13C,0.150000*%
%ADD14C,0.100000*%
%ADD15C,4.167600*%
%ADD16C,1.801600*%
%ADD17O,1.609600X3.117600*%
G04 APERTURE END LIST*
D10*
X148079857Y-105235571D02*
X147971000Y-105271857D01*
X147934714Y-105308142D01*
X147898428Y-105380714D01*
X147898428Y-105489571D01*
X147934714Y-105562142D01*
X147971000Y-105598428D01*
X148043571Y-105634714D01*
X148333857Y-105634714D01*
X148333857Y-104872714D01*
X148079857Y-104872714D01*
X148007285Y-104909000D01*
X147971000Y-104945285D01*
X147934714Y-105017857D01*
X147934714Y-105090428D01*
X147971000Y-105163000D01*
X148007285Y-105199285D01*
X148079857Y-105235571D01*
X148333857Y-105235571D01*
X147426714Y-104872714D02*
X147281571Y-104872714D01*
X147209000Y-104909000D01*
X147136428Y-104981571D01*
X147100142Y-105126714D01*
X147100142Y-105380714D01*
X147136428Y-105525857D01*
X147209000Y-105598428D01*
X147281571Y-105634714D01*
X147426714Y-105634714D01*
X147499285Y-105598428D01*
X147571857Y-105525857D01*
X147608142Y-105380714D01*
X147608142Y-105126714D01*
X147571857Y-104981571D01*
X147499285Y-104909000D01*
X147426714Y-104872714D01*
X146882428Y-104872714D02*
X146447000Y-104872714D01*
X146664714Y-105634714D02*
X146664714Y-104872714D01*
X146301857Y-104872714D02*
X145866428Y-104872714D01*
X146084142Y-105634714D02*
X146084142Y-104872714D01*
X145467285Y-104872714D02*
X145322142Y-104872714D01*
X145249571Y-104909000D01*
X145177000Y-104981571D01*
X145140714Y-105126714D01*
X145140714Y-105380714D01*
X145177000Y-105525857D01*
X145249571Y-105598428D01*
X145322142Y-105634714D01*
X145467285Y-105634714D01*
X145539857Y-105598428D01*
X145612428Y-105525857D01*
X145648714Y-105380714D01*
X145648714Y-105126714D01*
X145612428Y-104981571D01*
X145539857Y-104909000D01*
X145467285Y-104872714D01*
X144814142Y-105634714D02*
X144814142Y-104872714D01*
X144560142Y-105417000D01*
X144306142Y-104872714D01*
X144306142Y-105634714D01*
D11*
X125485714Y-97809285D02*
X125021428Y-97809285D01*
X125271428Y-98095000D01*
X125164285Y-98095000D01*
X125092857Y-98130714D01*
X125057142Y-98166428D01*
X125021428Y-98237857D01*
X125021428Y-98416428D01*
X125057142Y-98487857D01*
X125092857Y-98523571D01*
X125164285Y-98559285D01*
X125378571Y-98559285D01*
X125450000Y-98523571D01*
X125485714Y-98487857D01*
X124700000Y-98487857D02*
X124664285Y-98523571D01*
X124700000Y-98559285D01*
X124735714Y-98523571D01*
X124700000Y-98487857D01*
X124700000Y-98559285D01*
X123985714Y-97809285D02*
X124342857Y-97809285D01*
X124378571Y-98166428D01*
X124342857Y-98130714D01*
X124271428Y-98095000D01*
X124092857Y-98095000D01*
X124021428Y-98130714D01*
X123985714Y-98166428D01*
X123950000Y-98237857D01*
X123950000Y-98416428D01*
X123985714Y-98487857D01*
X124021428Y-98523571D01*
X124092857Y-98559285D01*
X124271428Y-98559285D01*
X124342857Y-98523571D01*
X124378571Y-98487857D01*
X123628571Y-98559285D02*
X123628571Y-98059285D01*
X123628571Y-98130714D02*
X123592857Y-98095000D01*
X123521428Y-98059285D01*
X123414285Y-98059285D01*
X123342857Y-98095000D01*
X123307142Y-98166428D01*
X123307142Y-98559285D01*
X123307142Y-98166428D02*
X123271428Y-98095000D01*
X123200000Y-98059285D01*
X123092857Y-98059285D01*
X123021428Y-98095000D01*
X122985714Y-98166428D01*
X122985714Y-98559285D01*
X122628571Y-98559285D02*
X122628571Y-98059285D01*
X122628571Y-98130714D02*
X122592857Y-98095000D01*
X122521428Y-98059285D01*
X122414285Y-98059285D01*
X122342857Y-98095000D01*
X122307142Y-98166428D01*
X122307142Y-98559285D01*
X122307142Y-98166428D02*
X122271428Y-98095000D01*
X122200000Y-98059285D01*
X122092857Y-98059285D01*
X122021428Y-98095000D01*
X121985714Y-98166428D01*
X121985714Y-98559285D01*
X127511904Y-112142380D02*
X127178571Y-113142380D01*
X126845238Y-112142380D01*
X125988095Y-112190000D02*
X126083333Y-112142380D01*
X126226190Y-112142380D01*
X126369047Y-112190000D01*
X126464285Y-112285238D01*
X126511904Y-112380476D01*
X126559523Y-112570952D01*
X126559523Y-112713809D01*
X126511904Y-112904285D01*
X126464285Y-112999523D01*
X126369047Y-113094761D01*
X126226190Y-113142380D01*
X126130952Y-113142380D01*
X125988095Y-113094761D01*
X125940476Y-113047142D01*
X125940476Y-112713809D01*
X126130952Y-112713809D01*
X125559523Y-112856666D02*
X125083333Y-112856666D01*
X125654761Y-113142380D02*
X125321428Y-112142380D01*
X124988095Y-113142380D01*
D10*
X119100000Y-105190000D02*
X133100000Y-105190000D01*
X133100000Y-105190000D02*
X133100000Y-96990000D01*
X133100000Y-96990000D02*
X119100000Y-96990000D01*
D12*
X120460000Y-98610000D02*
G75*
G03*
X120460000Y-98610000I-150000J0D01*
G01*
D13*
X126988095Y-111302380D02*
X126988095Y-110302380D01*
X126607142Y-110302380D01*
X126511904Y-110350000D01*
X126464285Y-110397619D01*
X126416666Y-110492857D01*
X126416666Y-110635714D01*
X126464285Y-110730952D01*
X126511904Y-110778571D01*
X126607142Y-110826190D01*
X126988095Y-110826190D01*
X126035714Y-110397619D02*
X125988095Y-110350000D01*
X125892857Y-110302380D01*
X125654761Y-110302380D01*
X125559523Y-110350000D01*
X125511904Y-110397619D01*
X125464285Y-110492857D01*
X125464285Y-110588095D01*
X125511904Y-110730952D01*
X126083333Y-111302380D01*
X125464285Y-111302380D01*
X129949077Y-98672983D02*
X129949077Y-97671652D01*
X129567618Y-97671652D01*
X129472253Y-97719334D01*
X129424570Y-97767016D01*
X129376888Y-97862381D01*
X129376888Y-98005429D01*
X129424570Y-98100793D01*
X129472253Y-98148476D01*
X129567618Y-98196158D01*
X129949077Y-98196158D01*
X129043111Y-97671652D02*
X128423239Y-97671652D01*
X128757016Y-98053111D01*
X128613969Y-98053111D01*
X128518604Y-98100793D01*
X128470922Y-98148476D01*
X128423239Y-98243841D01*
X128423239Y-98482253D01*
X128470922Y-98577618D01*
X128518604Y-98625300D01*
X128613969Y-98672983D01*
X128900064Y-98672983D01*
X128995429Y-98625300D01*
X129043111Y-98577618D01*
%LPC*%
D14*
G36*
X150610000Y-106950000D02*
G01*
X149630000Y-106950000D01*
X149030000Y-106350000D01*
X149030000Y-96640000D01*
X150610000Y-96640000D01*
X150610000Y-106950000D01*
G37*
X150610000Y-106950000D02*
X149630000Y-106950000D01*
X149030000Y-106350000D01*
X149030000Y-96640000D01*
X150610000Y-96640000D01*
X150610000Y-106950000D01*
G36*
G01*
X150791900Y-106449200D02*
X152568100Y-106449200D01*
G75*
G02*
X152730800Y-106611900I0J-162700D01*
G01*
X152730800Y-107588100D01*
G75*
G02*
X152568100Y-107750800I-162700J0D01*
G01*
X150791900Y-107750800D01*
G75*
G02*
X150629200Y-107588100I0J162700D01*
G01*
X150629200Y-106611900D01*
G75*
G02*
X150791900Y-106449200I162700J0D01*
G01*
G37*
G36*
G01*
X157481900Y-109849200D02*
X159258100Y-109849200D01*
G75*
G02*
X159420800Y-110011900I0J-162700D01*
G01*
X159420800Y-110988100D01*
G75*
G02*
X159258100Y-111150800I-162700J0D01*
G01*
X157481900Y-111150800D01*
G75*
G02*
X157319200Y-110988100I0J162700D01*
G01*
X157319200Y-110011900D01*
G75*
G02*
X157481900Y-109849200I162700J0D01*
G01*
G37*
G36*
G01*
X150831900Y-109849200D02*
X152608100Y-109849200D01*
G75*
G02*
X152770800Y-110011900I0J-162700D01*
G01*
X152770800Y-110988100D01*
G75*
G02*
X152608100Y-111150800I-162700J0D01*
G01*
X150831900Y-111150800D01*
G75*
G02*
X150669200Y-110988100I0J162700D01*
G01*
X150669200Y-110011900D01*
G75*
G02*
X150831900Y-109849200I162700J0D01*
G01*
G37*
G36*
G01*
X156600800Y-110941900D02*
X156600800Y-112718100D01*
G75*
G02*
X156438100Y-112880800I-162700J0D01*
G01*
X155461900Y-112880800D01*
G75*
G02*
X155299200Y-112718100I0J162700D01*
G01*
X155299200Y-110941900D01*
G75*
G02*
X155461900Y-110779200I162700J0D01*
G01*
X156438100Y-110779200D01*
G75*
G02*
X156600800Y-110941900I0J-162700D01*
G01*
G37*
G36*
G01*
X154780800Y-110941900D02*
X154780800Y-112718100D01*
G75*
G02*
X154618100Y-112880800I-162700J0D01*
G01*
X153641900Y-112880800D01*
G75*
G02*
X153479200Y-112718100I0J162700D01*
G01*
X153479200Y-110941900D01*
G75*
G02*
X153641900Y-110779200I162700J0D01*
G01*
X154618100Y-110779200D01*
G75*
G02*
X154780800Y-110941900I0J-162700D01*
G01*
G37*
G36*
G01*
X129054200Y-108220000D02*
X129054200Y-106520000D01*
G75*
G02*
X129105000Y-106469200I50800J0D01*
G01*
X130805000Y-106469200D01*
G75*
G02*
X130855800Y-106520000I0J-50800D01*
G01*
X130855800Y-108220000D01*
G75*
G02*
X130805000Y-108270800I-50800J0D01*
G01*
X129105000Y-108270800D01*
G75*
G02*
X129054200Y-108220000I0J50800D01*
G01*
G37*
D15*
X122040000Y-109350000D03*
X147030000Y-109350000D03*
D16*
X132245000Y-107370000D03*
X134535000Y-107370000D03*
X136825000Y-107370000D03*
X139115000Y-107370000D03*
X128810000Y-109350000D03*
X131100000Y-109350000D03*
X133390000Y-109350000D03*
X135680000Y-109350000D03*
X137970000Y-109350000D03*
X129955000Y-111330000D03*
X132245000Y-111330000D03*
X134535000Y-111330000D03*
X136825000Y-111330000D03*
X139115000Y-111330000D03*
D17*
X120300000Y-100890000D03*
X122700000Y-102890000D03*
X126400000Y-100890000D03*
X128200000Y-102890000D03*
X131900000Y-100890000D03*
M02*
