G04 #@! TF.GenerationSoftware,KiCad,Pcbnew,(5.1.8-0-10_14)*
G04 #@! TF.CreationDate,2021-09-26T16:35:17-04:00*
G04 #@! TF.ProjectId,8DIN2VGA,3844494e-3256-4474-912e-6b696361645f,1*
G04 #@! TF.SameCoordinates,Original*
G04 #@! TF.FileFunction,Copper,L1,Top*
G04 #@! TF.FilePolarity,Positive*
%FSLAX46Y46*%
G04 Gerber Fmt 4.6, Leading zero omitted, Abs format (unit mm)*
G04 Created by KiCad (PCBNEW (5.1.8-0-10_14)) date 2021-09-26 16:35:17*
%MOMM*%
%LPD*%
G01*
G04 APERTURE LIST*
G04 #@! TA.AperFunction,SMDPad,CuDef*
%ADD10R,0.920000X0.970000*%
G04 #@! TD*
G04 #@! TA.AperFunction,ComponentPad*
%ADD11R,1.700000X1.700000*%
G04 #@! TD*
G04 #@! TA.AperFunction,ComponentPad*
%ADD12C,4.066000*%
G04 #@! TD*
G04 #@! TA.AperFunction,ComponentPad*
%ADD13C,1.700000*%
G04 #@! TD*
G04 #@! TA.AperFunction,ComponentPad*
%ADD14O,1.508000X3.016000*%
G04 #@! TD*
G04 #@! TA.AperFunction,ViaPad*
%ADD15C,0.600000*%
G04 #@! TD*
G04 #@! TA.AperFunction,Conductor*
%ADD16C,0.200000*%
G04 #@! TD*
G04 #@! TA.AperFunction,Conductor*
%ADD17C,0.152400*%
G04 #@! TD*
G04 #@! TA.AperFunction,Conductor*
%ADD18C,0.025400*%
G04 #@! TD*
G04 APERTURE END LIST*
D10*
X134745000Y-99530000D03*
X136295000Y-99530000D03*
X138145000Y-98120000D03*
X139695000Y-98120000D03*
G04 #@! TA.AperFunction,SMDPad,CuDef*
G36*
G01*
X150830000Y-106500000D02*
X152530000Y-106500000D01*
G75*
G02*
X152680000Y-106650000I0J-150000D01*
G01*
X152680000Y-107550000D01*
G75*
G02*
X152530000Y-107700000I-150000J0D01*
G01*
X150830000Y-107700000D01*
G75*
G02*
X150680000Y-107550000I0J150000D01*
G01*
X150680000Y-106650000D01*
G75*
G02*
X150830000Y-106500000I150000J0D01*
G01*
G37*
G04 #@! TD.AperFunction*
G04 #@! TA.AperFunction,SMDPad,CuDef*
G36*
G01*
X157568000Y-110980000D02*
X157568000Y-112680000D01*
G75*
G02*
X157418000Y-112830000I-150000J0D01*
G01*
X156518000Y-112830000D01*
G75*
G02*
X156368000Y-112680000I0J150000D01*
G01*
X156368000Y-110980000D01*
G75*
G02*
X156518000Y-110830000I150000J0D01*
G01*
X157418000Y-110830000D01*
G75*
G02*
X157568000Y-110980000I0J-150000D01*
G01*
G37*
G04 #@! TD.AperFunction*
G04 #@! TA.AperFunction,SMDPad,CuDef*
G36*
G01*
X155644000Y-110980000D02*
X155644000Y-112680000D01*
G75*
G02*
X155494000Y-112830000I-150000J0D01*
G01*
X154594000Y-112830000D01*
G75*
G02*
X154444000Y-112680000I0J150000D01*
G01*
X154444000Y-110980000D01*
G75*
G02*
X154594000Y-110830000I150000J0D01*
G01*
X155494000Y-110830000D01*
G75*
G02*
X155644000Y-110980000I0J-150000D01*
G01*
G37*
G04 #@! TD.AperFunction*
G04 #@! TA.AperFunction,SMDPad,CuDef*
G36*
G01*
X153720000Y-110980000D02*
X153720000Y-112680000D01*
G75*
G02*
X153570000Y-112830000I-150000J0D01*
G01*
X152670000Y-112830000D01*
G75*
G02*
X152520000Y-112680000I0J150000D01*
G01*
X152520000Y-110980000D01*
G75*
G02*
X152670000Y-110830000I150000J0D01*
G01*
X153570000Y-110830000D01*
G75*
G02*
X153720000Y-110980000I0J-150000D01*
G01*
G37*
G04 #@! TD.AperFunction*
D11*
X129955000Y-107370000D03*
D12*
X122040000Y-109350000D03*
X147030000Y-109350000D03*
D13*
X132245000Y-107370000D03*
X134535000Y-107370000D03*
X136825000Y-107370000D03*
X139115000Y-107370000D03*
X128810000Y-109350000D03*
X131100000Y-109350000D03*
X133390000Y-109350000D03*
X135680000Y-109350000D03*
X137970000Y-109350000D03*
X129955000Y-111330000D03*
X132245000Y-111330000D03*
X134535000Y-111330000D03*
X136825000Y-111330000D03*
X139115000Y-111330000D03*
D14*
X120300000Y-100890000D03*
X122700000Y-102890000D03*
X126400000Y-100890000D03*
X128200000Y-102890000D03*
X131900000Y-100890000D03*
D15*
X137830000Y-99839998D03*
X139680000Y-99830000D03*
X143130000Y-104200000D03*
X143120000Y-107480000D03*
X136670000Y-103150000D03*
X138470000Y-104540000D03*
X137760000Y-112820000D03*
X133360000Y-112610000D03*
X153460000Y-99440000D03*
X156730000Y-99440000D03*
X153840000Y-109870000D03*
X143260000Y-111810000D03*
X153460000Y-107080000D03*
X156730000Y-107090000D03*
X146049980Y-104199984D03*
D16*
X137520002Y-99530000D02*
X137830000Y-99839998D01*
X136295000Y-99530000D02*
X137520002Y-99530000D01*
X139680000Y-99830000D02*
X139680000Y-98390000D01*
X128260000Y-98150000D02*
X137960000Y-98150000D01*
X126400000Y-100010000D02*
X128260000Y-98150000D01*
X137960000Y-98150000D02*
X138110000Y-98300000D01*
X126400000Y-100890000D02*
X126400000Y-100010000D01*
X129640000Y-107340000D02*
X134510000Y-102470000D01*
X134510000Y-102470000D02*
X141400000Y-102470000D01*
X141400000Y-102470000D02*
X143130000Y-104200000D01*
X143120000Y-109750000D02*
X143120000Y-107480000D01*
X145650000Y-112280000D02*
X143120000Y-109750000D01*
X152790000Y-112280000D02*
X145650000Y-112280000D01*
X153140000Y-111930000D02*
X152790000Y-112280000D01*
X155040000Y-109490000D02*
X155040000Y-111740000D01*
X154460000Y-108910000D02*
X155040000Y-109490000D01*
X150740000Y-108910000D02*
X154460000Y-108910000D01*
X142591196Y-105920000D02*
X147750000Y-105920000D01*
X140521196Y-103850000D02*
X142591196Y-105920000D01*
X135770000Y-103850000D02*
X140521196Y-103850000D01*
X147750000Y-105920000D02*
X150740000Y-108910000D01*
X132280000Y-107340000D02*
X135770000Y-103850000D01*
X132020000Y-107340000D02*
X132280000Y-107340000D01*
X156950000Y-113000000D02*
X156950000Y-111820000D01*
X151900000Y-113630000D02*
X156320000Y-113630000D01*
X151430000Y-113160000D02*
X151900000Y-113630000D01*
X141070000Y-106610000D02*
X141070000Y-111790000D01*
X156320000Y-113630000D02*
X156950000Y-113000000D01*
X141070000Y-111790000D02*
X142440000Y-113160000D01*
X139690000Y-105230000D02*
X141070000Y-106610000D01*
X136650000Y-105230000D02*
X139690000Y-105230000D01*
X142440000Y-113160000D02*
X151430000Y-113160000D01*
X134500000Y-107380000D02*
X136650000Y-105230000D01*
X134280000Y-107380000D02*
X134500000Y-107380000D01*
X132220000Y-99820000D02*
X132220000Y-99830000D01*
X132510000Y-99530000D02*
X132220000Y-99820000D01*
X134745000Y-99530000D02*
X132510000Y-99530000D01*
X134580000Y-101090000D02*
X142939996Y-101090000D01*
X135680000Y-112130000D02*
X134590000Y-113220000D01*
X135395001Y-109395001D02*
X135680000Y-109680000D01*
X135680000Y-109680000D02*
X135680000Y-112130000D01*
X130260000Y-105410000D02*
X134580000Y-101090000D01*
X127870000Y-105410000D02*
X130260000Y-105410000D01*
X127830000Y-113220000D02*
X126370000Y-111760000D01*
X126370000Y-111760000D02*
X126370000Y-106910000D01*
X126370000Y-106910000D02*
X127870000Y-105410000D01*
X134590000Y-113220000D02*
X127830000Y-113220000D01*
X142939996Y-101090000D02*
X146049980Y-104199984D01*
X149760001Y-107233289D02*
X149758355Y-107250000D01*
X149764920Y-107316652D01*
X149784361Y-107380742D01*
X149809711Y-107428168D01*
X148039321Y-105657778D01*
X148027106Y-105642894D01*
X147967721Y-105594158D01*
X147899969Y-105557944D01*
X147826453Y-105535643D01*
X147769159Y-105530000D01*
X147750000Y-105528113D01*
X147730841Y-105530000D01*
X142752740Y-105530000D01*
X140810517Y-103587778D01*
X140798302Y-103572894D01*
X140738917Y-103524158D01*
X140671165Y-103487944D01*
X140597649Y-103465643D01*
X140540355Y-103460000D01*
X140521196Y-103458113D01*
X140502037Y-103460000D01*
X135789148Y-103460000D01*
X135769999Y-103458114D01*
X135750850Y-103460000D01*
X135750841Y-103460000D01*
X135693547Y-103465643D01*
X135620031Y-103487944D01*
X135552279Y-103524158D01*
X135492894Y-103572894D01*
X135480679Y-103587778D01*
X133183513Y-105884944D01*
X133052589Y-106002556D01*
X132947821Y-106074553D01*
X132857901Y-106117904D01*
X132771566Y-106144033D01*
X132675839Y-106160108D01*
X132561471Y-106170479D01*
X132429435Y-106180200D01*
X132419095Y-106181148D01*
X132274132Y-106197056D01*
X132252742Y-106200214D01*
X132093544Y-106229821D01*
X132066360Y-106236245D01*
X131988122Y-106258763D01*
X131912474Y-106273810D01*
X131705007Y-106359745D01*
X131518292Y-106484504D01*
X131359504Y-106643292D01*
X131234745Y-106830007D01*
X131148810Y-107037474D01*
X131105000Y-107257720D01*
X131105000Y-107482280D01*
X131148810Y-107702526D01*
X131234745Y-107909993D01*
X131359504Y-108096708D01*
X131518292Y-108255496D01*
X131705007Y-108380255D01*
X131912474Y-108466190D01*
X132132720Y-108510000D01*
X132357280Y-108510000D01*
X132577526Y-108466190D01*
X132784993Y-108380255D01*
X132971708Y-108255496D01*
X133130496Y-108096708D01*
X133255255Y-107909993D01*
X133341190Y-107702526D01*
X133355119Y-107632499D01*
X133377346Y-107557573D01*
X133384017Y-107530309D01*
X133395000Y-107473676D01*
X133395000Y-107482280D01*
X133438810Y-107702526D01*
X133524745Y-107909993D01*
X133649504Y-108096708D01*
X133808292Y-108255496D01*
X133995007Y-108380255D01*
X134202474Y-108466190D01*
X134422720Y-108510000D01*
X134647280Y-108510000D01*
X134867526Y-108466190D01*
X135074993Y-108380255D01*
X135261708Y-108255496D01*
X135420496Y-108096708D01*
X135545255Y-107909993D01*
X135631190Y-107702526D01*
X135649771Y-107609115D01*
X135669858Y-107533443D01*
X135675978Y-107504512D01*
X135685000Y-107447686D01*
X135685000Y-107482280D01*
X135728810Y-107702526D01*
X135814745Y-107909993D01*
X135939504Y-108096708D01*
X136098292Y-108255496D01*
X136285007Y-108380255D01*
X136492474Y-108466190D01*
X136712720Y-108510000D01*
X136937280Y-108510000D01*
X137157526Y-108466190D01*
X137364993Y-108380255D01*
X137551708Y-108255496D01*
X137710496Y-108096708D01*
X137835255Y-107909993D01*
X137921190Y-107702526D01*
X137965000Y-107482280D01*
X137965000Y-107257720D01*
X137921190Y-107037474D01*
X137835255Y-106830007D01*
X137710496Y-106643292D01*
X137551708Y-106484504D01*
X137364993Y-106359745D01*
X137157526Y-106273810D01*
X136937280Y-106230000D01*
X136712720Y-106230000D01*
X136492474Y-106273810D01*
X136285007Y-106359745D01*
X136098292Y-106484504D01*
X135939504Y-106643292D01*
X135814745Y-106830007D01*
X135728810Y-107037474D01*
X135718453Y-107089541D01*
X135720221Y-107045334D01*
X135726463Y-106934157D01*
X135738778Y-106842599D01*
X135760850Y-106761660D01*
X135799176Y-106678009D01*
X135865198Y-106579705D01*
X135976577Y-106454966D01*
X136811543Y-105620000D01*
X139528457Y-105620000D01*
X140680000Y-106771543D01*
X140680001Y-111770831D01*
X140678113Y-111790000D01*
X140685643Y-111866453D01*
X140707944Y-111939968D01*
X140744159Y-112007721D01*
X140780681Y-112052224D01*
X140780685Y-112052228D01*
X140792895Y-112067106D01*
X140807773Y-112079316D01*
X142150679Y-113422222D01*
X142162894Y-113437106D01*
X142222279Y-113485842D01*
X142290031Y-113522056D01*
X142363547Y-113544357D01*
X142440000Y-113551887D01*
X142459159Y-113550000D01*
X151268457Y-113550000D01*
X151610679Y-113892222D01*
X151622894Y-113907106D01*
X151682279Y-113955842D01*
X151750031Y-113992056D01*
X151823547Y-114014357D01*
X151880841Y-114020000D01*
X151880850Y-114020000D01*
X151899999Y-114021886D01*
X151919148Y-114020000D01*
X156300841Y-114020000D01*
X156320000Y-114021887D01*
X156396453Y-114014357D01*
X156396456Y-114014356D01*
X156469969Y-113992056D01*
X156537721Y-113955842D01*
X156597106Y-113907106D01*
X156609321Y-113892222D01*
X157212223Y-113289320D01*
X157227106Y-113277106D01*
X157275842Y-113217721D01*
X157276815Y-113215900D01*
X157307377Y-113180683D01*
X157334757Y-113143529D01*
X157348488Y-113121403D01*
X157418000Y-113121403D01*
X157504113Y-113112922D01*
X157586918Y-113087803D01*
X157663230Y-113047013D01*
X157730119Y-112992119D01*
X157785013Y-112925230D01*
X157825803Y-112848918D01*
X157850922Y-112766113D01*
X157859403Y-112680000D01*
X157859403Y-110980000D01*
X157850922Y-110893887D01*
X157825803Y-110811082D01*
X157785013Y-110734770D01*
X157730119Y-110667881D01*
X157663230Y-110612987D01*
X157586918Y-110572197D01*
X157504113Y-110547078D01*
X157418000Y-110538597D01*
X156518000Y-110538597D01*
X156431887Y-110547078D01*
X156349082Y-110572197D01*
X156272770Y-110612987D01*
X156205881Y-110667881D01*
X156150987Y-110734770D01*
X156110197Y-110811082D01*
X156085078Y-110893887D01*
X156076597Y-110980000D01*
X156076597Y-112680000D01*
X156085078Y-112766113D01*
X156110197Y-112848918D01*
X156150987Y-112925230D01*
X156205881Y-112992119D01*
X156272770Y-113047013D01*
X156324040Y-113074417D01*
X156158457Y-113240000D01*
X152061543Y-113240000D01*
X151719319Y-112897776D01*
X151707106Y-112882894D01*
X151647721Y-112834158D01*
X151579969Y-112797944D01*
X151506453Y-112775643D01*
X151449159Y-112770000D01*
X151430000Y-112768113D01*
X151410841Y-112770000D01*
X142601543Y-112770000D01*
X141460000Y-111628457D01*
X141460000Y-107421890D01*
X142530000Y-107421890D01*
X142530000Y-107538110D01*
X142552673Y-107652097D01*
X142597149Y-107759470D01*
X142611718Y-107781275D01*
X142619279Y-107795876D01*
X142625819Y-107807812D01*
X142651530Y-107852229D01*
X142655538Y-107858942D01*
X142679428Y-107897760D01*
X142698412Y-107928854D01*
X142710032Y-107949774D01*
X142716416Y-107963718D01*
X142720681Y-107976299D01*
X142724726Y-107994601D01*
X142728273Y-108024687D01*
X142730001Y-108074995D01*
X142730000Y-109730841D01*
X142728113Y-109750000D01*
X142730000Y-109769158D01*
X142735643Y-109826452D01*
X142757944Y-109899968D01*
X142794158Y-109967720D01*
X142842894Y-110027106D01*
X142857778Y-110039321D01*
X145360679Y-112542222D01*
X145372894Y-112557106D01*
X145432279Y-112605842D01*
X145500031Y-112642056D01*
X145573547Y-112664357D01*
X145630841Y-112670000D01*
X145630850Y-112670000D01*
X145649999Y-112671886D01*
X145669148Y-112670000D01*
X152118529Y-112670000D01*
X152228597Y-112671119D01*
X152228597Y-112680000D01*
X152237078Y-112766113D01*
X152262197Y-112848918D01*
X152302987Y-112925230D01*
X152357881Y-112992119D01*
X152424770Y-113047013D01*
X152501082Y-113087803D01*
X152583887Y-113112922D01*
X152670000Y-113121403D01*
X153570000Y-113121403D01*
X153656113Y-113112922D01*
X153738918Y-113087803D01*
X153815230Y-113047013D01*
X153882119Y-112992119D01*
X153937013Y-112925230D01*
X153977803Y-112848918D01*
X154002922Y-112766113D01*
X154011403Y-112680000D01*
X154011403Y-110980000D01*
X154002922Y-110893887D01*
X153977803Y-110811082D01*
X153937013Y-110734770D01*
X153882119Y-110667881D01*
X153815230Y-110612987D01*
X153738918Y-110572197D01*
X153656113Y-110547078D01*
X153570000Y-110538597D01*
X152670000Y-110538597D01*
X152583887Y-110547078D01*
X152501082Y-110572197D01*
X152424770Y-110612987D01*
X152357881Y-110667881D01*
X152302987Y-110734770D01*
X152262197Y-110811082D01*
X152237078Y-110893887D01*
X152228597Y-110980000D01*
X152228597Y-111719620D01*
X152220190Y-111752042D01*
X152202687Y-111813454D01*
X152187293Y-111856878D01*
X152175861Y-111880424D01*
X152174183Y-111882778D01*
X152161896Y-111886053D01*
X152109162Y-111890000D01*
X147083422Y-111890000D01*
X147526626Y-111846335D01*
X148004094Y-111701481D01*
X148444007Y-111466344D01*
X148669207Y-111130629D01*
X147030000Y-109491421D01*
X145390793Y-111130629D01*
X145615993Y-111466344D01*
X146056040Y-111701538D01*
X146533517Y-111846363D01*
X146976693Y-111890000D01*
X145811543Y-111890000D01*
X143510000Y-109588457D01*
X143510000Y-109350073D01*
X144484744Y-109350073D01*
X144533665Y-109846626D01*
X144678519Y-110324094D01*
X144913656Y-110764007D01*
X145249371Y-110989207D01*
X146888579Y-109350000D01*
X145249371Y-107710793D01*
X144913656Y-107935993D01*
X144678462Y-108376040D01*
X144533637Y-108853517D01*
X144484744Y-109350073D01*
X143510000Y-109350073D01*
X143510000Y-108074967D01*
X143511726Y-108024687D01*
X143515273Y-107994601D01*
X143519318Y-107976299D01*
X143523583Y-107963718D01*
X143529967Y-107949774D01*
X143541587Y-107928854D01*
X143560571Y-107897760D01*
X143584461Y-107858942D01*
X143588469Y-107852229D01*
X143614180Y-107807812D01*
X143620718Y-107795880D01*
X143628279Y-107781279D01*
X143642851Y-107759470D01*
X143687327Y-107652097D01*
X143710000Y-107538110D01*
X143710000Y-107421890D01*
X143687327Y-107307903D01*
X143642851Y-107200530D01*
X143578283Y-107103897D01*
X143496103Y-107021717D01*
X143399470Y-106957149D01*
X143292097Y-106912673D01*
X143178110Y-106890000D01*
X143061890Y-106890000D01*
X142947903Y-106912673D01*
X142840530Y-106957149D01*
X142743897Y-107021717D01*
X142661717Y-107103897D01*
X142597149Y-107200530D01*
X142552673Y-107307903D01*
X142530000Y-107421890D01*
X141460000Y-107421890D01*
X141460000Y-106629159D01*
X141461887Y-106610000D01*
X141454357Y-106533547D01*
X141451959Y-106525643D01*
X141432056Y-106460031D01*
X141395842Y-106392279D01*
X141347106Y-106332894D01*
X141332223Y-106320680D01*
X139979321Y-104967778D01*
X139967106Y-104952894D01*
X139907721Y-104904158D01*
X139839969Y-104867944D01*
X139766453Y-104845643D01*
X139709159Y-104840000D01*
X139690000Y-104838113D01*
X139670841Y-104840000D01*
X136669148Y-104840000D01*
X136649999Y-104838114D01*
X136630850Y-104840000D01*
X136630841Y-104840000D01*
X136573547Y-104845643D01*
X136500031Y-104867944D01*
X136432279Y-104904158D01*
X136372894Y-104952894D01*
X136360679Y-104967778D01*
X135424971Y-105903486D01*
X135297796Y-106017186D01*
X135196798Y-106085456D01*
X135110124Y-106125913D01*
X135026042Y-106149994D01*
X134931567Y-106164514D01*
X134817822Y-106173730D01*
X134687405Y-106182934D01*
X134674729Y-106184109D01*
X134532952Y-106200393D01*
X134509068Y-106204151D01*
X134353841Y-106235254D01*
X134324410Y-106242774D01*
X134264513Y-106261470D01*
X134202474Y-106273810D01*
X133995007Y-106359745D01*
X133808292Y-106484504D01*
X133649504Y-106643292D01*
X133524745Y-106830007D01*
X133452106Y-107005375D01*
X133457705Y-106946771D01*
X133474231Y-106850534D01*
X133500777Y-106763612D01*
X133544553Y-106673144D01*
X133616989Y-106567878D01*
X133735040Y-106436503D01*
X135931543Y-104240000D01*
X140359653Y-104240000D01*
X142301880Y-106182228D01*
X142314090Y-106197106D01*
X142328968Y-106209316D01*
X142328971Y-106209319D01*
X142329649Y-106209875D01*
X142373475Y-106245842D01*
X142422932Y-106272277D01*
X142441227Y-106282056D01*
X142514742Y-106304357D01*
X142591195Y-106311887D01*
X142610354Y-106310000D01*
X147588457Y-106310000D01*
X148758516Y-107480059D01*
X148669206Y-107569369D01*
X148444007Y-107233656D01*
X148003960Y-106998462D01*
X147526483Y-106853637D01*
X147029927Y-106804744D01*
X146533374Y-106853665D01*
X146055906Y-106998519D01*
X145615993Y-107233656D01*
X145390793Y-107569371D01*
X147030000Y-109208579D01*
X147044142Y-109194436D01*
X147185564Y-109335858D01*
X147171421Y-109350000D01*
X148810629Y-110989207D01*
X149146344Y-110764007D01*
X149381538Y-110323960D01*
X149526363Y-109846483D01*
X149575256Y-109349927D01*
X149526335Y-108853374D01*
X149381481Y-108375906D01*
X149146344Y-107935993D01*
X148810631Y-107710794D01*
X148899941Y-107621484D01*
X150450679Y-109172222D01*
X150462894Y-109187106D01*
X150522279Y-109235842D01*
X150590031Y-109272056D01*
X150663547Y-109294357D01*
X150740000Y-109301887D01*
X150759159Y-109300000D01*
X154298457Y-109300000D01*
X154650000Y-109651544D01*
X154650000Y-110538597D01*
X154594000Y-110538597D01*
X154507887Y-110547078D01*
X154425082Y-110572197D01*
X154348770Y-110612987D01*
X154281881Y-110667881D01*
X154226987Y-110734770D01*
X154186197Y-110811082D01*
X154161078Y-110893887D01*
X154152597Y-110980000D01*
X154152597Y-112680000D01*
X154161078Y-112766113D01*
X154186197Y-112848918D01*
X154226987Y-112925230D01*
X154281881Y-112992119D01*
X154348770Y-113047013D01*
X154425082Y-113087803D01*
X154507887Y-113112922D01*
X154594000Y-113121403D01*
X155494000Y-113121403D01*
X155580113Y-113112922D01*
X155662918Y-113087803D01*
X155739230Y-113047013D01*
X155806119Y-112992119D01*
X155861013Y-112925230D01*
X155901803Y-112848918D01*
X155926922Y-112766113D01*
X155935403Y-112680000D01*
X155935403Y-110980000D01*
X155926922Y-110893887D01*
X155901803Y-110811082D01*
X155861013Y-110734770D01*
X155806119Y-110667881D01*
X155739230Y-110612987D01*
X155662918Y-110572197D01*
X155580113Y-110547078D01*
X155494000Y-110538597D01*
X155430000Y-110538597D01*
X155430000Y-109509159D01*
X155431887Y-109490000D01*
X155424357Y-109413547D01*
X155402056Y-109340031D01*
X155390250Y-109317944D01*
X155365842Y-109272279D01*
X155317106Y-109212894D01*
X155302229Y-109200685D01*
X154749319Y-108647776D01*
X154737106Y-108632894D01*
X154677721Y-108584158D01*
X154609969Y-108547944D01*
X154536453Y-108525643D01*
X154479159Y-108520000D01*
X154460000Y-108518113D01*
X154440841Y-108520000D01*
X150901543Y-108520000D01*
X149921832Y-107540289D01*
X149969258Y-107565639D01*
X150033348Y-107585080D01*
X150083299Y-107590000D01*
X150100000Y-107591645D01*
X150116701Y-107590000D01*
X151163299Y-107590000D01*
X151180000Y-107591645D01*
X151196701Y-107590000D01*
X151246652Y-107585080D01*
X151310742Y-107565639D01*
X151369808Y-107534067D01*
X151421579Y-107491579D01*
X151464067Y-107439808D01*
X151495639Y-107380742D01*
X151515080Y-107316652D01*
X151521645Y-107250000D01*
X151520000Y-107233299D01*
X151520000Y-98340000D01*
X158540000Y-98340000D01*
X158540001Y-112299166D01*
X156719169Y-114120000D01*
X119390000Y-114120000D01*
X119390000Y-111130629D01*
X120400793Y-111130629D01*
X120625993Y-111466344D01*
X121066040Y-111701538D01*
X121543517Y-111846363D01*
X122040073Y-111895256D01*
X122536626Y-111846335D01*
X123014094Y-111701481D01*
X123454007Y-111466344D01*
X123679207Y-111130629D01*
X122040000Y-109491421D01*
X120400793Y-111130629D01*
X119390000Y-111130629D01*
X119390000Y-109350073D01*
X119494744Y-109350073D01*
X119543665Y-109846626D01*
X119688519Y-110324094D01*
X119923656Y-110764007D01*
X120259371Y-110989207D01*
X121898579Y-109350000D01*
X122181421Y-109350000D01*
X123820629Y-110989207D01*
X124156344Y-110764007D01*
X124391538Y-110323960D01*
X124536363Y-109846483D01*
X124585256Y-109349927D01*
X124536335Y-108853374D01*
X124391481Y-108375906D01*
X124156344Y-107935993D01*
X123820629Y-107710793D01*
X122181421Y-109350000D01*
X121898579Y-109350000D01*
X120259371Y-107710793D01*
X119923656Y-107935993D01*
X119688462Y-108376040D01*
X119543637Y-108853517D01*
X119494744Y-109350073D01*
X119390000Y-109350073D01*
X119390000Y-107569371D01*
X120400793Y-107569371D01*
X122040000Y-109208579D01*
X123679207Y-107569371D01*
X123454007Y-107233656D01*
X123013960Y-106998462D01*
X122722308Y-106910000D01*
X125978113Y-106910000D01*
X125980001Y-106929169D01*
X125980000Y-111740841D01*
X125978113Y-111760000D01*
X125985643Y-111836453D01*
X126007944Y-111909968D01*
X126044158Y-111977720D01*
X126092894Y-112037106D01*
X126107778Y-112049321D01*
X127540684Y-113482228D01*
X127552894Y-113497106D01*
X127567772Y-113509316D01*
X127567775Y-113509319D01*
X127612279Y-113545842D01*
X127680031Y-113582056D01*
X127753547Y-113604357D01*
X127830000Y-113611887D01*
X127849159Y-113610000D01*
X134570841Y-113610000D01*
X134590000Y-113611887D01*
X134666453Y-113604357D01*
X134739969Y-113582056D01*
X134807721Y-113545842D01*
X134867106Y-113497106D01*
X134879321Y-113482222D01*
X135942228Y-112419316D01*
X135957106Y-112407106D01*
X135979352Y-112380000D01*
X136005842Y-112347721D01*
X136042056Y-112279969D01*
X136064357Y-112206453D01*
X136066589Y-112183793D01*
X136098292Y-112215496D01*
X136285007Y-112340255D01*
X136492474Y-112426190D01*
X136712720Y-112470000D01*
X136937280Y-112470000D01*
X137157526Y-112426190D01*
X137364993Y-112340255D01*
X137551708Y-112215496D01*
X137710496Y-112056708D01*
X137835255Y-111869993D01*
X137921190Y-111662526D01*
X137965000Y-111442280D01*
X137965000Y-111217720D01*
X137975000Y-111217720D01*
X137975000Y-111442280D01*
X138018810Y-111662526D01*
X138104745Y-111869993D01*
X138229504Y-112056708D01*
X138388292Y-112215496D01*
X138575007Y-112340255D01*
X138782474Y-112426190D01*
X139002720Y-112470000D01*
X139227280Y-112470000D01*
X139447526Y-112426190D01*
X139654993Y-112340255D01*
X139841708Y-112215496D01*
X140000496Y-112056708D01*
X140125255Y-111869993D01*
X140211190Y-111662526D01*
X140255000Y-111442280D01*
X140255000Y-111217720D01*
X140211190Y-110997474D01*
X140125255Y-110790007D01*
X140000496Y-110603292D01*
X139841708Y-110444504D01*
X139654993Y-110319745D01*
X139447526Y-110233810D01*
X139227280Y-110190000D01*
X139002720Y-110190000D01*
X138782474Y-110233810D01*
X138575007Y-110319745D01*
X138388292Y-110444504D01*
X138229504Y-110603292D01*
X138104745Y-110790007D01*
X138018810Y-110997474D01*
X137975000Y-111217720D01*
X137965000Y-111217720D01*
X137921190Y-110997474D01*
X137835255Y-110790007D01*
X137710496Y-110603292D01*
X137551708Y-110444504D01*
X137364993Y-110319745D01*
X137157526Y-110233810D01*
X136937280Y-110190000D01*
X136712720Y-110190000D01*
X136492474Y-110233810D01*
X136446921Y-110252679D01*
X136491998Y-110196322D01*
X136505054Y-110178668D01*
X136596098Y-110045281D01*
X136610864Y-110021208D01*
X136648735Y-109952132D01*
X136690255Y-109889993D01*
X136776190Y-109682526D01*
X136820000Y-109462280D01*
X136820000Y-109237720D01*
X136776190Y-109017474D01*
X136690255Y-108810007D01*
X136565496Y-108623292D01*
X136406708Y-108464504D01*
X136219993Y-108339745D01*
X136012526Y-108253810D01*
X135792280Y-108210000D01*
X135567720Y-108210000D01*
X135347474Y-108253810D01*
X135140007Y-108339745D01*
X134953292Y-108464504D01*
X134794504Y-108623292D01*
X134669745Y-108810007D01*
X134583810Y-109017474D01*
X134540000Y-109237720D01*
X134540000Y-109462280D01*
X134583810Y-109682526D01*
X134669745Y-109889993D01*
X134711259Y-109952123D01*
X134749134Y-110021207D01*
X134763901Y-110045281D01*
X134854945Y-110178668D01*
X134868001Y-110196322D01*
X134913078Y-110252678D01*
X134867526Y-110233810D01*
X134647280Y-110190000D01*
X134422720Y-110190000D01*
X134202474Y-110233810D01*
X133995007Y-110319745D01*
X133808292Y-110444504D01*
X133649504Y-110603292D01*
X133524745Y-110790007D01*
X133438810Y-110997474D01*
X133395000Y-111217720D01*
X133395000Y-111442280D01*
X133438810Y-111662526D01*
X133524745Y-111869993D01*
X133649504Y-112056708D01*
X133808292Y-112215496D01*
X133995007Y-112340255D01*
X134202474Y-112426190D01*
X134422720Y-112470000D01*
X134647280Y-112470000D01*
X134823511Y-112434945D01*
X134428457Y-112830000D01*
X127991544Y-112830000D01*
X126760000Y-111598457D01*
X126760000Y-111217720D01*
X128815000Y-111217720D01*
X128815000Y-111442280D01*
X128858810Y-111662526D01*
X128944745Y-111869993D01*
X129069504Y-112056708D01*
X129228292Y-112215496D01*
X129415007Y-112340255D01*
X129622474Y-112426190D01*
X129842720Y-112470000D01*
X130067280Y-112470000D01*
X130287526Y-112426190D01*
X130494993Y-112340255D01*
X130681708Y-112215496D01*
X130840496Y-112056708D01*
X130965255Y-111869993D01*
X131051190Y-111662526D01*
X131095000Y-111442280D01*
X131095000Y-111217720D01*
X131105000Y-111217720D01*
X131105000Y-111442280D01*
X131148810Y-111662526D01*
X131234745Y-111869993D01*
X131359504Y-112056708D01*
X131518292Y-112215496D01*
X131705007Y-112340255D01*
X131912474Y-112426190D01*
X132132720Y-112470000D01*
X132357280Y-112470000D01*
X132577526Y-112426190D01*
X132784993Y-112340255D01*
X132971708Y-112215496D01*
X133130496Y-112056708D01*
X133255255Y-111869993D01*
X133341190Y-111662526D01*
X133385000Y-111442280D01*
X133385000Y-111217720D01*
X133341190Y-110997474D01*
X133255255Y-110790007D01*
X133130496Y-110603292D01*
X132971708Y-110444504D01*
X132784993Y-110319745D01*
X132577526Y-110233810D01*
X132357280Y-110190000D01*
X132132720Y-110190000D01*
X131912474Y-110233810D01*
X131705007Y-110319745D01*
X131518292Y-110444504D01*
X131359504Y-110603292D01*
X131234745Y-110790007D01*
X131148810Y-110997474D01*
X131105000Y-111217720D01*
X131095000Y-111217720D01*
X131051190Y-110997474D01*
X130965255Y-110790007D01*
X130840496Y-110603292D01*
X130681708Y-110444504D01*
X130494993Y-110319745D01*
X130287526Y-110233810D01*
X130067280Y-110190000D01*
X129842720Y-110190000D01*
X129622474Y-110233810D01*
X129415007Y-110319745D01*
X129228292Y-110444504D01*
X129069504Y-110603292D01*
X128944745Y-110790007D01*
X128858810Y-110997474D01*
X128815000Y-111217720D01*
X126760000Y-111217720D01*
X126760000Y-107071543D01*
X127311543Y-106520000D01*
X128813597Y-106520000D01*
X128813597Y-108220000D01*
X128819196Y-108276850D01*
X128835779Y-108331515D01*
X128862707Y-108381895D01*
X128898947Y-108426053D01*
X128943105Y-108462293D01*
X128993485Y-108489221D01*
X129048150Y-108505804D01*
X129105000Y-108511403D01*
X130805000Y-108511403D01*
X130861850Y-108505804D01*
X130916515Y-108489221D01*
X130966895Y-108462293D01*
X131011053Y-108426053D01*
X131047293Y-108381895D01*
X131074221Y-108331515D01*
X131090804Y-108276850D01*
X131096403Y-108220000D01*
X131096403Y-106520000D01*
X131090804Y-106463150D01*
X131086654Y-106449470D01*
X131117794Y-106413749D01*
X134671544Y-102860000D01*
X141238457Y-102860000D01*
X142433528Y-104055071D01*
X142467854Y-104091837D01*
X142486624Y-104115624D01*
X142496698Y-104131417D01*
X142502584Y-104143339D01*
X142507929Y-104157713D01*
X142514508Y-104180732D01*
X142522992Y-104215816D01*
X142533623Y-104260470D01*
X142535536Y-104268049D01*
X142548763Y-104317637D01*
X142552577Y-104330699D01*
X142557556Y-104346373D01*
X142562673Y-104372097D01*
X142607149Y-104479470D01*
X142671717Y-104576103D01*
X142753897Y-104658283D01*
X142850530Y-104722851D01*
X142957903Y-104767327D01*
X143071890Y-104790000D01*
X143188110Y-104790000D01*
X143302097Y-104767327D01*
X143409470Y-104722851D01*
X143506103Y-104658283D01*
X143588283Y-104576103D01*
X143652851Y-104479470D01*
X143697327Y-104372097D01*
X143720000Y-104258110D01*
X143720000Y-104141890D01*
X143697327Y-104027903D01*
X143652851Y-103920530D01*
X143588283Y-103823897D01*
X143506103Y-103741717D01*
X143409470Y-103677149D01*
X143302097Y-103632673D01*
X143276373Y-103627556D01*
X143260699Y-103622577D01*
X143247637Y-103618763D01*
X143198049Y-103605536D01*
X143190470Y-103603623D01*
X143145816Y-103592992D01*
X143110732Y-103584508D01*
X143087713Y-103577929D01*
X143073339Y-103572584D01*
X143061417Y-103566698D01*
X143045624Y-103556624D01*
X143021837Y-103537854D01*
X142985071Y-103503528D01*
X141689321Y-102207778D01*
X141677106Y-102192894D01*
X141617721Y-102144158D01*
X141549969Y-102107944D01*
X141476453Y-102085643D01*
X141419159Y-102080000D01*
X141400000Y-102078113D01*
X141380841Y-102080000D01*
X134529158Y-102080000D01*
X134509999Y-102078113D01*
X134433546Y-102085643D01*
X134360031Y-102107944D01*
X134292279Y-102144158D01*
X134292277Y-102144159D01*
X134292278Y-102144159D01*
X134247775Y-102180681D01*
X134247772Y-102180684D01*
X134232894Y-102192894D01*
X134220684Y-102207772D01*
X130565528Y-105862929D01*
X130434175Y-105979088D01*
X130326382Y-106050298D01*
X130228443Y-106095833D01*
X130129295Y-106126928D01*
X130018531Y-106151453D01*
X129896177Y-106175687D01*
X129883247Y-106178556D01*
X129755932Y-106209875D01*
X129727082Y-106218585D01*
X129699237Y-106228597D01*
X129105000Y-106228597D01*
X129048150Y-106234196D01*
X128993485Y-106250779D01*
X128943105Y-106277707D01*
X128898947Y-106313947D01*
X128862707Y-106358105D01*
X128835779Y-106408485D01*
X128819196Y-106463150D01*
X128813597Y-106520000D01*
X127311543Y-106520000D01*
X128031543Y-105800000D01*
X130240841Y-105800000D01*
X130260000Y-105801887D01*
X130336453Y-105794357D01*
X130360969Y-105786920D01*
X130409969Y-105772056D01*
X130477721Y-105735842D01*
X130537106Y-105687106D01*
X130549321Y-105672222D01*
X134741543Y-101480000D01*
X142778453Y-101480000D01*
X145353508Y-104055055D01*
X145387834Y-104091821D01*
X145406604Y-104115608D01*
X145416678Y-104131401D01*
X145422564Y-104143323D01*
X145427909Y-104157697D01*
X145434488Y-104180716D01*
X145442972Y-104215800D01*
X145453603Y-104260454D01*
X145455516Y-104268033D01*
X145468743Y-104317621D01*
X145472557Y-104330683D01*
X145477536Y-104346357D01*
X145482653Y-104372081D01*
X145527129Y-104479454D01*
X145591697Y-104576087D01*
X145673877Y-104658267D01*
X145770510Y-104722835D01*
X145877883Y-104767311D01*
X145991870Y-104789984D01*
X146108090Y-104789984D01*
X146222077Y-104767311D01*
X146329450Y-104722835D01*
X146426083Y-104658267D01*
X146508263Y-104576087D01*
X146572831Y-104479454D01*
X146617307Y-104372081D01*
X146639980Y-104258094D01*
X146639980Y-104141874D01*
X146617307Y-104027887D01*
X146572831Y-103920514D01*
X146508263Y-103823881D01*
X146426083Y-103741701D01*
X146329450Y-103677133D01*
X146222077Y-103632657D01*
X146196353Y-103627540D01*
X146180679Y-103622561D01*
X146167617Y-103618747D01*
X146118029Y-103605520D01*
X146110450Y-103603607D01*
X146065796Y-103592976D01*
X146030712Y-103584492D01*
X146007693Y-103577913D01*
X145993319Y-103572568D01*
X145981397Y-103566682D01*
X145965604Y-103556608D01*
X145941817Y-103537838D01*
X145905051Y-103503512D01*
X143229317Y-100827778D01*
X143217102Y-100812894D01*
X143157717Y-100764158D01*
X143089965Y-100727944D01*
X143016449Y-100705643D01*
X142959155Y-100700000D01*
X142939996Y-100698113D01*
X142920837Y-100700000D01*
X134599159Y-100700000D01*
X134580000Y-100698113D01*
X134560841Y-100700000D01*
X134503547Y-100705643D01*
X134430031Y-100727944D01*
X134362279Y-100764158D01*
X134302894Y-100812894D01*
X134290679Y-100827778D01*
X130098457Y-105020000D01*
X127889148Y-105020000D01*
X127869999Y-105018114D01*
X127850850Y-105020000D01*
X127850841Y-105020000D01*
X127793547Y-105025643D01*
X127720031Y-105047944D01*
X127652279Y-105084158D01*
X127592894Y-105132894D01*
X127580681Y-105147776D01*
X126107773Y-106620684D01*
X126092895Y-106632894D01*
X126080685Y-106647772D01*
X126080681Y-106647776D01*
X126044159Y-106692279D01*
X126007944Y-106760032D01*
X125985643Y-106833547D01*
X125978113Y-106910000D01*
X122722308Y-106910000D01*
X122536483Y-106853637D01*
X122039927Y-106804744D01*
X121543374Y-106853665D01*
X121065906Y-106998519D01*
X120625993Y-107233656D01*
X120400793Y-107569371D01*
X119390000Y-107569371D01*
X119390000Y-102503861D01*
X119483999Y-102601423D01*
X119686462Y-102742220D01*
X119912503Y-102840813D01*
X120005687Y-102862973D01*
X120200000Y-102768563D01*
X120200000Y-100990000D01*
X120400000Y-100990000D01*
X120400000Y-102768563D01*
X120594313Y-102862973D01*
X120687497Y-102840813D01*
X120913538Y-102742220D01*
X121116001Y-102601423D01*
X121287106Y-102423832D01*
X121420277Y-102216273D01*
X121471924Y-102084717D01*
X121656000Y-102084717D01*
X121656001Y-103695284D01*
X121671107Y-103848660D01*
X121730804Y-104045454D01*
X121827747Y-104226822D01*
X121958210Y-104385791D01*
X122117179Y-104516254D01*
X122298547Y-104613197D01*
X122495341Y-104672894D01*
X122700000Y-104693051D01*
X122904660Y-104672894D01*
X123101454Y-104613197D01*
X123282822Y-104516254D01*
X123441791Y-104385791D01*
X123572254Y-104226822D01*
X123669197Y-104045454D01*
X123728894Y-103848660D01*
X123744000Y-103695284D01*
X123744000Y-102084716D01*
X123728894Y-101931340D01*
X123669197Y-101734546D01*
X123572254Y-101553178D01*
X123441791Y-101394209D01*
X123282822Y-101263746D01*
X123101453Y-101166803D01*
X122904659Y-101107106D01*
X122700000Y-101086949D01*
X122495340Y-101107106D01*
X122298546Y-101166803D01*
X122117178Y-101263746D01*
X121958209Y-101394209D01*
X121827746Y-101553178D01*
X121730803Y-101734547D01*
X121671106Y-101931341D01*
X121656000Y-102084717D01*
X121471924Y-102084717D01*
X121510396Y-101986722D01*
X121554000Y-101744000D01*
X121554000Y-100990000D01*
X120400000Y-100990000D01*
X120200000Y-100990000D01*
X120180000Y-100990000D01*
X120180000Y-100790000D01*
X120200000Y-100790000D01*
X120200000Y-99011437D01*
X120400000Y-99011437D01*
X120400000Y-100790000D01*
X121554000Y-100790000D01*
X121554000Y-100084717D01*
X125356000Y-100084717D01*
X125356001Y-101695284D01*
X125371107Y-101848660D01*
X125430804Y-102045454D01*
X125527747Y-102226822D01*
X125658210Y-102385791D01*
X125817179Y-102516254D01*
X125998547Y-102613197D01*
X126195341Y-102672894D01*
X126400000Y-102693051D01*
X126604660Y-102672894D01*
X126801454Y-102613197D01*
X126982822Y-102516254D01*
X127141791Y-102385791D01*
X127156000Y-102368477D01*
X127156001Y-103695284D01*
X127171107Y-103848660D01*
X127230804Y-104045454D01*
X127327747Y-104226822D01*
X127458210Y-104385791D01*
X127617179Y-104516254D01*
X127798547Y-104613197D01*
X127995341Y-104672894D01*
X128200000Y-104693051D01*
X128404660Y-104672894D01*
X128601454Y-104613197D01*
X128782822Y-104516254D01*
X128941791Y-104385791D01*
X129072254Y-104226822D01*
X129169197Y-104045454D01*
X129228894Y-103848660D01*
X129244000Y-103695284D01*
X129244000Y-102084716D01*
X129228894Y-101931340D01*
X129169197Y-101734546D01*
X129072254Y-101553178D01*
X128941791Y-101394209D01*
X128782822Y-101263746D01*
X128601453Y-101166803D01*
X128404659Y-101107106D01*
X128200000Y-101086949D01*
X127995340Y-101107106D01*
X127798546Y-101166803D01*
X127617178Y-101263746D01*
X127458209Y-101394209D01*
X127444000Y-101411523D01*
X127444000Y-100084717D01*
X130856000Y-100084717D01*
X130856001Y-101695284D01*
X130871107Y-101848660D01*
X130930804Y-102045454D01*
X131027747Y-102226822D01*
X131158210Y-102385791D01*
X131317179Y-102516254D01*
X131498547Y-102613197D01*
X131695341Y-102672894D01*
X131900000Y-102693051D01*
X132104660Y-102672894D01*
X132301454Y-102613197D01*
X132482822Y-102516254D01*
X132641791Y-102385791D01*
X132772254Y-102226822D01*
X132869197Y-102045454D01*
X132928894Y-101848660D01*
X132944000Y-101695284D01*
X132944000Y-100084716D01*
X132928894Y-99931340D01*
X132925454Y-99920000D01*
X133828409Y-99920000D01*
X133911872Y-99923790D01*
X133965115Y-99932108D01*
X133993597Y-99940449D01*
X133993597Y-100015000D01*
X133999196Y-100071850D01*
X134015779Y-100126515D01*
X134042707Y-100176895D01*
X134078947Y-100221053D01*
X134123105Y-100257293D01*
X134173485Y-100284221D01*
X134228150Y-100300804D01*
X134285000Y-100306403D01*
X135205000Y-100306403D01*
X135261850Y-100300804D01*
X135316515Y-100284221D01*
X135366895Y-100257293D01*
X135411053Y-100221053D01*
X135447293Y-100176895D01*
X135474221Y-100126515D01*
X135490804Y-100071850D01*
X135496403Y-100015000D01*
X135496403Y-99045000D01*
X135543597Y-99045000D01*
X135543597Y-100015000D01*
X135549196Y-100071850D01*
X135565779Y-100126515D01*
X135592707Y-100176895D01*
X135628947Y-100221053D01*
X135673105Y-100257293D01*
X135723485Y-100284221D01*
X135778150Y-100300804D01*
X135835000Y-100306403D01*
X136755000Y-100306403D01*
X136811850Y-100300804D01*
X136866515Y-100284221D01*
X136916895Y-100257293D01*
X136961053Y-100221053D01*
X136997293Y-100176895D01*
X137024221Y-100126515D01*
X137040804Y-100071850D01*
X137046403Y-100015000D01*
X137046403Y-99940448D01*
X137074884Y-99932108D01*
X137128127Y-99923790D01*
X137211591Y-99920000D01*
X137243201Y-99920000D01*
X137249815Y-99952462D01*
X137255071Y-99973878D01*
X137262673Y-100012095D01*
X137307149Y-100119468D01*
X137371717Y-100216101D01*
X137453897Y-100298281D01*
X137550530Y-100362849D01*
X137657903Y-100407325D01*
X137771890Y-100429998D01*
X137888110Y-100429998D01*
X138002097Y-100407325D01*
X138109470Y-100362849D01*
X138206103Y-100298281D01*
X138288283Y-100216101D01*
X138352851Y-100119468D01*
X138397327Y-100012095D01*
X138420000Y-99898108D01*
X138420000Y-99781888D01*
X138397327Y-99667901D01*
X138352851Y-99560528D01*
X138288283Y-99463895D01*
X138206103Y-99381715D01*
X138109470Y-99317147D01*
X138002097Y-99272671D01*
X137888110Y-99249998D01*
X137837880Y-99249998D01*
X137806104Y-99248271D01*
X137790967Y-99245643D01*
X137786776Y-99244415D01*
X137737723Y-99204158D01*
X137669971Y-99167944D01*
X137596455Y-99145643D01*
X137539161Y-99140000D01*
X137520002Y-99138113D01*
X137500843Y-99140000D01*
X137211573Y-99140000D01*
X137128136Y-99136211D01*
X137074884Y-99127891D01*
X137046403Y-99119551D01*
X137046403Y-99045000D01*
X137040804Y-98988150D01*
X137024221Y-98933485D01*
X136997293Y-98883105D01*
X136961053Y-98838947D01*
X136916895Y-98802707D01*
X136866515Y-98775779D01*
X136811850Y-98759196D01*
X136755000Y-98753597D01*
X135835000Y-98753597D01*
X135778150Y-98759196D01*
X135723485Y-98775779D01*
X135673105Y-98802707D01*
X135628947Y-98838947D01*
X135592707Y-98883105D01*
X135565779Y-98933485D01*
X135549196Y-98988150D01*
X135543597Y-99045000D01*
X135496403Y-99045000D01*
X135490804Y-98988150D01*
X135474221Y-98933485D01*
X135447293Y-98883105D01*
X135411053Y-98838947D01*
X135366895Y-98802707D01*
X135316515Y-98775779D01*
X135261850Y-98759196D01*
X135205000Y-98753597D01*
X134285000Y-98753597D01*
X134228150Y-98759196D01*
X134173485Y-98775779D01*
X134123105Y-98802707D01*
X134078947Y-98838947D01*
X134042707Y-98883105D01*
X134015779Y-98933485D01*
X133999196Y-98988150D01*
X133993597Y-99045000D01*
X133993597Y-99119550D01*
X133965115Y-99127891D01*
X133911863Y-99136211D01*
X133828427Y-99140000D01*
X132529159Y-99140000D01*
X132510000Y-99138113D01*
X132433546Y-99145643D01*
X132379378Y-99162075D01*
X132360031Y-99167944D01*
X132331809Y-99183029D01*
X132301453Y-99166803D01*
X132104659Y-99107106D01*
X131900000Y-99086949D01*
X131695340Y-99107106D01*
X131498546Y-99166803D01*
X131317178Y-99263746D01*
X131158209Y-99394209D01*
X131027746Y-99553178D01*
X130930803Y-99734547D01*
X130871106Y-99931341D01*
X130856000Y-100084717D01*
X127444000Y-100084717D01*
X127444000Y-100084716D01*
X127428894Y-99931340D01*
X127369197Y-99734546D01*
X127319665Y-99641878D01*
X128421543Y-98540000D01*
X137213828Y-98540000D01*
X137303234Y-98543809D01*
X137362930Y-98552504D01*
X137393597Y-98560806D01*
X137393597Y-98605000D01*
X137399196Y-98661850D01*
X137415779Y-98716515D01*
X137442707Y-98766895D01*
X137478947Y-98811053D01*
X137523105Y-98847293D01*
X137573485Y-98874221D01*
X137628150Y-98890804D01*
X137685000Y-98896403D01*
X138605000Y-98896403D01*
X138661850Y-98890804D01*
X138716515Y-98874221D01*
X138766895Y-98847293D01*
X138811053Y-98811053D01*
X138847293Y-98766895D01*
X138874221Y-98716515D01*
X138890804Y-98661850D01*
X138896403Y-98605000D01*
X138896403Y-97635000D01*
X138943597Y-97635000D01*
X138943597Y-98605000D01*
X138949196Y-98661850D01*
X138965779Y-98716515D01*
X138992707Y-98766895D01*
X139028947Y-98811053D01*
X139073105Y-98847293D01*
X139123485Y-98874221D01*
X139178150Y-98890804D01*
X139235000Y-98896403D01*
X139275922Y-98896403D01*
X139277649Y-98902565D01*
X139286197Y-98959488D01*
X139290001Y-99046351D01*
X139290000Y-99235014D01*
X139288273Y-99285312D01*
X139284726Y-99315398D01*
X139280681Y-99333700D01*
X139276416Y-99346281D01*
X139270032Y-99360225D01*
X139258412Y-99381145D01*
X139239428Y-99412239D01*
X139215538Y-99451057D01*
X139211530Y-99457770D01*
X139185819Y-99502187D01*
X139179278Y-99514125D01*
X139171717Y-99528728D01*
X139157149Y-99550530D01*
X139112673Y-99657903D01*
X139090000Y-99771890D01*
X139090000Y-99888110D01*
X139112673Y-100002097D01*
X139157149Y-100109470D01*
X139221717Y-100206103D01*
X139303897Y-100288283D01*
X139400530Y-100352851D01*
X139507903Y-100397327D01*
X139621890Y-100420000D01*
X139738110Y-100420000D01*
X139852097Y-100397327D01*
X139959470Y-100352851D01*
X140056103Y-100288283D01*
X140138283Y-100206103D01*
X140202851Y-100109470D01*
X140247327Y-100002097D01*
X140270000Y-99888110D01*
X140270000Y-99771890D01*
X140247327Y-99657903D01*
X140202851Y-99550530D01*
X140188278Y-99528720D01*
X140180719Y-99514122D01*
X140174180Y-99502187D01*
X140148469Y-99457770D01*
X140144461Y-99451057D01*
X140120571Y-99412239D01*
X140101587Y-99381145D01*
X140089967Y-99360225D01*
X140083583Y-99346281D01*
X140079318Y-99333700D01*
X140075273Y-99315398D01*
X140071726Y-99285312D01*
X140070000Y-99235033D01*
X140070000Y-99046519D01*
X140073766Y-98962892D01*
X140082054Y-98909561D01*
X140085903Y-98896403D01*
X140155000Y-98896403D01*
X140211850Y-98890804D01*
X140266515Y-98874221D01*
X140316895Y-98847293D01*
X140361053Y-98811053D01*
X140397293Y-98766895D01*
X140424221Y-98716515D01*
X140440804Y-98661850D01*
X140446403Y-98605000D01*
X140446403Y-97635000D01*
X140440804Y-97578150D01*
X140424221Y-97523485D01*
X140397293Y-97473105D01*
X140361053Y-97428947D01*
X140316895Y-97392707D01*
X140266515Y-97365779D01*
X140211850Y-97349196D01*
X140155000Y-97343597D01*
X139235000Y-97343597D01*
X139178150Y-97349196D01*
X139123485Y-97365779D01*
X139073105Y-97392707D01*
X139028947Y-97428947D01*
X138992707Y-97473105D01*
X138965779Y-97523485D01*
X138949196Y-97578150D01*
X138943597Y-97635000D01*
X138896403Y-97635000D01*
X138890804Y-97578150D01*
X138874221Y-97523485D01*
X138847293Y-97473105D01*
X138811053Y-97428947D01*
X138766895Y-97392707D01*
X138716515Y-97365779D01*
X138661850Y-97349196D01*
X138605000Y-97343597D01*
X137685000Y-97343597D01*
X137628150Y-97349196D01*
X137573485Y-97365779D01*
X137523105Y-97392707D01*
X137478947Y-97428947D01*
X137442707Y-97473105D01*
X137415779Y-97523485D01*
X137399196Y-97578150D01*
X137393597Y-97635000D01*
X137393597Y-97733350D01*
X137384044Y-97737704D01*
X137349062Y-97748033D01*
X137296471Y-97756250D01*
X137213447Y-97760000D01*
X128279148Y-97760000D01*
X128259999Y-97758114D01*
X128240850Y-97760000D01*
X128240841Y-97760000D01*
X128183547Y-97765643D01*
X128110031Y-97787944D01*
X128042279Y-97824158D01*
X127982894Y-97872894D01*
X127970679Y-97887778D01*
X126717209Y-99141248D01*
X126604659Y-99107106D01*
X126400000Y-99086949D01*
X126195340Y-99107106D01*
X125998546Y-99166803D01*
X125817178Y-99263746D01*
X125658209Y-99394209D01*
X125527746Y-99553178D01*
X125430803Y-99734547D01*
X125371106Y-99931341D01*
X125356000Y-100084717D01*
X121554000Y-100084717D01*
X121554000Y-100036000D01*
X121510396Y-99793278D01*
X121420277Y-99563727D01*
X121287106Y-99356168D01*
X121116001Y-99178577D01*
X120913538Y-99037780D01*
X120687497Y-98939187D01*
X120594313Y-98917027D01*
X120400000Y-99011437D01*
X120200000Y-99011437D01*
X120005687Y-98917027D01*
X119912503Y-98939187D01*
X119686462Y-99037780D01*
X119483999Y-99178577D01*
X119390000Y-99276139D01*
X119390000Y-97160000D01*
X149760000Y-97160000D01*
X149760001Y-107233289D01*
G04 #@! TA.AperFunction,Conductor*
D17*
G36*
X149760001Y-107233289D02*
G01*
X149758355Y-107250000D01*
X149764920Y-107316652D01*
X149784361Y-107380742D01*
X149809711Y-107428168D01*
X148039321Y-105657778D01*
X148027106Y-105642894D01*
X147967721Y-105594158D01*
X147899969Y-105557944D01*
X147826453Y-105535643D01*
X147769159Y-105530000D01*
X147750000Y-105528113D01*
X147730841Y-105530000D01*
X142752740Y-105530000D01*
X140810517Y-103587778D01*
X140798302Y-103572894D01*
X140738917Y-103524158D01*
X140671165Y-103487944D01*
X140597649Y-103465643D01*
X140540355Y-103460000D01*
X140521196Y-103458113D01*
X140502037Y-103460000D01*
X135789148Y-103460000D01*
X135769999Y-103458114D01*
X135750850Y-103460000D01*
X135750841Y-103460000D01*
X135693547Y-103465643D01*
X135620031Y-103487944D01*
X135552279Y-103524158D01*
X135492894Y-103572894D01*
X135480679Y-103587778D01*
X133183513Y-105884944D01*
X133052589Y-106002556D01*
X132947821Y-106074553D01*
X132857901Y-106117904D01*
X132771566Y-106144033D01*
X132675839Y-106160108D01*
X132561471Y-106170479D01*
X132429435Y-106180200D01*
X132419095Y-106181148D01*
X132274132Y-106197056D01*
X132252742Y-106200214D01*
X132093544Y-106229821D01*
X132066360Y-106236245D01*
X131988122Y-106258763D01*
X131912474Y-106273810D01*
X131705007Y-106359745D01*
X131518292Y-106484504D01*
X131359504Y-106643292D01*
X131234745Y-106830007D01*
X131148810Y-107037474D01*
X131105000Y-107257720D01*
X131105000Y-107482280D01*
X131148810Y-107702526D01*
X131234745Y-107909993D01*
X131359504Y-108096708D01*
X131518292Y-108255496D01*
X131705007Y-108380255D01*
X131912474Y-108466190D01*
X132132720Y-108510000D01*
X132357280Y-108510000D01*
X132577526Y-108466190D01*
X132784993Y-108380255D01*
X132971708Y-108255496D01*
X133130496Y-108096708D01*
X133255255Y-107909993D01*
X133341190Y-107702526D01*
X133355119Y-107632499D01*
X133377346Y-107557573D01*
X133384017Y-107530309D01*
X133395000Y-107473676D01*
X133395000Y-107482280D01*
X133438810Y-107702526D01*
X133524745Y-107909993D01*
X133649504Y-108096708D01*
X133808292Y-108255496D01*
X133995007Y-108380255D01*
X134202474Y-108466190D01*
X134422720Y-108510000D01*
X134647280Y-108510000D01*
X134867526Y-108466190D01*
X135074993Y-108380255D01*
X135261708Y-108255496D01*
X135420496Y-108096708D01*
X135545255Y-107909993D01*
X135631190Y-107702526D01*
X135649771Y-107609115D01*
X135669858Y-107533443D01*
X135675978Y-107504512D01*
X135685000Y-107447686D01*
X135685000Y-107482280D01*
X135728810Y-107702526D01*
X135814745Y-107909993D01*
X135939504Y-108096708D01*
X136098292Y-108255496D01*
X136285007Y-108380255D01*
X136492474Y-108466190D01*
X136712720Y-108510000D01*
X136937280Y-108510000D01*
X137157526Y-108466190D01*
X137364993Y-108380255D01*
X137551708Y-108255496D01*
X137710496Y-108096708D01*
X137835255Y-107909993D01*
X137921190Y-107702526D01*
X137965000Y-107482280D01*
X137965000Y-107257720D01*
X137921190Y-107037474D01*
X137835255Y-106830007D01*
X137710496Y-106643292D01*
X137551708Y-106484504D01*
X137364993Y-106359745D01*
X137157526Y-106273810D01*
X136937280Y-106230000D01*
X136712720Y-106230000D01*
X136492474Y-106273810D01*
X136285007Y-106359745D01*
X136098292Y-106484504D01*
X135939504Y-106643292D01*
X135814745Y-106830007D01*
X135728810Y-107037474D01*
X135718453Y-107089541D01*
X135720221Y-107045334D01*
X135726463Y-106934157D01*
X135738778Y-106842599D01*
X135760850Y-106761660D01*
X135799176Y-106678009D01*
X135865198Y-106579705D01*
X135976577Y-106454966D01*
X136811543Y-105620000D01*
X139528457Y-105620000D01*
X140680000Y-106771543D01*
X140680001Y-111770831D01*
X140678113Y-111790000D01*
X140685643Y-111866453D01*
X140707944Y-111939968D01*
X140744159Y-112007721D01*
X140780681Y-112052224D01*
X140780685Y-112052228D01*
X140792895Y-112067106D01*
X140807773Y-112079316D01*
X142150679Y-113422222D01*
X142162894Y-113437106D01*
X142222279Y-113485842D01*
X142290031Y-113522056D01*
X142363547Y-113544357D01*
X142440000Y-113551887D01*
X142459159Y-113550000D01*
X151268457Y-113550000D01*
X151610679Y-113892222D01*
X151622894Y-113907106D01*
X151682279Y-113955842D01*
X151750031Y-113992056D01*
X151823547Y-114014357D01*
X151880841Y-114020000D01*
X151880850Y-114020000D01*
X151899999Y-114021886D01*
X151919148Y-114020000D01*
X156300841Y-114020000D01*
X156320000Y-114021887D01*
X156396453Y-114014357D01*
X156396456Y-114014356D01*
X156469969Y-113992056D01*
X156537721Y-113955842D01*
X156597106Y-113907106D01*
X156609321Y-113892222D01*
X157212223Y-113289320D01*
X157227106Y-113277106D01*
X157275842Y-113217721D01*
X157276815Y-113215900D01*
X157307377Y-113180683D01*
X157334757Y-113143529D01*
X157348488Y-113121403D01*
X157418000Y-113121403D01*
X157504113Y-113112922D01*
X157586918Y-113087803D01*
X157663230Y-113047013D01*
X157730119Y-112992119D01*
X157785013Y-112925230D01*
X157825803Y-112848918D01*
X157850922Y-112766113D01*
X157859403Y-112680000D01*
X157859403Y-110980000D01*
X157850922Y-110893887D01*
X157825803Y-110811082D01*
X157785013Y-110734770D01*
X157730119Y-110667881D01*
X157663230Y-110612987D01*
X157586918Y-110572197D01*
X157504113Y-110547078D01*
X157418000Y-110538597D01*
X156518000Y-110538597D01*
X156431887Y-110547078D01*
X156349082Y-110572197D01*
X156272770Y-110612987D01*
X156205881Y-110667881D01*
X156150987Y-110734770D01*
X156110197Y-110811082D01*
X156085078Y-110893887D01*
X156076597Y-110980000D01*
X156076597Y-112680000D01*
X156085078Y-112766113D01*
X156110197Y-112848918D01*
X156150987Y-112925230D01*
X156205881Y-112992119D01*
X156272770Y-113047013D01*
X156324040Y-113074417D01*
X156158457Y-113240000D01*
X152061543Y-113240000D01*
X151719319Y-112897776D01*
X151707106Y-112882894D01*
X151647721Y-112834158D01*
X151579969Y-112797944D01*
X151506453Y-112775643D01*
X151449159Y-112770000D01*
X151430000Y-112768113D01*
X151410841Y-112770000D01*
X142601543Y-112770000D01*
X141460000Y-111628457D01*
X141460000Y-107421890D01*
X142530000Y-107421890D01*
X142530000Y-107538110D01*
X142552673Y-107652097D01*
X142597149Y-107759470D01*
X142611718Y-107781275D01*
X142619279Y-107795876D01*
X142625819Y-107807812D01*
X142651530Y-107852229D01*
X142655538Y-107858942D01*
X142679428Y-107897760D01*
X142698412Y-107928854D01*
X142710032Y-107949774D01*
X142716416Y-107963718D01*
X142720681Y-107976299D01*
X142724726Y-107994601D01*
X142728273Y-108024687D01*
X142730001Y-108074995D01*
X142730000Y-109730841D01*
X142728113Y-109750000D01*
X142730000Y-109769158D01*
X142735643Y-109826452D01*
X142757944Y-109899968D01*
X142794158Y-109967720D01*
X142842894Y-110027106D01*
X142857778Y-110039321D01*
X145360679Y-112542222D01*
X145372894Y-112557106D01*
X145432279Y-112605842D01*
X145500031Y-112642056D01*
X145573547Y-112664357D01*
X145630841Y-112670000D01*
X145630850Y-112670000D01*
X145649999Y-112671886D01*
X145669148Y-112670000D01*
X152118529Y-112670000D01*
X152228597Y-112671119D01*
X152228597Y-112680000D01*
X152237078Y-112766113D01*
X152262197Y-112848918D01*
X152302987Y-112925230D01*
X152357881Y-112992119D01*
X152424770Y-113047013D01*
X152501082Y-113087803D01*
X152583887Y-113112922D01*
X152670000Y-113121403D01*
X153570000Y-113121403D01*
X153656113Y-113112922D01*
X153738918Y-113087803D01*
X153815230Y-113047013D01*
X153882119Y-112992119D01*
X153937013Y-112925230D01*
X153977803Y-112848918D01*
X154002922Y-112766113D01*
X154011403Y-112680000D01*
X154011403Y-110980000D01*
X154002922Y-110893887D01*
X153977803Y-110811082D01*
X153937013Y-110734770D01*
X153882119Y-110667881D01*
X153815230Y-110612987D01*
X153738918Y-110572197D01*
X153656113Y-110547078D01*
X153570000Y-110538597D01*
X152670000Y-110538597D01*
X152583887Y-110547078D01*
X152501082Y-110572197D01*
X152424770Y-110612987D01*
X152357881Y-110667881D01*
X152302987Y-110734770D01*
X152262197Y-110811082D01*
X152237078Y-110893887D01*
X152228597Y-110980000D01*
X152228597Y-111719620D01*
X152220190Y-111752042D01*
X152202687Y-111813454D01*
X152187293Y-111856878D01*
X152175861Y-111880424D01*
X152174183Y-111882778D01*
X152161896Y-111886053D01*
X152109162Y-111890000D01*
X147083422Y-111890000D01*
X147526626Y-111846335D01*
X148004094Y-111701481D01*
X148444007Y-111466344D01*
X148669207Y-111130629D01*
X147030000Y-109491421D01*
X145390793Y-111130629D01*
X145615993Y-111466344D01*
X146056040Y-111701538D01*
X146533517Y-111846363D01*
X146976693Y-111890000D01*
X145811543Y-111890000D01*
X143510000Y-109588457D01*
X143510000Y-109350073D01*
X144484744Y-109350073D01*
X144533665Y-109846626D01*
X144678519Y-110324094D01*
X144913656Y-110764007D01*
X145249371Y-110989207D01*
X146888579Y-109350000D01*
X145249371Y-107710793D01*
X144913656Y-107935993D01*
X144678462Y-108376040D01*
X144533637Y-108853517D01*
X144484744Y-109350073D01*
X143510000Y-109350073D01*
X143510000Y-108074967D01*
X143511726Y-108024687D01*
X143515273Y-107994601D01*
X143519318Y-107976299D01*
X143523583Y-107963718D01*
X143529967Y-107949774D01*
X143541587Y-107928854D01*
X143560571Y-107897760D01*
X143584461Y-107858942D01*
X143588469Y-107852229D01*
X143614180Y-107807812D01*
X143620718Y-107795880D01*
X143628279Y-107781279D01*
X143642851Y-107759470D01*
X143687327Y-107652097D01*
X143710000Y-107538110D01*
X143710000Y-107421890D01*
X143687327Y-107307903D01*
X143642851Y-107200530D01*
X143578283Y-107103897D01*
X143496103Y-107021717D01*
X143399470Y-106957149D01*
X143292097Y-106912673D01*
X143178110Y-106890000D01*
X143061890Y-106890000D01*
X142947903Y-106912673D01*
X142840530Y-106957149D01*
X142743897Y-107021717D01*
X142661717Y-107103897D01*
X142597149Y-107200530D01*
X142552673Y-107307903D01*
X142530000Y-107421890D01*
X141460000Y-107421890D01*
X141460000Y-106629159D01*
X141461887Y-106610000D01*
X141454357Y-106533547D01*
X141451959Y-106525643D01*
X141432056Y-106460031D01*
X141395842Y-106392279D01*
X141347106Y-106332894D01*
X141332223Y-106320680D01*
X139979321Y-104967778D01*
X139967106Y-104952894D01*
X139907721Y-104904158D01*
X139839969Y-104867944D01*
X139766453Y-104845643D01*
X139709159Y-104840000D01*
X139690000Y-104838113D01*
X139670841Y-104840000D01*
X136669148Y-104840000D01*
X136649999Y-104838114D01*
X136630850Y-104840000D01*
X136630841Y-104840000D01*
X136573547Y-104845643D01*
X136500031Y-104867944D01*
X136432279Y-104904158D01*
X136372894Y-104952894D01*
X136360679Y-104967778D01*
X135424971Y-105903486D01*
X135297796Y-106017186D01*
X135196798Y-106085456D01*
X135110124Y-106125913D01*
X135026042Y-106149994D01*
X134931567Y-106164514D01*
X134817822Y-106173730D01*
X134687405Y-106182934D01*
X134674729Y-106184109D01*
X134532952Y-106200393D01*
X134509068Y-106204151D01*
X134353841Y-106235254D01*
X134324410Y-106242774D01*
X134264513Y-106261470D01*
X134202474Y-106273810D01*
X133995007Y-106359745D01*
X133808292Y-106484504D01*
X133649504Y-106643292D01*
X133524745Y-106830007D01*
X133452106Y-107005375D01*
X133457705Y-106946771D01*
X133474231Y-106850534D01*
X133500777Y-106763612D01*
X133544553Y-106673144D01*
X133616989Y-106567878D01*
X133735040Y-106436503D01*
X135931543Y-104240000D01*
X140359653Y-104240000D01*
X142301880Y-106182228D01*
X142314090Y-106197106D01*
X142328968Y-106209316D01*
X142328971Y-106209319D01*
X142329649Y-106209875D01*
X142373475Y-106245842D01*
X142422932Y-106272277D01*
X142441227Y-106282056D01*
X142514742Y-106304357D01*
X142591195Y-106311887D01*
X142610354Y-106310000D01*
X147588457Y-106310000D01*
X148758516Y-107480059D01*
X148669206Y-107569369D01*
X148444007Y-107233656D01*
X148003960Y-106998462D01*
X147526483Y-106853637D01*
X147029927Y-106804744D01*
X146533374Y-106853665D01*
X146055906Y-106998519D01*
X145615993Y-107233656D01*
X145390793Y-107569371D01*
X147030000Y-109208579D01*
X147044142Y-109194436D01*
X147185564Y-109335858D01*
X147171421Y-109350000D01*
X148810629Y-110989207D01*
X149146344Y-110764007D01*
X149381538Y-110323960D01*
X149526363Y-109846483D01*
X149575256Y-109349927D01*
X149526335Y-108853374D01*
X149381481Y-108375906D01*
X149146344Y-107935993D01*
X148810631Y-107710794D01*
X148899941Y-107621484D01*
X150450679Y-109172222D01*
X150462894Y-109187106D01*
X150522279Y-109235842D01*
X150590031Y-109272056D01*
X150663547Y-109294357D01*
X150740000Y-109301887D01*
X150759159Y-109300000D01*
X154298457Y-109300000D01*
X154650000Y-109651544D01*
X154650000Y-110538597D01*
X154594000Y-110538597D01*
X154507887Y-110547078D01*
X154425082Y-110572197D01*
X154348770Y-110612987D01*
X154281881Y-110667881D01*
X154226987Y-110734770D01*
X154186197Y-110811082D01*
X154161078Y-110893887D01*
X154152597Y-110980000D01*
X154152597Y-112680000D01*
X154161078Y-112766113D01*
X154186197Y-112848918D01*
X154226987Y-112925230D01*
X154281881Y-112992119D01*
X154348770Y-113047013D01*
X154425082Y-113087803D01*
X154507887Y-113112922D01*
X154594000Y-113121403D01*
X155494000Y-113121403D01*
X155580113Y-113112922D01*
X155662918Y-113087803D01*
X155739230Y-113047013D01*
X155806119Y-112992119D01*
X155861013Y-112925230D01*
X155901803Y-112848918D01*
X155926922Y-112766113D01*
X155935403Y-112680000D01*
X155935403Y-110980000D01*
X155926922Y-110893887D01*
X155901803Y-110811082D01*
X155861013Y-110734770D01*
X155806119Y-110667881D01*
X155739230Y-110612987D01*
X155662918Y-110572197D01*
X155580113Y-110547078D01*
X155494000Y-110538597D01*
X155430000Y-110538597D01*
X155430000Y-109509159D01*
X155431887Y-109490000D01*
X155424357Y-109413547D01*
X155402056Y-109340031D01*
X155390250Y-109317944D01*
X155365842Y-109272279D01*
X155317106Y-109212894D01*
X155302229Y-109200685D01*
X154749319Y-108647776D01*
X154737106Y-108632894D01*
X154677721Y-108584158D01*
X154609969Y-108547944D01*
X154536453Y-108525643D01*
X154479159Y-108520000D01*
X154460000Y-108518113D01*
X154440841Y-108520000D01*
X150901543Y-108520000D01*
X149921832Y-107540289D01*
X149969258Y-107565639D01*
X150033348Y-107585080D01*
X150083299Y-107590000D01*
X150100000Y-107591645D01*
X150116701Y-107590000D01*
X151163299Y-107590000D01*
X151180000Y-107591645D01*
X151196701Y-107590000D01*
X151246652Y-107585080D01*
X151310742Y-107565639D01*
X151369808Y-107534067D01*
X151421579Y-107491579D01*
X151464067Y-107439808D01*
X151495639Y-107380742D01*
X151515080Y-107316652D01*
X151521645Y-107250000D01*
X151520000Y-107233299D01*
X151520000Y-98340000D01*
X158540000Y-98340000D01*
X158540001Y-112299166D01*
X156719169Y-114120000D01*
X119390000Y-114120000D01*
X119390000Y-111130629D01*
X120400793Y-111130629D01*
X120625993Y-111466344D01*
X121066040Y-111701538D01*
X121543517Y-111846363D01*
X122040073Y-111895256D01*
X122536626Y-111846335D01*
X123014094Y-111701481D01*
X123454007Y-111466344D01*
X123679207Y-111130629D01*
X122040000Y-109491421D01*
X120400793Y-111130629D01*
X119390000Y-111130629D01*
X119390000Y-109350073D01*
X119494744Y-109350073D01*
X119543665Y-109846626D01*
X119688519Y-110324094D01*
X119923656Y-110764007D01*
X120259371Y-110989207D01*
X121898579Y-109350000D01*
X122181421Y-109350000D01*
X123820629Y-110989207D01*
X124156344Y-110764007D01*
X124391538Y-110323960D01*
X124536363Y-109846483D01*
X124585256Y-109349927D01*
X124536335Y-108853374D01*
X124391481Y-108375906D01*
X124156344Y-107935993D01*
X123820629Y-107710793D01*
X122181421Y-109350000D01*
X121898579Y-109350000D01*
X120259371Y-107710793D01*
X119923656Y-107935993D01*
X119688462Y-108376040D01*
X119543637Y-108853517D01*
X119494744Y-109350073D01*
X119390000Y-109350073D01*
X119390000Y-107569371D01*
X120400793Y-107569371D01*
X122040000Y-109208579D01*
X123679207Y-107569371D01*
X123454007Y-107233656D01*
X123013960Y-106998462D01*
X122722308Y-106910000D01*
X125978113Y-106910000D01*
X125980001Y-106929169D01*
X125980000Y-111740841D01*
X125978113Y-111760000D01*
X125985643Y-111836453D01*
X126007944Y-111909968D01*
X126044158Y-111977720D01*
X126092894Y-112037106D01*
X126107778Y-112049321D01*
X127540684Y-113482228D01*
X127552894Y-113497106D01*
X127567772Y-113509316D01*
X127567775Y-113509319D01*
X127612279Y-113545842D01*
X127680031Y-113582056D01*
X127753547Y-113604357D01*
X127830000Y-113611887D01*
X127849159Y-113610000D01*
X134570841Y-113610000D01*
X134590000Y-113611887D01*
X134666453Y-113604357D01*
X134739969Y-113582056D01*
X134807721Y-113545842D01*
X134867106Y-113497106D01*
X134879321Y-113482222D01*
X135942228Y-112419316D01*
X135957106Y-112407106D01*
X135979352Y-112380000D01*
X136005842Y-112347721D01*
X136042056Y-112279969D01*
X136064357Y-112206453D01*
X136066589Y-112183793D01*
X136098292Y-112215496D01*
X136285007Y-112340255D01*
X136492474Y-112426190D01*
X136712720Y-112470000D01*
X136937280Y-112470000D01*
X137157526Y-112426190D01*
X137364993Y-112340255D01*
X137551708Y-112215496D01*
X137710496Y-112056708D01*
X137835255Y-111869993D01*
X137921190Y-111662526D01*
X137965000Y-111442280D01*
X137965000Y-111217720D01*
X137975000Y-111217720D01*
X137975000Y-111442280D01*
X138018810Y-111662526D01*
X138104745Y-111869993D01*
X138229504Y-112056708D01*
X138388292Y-112215496D01*
X138575007Y-112340255D01*
X138782474Y-112426190D01*
X139002720Y-112470000D01*
X139227280Y-112470000D01*
X139447526Y-112426190D01*
X139654993Y-112340255D01*
X139841708Y-112215496D01*
X140000496Y-112056708D01*
X140125255Y-111869993D01*
X140211190Y-111662526D01*
X140255000Y-111442280D01*
X140255000Y-111217720D01*
X140211190Y-110997474D01*
X140125255Y-110790007D01*
X140000496Y-110603292D01*
X139841708Y-110444504D01*
X139654993Y-110319745D01*
X139447526Y-110233810D01*
X139227280Y-110190000D01*
X139002720Y-110190000D01*
X138782474Y-110233810D01*
X138575007Y-110319745D01*
X138388292Y-110444504D01*
X138229504Y-110603292D01*
X138104745Y-110790007D01*
X138018810Y-110997474D01*
X137975000Y-111217720D01*
X137965000Y-111217720D01*
X137921190Y-110997474D01*
X137835255Y-110790007D01*
X137710496Y-110603292D01*
X137551708Y-110444504D01*
X137364993Y-110319745D01*
X137157526Y-110233810D01*
X136937280Y-110190000D01*
X136712720Y-110190000D01*
X136492474Y-110233810D01*
X136446921Y-110252679D01*
X136491998Y-110196322D01*
X136505054Y-110178668D01*
X136596098Y-110045281D01*
X136610864Y-110021208D01*
X136648735Y-109952132D01*
X136690255Y-109889993D01*
X136776190Y-109682526D01*
X136820000Y-109462280D01*
X136820000Y-109237720D01*
X136776190Y-109017474D01*
X136690255Y-108810007D01*
X136565496Y-108623292D01*
X136406708Y-108464504D01*
X136219993Y-108339745D01*
X136012526Y-108253810D01*
X135792280Y-108210000D01*
X135567720Y-108210000D01*
X135347474Y-108253810D01*
X135140007Y-108339745D01*
X134953292Y-108464504D01*
X134794504Y-108623292D01*
X134669745Y-108810007D01*
X134583810Y-109017474D01*
X134540000Y-109237720D01*
X134540000Y-109462280D01*
X134583810Y-109682526D01*
X134669745Y-109889993D01*
X134711259Y-109952123D01*
X134749134Y-110021207D01*
X134763901Y-110045281D01*
X134854945Y-110178668D01*
X134868001Y-110196322D01*
X134913078Y-110252678D01*
X134867526Y-110233810D01*
X134647280Y-110190000D01*
X134422720Y-110190000D01*
X134202474Y-110233810D01*
X133995007Y-110319745D01*
X133808292Y-110444504D01*
X133649504Y-110603292D01*
X133524745Y-110790007D01*
X133438810Y-110997474D01*
X133395000Y-111217720D01*
X133395000Y-111442280D01*
X133438810Y-111662526D01*
X133524745Y-111869993D01*
X133649504Y-112056708D01*
X133808292Y-112215496D01*
X133995007Y-112340255D01*
X134202474Y-112426190D01*
X134422720Y-112470000D01*
X134647280Y-112470000D01*
X134823511Y-112434945D01*
X134428457Y-112830000D01*
X127991544Y-112830000D01*
X126760000Y-111598457D01*
X126760000Y-111217720D01*
X128815000Y-111217720D01*
X128815000Y-111442280D01*
X128858810Y-111662526D01*
X128944745Y-111869993D01*
X129069504Y-112056708D01*
X129228292Y-112215496D01*
X129415007Y-112340255D01*
X129622474Y-112426190D01*
X129842720Y-112470000D01*
X130067280Y-112470000D01*
X130287526Y-112426190D01*
X130494993Y-112340255D01*
X130681708Y-112215496D01*
X130840496Y-112056708D01*
X130965255Y-111869993D01*
X131051190Y-111662526D01*
X131095000Y-111442280D01*
X131095000Y-111217720D01*
X131105000Y-111217720D01*
X131105000Y-111442280D01*
X131148810Y-111662526D01*
X131234745Y-111869993D01*
X131359504Y-112056708D01*
X131518292Y-112215496D01*
X131705007Y-112340255D01*
X131912474Y-112426190D01*
X132132720Y-112470000D01*
X132357280Y-112470000D01*
X132577526Y-112426190D01*
X132784993Y-112340255D01*
X132971708Y-112215496D01*
X133130496Y-112056708D01*
X133255255Y-111869993D01*
X133341190Y-111662526D01*
X133385000Y-111442280D01*
X133385000Y-111217720D01*
X133341190Y-110997474D01*
X133255255Y-110790007D01*
X133130496Y-110603292D01*
X132971708Y-110444504D01*
X132784993Y-110319745D01*
X132577526Y-110233810D01*
X132357280Y-110190000D01*
X132132720Y-110190000D01*
X131912474Y-110233810D01*
X131705007Y-110319745D01*
X131518292Y-110444504D01*
X131359504Y-110603292D01*
X131234745Y-110790007D01*
X131148810Y-110997474D01*
X131105000Y-111217720D01*
X131095000Y-111217720D01*
X131051190Y-110997474D01*
X130965255Y-110790007D01*
X130840496Y-110603292D01*
X130681708Y-110444504D01*
X130494993Y-110319745D01*
X130287526Y-110233810D01*
X130067280Y-110190000D01*
X129842720Y-110190000D01*
X129622474Y-110233810D01*
X129415007Y-110319745D01*
X129228292Y-110444504D01*
X129069504Y-110603292D01*
X128944745Y-110790007D01*
X128858810Y-110997474D01*
X128815000Y-111217720D01*
X126760000Y-111217720D01*
X126760000Y-107071543D01*
X127311543Y-106520000D01*
X128813597Y-106520000D01*
X128813597Y-108220000D01*
X128819196Y-108276850D01*
X128835779Y-108331515D01*
X128862707Y-108381895D01*
X128898947Y-108426053D01*
X128943105Y-108462293D01*
X128993485Y-108489221D01*
X129048150Y-108505804D01*
X129105000Y-108511403D01*
X130805000Y-108511403D01*
X130861850Y-108505804D01*
X130916515Y-108489221D01*
X130966895Y-108462293D01*
X131011053Y-108426053D01*
X131047293Y-108381895D01*
X131074221Y-108331515D01*
X131090804Y-108276850D01*
X131096403Y-108220000D01*
X131096403Y-106520000D01*
X131090804Y-106463150D01*
X131086654Y-106449470D01*
X131117794Y-106413749D01*
X134671544Y-102860000D01*
X141238457Y-102860000D01*
X142433528Y-104055071D01*
X142467854Y-104091837D01*
X142486624Y-104115624D01*
X142496698Y-104131417D01*
X142502584Y-104143339D01*
X142507929Y-104157713D01*
X142514508Y-104180732D01*
X142522992Y-104215816D01*
X142533623Y-104260470D01*
X142535536Y-104268049D01*
X142548763Y-104317637D01*
X142552577Y-104330699D01*
X142557556Y-104346373D01*
X142562673Y-104372097D01*
X142607149Y-104479470D01*
X142671717Y-104576103D01*
X142753897Y-104658283D01*
X142850530Y-104722851D01*
X142957903Y-104767327D01*
X143071890Y-104790000D01*
X143188110Y-104790000D01*
X143302097Y-104767327D01*
X143409470Y-104722851D01*
X143506103Y-104658283D01*
X143588283Y-104576103D01*
X143652851Y-104479470D01*
X143697327Y-104372097D01*
X143720000Y-104258110D01*
X143720000Y-104141890D01*
X143697327Y-104027903D01*
X143652851Y-103920530D01*
X143588283Y-103823897D01*
X143506103Y-103741717D01*
X143409470Y-103677149D01*
X143302097Y-103632673D01*
X143276373Y-103627556D01*
X143260699Y-103622577D01*
X143247637Y-103618763D01*
X143198049Y-103605536D01*
X143190470Y-103603623D01*
X143145816Y-103592992D01*
X143110732Y-103584508D01*
X143087713Y-103577929D01*
X143073339Y-103572584D01*
X143061417Y-103566698D01*
X143045624Y-103556624D01*
X143021837Y-103537854D01*
X142985071Y-103503528D01*
X141689321Y-102207778D01*
X141677106Y-102192894D01*
X141617721Y-102144158D01*
X141549969Y-102107944D01*
X141476453Y-102085643D01*
X141419159Y-102080000D01*
X141400000Y-102078113D01*
X141380841Y-102080000D01*
X134529158Y-102080000D01*
X134509999Y-102078113D01*
X134433546Y-102085643D01*
X134360031Y-102107944D01*
X134292279Y-102144158D01*
X134292277Y-102144159D01*
X134292278Y-102144159D01*
X134247775Y-102180681D01*
X134247772Y-102180684D01*
X134232894Y-102192894D01*
X134220684Y-102207772D01*
X130565528Y-105862929D01*
X130434175Y-105979088D01*
X130326382Y-106050298D01*
X130228443Y-106095833D01*
X130129295Y-106126928D01*
X130018531Y-106151453D01*
X129896177Y-106175687D01*
X129883247Y-106178556D01*
X129755932Y-106209875D01*
X129727082Y-106218585D01*
X129699237Y-106228597D01*
X129105000Y-106228597D01*
X129048150Y-106234196D01*
X128993485Y-106250779D01*
X128943105Y-106277707D01*
X128898947Y-106313947D01*
X128862707Y-106358105D01*
X128835779Y-106408485D01*
X128819196Y-106463150D01*
X128813597Y-106520000D01*
X127311543Y-106520000D01*
X128031543Y-105800000D01*
X130240841Y-105800000D01*
X130260000Y-105801887D01*
X130336453Y-105794357D01*
X130360969Y-105786920D01*
X130409969Y-105772056D01*
X130477721Y-105735842D01*
X130537106Y-105687106D01*
X130549321Y-105672222D01*
X134741543Y-101480000D01*
X142778453Y-101480000D01*
X145353508Y-104055055D01*
X145387834Y-104091821D01*
X145406604Y-104115608D01*
X145416678Y-104131401D01*
X145422564Y-104143323D01*
X145427909Y-104157697D01*
X145434488Y-104180716D01*
X145442972Y-104215800D01*
X145453603Y-104260454D01*
X145455516Y-104268033D01*
X145468743Y-104317621D01*
X145472557Y-104330683D01*
X145477536Y-104346357D01*
X145482653Y-104372081D01*
X145527129Y-104479454D01*
X145591697Y-104576087D01*
X145673877Y-104658267D01*
X145770510Y-104722835D01*
X145877883Y-104767311D01*
X145991870Y-104789984D01*
X146108090Y-104789984D01*
X146222077Y-104767311D01*
X146329450Y-104722835D01*
X146426083Y-104658267D01*
X146508263Y-104576087D01*
X146572831Y-104479454D01*
X146617307Y-104372081D01*
X146639980Y-104258094D01*
X146639980Y-104141874D01*
X146617307Y-104027887D01*
X146572831Y-103920514D01*
X146508263Y-103823881D01*
X146426083Y-103741701D01*
X146329450Y-103677133D01*
X146222077Y-103632657D01*
X146196353Y-103627540D01*
X146180679Y-103622561D01*
X146167617Y-103618747D01*
X146118029Y-103605520D01*
X146110450Y-103603607D01*
X146065796Y-103592976D01*
X146030712Y-103584492D01*
X146007693Y-103577913D01*
X145993319Y-103572568D01*
X145981397Y-103566682D01*
X145965604Y-103556608D01*
X145941817Y-103537838D01*
X145905051Y-103503512D01*
X143229317Y-100827778D01*
X143217102Y-100812894D01*
X143157717Y-100764158D01*
X143089965Y-100727944D01*
X143016449Y-100705643D01*
X142959155Y-100700000D01*
X142939996Y-100698113D01*
X142920837Y-100700000D01*
X134599159Y-100700000D01*
X134580000Y-100698113D01*
X134560841Y-100700000D01*
X134503547Y-100705643D01*
X134430031Y-100727944D01*
X134362279Y-100764158D01*
X134302894Y-100812894D01*
X134290679Y-100827778D01*
X130098457Y-105020000D01*
X127889148Y-105020000D01*
X127869999Y-105018114D01*
X127850850Y-105020000D01*
X127850841Y-105020000D01*
X127793547Y-105025643D01*
X127720031Y-105047944D01*
X127652279Y-105084158D01*
X127592894Y-105132894D01*
X127580681Y-105147776D01*
X126107773Y-106620684D01*
X126092895Y-106632894D01*
X126080685Y-106647772D01*
X126080681Y-106647776D01*
X126044159Y-106692279D01*
X126007944Y-106760032D01*
X125985643Y-106833547D01*
X125978113Y-106910000D01*
X122722308Y-106910000D01*
X122536483Y-106853637D01*
X122039927Y-106804744D01*
X121543374Y-106853665D01*
X121065906Y-106998519D01*
X120625993Y-107233656D01*
X120400793Y-107569371D01*
X119390000Y-107569371D01*
X119390000Y-102503861D01*
X119483999Y-102601423D01*
X119686462Y-102742220D01*
X119912503Y-102840813D01*
X120005687Y-102862973D01*
X120200000Y-102768563D01*
X120200000Y-100990000D01*
X120400000Y-100990000D01*
X120400000Y-102768563D01*
X120594313Y-102862973D01*
X120687497Y-102840813D01*
X120913538Y-102742220D01*
X121116001Y-102601423D01*
X121287106Y-102423832D01*
X121420277Y-102216273D01*
X121471924Y-102084717D01*
X121656000Y-102084717D01*
X121656001Y-103695284D01*
X121671107Y-103848660D01*
X121730804Y-104045454D01*
X121827747Y-104226822D01*
X121958210Y-104385791D01*
X122117179Y-104516254D01*
X122298547Y-104613197D01*
X122495341Y-104672894D01*
X122700000Y-104693051D01*
X122904660Y-104672894D01*
X123101454Y-104613197D01*
X123282822Y-104516254D01*
X123441791Y-104385791D01*
X123572254Y-104226822D01*
X123669197Y-104045454D01*
X123728894Y-103848660D01*
X123744000Y-103695284D01*
X123744000Y-102084716D01*
X123728894Y-101931340D01*
X123669197Y-101734546D01*
X123572254Y-101553178D01*
X123441791Y-101394209D01*
X123282822Y-101263746D01*
X123101453Y-101166803D01*
X122904659Y-101107106D01*
X122700000Y-101086949D01*
X122495340Y-101107106D01*
X122298546Y-101166803D01*
X122117178Y-101263746D01*
X121958209Y-101394209D01*
X121827746Y-101553178D01*
X121730803Y-101734547D01*
X121671106Y-101931341D01*
X121656000Y-102084717D01*
X121471924Y-102084717D01*
X121510396Y-101986722D01*
X121554000Y-101744000D01*
X121554000Y-100990000D01*
X120400000Y-100990000D01*
X120200000Y-100990000D01*
X120180000Y-100990000D01*
X120180000Y-100790000D01*
X120200000Y-100790000D01*
X120200000Y-99011437D01*
X120400000Y-99011437D01*
X120400000Y-100790000D01*
X121554000Y-100790000D01*
X121554000Y-100084717D01*
X125356000Y-100084717D01*
X125356001Y-101695284D01*
X125371107Y-101848660D01*
X125430804Y-102045454D01*
X125527747Y-102226822D01*
X125658210Y-102385791D01*
X125817179Y-102516254D01*
X125998547Y-102613197D01*
X126195341Y-102672894D01*
X126400000Y-102693051D01*
X126604660Y-102672894D01*
X126801454Y-102613197D01*
X126982822Y-102516254D01*
X127141791Y-102385791D01*
X127156000Y-102368477D01*
X127156001Y-103695284D01*
X127171107Y-103848660D01*
X127230804Y-104045454D01*
X127327747Y-104226822D01*
X127458210Y-104385791D01*
X127617179Y-104516254D01*
X127798547Y-104613197D01*
X127995341Y-104672894D01*
X128200000Y-104693051D01*
X128404660Y-104672894D01*
X128601454Y-104613197D01*
X128782822Y-104516254D01*
X128941791Y-104385791D01*
X129072254Y-104226822D01*
X129169197Y-104045454D01*
X129228894Y-103848660D01*
X129244000Y-103695284D01*
X129244000Y-102084716D01*
X129228894Y-101931340D01*
X129169197Y-101734546D01*
X129072254Y-101553178D01*
X128941791Y-101394209D01*
X128782822Y-101263746D01*
X128601453Y-101166803D01*
X128404659Y-101107106D01*
X128200000Y-101086949D01*
X127995340Y-101107106D01*
X127798546Y-101166803D01*
X127617178Y-101263746D01*
X127458209Y-101394209D01*
X127444000Y-101411523D01*
X127444000Y-100084717D01*
X130856000Y-100084717D01*
X130856001Y-101695284D01*
X130871107Y-101848660D01*
X130930804Y-102045454D01*
X131027747Y-102226822D01*
X131158210Y-102385791D01*
X131317179Y-102516254D01*
X131498547Y-102613197D01*
X131695341Y-102672894D01*
X131900000Y-102693051D01*
X132104660Y-102672894D01*
X132301454Y-102613197D01*
X132482822Y-102516254D01*
X132641791Y-102385791D01*
X132772254Y-102226822D01*
X132869197Y-102045454D01*
X132928894Y-101848660D01*
X132944000Y-101695284D01*
X132944000Y-100084716D01*
X132928894Y-99931340D01*
X132925454Y-99920000D01*
X133828409Y-99920000D01*
X133911872Y-99923790D01*
X133965115Y-99932108D01*
X133993597Y-99940449D01*
X133993597Y-100015000D01*
X133999196Y-100071850D01*
X134015779Y-100126515D01*
X134042707Y-100176895D01*
X134078947Y-100221053D01*
X134123105Y-100257293D01*
X134173485Y-100284221D01*
X134228150Y-100300804D01*
X134285000Y-100306403D01*
X135205000Y-100306403D01*
X135261850Y-100300804D01*
X135316515Y-100284221D01*
X135366895Y-100257293D01*
X135411053Y-100221053D01*
X135447293Y-100176895D01*
X135474221Y-100126515D01*
X135490804Y-100071850D01*
X135496403Y-100015000D01*
X135496403Y-99045000D01*
X135543597Y-99045000D01*
X135543597Y-100015000D01*
X135549196Y-100071850D01*
X135565779Y-100126515D01*
X135592707Y-100176895D01*
X135628947Y-100221053D01*
X135673105Y-100257293D01*
X135723485Y-100284221D01*
X135778150Y-100300804D01*
X135835000Y-100306403D01*
X136755000Y-100306403D01*
X136811850Y-100300804D01*
X136866515Y-100284221D01*
X136916895Y-100257293D01*
X136961053Y-100221053D01*
X136997293Y-100176895D01*
X137024221Y-100126515D01*
X137040804Y-100071850D01*
X137046403Y-100015000D01*
X137046403Y-99940448D01*
X137074884Y-99932108D01*
X137128127Y-99923790D01*
X137211591Y-99920000D01*
X137243201Y-99920000D01*
X137249815Y-99952462D01*
X137255071Y-99973878D01*
X137262673Y-100012095D01*
X137307149Y-100119468D01*
X137371717Y-100216101D01*
X137453897Y-100298281D01*
X137550530Y-100362849D01*
X137657903Y-100407325D01*
X137771890Y-100429998D01*
X137888110Y-100429998D01*
X138002097Y-100407325D01*
X138109470Y-100362849D01*
X138206103Y-100298281D01*
X138288283Y-100216101D01*
X138352851Y-100119468D01*
X138397327Y-100012095D01*
X138420000Y-99898108D01*
X138420000Y-99781888D01*
X138397327Y-99667901D01*
X138352851Y-99560528D01*
X138288283Y-99463895D01*
X138206103Y-99381715D01*
X138109470Y-99317147D01*
X138002097Y-99272671D01*
X137888110Y-99249998D01*
X137837880Y-99249998D01*
X137806104Y-99248271D01*
X137790967Y-99245643D01*
X137786776Y-99244415D01*
X137737723Y-99204158D01*
X137669971Y-99167944D01*
X137596455Y-99145643D01*
X137539161Y-99140000D01*
X137520002Y-99138113D01*
X137500843Y-99140000D01*
X137211573Y-99140000D01*
X137128136Y-99136211D01*
X137074884Y-99127891D01*
X137046403Y-99119551D01*
X137046403Y-99045000D01*
X137040804Y-98988150D01*
X137024221Y-98933485D01*
X136997293Y-98883105D01*
X136961053Y-98838947D01*
X136916895Y-98802707D01*
X136866515Y-98775779D01*
X136811850Y-98759196D01*
X136755000Y-98753597D01*
X135835000Y-98753597D01*
X135778150Y-98759196D01*
X135723485Y-98775779D01*
X135673105Y-98802707D01*
X135628947Y-98838947D01*
X135592707Y-98883105D01*
X135565779Y-98933485D01*
X135549196Y-98988150D01*
X135543597Y-99045000D01*
X135496403Y-99045000D01*
X135490804Y-98988150D01*
X135474221Y-98933485D01*
X135447293Y-98883105D01*
X135411053Y-98838947D01*
X135366895Y-98802707D01*
X135316515Y-98775779D01*
X135261850Y-98759196D01*
X135205000Y-98753597D01*
X134285000Y-98753597D01*
X134228150Y-98759196D01*
X134173485Y-98775779D01*
X134123105Y-98802707D01*
X134078947Y-98838947D01*
X134042707Y-98883105D01*
X134015779Y-98933485D01*
X133999196Y-98988150D01*
X133993597Y-99045000D01*
X133993597Y-99119550D01*
X133965115Y-99127891D01*
X133911863Y-99136211D01*
X133828427Y-99140000D01*
X132529159Y-99140000D01*
X132510000Y-99138113D01*
X132433546Y-99145643D01*
X132379378Y-99162075D01*
X132360031Y-99167944D01*
X132331809Y-99183029D01*
X132301453Y-99166803D01*
X132104659Y-99107106D01*
X131900000Y-99086949D01*
X131695340Y-99107106D01*
X131498546Y-99166803D01*
X131317178Y-99263746D01*
X131158209Y-99394209D01*
X131027746Y-99553178D01*
X130930803Y-99734547D01*
X130871106Y-99931341D01*
X130856000Y-100084717D01*
X127444000Y-100084717D01*
X127444000Y-100084716D01*
X127428894Y-99931340D01*
X127369197Y-99734546D01*
X127319665Y-99641878D01*
X128421543Y-98540000D01*
X137213828Y-98540000D01*
X137303234Y-98543809D01*
X137362930Y-98552504D01*
X137393597Y-98560806D01*
X137393597Y-98605000D01*
X137399196Y-98661850D01*
X137415779Y-98716515D01*
X137442707Y-98766895D01*
X137478947Y-98811053D01*
X137523105Y-98847293D01*
X137573485Y-98874221D01*
X137628150Y-98890804D01*
X137685000Y-98896403D01*
X138605000Y-98896403D01*
X138661850Y-98890804D01*
X138716515Y-98874221D01*
X138766895Y-98847293D01*
X138811053Y-98811053D01*
X138847293Y-98766895D01*
X138874221Y-98716515D01*
X138890804Y-98661850D01*
X138896403Y-98605000D01*
X138896403Y-97635000D01*
X138943597Y-97635000D01*
X138943597Y-98605000D01*
X138949196Y-98661850D01*
X138965779Y-98716515D01*
X138992707Y-98766895D01*
X139028947Y-98811053D01*
X139073105Y-98847293D01*
X139123485Y-98874221D01*
X139178150Y-98890804D01*
X139235000Y-98896403D01*
X139275922Y-98896403D01*
X139277649Y-98902565D01*
X139286197Y-98959488D01*
X139290001Y-99046351D01*
X139290000Y-99235014D01*
X139288273Y-99285312D01*
X139284726Y-99315398D01*
X139280681Y-99333700D01*
X139276416Y-99346281D01*
X139270032Y-99360225D01*
X139258412Y-99381145D01*
X139239428Y-99412239D01*
X139215538Y-99451057D01*
X139211530Y-99457770D01*
X139185819Y-99502187D01*
X139179278Y-99514125D01*
X139171717Y-99528728D01*
X139157149Y-99550530D01*
X139112673Y-99657903D01*
X139090000Y-99771890D01*
X139090000Y-99888110D01*
X139112673Y-100002097D01*
X139157149Y-100109470D01*
X139221717Y-100206103D01*
X139303897Y-100288283D01*
X139400530Y-100352851D01*
X139507903Y-100397327D01*
X139621890Y-100420000D01*
X139738110Y-100420000D01*
X139852097Y-100397327D01*
X139959470Y-100352851D01*
X140056103Y-100288283D01*
X140138283Y-100206103D01*
X140202851Y-100109470D01*
X140247327Y-100002097D01*
X140270000Y-99888110D01*
X140270000Y-99771890D01*
X140247327Y-99657903D01*
X140202851Y-99550530D01*
X140188278Y-99528720D01*
X140180719Y-99514122D01*
X140174180Y-99502187D01*
X140148469Y-99457770D01*
X140144461Y-99451057D01*
X140120571Y-99412239D01*
X140101587Y-99381145D01*
X140089967Y-99360225D01*
X140083583Y-99346281D01*
X140079318Y-99333700D01*
X140075273Y-99315398D01*
X140071726Y-99285312D01*
X140070000Y-99235033D01*
X140070000Y-99046519D01*
X140073766Y-98962892D01*
X140082054Y-98909561D01*
X140085903Y-98896403D01*
X140155000Y-98896403D01*
X140211850Y-98890804D01*
X140266515Y-98874221D01*
X140316895Y-98847293D01*
X140361053Y-98811053D01*
X140397293Y-98766895D01*
X140424221Y-98716515D01*
X140440804Y-98661850D01*
X140446403Y-98605000D01*
X140446403Y-97635000D01*
X140440804Y-97578150D01*
X140424221Y-97523485D01*
X140397293Y-97473105D01*
X140361053Y-97428947D01*
X140316895Y-97392707D01*
X140266515Y-97365779D01*
X140211850Y-97349196D01*
X140155000Y-97343597D01*
X139235000Y-97343597D01*
X139178150Y-97349196D01*
X139123485Y-97365779D01*
X139073105Y-97392707D01*
X139028947Y-97428947D01*
X138992707Y-97473105D01*
X138965779Y-97523485D01*
X138949196Y-97578150D01*
X138943597Y-97635000D01*
X138896403Y-97635000D01*
X138890804Y-97578150D01*
X138874221Y-97523485D01*
X138847293Y-97473105D01*
X138811053Y-97428947D01*
X138766895Y-97392707D01*
X138716515Y-97365779D01*
X138661850Y-97349196D01*
X138605000Y-97343597D01*
X137685000Y-97343597D01*
X137628150Y-97349196D01*
X137573485Y-97365779D01*
X137523105Y-97392707D01*
X137478947Y-97428947D01*
X137442707Y-97473105D01*
X137415779Y-97523485D01*
X137399196Y-97578150D01*
X137393597Y-97635000D01*
X137393597Y-97733350D01*
X137384044Y-97737704D01*
X137349062Y-97748033D01*
X137296471Y-97756250D01*
X137213447Y-97760000D01*
X128279148Y-97760000D01*
X128259999Y-97758114D01*
X128240850Y-97760000D01*
X128240841Y-97760000D01*
X128183547Y-97765643D01*
X128110031Y-97787944D01*
X128042279Y-97824158D01*
X127982894Y-97872894D01*
X127970679Y-97887778D01*
X126717209Y-99141248D01*
X126604659Y-99107106D01*
X126400000Y-99086949D01*
X126195340Y-99107106D01*
X125998546Y-99166803D01*
X125817178Y-99263746D01*
X125658209Y-99394209D01*
X125527746Y-99553178D01*
X125430803Y-99734547D01*
X125371106Y-99931341D01*
X125356000Y-100084717D01*
X121554000Y-100084717D01*
X121554000Y-100036000D01*
X121510396Y-99793278D01*
X121420277Y-99563727D01*
X121287106Y-99356168D01*
X121116001Y-99178577D01*
X120913538Y-99037780D01*
X120687497Y-98939187D01*
X120594313Y-98917027D01*
X120400000Y-99011437D01*
X120200000Y-99011437D01*
X120005687Y-98917027D01*
X119912503Y-98939187D01*
X119686462Y-99037780D01*
X119483999Y-99178577D01*
X119390000Y-99276139D01*
X119390000Y-97160000D01*
X149760000Y-97160000D01*
X149760001Y-107233289D01*
G37*
G04 #@! TD.AperFunction*
D18*
X137423646Y-99445735D02*
X137478127Y-99453900D01*
X137524402Y-99465907D01*
X137565083Y-99480543D01*
X137602707Y-99496624D01*
X137639707Y-99512903D01*
X137640203Y-99513108D01*
X137678517Y-99528068D01*
X137679564Y-99528425D01*
X137721596Y-99540745D01*
X137722996Y-99541071D01*
X137771149Y-99549431D01*
X137772632Y-99549599D01*
X137820054Y-99552176D01*
X137919537Y-99933038D01*
X137556227Y-99925935D01*
X137546319Y-99891529D01*
X137537525Y-99848372D01*
X137530410Y-99805760D01*
X137530385Y-99805620D01*
X137523128Y-99764976D01*
X137522953Y-99764153D01*
X137513689Y-99726771D01*
X137513158Y-99725121D01*
X137499985Y-99692091D01*
X137498652Y-99689597D01*
X137479671Y-99662009D01*
X137478065Y-99660107D01*
X137477074Y-99659237D01*
X137450384Y-99638181D01*
X137448288Y-99636838D01*
X137446925Y-99636241D01*
X137410624Y-99622808D01*
X137407464Y-99622080D01*
X137371106Y-99618491D01*
X137371106Y-99443301D01*
X137423646Y-99445735D01*
G04 #@! TA.AperFunction,Conductor*
D17*
G36*
X137423646Y-99445735D02*
G01*
X137478127Y-99453900D01*
X137524402Y-99465907D01*
X137565083Y-99480543D01*
X137602707Y-99496624D01*
X137639707Y-99512903D01*
X137640203Y-99513108D01*
X137678517Y-99528068D01*
X137679564Y-99528425D01*
X137721596Y-99540745D01*
X137722996Y-99541071D01*
X137771149Y-99549431D01*
X137772632Y-99549599D01*
X137820054Y-99552176D01*
X137919537Y-99933038D01*
X137556227Y-99925935D01*
X137546319Y-99891529D01*
X137537525Y-99848372D01*
X137530410Y-99805760D01*
X137530385Y-99805620D01*
X137523128Y-99764976D01*
X137522953Y-99764153D01*
X137513689Y-99726771D01*
X137513158Y-99725121D01*
X137499985Y-99692091D01*
X137498652Y-99689597D01*
X137479671Y-99662009D01*
X137478065Y-99660107D01*
X137477074Y-99659237D01*
X137450384Y-99638181D01*
X137448288Y-99636838D01*
X137446925Y-99636241D01*
X137410624Y-99622808D01*
X137407464Y-99622080D01*
X137371106Y-99618491D01*
X137371106Y-99443301D01*
X137423646Y-99445735D01*
G37*
G04 #@! TD.AperFunction*
D18*
X136572482Y-99171601D02*
X136641878Y-99215817D01*
X136702225Y-99259107D01*
X136757477Y-99300415D01*
X136757754Y-99300617D01*
X136811650Y-99338682D01*
X136812471Y-99339215D01*
X136868869Y-99372856D01*
X136870191Y-99373543D01*
X136933042Y-99401645D01*
X136934657Y-99402239D01*
X137007911Y-99423691D01*
X137009520Y-99424051D01*
X137097128Y-99437738D01*
X137098512Y-99437877D01*
X137192300Y-99442136D01*
X137192300Y-99617863D01*
X137098512Y-99622122D01*
X137097128Y-99622261D01*
X137009520Y-99635948D01*
X137007911Y-99636308D01*
X136934657Y-99657760D01*
X136933042Y-99658354D01*
X136870191Y-99686456D01*
X136868869Y-99687143D01*
X136812471Y-99720784D01*
X136811650Y-99721317D01*
X136757754Y-99759382D01*
X136757477Y-99759584D01*
X136702225Y-99800892D01*
X136641878Y-99844182D01*
X136572481Y-99888398D01*
X136497657Y-99928446D01*
X136083322Y-99530000D01*
X136497657Y-99131554D01*
X136572482Y-99171601D01*
G04 #@! TA.AperFunction,Conductor*
D17*
G36*
X136572482Y-99171601D02*
G01*
X136641878Y-99215817D01*
X136702225Y-99259107D01*
X136757477Y-99300415D01*
X136757754Y-99300617D01*
X136811650Y-99338682D01*
X136812471Y-99339215D01*
X136868869Y-99372856D01*
X136870191Y-99373543D01*
X136933042Y-99401645D01*
X136934657Y-99402239D01*
X137007911Y-99423691D01*
X137009520Y-99424051D01*
X137097128Y-99437738D01*
X137098512Y-99437877D01*
X137192300Y-99442136D01*
X137192300Y-99617863D01*
X137098512Y-99622122D01*
X137097128Y-99622261D01*
X137009520Y-99635948D01*
X137007911Y-99636308D01*
X136934657Y-99657760D01*
X136933042Y-99658354D01*
X136870191Y-99686456D01*
X136868869Y-99687143D01*
X136812471Y-99720784D01*
X136811650Y-99721317D01*
X136757754Y-99759382D01*
X136757477Y-99759584D01*
X136702225Y-99800892D01*
X136641878Y-99844182D01*
X136572481Y-99888398D01*
X136497657Y-99928446D01*
X136083322Y-99530000D01*
X136497657Y-99131554D01*
X136572482Y-99171601D01*
G37*
G04 #@! TD.AperFunction*
D18*
X139769617Y-99307734D02*
X139769697Y-99308785D01*
X139776358Y-99365286D01*
X139776570Y-99366540D01*
X139787173Y-99414511D01*
X139787546Y-99415847D01*
X139801685Y-99457556D01*
X139802166Y-99458766D01*
X139819434Y-99496480D01*
X139819879Y-99497360D01*
X139839868Y-99533349D01*
X139840131Y-99533800D01*
X139862435Y-99570331D01*
X139862458Y-99570369D01*
X139886588Y-99609577D01*
X139912047Y-99653558D01*
X139934537Y-99696992D01*
X139680000Y-99961678D01*
X139425463Y-99696992D01*
X139447952Y-99653558D01*
X139473411Y-99609577D01*
X139497541Y-99570369D01*
X139497564Y-99570331D01*
X139519868Y-99533800D01*
X139520131Y-99533349D01*
X139540120Y-99497360D01*
X139540565Y-99496480D01*
X139557833Y-99458766D01*
X139558314Y-99457556D01*
X139572453Y-99415847D01*
X139572826Y-99414511D01*
X139583429Y-99366540D01*
X139583641Y-99365286D01*
X139590302Y-99308785D01*
X139590382Y-99307734D01*
X139592272Y-99252700D01*
X139767728Y-99252700D01*
X139769617Y-99307734D01*
G04 #@! TA.AperFunction,Conductor*
D17*
G36*
X139769617Y-99307734D02*
G01*
X139769697Y-99308785D01*
X139776358Y-99365286D01*
X139776570Y-99366540D01*
X139787173Y-99414511D01*
X139787546Y-99415847D01*
X139801685Y-99457556D01*
X139802166Y-99458766D01*
X139819434Y-99496480D01*
X139819879Y-99497360D01*
X139839868Y-99533349D01*
X139840131Y-99533800D01*
X139862435Y-99570331D01*
X139862458Y-99570369D01*
X139886588Y-99609577D01*
X139912047Y-99653558D01*
X139934537Y-99696992D01*
X139680000Y-99961678D01*
X139425463Y-99696992D01*
X139447952Y-99653558D01*
X139473411Y-99609577D01*
X139497541Y-99570369D01*
X139497564Y-99570331D01*
X139519868Y-99533800D01*
X139520131Y-99533349D01*
X139540120Y-99497360D01*
X139540565Y-99496480D01*
X139557833Y-99458766D01*
X139558314Y-99457556D01*
X139572453Y-99415847D01*
X139572826Y-99414511D01*
X139583429Y-99366540D01*
X139583641Y-99365286D01*
X139590302Y-99308785D01*
X139590382Y-99307734D01*
X139592272Y-99252700D01*
X139767728Y-99252700D01*
X139769617Y-99307734D01*
G37*
G04 #@! TD.AperFunction*
D18*
X140086640Y-98335546D02*
X140044191Y-98409284D01*
X139997942Y-98477780D01*
X139953125Y-98537526D01*
X139910768Y-98592372D01*
X139910520Y-98592704D01*
X139871800Y-98646363D01*
X139871227Y-98647230D01*
X139837228Y-98703541D01*
X139836515Y-98704901D01*
X139808272Y-98767771D01*
X139807668Y-98769409D01*
X139786214Y-98842744D01*
X139785854Y-98844360D01*
X139772224Y-98932066D01*
X139772086Y-98933445D01*
X139767859Y-99027300D01*
X139592156Y-99027300D01*
X139587938Y-98930975D01*
X139587809Y-98929645D01*
X139574315Y-98839779D01*
X139573985Y-98838237D01*
X139552877Y-98762928D01*
X139552333Y-98761381D01*
X139524742Y-98696583D01*
X139524115Y-98695313D01*
X139491171Y-98636979D01*
X139490690Y-98636194D01*
X139453525Y-98580279D01*
X139453354Y-98580029D01*
X139413173Y-98522593D01*
X139371235Y-98459793D01*
X139328612Y-98387573D01*
X139290156Y-98309569D01*
X139701899Y-97908435D01*
X140086640Y-98335546D01*
G04 #@! TA.AperFunction,Conductor*
D17*
G36*
X140086640Y-98335546D02*
G01*
X140044191Y-98409284D01*
X139997942Y-98477780D01*
X139953125Y-98537526D01*
X139910768Y-98592372D01*
X139910520Y-98592704D01*
X139871800Y-98646363D01*
X139871227Y-98647230D01*
X139837228Y-98703541D01*
X139836515Y-98704901D01*
X139808272Y-98767771D01*
X139807668Y-98769409D01*
X139786214Y-98842744D01*
X139785854Y-98844360D01*
X139772224Y-98932066D01*
X139772086Y-98933445D01*
X139767859Y-99027300D01*
X139592156Y-99027300D01*
X139587938Y-98930975D01*
X139587809Y-98929645D01*
X139574315Y-98839779D01*
X139573985Y-98838237D01*
X139552877Y-98762928D01*
X139552333Y-98761381D01*
X139524742Y-98696583D01*
X139524115Y-98695313D01*
X139491171Y-98636979D01*
X139490690Y-98636194D01*
X139453525Y-98580279D01*
X139453354Y-98580029D01*
X139413173Y-98522593D01*
X139371235Y-98459793D01*
X139328612Y-98387573D01*
X139290156Y-98309569D01*
X139701899Y-97908435D01*
X140086640Y-98335546D01*
G37*
G04 #@! TD.AperFunction*
D18*
X138356238Y-98106373D02*
X137968410Y-98530674D01*
X137887812Y-98494113D01*
X137813300Y-98453292D01*
X137748541Y-98412846D01*
X137689366Y-98373855D01*
X137689151Y-98373717D01*
X137631656Y-98337473D01*
X137630911Y-98337038D01*
X137571087Y-98304778D01*
X137569868Y-98304202D01*
X137503592Y-98277089D01*
X137502102Y-98276584D01*
X137425250Y-98255779D01*
X137423761Y-98255471D01*
X137332208Y-98242136D01*
X137330919Y-98242015D01*
X137232700Y-98237830D01*
X137232700Y-98062139D01*
X137326057Y-98057923D01*
X137327445Y-98057784D01*
X137414744Y-98044144D01*
X137416380Y-98043776D01*
X137489341Y-98022232D01*
X137491011Y-98021608D01*
X137553482Y-97993135D01*
X137554881Y-97992389D01*
X137610711Y-97957961D01*
X137611620Y-97957345D01*
X137664656Y-97917935D01*
X137665031Y-97917645D01*
X137719070Y-97874269D01*
X137777791Y-97828034D01*
X137844952Y-97779942D01*
X137917090Y-97735412D01*
X138356238Y-98106373D01*
G04 #@! TA.AperFunction,Conductor*
D17*
G36*
X138356238Y-98106373D02*
G01*
X137968410Y-98530674D01*
X137887812Y-98494113D01*
X137813300Y-98453292D01*
X137748541Y-98412846D01*
X137689366Y-98373855D01*
X137689151Y-98373717D01*
X137631656Y-98337473D01*
X137630911Y-98337038D01*
X137571087Y-98304778D01*
X137569868Y-98304202D01*
X137503592Y-98277089D01*
X137502102Y-98276584D01*
X137425250Y-98255779D01*
X137423761Y-98255471D01*
X137332208Y-98242136D01*
X137330919Y-98242015D01*
X137232700Y-98237830D01*
X137232700Y-98062139D01*
X137326057Y-98057923D01*
X137327445Y-98057784D01*
X137414744Y-98044144D01*
X137416380Y-98043776D01*
X137489341Y-98022232D01*
X137491011Y-98021608D01*
X137553482Y-97993135D01*
X137554881Y-97992389D01*
X137610711Y-97957961D01*
X137611620Y-97957345D01*
X137664656Y-97917935D01*
X137665031Y-97917645D01*
X137719070Y-97874269D01*
X137777791Y-97828034D01*
X137844952Y-97779942D01*
X137917090Y-97735412D01*
X138356238Y-98106373D01*
G37*
G04 #@! TD.AperFunction*
D18*
X126901800Y-99633149D02*
X126827878Y-99721088D01*
X126826318Y-99723428D01*
X126778919Y-99815122D01*
X126777758Y-99818410D01*
X126759736Y-99906548D01*
X126759517Y-99910078D01*
X126766227Y-99996265D01*
X126766766Y-99999064D01*
X126793568Y-100084905D01*
X126794264Y-100086663D01*
X126836515Y-100173765D01*
X126837003Y-100174673D01*
X126890061Y-100264640D01*
X126890241Y-100264936D01*
X126949398Y-100359267D01*
X127009925Y-100459419D01*
X127063060Y-100559178D01*
X126402477Y-101246103D01*
X125882788Y-100358937D01*
X125984703Y-100258196D01*
X126078615Y-100167693D01*
X126161594Y-100089736D01*
X126237875Y-100019556D01*
X126311556Y-99952514D01*
X126311565Y-99952506D01*
X126386835Y-99883881D01*
X126386901Y-99883821D01*
X126467850Y-99808977D01*
X126467949Y-99808884D01*
X126558723Y-99723139D01*
X126558832Y-99723035D01*
X126663573Y-99621706D01*
X126663677Y-99621604D01*
X126777549Y-99508898D01*
X126901800Y-99633149D01*
G04 #@! TA.AperFunction,Conductor*
D17*
G36*
X126901800Y-99633149D02*
G01*
X126827878Y-99721088D01*
X126826318Y-99723428D01*
X126778919Y-99815122D01*
X126777758Y-99818410D01*
X126759736Y-99906548D01*
X126759517Y-99910078D01*
X126766227Y-99996265D01*
X126766766Y-99999064D01*
X126793568Y-100084905D01*
X126794264Y-100086663D01*
X126836515Y-100173765D01*
X126837003Y-100174673D01*
X126890061Y-100264640D01*
X126890241Y-100264936D01*
X126949398Y-100359267D01*
X127009925Y-100459419D01*
X127063060Y-100559178D01*
X126402477Y-101246103D01*
X125882788Y-100358937D01*
X125984703Y-100258196D01*
X126078615Y-100167693D01*
X126161594Y-100089736D01*
X126237875Y-100019556D01*
X126311556Y-99952514D01*
X126311565Y-99952506D01*
X126386835Y-99883881D01*
X126386901Y-99883821D01*
X126467850Y-99808977D01*
X126467949Y-99808884D01*
X126558723Y-99723139D01*
X126558832Y-99723035D01*
X126663573Y-99621706D01*
X126663677Y-99621604D01*
X126777549Y-99508898D01*
X126901800Y-99633149D01*
G37*
G04 #@! TD.AperFunction*
D18*
X130888354Y-106216295D02*
X130795576Y-106322718D01*
X130794289Y-106324481D01*
X130729072Y-106432067D01*
X130727934Y-106434486D01*
X130692351Y-106537000D01*
X130691734Y-106539694D01*
X130680065Y-106639841D01*
X130680007Y-106642134D01*
X130686534Y-106742621D01*
X130686716Y-106744091D01*
X130705720Y-106847621D01*
X130705850Y-106848242D01*
X130731588Y-106957427D01*
X130758309Y-107074824D01*
X130780275Y-107202838D01*
X130791181Y-107335727D01*
X129789014Y-107741261D01*
X129423012Y-106724163D01*
X129562069Y-106622429D01*
X129698758Y-106550442D01*
X129828884Y-106503654D01*
X129955269Y-106472563D01*
X130080492Y-106447761D01*
X130080770Y-106447703D01*
X130206917Y-106419772D01*
X130207973Y-106419490D01*
X130337220Y-106378955D01*
X130338773Y-106378353D01*
X130473572Y-106315681D01*
X130475218Y-106314762D01*
X130618027Y-106220420D01*
X130619440Y-106219337D01*
X130763765Y-106091706D01*
X130888354Y-106216295D01*
G04 #@! TA.AperFunction,Conductor*
D17*
G36*
X130888354Y-106216295D02*
G01*
X130795576Y-106322718D01*
X130794289Y-106324481D01*
X130729072Y-106432067D01*
X130727934Y-106434486D01*
X130692351Y-106537000D01*
X130691734Y-106539694D01*
X130680065Y-106639841D01*
X130680007Y-106642134D01*
X130686534Y-106742621D01*
X130686716Y-106744091D01*
X130705720Y-106847621D01*
X130705850Y-106848242D01*
X130731588Y-106957427D01*
X130758309Y-107074824D01*
X130780275Y-107202838D01*
X130791181Y-107335727D01*
X129789014Y-107741261D01*
X129423012Y-106724163D01*
X129562069Y-106622429D01*
X129698758Y-106550442D01*
X129828884Y-106503654D01*
X129955269Y-106472563D01*
X130080492Y-106447761D01*
X130080770Y-106447703D01*
X130206917Y-106419772D01*
X130207973Y-106419490D01*
X130337220Y-106378955D01*
X130338773Y-106378353D01*
X130473572Y-106315681D01*
X130475218Y-106314762D01*
X130618027Y-106220420D01*
X130619440Y-106219337D01*
X130763765Y-106091706D01*
X130888354Y-106216295D01*
G37*
G04 #@! TD.AperFunction*
D18*
X142824072Y-103767334D02*
X142824872Y-103768021D01*
X142869534Y-103803263D01*
X142870571Y-103804000D01*
X142911989Y-103830422D01*
X142913197Y-103831103D01*
X142952687Y-103850598D01*
X142953882Y-103851114D01*
X142992760Y-103865572D01*
X142993697Y-103865879D01*
X143033280Y-103877192D01*
X143033785Y-103877325D01*
X143075386Y-103887385D01*
X143075430Y-103887396D01*
X143120208Y-103898056D01*
X143169334Y-103911160D01*
X143215932Y-103925963D01*
X143223110Y-104293110D01*
X142855963Y-104285932D01*
X142841160Y-104239334D01*
X142828056Y-104190208D01*
X142817396Y-104145430D01*
X142817385Y-104145386D01*
X142807325Y-104103785D01*
X142807192Y-104103280D01*
X142795879Y-104063697D01*
X142795572Y-104062760D01*
X142781114Y-104023882D01*
X142780598Y-104022687D01*
X142761103Y-103983197D01*
X142760422Y-103981989D01*
X142734000Y-103940571D01*
X142733263Y-103939534D01*
X142698021Y-103894872D01*
X142697334Y-103894072D01*
X142659755Y-103853822D01*
X142783822Y-103729755D01*
X142824072Y-103767334D01*
G04 #@! TA.AperFunction,Conductor*
D17*
G36*
X142824072Y-103767334D02*
G01*
X142824872Y-103768021D01*
X142869534Y-103803263D01*
X142870571Y-103804000D01*
X142911989Y-103830422D01*
X142913197Y-103831103D01*
X142952687Y-103850598D01*
X142953882Y-103851114D01*
X142992760Y-103865572D01*
X142993697Y-103865879D01*
X143033280Y-103877192D01*
X143033785Y-103877325D01*
X143075386Y-103887385D01*
X143075430Y-103887396D01*
X143120208Y-103898056D01*
X143169334Y-103911160D01*
X143215932Y-103925963D01*
X143223110Y-104293110D01*
X142855963Y-104285932D01*
X142841160Y-104239334D01*
X142828056Y-104190208D01*
X142817396Y-104145430D01*
X142817385Y-104145386D01*
X142807325Y-104103785D01*
X142807192Y-104103280D01*
X142795879Y-104063697D01*
X142795572Y-104062760D01*
X142781114Y-104023882D01*
X142780598Y-104022687D01*
X142761103Y-103983197D01*
X142760422Y-103981989D01*
X142734000Y-103940571D01*
X142733263Y-103939534D01*
X142698021Y-103894872D01*
X142697334Y-103894072D01*
X142659755Y-103853822D01*
X142783822Y-103729755D01*
X142824072Y-103767334D01*
G37*
G04 #@! TD.AperFunction*
D18*
X143374537Y-107613008D02*
X143352047Y-107656441D01*
X143326588Y-107700422D01*
X143302458Y-107739630D01*
X143302435Y-107739668D01*
X143280131Y-107776199D01*
X143279868Y-107776650D01*
X143259879Y-107812639D01*
X143259434Y-107813519D01*
X143242166Y-107851233D01*
X143241685Y-107852443D01*
X143227546Y-107894152D01*
X143227173Y-107895488D01*
X143216570Y-107943459D01*
X143216358Y-107944713D01*
X143209697Y-108001214D01*
X143209617Y-108002265D01*
X143207728Y-108057300D01*
X143032272Y-108057300D01*
X143030382Y-108002265D01*
X143030302Y-108001214D01*
X143023641Y-107944713D01*
X143023429Y-107943459D01*
X143012826Y-107895488D01*
X143012453Y-107894152D01*
X142998314Y-107852443D01*
X142997833Y-107851233D01*
X142980565Y-107813519D01*
X142980120Y-107812639D01*
X142960131Y-107776650D01*
X142959868Y-107776199D01*
X142937564Y-107739668D01*
X142937541Y-107739630D01*
X142913411Y-107700422D01*
X142887952Y-107656441D01*
X142865463Y-107613008D01*
X143120000Y-107348322D01*
X143374537Y-107613008D01*
G04 #@! TA.AperFunction,Conductor*
D17*
G36*
X143374537Y-107613008D02*
G01*
X143352047Y-107656441D01*
X143326588Y-107700422D01*
X143302458Y-107739630D01*
X143302435Y-107739668D01*
X143280131Y-107776199D01*
X143279868Y-107776650D01*
X143259879Y-107812639D01*
X143259434Y-107813519D01*
X143242166Y-107851233D01*
X143241685Y-107852443D01*
X143227546Y-107894152D01*
X143227173Y-107895488D01*
X143216570Y-107943459D01*
X143216358Y-107944713D01*
X143209697Y-108001214D01*
X143209617Y-108002265D01*
X143207728Y-108057300D01*
X143032272Y-108057300D01*
X143030382Y-108002265D01*
X143030302Y-108001214D01*
X143023641Y-107944713D01*
X143023429Y-107943459D01*
X143012826Y-107895488D01*
X143012453Y-107894152D01*
X142998314Y-107852443D01*
X142997833Y-107851233D01*
X142980565Y-107813519D01*
X142980120Y-107812639D01*
X142960131Y-107776650D01*
X142959868Y-107776199D01*
X142937564Y-107739668D01*
X142937541Y-107739630D01*
X142913411Y-107700422D01*
X142887952Y-107656441D01*
X142865463Y-107613008D01*
X143120000Y-107348322D01*
X143374537Y-107613008D01*
G37*
G04 #@! TD.AperFunction*
D18*
X153110033Y-112417185D02*
X152998758Y-112415903D01*
X152895539Y-112412116D01*
X152805237Y-112406531D01*
X152722961Y-112399748D01*
X152643707Y-112392355D01*
X152643682Y-112392352D01*
X152562545Y-112384952D01*
X152562371Y-112384938D01*
X152474491Y-112378137D01*
X152474224Y-112378119D01*
X152374660Y-112372520D01*
X152374362Y-112372507D01*
X152258171Y-112368707D01*
X152257885Y-112368701D01*
X152132700Y-112367429D01*
X152132700Y-112191785D01*
X152211417Y-112185893D01*
X152213739Y-112185500D01*
X152287242Y-112165915D01*
X152289934Y-112164857D01*
X152348816Y-112133550D01*
X152351349Y-112131777D01*
X152397955Y-112089841D01*
X152399803Y-112087769D01*
X152436478Y-112036294D01*
X152437560Y-112034472D01*
X152466651Y-111974553D01*
X152467196Y-111973250D01*
X152491046Y-111905977D01*
X152491290Y-111905214D01*
X152512247Y-111831680D01*
X152512326Y-111831387D01*
X152532734Y-111752684D01*
X152552587Y-111678676D01*
X153302850Y-111619808D01*
X153110033Y-112417185D01*
G04 #@! TA.AperFunction,Conductor*
D17*
G36*
X153110033Y-112417185D02*
G01*
X152998758Y-112415903D01*
X152895539Y-112412116D01*
X152805237Y-112406531D01*
X152722961Y-112399748D01*
X152643707Y-112392355D01*
X152643682Y-112392352D01*
X152562545Y-112384952D01*
X152562371Y-112384938D01*
X152474491Y-112378137D01*
X152474224Y-112378119D01*
X152374660Y-112372520D01*
X152374362Y-112372507D01*
X152258171Y-112368707D01*
X152257885Y-112368701D01*
X152132700Y-112367429D01*
X152132700Y-112191785D01*
X152211417Y-112185893D01*
X152213739Y-112185500D01*
X152287242Y-112165915D01*
X152289934Y-112164857D01*
X152348816Y-112133550D01*
X152351349Y-112131777D01*
X152397955Y-112089841D01*
X152399803Y-112087769D01*
X152436478Y-112036294D01*
X152437560Y-112034472D01*
X152466651Y-111974553D01*
X152467196Y-111973250D01*
X152491046Y-111905977D01*
X152491290Y-111905214D01*
X152512247Y-111831680D01*
X152512326Y-111831387D01*
X152532734Y-111752684D01*
X152552587Y-111678676D01*
X153302850Y-111619808D01*
X153110033Y-112417185D01*
G37*
G04 #@! TD.AperFunction*
D18*
X155134268Y-110771435D02*
X155134434Y-110772943D01*
X155154171Y-110888738D01*
X155154596Y-110890479D01*
X155185427Y-110986696D01*
X155186118Y-110988412D01*
X155226356Y-111070488D01*
X155227128Y-111071846D01*
X155275087Y-111145218D01*
X155275656Y-111146018D01*
X155329647Y-111216123D01*
X155329826Y-111216350D01*
X155388057Y-111288497D01*
X155448694Y-111367913D01*
X155510133Y-111460059D01*
X155566645Y-111562859D01*
X155045877Y-112111671D01*
X154517841Y-111569854D01*
X154573223Y-111465888D01*
X154633673Y-111372745D01*
X154693531Y-111292508D01*
X154751191Y-111219651D01*
X154751354Y-111219440D01*
X154804938Y-111148724D01*
X154805488Y-111147939D01*
X154853178Y-111074022D01*
X154853932Y-111072682D01*
X154894012Y-110990090D01*
X154894689Y-110988392D01*
X154925441Y-110891654D01*
X154925860Y-110889928D01*
X154945570Y-110773570D01*
X154945733Y-110772072D01*
X154952091Y-110642700D01*
X155127911Y-110642700D01*
X155134268Y-110771435D01*
G04 #@! TA.AperFunction,Conductor*
D17*
G36*
X155134268Y-110771435D02*
G01*
X155134434Y-110772943D01*
X155154171Y-110888738D01*
X155154596Y-110890479D01*
X155185427Y-110986696D01*
X155186118Y-110988412D01*
X155226356Y-111070488D01*
X155227128Y-111071846D01*
X155275087Y-111145218D01*
X155275656Y-111146018D01*
X155329647Y-111216123D01*
X155329826Y-111216350D01*
X155388057Y-111288497D01*
X155448694Y-111367913D01*
X155510133Y-111460059D01*
X155566645Y-111562859D01*
X155045877Y-112111671D01*
X154517841Y-111569854D01*
X154573223Y-111465888D01*
X154633673Y-111372745D01*
X154693531Y-111292508D01*
X154751191Y-111219651D01*
X154751354Y-111219440D01*
X154804938Y-111148724D01*
X154805488Y-111147939D01*
X154853178Y-111074022D01*
X154853932Y-111072682D01*
X154894012Y-110990090D01*
X154894689Y-110988392D01*
X154925441Y-110891654D01*
X154925860Y-110889928D01*
X154945570Y-110773570D01*
X154945733Y-110772072D01*
X154952091Y-110642700D01*
X155127911Y-110642700D01*
X155134268Y-110771435D01*
G37*
G04 #@! TD.AperFunction*
D18*
X133507014Y-106237381D02*
X133379284Y-106379527D01*
X133378268Y-106380816D01*
X133282666Y-106519748D01*
X133281696Y-106521415D01*
X133218537Y-106651943D01*
X133217823Y-106653766D01*
X133179375Y-106779658D01*
X133179004Y-106781218D01*
X133157535Y-106906239D01*
X133157410Y-106907180D01*
X133145188Y-107035097D01*
X133145170Y-107035298D01*
X133134480Y-107169655D01*
X133117639Y-107313936D01*
X133086970Y-107472073D01*
X133037242Y-107639709D01*
X131956250Y-107656374D01*
X131981845Y-106575557D01*
X132149497Y-106527305D01*
X132307627Y-106497897D01*
X132451873Y-106482068D01*
X132586153Y-106472181D01*
X132586367Y-106472163D01*
X132714152Y-106460576D01*
X132715108Y-106460453D01*
X132839950Y-106439489D01*
X132841526Y-106439119D01*
X132967191Y-106401086D01*
X132969027Y-106400371D01*
X133099279Y-106337576D01*
X133100957Y-106336603D01*
X133239560Y-106241354D01*
X133240854Y-106240335D01*
X133382618Y-106112985D01*
X133507014Y-106237381D01*
G04 #@! TA.AperFunction,Conductor*
D17*
G36*
X133507014Y-106237381D02*
G01*
X133379284Y-106379527D01*
X133378268Y-106380816D01*
X133282666Y-106519748D01*
X133281696Y-106521415D01*
X133218537Y-106651943D01*
X133217823Y-106653766D01*
X133179375Y-106779658D01*
X133179004Y-106781218D01*
X133157535Y-106906239D01*
X133157410Y-106907180D01*
X133145188Y-107035097D01*
X133145170Y-107035298D01*
X133134480Y-107169655D01*
X133117639Y-107313936D01*
X133086970Y-107472073D01*
X133037242Y-107639709D01*
X131956250Y-107656374D01*
X131981845Y-106575557D01*
X132149497Y-106527305D01*
X132307627Y-106497897D01*
X132451873Y-106482068D01*
X132586153Y-106472181D01*
X132586367Y-106472163D01*
X132714152Y-106460576D01*
X132715108Y-106460453D01*
X132839950Y-106439489D01*
X132841526Y-106439119D01*
X132967191Y-106401086D01*
X132969027Y-106400371D01*
X133099279Y-106337576D01*
X133100957Y-106336603D01*
X133239560Y-106241354D01*
X133240854Y-106240335D01*
X133382618Y-106112985D01*
X133507014Y-106237381D01*
G37*
G04 #@! TD.AperFunction*
D18*
X157376805Y-112252831D02*
X157311299Y-112329782D01*
X157309995Y-112331623D01*
X157262849Y-112412581D01*
X157261915Y-112414560D01*
X157232587Y-112493715D01*
X157232113Y-112495308D01*
X157214276Y-112573650D01*
X157214121Y-112574445D01*
X157201459Y-112652892D01*
X157187722Y-112731984D01*
X157166744Y-112812456D01*
X157132317Y-112895680D01*
X157078095Y-112983053D01*
X157005910Y-113066234D01*
X156882067Y-112942391D01*
X156951291Y-112853644D01*
X156952622Y-112851540D01*
X156953417Y-112849563D01*
X156980341Y-112761935D01*
X156980835Y-112759495D01*
X156980716Y-112756047D01*
X156966834Y-112675544D01*
X156966173Y-112673144D01*
X156965174Y-112671110D01*
X156918886Y-112594887D01*
X156917285Y-112592781D01*
X156846990Y-112517991D01*
X156846164Y-112517188D01*
X156760262Y-112440987D01*
X156760138Y-112440879D01*
X156667271Y-112360630D01*
X156576064Y-112273746D01*
X156494896Y-112177607D01*
X156436110Y-112076816D01*
X156974446Y-111550698D01*
X157376805Y-112252831D01*
G04 #@! TA.AperFunction,Conductor*
D17*
G36*
X157376805Y-112252831D02*
G01*
X157311299Y-112329782D01*
X157309995Y-112331623D01*
X157262849Y-112412581D01*
X157261915Y-112414560D01*
X157232587Y-112493715D01*
X157232113Y-112495308D01*
X157214276Y-112573650D01*
X157214121Y-112574445D01*
X157201459Y-112652892D01*
X157187722Y-112731984D01*
X157166744Y-112812456D01*
X157132317Y-112895680D01*
X157078095Y-112983053D01*
X157005910Y-113066234D01*
X156882067Y-112942391D01*
X156951291Y-112853644D01*
X156952622Y-112851540D01*
X156953417Y-112849563D01*
X156980341Y-112761935D01*
X156980835Y-112759495D01*
X156980716Y-112756047D01*
X156966834Y-112675544D01*
X156966173Y-112673144D01*
X156965174Y-112671110D01*
X156918886Y-112594887D01*
X156917285Y-112592781D01*
X156846990Y-112517991D01*
X156846164Y-112517188D01*
X156760262Y-112440987D01*
X156760138Y-112440879D01*
X156667271Y-112360630D01*
X156576064Y-112273746D01*
X156494896Y-112177607D01*
X156436110Y-112076816D01*
X156974446Y-111550698D01*
X157376805Y-112252831D01*
G37*
G04 #@! TD.AperFunction*
D18*
X135748253Y-106256194D02*
X135626111Y-106392988D01*
X135625041Y-106394366D01*
X135534781Y-106528759D01*
X135533778Y-106530550D01*
X135475768Y-106657165D01*
X135475061Y-106659114D01*
X135441678Y-106781527D01*
X135441344Y-106783175D01*
X135424963Y-106904961D01*
X135424870Y-106905942D01*
X135417867Y-107030677D01*
X135417857Y-107030882D01*
X135412618Y-107161896D01*
X135401557Y-107302511D01*
X135377124Y-107456408D01*
X135333958Y-107619021D01*
X134253793Y-107663784D01*
X134251282Y-106582701D01*
X134413967Y-106531923D01*
X134568013Y-106501056D01*
X134709002Y-106484863D01*
X134840620Y-106475574D01*
X134840752Y-106475565D01*
X134966365Y-106465387D01*
X134967268Y-106465281D01*
X135090169Y-106446392D01*
X135091737Y-106446048D01*
X135215505Y-106410602D01*
X135217380Y-106409901D01*
X135345592Y-106350055D01*
X135347332Y-106349069D01*
X135483570Y-106256979D01*
X135484923Y-106255925D01*
X135623811Y-106131752D01*
X135748253Y-106256194D01*
G04 #@! TA.AperFunction,Conductor*
D17*
G36*
X135748253Y-106256194D02*
G01*
X135626111Y-106392988D01*
X135625041Y-106394366D01*
X135534781Y-106528759D01*
X135533778Y-106530550D01*
X135475768Y-106657165D01*
X135475061Y-106659114D01*
X135441678Y-106781527D01*
X135441344Y-106783175D01*
X135424963Y-106904961D01*
X135424870Y-106905942D01*
X135417867Y-107030677D01*
X135417857Y-107030882D01*
X135412618Y-107161896D01*
X135401557Y-107302511D01*
X135377124Y-107456408D01*
X135333958Y-107619021D01*
X134253793Y-107663784D01*
X134251282Y-106582701D01*
X134413967Y-106531923D01*
X134568013Y-106501056D01*
X134709002Y-106484863D01*
X134840620Y-106475574D01*
X134840752Y-106475565D01*
X134966365Y-106465387D01*
X134967268Y-106465281D01*
X135090169Y-106446392D01*
X135091737Y-106446048D01*
X135215505Y-106410602D01*
X135217380Y-106409901D01*
X135345592Y-106350055D01*
X135347332Y-106349069D01*
X135483570Y-106256979D01*
X135484923Y-106255925D01*
X135623811Y-106131752D01*
X135748253Y-106256194D01*
G37*
G04 #@! TD.AperFunction*
D18*
X134956678Y-99530000D02*
X134542343Y-99928446D01*
X134467518Y-99888398D01*
X134398121Y-99844182D01*
X134337774Y-99800892D01*
X134282522Y-99759584D01*
X134282245Y-99759382D01*
X134228349Y-99721317D01*
X134227528Y-99720784D01*
X134171130Y-99687143D01*
X134169808Y-99686456D01*
X134106957Y-99658354D01*
X134105342Y-99657760D01*
X134032088Y-99636308D01*
X134030479Y-99635948D01*
X133942871Y-99622261D01*
X133941487Y-99622122D01*
X133847700Y-99617864D01*
X133847700Y-99442136D01*
X133941487Y-99437877D01*
X133942871Y-99437738D01*
X134030479Y-99424051D01*
X134032088Y-99423691D01*
X134105342Y-99402239D01*
X134106957Y-99401645D01*
X134169808Y-99373543D01*
X134171130Y-99372856D01*
X134227528Y-99339215D01*
X134228349Y-99338682D01*
X134282245Y-99300617D01*
X134282522Y-99300415D01*
X134337774Y-99259107D01*
X134398121Y-99215817D01*
X134467517Y-99171601D01*
X134542343Y-99131554D01*
X134956678Y-99530000D01*
G04 #@! TA.AperFunction,Conductor*
D17*
G36*
X134956678Y-99530000D02*
G01*
X134542343Y-99928446D01*
X134467518Y-99888398D01*
X134398121Y-99844182D01*
X134337774Y-99800892D01*
X134282522Y-99759584D01*
X134282245Y-99759382D01*
X134228349Y-99721317D01*
X134227528Y-99720784D01*
X134171130Y-99687143D01*
X134169808Y-99686456D01*
X134106957Y-99658354D01*
X134105342Y-99657760D01*
X134032088Y-99636308D01*
X134030479Y-99635948D01*
X133942871Y-99622261D01*
X133941487Y-99622122D01*
X133847700Y-99617864D01*
X133847700Y-99442136D01*
X133941487Y-99437877D01*
X133942871Y-99437738D01*
X134030479Y-99424051D01*
X134032088Y-99423691D01*
X134105342Y-99402239D01*
X134106957Y-99401645D01*
X134169808Y-99373543D01*
X134171130Y-99372856D01*
X134227528Y-99339215D01*
X134228349Y-99338682D01*
X134282245Y-99300617D01*
X134282522Y-99300415D01*
X134337774Y-99259107D01*
X134398121Y-99215817D01*
X134467517Y-99171601D01*
X134542343Y-99131554D01*
X134956678Y-99530000D01*
G37*
G04 #@! TD.AperFunction*
D18*
X136429378Y-109722583D02*
X136345736Y-109875144D01*
X136255316Y-110007617D01*
X136164891Y-110120668D01*
X136077203Y-110222364D01*
X136077071Y-110222519D01*
X135995026Y-110320812D01*
X135994442Y-110321568D01*
X135921013Y-110424365D01*
X135920159Y-110425736D01*
X135858159Y-110541138D01*
X135857363Y-110542944D01*
X135809598Y-110679053D01*
X135809097Y-110680932D01*
X135778378Y-110845848D01*
X135778181Y-110847491D01*
X135767965Y-111037300D01*
X135592035Y-111037300D01*
X135581818Y-110847491D01*
X135581621Y-110845848D01*
X135550902Y-110680932D01*
X135550401Y-110679053D01*
X135502636Y-110542944D01*
X135501840Y-110541138D01*
X135439840Y-110425736D01*
X135438986Y-110424365D01*
X135365557Y-110321568D01*
X135364973Y-110320812D01*
X135282928Y-110222519D01*
X135282796Y-110222364D01*
X135195108Y-110120668D01*
X135104683Y-110007617D01*
X135014263Y-109875144D01*
X134930622Y-109722583D01*
X135680000Y-108943322D01*
X136429378Y-109722583D01*
G04 #@! TA.AperFunction,Conductor*
D17*
G36*
X136429378Y-109722583D02*
G01*
X136345736Y-109875144D01*
X136255316Y-110007617D01*
X136164891Y-110120668D01*
X136077203Y-110222364D01*
X136077071Y-110222519D01*
X135995026Y-110320812D01*
X135994442Y-110321568D01*
X135921013Y-110424365D01*
X135920159Y-110425736D01*
X135858159Y-110541138D01*
X135857363Y-110542944D01*
X135809598Y-110679053D01*
X135809097Y-110680932D01*
X135778378Y-110845848D01*
X135778181Y-110847491D01*
X135767965Y-111037300D01*
X135592035Y-111037300D01*
X135581818Y-110847491D01*
X135581621Y-110845848D01*
X135550902Y-110680932D01*
X135550401Y-110679053D01*
X135502636Y-110542944D01*
X135501840Y-110541138D01*
X135439840Y-110425736D01*
X135438986Y-110424365D01*
X135365557Y-110321568D01*
X135364973Y-110320812D01*
X135282928Y-110222519D01*
X135282796Y-110222364D01*
X135195108Y-110120668D01*
X135104683Y-110007617D01*
X135014263Y-109875144D01*
X134930622Y-109722583D01*
X135680000Y-108943322D01*
X136429378Y-109722583D01*
G37*
G04 #@! TD.AperFunction*
D18*
X145744052Y-103767318D02*
X145744852Y-103768005D01*
X145789514Y-103803247D01*
X145790551Y-103803984D01*
X145831969Y-103830406D01*
X145833177Y-103831087D01*
X145872667Y-103850582D01*
X145873862Y-103851098D01*
X145912740Y-103865556D01*
X145913677Y-103865863D01*
X145953260Y-103877176D01*
X145953765Y-103877309D01*
X145995366Y-103887369D01*
X145995410Y-103887380D01*
X146040188Y-103898040D01*
X146089314Y-103911144D01*
X146135912Y-103925947D01*
X146143090Y-104293094D01*
X145775943Y-104285916D01*
X145761140Y-104239318D01*
X145748036Y-104190192D01*
X145737376Y-104145414D01*
X145737365Y-104145370D01*
X145727305Y-104103769D01*
X145727172Y-104103264D01*
X145715859Y-104063681D01*
X145715552Y-104062744D01*
X145701094Y-104023866D01*
X145700578Y-104022671D01*
X145681083Y-103983181D01*
X145680402Y-103981973D01*
X145653980Y-103940555D01*
X145653243Y-103939518D01*
X145618001Y-103894856D01*
X145617314Y-103894056D01*
X145579735Y-103853806D01*
X145703802Y-103729739D01*
X145744052Y-103767318D01*
G04 #@! TA.AperFunction,Conductor*
D17*
G36*
X145744052Y-103767318D02*
G01*
X145744852Y-103768005D01*
X145789514Y-103803247D01*
X145790551Y-103803984D01*
X145831969Y-103830406D01*
X145833177Y-103831087D01*
X145872667Y-103850582D01*
X145873862Y-103851098D01*
X145912740Y-103865556D01*
X145913677Y-103865863D01*
X145953260Y-103877176D01*
X145953765Y-103877309D01*
X145995366Y-103887369D01*
X145995410Y-103887380D01*
X146040188Y-103898040D01*
X146089314Y-103911144D01*
X146135912Y-103925947D01*
X146143090Y-104293094D01*
X145775943Y-104285916D01*
X145761140Y-104239318D01*
X145748036Y-104190192D01*
X145737376Y-104145414D01*
X145737365Y-104145370D01*
X145727305Y-104103769D01*
X145727172Y-104103264D01*
X145715859Y-104063681D01*
X145715552Y-104062744D01*
X145701094Y-104023866D01*
X145700578Y-104022671D01*
X145681083Y-103983181D01*
X145680402Y-103981973D01*
X145653980Y-103940555D01*
X145653243Y-103939518D01*
X145618001Y-103894856D01*
X145617314Y-103894056D01*
X145579735Y-103853806D01*
X145703802Y-103729739D01*
X145744052Y-103767318D01*
G37*
G04 #@! TD.AperFunction*
M02*
