M48
; DRILL file {KiCad (5.1.10-1-10_14)} date Saturday, October 23, 2021 at 02:31:55 AM
; FORMAT={-:-/ absolute / inch / decimal}
; #@! TF.CreationDate,2021-10-23T02:31:55-04:00
; #@! TF.GenerationSoftware,Kicad,Pcbnew,(5.1.10-1-10_14)
FMAT,2
INCH
T1C0.0118
T2C0.0394
T3C0.1260
%
G90
G05
T1
X5.2504Y-4.4335
X5.3807Y-4.061
X5.4236Y-4.4417
X5.4264Y-3.9307
X5.4516Y-4.1157
X5.4992Y-3.9303
X5.6346Y-4.2315
X5.635Y-4.1024
X5.6402Y-4.402
X5.75Y-4.1024
X6.0417Y-3.915
X6.0417Y-4.2157
X6.0567Y-4.3256
X6.1705Y-3.915
X6.1705Y-4.2161
T2
X5.0713Y-4.3051
X5.1163Y-4.2272
X5.1163Y-4.3831
X5.1614Y-4.3051
X5.2065Y-4.2272
X5.2065Y-4.3831
X5.2516Y-4.3051
X5.2967Y-4.2272
X5.2967Y-4.3831
X5.3417Y-4.3051
X5.3868Y-4.2272
X5.3868Y-4.3831
X5.4319Y-4.3051
X5.477Y-4.2272
X5.477Y-4.3831
T3
X4.8047Y-4.3051
X5.7886Y-4.3051
T2
G00X4.7362Y-3.9524
M15
G01X4.7362Y-3.9917
M16
G05
G00X4.8307Y-4.0311
M15
G01X4.8307Y-4.0705
M16
G05
G00X4.9764Y-3.9524
M15
G01X4.9764Y-3.9917
M16
G05
G00X5.0472Y-4.0311
M15
G01X5.0472Y-4.0705
M16
G05
G00X5.1929Y-3.9524
M15
G01X5.1929Y-3.9917
M16
G05
T0
M30
