G04 #@! TF.GenerationSoftware,KiCad,Pcbnew,(5.1.8-0-10_14)*
G04 #@! TF.CreationDate,2021-09-26T16:35:17-04:00*
G04 #@! TF.ProjectId,8DIN2VGA,3844494e-3256-4474-912e-6b696361645f,1*
G04 #@! TF.SameCoordinates,Original*
G04 #@! TF.FileFunction,Copper,L2,Bot*
G04 #@! TF.FilePolarity,Positive*
%FSLAX46Y46*%
G04 Gerber Fmt 4.6, Leading zero omitted, Abs format (unit mm)*
G04 Created by KiCad (PCBNEW (5.1.8-0-10_14)) date 2021-09-26 16:35:17*
%MOMM*%
%LPD*%
G01*
G04 APERTURE LIST*
G04 #@! TA.AperFunction,ComponentPad*
%ADD10R,1.700000X1.700000*%
G04 #@! TD*
G04 #@! TA.AperFunction,ComponentPad*
%ADD11C,4.066000*%
G04 #@! TD*
G04 #@! TA.AperFunction,ComponentPad*
%ADD12C,1.700000*%
G04 #@! TD*
G04 #@! TA.AperFunction,ComponentPad*
%ADD13O,1.508000X3.016000*%
G04 #@! TD*
G04 #@! TA.AperFunction,ViaPad*
%ADD14C,0.600000*%
G04 #@! TD*
G04 #@! TA.AperFunction,Conductor*
%ADD15C,0.200000*%
G04 #@! TD*
G04 #@! TA.AperFunction,Conductor*
%ADD16C,0.152400*%
G04 #@! TD*
G04 #@! TA.AperFunction,Conductor*
%ADD17C,0.025400*%
G04 #@! TD*
G04 APERTURE END LIST*
G04 #@! TA.AperFunction,SMDPad,CuDef*
G36*
G01*
X150830000Y-106500000D02*
X152530000Y-106500000D01*
G75*
G02*
X152680000Y-106650000I0J-150000D01*
G01*
X152680000Y-107550000D01*
G75*
G02*
X152530000Y-107700000I-150000J0D01*
G01*
X150830000Y-107700000D01*
G75*
G02*
X150680000Y-107550000I0J150000D01*
G01*
X150680000Y-106650000D01*
G75*
G02*
X150830000Y-106500000I150000J0D01*
G01*
G37*
G04 #@! TD.AperFunction*
G04 #@! TA.AperFunction,SMDPad,CuDef*
G36*
G01*
X157520000Y-109900000D02*
X159220000Y-109900000D01*
G75*
G02*
X159370000Y-110050000I0J-150000D01*
G01*
X159370000Y-110950000D01*
G75*
G02*
X159220000Y-111100000I-150000J0D01*
G01*
X157520000Y-111100000D01*
G75*
G02*
X157370000Y-110950000I0J150000D01*
G01*
X157370000Y-110050000D01*
G75*
G02*
X157520000Y-109900000I150000J0D01*
G01*
G37*
G04 #@! TD.AperFunction*
G04 #@! TA.AperFunction,SMDPad,CuDef*
G36*
G01*
X150870000Y-109900000D02*
X152570000Y-109900000D01*
G75*
G02*
X152720000Y-110050000I0J-150000D01*
G01*
X152720000Y-110950000D01*
G75*
G02*
X152570000Y-111100000I-150000J0D01*
G01*
X150870000Y-111100000D01*
G75*
G02*
X150720000Y-110950000I0J150000D01*
G01*
X150720000Y-110050000D01*
G75*
G02*
X150870000Y-109900000I150000J0D01*
G01*
G37*
G04 #@! TD.AperFunction*
G04 #@! TA.AperFunction,SMDPad,CuDef*
G36*
G01*
X156550000Y-110980000D02*
X156550000Y-112680000D01*
G75*
G02*
X156400000Y-112830000I-150000J0D01*
G01*
X155500000Y-112830000D01*
G75*
G02*
X155350000Y-112680000I0J150000D01*
G01*
X155350000Y-110980000D01*
G75*
G02*
X155500000Y-110830000I150000J0D01*
G01*
X156400000Y-110830000D01*
G75*
G02*
X156550000Y-110980000I0J-150000D01*
G01*
G37*
G04 #@! TD.AperFunction*
G04 #@! TA.AperFunction,SMDPad,CuDef*
G36*
G01*
X154730000Y-110980000D02*
X154730000Y-112680000D01*
G75*
G02*
X154580000Y-112830000I-150000J0D01*
G01*
X153680000Y-112830000D01*
G75*
G02*
X153530000Y-112680000I0J150000D01*
G01*
X153530000Y-110980000D01*
G75*
G02*
X153680000Y-110830000I150000J0D01*
G01*
X154580000Y-110830000D01*
G75*
G02*
X154730000Y-110980000I0J-150000D01*
G01*
G37*
G04 #@! TD.AperFunction*
D10*
X129955000Y-107370000D03*
D11*
X122040000Y-109350000D03*
X147030000Y-109350000D03*
D12*
X132245000Y-107370000D03*
X134535000Y-107370000D03*
X136825000Y-107370000D03*
X139115000Y-107370000D03*
X128810000Y-109350000D03*
X131100000Y-109350000D03*
X133390000Y-109350000D03*
X135680000Y-109350000D03*
X137970000Y-109350000D03*
X129955000Y-111330000D03*
X132245000Y-111330000D03*
X134535000Y-111330000D03*
X136825000Y-111330000D03*
X139115000Y-111330000D03*
D13*
X120300000Y-100890000D03*
X122700000Y-102890000D03*
X126400000Y-100890000D03*
X128200000Y-102890000D03*
X131900000Y-100890000D03*
D14*
X137830000Y-99839998D03*
X139680000Y-99830000D03*
X143130000Y-104200000D03*
X143120000Y-107480000D03*
X136670000Y-103150000D03*
X138470000Y-104540000D03*
X137760000Y-112820000D03*
X133360000Y-112610000D03*
X153460000Y-99440000D03*
X156730000Y-99440000D03*
X153840000Y-109870000D03*
X143260000Y-111810000D03*
X153460000Y-107080000D03*
X156730000Y-107090000D03*
X146049980Y-104199984D03*
D15*
X127180000Y-105410000D02*
X132259998Y-105410000D01*
X131580000Y-113350000D02*
X127070000Y-113350000D01*
X132240000Y-112690000D02*
X131580000Y-113350000D01*
X132259998Y-105410000D02*
X137830000Y-99839998D01*
X126070000Y-106520000D02*
X127180000Y-105410000D01*
X132240000Y-111570000D02*
X132240000Y-112690000D01*
X126070000Y-112350000D02*
X126070000Y-106520000D01*
X127070000Y-113350000D02*
X126070000Y-112350000D01*
X131990000Y-111320000D02*
X132240000Y-111570000D01*
X139680000Y-99830000D02*
X139670000Y-99820000D01*
X139680000Y-104160000D02*
X139680000Y-99830000D01*
X140660000Y-105140000D02*
X139680000Y-104160000D01*
X140660000Y-109790000D02*
X140660000Y-105140000D01*
X139080000Y-111370000D02*
X140660000Y-109790000D01*
X138860000Y-111370000D02*
X139080000Y-111370000D01*
X143130000Y-104200000D02*
X143130000Y-107470000D01*
X143130000Y-107470000D02*
X143120000Y-107480000D01*
X155930000Y-112800000D02*
X155930000Y-111909844D01*
X151900000Y-113260000D02*
X155470000Y-113260000D01*
X142520000Y-112860000D02*
X151500000Y-112860000D01*
X141960000Y-112300000D02*
X142520000Y-112860000D01*
X155470000Y-113260000D02*
X155930000Y-112800000D01*
X141960000Y-100220000D02*
X141960000Y-112300000D01*
X130680000Y-98670000D02*
X140410000Y-98670000D01*
X140410000Y-98670000D02*
X141960000Y-100220000D01*
X151500000Y-112860000D02*
X151900000Y-113260000D01*
X128230000Y-101120000D02*
X130680000Y-98670000D01*
X128230000Y-104150000D02*
X128230000Y-101120000D01*
X135400000Y-113710000D02*
X156550000Y-113710000D01*
X134550000Y-112860000D02*
X135400000Y-113710000D01*
X156550000Y-113710000D02*
X157880000Y-112380000D01*
X134550000Y-111590000D02*
X134550000Y-112860000D01*
X157880000Y-112380000D02*
X157880000Y-110490000D01*
X134280000Y-111320000D02*
X134550000Y-111590000D01*
X153880000Y-111980000D02*
X154040000Y-111820000D01*
X145042945Y-111980000D02*
X153880000Y-111980000D01*
X143385029Y-110322084D02*
X145042945Y-111980000D01*
X143385029Y-109134971D02*
X143385029Y-110322084D01*
X144273935Y-108246065D02*
X143385029Y-109134971D01*
X122710000Y-101680000D02*
X122710000Y-100450000D01*
X144273935Y-100403935D02*
X144273935Y-108246065D01*
X141450000Y-97580000D02*
X144273935Y-100403935D01*
X125580000Y-97580000D02*
X141450000Y-97580000D01*
X122710000Y-100450000D02*
X125580000Y-97580000D01*
X146049980Y-104219980D02*
X146049980Y-104199984D01*
X151700000Y-109870000D02*
X146049980Y-104219980D01*
X151700000Y-110180000D02*
X151700000Y-109870000D01*
X149760001Y-107233289D02*
X149758355Y-107250000D01*
X149764920Y-107316652D01*
X149784361Y-107380742D01*
X149809711Y-107428167D01*
X146746373Y-104364830D01*
X146711320Y-104327351D01*
X146691932Y-104302902D01*
X146681624Y-104286841D01*
X146675891Y-104275257D01*
X146670992Y-104261948D01*
X146665106Y-104240535D01*
X146657659Y-104207019D01*
X146648442Y-104162949D01*
X146647300Y-104157731D01*
X146635727Y-104107069D01*
X146632949Y-104095928D01*
X146624984Y-104066482D01*
X146617307Y-104027887D01*
X146572831Y-103920514D01*
X146508263Y-103823881D01*
X146426083Y-103741701D01*
X146329450Y-103677133D01*
X146222077Y-103632657D01*
X146108090Y-103609984D01*
X145991870Y-103609984D01*
X145877883Y-103632657D01*
X145770510Y-103677133D01*
X145673877Y-103741701D01*
X145591697Y-103823881D01*
X145527129Y-103920514D01*
X145482653Y-104027887D01*
X145459980Y-104141874D01*
X145459980Y-104258094D01*
X145482653Y-104372081D01*
X145527129Y-104479454D01*
X145591697Y-104576087D01*
X145673877Y-104658267D01*
X145770510Y-104722835D01*
X145877883Y-104767311D01*
X145889243Y-104769571D01*
X145894511Y-104771528D01*
X145906695Y-104775749D01*
X145957502Y-104792096D01*
X145964827Y-104794346D01*
X146010295Y-104807660D01*
X146047721Y-104818693D01*
X146073416Y-104827309D01*
X146091331Y-104834761D01*
X146107246Y-104843201D01*
X146127039Y-104856369D01*
X146154576Y-104878557D01*
X146194618Y-104916161D01*
X148758516Y-107480059D01*
X148669206Y-107569369D01*
X148444007Y-107233656D01*
X148003960Y-106998462D01*
X147526483Y-106853637D01*
X147029927Y-106804744D01*
X146533374Y-106853665D01*
X146055906Y-106998519D01*
X145615993Y-107233656D01*
X145390793Y-107569371D01*
X147030000Y-109208579D01*
X147044142Y-109194436D01*
X147185564Y-109335858D01*
X147171421Y-109350000D01*
X148810629Y-110989207D01*
X149146344Y-110764007D01*
X149381538Y-110323960D01*
X149526363Y-109846483D01*
X149575256Y-109349927D01*
X149526335Y-108853374D01*
X149381481Y-108375906D01*
X149146344Y-107935993D01*
X148810631Y-107710794D01*
X148899941Y-107621484D01*
X150887053Y-109608597D01*
X150870000Y-109608597D01*
X150783887Y-109617078D01*
X150701082Y-109642197D01*
X150624770Y-109682987D01*
X150557881Y-109737881D01*
X150502987Y-109804770D01*
X150462197Y-109881082D01*
X150437078Y-109963887D01*
X150428597Y-110050000D01*
X150428597Y-110950000D01*
X150437078Y-111036113D01*
X150462197Y-111118918D01*
X150502987Y-111195230D01*
X150557881Y-111262119D01*
X150624770Y-111317013D01*
X150701082Y-111357803D01*
X150783887Y-111382922D01*
X150870000Y-111391403D01*
X152570000Y-111391403D01*
X152656113Y-111382922D01*
X152738918Y-111357803D01*
X152815230Y-111317013D01*
X152882119Y-111262119D01*
X152937013Y-111195230D01*
X152977803Y-111118918D01*
X153002922Y-111036113D01*
X153011403Y-110950000D01*
X153011403Y-110050000D01*
X153002922Y-109963887D01*
X152977803Y-109881082D01*
X152937013Y-109804770D01*
X152882119Y-109737881D01*
X152815230Y-109682987D01*
X152738918Y-109642197D01*
X152656113Y-109617078D01*
X152570000Y-109608597D01*
X152058501Y-109608597D01*
X152018678Y-109576669D01*
X152015425Y-109574100D01*
X151950910Y-109523874D01*
X151887042Y-109473868D01*
X151821695Y-109420753D01*
X151750281Y-109359308D01*
X151668522Y-109284381D01*
X151571381Y-109189837D01*
X149921833Y-107540289D01*
X149969258Y-107565639D01*
X150033348Y-107585080D01*
X150083299Y-107590000D01*
X150100000Y-107591645D01*
X150116701Y-107590000D01*
X151163299Y-107590000D01*
X151180000Y-107591645D01*
X151196701Y-107590000D01*
X151246652Y-107585080D01*
X151310742Y-107565639D01*
X151369808Y-107534067D01*
X151421579Y-107491579D01*
X151464067Y-107439808D01*
X151495639Y-107380742D01*
X151515080Y-107316652D01*
X151521645Y-107250000D01*
X151520000Y-107233299D01*
X151520000Y-98340000D01*
X158540000Y-98340000D01*
X158540001Y-109608597D01*
X157520000Y-109608597D01*
X157433887Y-109617078D01*
X157351082Y-109642197D01*
X157274770Y-109682987D01*
X157207881Y-109737881D01*
X157152987Y-109804770D01*
X157112197Y-109881082D01*
X157087078Y-109963887D01*
X157078597Y-110050000D01*
X157078597Y-110950000D01*
X157087078Y-111036113D01*
X157112197Y-111118918D01*
X157152987Y-111195230D01*
X157207881Y-111262119D01*
X157274770Y-111317013D01*
X157351082Y-111357803D01*
X157433887Y-111382922D01*
X157489868Y-111388435D01*
X157490000Y-111450383D01*
X157490000Y-112218456D01*
X156388457Y-113320000D01*
X155961543Y-113320000D01*
X156160140Y-113121403D01*
X156400000Y-113121403D01*
X156486113Y-113112922D01*
X156568918Y-113087803D01*
X156645230Y-113047013D01*
X156712119Y-112992119D01*
X156767013Y-112925230D01*
X156807803Y-112848918D01*
X156832922Y-112766113D01*
X156841403Y-112680000D01*
X156841403Y-110980000D01*
X156832922Y-110893887D01*
X156807803Y-110811082D01*
X156767013Y-110734770D01*
X156712119Y-110667881D01*
X156645230Y-110612987D01*
X156568918Y-110572197D01*
X156486113Y-110547078D01*
X156400000Y-110538597D01*
X155500000Y-110538597D01*
X155413887Y-110547078D01*
X155331082Y-110572197D01*
X155254770Y-110612987D01*
X155187881Y-110667881D01*
X155132987Y-110734770D01*
X155092197Y-110811082D01*
X155067078Y-110893887D01*
X155058597Y-110980000D01*
X155058597Y-112680000D01*
X155067078Y-112766113D01*
X155092197Y-112848918D01*
X155103466Y-112870000D01*
X154976534Y-112870000D01*
X154987803Y-112848918D01*
X155012922Y-112766113D01*
X155021403Y-112680000D01*
X155021403Y-110980000D01*
X155012922Y-110893887D01*
X154987803Y-110811082D01*
X154947013Y-110734770D01*
X154892119Y-110667881D01*
X154825230Y-110612987D01*
X154748918Y-110572197D01*
X154666113Y-110547078D01*
X154580000Y-110538597D01*
X153680000Y-110538597D01*
X153593887Y-110547078D01*
X153511082Y-110572197D01*
X153434770Y-110612987D01*
X153367881Y-110667881D01*
X153312987Y-110734770D01*
X153272197Y-110811082D01*
X153247078Y-110893887D01*
X153238597Y-110980000D01*
X153238597Y-111477472D01*
X153205038Y-111511401D01*
X153170997Y-111539004D01*
X153139281Y-111557401D01*
X153098165Y-111572433D01*
X153034484Y-111584490D01*
X152932198Y-111590000D01*
X148212662Y-111590000D01*
X148444007Y-111466344D01*
X148669207Y-111130629D01*
X147030000Y-109491421D01*
X145390793Y-111130629D01*
X145615993Y-111466344D01*
X145847353Y-111590000D01*
X145204488Y-111590000D01*
X143775029Y-110160541D01*
X143775029Y-109350073D01*
X144484744Y-109350073D01*
X144533665Y-109846626D01*
X144678519Y-110324094D01*
X144913656Y-110764007D01*
X145249371Y-110989207D01*
X146888579Y-109350000D01*
X145249371Y-107710793D01*
X144913656Y-107935993D01*
X144678462Y-108376040D01*
X144533637Y-108853517D01*
X144484744Y-109350073D01*
X143775029Y-109350073D01*
X143775029Y-109296514D01*
X144536163Y-108535381D01*
X144551041Y-108523171D01*
X144599777Y-108463786D01*
X144635991Y-108396034D01*
X144658292Y-108322518D01*
X144663935Y-108265224D01*
X144665822Y-108246065D01*
X144663935Y-108226906D01*
X144663935Y-100423083D01*
X144665821Y-100403934D01*
X144663935Y-100384785D01*
X144663935Y-100384776D01*
X144658292Y-100327482D01*
X144635991Y-100253966D01*
X144599777Y-100186214D01*
X144551041Y-100126829D01*
X144536158Y-100114615D01*
X141739321Y-97317778D01*
X141727106Y-97302894D01*
X141667721Y-97254158D01*
X141599969Y-97217944D01*
X141526453Y-97195643D01*
X141469159Y-97190000D01*
X141450000Y-97188113D01*
X141430841Y-97190000D01*
X125599159Y-97190000D01*
X125580000Y-97188113D01*
X125503546Y-97195643D01*
X125430031Y-97217944D01*
X125362279Y-97254158D01*
X125332238Y-97278812D01*
X125317775Y-97290681D01*
X125317772Y-97290684D01*
X125302894Y-97302894D01*
X125290684Y-97317772D01*
X122447773Y-100160684D01*
X122432895Y-100172894D01*
X122420685Y-100187772D01*
X122420681Y-100187776D01*
X122384159Y-100232279D01*
X122347944Y-100300032D01*
X122325643Y-100373547D01*
X122318113Y-100450000D01*
X122320001Y-100469169D01*
X122320000Y-101160295D01*
X122298546Y-101166803D01*
X122117178Y-101263746D01*
X121958209Y-101394209D01*
X121827746Y-101553178D01*
X121730803Y-101734547D01*
X121671106Y-101931341D01*
X121656000Y-102084717D01*
X121656001Y-103695284D01*
X121671107Y-103848660D01*
X121730804Y-104045454D01*
X121827747Y-104226822D01*
X121958210Y-104385791D01*
X122117179Y-104516254D01*
X122298547Y-104613197D01*
X122495341Y-104672894D01*
X122700000Y-104693051D01*
X122904660Y-104672894D01*
X123101454Y-104613197D01*
X123282822Y-104516254D01*
X123441791Y-104385791D01*
X123572254Y-104226822D01*
X123669197Y-104045454D01*
X123728894Y-103848660D01*
X123744000Y-103695284D01*
X123744000Y-102084716D01*
X123728894Y-101931340D01*
X123669197Y-101734546D01*
X123572254Y-101553178D01*
X123441791Y-101394209D01*
X123282822Y-101263746D01*
X123101453Y-101166803D01*
X123100000Y-101166362D01*
X123100000Y-100611543D01*
X125741544Y-97970000D01*
X141288457Y-97970000D01*
X143883935Y-100565478D01*
X143883936Y-108084520D01*
X143122807Y-108845650D01*
X143107923Y-108857865D01*
X143095710Y-108872747D01*
X143059188Y-108917250D01*
X143022973Y-108985003D01*
X143000672Y-109058518D01*
X142993142Y-109134971D01*
X142995029Y-109154130D01*
X142995030Y-110302915D01*
X142993142Y-110322084D01*
X143000672Y-110398537D01*
X143022973Y-110472052D01*
X143059188Y-110539805D01*
X143095710Y-110584308D01*
X143095714Y-110584312D01*
X143107924Y-110599190D01*
X143122802Y-110611400D01*
X144753624Y-112242222D01*
X144765839Y-112257106D01*
X144825224Y-112305842D01*
X144892976Y-112342056D01*
X144966492Y-112364357D01*
X145023786Y-112370000D01*
X145023795Y-112370000D01*
X145042944Y-112371886D01*
X145062093Y-112370000D01*
X152933585Y-112370000D01*
X153065408Y-112375837D01*
X153161184Y-112390044D01*
X153236427Y-112410209D01*
X153238597Y-112411056D01*
X153238597Y-112680000D01*
X153247078Y-112766113D01*
X153272197Y-112848918D01*
X153283466Y-112870000D01*
X152061543Y-112870000D01*
X151789319Y-112597776D01*
X151777106Y-112582894D01*
X151717721Y-112534158D01*
X151649969Y-112497944D01*
X151576453Y-112475643D01*
X151519159Y-112470000D01*
X151500000Y-112468113D01*
X151480841Y-112470000D01*
X142681543Y-112470000D01*
X142350000Y-112138457D01*
X142350000Y-107421890D01*
X142530000Y-107421890D01*
X142530000Y-107538110D01*
X142552673Y-107652097D01*
X142597149Y-107759470D01*
X142661717Y-107856103D01*
X142743897Y-107938283D01*
X142840530Y-108002851D01*
X142947903Y-108047327D01*
X143061890Y-108070000D01*
X143178110Y-108070000D01*
X143292097Y-108047327D01*
X143399470Y-108002851D01*
X143496103Y-107938283D01*
X143578283Y-107856103D01*
X143642851Y-107759470D01*
X143687327Y-107652097D01*
X143710000Y-107538110D01*
X143710000Y-107421890D01*
X143687327Y-107307903D01*
X143642851Y-107200530D01*
X143634113Y-107187452D01*
X143630387Y-107179606D01*
X143624490Y-107167879D01*
X143599717Y-107121276D01*
X143595997Y-107114497D01*
X143572637Y-107073245D01*
X143554114Y-107040365D01*
X143542123Y-107017050D01*
X143534993Y-107000293D01*
X143529971Y-106984410D01*
X143525454Y-106962577D01*
X143521727Y-106928877D01*
X143520000Y-106875332D01*
X143520000Y-104794967D01*
X143521726Y-104744687D01*
X143525273Y-104714601D01*
X143529318Y-104696299D01*
X143533583Y-104683718D01*
X143539967Y-104669774D01*
X143551587Y-104648854D01*
X143570571Y-104617760D01*
X143594461Y-104578942D01*
X143598469Y-104572229D01*
X143624180Y-104527812D01*
X143630718Y-104515880D01*
X143638279Y-104501279D01*
X143652851Y-104479470D01*
X143697327Y-104372097D01*
X143720000Y-104258110D01*
X143720000Y-104141890D01*
X143697327Y-104027903D01*
X143652851Y-103920530D01*
X143588283Y-103823897D01*
X143506103Y-103741717D01*
X143409470Y-103677149D01*
X143302097Y-103632673D01*
X143188110Y-103610000D01*
X143071890Y-103610000D01*
X142957903Y-103632673D01*
X142850530Y-103677149D01*
X142753897Y-103741717D01*
X142671717Y-103823897D01*
X142607149Y-103920530D01*
X142562673Y-104027903D01*
X142540000Y-104141890D01*
X142540000Y-104258110D01*
X142562673Y-104372097D01*
X142607149Y-104479470D01*
X142621718Y-104501275D01*
X142629279Y-104515876D01*
X142635819Y-104527812D01*
X142661530Y-104572229D01*
X142665538Y-104578942D01*
X142689428Y-104617760D01*
X142708412Y-104648854D01*
X142720032Y-104669774D01*
X142726416Y-104683718D01*
X142730681Y-104696299D01*
X142734726Y-104714601D01*
X142738273Y-104744687D01*
X142740000Y-104794979D01*
X142740001Y-106875080D01*
X142738282Y-106926103D01*
X142734716Y-106956806D01*
X142730659Y-106975337D01*
X142726492Y-106987660D01*
X142720435Y-107000809D01*
X142709265Y-107020579D01*
X142690702Y-107050091D01*
X142666269Y-107088088D01*
X142663054Y-107093205D01*
X142635971Y-107137318D01*
X142629864Y-107147745D01*
X142616930Y-107170925D01*
X142597149Y-107200530D01*
X142552673Y-107307903D01*
X142530000Y-107421890D01*
X142350000Y-107421890D01*
X142350000Y-100239158D01*
X142351887Y-100219999D01*
X142344357Y-100143546D01*
X142322056Y-100070031D01*
X142315476Y-100057720D01*
X142285842Y-100002279D01*
X142237106Y-99942894D01*
X142222229Y-99930685D01*
X140699321Y-98407778D01*
X140687106Y-98392894D01*
X140627721Y-98344158D01*
X140559969Y-98307944D01*
X140486453Y-98285643D01*
X140429159Y-98280000D01*
X140410000Y-98278113D01*
X140390841Y-98280000D01*
X130699148Y-98280000D01*
X130679999Y-98278114D01*
X130660850Y-98280000D01*
X130660841Y-98280000D01*
X130603547Y-98285643D01*
X130530031Y-98307944D01*
X130462279Y-98344158D01*
X130402894Y-98392894D01*
X130390679Y-98407778D01*
X127967773Y-100830684D01*
X127952895Y-100842894D01*
X127940685Y-100857772D01*
X127940681Y-100857776D01*
X127904159Y-100902279D01*
X127867944Y-100970032D01*
X127845643Y-101043547D01*
X127838113Y-101120000D01*
X127840001Y-101139169D01*
X127840001Y-101154228D01*
X127798546Y-101166803D01*
X127617178Y-101263746D01*
X127458209Y-101394209D01*
X127444000Y-101411523D01*
X127444000Y-100084716D01*
X127428894Y-99931340D01*
X127369197Y-99734546D01*
X127272254Y-99553178D01*
X127141791Y-99394209D01*
X126982822Y-99263746D01*
X126801453Y-99166803D01*
X126604659Y-99107106D01*
X126400000Y-99086949D01*
X126195340Y-99107106D01*
X125998546Y-99166803D01*
X125817178Y-99263746D01*
X125658209Y-99394209D01*
X125527746Y-99553178D01*
X125430803Y-99734547D01*
X125371106Y-99931341D01*
X125356000Y-100084717D01*
X125356001Y-101695284D01*
X125371107Y-101848660D01*
X125430804Y-102045454D01*
X125527747Y-102226822D01*
X125658210Y-102385791D01*
X125817179Y-102516254D01*
X125998547Y-102613197D01*
X126195341Y-102672894D01*
X126400000Y-102693051D01*
X126604660Y-102672894D01*
X126801454Y-102613197D01*
X126982822Y-102516254D01*
X127141791Y-102385791D01*
X127156000Y-102368477D01*
X127156001Y-103695284D01*
X127171107Y-103848660D01*
X127230804Y-104045454D01*
X127327747Y-104226822D01*
X127458210Y-104385791D01*
X127617179Y-104516254D01*
X127798547Y-104613197D01*
X127995341Y-104672894D01*
X128200000Y-104693051D01*
X128404660Y-104672894D01*
X128601454Y-104613197D01*
X128782822Y-104516254D01*
X128941791Y-104385791D01*
X129072254Y-104226822D01*
X129169197Y-104045454D01*
X129228894Y-103848660D01*
X129244000Y-103695284D01*
X129244000Y-102084716D01*
X129228894Y-101931340D01*
X129169197Y-101734546D01*
X129072254Y-101553178D01*
X128941791Y-101394209D01*
X128782822Y-101263746D01*
X128688313Y-101213230D01*
X129816826Y-100084717D01*
X130856000Y-100084717D01*
X130856001Y-101695284D01*
X130871107Y-101848660D01*
X130930804Y-102045454D01*
X131027747Y-102226822D01*
X131158210Y-102385791D01*
X131317179Y-102516254D01*
X131498547Y-102613197D01*
X131695341Y-102672894D01*
X131900000Y-102693051D01*
X132104660Y-102672894D01*
X132301454Y-102613197D01*
X132482822Y-102516254D01*
X132641791Y-102385791D01*
X132772254Y-102226822D01*
X132869197Y-102045454D01*
X132928894Y-101848660D01*
X132944000Y-101695284D01*
X132944000Y-100084716D01*
X132928894Y-99931340D01*
X132869197Y-99734546D01*
X132772254Y-99553178D01*
X132641791Y-99394209D01*
X132482822Y-99263746D01*
X132301453Y-99166803D01*
X132104659Y-99107106D01*
X131900000Y-99086949D01*
X131695340Y-99107106D01*
X131498546Y-99166803D01*
X131317178Y-99263746D01*
X131158209Y-99394209D01*
X131027746Y-99553178D01*
X130930803Y-99734547D01*
X130871106Y-99931341D01*
X130856000Y-100084717D01*
X129816826Y-100084717D01*
X130841543Y-99060000D01*
X140248457Y-99060000D01*
X141570000Y-100381544D01*
X141570001Y-112280831D01*
X141568113Y-112300000D01*
X141575643Y-112376453D01*
X141597944Y-112449968D01*
X141634159Y-112517721D01*
X141670681Y-112562224D01*
X141670685Y-112562228D01*
X141682895Y-112577106D01*
X141697773Y-112589316D01*
X142230679Y-113122222D01*
X142242894Y-113137106D01*
X142302279Y-113185842D01*
X142370031Y-113222056D01*
X142443547Y-113244357D01*
X142520000Y-113251887D01*
X142539159Y-113250000D01*
X151338457Y-113250000D01*
X151408457Y-113320000D01*
X135561543Y-113320000D01*
X134958084Y-112716541D01*
X134940000Y-112693598D01*
X134940000Y-112549039D01*
X134964369Y-112519847D01*
X135062580Y-112423604D01*
X135182063Y-112311533D01*
X135190066Y-112303731D01*
X135311987Y-112180204D01*
X135330408Y-112159673D01*
X135387065Y-112090139D01*
X135420496Y-112056708D01*
X135545255Y-111869993D01*
X135631190Y-111662526D01*
X135675000Y-111442280D01*
X135675000Y-111217720D01*
X135685000Y-111217720D01*
X135685000Y-111442280D01*
X135728810Y-111662526D01*
X135814745Y-111869993D01*
X135939504Y-112056708D01*
X136098292Y-112215496D01*
X136285007Y-112340255D01*
X136492474Y-112426190D01*
X136712720Y-112470000D01*
X136937280Y-112470000D01*
X137157526Y-112426190D01*
X137364993Y-112340255D01*
X137551708Y-112215496D01*
X137710496Y-112056708D01*
X137835255Y-111869993D01*
X137921190Y-111662526D01*
X137965000Y-111442280D01*
X137965000Y-111217720D01*
X137975000Y-111217720D01*
X137975000Y-111442280D01*
X138018810Y-111662526D01*
X138104745Y-111869993D01*
X138229504Y-112056708D01*
X138388292Y-112215496D01*
X138575007Y-112340255D01*
X138782474Y-112426190D01*
X139002720Y-112470000D01*
X139227280Y-112470000D01*
X139447526Y-112426190D01*
X139654993Y-112340255D01*
X139841708Y-112215496D01*
X140000496Y-112056708D01*
X140125255Y-111869993D01*
X140211190Y-111662526D01*
X140226227Y-111586930D01*
X140244698Y-111523617D01*
X140251775Y-111493443D01*
X140279203Y-111340051D01*
X140282494Y-111315763D01*
X140295478Y-111175637D01*
X140296376Y-111162897D01*
X140302604Y-111034197D01*
X140309273Y-110922371D01*
X140321606Y-110830370D01*
X140343429Y-110749403D01*
X140381176Y-110666221D01*
X140446271Y-110568740D01*
X140556671Y-110444872D01*
X140922223Y-110079320D01*
X140937106Y-110067106D01*
X140985842Y-110007721D01*
X141022056Y-109939969D01*
X141044357Y-109866453D01*
X141050000Y-109809159D01*
X141050000Y-109809150D01*
X141051886Y-109790001D01*
X141050000Y-109770852D01*
X141050000Y-105159148D01*
X141051886Y-105139999D01*
X141050000Y-105120850D01*
X141050000Y-105120841D01*
X141044357Y-105063547D01*
X141022056Y-104990031D01*
X140985842Y-104922279D01*
X140937106Y-104862894D01*
X140922222Y-104850679D01*
X140070000Y-103998457D01*
X140070000Y-100424967D01*
X140071726Y-100374687D01*
X140075273Y-100344601D01*
X140079318Y-100326299D01*
X140083583Y-100313718D01*
X140089967Y-100299774D01*
X140101587Y-100278854D01*
X140120571Y-100247760D01*
X140144461Y-100208942D01*
X140148469Y-100202229D01*
X140174180Y-100157812D01*
X140180718Y-100145880D01*
X140188279Y-100131279D01*
X140202851Y-100109470D01*
X140247327Y-100002097D01*
X140270000Y-99888110D01*
X140270000Y-99771890D01*
X140247327Y-99657903D01*
X140202851Y-99550530D01*
X140138283Y-99453897D01*
X140056103Y-99371717D01*
X139959470Y-99307149D01*
X139852097Y-99262673D01*
X139738110Y-99240000D01*
X139621890Y-99240000D01*
X139507903Y-99262673D01*
X139400530Y-99307149D01*
X139303897Y-99371717D01*
X139221717Y-99453897D01*
X139157149Y-99550530D01*
X139112673Y-99657903D01*
X139090000Y-99771890D01*
X139090000Y-99888110D01*
X139112673Y-100002097D01*
X139157149Y-100109470D01*
X139171718Y-100131275D01*
X139179279Y-100145876D01*
X139185819Y-100157812D01*
X139211530Y-100202229D01*
X139215538Y-100208942D01*
X139239428Y-100247760D01*
X139258412Y-100278854D01*
X139270032Y-100299774D01*
X139276416Y-100313718D01*
X139280681Y-100326299D01*
X139284726Y-100344601D01*
X139288273Y-100374687D01*
X139290001Y-100424999D01*
X139290000Y-104140841D01*
X139288113Y-104160000D01*
X139295643Y-104236453D01*
X139314911Y-104299969D01*
X139317944Y-104309968D01*
X139354158Y-104377720D01*
X139402894Y-104437106D01*
X139417778Y-104449321D01*
X140270001Y-105301544D01*
X140270000Y-109628457D01*
X140005141Y-109893316D01*
X139881774Y-110003241D01*
X139784851Y-110067881D01*
X139702303Y-110105199D01*
X139621986Y-110126628D01*
X139530592Y-110138527D01*
X139419372Y-110144601D01*
X139290944Y-110150019D01*
X139278521Y-110150810D01*
X139138498Y-110162753D01*
X139114455Y-110165821D01*
X138961118Y-110191936D01*
X138931050Y-110198718D01*
X138864539Y-110217486D01*
X138782474Y-110233810D01*
X138575007Y-110319745D01*
X138388292Y-110444504D01*
X138229504Y-110603292D01*
X138104745Y-110790007D01*
X138018810Y-110997474D01*
X137975000Y-111217720D01*
X137965000Y-111217720D01*
X137921190Y-110997474D01*
X137835255Y-110790007D01*
X137710496Y-110603292D01*
X137551708Y-110444504D01*
X137364993Y-110319745D01*
X137157526Y-110233810D01*
X136937280Y-110190000D01*
X136712720Y-110190000D01*
X136492474Y-110233810D01*
X136285007Y-110319745D01*
X136098292Y-110444504D01*
X135939504Y-110603292D01*
X135814745Y-110790007D01*
X135728810Y-110997474D01*
X135685000Y-111217720D01*
X135675000Y-111217720D01*
X135631190Y-110997474D01*
X135545255Y-110790007D01*
X135420496Y-110603292D01*
X135261708Y-110444504D01*
X135074993Y-110319745D01*
X134867526Y-110233810D01*
X134647280Y-110190000D01*
X134422720Y-110190000D01*
X134202474Y-110233810D01*
X133995007Y-110319745D01*
X133808292Y-110444504D01*
X133649504Y-110603292D01*
X133524745Y-110790007D01*
X133438810Y-110997474D01*
X133395000Y-111217720D01*
X133395000Y-111442280D01*
X133438810Y-111662526D01*
X133524745Y-111869993D01*
X133649504Y-112056708D01*
X133723084Y-112130288D01*
X133810890Y-112228689D01*
X133866719Y-112309756D01*
X133906828Y-112386986D01*
X133940067Y-112470025D01*
X133972865Y-112565565D01*
X133973707Y-112567983D01*
X134010425Y-112671943D01*
X134017112Y-112689117D01*
X134063050Y-112796845D01*
X134075970Y-112823326D01*
X134138784Y-112937026D01*
X134156907Y-112965724D01*
X134187451Y-113008343D01*
X134187944Y-113009968D01*
X134224159Y-113077721D01*
X134260681Y-113122224D01*
X134260685Y-113122228D01*
X134272895Y-113137106D01*
X134287773Y-113149316D01*
X135110679Y-113972222D01*
X135122894Y-113987106D01*
X135182279Y-114035842D01*
X135250031Y-114072056D01*
X135323547Y-114094357D01*
X135400000Y-114101887D01*
X135419159Y-114100000D01*
X156530841Y-114100000D01*
X156550000Y-114101887D01*
X156626453Y-114094357D01*
X156699969Y-114072056D01*
X156767721Y-114035842D01*
X156827106Y-113987106D01*
X156839321Y-113972222D01*
X158142229Y-112669315D01*
X158157106Y-112657106D01*
X158175952Y-112634143D01*
X158205841Y-112597722D01*
X158205843Y-112597720D01*
X158242056Y-112529969D01*
X158244202Y-112522895D01*
X158264357Y-112456454D01*
X158271887Y-112380001D01*
X158270000Y-112360842D01*
X158270000Y-111461607D01*
X158272786Y-111426853D01*
X158280001Y-111423843D01*
X158317635Y-111413173D01*
X158372269Y-111401895D01*
X158434175Y-111391403D01*
X158540001Y-111391403D01*
X158540001Y-112299166D01*
X156719169Y-114120000D01*
X119390000Y-114120000D01*
X119390000Y-111130629D01*
X120400793Y-111130629D01*
X120625993Y-111466344D01*
X121066040Y-111701538D01*
X121543517Y-111846363D01*
X122040073Y-111895256D01*
X122536626Y-111846335D01*
X123014094Y-111701481D01*
X123454007Y-111466344D01*
X123679207Y-111130629D01*
X122040000Y-109491421D01*
X120400793Y-111130629D01*
X119390000Y-111130629D01*
X119390000Y-109350073D01*
X119494744Y-109350073D01*
X119543665Y-109846626D01*
X119688519Y-110324094D01*
X119923656Y-110764007D01*
X120259371Y-110989207D01*
X121898579Y-109350000D01*
X122181421Y-109350000D01*
X123820629Y-110989207D01*
X124156344Y-110764007D01*
X124391538Y-110323960D01*
X124536363Y-109846483D01*
X124585256Y-109349927D01*
X124536335Y-108853374D01*
X124391481Y-108375906D01*
X124156344Y-107935993D01*
X123820629Y-107710793D01*
X122181421Y-109350000D01*
X121898579Y-109350000D01*
X120259371Y-107710793D01*
X119923656Y-107935993D01*
X119688462Y-108376040D01*
X119543637Y-108853517D01*
X119494744Y-109350073D01*
X119390000Y-109350073D01*
X119390000Y-107569371D01*
X120400793Y-107569371D01*
X122040000Y-109208579D01*
X123679207Y-107569371D01*
X123454007Y-107233656D01*
X123013960Y-106998462D01*
X122536483Y-106853637D01*
X122039927Y-106804744D01*
X121543374Y-106853665D01*
X121065906Y-106998519D01*
X120625993Y-107233656D01*
X120400793Y-107569371D01*
X119390000Y-107569371D01*
X119390000Y-106520000D01*
X125678113Y-106520000D01*
X125680001Y-106539169D01*
X125680000Y-112330841D01*
X125678113Y-112350000D01*
X125685643Y-112426453D01*
X125707330Y-112497944D01*
X125707944Y-112499968D01*
X125744158Y-112567720D01*
X125792894Y-112627106D01*
X125807778Y-112639321D01*
X126780679Y-113612222D01*
X126792894Y-113627106D01*
X126852279Y-113675842D01*
X126920031Y-113712056D01*
X126993547Y-113734357D01*
X127070000Y-113741887D01*
X127089159Y-113740000D01*
X131560841Y-113740000D01*
X131580000Y-113741887D01*
X131656453Y-113734357D01*
X131729969Y-113712056D01*
X131797721Y-113675842D01*
X131857106Y-113627106D01*
X131869321Y-113612222D01*
X132502227Y-112979316D01*
X132517106Y-112967106D01*
X132565842Y-112907721D01*
X132602056Y-112839969D01*
X132608369Y-112819158D01*
X132619318Y-112783065D01*
X132674470Y-112691287D01*
X132680563Y-112680644D01*
X132732691Y-112584954D01*
X132733512Y-112583436D01*
X132781753Y-112493614D01*
X132830150Y-112410316D01*
X132885595Y-112327607D01*
X132956447Y-112238138D01*
X133054783Y-112132421D01*
X133130496Y-112056708D01*
X133255255Y-111869993D01*
X133341190Y-111662526D01*
X133385000Y-111442280D01*
X133385000Y-111217720D01*
X133341190Y-110997474D01*
X133255255Y-110790007D01*
X133130496Y-110603292D01*
X132971708Y-110444504D01*
X132784993Y-110319745D01*
X132577526Y-110233810D01*
X132357280Y-110190000D01*
X132132720Y-110190000D01*
X131912474Y-110233810D01*
X131705007Y-110319745D01*
X131518292Y-110444504D01*
X131359504Y-110603292D01*
X131234745Y-110790007D01*
X131148810Y-110997474D01*
X131105000Y-111217720D01*
X131105000Y-111442280D01*
X131148810Y-111662526D01*
X131234745Y-111869993D01*
X131301541Y-111969961D01*
X131309460Y-111983603D01*
X131330014Y-112014322D01*
X131339191Y-112026308D01*
X131359504Y-112056708D01*
X131372153Y-112069357D01*
X131428333Y-112142730D01*
X131442256Y-112159560D01*
X131547389Y-112277323D01*
X131551847Y-112282203D01*
X131651136Y-112388443D01*
X131728454Y-112477424D01*
X131771907Y-112540688D01*
X131782701Y-112567814D01*
X131782701Y-112567819D01*
X131775142Y-112587614D01*
X131712440Y-112666017D01*
X131418457Y-112960000D01*
X127231543Y-112960000D01*
X126460000Y-112188457D01*
X126460000Y-111217720D01*
X128815000Y-111217720D01*
X128815000Y-111442280D01*
X128858810Y-111662526D01*
X128944745Y-111869993D01*
X129069504Y-112056708D01*
X129228292Y-112215496D01*
X129415007Y-112340255D01*
X129622474Y-112426190D01*
X129842720Y-112470000D01*
X130067280Y-112470000D01*
X130287526Y-112426190D01*
X130494993Y-112340255D01*
X130681708Y-112215496D01*
X130840496Y-112056708D01*
X130965255Y-111869993D01*
X131051190Y-111662526D01*
X131095000Y-111442280D01*
X131095000Y-111217720D01*
X131051190Y-110997474D01*
X130965255Y-110790007D01*
X130840496Y-110603292D01*
X130681708Y-110444504D01*
X130494993Y-110319745D01*
X130287526Y-110233810D01*
X130067280Y-110190000D01*
X129842720Y-110190000D01*
X129622474Y-110233810D01*
X129415007Y-110319745D01*
X129228292Y-110444504D01*
X129069504Y-110603292D01*
X128944745Y-110790007D01*
X128858810Y-110997474D01*
X128815000Y-111217720D01*
X126460000Y-111217720D01*
X126460000Y-109237720D01*
X134540000Y-109237720D01*
X134540000Y-109462280D01*
X134583810Y-109682526D01*
X134669745Y-109889993D01*
X134794504Y-110076708D01*
X134953292Y-110235496D01*
X135140007Y-110360255D01*
X135347474Y-110446190D01*
X135567720Y-110490000D01*
X135792280Y-110490000D01*
X136012526Y-110446190D01*
X136219993Y-110360255D01*
X136406708Y-110235496D01*
X136565496Y-110076708D01*
X136690255Y-109889993D01*
X136776190Y-109682526D01*
X136820000Y-109462280D01*
X136820000Y-109237720D01*
X136776190Y-109017474D01*
X136690255Y-108810007D01*
X136565496Y-108623292D01*
X136406708Y-108464504D01*
X136219993Y-108339745D01*
X136012526Y-108253810D01*
X135792280Y-108210000D01*
X135567720Y-108210000D01*
X135347474Y-108253810D01*
X135140007Y-108339745D01*
X134953292Y-108464504D01*
X134794504Y-108623292D01*
X134669745Y-108810007D01*
X134583810Y-109017474D01*
X134540000Y-109237720D01*
X126460000Y-109237720D01*
X126460000Y-106681543D01*
X126621543Y-106520000D01*
X128813597Y-106520000D01*
X128813597Y-108220000D01*
X128819196Y-108276850D01*
X128835779Y-108331515D01*
X128862707Y-108381895D01*
X128898947Y-108426053D01*
X128943105Y-108462293D01*
X128993485Y-108489221D01*
X129048150Y-108505804D01*
X129105000Y-108511403D01*
X130805000Y-108511403D01*
X130861850Y-108505804D01*
X130916515Y-108489221D01*
X130966895Y-108462293D01*
X131011053Y-108426053D01*
X131047293Y-108381895D01*
X131074221Y-108331515D01*
X131090804Y-108276850D01*
X131096403Y-108220000D01*
X131096403Y-107257720D01*
X131105000Y-107257720D01*
X131105000Y-107482280D01*
X131148810Y-107702526D01*
X131234745Y-107909993D01*
X131359504Y-108096708D01*
X131518292Y-108255496D01*
X131705007Y-108380255D01*
X131912474Y-108466190D01*
X132132720Y-108510000D01*
X132357280Y-108510000D01*
X132577526Y-108466190D01*
X132784993Y-108380255D01*
X132971708Y-108255496D01*
X133130496Y-108096708D01*
X133255255Y-107909993D01*
X133341190Y-107702526D01*
X133385000Y-107482280D01*
X133385000Y-107257720D01*
X133395000Y-107257720D01*
X133395000Y-107482280D01*
X133438810Y-107702526D01*
X133524745Y-107909993D01*
X133649504Y-108096708D01*
X133808292Y-108255496D01*
X133995007Y-108380255D01*
X134202474Y-108466190D01*
X134422720Y-108510000D01*
X134647280Y-108510000D01*
X134867526Y-108466190D01*
X135074993Y-108380255D01*
X135261708Y-108255496D01*
X135420496Y-108096708D01*
X135545255Y-107909993D01*
X135631190Y-107702526D01*
X135675000Y-107482280D01*
X135675000Y-107257720D01*
X135685000Y-107257720D01*
X135685000Y-107482280D01*
X135728810Y-107702526D01*
X135814745Y-107909993D01*
X135939504Y-108096708D01*
X136098292Y-108255496D01*
X136285007Y-108380255D01*
X136492474Y-108466190D01*
X136712720Y-108510000D01*
X136937280Y-108510000D01*
X137157526Y-108466190D01*
X137364993Y-108380255D01*
X137551708Y-108255496D01*
X137710496Y-108096708D01*
X137835255Y-107909993D01*
X137921190Y-107702526D01*
X137965000Y-107482280D01*
X137965000Y-107257720D01*
X137921190Y-107037474D01*
X137835255Y-106830007D01*
X137710496Y-106643292D01*
X137551708Y-106484504D01*
X137364993Y-106359745D01*
X137157526Y-106273810D01*
X136937280Y-106230000D01*
X136712720Y-106230000D01*
X136492474Y-106273810D01*
X136285007Y-106359745D01*
X136098292Y-106484504D01*
X135939504Y-106643292D01*
X135814745Y-106830007D01*
X135728810Y-107037474D01*
X135685000Y-107257720D01*
X135675000Y-107257720D01*
X135631190Y-107037474D01*
X135545255Y-106830007D01*
X135420496Y-106643292D01*
X135261708Y-106484504D01*
X135074993Y-106359745D01*
X134867526Y-106273810D01*
X134647280Y-106230000D01*
X134422720Y-106230000D01*
X134202474Y-106273810D01*
X133995007Y-106359745D01*
X133808292Y-106484504D01*
X133649504Y-106643292D01*
X133524745Y-106830007D01*
X133438810Y-107037474D01*
X133395000Y-107257720D01*
X133385000Y-107257720D01*
X133341190Y-107037474D01*
X133255255Y-106830007D01*
X133130496Y-106643292D01*
X132971708Y-106484504D01*
X132784993Y-106359745D01*
X132577526Y-106273810D01*
X132357280Y-106230000D01*
X132132720Y-106230000D01*
X131912474Y-106273810D01*
X131705007Y-106359745D01*
X131518292Y-106484504D01*
X131359504Y-106643292D01*
X131234745Y-106830007D01*
X131148810Y-107037474D01*
X131105000Y-107257720D01*
X131096403Y-107257720D01*
X131096403Y-106520000D01*
X131090804Y-106463150D01*
X131074221Y-106408485D01*
X131047293Y-106358105D01*
X131011053Y-106313947D01*
X130966895Y-106277707D01*
X130916515Y-106250779D01*
X130861850Y-106234196D01*
X130805000Y-106228597D01*
X129105000Y-106228597D01*
X129048150Y-106234196D01*
X128993485Y-106250779D01*
X128943105Y-106277707D01*
X128898947Y-106313947D01*
X128862707Y-106358105D01*
X128835779Y-106408485D01*
X128819196Y-106463150D01*
X128813597Y-106520000D01*
X126621543Y-106520000D01*
X127341544Y-105800000D01*
X132240839Y-105800000D01*
X132259998Y-105801887D01*
X132336451Y-105794357D01*
X132409967Y-105772056D01*
X132477719Y-105735842D01*
X132537104Y-105687106D01*
X132549319Y-105672222D01*
X137685059Y-100536482D01*
X137721844Y-100502138D01*
X137745624Y-100483373D01*
X137761417Y-100473299D01*
X137773339Y-100467413D01*
X137787713Y-100462068D01*
X137810732Y-100455489D01*
X137845816Y-100447005D01*
X137890470Y-100436374D01*
X137898049Y-100434461D01*
X137947637Y-100421234D01*
X137960694Y-100417421D01*
X137976362Y-100412444D01*
X138002097Y-100407325D01*
X138109470Y-100362849D01*
X138206103Y-100298281D01*
X138288283Y-100216101D01*
X138352851Y-100119468D01*
X138397327Y-100012095D01*
X138420000Y-99898108D01*
X138420000Y-99781888D01*
X138397327Y-99667901D01*
X138352851Y-99560528D01*
X138288283Y-99463895D01*
X138206103Y-99381715D01*
X138109470Y-99317147D01*
X138002097Y-99272671D01*
X137888110Y-99249998D01*
X137771890Y-99249998D01*
X137657903Y-99272671D01*
X137550530Y-99317147D01*
X137453897Y-99381715D01*
X137371717Y-99463895D01*
X137307149Y-99560528D01*
X137262673Y-99667901D01*
X137257555Y-99693629D01*
X137252578Y-99709297D01*
X137248763Y-99722360D01*
X137235536Y-99771948D01*
X137233623Y-99779527D01*
X137222992Y-99824181D01*
X137214508Y-99859265D01*
X137207929Y-99882284D01*
X137202584Y-99896658D01*
X137196698Y-99908580D01*
X137186624Y-99924373D01*
X137167853Y-99948160D01*
X137133523Y-99984932D01*
X132098455Y-105020000D01*
X127199158Y-105020000D01*
X127179999Y-105018113D01*
X127103546Y-105025643D01*
X127067720Y-105036511D01*
X127030031Y-105047944D01*
X126962279Y-105084158D01*
X126962277Y-105084159D01*
X126962278Y-105084159D01*
X126917775Y-105120681D01*
X126917772Y-105120684D01*
X126902894Y-105132894D01*
X126890684Y-105147772D01*
X125807773Y-106230684D01*
X125792895Y-106242894D01*
X125780685Y-106257772D01*
X125780681Y-106257776D01*
X125744159Y-106302279D01*
X125707944Y-106370032D01*
X125685643Y-106443547D01*
X125678113Y-106520000D01*
X119390000Y-106520000D01*
X119390000Y-102503861D01*
X119483999Y-102601423D01*
X119686462Y-102742220D01*
X119912503Y-102840813D01*
X120005687Y-102862973D01*
X120200000Y-102768563D01*
X120200000Y-100990000D01*
X120400000Y-100990000D01*
X120400000Y-102768563D01*
X120594313Y-102862973D01*
X120687497Y-102840813D01*
X120913538Y-102742220D01*
X121116001Y-102601423D01*
X121287106Y-102423832D01*
X121420277Y-102216273D01*
X121510396Y-101986722D01*
X121554000Y-101744000D01*
X121554000Y-100990000D01*
X120400000Y-100990000D01*
X120200000Y-100990000D01*
X120180000Y-100990000D01*
X120180000Y-100790000D01*
X120200000Y-100790000D01*
X120200000Y-99011437D01*
X120400000Y-99011437D01*
X120400000Y-100790000D01*
X121554000Y-100790000D01*
X121554000Y-100036000D01*
X121510396Y-99793278D01*
X121420277Y-99563727D01*
X121287106Y-99356168D01*
X121116001Y-99178577D01*
X120913538Y-99037780D01*
X120687497Y-98939187D01*
X120594313Y-98917027D01*
X120400000Y-99011437D01*
X120200000Y-99011437D01*
X120005687Y-98917027D01*
X119912503Y-98939187D01*
X119686462Y-99037780D01*
X119483999Y-99178577D01*
X119390000Y-99276139D01*
X119390000Y-97160000D01*
X149760000Y-97160000D01*
X149760001Y-107233289D01*
G04 #@! TA.AperFunction,Conductor*
D16*
G36*
X149760001Y-107233289D02*
G01*
X149758355Y-107250000D01*
X149764920Y-107316652D01*
X149784361Y-107380742D01*
X149809711Y-107428167D01*
X146746373Y-104364830D01*
X146711320Y-104327351D01*
X146691932Y-104302902D01*
X146681624Y-104286841D01*
X146675891Y-104275257D01*
X146670992Y-104261948D01*
X146665106Y-104240535D01*
X146657659Y-104207019D01*
X146648442Y-104162949D01*
X146647300Y-104157731D01*
X146635727Y-104107069D01*
X146632949Y-104095928D01*
X146624984Y-104066482D01*
X146617307Y-104027887D01*
X146572831Y-103920514D01*
X146508263Y-103823881D01*
X146426083Y-103741701D01*
X146329450Y-103677133D01*
X146222077Y-103632657D01*
X146108090Y-103609984D01*
X145991870Y-103609984D01*
X145877883Y-103632657D01*
X145770510Y-103677133D01*
X145673877Y-103741701D01*
X145591697Y-103823881D01*
X145527129Y-103920514D01*
X145482653Y-104027887D01*
X145459980Y-104141874D01*
X145459980Y-104258094D01*
X145482653Y-104372081D01*
X145527129Y-104479454D01*
X145591697Y-104576087D01*
X145673877Y-104658267D01*
X145770510Y-104722835D01*
X145877883Y-104767311D01*
X145889243Y-104769571D01*
X145894511Y-104771528D01*
X145906695Y-104775749D01*
X145957502Y-104792096D01*
X145964827Y-104794346D01*
X146010295Y-104807660D01*
X146047721Y-104818693D01*
X146073416Y-104827309D01*
X146091331Y-104834761D01*
X146107246Y-104843201D01*
X146127039Y-104856369D01*
X146154576Y-104878557D01*
X146194618Y-104916161D01*
X148758516Y-107480059D01*
X148669206Y-107569369D01*
X148444007Y-107233656D01*
X148003960Y-106998462D01*
X147526483Y-106853637D01*
X147029927Y-106804744D01*
X146533374Y-106853665D01*
X146055906Y-106998519D01*
X145615993Y-107233656D01*
X145390793Y-107569371D01*
X147030000Y-109208579D01*
X147044142Y-109194436D01*
X147185564Y-109335858D01*
X147171421Y-109350000D01*
X148810629Y-110989207D01*
X149146344Y-110764007D01*
X149381538Y-110323960D01*
X149526363Y-109846483D01*
X149575256Y-109349927D01*
X149526335Y-108853374D01*
X149381481Y-108375906D01*
X149146344Y-107935993D01*
X148810631Y-107710794D01*
X148899941Y-107621484D01*
X150887053Y-109608597D01*
X150870000Y-109608597D01*
X150783887Y-109617078D01*
X150701082Y-109642197D01*
X150624770Y-109682987D01*
X150557881Y-109737881D01*
X150502987Y-109804770D01*
X150462197Y-109881082D01*
X150437078Y-109963887D01*
X150428597Y-110050000D01*
X150428597Y-110950000D01*
X150437078Y-111036113D01*
X150462197Y-111118918D01*
X150502987Y-111195230D01*
X150557881Y-111262119D01*
X150624770Y-111317013D01*
X150701082Y-111357803D01*
X150783887Y-111382922D01*
X150870000Y-111391403D01*
X152570000Y-111391403D01*
X152656113Y-111382922D01*
X152738918Y-111357803D01*
X152815230Y-111317013D01*
X152882119Y-111262119D01*
X152937013Y-111195230D01*
X152977803Y-111118918D01*
X153002922Y-111036113D01*
X153011403Y-110950000D01*
X153011403Y-110050000D01*
X153002922Y-109963887D01*
X152977803Y-109881082D01*
X152937013Y-109804770D01*
X152882119Y-109737881D01*
X152815230Y-109682987D01*
X152738918Y-109642197D01*
X152656113Y-109617078D01*
X152570000Y-109608597D01*
X152058501Y-109608597D01*
X152018678Y-109576669D01*
X152015425Y-109574100D01*
X151950910Y-109523874D01*
X151887042Y-109473868D01*
X151821695Y-109420753D01*
X151750281Y-109359308D01*
X151668522Y-109284381D01*
X151571381Y-109189837D01*
X149921833Y-107540289D01*
X149969258Y-107565639D01*
X150033348Y-107585080D01*
X150083299Y-107590000D01*
X150100000Y-107591645D01*
X150116701Y-107590000D01*
X151163299Y-107590000D01*
X151180000Y-107591645D01*
X151196701Y-107590000D01*
X151246652Y-107585080D01*
X151310742Y-107565639D01*
X151369808Y-107534067D01*
X151421579Y-107491579D01*
X151464067Y-107439808D01*
X151495639Y-107380742D01*
X151515080Y-107316652D01*
X151521645Y-107250000D01*
X151520000Y-107233299D01*
X151520000Y-98340000D01*
X158540000Y-98340000D01*
X158540001Y-109608597D01*
X157520000Y-109608597D01*
X157433887Y-109617078D01*
X157351082Y-109642197D01*
X157274770Y-109682987D01*
X157207881Y-109737881D01*
X157152987Y-109804770D01*
X157112197Y-109881082D01*
X157087078Y-109963887D01*
X157078597Y-110050000D01*
X157078597Y-110950000D01*
X157087078Y-111036113D01*
X157112197Y-111118918D01*
X157152987Y-111195230D01*
X157207881Y-111262119D01*
X157274770Y-111317013D01*
X157351082Y-111357803D01*
X157433887Y-111382922D01*
X157489868Y-111388435D01*
X157490000Y-111450383D01*
X157490000Y-112218456D01*
X156388457Y-113320000D01*
X155961543Y-113320000D01*
X156160140Y-113121403D01*
X156400000Y-113121403D01*
X156486113Y-113112922D01*
X156568918Y-113087803D01*
X156645230Y-113047013D01*
X156712119Y-112992119D01*
X156767013Y-112925230D01*
X156807803Y-112848918D01*
X156832922Y-112766113D01*
X156841403Y-112680000D01*
X156841403Y-110980000D01*
X156832922Y-110893887D01*
X156807803Y-110811082D01*
X156767013Y-110734770D01*
X156712119Y-110667881D01*
X156645230Y-110612987D01*
X156568918Y-110572197D01*
X156486113Y-110547078D01*
X156400000Y-110538597D01*
X155500000Y-110538597D01*
X155413887Y-110547078D01*
X155331082Y-110572197D01*
X155254770Y-110612987D01*
X155187881Y-110667881D01*
X155132987Y-110734770D01*
X155092197Y-110811082D01*
X155067078Y-110893887D01*
X155058597Y-110980000D01*
X155058597Y-112680000D01*
X155067078Y-112766113D01*
X155092197Y-112848918D01*
X155103466Y-112870000D01*
X154976534Y-112870000D01*
X154987803Y-112848918D01*
X155012922Y-112766113D01*
X155021403Y-112680000D01*
X155021403Y-110980000D01*
X155012922Y-110893887D01*
X154987803Y-110811082D01*
X154947013Y-110734770D01*
X154892119Y-110667881D01*
X154825230Y-110612987D01*
X154748918Y-110572197D01*
X154666113Y-110547078D01*
X154580000Y-110538597D01*
X153680000Y-110538597D01*
X153593887Y-110547078D01*
X153511082Y-110572197D01*
X153434770Y-110612987D01*
X153367881Y-110667881D01*
X153312987Y-110734770D01*
X153272197Y-110811082D01*
X153247078Y-110893887D01*
X153238597Y-110980000D01*
X153238597Y-111477472D01*
X153205038Y-111511401D01*
X153170997Y-111539004D01*
X153139281Y-111557401D01*
X153098165Y-111572433D01*
X153034484Y-111584490D01*
X152932198Y-111590000D01*
X148212662Y-111590000D01*
X148444007Y-111466344D01*
X148669207Y-111130629D01*
X147030000Y-109491421D01*
X145390793Y-111130629D01*
X145615993Y-111466344D01*
X145847353Y-111590000D01*
X145204488Y-111590000D01*
X143775029Y-110160541D01*
X143775029Y-109350073D01*
X144484744Y-109350073D01*
X144533665Y-109846626D01*
X144678519Y-110324094D01*
X144913656Y-110764007D01*
X145249371Y-110989207D01*
X146888579Y-109350000D01*
X145249371Y-107710793D01*
X144913656Y-107935993D01*
X144678462Y-108376040D01*
X144533637Y-108853517D01*
X144484744Y-109350073D01*
X143775029Y-109350073D01*
X143775029Y-109296514D01*
X144536163Y-108535381D01*
X144551041Y-108523171D01*
X144599777Y-108463786D01*
X144635991Y-108396034D01*
X144658292Y-108322518D01*
X144663935Y-108265224D01*
X144665822Y-108246065D01*
X144663935Y-108226906D01*
X144663935Y-100423083D01*
X144665821Y-100403934D01*
X144663935Y-100384785D01*
X144663935Y-100384776D01*
X144658292Y-100327482D01*
X144635991Y-100253966D01*
X144599777Y-100186214D01*
X144551041Y-100126829D01*
X144536158Y-100114615D01*
X141739321Y-97317778D01*
X141727106Y-97302894D01*
X141667721Y-97254158D01*
X141599969Y-97217944D01*
X141526453Y-97195643D01*
X141469159Y-97190000D01*
X141450000Y-97188113D01*
X141430841Y-97190000D01*
X125599159Y-97190000D01*
X125580000Y-97188113D01*
X125503546Y-97195643D01*
X125430031Y-97217944D01*
X125362279Y-97254158D01*
X125332238Y-97278812D01*
X125317775Y-97290681D01*
X125317772Y-97290684D01*
X125302894Y-97302894D01*
X125290684Y-97317772D01*
X122447773Y-100160684D01*
X122432895Y-100172894D01*
X122420685Y-100187772D01*
X122420681Y-100187776D01*
X122384159Y-100232279D01*
X122347944Y-100300032D01*
X122325643Y-100373547D01*
X122318113Y-100450000D01*
X122320001Y-100469169D01*
X122320000Y-101160295D01*
X122298546Y-101166803D01*
X122117178Y-101263746D01*
X121958209Y-101394209D01*
X121827746Y-101553178D01*
X121730803Y-101734547D01*
X121671106Y-101931341D01*
X121656000Y-102084717D01*
X121656001Y-103695284D01*
X121671107Y-103848660D01*
X121730804Y-104045454D01*
X121827747Y-104226822D01*
X121958210Y-104385791D01*
X122117179Y-104516254D01*
X122298547Y-104613197D01*
X122495341Y-104672894D01*
X122700000Y-104693051D01*
X122904660Y-104672894D01*
X123101454Y-104613197D01*
X123282822Y-104516254D01*
X123441791Y-104385791D01*
X123572254Y-104226822D01*
X123669197Y-104045454D01*
X123728894Y-103848660D01*
X123744000Y-103695284D01*
X123744000Y-102084716D01*
X123728894Y-101931340D01*
X123669197Y-101734546D01*
X123572254Y-101553178D01*
X123441791Y-101394209D01*
X123282822Y-101263746D01*
X123101453Y-101166803D01*
X123100000Y-101166362D01*
X123100000Y-100611543D01*
X125741544Y-97970000D01*
X141288457Y-97970000D01*
X143883935Y-100565478D01*
X143883936Y-108084520D01*
X143122807Y-108845650D01*
X143107923Y-108857865D01*
X143095710Y-108872747D01*
X143059188Y-108917250D01*
X143022973Y-108985003D01*
X143000672Y-109058518D01*
X142993142Y-109134971D01*
X142995029Y-109154130D01*
X142995030Y-110302915D01*
X142993142Y-110322084D01*
X143000672Y-110398537D01*
X143022973Y-110472052D01*
X143059188Y-110539805D01*
X143095710Y-110584308D01*
X143095714Y-110584312D01*
X143107924Y-110599190D01*
X143122802Y-110611400D01*
X144753624Y-112242222D01*
X144765839Y-112257106D01*
X144825224Y-112305842D01*
X144892976Y-112342056D01*
X144966492Y-112364357D01*
X145023786Y-112370000D01*
X145023795Y-112370000D01*
X145042944Y-112371886D01*
X145062093Y-112370000D01*
X152933585Y-112370000D01*
X153065408Y-112375837D01*
X153161184Y-112390044D01*
X153236427Y-112410209D01*
X153238597Y-112411056D01*
X153238597Y-112680000D01*
X153247078Y-112766113D01*
X153272197Y-112848918D01*
X153283466Y-112870000D01*
X152061543Y-112870000D01*
X151789319Y-112597776D01*
X151777106Y-112582894D01*
X151717721Y-112534158D01*
X151649969Y-112497944D01*
X151576453Y-112475643D01*
X151519159Y-112470000D01*
X151500000Y-112468113D01*
X151480841Y-112470000D01*
X142681543Y-112470000D01*
X142350000Y-112138457D01*
X142350000Y-107421890D01*
X142530000Y-107421890D01*
X142530000Y-107538110D01*
X142552673Y-107652097D01*
X142597149Y-107759470D01*
X142661717Y-107856103D01*
X142743897Y-107938283D01*
X142840530Y-108002851D01*
X142947903Y-108047327D01*
X143061890Y-108070000D01*
X143178110Y-108070000D01*
X143292097Y-108047327D01*
X143399470Y-108002851D01*
X143496103Y-107938283D01*
X143578283Y-107856103D01*
X143642851Y-107759470D01*
X143687327Y-107652097D01*
X143710000Y-107538110D01*
X143710000Y-107421890D01*
X143687327Y-107307903D01*
X143642851Y-107200530D01*
X143634113Y-107187452D01*
X143630387Y-107179606D01*
X143624490Y-107167879D01*
X143599717Y-107121276D01*
X143595997Y-107114497D01*
X143572637Y-107073245D01*
X143554114Y-107040365D01*
X143542123Y-107017050D01*
X143534993Y-107000293D01*
X143529971Y-106984410D01*
X143525454Y-106962577D01*
X143521727Y-106928877D01*
X143520000Y-106875332D01*
X143520000Y-104794967D01*
X143521726Y-104744687D01*
X143525273Y-104714601D01*
X143529318Y-104696299D01*
X143533583Y-104683718D01*
X143539967Y-104669774D01*
X143551587Y-104648854D01*
X143570571Y-104617760D01*
X143594461Y-104578942D01*
X143598469Y-104572229D01*
X143624180Y-104527812D01*
X143630718Y-104515880D01*
X143638279Y-104501279D01*
X143652851Y-104479470D01*
X143697327Y-104372097D01*
X143720000Y-104258110D01*
X143720000Y-104141890D01*
X143697327Y-104027903D01*
X143652851Y-103920530D01*
X143588283Y-103823897D01*
X143506103Y-103741717D01*
X143409470Y-103677149D01*
X143302097Y-103632673D01*
X143188110Y-103610000D01*
X143071890Y-103610000D01*
X142957903Y-103632673D01*
X142850530Y-103677149D01*
X142753897Y-103741717D01*
X142671717Y-103823897D01*
X142607149Y-103920530D01*
X142562673Y-104027903D01*
X142540000Y-104141890D01*
X142540000Y-104258110D01*
X142562673Y-104372097D01*
X142607149Y-104479470D01*
X142621718Y-104501275D01*
X142629279Y-104515876D01*
X142635819Y-104527812D01*
X142661530Y-104572229D01*
X142665538Y-104578942D01*
X142689428Y-104617760D01*
X142708412Y-104648854D01*
X142720032Y-104669774D01*
X142726416Y-104683718D01*
X142730681Y-104696299D01*
X142734726Y-104714601D01*
X142738273Y-104744687D01*
X142740000Y-104794979D01*
X142740001Y-106875080D01*
X142738282Y-106926103D01*
X142734716Y-106956806D01*
X142730659Y-106975337D01*
X142726492Y-106987660D01*
X142720435Y-107000809D01*
X142709265Y-107020579D01*
X142690702Y-107050091D01*
X142666269Y-107088088D01*
X142663054Y-107093205D01*
X142635971Y-107137318D01*
X142629864Y-107147745D01*
X142616930Y-107170925D01*
X142597149Y-107200530D01*
X142552673Y-107307903D01*
X142530000Y-107421890D01*
X142350000Y-107421890D01*
X142350000Y-100239158D01*
X142351887Y-100219999D01*
X142344357Y-100143546D01*
X142322056Y-100070031D01*
X142315476Y-100057720D01*
X142285842Y-100002279D01*
X142237106Y-99942894D01*
X142222229Y-99930685D01*
X140699321Y-98407778D01*
X140687106Y-98392894D01*
X140627721Y-98344158D01*
X140559969Y-98307944D01*
X140486453Y-98285643D01*
X140429159Y-98280000D01*
X140410000Y-98278113D01*
X140390841Y-98280000D01*
X130699148Y-98280000D01*
X130679999Y-98278114D01*
X130660850Y-98280000D01*
X130660841Y-98280000D01*
X130603547Y-98285643D01*
X130530031Y-98307944D01*
X130462279Y-98344158D01*
X130402894Y-98392894D01*
X130390679Y-98407778D01*
X127967773Y-100830684D01*
X127952895Y-100842894D01*
X127940685Y-100857772D01*
X127940681Y-100857776D01*
X127904159Y-100902279D01*
X127867944Y-100970032D01*
X127845643Y-101043547D01*
X127838113Y-101120000D01*
X127840001Y-101139169D01*
X127840001Y-101154228D01*
X127798546Y-101166803D01*
X127617178Y-101263746D01*
X127458209Y-101394209D01*
X127444000Y-101411523D01*
X127444000Y-100084716D01*
X127428894Y-99931340D01*
X127369197Y-99734546D01*
X127272254Y-99553178D01*
X127141791Y-99394209D01*
X126982822Y-99263746D01*
X126801453Y-99166803D01*
X126604659Y-99107106D01*
X126400000Y-99086949D01*
X126195340Y-99107106D01*
X125998546Y-99166803D01*
X125817178Y-99263746D01*
X125658209Y-99394209D01*
X125527746Y-99553178D01*
X125430803Y-99734547D01*
X125371106Y-99931341D01*
X125356000Y-100084717D01*
X125356001Y-101695284D01*
X125371107Y-101848660D01*
X125430804Y-102045454D01*
X125527747Y-102226822D01*
X125658210Y-102385791D01*
X125817179Y-102516254D01*
X125998547Y-102613197D01*
X126195341Y-102672894D01*
X126400000Y-102693051D01*
X126604660Y-102672894D01*
X126801454Y-102613197D01*
X126982822Y-102516254D01*
X127141791Y-102385791D01*
X127156000Y-102368477D01*
X127156001Y-103695284D01*
X127171107Y-103848660D01*
X127230804Y-104045454D01*
X127327747Y-104226822D01*
X127458210Y-104385791D01*
X127617179Y-104516254D01*
X127798547Y-104613197D01*
X127995341Y-104672894D01*
X128200000Y-104693051D01*
X128404660Y-104672894D01*
X128601454Y-104613197D01*
X128782822Y-104516254D01*
X128941791Y-104385791D01*
X129072254Y-104226822D01*
X129169197Y-104045454D01*
X129228894Y-103848660D01*
X129244000Y-103695284D01*
X129244000Y-102084716D01*
X129228894Y-101931340D01*
X129169197Y-101734546D01*
X129072254Y-101553178D01*
X128941791Y-101394209D01*
X128782822Y-101263746D01*
X128688313Y-101213230D01*
X129816826Y-100084717D01*
X130856000Y-100084717D01*
X130856001Y-101695284D01*
X130871107Y-101848660D01*
X130930804Y-102045454D01*
X131027747Y-102226822D01*
X131158210Y-102385791D01*
X131317179Y-102516254D01*
X131498547Y-102613197D01*
X131695341Y-102672894D01*
X131900000Y-102693051D01*
X132104660Y-102672894D01*
X132301454Y-102613197D01*
X132482822Y-102516254D01*
X132641791Y-102385791D01*
X132772254Y-102226822D01*
X132869197Y-102045454D01*
X132928894Y-101848660D01*
X132944000Y-101695284D01*
X132944000Y-100084716D01*
X132928894Y-99931340D01*
X132869197Y-99734546D01*
X132772254Y-99553178D01*
X132641791Y-99394209D01*
X132482822Y-99263746D01*
X132301453Y-99166803D01*
X132104659Y-99107106D01*
X131900000Y-99086949D01*
X131695340Y-99107106D01*
X131498546Y-99166803D01*
X131317178Y-99263746D01*
X131158209Y-99394209D01*
X131027746Y-99553178D01*
X130930803Y-99734547D01*
X130871106Y-99931341D01*
X130856000Y-100084717D01*
X129816826Y-100084717D01*
X130841543Y-99060000D01*
X140248457Y-99060000D01*
X141570000Y-100381544D01*
X141570001Y-112280831D01*
X141568113Y-112300000D01*
X141575643Y-112376453D01*
X141597944Y-112449968D01*
X141634159Y-112517721D01*
X141670681Y-112562224D01*
X141670685Y-112562228D01*
X141682895Y-112577106D01*
X141697773Y-112589316D01*
X142230679Y-113122222D01*
X142242894Y-113137106D01*
X142302279Y-113185842D01*
X142370031Y-113222056D01*
X142443547Y-113244357D01*
X142520000Y-113251887D01*
X142539159Y-113250000D01*
X151338457Y-113250000D01*
X151408457Y-113320000D01*
X135561543Y-113320000D01*
X134958084Y-112716541D01*
X134940000Y-112693598D01*
X134940000Y-112549039D01*
X134964369Y-112519847D01*
X135062580Y-112423604D01*
X135182063Y-112311533D01*
X135190066Y-112303731D01*
X135311987Y-112180204D01*
X135330408Y-112159673D01*
X135387065Y-112090139D01*
X135420496Y-112056708D01*
X135545255Y-111869993D01*
X135631190Y-111662526D01*
X135675000Y-111442280D01*
X135675000Y-111217720D01*
X135685000Y-111217720D01*
X135685000Y-111442280D01*
X135728810Y-111662526D01*
X135814745Y-111869993D01*
X135939504Y-112056708D01*
X136098292Y-112215496D01*
X136285007Y-112340255D01*
X136492474Y-112426190D01*
X136712720Y-112470000D01*
X136937280Y-112470000D01*
X137157526Y-112426190D01*
X137364993Y-112340255D01*
X137551708Y-112215496D01*
X137710496Y-112056708D01*
X137835255Y-111869993D01*
X137921190Y-111662526D01*
X137965000Y-111442280D01*
X137965000Y-111217720D01*
X137975000Y-111217720D01*
X137975000Y-111442280D01*
X138018810Y-111662526D01*
X138104745Y-111869993D01*
X138229504Y-112056708D01*
X138388292Y-112215496D01*
X138575007Y-112340255D01*
X138782474Y-112426190D01*
X139002720Y-112470000D01*
X139227280Y-112470000D01*
X139447526Y-112426190D01*
X139654993Y-112340255D01*
X139841708Y-112215496D01*
X140000496Y-112056708D01*
X140125255Y-111869993D01*
X140211190Y-111662526D01*
X140226227Y-111586930D01*
X140244698Y-111523617D01*
X140251775Y-111493443D01*
X140279203Y-111340051D01*
X140282494Y-111315763D01*
X140295478Y-111175637D01*
X140296376Y-111162897D01*
X140302604Y-111034197D01*
X140309273Y-110922371D01*
X140321606Y-110830370D01*
X140343429Y-110749403D01*
X140381176Y-110666221D01*
X140446271Y-110568740D01*
X140556671Y-110444872D01*
X140922223Y-110079320D01*
X140937106Y-110067106D01*
X140985842Y-110007721D01*
X141022056Y-109939969D01*
X141044357Y-109866453D01*
X141050000Y-109809159D01*
X141050000Y-109809150D01*
X141051886Y-109790001D01*
X141050000Y-109770852D01*
X141050000Y-105159148D01*
X141051886Y-105139999D01*
X141050000Y-105120850D01*
X141050000Y-105120841D01*
X141044357Y-105063547D01*
X141022056Y-104990031D01*
X140985842Y-104922279D01*
X140937106Y-104862894D01*
X140922222Y-104850679D01*
X140070000Y-103998457D01*
X140070000Y-100424967D01*
X140071726Y-100374687D01*
X140075273Y-100344601D01*
X140079318Y-100326299D01*
X140083583Y-100313718D01*
X140089967Y-100299774D01*
X140101587Y-100278854D01*
X140120571Y-100247760D01*
X140144461Y-100208942D01*
X140148469Y-100202229D01*
X140174180Y-100157812D01*
X140180718Y-100145880D01*
X140188279Y-100131279D01*
X140202851Y-100109470D01*
X140247327Y-100002097D01*
X140270000Y-99888110D01*
X140270000Y-99771890D01*
X140247327Y-99657903D01*
X140202851Y-99550530D01*
X140138283Y-99453897D01*
X140056103Y-99371717D01*
X139959470Y-99307149D01*
X139852097Y-99262673D01*
X139738110Y-99240000D01*
X139621890Y-99240000D01*
X139507903Y-99262673D01*
X139400530Y-99307149D01*
X139303897Y-99371717D01*
X139221717Y-99453897D01*
X139157149Y-99550530D01*
X139112673Y-99657903D01*
X139090000Y-99771890D01*
X139090000Y-99888110D01*
X139112673Y-100002097D01*
X139157149Y-100109470D01*
X139171718Y-100131275D01*
X139179279Y-100145876D01*
X139185819Y-100157812D01*
X139211530Y-100202229D01*
X139215538Y-100208942D01*
X139239428Y-100247760D01*
X139258412Y-100278854D01*
X139270032Y-100299774D01*
X139276416Y-100313718D01*
X139280681Y-100326299D01*
X139284726Y-100344601D01*
X139288273Y-100374687D01*
X139290001Y-100424999D01*
X139290000Y-104140841D01*
X139288113Y-104160000D01*
X139295643Y-104236453D01*
X139314911Y-104299969D01*
X139317944Y-104309968D01*
X139354158Y-104377720D01*
X139402894Y-104437106D01*
X139417778Y-104449321D01*
X140270001Y-105301544D01*
X140270000Y-109628457D01*
X140005141Y-109893316D01*
X139881774Y-110003241D01*
X139784851Y-110067881D01*
X139702303Y-110105199D01*
X139621986Y-110126628D01*
X139530592Y-110138527D01*
X139419372Y-110144601D01*
X139290944Y-110150019D01*
X139278521Y-110150810D01*
X139138498Y-110162753D01*
X139114455Y-110165821D01*
X138961118Y-110191936D01*
X138931050Y-110198718D01*
X138864539Y-110217486D01*
X138782474Y-110233810D01*
X138575007Y-110319745D01*
X138388292Y-110444504D01*
X138229504Y-110603292D01*
X138104745Y-110790007D01*
X138018810Y-110997474D01*
X137975000Y-111217720D01*
X137965000Y-111217720D01*
X137921190Y-110997474D01*
X137835255Y-110790007D01*
X137710496Y-110603292D01*
X137551708Y-110444504D01*
X137364993Y-110319745D01*
X137157526Y-110233810D01*
X136937280Y-110190000D01*
X136712720Y-110190000D01*
X136492474Y-110233810D01*
X136285007Y-110319745D01*
X136098292Y-110444504D01*
X135939504Y-110603292D01*
X135814745Y-110790007D01*
X135728810Y-110997474D01*
X135685000Y-111217720D01*
X135675000Y-111217720D01*
X135631190Y-110997474D01*
X135545255Y-110790007D01*
X135420496Y-110603292D01*
X135261708Y-110444504D01*
X135074993Y-110319745D01*
X134867526Y-110233810D01*
X134647280Y-110190000D01*
X134422720Y-110190000D01*
X134202474Y-110233810D01*
X133995007Y-110319745D01*
X133808292Y-110444504D01*
X133649504Y-110603292D01*
X133524745Y-110790007D01*
X133438810Y-110997474D01*
X133395000Y-111217720D01*
X133395000Y-111442280D01*
X133438810Y-111662526D01*
X133524745Y-111869993D01*
X133649504Y-112056708D01*
X133723084Y-112130288D01*
X133810890Y-112228689D01*
X133866719Y-112309756D01*
X133906828Y-112386986D01*
X133940067Y-112470025D01*
X133972865Y-112565565D01*
X133973707Y-112567983D01*
X134010425Y-112671943D01*
X134017112Y-112689117D01*
X134063050Y-112796845D01*
X134075970Y-112823326D01*
X134138784Y-112937026D01*
X134156907Y-112965724D01*
X134187451Y-113008343D01*
X134187944Y-113009968D01*
X134224159Y-113077721D01*
X134260681Y-113122224D01*
X134260685Y-113122228D01*
X134272895Y-113137106D01*
X134287773Y-113149316D01*
X135110679Y-113972222D01*
X135122894Y-113987106D01*
X135182279Y-114035842D01*
X135250031Y-114072056D01*
X135323547Y-114094357D01*
X135400000Y-114101887D01*
X135419159Y-114100000D01*
X156530841Y-114100000D01*
X156550000Y-114101887D01*
X156626453Y-114094357D01*
X156699969Y-114072056D01*
X156767721Y-114035842D01*
X156827106Y-113987106D01*
X156839321Y-113972222D01*
X158142229Y-112669315D01*
X158157106Y-112657106D01*
X158175952Y-112634143D01*
X158205841Y-112597722D01*
X158205843Y-112597720D01*
X158242056Y-112529969D01*
X158244202Y-112522895D01*
X158264357Y-112456454D01*
X158271887Y-112380001D01*
X158270000Y-112360842D01*
X158270000Y-111461607D01*
X158272786Y-111426853D01*
X158280001Y-111423843D01*
X158317635Y-111413173D01*
X158372269Y-111401895D01*
X158434175Y-111391403D01*
X158540001Y-111391403D01*
X158540001Y-112299166D01*
X156719169Y-114120000D01*
X119390000Y-114120000D01*
X119390000Y-111130629D01*
X120400793Y-111130629D01*
X120625993Y-111466344D01*
X121066040Y-111701538D01*
X121543517Y-111846363D01*
X122040073Y-111895256D01*
X122536626Y-111846335D01*
X123014094Y-111701481D01*
X123454007Y-111466344D01*
X123679207Y-111130629D01*
X122040000Y-109491421D01*
X120400793Y-111130629D01*
X119390000Y-111130629D01*
X119390000Y-109350073D01*
X119494744Y-109350073D01*
X119543665Y-109846626D01*
X119688519Y-110324094D01*
X119923656Y-110764007D01*
X120259371Y-110989207D01*
X121898579Y-109350000D01*
X122181421Y-109350000D01*
X123820629Y-110989207D01*
X124156344Y-110764007D01*
X124391538Y-110323960D01*
X124536363Y-109846483D01*
X124585256Y-109349927D01*
X124536335Y-108853374D01*
X124391481Y-108375906D01*
X124156344Y-107935993D01*
X123820629Y-107710793D01*
X122181421Y-109350000D01*
X121898579Y-109350000D01*
X120259371Y-107710793D01*
X119923656Y-107935993D01*
X119688462Y-108376040D01*
X119543637Y-108853517D01*
X119494744Y-109350073D01*
X119390000Y-109350073D01*
X119390000Y-107569371D01*
X120400793Y-107569371D01*
X122040000Y-109208579D01*
X123679207Y-107569371D01*
X123454007Y-107233656D01*
X123013960Y-106998462D01*
X122536483Y-106853637D01*
X122039927Y-106804744D01*
X121543374Y-106853665D01*
X121065906Y-106998519D01*
X120625993Y-107233656D01*
X120400793Y-107569371D01*
X119390000Y-107569371D01*
X119390000Y-106520000D01*
X125678113Y-106520000D01*
X125680001Y-106539169D01*
X125680000Y-112330841D01*
X125678113Y-112350000D01*
X125685643Y-112426453D01*
X125707330Y-112497944D01*
X125707944Y-112499968D01*
X125744158Y-112567720D01*
X125792894Y-112627106D01*
X125807778Y-112639321D01*
X126780679Y-113612222D01*
X126792894Y-113627106D01*
X126852279Y-113675842D01*
X126920031Y-113712056D01*
X126993547Y-113734357D01*
X127070000Y-113741887D01*
X127089159Y-113740000D01*
X131560841Y-113740000D01*
X131580000Y-113741887D01*
X131656453Y-113734357D01*
X131729969Y-113712056D01*
X131797721Y-113675842D01*
X131857106Y-113627106D01*
X131869321Y-113612222D01*
X132502227Y-112979316D01*
X132517106Y-112967106D01*
X132565842Y-112907721D01*
X132602056Y-112839969D01*
X132608369Y-112819158D01*
X132619318Y-112783065D01*
X132674470Y-112691287D01*
X132680563Y-112680644D01*
X132732691Y-112584954D01*
X132733512Y-112583436D01*
X132781753Y-112493614D01*
X132830150Y-112410316D01*
X132885595Y-112327607D01*
X132956447Y-112238138D01*
X133054783Y-112132421D01*
X133130496Y-112056708D01*
X133255255Y-111869993D01*
X133341190Y-111662526D01*
X133385000Y-111442280D01*
X133385000Y-111217720D01*
X133341190Y-110997474D01*
X133255255Y-110790007D01*
X133130496Y-110603292D01*
X132971708Y-110444504D01*
X132784993Y-110319745D01*
X132577526Y-110233810D01*
X132357280Y-110190000D01*
X132132720Y-110190000D01*
X131912474Y-110233810D01*
X131705007Y-110319745D01*
X131518292Y-110444504D01*
X131359504Y-110603292D01*
X131234745Y-110790007D01*
X131148810Y-110997474D01*
X131105000Y-111217720D01*
X131105000Y-111442280D01*
X131148810Y-111662526D01*
X131234745Y-111869993D01*
X131301541Y-111969961D01*
X131309460Y-111983603D01*
X131330014Y-112014322D01*
X131339191Y-112026308D01*
X131359504Y-112056708D01*
X131372153Y-112069357D01*
X131428333Y-112142730D01*
X131442256Y-112159560D01*
X131547389Y-112277323D01*
X131551847Y-112282203D01*
X131651136Y-112388443D01*
X131728454Y-112477424D01*
X131771907Y-112540688D01*
X131782701Y-112567814D01*
X131782701Y-112567819D01*
X131775142Y-112587614D01*
X131712440Y-112666017D01*
X131418457Y-112960000D01*
X127231543Y-112960000D01*
X126460000Y-112188457D01*
X126460000Y-111217720D01*
X128815000Y-111217720D01*
X128815000Y-111442280D01*
X128858810Y-111662526D01*
X128944745Y-111869993D01*
X129069504Y-112056708D01*
X129228292Y-112215496D01*
X129415007Y-112340255D01*
X129622474Y-112426190D01*
X129842720Y-112470000D01*
X130067280Y-112470000D01*
X130287526Y-112426190D01*
X130494993Y-112340255D01*
X130681708Y-112215496D01*
X130840496Y-112056708D01*
X130965255Y-111869993D01*
X131051190Y-111662526D01*
X131095000Y-111442280D01*
X131095000Y-111217720D01*
X131051190Y-110997474D01*
X130965255Y-110790007D01*
X130840496Y-110603292D01*
X130681708Y-110444504D01*
X130494993Y-110319745D01*
X130287526Y-110233810D01*
X130067280Y-110190000D01*
X129842720Y-110190000D01*
X129622474Y-110233810D01*
X129415007Y-110319745D01*
X129228292Y-110444504D01*
X129069504Y-110603292D01*
X128944745Y-110790007D01*
X128858810Y-110997474D01*
X128815000Y-111217720D01*
X126460000Y-111217720D01*
X126460000Y-109237720D01*
X134540000Y-109237720D01*
X134540000Y-109462280D01*
X134583810Y-109682526D01*
X134669745Y-109889993D01*
X134794504Y-110076708D01*
X134953292Y-110235496D01*
X135140007Y-110360255D01*
X135347474Y-110446190D01*
X135567720Y-110490000D01*
X135792280Y-110490000D01*
X136012526Y-110446190D01*
X136219993Y-110360255D01*
X136406708Y-110235496D01*
X136565496Y-110076708D01*
X136690255Y-109889993D01*
X136776190Y-109682526D01*
X136820000Y-109462280D01*
X136820000Y-109237720D01*
X136776190Y-109017474D01*
X136690255Y-108810007D01*
X136565496Y-108623292D01*
X136406708Y-108464504D01*
X136219993Y-108339745D01*
X136012526Y-108253810D01*
X135792280Y-108210000D01*
X135567720Y-108210000D01*
X135347474Y-108253810D01*
X135140007Y-108339745D01*
X134953292Y-108464504D01*
X134794504Y-108623292D01*
X134669745Y-108810007D01*
X134583810Y-109017474D01*
X134540000Y-109237720D01*
X126460000Y-109237720D01*
X126460000Y-106681543D01*
X126621543Y-106520000D01*
X128813597Y-106520000D01*
X128813597Y-108220000D01*
X128819196Y-108276850D01*
X128835779Y-108331515D01*
X128862707Y-108381895D01*
X128898947Y-108426053D01*
X128943105Y-108462293D01*
X128993485Y-108489221D01*
X129048150Y-108505804D01*
X129105000Y-108511403D01*
X130805000Y-108511403D01*
X130861850Y-108505804D01*
X130916515Y-108489221D01*
X130966895Y-108462293D01*
X131011053Y-108426053D01*
X131047293Y-108381895D01*
X131074221Y-108331515D01*
X131090804Y-108276850D01*
X131096403Y-108220000D01*
X131096403Y-107257720D01*
X131105000Y-107257720D01*
X131105000Y-107482280D01*
X131148810Y-107702526D01*
X131234745Y-107909993D01*
X131359504Y-108096708D01*
X131518292Y-108255496D01*
X131705007Y-108380255D01*
X131912474Y-108466190D01*
X132132720Y-108510000D01*
X132357280Y-108510000D01*
X132577526Y-108466190D01*
X132784993Y-108380255D01*
X132971708Y-108255496D01*
X133130496Y-108096708D01*
X133255255Y-107909993D01*
X133341190Y-107702526D01*
X133385000Y-107482280D01*
X133385000Y-107257720D01*
X133395000Y-107257720D01*
X133395000Y-107482280D01*
X133438810Y-107702526D01*
X133524745Y-107909993D01*
X133649504Y-108096708D01*
X133808292Y-108255496D01*
X133995007Y-108380255D01*
X134202474Y-108466190D01*
X134422720Y-108510000D01*
X134647280Y-108510000D01*
X134867526Y-108466190D01*
X135074993Y-108380255D01*
X135261708Y-108255496D01*
X135420496Y-108096708D01*
X135545255Y-107909993D01*
X135631190Y-107702526D01*
X135675000Y-107482280D01*
X135675000Y-107257720D01*
X135685000Y-107257720D01*
X135685000Y-107482280D01*
X135728810Y-107702526D01*
X135814745Y-107909993D01*
X135939504Y-108096708D01*
X136098292Y-108255496D01*
X136285007Y-108380255D01*
X136492474Y-108466190D01*
X136712720Y-108510000D01*
X136937280Y-108510000D01*
X137157526Y-108466190D01*
X137364993Y-108380255D01*
X137551708Y-108255496D01*
X137710496Y-108096708D01*
X137835255Y-107909993D01*
X137921190Y-107702526D01*
X137965000Y-107482280D01*
X137965000Y-107257720D01*
X137921190Y-107037474D01*
X137835255Y-106830007D01*
X137710496Y-106643292D01*
X137551708Y-106484504D01*
X137364993Y-106359745D01*
X137157526Y-106273810D01*
X136937280Y-106230000D01*
X136712720Y-106230000D01*
X136492474Y-106273810D01*
X136285007Y-106359745D01*
X136098292Y-106484504D01*
X135939504Y-106643292D01*
X135814745Y-106830007D01*
X135728810Y-107037474D01*
X135685000Y-107257720D01*
X135675000Y-107257720D01*
X135631190Y-107037474D01*
X135545255Y-106830007D01*
X135420496Y-106643292D01*
X135261708Y-106484504D01*
X135074993Y-106359745D01*
X134867526Y-106273810D01*
X134647280Y-106230000D01*
X134422720Y-106230000D01*
X134202474Y-106273810D01*
X133995007Y-106359745D01*
X133808292Y-106484504D01*
X133649504Y-106643292D01*
X133524745Y-106830007D01*
X133438810Y-107037474D01*
X133395000Y-107257720D01*
X133385000Y-107257720D01*
X133341190Y-107037474D01*
X133255255Y-106830007D01*
X133130496Y-106643292D01*
X132971708Y-106484504D01*
X132784993Y-106359745D01*
X132577526Y-106273810D01*
X132357280Y-106230000D01*
X132132720Y-106230000D01*
X131912474Y-106273810D01*
X131705007Y-106359745D01*
X131518292Y-106484504D01*
X131359504Y-106643292D01*
X131234745Y-106830007D01*
X131148810Y-107037474D01*
X131105000Y-107257720D01*
X131096403Y-107257720D01*
X131096403Y-106520000D01*
X131090804Y-106463150D01*
X131074221Y-106408485D01*
X131047293Y-106358105D01*
X131011053Y-106313947D01*
X130966895Y-106277707D01*
X130916515Y-106250779D01*
X130861850Y-106234196D01*
X130805000Y-106228597D01*
X129105000Y-106228597D01*
X129048150Y-106234196D01*
X128993485Y-106250779D01*
X128943105Y-106277707D01*
X128898947Y-106313947D01*
X128862707Y-106358105D01*
X128835779Y-106408485D01*
X128819196Y-106463150D01*
X128813597Y-106520000D01*
X126621543Y-106520000D01*
X127341544Y-105800000D01*
X132240839Y-105800000D01*
X132259998Y-105801887D01*
X132336451Y-105794357D01*
X132409967Y-105772056D01*
X132477719Y-105735842D01*
X132537104Y-105687106D01*
X132549319Y-105672222D01*
X137685059Y-100536482D01*
X137721844Y-100502138D01*
X137745624Y-100483373D01*
X137761417Y-100473299D01*
X137773339Y-100467413D01*
X137787713Y-100462068D01*
X137810732Y-100455489D01*
X137845816Y-100447005D01*
X137890470Y-100436374D01*
X137898049Y-100434461D01*
X137947637Y-100421234D01*
X137960694Y-100417421D01*
X137976362Y-100412444D01*
X138002097Y-100407325D01*
X138109470Y-100362849D01*
X138206103Y-100298281D01*
X138288283Y-100216101D01*
X138352851Y-100119468D01*
X138397327Y-100012095D01*
X138420000Y-99898108D01*
X138420000Y-99781888D01*
X138397327Y-99667901D01*
X138352851Y-99560528D01*
X138288283Y-99463895D01*
X138206103Y-99381715D01*
X138109470Y-99317147D01*
X138002097Y-99272671D01*
X137888110Y-99249998D01*
X137771890Y-99249998D01*
X137657903Y-99272671D01*
X137550530Y-99317147D01*
X137453897Y-99381715D01*
X137371717Y-99463895D01*
X137307149Y-99560528D01*
X137262673Y-99667901D01*
X137257555Y-99693629D01*
X137252578Y-99709297D01*
X137248763Y-99722360D01*
X137235536Y-99771948D01*
X137233623Y-99779527D01*
X137222992Y-99824181D01*
X137214508Y-99859265D01*
X137207929Y-99882284D01*
X137202584Y-99896658D01*
X137196698Y-99908580D01*
X137186624Y-99924373D01*
X137167853Y-99948160D01*
X137133523Y-99984932D01*
X132098455Y-105020000D01*
X127199158Y-105020000D01*
X127179999Y-105018113D01*
X127103546Y-105025643D01*
X127067720Y-105036511D01*
X127030031Y-105047944D01*
X126962279Y-105084158D01*
X126962277Y-105084159D01*
X126962278Y-105084159D01*
X126917775Y-105120681D01*
X126917772Y-105120684D01*
X126902894Y-105132894D01*
X126890684Y-105147772D01*
X125807773Y-106230684D01*
X125792895Y-106242894D01*
X125780685Y-106257772D01*
X125780681Y-106257776D01*
X125744159Y-106302279D01*
X125707944Y-106370032D01*
X125685643Y-106443547D01*
X125678113Y-106520000D01*
X119390000Y-106520000D01*
X119390000Y-102503861D01*
X119483999Y-102601423D01*
X119686462Y-102742220D01*
X119912503Y-102840813D01*
X120005687Y-102862973D01*
X120200000Y-102768563D01*
X120200000Y-100990000D01*
X120400000Y-100990000D01*
X120400000Y-102768563D01*
X120594313Y-102862973D01*
X120687497Y-102840813D01*
X120913538Y-102742220D01*
X121116001Y-102601423D01*
X121287106Y-102423832D01*
X121420277Y-102216273D01*
X121510396Y-101986722D01*
X121554000Y-101744000D01*
X121554000Y-100990000D01*
X120400000Y-100990000D01*
X120200000Y-100990000D01*
X120180000Y-100990000D01*
X120180000Y-100790000D01*
X120200000Y-100790000D01*
X120200000Y-99011437D01*
X120400000Y-99011437D01*
X120400000Y-100790000D01*
X121554000Y-100790000D01*
X121554000Y-100036000D01*
X121510396Y-99793278D01*
X121420277Y-99563727D01*
X121287106Y-99356168D01*
X121116001Y-99178577D01*
X120913538Y-99037780D01*
X120687497Y-98939187D01*
X120594313Y-98917027D01*
X120400000Y-99011437D01*
X120200000Y-99011437D01*
X120005687Y-98917027D01*
X119912503Y-98939187D01*
X119686462Y-99037780D01*
X119483999Y-99178577D01*
X119390000Y-99276139D01*
X119390000Y-97160000D01*
X149760000Y-97160000D01*
X149760001Y-107233289D01*
G37*
G04 #@! TD.AperFunction*
D17*
X137915932Y-100114035D02*
X137869334Y-100128837D01*
X137820208Y-100141941D01*
X137775430Y-100152601D01*
X137775386Y-100152612D01*
X137733785Y-100162672D01*
X137733280Y-100162805D01*
X137693697Y-100174118D01*
X137692760Y-100174425D01*
X137653882Y-100188883D01*
X137652687Y-100189399D01*
X137613197Y-100208894D01*
X137611989Y-100209575D01*
X137570571Y-100235997D01*
X137569534Y-100236734D01*
X137524872Y-100271976D01*
X137524072Y-100272663D01*
X137483822Y-100310243D01*
X137359755Y-100186176D01*
X137397334Y-100145925D01*
X137398021Y-100145125D01*
X137433263Y-100100463D01*
X137434000Y-100099426D01*
X137460422Y-100058008D01*
X137461103Y-100056800D01*
X137480598Y-100017310D01*
X137481114Y-100016115D01*
X137495572Y-99977237D01*
X137495879Y-99976300D01*
X137507192Y-99936717D01*
X137507325Y-99936212D01*
X137517385Y-99894611D01*
X137517396Y-99894567D01*
X137528056Y-99849789D01*
X137541160Y-99800663D01*
X137555963Y-99754066D01*
X137923110Y-99746888D01*
X137915932Y-100114035D01*
G04 #@! TA.AperFunction,Conductor*
D16*
G36*
X137915932Y-100114035D02*
G01*
X137869334Y-100128837D01*
X137820208Y-100141941D01*
X137775430Y-100152601D01*
X137775386Y-100152612D01*
X137733785Y-100162672D01*
X137733280Y-100162805D01*
X137693697Y-100174118D01*
X137692760Y-100174425D01*
X137653882Y-100188883D01*
X137652687Y-100189399D01*
X137613197Y-100208894D01*
X137611989Y-100209575D01*
X137570571Y-100235997D01*
X137569534Y-100236734D01*
X137524872Y-100271976D01*
X137524072Y-100272663D01*
X137483822Y-100310243D01*
X137359755Y-100186176D01*
X137397334Y-100145925D01*
X137398021Y-100145125D01*
X137433263Y-100100463D01*
X137434000Y-100099426D01*
X137460422Y-100058008D01*
X137461103Y-100056800D01*
X137480598Y-100017310D01*
X137481114Y-100016115D01*
X137495572Y-99977237D01*
X137495879Y-99976300D01*
X137507192Y-99936717D01*
X137507325Y-99936212D01*
X137517385Y-99894611D01*
X137517396Y-99894567D01*
X137528056Y-99849789D01*
X137541160Y-99800663D01*
X137555963Y-99754066D01*
X137923110Y-99746888D01*
X137915932Y-100114035D01*
G37*
G04 #@! TD.AperFunction*
D17*
X132830319Y-111929294D02*
X132726955Y-112040417D01*
X132726298Y-112041183D01*
X132641164Y-112148687D01*
X132640571Y-112149499D01*
X132573528Y-112249507D01*
X132573096Y-112250199D01*
X132517585Y-112345741D01*
X132517378Y-112346112D01*
X132466874Y-112440148D01*
X132414878Y-112535595D01*
X132354949Y-112635323D01*
X132280473Y-112742541D01*
X132184802Y-112860446D01*
X132070002Y-112982873D01*
X131945890Y-112858761D01*
X132039820Y-112741311D01*
X132041177Y-112739224D01*
X132041766Y-112737910D01*
X132086143Y-112621709D01*
X132086799Y-112619307D01*
X132086974Y-112616805D01*
X132083766Y-112507762D01*
X132083449Y-112505292D01*
X132082871Y-112503439D01*
X132041145Y-112398585D01*
X132039814Y-112396091D01*
X131968636Y-112292461D01*
X131967754Y-112291321D01*
X131876191Y-112185946D01*
X131875883Y-112185604D01*
X131773089Y-112075613D01*
X131668384Y-111958330D01*
X131570847Y-111830943D01*
X131493653Y-111697954D01*
X132244949Y-110925840D01*
X132830319Y-111929294D01*
G04 #@! TA.AperFunction,Conductor*
D16*
G36*
X132830319Y-111929294D02*
G01*
X132726955Y-112040417D01*
X132726298Y-112041183D01*
X132641164Y-112148687D01*
X132640571Y-112149499D01*
X132573528Y-112249507D01*
X132573096Y-112250199D01*
X132517585Y-112345741D01*
X132517378Y-112346112D01*
X132466874Y-112440148D01*
X132414878Y-112535595D01*
X132354949Y-112635323D01*
X132280473Y-112742541D01*
X132184802Y-112860446D01*
X132070002Y-112982873D01*
X131945890Y-112858761D01*
X132039820Y-112741311D01*
X132041177Y-112739224D01*
X132041766Y-112737910D01*
X132086143Y-112621709D01*
X132086799Y-112619307D01*
X132086974Y-112616805D01*
X132083766Y-112507762D01*
X132083449Y-112505292D01*
X132082871Y-112503439D01*
X132041145Y-112398585D01*
X132039814Y-112396091D01*
X131968636Y-112292461D01*
X131967754Y-112291321D01*
X131876191Y-112185946D01*
X131875883Y-112185604D01*
X131773089Y-112075613D01*
X131668384Y-111958330D01*
X131570847Y-111830943D01*
X131493653Y-111697954D01*
X132244949Y-110925840D01*
X132830319Y-111929294D01*
G37*
G04 #@! TD.AperFunction*
D17*
X139934537Y-99963008D02*
X139912047Y-100006441D01*
X139886588Y-100050422D01*
X139862458Y-100089630D01*
X139862435Y-100089668D01*
X139840131Y-100126199D01*
X139839868Y-100126650D01*
X139819879Y-100162639D01*
X139819434Y-100163519D01*
X139802166Y-100201233D01*
X139801685Y-100202443D01*
X139787546Y-100244152D01*
X139787173Y-100245488D01*
X139776570Y-100293459D01*
X139776358Y-100294713D01*
X139769697Y-100351214D01*
X139769617Y-100352265D01*
X139767728Y-100407300D01*
X139592272Y-100407300D01*
X139590382Y-100352265D01*
X139590302Y-100351214D01*
X139583641Y-100294713D01*
X139583429Y-100293459D01*
X139572826Y-100245488D01*
X139572453Y-100244152D01*
X139558314Y-100202443D01*
X139557833Y-100201233D01*
X139540565Y-100163519D01*
X139540120Y-100162639D01*
X139520131Y-100126650D01*
X139519868Y-100126199D01*
X139497564Y-100089668D01*
X139497541Y-100089630D01*
X139473411Y-100050422D01*
X139447952Y-100006441D01*
X139425463Y-99963008D01*
X139680000Y-99698322D01*
X139934537Y-99963008D01*
G04 #@! TA.AperFunction,Conductor*
D16*
G36*
X139934537Y-99963008D02*
G01*
X139912047Y-100006441D01*
X139886588Y-100050422D01*
X139862458Y-100089630D01*
X139862435Y-100089668D01*
X139840131Y-100126199D01*
X139839868Y-100126650D01*
X139819879Y-100162639D01*
X139819434Y-100163519D01*
X139802166Y-100201233D01*
X139801685Y-100202443D01*
X139787546Y-100244152D01*
X139787173Y-100245488D01*
X139776570Y-100293459D01*
X139776358Y-100294713D01*
X139769697Y-100351214D01*
X139769617Y-100352265D01*
X139767728Y-100407300D01*
X139592272Y-100407300D01*
X139590382Y-100352265D01*
X139590302Y-100351214D01*
X139583641Y-100294713D01*
X139583429Y-100293459D01*
X139572826Y-100245488D01*
X139572453Y-100244152D01*
X139558314Y-100202443D01*
X139557833Y-100201233D01*
X139540565Y-100163519D01*
X139540120Y-100162639D01*
X139520131Y-100126650D01*
X139519868Y-100126199D01*
X139497564Y-100089668D01*
X139497541Y-100089630D01*
X139473411Y-100050422D01*
X139447952Y-100006441D01*
X139425463Y-99963008D01*
X139680000Y-99698322D01*
X139934537Y-99963008D01*
G37*
G04 #@! TD.AperFunction*
D17*
X140328261Y-110246202D02*
X140206845Y-110382430D01*
X140205764Y-110383827D01*
X140116306Y-110517793D01*
X140115303Y-110519598D01*
X140058012Y-110645849D01*
X140057315Y-110647792D01*
X140024423Y-110769824D01*
X140024098Y-110771442D01*
X140007836Y-110892751D01*
X140007746Y-110893682D01*
X140000346Y-111017767D01*
X140000338Y-111017909D01*
X139994044Y-111147979D01*
X139981135Y-111287299D01*
X139953921Y-111439493D01*
X139907096Y-111599995D01*
X138826146Y-111616269D01*
X138852132Y-110535508D01*
X139012606Y-110490225D01*
X139164756Y-110464313D01*
X139303966Y-110452439D01*
X139433910Y-110446957D01*
X139434068Y-110446949D01*
X139557956Y-110440183D01*
X139558903Y-110440096D01*
X139679968Y-110424334D01*
X139681602Y-110424011D01*
X139803341Y-110391531D01*
X139805299Y-110390832D01*
X139931210Y-110333910D01*
X139933025Y-110332904D01*
X140066603Y-110243818D01*
X140068005Y-110242734D01*
X140203797Y-110121738D01*
X140328261Y-110246202D01*
G04 #@! TA.AperFunction,Conductor*
D16*
G36*
X140328261Y-110246202D02*
G01*
X140206845Y-110382430D01*
X140205764Y-110383827D01*
X140116306Y-110517793D01*
X140115303Y-110519598D01*
X140058012Y-110645849D01*
X140057315Y-110647792D01*
X140024423Y-110769824D01*
X140024098Y-110771442D01*
X140007836Y-110892751D01*
X140007746Y-110893682D01*
X140000346Y-111017767D01*
X140000338Y-111017909D01*
X139994044Y-111147979D01*
X139981135Y-111287299D01*
X139953921Y-111439493D01*
X139907096Y-111599995D01*
X138826146Y-111616269D01*
X138852132Y-110535508D01*
X139012606Y-110490225D01*
X139164756Y-110464313D01*
X139303966Y-110452439D01*
X139433910Y-110446957D01*
X139434068Y-110446949D01*
X139557956Y-110440183D01*
X139558903Y-110440096D01*
X139679968Y-110424334D01*
X139681602Y-110424011D01*
X139803341Y-110391531D01*
X139805299Y-110390832D01*
X139931210Y-110333910D01*
X139933025Y-110332904D01*
X140066603Y-110243818D01*
X140068005Y-110242734D01*
X140203797Y-110121738D01*
X140328261Y-110246202D01*
G37*
G04 #@! TD.AperFunction*
D17*
X143384537Y-104333008D02*
X143362047Y-104376441D01*
X143336588Y-104420422D01*
X143312458Y-104459630D01*
X143312435Y-104459668D01*
X143290131Y-104496199D01*
X143289868Y-104496650D01*
X143269879Y-104532639D01*
X143269434Y-104533519D01*
X143252166Y-104571233D01*
X143251685Y-104572443D01*
X143237546Y-104614152D01*
X143237173Y-104615488D01*
X143226570Y-104663459D01*
X143226358Y-104664713D01*
X143219697Y-104721214D01*
X143219617Y-104722265D01*
X143217728Y-104777300D01*
X143042272Y-104777300D01*
X143040382Y-104722265D01*
X143040302Y-104721214D01*
X143033641Y-104664713D01*
X143033429Y-104663459D01*
X143022826Y-104615488D01*
X143022453Y-104614152D01*
X143008314Y-104572443D01*
X143007833Y-104571233D01*
X142990565Y-104533519D01*
X142990120Y-104532639D01*
X142970131Y-104496650D01*
X142969868Y-104496199D01*
X142947564Y-104459668D01*
X142947541Y-104459630D01*
X142923411Y-104420422D01*
X142897952Y-104376441D01*
X142875463Y-104333008D01*
X143130000Y-104068322D01*
X143384537Y-104333008D01*
G04 #@! TA.AperFunction,Conductor*
D16*
G36*
X143384537Y-104333008D02*
G01*
X143362047Y-104376441D01*
X143336588Y-104420422D01*
X143312458Y-104459630D01*
X143312435Y-104459668D01*
X143290131Y-104496199D01*
X143289868Y-104496650D01*
X143269879Y-104532639D01*
X143269434Y-104533519D01*
X143252166Y-104571233D01*
X143251685Y-104572443D01*
X143237546Y-104614152D01*
X143237173Y-104615488D01*
X143226570Y-104663459D01*
X143226358Y-104664713D01*
X143219697Y-104721214D01*
X143219617Y-104722265D01*
X143217728Y-104777300D01*
X143042272Y-104777300D01*
X143040382Y-104722265D01*
X143040302Y-104721214D01*
X143033641Y-104664713D01*
X143033429Y-104663459D01*
X143022826Y-104615488D01*
X143022453Y-104614152D01*
X143008314Y-104572443D01*
X143007833Y-104571233D01*
X142990565Y-104533519D01*
X142990120Y-104532639D01*
X142970131Y-104496650D01*
X142969868Y-104496199D01*
X142947564Y-104459668D01*
X142947541Y-104459630D01*
X142923411Y-104420422D01*
X142897952Y-104376441D01*
X142875463Y-104333008D01*
X143130000Y-104068322D01*
X143384537Y-104333008D01*
G37*
G04 #@! TD.AperFunction*
D17*
X143219550Y-106949940D02*
X143219620Y-106950927D01*
X143226084Y-107009375D01*
X143226270Y-107010552D01*
X143236553Y-107060265D01*
X143236881Y-107061521D01*
X143250581Y-107104846D01*
X143251004Y-107105990D01*
X143267721Y-107145276D01*
X143268113Y-107146111D01*
X143287446Y-107183704D01*
X143287675Y-107184130D01*
X143309223Y-107222378D01*
X143309237Y-107222402D01*
X143332513Y-107263506D01*
X143357072Y-107309706D01*
X143378834Y-107355537D01*
X143115613Y-107611604D01*
X142870022Y-107338569D01*
X142894065Y-107295478D01*
X142920952Y-107251684D01*
X142946087Y-107212595D01*
X142946155Y-107212488D01*
X142969145Y-107175938D01*
X142969452Y-107175423D01*
X142989868Y-107139288D01*
X142990346Y-107138355D01*
X143007837Y-107100389D01*
X143008333Y-107099143D01*
X143022549Y-107057101D01*
X143022924Y-107055749D01*
X143033513Y-107007385D01*
X143033722Y-107006134D01*
X143040333Y-106949205D01*
X143040411Y-106948168D01*
X143042280Y-106892700D01*
X143217703Y-106892700D01*
X143219550Y-106949940D01*
G04 #@! TA.AperFunction,Conductor*
D16*
G36*
X143219550Y-106949940D02*
G01*
X143219620Y-106950927D01*
X143226084Y-107009375D01*
X143226270Y-107010552D01*
X143236553Y-107060265D01*
X143236881Y-107061521D01*
X143250581Y-107104846D01*
X143251004Y-107105990D01*
X143267721Y-107145276D01*
X143268113Y-107146111D01*
X143287446Y-107183704D01*
X143287675Y-107184130D01*
X143309223Y-107222378D01*
X143309237Y-107222402D01*
X143332513Y-107263506D01*
X143357072Y-107309706D01*
X143378834Y-107355537D01*
X143115613Y-107611604D01*
X142870022Y-107338569D01*
X142894065Y-107295478D01*
X142920952Y-107251684D01*
X142946087Y-107212595D01*
X142946155Y-107212488D01*
X142969145Y-107175938D01*
X142969452Y-107175423D01*
X142989868Y-107139288D01*
X142990346Y-107138355D01*
X143007837Y-107100389D01*
X143008333Y-107099143D01*
X143022549Y-107057101D01*
X143022924Y-107055749D01*
X143033513Y-107007385D01*
X143033722Y-107006134D01*
X143040333Y-106949205D01*
X143040411Y-106948168D01*
X143042280Y-106892700D01*
X143217703Y-106892700D01*
X143219550Y-106949940D01*
G37*
G04 #@! TD.AperFunction*
D17*
X156358628Y-112252507D02*
X156287439Y-112329944D01*
X156286688Y-112330841D01*
X156227531Y-112408458D01*
X156226872Y-112409410D01*
X156181154Y-112482332D01*
X156180690Y-112483136D01*
X156143529Y-112553330D01*
X156143314Y-112553755D01*
X156109870Y-112623106D01*
X156075318Y-112693464D01*
X156034925Y-112766585D01*
X155983753Y-112844664D01*
X155916825Y-112929874D01*
X155837848Y-113014935D01*
X155713789Y-112890876D01*
X155777351Y-112811538D01*
X155778710Y-112809451D01*
X155779277Y-112808198D01*
X155810930Y-112726770D01*
X155811600Y-112724373D01*
X155811792Y-112721989D01*
X155810707Y-112645333D01*
X155810428Y-112642859D01*
X155809908Y-112641078D01*
X155782368Y-112567182D01*
X155781106Y-112564679D01*
X155733397Y-112491527D01*
X155732543Y-112490367D01*
X155670946Y-112415946D01*
X155670646Y-112415598D01*
X155601546Y-112338006D01*
X155531439Y-112255490D01*
X155466649Y-112166231D01*
X155417348Y-112075778D01*
X155957110Y-111550694D01*
X156358628Y-112252507D01*
G04 #@! TA.AperFunction,Conductor*
D16*
G36*
X156358628Y-112252507D02*
G01*
X156287439Y-112329944D01*
X156286688Y-112330841D01*
X156227531Y-112408458D01*
X156226872Y-112409410D01*
X156181154Y-112482332D01*
X156180690Y-112483136D01*
X156143529Y-112553330D01*
X156143314Y-112553755D01*
X156109870Y-112623106D01*
X156075318Y-112693464D01*
X156034925Y-112766585D01*
X155983753Y-112844664D01*
X155916825Y-112929874D01*
X155837848Y-113014935D01*
X155713789Y-112890876D01*
X155777351Y-112811538D01*
X155778710Y-112809451D01*
X155779277Y-112808198D01*
X155810930Y-112726770D01*
X155811600Y-112724373D01*
X155811792Y-112721989D01*
X155810707Y-112645333D01*
X155810428Y-112642859D01*
X155809908Y-112641078D01*
X155782368Y-112567182D01*
X155781106Y-112564679D01*
X155733397Y-112491527D01*
X155732543Y-112490367D01*
X155670946Y-112415946D01*
X155670646Y-112415598D01*
X155601546Y-112338006D01*
X155531439Y-112255490D01*
X155466649Y-112166231D01*
X155417348Y-112075778D01*
X155957110Y-111550694D01*
X156358628Y-112252507D01*
G37*
G04 #@! TD.AperFunction*
D17*
X135290513Y-111688979D02*
X135206325Y-111832752D01*
X135096123Y-111968001D01*
X134974799Y-112090923D01*
X134853182Y-112204995D01*
X134852981Y-112205187D01*
X134742149Y-112313799D01*
X134741289Y-112314731D01*
X134652267Y-112421372D01*
X134650750Y-112423649D01*
X134594382Y-112531975D01*
X134593455Y-112534285D01*
X134593029Y-112536408D01*
X134580161Y-112650076D01*
X134580124Y-112652566D01*
X134580749Y-112655573D01*
X134622224Y-112778241D01*
X134623249Y-112780510D01*
X134624281Y-112782035D01*
X134723959Y-112908496D01*
X134599963Y-113032492D01*
X134489871Y-112910683D01*
X134403376Y-112789994D01*
X134341240Y-112677520D01*
X134295713Y-112570756D01*
X134259150Y-112467236D01*
X134224014Y-112364886D01*
X134223793Y-112364291D01*
X134182552Y-112261260D01*
X134182032Y-112260126D01*
X134127049Y-112154256D01*
X134126238Y-112152906D01*
X134049855Y-112041994D01*
X134048871Y-112040741D01*
X133949556Y-111929443D01*
X134530198Y-110925768D01*
X135290513Y-111688979D01*
G04 #@! TA.AperFunction,Conductor*
D16*
G36*
X135290513Y-111688979D02*
G01*
X135206325Y-111832752D01*
X135096123Y-111968001D01*
X134974799Y-112090923D01*
X134853182Y-112204995D01*
X134852981Y-112205187D01*
X134742149Y-112313799D01*
X134741289Y-112314731D01*
X134652267Y-112421372D01*
X134650750Y-112423649D01*
X134594382Y-112531975D01*
X134593455Y-112534285D01*
X134593029Y-112536408D01*
X134580161Y-112650076D01*
X134580124Y-112652566D01*
X134580749Y-112655573D01*
X134622224Y-112778241D01*
X134623249Y-112780510D01*
X134624281Y-112782035D01*
X134723959Y-112908496D01*
X134599963Y-113032492D01*
X134489871Y-112910683D01*
X134403376Y-112789994D01*
X134341240Y-112677520D01*
X134295713Y-112570756D01*
X134259150Y-112467236D01*
X134224014Y-112364886D01*
X134223793Y-112364291D01*
X134182552Y-112261260D01*
X134182032Y-112260126D01*
X134127049Y-112154256D01*
X134126238Y-112152906D01*
X134049855Y-112041994D01*
X134048871Y-112040741D01*
X133949556Y-111929443D01*
X134530198Y-110925768D01*
X135290513Y-111688979D01*
G37*
G04 #@! TD.AperFunction*
D17*
X158460201Y-111080340D02*
X158391159Y-111091677D01*
X158391095Y-111091688D01*
X158316592Y-111104315D01*
X158316147Y-111104398D01*
X158246118Y-111118853D01*
X158245221Y-111119073D01*
X158180812Y-111137335D01*
X158179386Y-111137832D01*
X158121742Y-111161883D01*
X158119787Y-111162906D01*
X158070055Y-111194726D01*
X158067823Y-111196542D01*
X158027147Y-111238111D01*
X158025199Y-111240690D01*
X157994727Y-111293989D01*
X157993540Y-111296807D01*
X157974417Y-111363815D01*
X157973970Y-111366285D01*
X157968278Y-111437300D01*
X157792673Y-111437300D01*
X157792420Y-111319228D01*
X157792420Y-111319168D01*
X157791660Y-111208833D01*
X157791659Y-111208770D01*
X157790539Y-111114169D01*
X157790538Y-111114112D01*
X157789178Y-111030572D01*
X157789178Y-111030535D01*
X157787698Y-110953379D01*
X157787698Y-110953374D01*
X157786218Y-110877929D01*
X157786217Y-110877929D01*
X157784857Y-110799548D01*
X157783739Y-110713553D01*
X157782980Y-110615255D01*
X157782725Y-110510339D01*
X158598162Y-110341893D01*
X158460201Y-111080340D01*
G04 #@! TA.AperFunction,Conductor*
D16*
G36*
X158460201Y-111080340D02*
G01*
X158391159Y-111091677D01*
X158391095Y-111091688D01*
X158316592Y-111104315D01*
X158316147Y-111104398D01*
X158246118Y-111118853D01*
X158245221Y-111119073D01*
X158180812Y-111137335D01*
X158179386Y-111137832D01*
X158121742Y-111161883D01*
X158119787Y-111162906D01*
X158070055Y-111194726D01*
X158067823Y-111196542D01*
X158027147Y-111238111D01*
X158025199Y-111240690D01*
X157994727Y-111293989D01*
X157993540Y-111296807D01*
X157974417Y-111363815D01*
X157973970Y-111366285D01*
X157968278Y-111437300D01*
X157792673Y-111437300D01*
X157792420Y-111319228D01*
X157792420Y-111319168D01*
X157791660Y-111208833D01*
X157791659Y-111208770D01*
X157790539Y-111114169D01*
X157790538Y-111114112D01*
X157789178Y-111030572D01*
X157789178Y-111030535D01*
X157787698Y-110953379D01*
X157787698Y-110953374D01*
X157786218Y-110877929D01*
X157786217Y-110877929D01*
X157784857Y-110799548D01*
X157783739Y-110713553D01*
X157782980Y-110615255D01*
X157782725Y-110510339D01*
X158598162Y-110341893D01*
X158460201Y-111080340D01*
G37*
G04 #@! TD.AperFunction*
D17*
X154402993Y-111760596D02*
X154003701Y-112403199D01*
X153880993Y-112372101D01*
X153771316Y-112332852D01*
X153676930Y-112289744D01*
X153591713Y-112244891D01*
X153509839Y-112200584D01*
X153509392Y-112200353D01*
X153425124Y-112158977D01*
X153424146Y-112158547D01*
X153331595Y-112122413D01*
X153330264Y-112121976D01*
X153223468Y-112093354D01*
X153222043Y-112093058D01*
X153095038Y-112074220D01*
X153093737Y-112074095D01*
X152952700Y-112067850D01*
X152952700Y-111892035D01*
X153070095Y-111885711D01*
X153071775Y-111885507D01*
X153177805Y-111865431D01*
X153179803Y-111864881D01*
X153267132Y-111832955D01*
X153269144Y-111832012D01*
X153342449Y-111789489D01*
X153344075Y-111788369D01*
X153408037Y-111736505D01*
X153409067Y-111735571D01*
X153468366Y-111675619D01*
X153468833Y-111675121D01*
X153528146Y-111608335D01*
X153528163Y-111608316D01*
X153592009Y-111536135D01*
X153664913Y-111459945D01*
X153745219Y-111386691D01*
X154402993Y-111760596D01*
G04 #@! TA.AperFunction,Conductor*
D16*
G36*
X154402993Y-111760596D02*
G01*
X154003701Y-112403199D01*
X153880993Y-112372101D01*
X153771316Y-112332852D01*
X153676930Y-112289744D01*
X153591713Y-112244891D01*
X153509839Y-112200584D01*
X153509392Y-112200353D01*
X153425124Y-112158977D01*
X153424146Y-112158547D01*
X153331595Y-112122413D01*
X153330264Y-112121976D01*
X153223468Y-112093354D01*
X153222043Y-112093058D01*
X153095038Y-112074220D01*
X153093737Y-112074095D01*
X152952700Y-112067850D01*
X152952700Y-111892035D01*
X153070095Y-111885711D01*
X153071775Y-111885507D01*
X153177805Y-111865431D01*
X153179803Y-111864881D01*
X153267132Y-111832955D01*
X153269144Y-111832012D01*
X153342449Y-111789489D01*
X153344075Y-111788369D01*
X153408037Y-111736505D01*
X153409067Y-111735571D01*
X153468366Y-111675619D01*
X153468833Y-111675121D01*
X153528146Y-111608335D01*
X153528163Y-111608316D01*
X153592009Y-111536135D01*
X153664913Y-111459945D01*
X153745219Y-111386691D01*
X154402993Y-111760596D01*
G37*
G04 #@! TD.AperFunction*
D17*
X146327741Y-104126872D02*
X146340683Y-104174718D01*
X146352175Y-104225022D01*
X146361734Y-104270731D01*
X146361767Y-104270886D01*
X146371171Y-104313207D01*
X146371323Y-104313818D01*
X146382365Y-104353991D01*
X146382693Y-104355012D01*
X146397186Y-104394385D01*
X146397722Y-104395631D01*
X146417481Y-104435553D01*
X146418175Y-104436780D01*
X146445015Y-104478599D01*
X146445752Y-104479630D01*
X146481487Y-104524694D01*
X146482163Y-104525478D01*
X146520217Y-104566166D01*
X146396184Y-104690199D01*
X146353781Y-104650378D01*
X146353055Y-104649747D01*
X146306658Y-104612362D01*
X146305725Y-104611677D01*
X146262903Y-104583188D01*
X146261818Y-104582542D01*
X146221169Y-104560985D01*
X146220097Y-104560479D01*
X146180220Y-104543891D01*
X146179379Y-104543576D01*
X146138872Y-104529994D01*
X146138426Y-104529853D01*
X146095888Y-104517313D01*
X146095866Y-104517307D01*
X146050076Y-104503898D01*
X145999669Y-104487680D01*
X145951413Y-104469750D01*
X145961295Y-104102650D01*
X146327741Y-104126872D01*
G04 #@! TA.AperFunction,Conductor*
D16*
G36*
X146327741Y-104126872D02*
G01*
X146340683Y-104174718D01*
X146352175Y-104225022D01*
X146361734Y-104270731D01*
X146361767Y-104270886D01*
X146371171Y-104313207D01*
X146371323Y-104313818D01*
X146382365Y-104353991D01*
X146382693Y-104355012D01*
X146397186Y-104394385D01*
X146397722Y-104395631D01*
X146417481Y-104435553D01*
X146418175Y-104436780D01*
X146445015Y-104478599D01*
X146445752Y-104479630D01*
X146481487Y-104524694D01*
X146482163Y-104525478D01*
X146520217Y-104566166D01*
X146396184Y-104690199D01*
X146353781Y-104650378D01*
X146353055Y-104649747D01*
X146306658Y-104612362D01*
X146305725Y-104611677D01*
X146262903Y-104583188D01*
X146261818Y-104582542D01*
X146221169Y-104560985D01*
X146220097Y-104560479D01*
X146180220Y-104543891D01*
X146179379Y-104543576D01*
X146138872Y-104529994D01*
X146138426Y-104529853D01*
X146095888Y-104517313D01*
X146095866Y-104517307D01*
X146050076Y-104503898D01*
X145999669Y-104487680D01*
X145951413Y-104469750D01*
X145961295Y-104102650D01*
X146327741Y-104126872D01*
G37*
G04 #@! TD.AperFunction*
D17*
X151460533Y-109504352D02*
X151460810Y-109504614D01*
X151549120Y-109585544D01*
X151549418Y-109585808D01*
X151627336Y-109652849D01*
X151627609Y-109653077D01*
X151698159Y-109710421D01*
X151698340Y-109710566D01*
X151764550Y-109762405D01*
X151764577Y-109762426D01*
X151829394Y-109812888D01*
X151895826Y-109866149D01*
X151966853Y-109926350D01*
X152045669Y-109997814D01*
X152128344Y-110077988D01*
X151727107Y-110779306D01*
X151186954Y-110253834D01*
X151222673Y-110178492D01*
X151262466Y-110100741D01*
X151262490Y-110100696D01*
X151299655Y-110027353D01*
X151299905Y-110026830D01*
X151331416Y-109956901D01*
X151331866Y-109955757D01*
X151354796Y-109888060D01*
X151355284Y-109886131D01*
X151366707Y-109819485D01*
X151366877Y-109816767D01*
X151363863Y-109749992D01*
X151363343Y-109746923D01*
X151342965Y-109678839D01*
X151341802Y-109676140D01*
X151301132Y-109605565D01*
X151299755Y-109603622D01*
X151243552Y-109538307D01*
X151367780Y-109414079D01*
X151460533Y-109504352D01*
G04 #@! TA.AperFunction,Conductor*
D16*
G36*
X151460533Y-109504352D02*
G01*
X151460810Y-109504614D01*
X151549120Y-109585544D01*
X151549418Y-109585808D01*
X151627336Y-109652849D01*
X151627609Y-109653077D01*
X151698159Y-109710421D01*
X151698340Y-109710566D01*
X151764550Y-109762405D01*
X151764577Y-109762426D01*
X151829394Y-109812888D01*
X151895826Y-109866149D01*
X151966853Y-109926350D01*
X152045669Y-109997814D01*
X152128344Y-110077988D01*
X151727107Y-110779306D01*
X151186954Y-110253834D01*
X151222673Y-110178492D01*
X151262466Y-110100741D01*
X151262490Y-110100696D01*
X151299655Y-110027353D01*
X151299905Y-110026830D01*
X151331416Y-109956901D01*
X151331866Y-109955757D01*
X151354796Y-109888060D01*
X151355284Y-109886131D01*
X151366707Y-109819485D01*
X151366877Y-109816767D01*
X151363863Y-109749992D01*
X151363343Y-109746923D01*
X151342965Y-109678839D01*
X151341802Y-109676140D01*
X151301132Y-109605565D01*
X151299755Y-109603622D01*
X151243552Y-109538307D01*
X151367780Y-109414079D01*
X151460533Y-109504352D01*
G37*
G04 #@! TD.AperFunction*
M02*
