G04 #@! TF.GenerationSoftware,KiCad,Pcbnew,(5.1.8-0-10_14)*
G04 #@! TF.CreationDate,2021-09-26T16:35:17-04:00*
G04 #@! TF.ProjectId,8DIN2VGA,3844494e-3256-4474-912e-6b696361645f,1*
G04 #@! TF.SameCoordinates,Original*
G04 #@! TF.FileFunction,Soldermask,Bot*
G04 #@! TF.FilePolarity,Negative*
%FSLAX46Y46*%
G04 Gerber Fmt 4.6, Leading zero omitted, Abs format (unit mm)*
G04 Created by KiCad (PCBNEW (5.1.8-0-10_14)) date 2021-09-26 16:35:17*
%MOMM*%
%LPD*%
G01*
G04 APERTURE LIST*
%ADD10C,0.100000*%
%ADD11C,4.167600*%
%ADD12C,1.801600*%
%ADD13O,1.609600X3.117600*%
G04 APERTURE END LIST*
D10*
G36*
X150610000Y-106950000D02*
G01*
X149630000Y-106950000D01*
X149030000Y-106350000D01*
X149030000Y-96640000D01*
X150610000Y-96640000D01*
X150610000Y-106950000D01*
G37*
X150610000Y-106950000D02*
X149630000Y-106950000D01*
X149030000Y-106350000D01*
X149030000Y-96640000D01*
X150610000Y-96640000D01*
X150610000Y-106950000D01*
G36*
G01*
X150791900Y-106449200D02*
X152568100Y-106449200D01*
G75*
G02*
X152730800Y-106611900I0J-162700D01*
G01*
X152730800Y-107588100D01*
G75*
G02*
X152568100Y-107750800I-162700J0D01*
G01*
X150791900Y-107750800D01*
G75*
G02*
X150629200Y-107588100I0J162700D01*
G01*
X150629200Y-106611900D01*
G75*
G02*
X150791900Y-106449200I162700J0D01*
G01*
G37*
G36*
G01*
X157481900Y-109849200D02*
X159258100Y-109849200D01*
G75*
G02*
X159420800Y-110011900I0J-162700D01*
G01*
X159420800Y-110988100D01*
G75*
G02*
X159258100Y-111150800I-162700J0D01*
G01*
X157481900Y-111150800D01*
G75*
G02*
X157319200Y-110988100I0J162700D01*
G01*
X157319200Y-110011900D01*
G75*
G02*
X157481900Y-109849200I162700J0D01*
G01*
G37*
G36*
G01*
X150831900Y-109849200D02*
X152608100Y-109849200D01*
G75*
G02*
X152770800Y-110011900I0J-162700D01*
G01*
X152770800Y-110988100D01*
G75*
G02*
X152608100Y-111150800I-162700J0D01*
G01*
X150831900Y-111150800D01*
G75*
G02*
X150669200Y-110988100I0J162700D01*
G01*
X150669200Y-110011900D01*
G75*
G02*
X150831900Y-109849200I162700J0D01*
G01*
G37*
G36*
G01*
X156600800Y-110941900D02*
X156600800Y-112718100D01*
G75*
G02*
X156438100Y-112880800I-162700J0D01*
G01*
X155461900Y-112880800D01*
G75*
G02*
X155299200Y-112718100I0J162700D01*
G01*
X155299200Y-110941900D01*
G75*
G02*
X155461900Y-110779200I162700J0D01*
G01*
X156438100Y-110779200D01*
G75*
G02*
X156600800Y-110941900I0J-162700D01*
G01*
G37*
G36*
G01*
X154780800Y-110941900D02*
X154780800Y-112718100D01*
G75*
G02*
X154618100Y-112880800I-162700J0D01*
G01*
X153641900Y-112880800D01*
G75*
G02*
X153479200Y-112718100I0J162700D01*
G01*
X153479200Y-110941900D01*
G75*
G02*
X153641900Y-110779200I162700J0D01*
G01*
X154618100Y-110779200D01*
G75*
G02*
X154780800Y-110941900I0J-162700D01*
G01*
G37*
G36*
G01*
X129054200Y-108220000D02*
X129054200Y-106520000D01*
G75*
G02*
X129105000Y-106469200I50800J0D01*
G01*
X130805000Y-106469200D01*
G75*
G02*
X130855800Y-106520000I0J-50800D01*
G01*
X130855800Y-108220000D01*
G75*
G02*
X130805000Y-108270800I-50800J0D01*
G01*
X129105000Y-108270800D01*
G75*
G02*
X129054200Y-108220000I0J50800D01*
G01*
G37*
D11*
X122040000Y-109350000D03*
X147030000Y-109350000D03*
D12*
X132245000Y-107370000D03*
X134535000Y-107370000D03*
X136825000Y-107370000D03*
X139115000Y-107370000D03*
X128810000Y-109350000D03*
X131100000Y-109350000D03*
X133390000Y-109350000D03*
X135680000Y-109350000D03*
X137970000Y-109350000D03*
X129955000Y-111330000D03*
X132245000Y-111330000D03*
X134535000Y-111330000D03*
X136825000Y-111330000D03*
X139115000Y-111330000D03*
D13*
X120300000Y-100890000D03*
X122700000Y-102890000D03*
X126400000Y-100890000D03*
X128200000Y-102890000D03*
X131900000Y-100890000D03*
M02*
