G04 #@! TF.GenerationSoftware,KiCad,Pcbnew,(5.1.10-1-10_14)*
G04 #@! TF.CreationDate,2021-10-23T02:31:54-04:00*
G04 #@! TF.ProjectId,8DIN2VGA,3844494e-3256-4474-912e-6b696361645f,1*
G04 #@! TF.SameCoordinates,Original*
G04 #@! TF.FileFunction,Copper,L2,Bot*
G04 #@! TF.FilePolarity,Positive*
%FSLAX46Y46*%
G04 Gerber Fmt 4.6, Leading zero omitted, Abs format (unit mm)*
G04 Created by KiCad (PCBNEW (5.1.10-1-10_14)) date 2021-10-23 02:31:54*
%MOMM*%
%LPD*%
G01*
G04 APERTURE LIST*
G04 #@! TA.AperFunction,ComponentPad*
%ADD10R,1.700000X1.700000*%
G04 #@! TD*
G04 #@! TA.AperFunction,ComponentPad*
%ADD11C,4.066000*%
G04 #@! TD*
G04 #@! TA.AperFunction,ComponentPad*
%ADD12C,1.700000*%
G04 #@! TD*
G04 #@! TA.AperFunction,ComponentPad*
%ADD13O,1.508000X3.016000*%
G04 #@! TD*
G04 #@! TA.AperFunction,ViaPad*
%ADD14C,0.600000*%
G04 #@! TD*
G04 #@! TA.AperFunction,Conductor*
%ADD15C,0.200000*%
G04 #@! TD*
G04 #@! TA.AperFunction,Conductor*
%ADD16C,0.160000*%
G04 #@! TD*
G04 #@! TA.AperFunction,Conductor*
%ADD17C,0.152400*%
G04 #@! TD*
G04 #@! TA.AperFunction,Conductor*
%ADD18C,0.025400*%
G04 #@! TD*
G04 APERTURE END LIST*
G04 #@! TA.AperFunction,SMDPad,CuDef*
G36*
G01*
X150830000Y-106750000D02*
X152530000Y-106750000D01*
G75*
G02*
X152680000Y-106900000I0J-150000D01*
G01*
X152680000Y-107800000D01*
G75*
G02*
X152530000Y-107950000I-150000J0D01*
G01*
X150830000Y-107950000D01*
G75*
G02*
X150680000Y-107800000I0J150000D01*
G01*
X150680000Y-106900000D01*
G75*
G02*
X150830000Y-106750000I150000J0D01*
G01*
G37*
G04 #@! TD.AperFunction*
G04 #@! TA.AperFunction,SMDPad,CuDef*
G36*
G01*
X157520000Y-109900000D02*
X159220000Y-109900000D01*
G75*
G02*
X159370000Y-110050000I0J-150000D01*
G01*
X159370000Y-110950000D01*
G75*
G02*
X159220000Y-111100000I-150000J0D01*
G01*
X157520000Y-111100000D01*
G75*
G02*
X157370000Y-110950000I0J150000D01*
G01*
X157370000Y-110050000D01*
G75*
G02*
X157520000Y-109900000I150000J0D01*
G01*
G37*
G04 #@! TD.AperFunction*
G04 #@! TA.AperFunction,SMDPad,CuDef*
G36*
G01*
X150870000Y-109900000D02*
X152570000Y-109900000D01*
G75*
G02*
X152720000Y-110050000I0J-150000D01*
G01*
X152720000Y-110950000D01*
G75*
G02*
X152570000Y-111100000I-150000J0D01*
G01*
X150870000Y-111100000D01*
G75*
G02*
X150720000Y-110950000I0J150000D01*
G01*
X150720000Y-110050000D01*
G75*
G02*
X150870000Y-109900000I150000J0D01*
G01*
G37*
G04 #@! TD.AperFunction*
G04 #@! TA.AperFunction,SMDPad,CuDef*
G36*
G01*
X156550000Y-110980000D02*
X156550000Y-112680000D01*
G75*
G02*
X156400000Y-112830000I-150000J0D01*
G01*
X155500000Y-112830000D01*
G75*
G02*
X155350000Y-112680000I0J150000D01*
G01*
X155350000Y-110980000D01*
G75*
G02*
X155500000Y-110830000I150000J0D01*
G01*
X156400000Y-110830000D01*
G75*
G02*
X156550000Y-110980000I0J-150000D01*
G01*
G37*
G04 #@! TD.AperFunction*
G04 #@! TA.AperFunction,SMDPad,CuDef*
G36*
G01*
X154730000Y-110980000D02*
X154730000Y-112680000D01*
G75*
G02*
X154580000Y-112830000I-150000J0D01*
G01*
X153680000Y-112830000D01*
G75*
G02*
X153530000Y-112680000I0J150000D01*
G01*
X153530000Y-110980000D01*
G75*
G02*
X153680000Y-110830000I150000J0D01*
G01*
X154580000Y-110830000D01*
G75*
G02*
X154730000Y-110980000I0J-150000D01*
G01*
G37*
G04 #@! TD.AperFunction*
D10*
X129955000Y-107370000D03*
D11*
X122040000Y-109350000D03*
X147030000Y-109350000D03*
D12*
X132245000Y-107370000D03*
X134535000Y-107370000D03*
X136825000Y-107370000D03*
X139115000Y-107370000D03*
X128810000Y-109350000D03*
X131100000Y-109350000D03*
X133390000Y-109350000D03*
X135680000Y-109350000D03*
X137970000Y-109350000D03*
X129955000Y-111330000D03*
X132245000Y-111330000D03*
X134535000Y-111330000D03*
X136825000Y-111330000D03*
X139115000Y-111330000D03*
D13*
X120300000Y-100890000D03*
X122700000Y-102890000D03*
X126400000Y-100890000D03*
X128200000Y-102890000D03*
X131900000Y-100890000D03*
D14*
X137830000Y-99839998D03*
X139680000Y-99830000D03*
X143130000Y-104200000D03*
X143120000Y-107480000D03*
X136670000Y-103150000D03*
X138470000Y-104540000D03*
X137760000Y-112820000D03*
X133360000Y-112610000D03*
X153460000Y-99440000D03*
X156730000Y-99440000D03*
X153840000Y-109870000D03*
X143260000Y-111810000D03*
X153460000Y-107080000D03*
X156730000Y-107090000D03*
X146049980Y-104199984D03*
D15*
X127180000Y-105410000D02*
X132259998Y-105410000D01*
X131580000Y-113350000D02*
X127070000Y-113350000D01*
X132240000Y-112690000D02*
X131580000Y-113350000D01*
X132259998Y-105410000D02*
X137830000Y-99839998D01*
X126070000Y-106520000D02*
X127180000Y-105410000D01*
X132240000Y-111570000D02*
X132240000Y-112690000D01*
X126070000Y-112350000D02*
X126070000Y-106520000D01*
X127070000Y-113350000D02*
X126070000Y-112350000D01*
X131990000Y-111320000D02*
X132240000Y-111570000D01*
X139680000Y-99830000D02*
X139670000Y-99820000D01*
X139680000Y-104160000D02*
X139680000Y-99830000D01*
X140660000Y-105140000D02*
X139680000Y-104160000D01*
X140660000Y-109790000D02*
X140660000Y-105140000D01*
X139080000Y-111370000D02*
X140660000Y-109790000D01*
X138860000Y-111370000D02*
X139080000Y-111370000D01*
X143130000Y-104200000D02*
X143130000Y-107470000D01*
X143130000Y-107470000D02*
X143120000Y-107480000D01*
X155930000Y-112800000D02*
X155930000Y-111909844D01*
X151900000Y-113260000D02*
X155470000Y-113260000D01*
X142520000Y-112860000D02*
X151500000Y-112860000D01*
X141960000Y-112300000D02*
X142520000Y-112860000D01*
X155470000Y-113260000D02*
X155930000Y-112800000D01*
X141960000Y-100220000D02*
X141960000Y-112300000D01*
X130680000Y-98670000D02*
X140410000Y-98670000D01*
X140410000Y-98670000D02*
X141960000Y-100220000D01*
X151500000Y-112860000D02*
X151900000Y-113260000D01*
X128230000Y-101120000D02*
X130680000Y-98670000D01*
X128230000Y-104150000D02*
X128230000Y-101120000D01*
X135400000Y-113710000D02*
X156550000Y-113710000D01*
X134550000Y-112860000D02*
X135400000Y-113710000D01*
X156550000Y-113710000D02*
X157880000Y-112380000D01*
X134550000Y-111590000D02*
X134550000Y-112860000D01*
X157880000Y-112380000D02*
X157880000Y-110490000D01*
X134280000Y-111320000D02*
X134550000Y-111590000D01*
X153880000Y-111980000D02*
X154040000Y-111820000D01*
X145042945Y-111980000D02*
X153880000Y-111980000D01*
X143385029Y-110322084D02*
X145042945Y-111980000D01*
X143385029Y-109134971D02*
X143385029Y-110322084D01*
X144273935Y-108246065D02*
X143385029Y-109134971D01*
X122710000Y-101680000D02*
X122710000Y-100450000D01*
X144273935Y-100403935D02*
X144273935Y-108246065D01*
X141450000Y-97580000D02*
X144273935Y-100403935D01*
X125580000Y-97580000D02*
X141450000Y-97580000D01*
X122710000Y-100450000D02*
X125580000Y-97580000D01*
X146049980Y-104219980D02*
X146049980Y-104199984D01*
X151700000Y-109870000D02*
X146049980Y-104219980D01*
X151700000Y-110180000D02*
X151700000Y-109870000D01*
D16*
X149760001Y-107285744D02*
X149758597Y-107300000D01*
X149764196Y-107356850D01*
X149780779Y-107411515D01*
X149807707Y-107461895D01*
X149843947Y-107506053D01*
X149888105Y-107542293D01*
X149938485Y-107569221D01*
X149993150Y-107585804D01*
X150035755Y-107590000D01*
X150050000Y-107591403D01*
X150064245Y-107590000D01*
X151165755Y-107590000D01*
X151180000Y-107591403D01*
X151194245Y-107590000D01*
X151236850Y-107585804D01*
X151291515Y-107569221D01*
X151341895Y-107542293D01*
X151386053Y-107506053D01*
X151422293Y-107461895D01*
X151449221Y-107411515D01*
X151465804Y-107356850D01*
X151471403Y-107300000D01*
X151470000Y-107285755D01*
X151470000Y-98290000D01*
X158540000Y-98290000D01*
X158540001Y-109658839D01*
X157520000Y-109658839D01*
X157443688Y-109666355D01*
X157370309Y-109688614D01*
X157302683Y-109724762D01*
X157243407Y-109773407D01*
X157194762Y-109832683D01*
X157158614Y-109900309D01*
X157136355Y-109973688D01*
X157128839Y-110050000D01*
X157128839Y-110950000D01*
X157136355Y-111026312D01*
X157158614Y-111099691D01*
X157194762Y-111167317D01*
X157243407Y-111226593D01*
X157302683Y-111275238D01*
X157370309Y-111311386D01*
X157443688Y-111333645D01*
X157520000Y-111341161D01*
X157539767Y-111341161D01*
X157540000Y-111450277D01*
X157540000Y-112239168D01*
X156409169Y-113370000D01*
X155840832Y-113370000D01*
X156139672Y-113071161D01*
X156400000Y-113071161D01*
X156476312Y-113063645D01*
X156549691Y-113041386D01*
X156617317Y-113005238D01*
X156676593Y-112956593D01*
X156725238Y-112897317D01*
X156761386Y-112829691D01*
X156783645Y-112756312D01*
X156791161Y-112680000D01*
X156791161Y-110980000D01*
X156783645Y-110903688D01*
X156761386Y-110830309D01*
X156725238Y-110762683D01*
X156676593Y-110703407D01*
X156617317Y-110654762D01*
X156549691Y-110618614D01*
X156476312Y-110596355D01*
X156400000Y-110588839D01*
X155500000Y-110588839D01*
X155423688Y-110596355D01*
X155350309Y-110618614D01*
X155282683Y-110654762D01*
X155223407Y-110703407D01*
X155174762Y-110762683D01*
X155138614Y-110830309D01*
X155116355Y-110903688D01*
X155108839Y-110980000D01*
X155108839Y-112680000D01*
X155116355Y-112756312D01*
X155138614Y-112829691D01*
X155174762Y-112897317D01*
X155193377Y-112920000D01*
X154886623Y-112920000D01*
X154905238Y-112897317D01*
X154941386Y-112829691D01*
X154963645Y-112756312D01*
X154971161Y-112680000D01*
X154971161Y-110980000D01*
X154963645Y-110903688D01*
X154941386Y-110830309D01*
X154905238Y-110762683D01*
X154856593Y-110703407D01*
X154797317Y-110654762D01*
X154729691Y-110618614D01*
X154656312Y-110596355D01*
X154580000Y-110588839D01*
X153680000Y-110588839D01*
X153603688Y-110596355D01*
X153530309Y-110618614D01*
X153462683Y-110654762D01*
X153403407Y-110703407D01*
X153354762Y-110762683D01*
X153318614Y-110830309D01*
X153296355Y-110903688D01*
X153288839Y-110980000D01*
X153288839Y-111497241D01*
X153284167Y-111502502D01*
X153238661Y-111548509D01*
X153199457Y-111580298D01*
X153160574Y-111602853D01*
X153111488Y-111620798D01*
X153040509Y-111634238D01*
X152933533Y-111640000D01*
X147635016Y-111640000D01*
X148009216Y-111513117D01*
X148284543Y-111365952D01*
X148525970Y-111086386D01*
X147030000Y-109590416D01*
X145534030Y-111086386D01*
X145775457Y-111365952D01*
X146192856Y-111571965D01*
X146446422Y-111640000D01*
X145183778Y-111640000D01*
X143725029Y-110181253D01*
X143725029Y-109426889D01*
X144656810Y-109426889D01*
X144717411Y-109888397D01*
X144866883Y-110329216D01*
X145014048Y-110604543D01*
X145293614Y-110845970D01*
X146789584Y-109350000D01*
X147270416Y-109350000D01*
X148766386Y-110845970D01*
X149045952Y-110604543D01*
X149251965Y-110187144D01*
X149372590Y-109737575D01*
X149403190Y-109273111D01*
X149342589Y-108811603D01*
X149193117Y-108370784D01*
X149045952Y-108095457D01*
X148766386Y-107854030D01*
X147270416Y-109350000D01*
X146789584Y-109350000D01*
X145293614Y-107854030D01*
X145014048Y-108095457D01*
X144808035Y-108512856D01*
X144687410Y-108962425D01*
X144656810Y-109426889D01*
X143725029Y-109426889D01*
X143725029Y-109275802D01*
X144502542Y-108498290D01*
X144515514Y-108487644D01*
X144558002Y-108435873D01*
X144589574Y-108376807D01*
X144609015Y-108312717D01*
X144613935Y-108262766D01*
X144613935Y-108262758D01*
X144615579Y-108246065D01*
X144613935Y-108229372D01*
X144613935Y-107613614D01*
X145534030Y-107613614D01*
X147030000Y-109109584D01*
X148525970Y-107613614D01*
X148284543Y-107334048D01*
X147867144Y-107128035D01*
X147417575Y-107007410D01*
X146953111Y-106976810D01*
X146491603Y-107037411D01*
X146050784Y-107186883D01*
X145775457Y-107334048D01*
X145534030Y-107613614D01*
X144613935Y-107613614D01*
X144613935Y-104146799D01*
X145509980Y-104146799D01*
X145509980Y-104253169D01*
X145530732Y-104357496D01*
X145571438Y-104455770D01*
X145630534Y-104544214D01*
X145705750Y-104619430D01*
X145794194Y-104678526D01*
X145892468Y-104719232D01*
X145902916Y-104721310D01*
X145911926Y-104724658D01*
X145922009Y-104728152D01*
X145972816Y-104744499D01*
X145978878Y-104746361D01*
X146024851Y-104759823D01*
X146062728Y-104770989D01*
X146090986Y-104780464D01*
X146112691Y-104789492D01*
X146132875Y-104800197D01*
X146156630Y-104816001D01*
X146187424Y-104840814D01*
X146229438Y-104880269D01*
X151008007Y-109658839D01*
X150870000Y-109658839D01*
X150793688Y-109666355D01*
X150720309Y-109688614D01*
X150652683Y-109724762D01*
X150593407Y-109773407D01*
X150544762Y-109832683D01*
X150508614Y-109900309D01*
X150486355Y-109973688D01*
X150478839Y-110050000D01*
X150478839Y-110950000D01*
X150486355Y-111026312D01*
X150508614Y-111099691D01*
X150544762Y-111167317D01*
X150593407Y-111226593D01*
X150652683Y-111275238D01*
X150720309Y-111311386D01*
X150793688Y-111333645D01*
X150870000Y-111341161D01*
X152570000Y-111341161D01*
X152646312Y-111333645D01*
X152719691Y-111311386D01*
X152787317Y-111275238D01*
X152846593Y-111226593D01*
X152895238Y-111167317D01*
X152931386Y-111099691D01*
X152953645Y-111026312D01*
X152961161Y-110950000D01*
X152961161Y-110050000D01*
X152953645Y-109973688D01*
X152931386Y-109900309D01*
X152895238Y-109832683D01*
X152846593Y-109773407D01*
X152787317Y-109724762D01*
X152719691Y-109688614D01*
X152646312Y-109666355D01*
X152570000Y-109658839D01*
X152041234Y-109658839D01*
X151987402Y-109615680D01*
X151984710Y-109613553D01*
X151920069Y-109563228D01*
X151855839Y-109512940D01*
X151789610Y-109459107D01*
X151717079Y-109396701D01*
X151634197Y-109320746D01*
X151536209Y-109225377D01*
X146710433Y-104399601D01*
X146673408Y-104360015D01*
X146651209Y-104332020D01*
X146638042Y-104311506D01*
X146629895Y-104295044D01*
X146623343Y-104277244D01*
X146616563Y-104252579D01*
X146608778Y-104217542D01*
X146599501Y-104173184D01*
X146598556Y-104168866D01*
X146586983Y-104118204D01*
X146584684Y-104108984D01*
X146576273Y-104077890D01*
X146569228Y-104042472D01*
X146528522Y-103944198D01*
X146469426Y-103855754D01*
X146394210Y-103780538D01*
X146305766Y-103721442D01*
X146207492Y-103680736D01*
X146103165Y-103659984D01*
X145996795Y-103659984D01*
X145892468Y-103680736D01*
X145794194Y-103721442D01*
X145705750Y-103780538D01*
X145630534Y-103855754D01*
X145571438Y-103944198D01*
X145530732Y-104042472D01*
X145509980Y-104146799D01*
X144613935Y-104146799D01*
X144613935Y-100420627D01*
X144615579Y-100403934D01*
X144613935Y-100387241D01*
X144613935Y-100387234D01*
X144609015Y-100337283D01*
X144589574Y-100273193D01*
X144558002Y-100214127D01*
X144553319Y-100208421D01*
X144526160Y-100175327D01*
X144526151Y-100175318D01*
X144515513Y-100162356D01*
X144502552Y-100151719D01*
X141702230Y-97351399D01*
X141691579Y-97338421D01*
X141639808Y-97295933D01*
X141580742Y-97264361D01*
X141516652Y-97244920D01*
X141466701Y-97240000D01*
X141466693Y-97240000D01*
X141450000Y-97238356D01*
X141433307Y-97240000D01*
X125596693Y-97240000D01*
X125580000Y-97238356D01*
X125563307Y-97240000D01*
X125563299Y-97240000D01*
X125513348Y-97244920D01*
X125449258Y-97264361D01*
X125390192Y-97295933D01*
X125338421Y-97338421D01*
X125327775Y-97351393D01*
X122481394Y-100197775D01*
X122468422Y-100208421D01*
X122457776Y-100221393D01*
X122457775Y-100221394D01*
X122425933Y-100260193D01*
X122394361Y-100319259D01*
X122374920Y-100383349D01*
X122368356Y-100450000D01*
X122370001Y-100466703D01*
X122370000Y-101197378D01*
X122317772Y-101213221D01*
X122145091Y-101305521D01*
X121993735Y-101429735D01*
X121869521Y-101581091D01*
X121777221Y-101753773D01*
X121720383Y-101941143D01*
X121706000Y-102087175D01*
X121706001Y-103692826D01*
X121720384Y-103838858D01*
X121777222Y-104026228D01*
X121869522Y-104198909D01*
X121993736Y-104350265D01*
X122145092Y-104474479D01*
X122317773Y-104566779D01*
X122505143Y-104623617D01*
X122700000Y-104642809D01*
X122894858Y-104623617D01*
X123082228Y-104566779D01*
X123254909Y-104474479D01*
X123406265Y-104350265D01*
X123530479Y-104198909D01*
X123622779Y-104026228D01*
X123679617Y-103838858D01*
X123694000Y-103692826D01*
X123694000Y-102087174D01*
X123679617Y-101941142D01*
X123622779Y-101753772D01*
X123530479Y-101581091D01*
X123406265Y-101429735D01*
X123254909Y-101305521D01*
X123082227Y-101213221D01*
X123050000Y-101203445D01*
X123050000Y-100590831D01*
X125720832Y-97920000D01*
X141309169Y-97920000D01*
X143933935Y-100544768D01*
X143933936Y-108105232D01*
X143156423Y-108882746D01*
X143143450Y-108893393D01*
X143100962Y-108945164D01*
X143069390Y-109004230D01*
X143049949Y-109068320D01*
X143045029Y-109118271D01*
X143045029Y-109118278D01*
X143043385Y-109134971D01*
X143045029Y-109151664D01*
X143045030Y-110305381D01*
X143043385Y-110322084D01*
X143049949Y-110388735D01*
X143069390Y-110452825D01*
X143085209Y-110482419D01*
X143100963Y-110511892D01*
X143143451Y-110563663D01*
X143156423Y-110574309D01*
X144790724Y-112208612D01*
X144801366Y-112221579D01*
X144814332Y-112232220D01*
X144814337Y-112232225D01*
X144853137Y-112264067D01*
X144912203Y-112295639D01*
X144976293Y-112315080D01*
X145026244Y-112320000D01*
X145026251Y-112320000D01*
X145042944Y-112321644D01*
X145059637Y-112320000D01*
X152934689Y-112320000D01*
X153070196Y-112326001D01*
X153171350Y-112341004D01*
X153252043Y-112362630D01*
X153288839Y-112376997D01*
X153288839Y-112680000D01*
X153296355Y-112756312D01*
X153318614Y-112829691D01*
X153354762Y-112897317D01*
X153373377Y-112920000D01*
X152040832Y-112920000D01*
X151752229Y-112631398D01*
X151741579Y-112618421D01*
X151689808Y-112575933D01*
X151630742Y-112544361D01*
X151566652Y-112524920D01*
X151516701Y-112520000D01*
X151516693Y-112520000D01*
X151500000Y-112518356D01*
X151483307Y-112520000D01*
X142660832Y-112520000D01*
X142300000Y-112159169D01*
X142300000Y-107426815D01*
X142580000Y-107426815D01*
X142580000Y-107533185D01*
X142600752Y-107637512D01*
X142641458Y-107735786D01*
X142700554Y-107824230D01*
X142775770Y-107899446D01*
X142864214Y-107958542D01*
X142962488Y-107999248D01*
X143066815Y-108020000D01*
X143173185Y-108020000D01*
X143277512Y-107999248D01*
X143375786Y-107958542D01*
X143464230Y-107899446D01*
X143539446Y-107824230D01*
X143598542Y-107735786D01*
X143639248Y-107637512D01*
X143660000Y-107533185D01*
X143660000Y-107426815D01*
X143639248Y-107322488D01*
X143598542Y-107224214D01*
X143590513Y-107212198D01*
X143585221Y-107201053D01*
X143580340Y-107191348D01*
X143555567Y-107144745D01*
X143552488Y-107139135D01*
X143529388Y-107098342D01*
X143510074Y-107064060D01*
X143496830Y-107038306D01*
X143488045Y-107017661D01*
X143481526Y-106997047D01*
X143476015Y-106970401D01*
X143471816Y-106932437D01*
X143470000Y-106876137D01*
X143470000Y-104794125D01*
X143471827Y-104740890D01*
X143475911Y-104706253D01*
X143481085Y-104682843D01*
X143487053Y-104665237D01*
X143495313Y-104647197D01*
X143508386Y-104623660D01*
X143527888Y-104591719D01*
X143551879Y-104552736D01*
X143555196Y-104547180D01*
X143580907Y-104502763D01*
X143586318Y-104492888D01*
X143595157Y-104475817D01*
X143608542Y-104455786D01*
X143649248Y-104357512D01*
X143670000Y-104253185D01*
X143670000Y-104146815D01*
X143649248Y-104042488D01*
X143608542Y-103944214D01*
X143549446Y-103855770D01*
X143474230Y-103780554D01*
X143385786Y-103721458D01*
X143287512Y-103680752D01*
X143183185Y-103660000D01*
X143076815Y-103660000D01*
X142972488Y-103680752D01*
X142874214Y-103721458D01*
X142785770Y-103780554D01*
X142710554Y-103855770D01*
X142651458Y-103944214D01*
X142610752Y-104042488D01*
X142590000Y-104146815D01*
X142590000Y-104253185D01*
X142610752Y-104357512D01*
X142651458Y-104455786D01*
X142664842Y-104475817D01*
X142673680Y-104492885D01*
X142679092Y-104502763D01*
X142704803Y-104547180D01*
X142708120Y-104552736D01*
X142732111Y-104591719D01*
X142751613Y-104623660D01*
X142764686Y-104647197D01*
X142772946Y-104665237D01*
X142778914Y-104682843D01*
X142784088Y-104706253D01*
X142788172Y-104740891D01*
X142790000Y-104794136D01*
X142790001Y-106875932D01*
X142788185Y-106929828D01*
X142784094Y-106965057D01*
X142778909Y-106988739D01*
X142773015Y-107006170D01*
X142764975Y-107023622D01*
X142752226Y-107046186D01*
X142732875Y-107076951D01*
X142708325Y-107115131D01*
X142705664Y-107119365D01*
X142678581Y-107163478D01*
X142673527Y-107172108D01*
X142659620Y-107197032D01*
X142641458Y-107224214D01*
X142600752Y-107322488D01*
X142580000Y-107426815D01*
X142300000Y-107426815D01*
X142300000Y-100236692D01*
X142301644Y-100219999D01*
X142300000Y-100203306D01*
X142300000Y-100203299D01*
X142295080Y-100153348D01*
X142275639Y-100089258D01*
X142244067Y-100030192D01*
X142243750Y-100029806D01*
X142212225Y-99991393D01*
X142212221Y-99991389D01*
X142201578Y-99978421D01*
X142188611Y-99967779D01*
X140662230Y-98441399D01*
X140651579Y-98428421D01*
X140599808Y-98385933D01*
X140540742Y-98354361D01*
X140476652Y-98334920D01*
X140426701Y-98330000D01*
X140426693Y-98330000D01*
X140410000Y-98328356D01*
X140393307Y-98330000D01*
X130696692Y-98330000D01*
X130679999Y-98328356D01*
X130663306Y-98330000D01*
X130663299Y-98330000D01*
X130613348Y-98334920D01*
X130549258Y-98354361D01*
X130490192Y-98385933D01*
X130451392Y-98417775D01*
X130451387Y-98417780D01*
X130438421Y-98428421D01*
X130427779Y-98441388D01*
X128001394Y-100867775D01*
X127988422Y-100878421D01*
X127977776Y-100891393D01*
X127977775Y-100891394D01*
X127945933Y-100930193D01*
X127914361Y-100989259D01*
X127894920Y-101053349D01*
X127888356Y-101120000D01*
X127890001Y-101136703D01*
X127890001Y-101191311D01*
X127817772Y-101213221D01*
X127645091Y-101305521D01*
X127493735Y-101429735D01*
X127394000Y-101551263D01*
X127394000Y-100087174D01*
X127379617Y-99941142D01*
X127322779Y-99753772D01*
X127230479Y-99581091D01*
X127106265Y-99429735D01*
X126954909Y-99305521D01*
X126782227Y-99213221D01*
X126594857Y-99156383D01*
X126400000Y-99137191D01*
X126205142Y-99156383D01*
X126017772Y-99213221D01*
X125845091Y-99305521D01*
X125693735Y-99429735D01*
X125569521Y-99581091D01*
X125477221Y-99753773D01*
X125420383Y-99941143D01*
X125406000Y-100087175D01*
X125406001Y-101692826D01*
X125420384Y-101838858D01*
X125477222Y-102026228D01*
X125569522Y-102198909D01*
X125693736Y-102350265D01*
X125845092Y-102474479D01*
X126017773Y-102566779D01*
X126205143Y-102623617D01*
X126400000Y-102642809D01*
X126594858Y-102623617D01*
X126782228Y-102566779D01*
X126954909Y-102474479D01*
X127106265Y-102350265D01*
X127206000Y-102228737D01*
X127206001Y-103692826D01*
X127220384Y-103838858D01*
X127277222Y-104026228D01*
X127369522Y-104198909D01*
X127493736Y-104350265D01*
X127645092Y-104474479D01*
X127817773Y-104566779D01*
X128005143Y-104623617D01*
X128200000Y-104642809D01*
X128394858Y-104623617D01*
X128582228Y-104566779D01*
X128754909Y-104474479D01*
X128906265Y-104350265D01*
X129030479Y-104198909D01*
X129122779Y-104026228D01*
X129179617Y-103838858D01*
X129194000Y-103692826D01*
X129194000Y-102087174D01*
X129179617Y-101941142D01*
X129122779Y-101753772D01*
X129030479Y-101581091D01*
X128906265Y-101429735D01*
X128754909Y-101305521D01*
X128605285Y-101225546D01*
X129743657Y-100087175D01*
X130906000Y-100087175D01*
X130906001Y-101692826D01*
X130920384Y-101838858D01*
X130977222Y-102026228D01*
X131069522Y-102198909D01*
X131193736Y-102350265D01*
X131345092Y-102474479D01*
X131517773Y-102566779D01*
X131705143Y-102623617D01*
X131900000Y-102642809D01*
X132094858Y-102623617D01*
X132282228Y-102566779D01*
X132454909Y-102474479D01*
X132606265Y-102350265D01*
X132730479Y-102198909D01*
X132822779Y-102026228D01*
X132879617Y-101838858D01*
X132894000Y-101692826D01*
X132894000Y-100087174D01*
X132879617Y-99941142D01*
X132822779Y-99753772D01*
X132730479Y-99581091D01*
X132606265Y-99429735D01*
X132454909Y-99305521D01*
X132282227Y-99213221D01*
X132094857Y-99156383D01*
X131900000Y-99137191D01*
X131705142Y-99156383D01*
X131517772Y-99213221D01*
X131345091Y-99305521D01*
X131193735Y-99429735D01*
X131069521Y-99581091D01*
X130977221Y-99753773D01*
X130920383Y-99941143D01*
X130906000Y-100087175D01*
X129743657Y-100087175D01*
X130820833Y-99010000D01*
X140269169Y-99010000D01*
X141620000Y-100360832D01*
X141620001Y-112283297D01*
X141618356Y-112300000D01*
X141624920Y-112366651D01*
X141644361Y-112430741D01*
X141675933Y-112489807D01*
X141700712Y-112520000D01*
X141718422Y-112541579D01*
X141731394Y-112552225D01*
X142267774Y-113088606D01*
X142278421Y-113101579D01*
X142330192Y-113144067D01*
X142389258Y-113175639D01*
X142453348Y-113195080D01*
X142503299Y-113200000D01*
X142503307Y-113200000D01*
X142520000Y-113201644D01*
X142536693Y-113200000D01*
X151359168Y-113200000D01*
X151529168Y-113370000D01*
X135540833Y-113370000D01*
X134920641Y-112749809D01*
X134890000Y-112710935D01*
X134890000Y-112530913D01*
X134927591Y-112485882D01*
X135027989Y-112387496D01*
X135147857Y-112275064D01*
X135154480Y-112268608D01*
X135276401Y-112145081D01*
X135291646Y-112128090D01*
X135349917Y-112056575D01*
X135381658Y-112024834D01*
X135500945Y-111846309D01*
X135583112Y-111647941D01*
X135625000Y-111437356D01*
X135625000Y-111222644D01*
X135735000Y-111222644D01*
X135735000Y-111437356D01*
X135776888Y-111647941D01*
X135859055Y-111846309D01*
X135978342Y-112024834D01*
X136130166Y-112176658D01*
X136308691Y-112295945D01*
X136507059Y-112378112D01*
X136717644Y-112420000D01*
X136932356Y-112420000D01*
X137142941Y-112378112D01*
X137341309Y-112295945D01*
X137519834Y-112176658D01*
X137671658Y-112024834D01*
X137790945Y-111846309D01*
X137873112Y-111647941D01*
X137915000Y-111437356D01*
X137915000Y-111222644D01*
X138025000Y-111222644D01*
X138025000Y-111437356D01*
X138066888Y-111647941D01*
X138149055Y-111846309D01*
X138268342Y-112024834D01*
X138420166Y-112176658D01*
X138598691Y-112295945D01*
X138797059Y-112378112D01*
X139007644Y-112420000D01*
X139222356Y-112420000D01*
X139432941Y-112378112D01*
X139631309Y-112295945D01*
X139809834Y-112176658D01*
X139961658Y-112024834D01*
X140080945Y-111846309D01*
X140163112Y-111647941D01*
X140177618Y-111575015D01*
X140196698Y-111509614D01*
X140202556Y-111484642D01*
X140229984Y-111331250D01*
X140232707Y-111311149D01*
X140245691Y-111171023D01*
X140246434Y-111160480D01*
X140252676Y-111031478D01*
X140259470Y-110917560D01*
X140272481Y-110820504D01*
X140296215Y-110732449D01*
X140337327Y-110641851D01*
X140406625Y-110538074D01*
X140520299Y-110410533D01*
X140888617Y-110042216D01*
X140901578Y-110031579D01*
X140912216Y-110018617D01*
X140912225Y-110018608D01*
X140944067Y-109979808D01*
X140947338Y-109973688D01*
X140975639Y-109920742D01*
X140995080Y-109856652D01*
X141000000Y-109806701D01*
X141000000Y-109806684D01*
X141001643Y-109790001D01*
X141000000Y-109773318D01*
X141000000Y-105156692D01*
X141001644Y-105139999D01*
X141000000Y-105123306D01*
X141000000Y-105123299D01*
X140995080Y-105073348D01*
X140975639Y-105009258D01*
X140944067Y-104950192D01*
X140927178Y-104929613D01*
X140912225Y-104911392D01*
X140912220Y-104911387D01*
X140901579Y-104898421D01*
X140888612Y-104887779D01*
X140020000Y-104019169D01*
X140020000Y-100424125D01*
X140021827Y-100370890D01*
X140025911Y-100336253D01*
X140031085Y-100312843D01*
X140037053Y-100295237D01*
X140045313Y-100277197D01*
X140058386Y-100253660D01*
X140077888Y-100221719D01*
X140101879Y-100182736D01*
X140105196Y-100177180D01*
X140130907Y-100132763D01*
X140136318Y-100122888D01*
X140145157Y-100105817D01*
X140158542Y-100085786D01*
X140199248Y-99987512D01*
X140220000Y-99883185D01*
X140220000Y-99776815D01*
X140199248Y-99672488D01*
X140158542Y-99574214D01*
X140099446Y-99485770D01*
X140024230Y-99410554D01*
X139935786Y-99351458D01*
X139837512Y-99310752D01*
X139733185Y-99290000D01*
X139626815Y-99290000D01*
X139522488Y-99310752D01*
X139424214Y-99351458D01*
X139335770Y-99410554D01*
X139260554Y-99485770D01*
X139201458Y-99574214D01*
X139160752Y-99672488D01*
X139140000Y-99776815D01*
X139140000Y-99883185D01*
X139160752Y-99987512D01*
X139201458Y-100085786D01*
X139214842Y-100105817D01*
X139223680Y-100122885D01*
X139229092Y-100132763D01*
X139254803Y-100177180D01*
X139258120Y-100182736D01*
X139282111Y-100221719D01*
X139301613Y-100253660D01*
X139314686Y-100277197D01*
X139322946Y-100295237D01*
X139328914Y-100312843D01*
X139334088Y-100336253D01*
X139338172Y-100370891D01*
X139340001Y-100424156D01*
X139340000Y-104143307D01*
X139338356Y-104160000D01*
X139340000Y-104176693D01*
X139340000Y-104176700D01*
X139344920Y-104226651D01*
X139364361Y-104290741D01*
X139395933Y-104349807D01*
X139438421Y-104401578D01*
X139451394Y-104412225D01*
X140320001Y-105280834D01*
X140320000Y-109649167D01*
X140039482Y-109929685D01*
X139912425Y-110042899D01*
X139809185Y-110111751D01*
X139719157Y-110152451D01*
X139631695Y-110175786D01*
X139535203Y-110188349D01*
X139421785Y-110194543D01*
X139293051Y-110199974D01*
X139282771Y-110200629D01*
X139142748Y-110212572D01*
X139122850Y-110215111D01*
X138969513Y-110241226D01*
X138944629Y-110246839D01*
X138876230Y-110266140D01*
X138797059Y-110281888D01*
X138598691Y-110364055D01*
X138420166Y-110483342D01*
X138268342Y-110635166D01*
X138149055Y-110813691D01*
X138066888Y-111012059D01*
X138025000Y-111222644D01*
X137915000Y-111222644D01*
X137873112Y-111012059D01*
X137790945Y-110813691D01*
X137671658Y-110635166D01*
X137519834Y-110483342D01*
X137341309Y-110364055D01*
X137142941Y-110281888D01*
X136937273Y-110240978D01*
X137319438Y-110240978D01*
X137417791Y-110399273D01*
X137633104Y-110486842D01*
X137861364Y-110530723D01*
X138093799Y-110529229D01*
X138321476Y-110482419D01*
X138522209Y-110399273D01*
X138620562Y-110240978D01*
X137970000Y-109590416D01*
X137319438Y-110240978D01*
X136937273Y-110240978D01*
X136932356Y-110240000D01*
X136717644Y-110240000D01*
X136507059Y-110281888D01*
X136308691Y-110364055D01*
X136130166Y-110483342D01*
X135978342Y-110635166D01*
X135859055Y-110813691D01*
X135776888Y-111012059D01*
X135735000Y-111222644D01*
X135625000Y-111222644D01*
X135583112Y-111012059D01*
X135500945Y-110813691D01*
X135381658Y-110635166D01*
X135229834Y-110483342D01*
X135051309Y-110364055D01*
X134852941Y-110281888D01*
X134642356Y-110240000D01*
X134427644Y-110240000D01*
X134217059Y-110281888D01*
X134018691Y-110364055D01*
X133840166Y-110483342D01*
X133688342Y-110635166D01*
X133569055Y-110813691D01*
X133486888Y-111012059D01*
X133445000Y-111222644D01*
X133445000Y-111437356D01*
X133486888Y-111647941D01*
X133569055Y-111846309D01*
X133688342Y-112024834D01*
X133759438Y-112095930D01*
X133850286Y-112197740D01*
X133909660Y-112283954D01*
X133952333Y-112366122D01*
X133986954Y-112452613D01*
X134020156Y-112549330D01*
X134020853Y-112551332D01*
X134057571Y-112655292D01*
X134063105Y-112669504D01*
X134109043Y-112777232D01*
X134119735Y-112799148D01*
X134182549Y-112912848D01*
X134197548Y-112936598D01*
X134232901Y-112985927D01*
X134234361Y-112990741D01*
X134265933Y-113049807D01*
X134294050Y-113084067D01*
X134308422Y-113101579D01*
X134321394Y-113112225D01*
X135147779Y-113938612D01*
X135158421Y-113951579D01*
X135171387Y-113962220D01*
X135171393Y-113962226D01*
X135192653Y-113979673D01*
X135210192Y-113994067D01*
X135269258Y-114025639D01*
X135333348Y-114045080D01*
X135383299Y-114050000D01*
X135383307Y-114050000D01*
X135400000Y-114051644D01*
X135416693Y-114050000D01*
X156533307Y-114050000D01*
X156550000Y-114051644D01*
X156566693Y-114050000D01*
X156566701Y-114050000D01*
X156616652Y-114045080D01*
X156680742Y-114025639D01*
X156739808Y-113994067D01*
X156791579Y-113951579D01*
X156802230Y-113938601D01*
X158108611Y-112632221D01*
X158121578Y-112621579D01*
X158132221Y-112608611D01*
X158132225Y-112608607D01*
X158164067Y-112569808D01*
X158195639Y-112510742D01*
X158215080Y-112446652D01*
X158217705Y-112420000D01*
X158220000Y-112396701D01*
X158220000Y-112396694D01*
X158221644Y-112380001D01*
X158220000Y-112363308D01*
X158220000Y-111459607D01*
X158223957Y-111410239D01*
X158228551Y-111394141D01*
X158229295Y-111392840D01*
X158229299Y-111392836D01*
X158238355Y-111387042D01*
X158263502Y-111376550D01*
X158305746Y-111364572D01*
X158363030Y-111352748D01*
X158431399Y-111341161D01*
X158540001Y-111341161D01*
X158540001Y-112299877D01*
X156709879Y-114130000D01*
X119390000Y-114130000D01*
X119390000Y-111086386D01*
X120544030Y-111086386D01*
X120785457Y-111365952D01*
X121202856Y-111571965D01*
X121652425Y-111692590D01*
X122116889Y-111723190D01*
X122578397Y-111662589D01*
X123019216Y-111513117D01*
X123294543Y-111365952D01*
X123535970Y-111086386D01*
X122040000Y-109590416D01*
X120544030Y-111086386D01*
X119390000Y-111086386D01*
X119390000Y-109426889D01*
X119666810Y-109426889D01*
X119727411Y-109888397D01*
X119876883Y-110329216D01*
X120024048Y-110604543D01*
X120303614Y-110845970D01*
X121799584Y-109350000D01*
X122280416Y-109350000D01*
X123776386Y-110845970D01*
X124055952Y-110604543D01*
X124261965Y-110187144D01*
X124382590Y-109737575D01*
X124413190Y-109273111D01*
X124352589Y-108811603D01*
X124203117Y-108370784D01*
X124055952Y-108095457D01*
X123776386Y-107854030D01*
X122280416Y-109350000D01*
X121799584Y-109350000D01*
X120303614Y-107854030D01*
X120024048Y-108095457D01*
X119818035Y-108512856D01*
X119697410Y-108962425D01*
X119666810Y-109426889D01*
X119390000Y-109426889D01*
X119390000Y-107613614D01*
X120544030Y-107613614D01*
X122040000Y-109109584D01*
X123535970Y-107613614D01*
X123294543Y-107334048D01*
X122877144Y-107128035D01*
X122427575Y-107007410D01*
X121963111Y-106976810D01*
X121501603Y-107037411D01*
X121060784Y-107186883D01*
X120785457Y-107334048D01*
X120544030Y-107613614D01*
X119390000Y-107613614D01*
X119390000Y-106520000D01*
X125728356Y-106520000D01*
X125730001Y-106536703D01*
X125730000Y-112333307D01*
X125728356Y-112350000D01*
X125730000Y-112366693D01*
X125730000Y-112366700D01*
X125734920Y-112416651D01*
X125754361Y-112480741D01*
X125785933Y-112539807D01*
X125828421Y-112591578D01*
X125841394Y-112602225D01*
X126817779Y-113578612D01*
X126828421Y-113591579D01*
X126841387Y-113602220D01*
X126841393Y-113602226D01*
X126862653Y-113619673D01*
X126880192Y-113634067D01*
X126939258Y-113665639D01*
X127003348Y-113685080D01*
X127053299Y-113690000D01*
X127053307Y-113690000D01*
X127070000Y-113691644D01*
X127086693Y-113690000D01*
X131563307Y-113690000D01*
X131580000Y-113691644D01*
X131596693Y-113690000D01*
X131596701Y-113690000D01*
X131646652Y-113685080D01*
X131710742Y-113665639D01*
X131769808Y-113634067D01*
X131821579Y-113591579D01*
X131832229Y-113578602D01*
X132468607Y-112942225D01*
X132481579Y-112931579D01*
X132524067Y-112879808D01*
X132555639Y-112820742D01*
X132573269Y-112762621D01*
X132631613Y-112665532D01*
X132636656Y-112656725D01*
X132688784Y-112561035D01*
X132689463Y-112559778D01*
X132738105Y-112469208D01*
X132787715Y-112383823D01*
X132845178Y-112298105D01*
X132918473Y-112205551D01*
X133018813Y-112097679D01*
X133091658Y-112024834D01*
X133210945Y-111846309D01*
X133293112Y-111647941D01*
X133335000Y-111437356D01*
X133335000Y-111222644D01*
X133293112Y-111012059D01*
X133210945Y-110813691D01*
X133091658Y-110635166D01*
X132939834Y-110483342D01*
X132761309Y-110364055D01*
X132562941Y-110281888D01*
X132357273Y-110240978D01*
X132739438Y-110240978D01*
X132837791Y-110399273D01*
X133053104Y-110486842D01*
X133281364Y-110530723D01*
X133513799Y-110529229D01*
X133741476Y-110482419D01*
X133942209Y-110399273D01*
X134040562Y-110240978D01*
X133390000Y-109590416D01*
X132739438Y-110240978D01*
X132357273Y-110240978D01*
X132352356Y-110240000D01*
X132137644Y-110240000D01*
X131927059Y-110281888D01*
X131728691Y-110364055D01*
X131550166Y-110483342D01*
X131398342Y-110635166D01*
X131279055Y-110813691D01*
X131196888Y-111012059D01*
X131155000Y-111222644D01*
X131155000Y-111437356D01*
X131196888Y-111647941D01*
X131279055Y-111846309D01*
X131343983Y-111943480D01*
X131352703Y-111958503D01*
X131369713Y-111983925D01*
X131379878Y-111997201D01*
X131398342Y-112024834D01*
X131409839Y-112036331D01*
X131468032Y-112112333D01*
X131479554Y-112126261D01*
X131584687Y-112244024D01*
X131588377Y-112248063D01*
X131688282Y-112354963D01*
X131768062Y-112446777D01*
X131816293Y-112516999D01*
X131832420Y-112557524D01*
X131832974Y-112576329D01*
X131819065Y-112612747D01*
X131749755Y-112699414D01*
X131439169Y-113010000D01*
X127210833Y-113010000D01*
X126410000Y-112209169D01*
X126410000Y-111222644D01*
X128865000Y-111222644D01*
X128865000Y-111437356D01*
X128906888Y-111647941D01*
X128989055Y-111846309D01*
X129108342Y-112024834D01*
X129260166Y-112176658D01*
X129438691Y-112295945D01*
X129637059Y-112378112D01*
X129847644Y-112420000D01*
X130062356Y-112420000D01*
X130272941Y-112378112D01*
X130471309Y-112295945D01*
X130649834Y-112176658D01*
X130801658Y-112024834D01*
X130920945Y-111846309D01*
X131003112Y-111647941D01*
X131045000Y-111437356D01*
X131045000Y-111222644D01*
X131003112Y-111012059D01*
X130920945Y-110813691D01*
X130801658Y-110635166D01*
X130649834Y-110483342D01*
X130471309Y-110364055D01*
X130272941Y-110281888D01*
X130067273Y-110240978D01*
X130449438Y-110240978D01*
X130547791Y-110399273D01*
X130763104Y-110486842D01*
X130991364Y-110530723D01*
X131223799Y-110529229D01*
X131451476Y-110482419D01*
X131652209Y-110399273D01*
X131750562Y-110240978D01*
X131100000Y-109590416D01*
X130449438Y-110240978D01*
X130067273Y-110240978D01*
X130062356Y-110240000D01*
X129847644Y-110240000D01*
X129637059Y-110281888D01*
X129438691Y-110364055D01*
X129260166Y-110483342D01*
X129108342Y-110635166D01*
X128989055Y-110813691D01*
X128906888Y-111012059D01*
X128865000Y-111222644D01*
X126410000Y-111222644D01*
X126410000Y-110240978D01*
X128159438Y-110240978D01*
X128257791Y-110399273D01*
X128473104Y-110486842D01*
X128701364Y-110530723D01*
X128933799Y-110529229D01*
X129161476Y-110482419D01*
X129362209Y-110399273D01*
X129460562Y-110240978D01*
X128810000Y-109590416D01*
X128159438Y-110240978D01*
X126410000Y-110240978D01*
X126410000Y-109241364D01*
X127629277Y-109241364D01*
X127630771Y-109473799D01*
X127677581Y-109701476D01*
X127760727Y-109902209D01*
X127919022Y-110000562D01*
X128569584Y-109350000D01*
X129050416Y-109350000D01*
X129700978Y-110000562D01*
X129859273Y-109902209D01*
X129946842Y-109686896D01*
X129955415Y-109642302D01*
X129967581Y-109701476D01*
X130050727Y-109902209D01*
X130209022Y-110000562D01*
X130859584Y-109350000D01*
X131340416Y-109350000D01*
X131990978Y-110000562D01*
X132149273Y-109902209D01*
X132236842Y-109686896D01*
X132245415Y-109642302D01*
X132257581Y-109701476D01*
X132340727Y-109902209D01*
X132499022Y-110000562D01*
X133149584Y-109350000D01*
X133630416Y-109350000D01*
X134280978Y-110000562D01*
X134439273Y-109902209D01*
X134526842Y-109686896D01*
X134570723Y-109458636D01*
X134569335Y-109242644D01*
X134590000Y-109242644D01*
X134590000Y-109457356D01*
X134631888Y-109667941D01*
X134714055Y-109866309D01*
X134833342Y-110044834D01*
X134985166Y-110196658D01*
X135163691Y-110315945D01*
X135362059Y-110398112D01*
X135572644Y-110440000D01*
X135787356Y-110440000D01*
X135997941Y-110398112D01*
X136196309Y-110315945D01*
X136374834Y-110196658D01*
X136526658Y-110044834D01*
X136645945Y-109866309D01*
X136728112Y-109667941D01*
X136770000Y-109457356D01*
X136770000Y-109242644D01*
X136769746Y-109241364D01*
X136789277Y-109241364D01*
X136790771Y-109473799D01*
X136837581Y-109701476D01*
X136920727Y-109902209D01*
X137079022Y-110000562D01*
X137729584Y-109350000D01*
X137079022Y-108699438D01*
X136920727Y-108797791D01*
X136833158Y-109013104D01*
X136789277Y-109241364D01*
X136769746Y-109241364D01*
X136728112Y-109032059D01*
X136645945Y-108833691D01*
X136526658Y-108655166D01*
X136374834Y-108503342D01*
X136196309Y-108384055D01*
X135997941Y-108301888D01*
X135787356Y-108260000D01*
X135572644Y-108260000D01*
X135362059Y-108301888D01*
X135163691Y-108384055D01*
X134985166Y-108503342D01*
X134833342Y-108655166D01*
X134714055Y-108833691D01*
X134631888Y-109032059D01*
X134590000Y-109242644D01*
X134569335Y-109242644D01*
X134569229Y-109226201D01*
X134522419Y-108998524D01*
X134439273Y-108797791D01*
X134280978Y-108699438D01*
X133630416Y-109350000D01*
X133149584Y-109350000D01*
X132499022Y-108699438D01*
X132340727Y-108797791D01*
X132253158Y-109013104D01*
X132244585Y-109057698D01*
X132232419Y-108998524D01*
X132149273Y-108797791D01*
X131990978Y-108699438D01*
X131340416Y-109350000D01*
X130859584Y-109350000D01*
X130209022Y-108699438D01*
X130050727Y-108797791D01*
X129963158Y-109013104D01*
X129954585Y-109057698D01*
X129942419Y-108998524D01*
X129859273Y-108797791D01*
X129700978Y-108699438D01*
X129050416Y-109350000D01*
X128569584Y-109350000D01*
X127919022Y-108699438D01*
X127760727Y-108797791D01*
X127673158Y-109013104D01*
X127629277Y-109241364D01*
X126410000Y-109241364D01*
X126410000Y-108459022D01*
X128159438Y-108459022D01*
X128810000Y-109109584D01*
X129458423Y-108461161D01*
X130451577Y-108461161D01*
X131100000Y-109109584D01*
X131750562Y-108459022D01*
X131652209Y-108300727D01*
X131436896Y-108213158D01*
X131208636Y-108169277D01*
X131046161Y-108170321D01*
X131046161Y-107262644D01*
X131155000Y-107262644D01*
X131155000Y-107477356D01*
X131196888Y-107687941D01*
X131279055Y-107886309D01*
X131398342Y-108064834D01*
X131550166Y-108216658D01*
X131728691Y-108335945D01*
X131927059Y-108418112D01*
X132137644Y-108460000D01*
X132352356Y-108460000D01*
X132357272Y-108459022D01*
X132739438Y-108459022D01*
X133390000Y-109109584D01*
X134040562Y-108459022D01*
X133942209Y-108300727D01*
X133726896Y-108213158D01*
X133498636Y-108169277D01*
X133266201Y-108170771D01*
X133038524Y-108217581D01*
X132837791Y-108300727D01*
X132739438Y-108459022D01*
X132357272Y-108459022D01*
X132562941Y-108418112D01*
X132761309Y-108335945D01*
X132939834Y-108216658D01*
X133091658Y-108064834D01*
X133210945Y-107886309D01*
X133293112Y-107687941D01*
X133335000Y-107477356D01*
X133335000Y-107262644D01*
X133445000Y-107262644D01*
X133445000Y-107477356D01*
X133486888Y-107687941D01*
X133569055Y-107886309D01*
X133688342Y-108064834D01*
X133840166Y-108216658D01*
X134018691Y-108335945D01*
X134217059Y-108418112D01*
X134427644Y-108460000D01*
X134642356Y-108460000D01*
X134852941Y-108418112D01*
X135051309Y-108335945D01*
X135229834Y-108216658D01*
X135381658Y-108064834D01*
X135500945Y-107886309D01*
X135583112Y-107687941D01*
X135625000Y-107477356D01*
X135625000Y-107262644D01*
X135735000Y-107262644D01*
X135735000Y-107477356D01*
X135776888Y-107687941D01*
X135859055Y-107886309D01*
X135978342Y-108064834D01*
X136130166Y-108216658D01*
X136308691Y-108335945D01*
X136507059Y-108418112D01*
X136717644Y-108460000D01*
X136932356Y-108460000D01*
X136937272Y-108459022D01*
X137319438Y-108459022D01*
X137970000Y-109109584D01*
X137984143Y-109095442D01*
X138224559Y-109335858D01*
X138210416Y-109350000D01*
X138860978Y-110000562D01*
X139019273Y-109902209D01*
X139106842Y-109686896D01*
X139150723Y-109458636D01*
X139149229Y-109226201D01*
X139102419Y-108998524D01*
X139019273Y-108797791D01*
X138860980Y-108699439D01*
X138928359Y-108632060D01*
X138809100Y-108512801D01*
X139006364Y-108550723D01*
X139238799Y-108549229D01*
X139466476Y-108502419D01*
X139667209Y-108419273D01*
X139765562Y-108260978D01*
X139115000Y-107610416D01*
X139100858Y-107624559D01*
X138860442Y-107384143D01*
X138874584Y-107370000D01*
X139355416Y-107370000D01*
X140005978Y-108020562D01*
X140164273Y-107922209D01*
X140251842Y-107706896D01*
X140295723Y-107478636D01*
X140294229Y-107246201D01*
X140247419Y-107018524D01*
X140164273Y-106817791D01*
X140005978Y-106719438D01*
X139355416Y-107370000D01*
X138874584Y-107370000D01*
X138224022Y-106719438D01*
X138065727Y-106817791D01*
X137978158Y-107033104D01*
X137934277Y-107261364D01*
X137935771Y-107493799D01*
X137982581Y-107721476D01*
X138065727Y-107922209D01*
X138224020Y-108020561D01*
X138156641Y-108087940D01*
X138275900Y-108207199D01*
X138078636Y-108169277D01*
X137846201Y-108170771D01*
X137618524Y-108217581D01*
X137417791Y-108300727D01*
X137319438Y-108459022D01*
X136937272Y-108459022D01*
X137142941Y-108418112D01*
X137341309Y-108335945D01*
X137519834Y-108216658D01*
X137671658Y-108064834D01*
X137790945Y-107886309D01*
X137873112Y-107687941D01*
X137915000Y-107477356D01*
X137915000Y-107262644D01*
X137873112Y-107052059D01*
X137790945Y-106853691D01*
X137671658Y-106675166D01*
X137519834Y-106523342D01*
X137453505Y-106479022D01*
X138464438Y-106479022D01*
X139115000Y-107129584D01*
X139765562Y-106479022D01*
X139667209Y-106320727D01*
X139451896Y-106233158D01*
X139223636Y-106189277D01*
X138991201Y-106190771D01*
X138763524Y-106237581D01*
X138562791Y-106320727D01*
X138464438Y-106479022D01*
X137453505Y-106479022D01*
X137341309Y-106404055D01*
X137142941Y-106321888D01*
X136932356Y-106280000D01*
X136717644Y-106280000D01*
X136507059Y-106321888D01*
X136308691Y-106404055D01*
X136130166Y-106523342D01*
X135978342Y-106675166D01*
X135859055Y-106853691D01*
X135776888Y-107052059D01*
X135735000Y-107262644D01*
X135625000Y-107262644D01*
X135583112Y-107052059D01*
X135500945Y-106853691D01*
X135381658Y-106675166D01*
X135229834Y-106523342D01*
X135051309Y-106404055D01*
X134852941Y-106321888D01*
X134642356Y-106280000D01*
X134427644Y-106280000D01*
X134217059Y-106321888D01*
X134018691Y-106404055D01*
X133840166Y-106523342D01*
X133688342Y-106675166D01*
X133569055Y-106853691D01*
X133486888Y-107052059D01*
X133445000Y-107262644D01*
X133335000Y-107262644D01*
X133293112Y-107052059D01*
X133210945Y-106853691D01*
X133091658Y-106675166D01*
X132939834Y-106523342D01*
X132761309Y-106404055D01*
X132562941Y-106321888D01*
X132352356Y-106280000D01*
X132137644Y-106280000D01*
X131927059Y-106321888D01*
X131728691Y-106404055D01*
X131550166Y-106523342D01*
X131398342Y-106675166D01*
X131279055Y-106853691D01*
X131196888Y-107052059D01*
X131155000Y-107262644D01*
X131046161Y-107262644D01*
X131046161Y-106520000D01*
X131041527Y-106472952D01*
X131027804Y-106427712D01*
X131005518Y-106386018D01*
X130975527Y-106349473D01*
X130938982Y-106319482D01*
X130897288Y-106297196D01*
X130852048Y-106283473D01*
X130805000Y-106278839D01*
X129105000Y-106278839D01*
X129057952Y-106283473D01*
X129012712Y-106297196D01*
X128971018Y-106319482D01*
X128934473Y-106349473D01*
X128904482Y-106386018D01*
X128882196Y-106427712D01*
X128868473Y-106472952D01*
X128863839Y-106520000D01*
X128863839Y-108169629D01*
X128686201Y-108170771D01*
X128458524Y-108217581D01*
X128257791Y-108300727D01*
X128159438Y-108459022D01*
X126410000Y-108459022D01*
X126410000Y-106660831D01*
X127320832Y-105750000D01*
X132243305Y-105750000D01*
X132259998Y-105751644D01*
X132276691Y-105750000D01*
X132276699Y-105750000D01*
X132326650Y-105745080D01*
X132390740Y-105725639D01*
X132449806Y-105694067D01*
X132501577Y-105651579D01*
X132512228Y-105638601D01*
X137650316Y-100500515D01*
X137689238Y-100464176D01*
X137716623Y-100442567D01*
X137736828Y-100429677D01*
X137753508Y-100421443D01*
X137772108Y-100414526D01*
X137797975Y-100407133D01*
X137834281Y-100398353D01*
X137878891Y-100387733D01*
X137885162Y-100386150D01*
X137934750Y-100372923D01*
X137945557Y-100369768D01*
X137963887Y-100363945D01*
X137987512Y-100359246D01*
X138085786Y-100318540D01*
X138174230Y-100259444D01*
X138249446Y-100184228D01*
X138308542Y-100095784D01*
X138349248Y-99997510D01*
X138370000Y-99893183D01*
X138370000Y-99786813D01*
X138349248Y-99682486D01*
X138308542Y-99584212D01*
X138249446Y-99495768D01*
X138174230Y-99420552D01*
X138085786Y-99361456D01*
X137987512Y-99320750D01*
X137883185Y-99299998D01*
X137776815Y-99299998D01*
X137672488Y-99320750D01*
X137574214Y-99361456D01*
X137485770Y-99420552D01*
X137410554Y-99495768D01*
X137351458Y-99584212D01*
X137310752Y-99682486D01*
X137306053Y-99706107D01*
X137300231Y-99724435D01*
X137297074Y-99735247D01*
X137283847Y-99784835D01*
X137282264Y-99791106D01*
X137271644Y-99835716D01*
X137262864Y-99872022D01*
X137255471Y-99897889D01*
X137248554Y-99916489D01*
X137240320Y-99933169D01*
X137227430Y-99953374D01*
X137205816Y-99980766D01*
X137169493Y-100019672D01*
X132119167Y-105070000D01*
X127196692Y-105070000D01*
X127179999Y-105068356D01*
X127163306Y-105070000D01*
X127163299Y-105070000D01*
X127113348Y-105074920D01*
X127049258Y-105094361D01*
X126990192Y-105125933D01*
X126938421Y-105168421D01*
X126927775Y-105181393D01*
X125841394Y-106267775D01*
X125828422Y-106278421D01*
X125817776Y-106291393D01*
X125817775Y-106291394D01*
X125785933Y-106330193D01*
X125754361Y-106389259D01*
X125734920Y-106453349D01*
X125728356Y-106520000D01*
X119390000Y-106520000D01*
X119390000Y-102250912D01*
X119493134Y-102387588D01*
X119653705Y-102530712D01*
X119839112Y-102639760D01*
X119964616Y-102674812D01*
X120130000Y-102630966D01*
X120130000Y-101060000D01*
X120470000Y-101060000D01*
X120470000Y-102630966D01*
X120635384Y-102674812D01*
X120760888Y-102639760D01*
X120946295Y-102530712D01*
X121106866Y-102387588D01*
X121236429Y-102215888D01*
X121330006Y-102022211D01*
X121384000Y-101814000D01*
X121384000Y-101060000D01*
X120470000Y-101060000D01*
X120130000Y-101060000D01*
X120110000Y-101060000D01*
X120110000Y-100720000D01*
X120130000Y-100720000D01*
X120130000Y-99149034D01*
X120470000Y-99149034D01*
X120470000Y-100720000D01*
X121384000Y-100720000D01*
X121384000Y-99966000D01*
X121330006Y-99757789D01*
X121236429Y-99564112D01*
X121106866Y-99392412D01*
X120946295Y-99249288D01*
X120760888Y-99140240D01*
X120635384Y-99105188D01*
X120470000Y-99149034D01*
X120130000Y-99149034D01*
X119964616Y-99105188D01*
X119839112Y-99140240D01*
X119653705Y-99249288D01*
X119493134Y-99392412D01*
X119390000Y-99529088D01*
X119390000Y-97160000D01*
X149760000Y-97160000D01*
X149760001Y-107285744D01*
G04 #@! TA.AperFunction,Conductor*
D17*
G36*
X149760001Y-107285744D02*
G01*
X149758597Y-107300000D01*
X149764196Y-107356850D01*
X149780779Y-107411515D01*
X149807707Y-107461895D01*
X149843947Y-107506053D01*
X149888105Y-107542293D01*
X149938485Y-107569221D01*
X149993150Y-107585804D01*
X150035755Y-107590000D01*
X150050000Y-107591403D01*
X150064245Y-107590000D01*
X151165755Y-107590000D01*
X151180000Y-107591403D01*
X151194245Y-107590000D01*
X151236850Y-107585804D01*
X151291515Y-107569221D01*
X151341895Y-107542293D01*
X151386053Y-107506053D01*
X151422293Y-107461895D01*
X151449221Y-107411515D01*
X151465804Y-107356850D01*
X151471403Y-107300000D01*
X151470000Y-107285755D01*
X151470000Y-98290000D01*
X158540000Y-98290000D01*
X158540001Y-109658839D01*
X157520000Y-109658839D01*
X157443688Y-109666355D01*
X157370309Y-109688614D01*
X157302683Y-109724762D01*
X157243407Y-109773407D01*
X157194762Y-109832683D01*
X157158614Y-109900309D01*
X157136355Y-109973688D01*
X157128839Y-110050000D01*
X157128839Y-110950000D01*
X157136355Y-111026312D01*
X157158614Y-111099691D01*
X157194762Y-111167317D01*
X157243407Y-111226593D01*
X157302683Y-111275238D01*
X157370309Y-111311386D01*
X157443688Y-111333645D01*
X157520000Y-111341161D01*
X157539767Y-111341161D01*
X157540000Y-111450277D01*
X157540000Y-112239168D01*
X156409169Y-113370000D01*
X155840832Y-113370000D01*
X156139672Y-113071161D01*
X156400000Y-113071161D01*
X156476312Y-113063645D01*
X156549691Y-113041386D01*
X156617317Y-113005238D01*
X156676593Y-112956593D01*
X156725238Y-112897317D01*
X156761386Y-112829691D01*
X156783645Y-112756312D01*
X156791161Y-112680000D01*
X156791161Y-110980000D01*
X156783645Y-110903688D01*
X156761386Y-110830309D01*
X156725238Y-110762683D01*
X156676593Y-110703407D01*
X156617317Y-110654762D01*
X156549691Y-110618614D01*
X156476312Y-110596355D01*
X156400000Y-110588839D01*
X155500000Y-110588839D01*
X155423688Y-110596355D01*
X155350309Y-110618614D01*
X155282683Y-110654762D01*
X155223407Y-110703407D01*
X155174762Y-110762683D01*
X155138614Y-110830309D01*
X155116355Y-110903688D01*
X155108839Y-110980000D01*
X155108839Y-112680000D01*
X155116355Y-112756312D01*
X155138614Y-112829691D01*
X155174762Y-112897317D01*
X155193377Y-112920000D01*
X154886623Y-112920000D01*
X154905238Y-112897317D01*
X154941386Y-112829691D01*
X154963645Y-112756312D01*
X154971161Y-112680000D01*
X154971161Y-110980000D01*
X154963645Y-110903688D01*
X154941386Y-110830309D01*
X154905238Y-110762683D01*
X154856593Y-110703407D01*
X154797317Y-110654762D01*
X154729691Y-110618614D01*
X154656312Y-110596355D01*
X154580000Y-110588839D01*
X153680000Y-110588839D01*
X153603688Y-110596355D01*
X153530309Y-110618614D01*
X153462683Y-110654762D01*
X153403407Y-110703407D01*
X153354762Y-110762683D01*
X153318614Y-110830309D01*
X153296355Y-110903688D01*
X153288839Y-110980000D01*
X153288839Y-111497241D01*
X153284167Y-111502502D01*
X153238661Y-111548509D01*
X153199457Y-111580298D01*
X153160574Y-111602853D01*
X153111488Y-111620798D01*
X153040509Y-111634238D01*
X152933533Y-111640000D01*
X147635016Y-111640000D01*
X148009216Y-111513117D01*
X148284543Y-111365952D01*
X148525970Y-111086386D01*
X147030000Y-109590416D01*
X145534030Y-111086386D01*
X145775457Y-111365952D01*
X146192856Y-111571965D01*
X146446422Y-111640000D01*
X145183778Y-111640000D01*
X143725029Y-110181253D01*
X143725029Y-109426889D01*
X144656810Y-109426889D01*
X144717411Y-109888397D01*
X144866883Y-110329216D01*
X145014048Y-110604543D01*
X145293614Y-110845970D01*
X146789584Y-109350000D01*
X147270416Y-109350000D01*
X148766386Y-110845970D01*
X149045952Y-110604543D01*
X149251965Y-110187144D01*
X149372590Y-109737575D01*
X149403190Y-109273111D01*
X149342589Y-108811603D01*
X149193117Y-108370784D01*
X149045952Y-108095457D01*
X148766386Y-107854030D01*
X147270416Y-109350000D01*
X146789584Y-109350000D01*
X145293614Y-107854030D01*
X145014048Y-108095457D01*
X144808035Y-108512856D01*
X144687410Y-108962425D01*
X144656810Y-109426889D01*
X143725029Y-109426889D01*
X143725029Y-109275802D01*
X144502542Y-108498290D01*
X144515514Y-108487644D01*
X144558002Y-108435873D01*
X144589574Y-108376807D01*
X144609015Y-108312717D01*
X144613935Y-108262766D01*
X144613935Y-108262758D01*
X144615579Y-108246065D01*
X144613935Y-108229372D01*
X144613935Y-107613614D01*
X145534030Y-107613614D01*
X147030000Y-109109584D01*
X148525970Y-107613614D01*
X148284543Y-107334048D01*
X147867144Y-107128035D01*
X147417575Y-107007410D01*
X146953111Y-106976810D01*
X146491603Y-107037411D01*
X146050784Y-107186883D01*
X145775457Y-107334048D01*
X145534030Y-107613614D01*
X144613935Y-107613614D01*
X144613935Y-104146799D01*
X145509980Y-104146799D01*
X145509980Y-104253169D01*
X145530732Y-104357496D01*
X145571438Y-104455770D01*
X145630534Y-104544214D01*
X145705750Y-104619430D01*
X145794194Y-104678526D01*
X145892468Y-104719232D01*
X145902916Y-104721310D01*
X145911926Y-104724658D01*
X145922009Y-104728152D01*
X145972816Y-104744499D01*
X145978878Y-104746361D01*
X146024851Y-104759823D01*
X146062728Y-104770989D01*
X146090986Y-104780464D01*
X146112691Y-104789492D01*
X146132875Y-104800197D01*
X146156630Y-104816001D01*
X146187424Y-104840814D01*
X146229438Y-104880269D01*
X151008007Y-109658839D01*
X150870000Y-109658839D01*
X150793688Y-109666355D01*
X150720309Y-109688614D01*
X150652683Y-109724762D01*
X150593407Y-109773407D01*
X150544762Y-109832683D01*
X150508614Y-109900309D01*
X150486355Y-109973688D01*
X150478839Y-110050000D01*
X150478839Y-110950000D01*
X150486355Y-111026312D01*
X150508614Y-111099691D01*
X150544762Y-111167317D01*
X150593407Y-111226593D01*
X150652683Y-111275238D01*
X150720309Y-111311386D01*
X150793688Y-111333645D01*
X150870000Y-111341161D01*
X152570000Y-111341161D01*
X152646312Y-111333645D01*
X152719691Y-111311386D01*
X152787317Y-111275238D01*
X152846593Y-111226593D01*
X152895238Y-111167317D01*
X152931386Y-111099691D01*
X152953645Y-111026312D01*
X152961161Y-110950000D01*
X152961161Y-110050000D01*
X152953645Y-109973688D01*
X152931386Y-109900309D01*
X152895238Y-109832683D01*
X152846593Y-109773407D01*
X152787317Y-109724762D01*
X152719691Y-109688614D01*
X152646312Y-109666355D01*
X152570000Y-109658839D01*
X152041234Y-109658839D01*
X151987402Y-109615680D01*
X151984710Y-109613553D01*
X151920069Y-109563228D01*
X151855839Y-109512940D01*
X151789610Y-109459107D01*
X151717079Y-109396701D01*
X151634197Y-109320746D01*
X151536209Y-109225377D01*
X146710433Y-104399601D01*
X146673408Y-104360015D01*
X146651209Y-104332020D01*
X146638042Y-104311506D01*
X146629895Y-104295044D01*
X146623343Y-104277244D01*
X146616563Y-104252579D01*
X146608778Y-104217542D01*
X146599501Y-104173184D01*
X146598556Y-104168866D01*
X146586983Y-104118204D01*
X146584684Y-104108984D01*
X146576273Y-104077890D01*
X146569228Y-104042472D01*
X146528522Y-103944198D01*
X146469426Y-103855754D01*
X146394210Y-103780538D01*
X146305766Y-103721442D01*
X146207492Y-103680736D01*
X146103165Y-103659984D01*
X145996795Y-103659984D01*
X145892468Y-103680736D01*
X145794194Y-103721442D01*
X145705750Y-103780538D01*
X145630534Y-103855754D01*
X145571438Y-103944198D01*
X145530732Y-104042472D01*
X145509980Y-104146799D01*
X144613935Y-104146799D01*
X144613935Y-100420627D01*
X144615579Y-100403934D01*
X144613935Y-100387241D01*
X144613935Y-100387234D01*
X144609015Y-100337283D01*
X144589574Y-100273193D01*
X144558002Y-100214127D01*
X144553319Y-100208421D01*
X144526160Y-100175327D01*
X144526151Y-100175318D01*
X144515513Y-100162356D01*
X144502552Y-100151719D01*
X141702230Y-97351399D01*
X141691579Y-97338421D01*
X141639808Y-97295933D01*
X141580742Y-97264361D01*
X141516652Y-97244920D01*
X141466701Y-97240000D01*
X141466693Y-97240000D01*
X141450000Y-97238356D01*
X141433307Y-97240000D01*
X125596693Y-97240000D01*
X125580000Y-97238356D01*
X125563307Y-97240000D01*
X125563299Y-97240000D01*
X125513348Y-97244920D01*
X125449258Y-97264361D01*
X125390192Y-97295933D01*
X125338421Y-97338421D01*
X125327775Y-97351393D01*
X122481394Y-100197775D01*
X122468422Y-100208421D01*
X122457776Y-100221393D01*
X122457775Y-100221394D01*
X122425933Y-100260193D01*
X122394361Y-100319259D01*
X122374920Y-100383349D01*
X122368356Y-100450000D01*
X122370001Y-100466703D01*
X122370000Y-101197378D01*
X122317772Y-101213221D01*
X122145091Y-101305521D01*
X121993735Y-101429735D01*
X121869521Y-101581091D01*
X121777221Y-101753773D01*
X121720383Y-101941143D01*
X121706000Y-102087175D01*
X121706001Y-103692826D01*
X121720384Y-103838858D01*
X121777222Y-104026228D01*
X121869522Y-104198909D01*
X121993736Y-104350265D01*
X122145092Y-104474479D01*
X122317773Y-104566779D01*
X122505143Y-104623617D01*
X122700000Y-104642809D01*
X122894858Y-104623617D01*
X123082228Y-104566779D01*
X123254909Y-104474479D01*
X123406265Y-104350265D01*
X123530479Y-104198909D01*
X123622779Y-104026228D01*
X123679617Y-103838858D01*
X123694000Y-103692826D01*
X123694000Y-102087174D01*
X123679617Y-101941142D01*
X123622779Y-101753772D01*
X123530479Y-101581091D01*
X123406265Y-101429735D01*
X123254909Y-101305521D01*
X123082227Y-101213221D01*
X123050000Y-101203445D01*
X123050000Y-100590831D01*
X125720832Y-97920000D01*
X141309169Y-97920000D01*
X143933935Y-100544768D01*
X143933936Y-108105232D01*
X143156423Y-108882746D01*
X143143450Y-108893393D01*
X143100962Y-108945164D01*
X143069390Y-109004230D01*
X143049949Y-109068320D01*
X143045029Y-109118271D01*
X143045029Y-109118278D01*
X143043385Y-109134971D01*
X143045029Y-109151664D01*
X143045030Y-110305381D01*
X143043385Y-110322084D01*
X143049949Y-110388735D01*
X143069390Y-110452825D01*
X143085209Y-110482419D01*
X143100963Y-110511892D01*
X143143451Y-110563663D01*
X143156423Y-110574309D01*
X144790724Y-112208612D01*
X144801366Y-112221579D01*
X144814332Y-112232220D01*
X144814337Y-112232225D01*
X144853137Y-112264067D01*
X144912203Y-112295639D01*
X144976293Y-112315080D01*
X145026244Y-112320000D01*
X145026251Y-112320000D01*
X145042944Y-112321644D01*
X145059637Y-112320000D01*
X152934689Y-112320000D01*
X153070196Y-112326001D01*
X153171350Y-112341004D01*
X153252043Y-112362630D01*
X153288839Y-112376997D01*
X153288839Y-112680000D01*
X153296355Y-112756312D01*
X153318614Y-112829691D01*
X153354762Y-112897317D01*
X153373377Y-112920000D01*
X152040832Y-112920000D01*
X151752229Y-112631398D01*
X151741579Y-112618421D01*
X151689808Y-112575933D01*
X151630742Y-112544361D01*
X151566652Y-112524920D01*
X151516701Y-112520000D01*
X151516693Y-112520000D01*
X151500000Y-112518356D01*
X151483307Y-112520000D01*
X142660832Y-112520000D01*
X142300000Y-112159169D01*
X142300000Y-107426815D01*
X142580000Y-107426815D01*
X142580000Y-107533185D01*
X142600752Y-107637512D01*
X142641458Y-107735786D01*
X142700554Y-107824230D01*
X142775770Y-107899446D01*
X142864214Y-107958542D01*
X142962488Y-107999248D01*
X143066815Y-108020000D01*
X143173185Y-108020000D01*
X143277512Y-107999248D01*
X143375786Y-107958542D01*
X143464230Y-107899446D01*
X143539446Y-107824230D01*
X143598542Y-107735786D01*
X143639248Y-107637512D01*
X143660000Y-107533185D01*
X143660000Y-107426815D01*
X143639248Y-107322488D01*
X143598542Y-107224214D01*
X143590513Y-107212198D01*
X143585221Y-107201053D01*
X143580340Y-107191348D01*
X143555567Y-107144745D01*
X143552488Y-107139135D01*
X143529388Y-107098342D01*
X143510074Y-107064060D01*
X143496830Y-107038306D01*
X143488045Y-107017661D01*
X143481526Y-106997047D01*
X143476015Y-106970401D01*
X143471816Y-106932437D01*
X143470000Y-106876137D01*
X143470000Y-104794125D01*
X143471827Y-104740890D01*
X143475911Y-104706253D01*
X143481085Y-104682843D01*
X143487053Y-104665237D01*
X143495313Y-104647197D01*
X143508386Y-104623660D01*
X143527888Y-104591719D01*
X143551879Y-104552736D01*
X143555196Y-104547180D01*
X143580907Y-104502763D01*
X143586318Y-104492888D01*
X143595157Y-104475817D01*
X143608542Y-104455786D01*
X143649248Y-104357512D01*
X143670000Y-104253185D01*
X143670000Y-104146815D01*
X143649248Y-104042488D01*
X143608542Y-103944214D01*
X143549446Y-103855770D01*
X143474230Y-103780554D01*
X143385786Y-103721458D01*
X143287512Y-103680752D01*
X143183185Y-103660000D01*
X143076815Y-103660000D01*
X142972488Y-103680752D01*
X142874214Y-103721458D01*
X142785770Y-103780554D01*
X142710554Y-103855770D01*
X142651458Y-103944214D01*
X142610752Y-104042488D01*
X142590000Y-104146815D01*
X142590000Y-104253185D01*
X142610752Y-104357512D01*
X142651458Y-104455786D01*
X142664842Y-104475817D01*
X142673680Y-104492885D01*
X142679092Y-104502763D01*
X142704803Y-104547180D01*
X142708120Y-104552736D01*
X142732111Y-104591719D01*
X142751613Y-104623660D01*
X142764686Y-104647197D01*
X142772946Y-104665237D01*
X142778914Y-104682843D01*
X142784088Y-104706253D01*
X142788172Y-104740891D01*
X142790000Y-104794136D01*
X142790001Y-106875932D01*
X142788185Y-106929828D01*
X142784094Y-106965057D01*
X142778909Y-106988739D01*
X142773015Y-107006170D01*
X142764975Y-107023622D01*
X142752226Y-107046186D01*
X142732875Y-107076951D01*
X142708325Y-107115131D01*
X142705664Y-107119365D01*
X142678581Y-107163478D01*
X142673527Y-107172108D01*
X142659620Y-107197032D01*
X142641458Y-107224214D01*
X142600752Y-107322488D01*
X142580000Y-107426815D01*
X142300000Y-107426815D01*
X142300000Y-100236692D01*
X142301644Y-100219999D01*
X142300000Y-100203306D01*
X142300000Y-100203299D01*
X142295080Y-100153348D01*
X142275639Y-100089258D01*
X142244067Y-100030192D01*
X142243750Y-100029806D01*
X142212225Y-99991393D01*
X142212221Y-99991389D01*
X142201578Y-99978421D01*
X142188611Y-99967779D01*
X140662230Y-98441399D01*
X140651579Y-98428421D01*
X140599808Y-98385933D01*
X140540742Y-98354361D01*
X140476652Y-98334920D01*
X140426701Y-98330000D01*
X140426693Y-98330000D01*
X140410000Y-98328356D01*
X140393307Y-98330000D01*
X130696692Y-98330000D01*
X130679999Y-98328356D01*
X130663306Y-98330000D01*
X130663299Y-98330000D01*
X130613348Y-98334920D01*
X130549258Y-98354361D01*
X130490192Y-98385933D01*
X130451392Y-98417775D01*
X130451387Y-98417780D01*
X130438421Y-98428421D01*
X130427779Y-98441388D01*
X128001394Y-100867775D01*
X127988422Y-100878421D01*
X127977776Y-100891393D01*
X127977775Y-100891394D01*
X127945933Y-100930193D01*
X127914361Y-100989259D01*
X127894920Y-101053349D01*
X127888356Y-101120000D01*
X127890001Y-101136703D01*
X127890001Y-101191311D01*
X127817772Y-101213221D01*
X127645091Y-101305521D01*
X127493735Y-101429735D01*
X127394000Y-101551263D01*
X127394000Y-100087174D01*
X127379617Y-99941142D01*
X127322779Y-99753772D01*
X127230479Y-99581091D01*
X127106265Y-99429735D01*
X126954909Y-99305521D01*
X126782227Y-99213221D01*
X126594857Y-99156383D01*
X126400000Y-99137191D01*
X126205142Y-99156383D01*
X126017772Y-99213221D01*
X125845091Y-99305521D01*
X125693735Y-99429735D01*
X125569521Y-99581091D01*
X125477221Y-99753773D01*
X125420383Y-99941143D01*
X125406000Y-100087175D01*
X125406001Y-101692826D01*
X125420384Y-101838858D01*
X125477222Y-102026228D01*
X125569522Y-102198909D01*
X125693736Y-102350265D01*
X125845092Y-102474479D01*
X126017773Y-102566779D01*
X126205143Y-102623617D01*
X126400000Y-102642809D01*
X126594858Y-102623617D01*
X126782228Y-102566779D01*
X126954909Y-102474479D01*
X127106265Y-102350265D01*
X127206000Y-102228737D01*
X127206001Y-103692826D01*
X127220384Y-103838858D01*
X127277222Y-104026228D01*
X127369522Y-104198909D01*
X127493736Y-104350265D01*
X127645092Y-104474479D01*
X127817773Y-104566779D01*
X128005143Y-104623617D01*
X128200000Y-104642809D01*
X128394858Y-104623617D01*
X128582228Y-104566779D01*
X128754909Y-104474479D01*
X128906265Y-104350265D01*
X129030479Y-104198909D01*
X129122779Y-104026228D01*
X129179617Y-103838858D01*
X129194000Y-103692826D01*
X129194000Y-102087174D01*
X129179617Y-101941142D01*
X129122779Y-101753772D01*
X129030479Y-101581091D01*
X128906265Y-101429735D01*
X128754909Y-101305521D01*
X128605285Y-101225546D01*
X129743657Y-100087175D01*
X130906000Y-100087175D01*
X130906001Y-101692826D01*
X130920384Y-101838858D01*
X130977222Y-102026228D01*
X131069522Y-102198909D01*
X131193736Y-102350265D01*
X131345092Y-102474479D01*
X131517773Y-102566779D01*
X131705143Y-102623617D01*
X131900000Y-102642809D01*
X132094858Y-102623617D01*
X132282228Y-102566779D01*
X132454909Y-102474479D01*
X132606265Y-102350265D01*
X132730479Y-102198909D01*
X132822779Y-102026228D01*
X132879617Y-101838858D01*
X132894000Y-101692826D01*
X132894000Y-100087174D01*
X132879617Y-99941142D01*
X132822779Y-99753772D01*
X132730479Y-99581091D01*
X132606265Y-99429735D01*
X132454909Y-99305521D01*
X132282227Y-99213221D01*
X132094857Y-99156383D01*
X131900000Y-99137191D01*
X131705142Y-99156383D01*
X131517772Y-99213221D01*
X131345091Y-99305521D01*
X131193735Y-99429735D01*
X131069521Y-99581091D01*
X130977221Y-99753773D01*
X130920383Y-99941143D01*
X130906000Y-100087175D01*
X129743657Y-100087175D01*
X130820833Y-99010000D01*
X140269169Y-99010000D01*
X141620000Y-100360832D01*
X141620001Y-112283297D01*
X141618356Y-112300000D01*
X141624920Y-112366651D01*
X141644361Y-112430741D01*
X141675933Y-112489807D01*
X141700712Y-112520000D01*
X141718422Y-112541579D01*
X141731394Y-112552225D01*
X142267774Y-113088606D01*
X142278421Y-113101579D01*
X142330192Y-113144067D01*
X142389258Y-113175639D01*
X142453348Y-113195080D01*
X142503299Y-113200000D01*
X142503307Y-113200000D01*
X142520000Y-113201644D01*
X142536693Y-113200000D01*
X151359168Y-113200000D01*
X151529168Y-113370000D01*
X135540833Y-113370000D01*
X134920641Y-112749809D01*
X134890000Y-112710935D01*
X134890000Y-112530913D01*
X134927591Y-112485882D01*
X135027989Y-112387496D01*
X135147857Y-112275064D01*
X135154480Y-112268608D01*
X135276401Y-112145081D01*
X135291646Y-112128090D01*
X135349917Y-112056575D01*
X135381658Y-112024834D01*
X135500945Y-111846309D01*
X135583112Y-111647941D01*
X135625000Y-111437356D01*
X135625000Y-111222644D01*
X135735000Y-111222644D01*
X135735000Y-111437356D01*
X135776888Y-111647941D01*
X135859055Y-111846309D01*
X135978342Y-112024834D01*
X136130166Y-112176658D01*
X136308691Y-112295945D01*
X136507059Y-112378112D01*
X136717644Y-112420000D01*
X136932356Y-112420000D01*
X137142941Y-112378112D01*
X137341309Y-112295945D01*
X137519834Y-112176658D01*
X137671658Y-112024834D01*
X137790945Y-111846309D01*
X137873112Y-111647941D01*
X137915000Y-111437356D01*
X137915000Y-111222644D01*
X138025000Y-111222644D01*
X138025000Y-111437356D01*
X138066888Y-111647941D01*
X138149055Y-111846309D01*
X138268342Y-112024834D01*
X138420166Y-112176658D01*
X138598691Y-112295945D01*
X138797059Y-112378112D01*
X139007644Y-112420000D01*
X139222356Y-112420000D01*
X139432941Y-112378112D01*
X139631309Y-112295945D01*
X139809834Y-112176658D01*
X139961658Y-112024834D01*
X140080945Y-111846309D01*
X140163112Y-111647941D01*
X140177618Y-111575015D01*
X140196698Y-111509614D01*
X140202556Y-111484642D01*
X140229984Y-111331250D01*
X140232707Y-111311149D01*
X140245691Y-111171023D01*
X140246434Y-111160480D01*
X140252676Y-111031478D01*
X140259470Y-110917560D01*
X140272481Y-110820504D01*
X140296215Y-110732449D01*
X140337327Y-110641851D01*
X140406625Y-110538074D01*
X140520299Y-110410533D01*
X140888617Y-110042216D01*
X140901578Y-110031579D01*
X140912216Y-110018617D01*
X140912225Y-110018608D01*
X140944067Y-109979808D01*
X140947338Y-109973688D01*
X140975639Y-109920742D01*
X140995080Y-109856652D01*
X141000000Y-109806701D01*
X141000000Y-109806684D01*
X141001643Y-109790001D01*
X141000000Y-109773318D01*
X141000000Y-105156692D01*
X141001644Y-105139999D01*
X141000000Y-105123306D01*
X141000000Y-105123299D01*
X140995080Y-105073348D01*
X140975639Y-105009258D01*
X140944067Y-104950192D01*
X140927178Y-104929613D01*
X140912225Y-104911392D01*
X140912220Y-104911387D01*
X140901579Y-104898421D01*
X140888612Y-104887779D01*
X140020000Y-104019169D01*
X140020000Y-100424125D01*
X140021827Y-100370890D01*
X140025911Y-100336253D01*
X140031085Y-100312843D01*
X140037053Y-100295237D01*
X140045313Y-100277197D01*
X140058386Y-100253660D01*
X140077888Y-100221719D01*
X140101879Y-100182736D01*
X140105196Y-100177180D01*
X140130907Y-100132763D01*
X140136318Y-100122888D01*
X140145157Y-100105817D01*
X140158542Y-100085786D01*
X140199248Y-99987512D01*
X140220000Y-99883185D01*
X140220000Y-99776815D01*
X140199248Y-99672488D01*
X140158542Y-99574214D01*
X140099446Y-99485770D01*
X140024230Y-99410554D01*
X139935786Y-99351458D01*
X139837512Y-99310752D01*
X139733185Y-99290000D01*
X139626815Y-99290000D01*
X139522488Y-99310752D01*
X139424214Y-99351458D01*
X139335770Y-99410554D01*
X139260554Y-99485770D01*
X139201458Y-99574214D01*
X139160752Y-99672488D01*
X139140000Y-99776815D01*
X139140000Y-99883185D01*
X139160752Y-99987512D01*
X139201458Y-100085786D01*
X139214842Y-100105817D01*
X139223680Y-100122885D01*
X139229092Y-100132763D01*
X139254803Y-100177180D01*
X139258120Y-100182736D01*
X139282111Y-100221719D01*
X139301613Y-100253660D01*
X139314686Y-100277197D01*
X139322946Y-100295237D01*
X139328914Y-100312843D01*
X139334088Y-100336253D01*
X139338172Y-100370891D01*
X139340001Y-100424156D01*
X139340000Y-104143307D01*
X139338356Y-104160000D01*
X139340000Y-104176693D01*
X139340000Y-104176700D01*
X139344920Y-104226651D01*
X139364361Y-104290741D01*
X139395933Y-104349807D01*
X139438421Y-104401578D01*
X139451394Y-104412225D01*
X140320001Y-105280834D01*
X140320000Y-109649167D01*
X140039482Y-109929685D01*
X139912425Y-110042899D01*
X139809185Y-110111751D01*
X139719157Y-110152451D01*
X139631695Y-110175786D01*
X139535203Y-110188349D01*
X139421785Y-110194543D01*
X139293051Y-110199974D01*
X139282771Y-110200629D01*
X139142748Y-110212572D01*
X139122850Y-110215111D01*
X138969513Y-110241226D01*
X138944629Y-110246839D01*
X138876230Y-110266140D01*
X138797059Y-110281888D01*
X138598691Y-110364055D01*
X138420166Y-110483342D01*
X138268342Y-110635166D01*
X138149055Y-110813691D01*
X138066888Y-111012059D01*
X138025000Y-111222644D01*
X137915000Y-111222644D01*
X137873112Y-111012059D01*
X137790945Y-110813691D01*
X137671658Y-110635166D01*
X137519834Y-110483342D01*
X137341309Y-110364055D01*
X137142941Y-110281888D01*
X136937273Y-110240978D01*
X137319438Y-110240978D01*
X137417791Y-110399273D01*
X137633104Y-110486842D01*
X137861364Y-110530723D01*
X138093799Y-110529229D01*
X138321476Y-110482419D01*
X138522209Y-110399273D01*
X138620562Y-110240978D01*
X137970000Y-109590416D01*
X137319438Y-110240978D01*
X136937273Y-110240978D01*
X136932356Y-110240000D01*
X136717644Y-110240000D01*
X136507059Y-110281888D01*
X136308691Y-110364055D01*
X136130166Y-110483342D01*
X135978342Y-110635166D01*
X135859055Y-110813691D01*
X135776888Y-111012059D01*
X135735000Y-111222644D01*
X135625000Y-111222644D01*
X135583112Y-111012059D01*
X135500945Y-110813691D01*
X135381658Y-110635166D01*
X135229834Y-110483342D01*
X135051309Y-110364055D01*
X134852941Y-110281888D01*
X134642356Y-110240000D01*
X134427644Y-110240000D01*
X134217059Y-110281888D01*
X134018691Y-110364055D01*
X133840166Y-110483342D01*
X133688342Y-110635166D01*
X133569055Y-110813691D01*
X133486888Y-111012059D01*
X133445000Y-111222644D01*
X133445000Y-111437356D01*
X133486888Y-111647941D01*
X133569055Y-111846309D01*
X133688342Y-112024834D01*
X133759438Y-112095930D01*
X133850286Y-112197740D01*
X133909660Y-112283954D01*
X133952333Y-112366122D01*
X133986954Y-112452613D01*
X134020156Y-112549330D01*
X134020853Y-112551332D01*
X134057571Y-112655292D01*
X134063105Y-112669504D01*
X134109043Y-112777232D01*
X134119735Y-112799148D01*
X134182549Y-112912848D01*
X134197548Y-112936598D01*
X134232901Y-112985927D01*
X134234361Y-112990741D01*
X134265933Y-113049807D01*
X134294050Y-113084067D01*
X134308422Y-113101579D01*
X134321394Y-113112225D01*
X135147779Y-113938612D01*
X135158421Y-113951579D01*
X135171387Y-113962220D01*
X135171393Y-113962226D01*
X135192653Y-113979673D01*
X135210192Y-113994067D01*
X135269258Y-114025639D01*
X135333348Y-114045080D01*
X135383299Y-114050000D01*
X135383307Y-114050000D01*
X135400000Y-114051644D01*
X135416693Y-114050000D01*
X156533307Y-114050000D01*
X156550000Y-114051644D01*
X156566693Y-114050000D01*
X156566701Y-114050000D01*
X156616652Y-114045080D01*
X156680742Y-114025639D01*
X156739808Y-113994067D01*
X156791579Y-113951579D01*
X156802230Y-113938601D01*
X158108611Y-112632221D01*
X158121578Y-112621579D01*
X158132221Y-112608611D01*
X158132225Y-112608607D01*
X158164067Y-112569808D01*
X158195639Y-112510742D01*
X158215080Y-112446652D01*
X158217705Y-112420000D01*
X158220000Y-112396701D01*
X158220000Y-112396694D01*
X158221644Y-112380001D01*
X158220000Y-112363308D01*
X158220000Y-111459607D01*
X158223957Y-111410239D01*
X158228551Y-111394141D01*
X158229295Y-111392840D01*
X158229299Y-111392836D01*
X158238355Y-111387042D01*
X158263502Y-111376550D01*
X158305746Y-111364572D01*
X158363030Y-111352748D01*
X158431399Y-111341161D01*
X158540001Y-111341161D01*
X158540001Y-112299877D01*
X156709879Y-114130000D01*
X119390000Y-114130000D01*
X119390000Y-111086386D01*
X120544030Y-111086386D01*
X120785457Y-111365952D01*
X121202856Y-111571965D01*
X121652425Y-111692590D01*
X122116889Y-111723190D01*
X122578397Y-111662589D01*
X123019216Y-111513117D01*
X123294543Y-111365952D01*
X123535970Y-111086386D01*
X122040000Y-109590416D01*
X120544030Y-111086386D01*
X119390000Y-111086386D01*
X119390000Y-109426889D01*
X119666810Y-109426889D01*
X119727411Y-109888397D01*
X119876883Y-110329216D01*
X120024048Y-110604543D01*
X120303614Y-110845970D01*
X121799584Y-109350000D01*
X122280416Y-109350000D01*
X123776386Y-110845970D01*
X124055952Y-110604543D01*
X124261965Y-110187144D01*
X124382590Y-109737575D01*
X124413190Y-109273111D01*
X124352589Y-108811603D01*
X124203117Y-108370784D01*
X124055952Y-108095457D01*
X123776386Y-107854030D01*
X122280416Y-109350000D01*
X121799584Y-109350000D01*
X120303614Y-107854030D01*
X120024048Y-108095457D01*
X119818035Y-108512856D01*
X119697410Y-108962425D01*
X119666810Y-109426889D01*
X119390000Y-109426889D01*
X119390000Y-107613614D01*
X120544030Y-107613614D01*
X122040000Y-109109584D01*
X123535970Y-107613614D01*
X123294543Y-107334048D01*
X122877144Y-107128035D01*
X122427575Y-107007410D01*
X121963111Y-106976810D01*
X121501603Y-107037411D01*
X121060784Y-107186883D01*
X120785457Y-107334048D01*
X120544030Y-107613614D01*
X119390000Y-107613614D01*
X119390000Y-106520000D01*
X125728356Y-106520000D01*
X125730001Y-106536703D01*
X125730000Y-112333307D01*
X125728356Y-112350000D01*
X125730000Y-112366693D01*
X125730000Y-112366700D01*
X125734920Y-112416651D01*
X125754361Y-112480741D01*
X125785933Y-112539807D01*
X125828421Y-112591578D01*
X125841394Y-112602225D01*
X126817779Y-113578612D01*
X126828421Y-113591579D01*
X126841387Y-113602220D01*
X126841393Y-113602226D01*
X126862653Y-113619673D01*
X126880192Y-113634067D01*
X126939258Y-113665639D01*
X127003348Y-113685080D01*
X127053299Y-113690000D01*
X127053307Y-113690000D01*
X127070000Y-113691644D01*
X127086693Y-113690000D01*
X131563307Y-113690000D01*
X131580000Y-113691644D01*
X131596693Y-113690000D01*
X131596701Y-113690000D01*
X131646652Y-113685080D01*
X131710742Y-113665639D01*
X131769808Y-113634067D01*
X131821579Y-113591579D01*
X131832229Y-113578602D01*
X132468607Y-112942225D01*
X132481579Y-112931579D01*
X132524067Y-112879808D01*
X132555639Y-112820742D01*
X132573269Y-112762621D01*
X132631613Y-112665532D01*
X132636656Y-112656725D01*
X132688784Y-112561035D01*
X132689463Y-112559778D01*
X132738105Y-112469208D01*
X132787715Y-112383823D01*
X132845178Y-112298105D01*
X132918473Y-112205551D01*
X133018813Y-112097679D01*
X133091658Y-112024834D01*
X133210945Y-111846309D01*
X133293112Y-111647941D01*
X133335000Y-111437356D01*
X133335000Y-111222644D01*
X133293112Y-111012059D01*
X133210945Y-110813691D01*
X133091658Y-110635166D01*
X132939834Y-110483342D01*
X132761309Y-110364055D01*
X132562941Y-110281888D01*
X132357273Y-110240978D01*
X132739438Y-110240978D01*
X132837791Y-110399273D01*
X133053104Y-110486842D01*
X133281364Y-110530723D01*
X133513799Y-110529229D01*
X133741476Y-110482419D01*
X133942209Y-110399273D01*
X134040562Y-110240978D01*
X133390000Y-109590416D01*
X132739438Y-110240978D01*
X132357273Y-110240978D01*
X132352356Y-110240000D01*
X132137644Y-110240000D01*
X131927059Y-110281888D01*
X131728691Y-110364055D01*
X131550166Y-110483342D01*
X131398342Y-110635166D01*
X131279055Y-110813691D01*
X131196888Y-111012059D01*
X131155000Y-111222644D01*
X131155000Y-111437356D01*
X131196888Y-111647941D01*
X131279055Y-111846309D01*
X131343983Y-111943480D01*
X131352703Y-111958503D01*
X131369713Y-111983925D01*
X131379878Y-111997201D01*
X131398342Y-112024834D01*
X131409839Y-112036331D01*
X131468032Y-112112333D01*
X131479554Y-112126261D01*
X131584687Y-112244024D01*
X131588377Y-112248063D01*
X131688282Y-112354963D01*
X131768062Y-112446777D01*
X131816293Y-112516999D01*
X131832420Y-112557524D01*
X131832974Y-112576329D01*
X131819065Y-112612747D01*
X131749755Y-112699414D01*
X131439169Y-113010000D01*
X127210833Y-113010000D01*
X126410000Y-112209169D01*
X126410000Y-111222644D01*
X128865000Y-111222644D01*
X128865000Y-111437356D01*
X128906888Y-111647941D01*
X128989055Y-111846309D01*
X129108342Y-112024834D01*
X129260166Y-112176658D01*
X129438691Y-112295945D01*
X129637059Y-112378112D01*
X129847644Y-112420000D01*
X130062356Y-112420000D01*
X130272941Y-112378112D01*
X130471309Y-112295945D01*
X130649834Y-112176658D01*
X130801658Y-112024834D01*
X130920945Y-111846309D01*
X131003112Y-111647941D01*
X131045000Y-111437356D01*
X131045000Y-111222644D01*
X131003112Y-111012059D01*
X130920945Y-110813691D01*
X130801658Y-110635166D01*
X130649834Y-110483342D01*
X130471309Y-110364055D01*
X130272941Y-110281888D01*
X130067273Y-110240978D01*
X130449438Y-110240978D01*
X130547791Y-110399273D01*
X130763104Y-110486842D01*
X130991364Y-110530723D01*
X131223799Y-110529229D01*
X131451476Y-110482419D01*
X131652209Y-110399273D01*
X131750562Y-110240978D01*
X131100000Y-109590416D01*
X130449438Y-110240978D01*
X130067273Y-110240978D01*
X130062356Y-110240000D01*
X129847644Y-110240000D01*
X129637059Y-110281888D01*
X129438691Y-110364055D01*
X129260166Y-110483342D01*
X129108342Y-110635166D01*
X128989055Y-110813691D01*
X128906888Y-111012059D01*
X128865000Y-111222644D01*
X126410000Y-111222644D01*
X126410000Y-110240978D01*
X128159438Y-110240978D01*
X128257791Y-110399273D01*
X128473104Y-110486842D01*
X128701364Y-110530723D01*
X128933799Y-110529229D01*
X129161476Y-110482419D01*
X129362209Y-110399273D01*
X129460562Y-110240978D01*
X128810000Y-109590416D01*
X128159438Y-110240978D01*
X126410000Y-110240978D01*
X126410000Y-109241364D01*
X127629277Y-109241364D01*
X127630771Y-109473799D01*
X127677581Y-109701476D01*
X127760727Y-109902209D01*
X127919022Y-110000562D01*
X128569584Y-109350000D01*
X129050416Y-109350000D01*
X129700978Y-110000562D01*
X129859273Y-109902209D01*
X129946842Y-109686896D01*
X129955415Y-109642302D01*
X129967581Y-109701476D01*
X130050727Y-109902209D01*
X130209022Y-110000562D01*
X130859584Y-109350000D01*
X131340416Y-109350000D01*
X131990978Y-110000562D01*
X132149273Y-109902209D01*
X132236842Y-109686896D01*
X132245415Y-109642302D01*
X132257581Y-109701476D01*
X132340727Y-109902209D01*
X132499022Y-110000562D01*
X133149584Y-109350000D01*
X133630416Y-109350000D01*
X134280978Y-110000562D01*
X134439273Y-109902209D01*
X134526842Y-109686896D01*
X134570723Y-109458636D01*
X134569335Y-109242644D01*
X134590000Y-109242644D01*
X134590000Y-109457356D01*
X134631888Y-109667941D01*
X134714055Y-109866309D01*
X134833342Y-110044834D01*
X134985166Y-110196658D01*
X135163691Y-110315945D01*
X135362059Y-110398112D01*
X135572644Y-110440000D01*
X135787356Y-110440000D01*
X135997941Y-110398112D01*
X136196309Y-110315945D01*
X136374834Y-110196658D01*
X136526658Y-110044834D01*
X136645945Y-109866309D01*
X136728112Y-109667941D01*
X136770000Y-109457356D01*
X136770000Y-109242644D01*
X136769746Y-109241364D01*
X136789277Y-109241364D01*
X136790771Y-109473799D01*
X136837581Y-109701476D01*
X136920727Y-109902209D01*
X137079022Y-110000562D01*
X137729584Y-109350000D01*
X137079022Y-108699438D01*
X136920727Y-108797791D01*
X136833158Y-109013104D01*
X136789277Y-109241364D01*
X136769746Y-109241364D01*
X136728112Y-109032059D01*
X136645945Y-108833691D01*
X136526658Y-108655166D01*
X136374834Y-108503342D01*
X136196309Y-108384055D01*
X135997941Y-108301888D01*
X135787356Y-108260000D01*
X135572644Y-108260000D01*
X135362059Y-108301888D01*
X135163691Y-108384055D01*
X134985166Y-108503342D01*
X134833342Y-108655166D01*
X134714055Y-108833691D01*
X134631888Y-109032059D01*
X134590000Y-109242644D01*
X134569335Y-109242644D01*
X134569229Y-109226201D01*
X134522419Y-108998524D01*
X134439273Y-108797791D01*
X134280978Y-108699438D01*
X133630416Y-109350000D01*
X133149584Y-109350000D01*
X132499022Y-108699438D01*
X132340727Y-108797791D01*
X132253158Y-109013104D01*
X132244585Y-109057698D01*
X132232419Y-108998524D01*
X132149273Y-108797791D01*
X131990978Y-108699438D01*
X131340416Y-109350000D01*
X130859584Y-109350000D01*
X130209022Y-108699438D01*
X130050727Y-108797791D01*
X129963158Y-109013104D01*
X129954585Y-109057698D01*
X129942419Y-108998524D01*
X129859273Y-108797791D01*
X129700978Y-108699438D01*
X129050416Y-109350000D01*
X128569584Y-109350000D01*
X127919022Y-108699438D01*
X127760727Y-108797791D01*
X127673158Y-109013104D01*
X127629277Y-109241364D01*
X126410000Y-109241364D01*
X126410000Y-108459022D01*
X128159438Y-108459022D01*
X128810000Y-109109584D01*
X129458423Y-108461161D01*
X130451577Y-108461161D01*
X131100000Y-109109584D01*
X131750562Y-108459022D01*
X131652209Y-108300727D01*
X131436896Y-108213158D01*
X131208636Y-108169277D01*
X131046161Y-108170321D01*
X131046161Y-107262644D01*
X131155000Y-107262644D01*
X131155000Y-107477356D01*
X131196888Y-107687941D01*
X131279055Y-107886309D01*
X131398342Y-108064834D01*
X131550166Y-108216658D01*
X131728691Y-108335945D01*
X131927059Y-108418112D01*
X132137644Y-108460000D01*
X132352356Y-108460000D01*
X132357272Y-108459022D01*
X132739438Y-108459022D01*
X133390000Y-109109584D01*
X134040562Y-108459022D01*
X133942209Y-108300727D01*
X133726896Y-108213158D01*
X133498636Y-108169277D01*
X133266201Y-108170771D01*
X133038524Y-108217581D01*
X132837791Y-108300727D01*
X132739438Y-108459022D01*
X132357272Y-108459022D01*
X132562941Y-108418112D01*
X132761309Y-108335945D01*
X132939834Y-108216658D01*
X133091658Y-108064834D01*
X133210945Y-107886309D01*
X133293112Y-107687941D01*
X133335000Y-107477356D01*
X133335000Y-107262644D01*
X133445000Y-107262644D01*
X133445000Y-107477356D01*
X133486888Y-107687941D01*
X133569055Y-107886309D01*
X133688342Y-108064834D01*
X133840166Y-108216658D01*
X134018691Y-108335945D01*
X134217059Y-108418112D01*
X134427644Y-108460000D01*
X134642356Y-108460000D01*
X134852941Y-108418112D01*
X135051309Y-108335945D01*
X135229834Y-108216658D01*
X135381658Y-108064834D01*
X135500945Y-107886309D01*
X135583112Y-107687941D01*
X135625000Y-107477356D01*
X135625000Y-107262644D01*
X135735000Y-107262644D01*
X135735000Y-107477356D01*
X135776888Y-107687941D01*
X135859055Y-107886309D01*
X135978342Y-108064834D01*
X136130166Y-108216658D01*
X136308691Y-108335945D01*
X136507059Y-108418112D01*
X136717644Y-108460000D01*
X136932356Y-108460000D01*
X136937272Y-108459022D01*
X137319438Y-108459022D01*
X137970000Y-109109584D01*
X137984143Y-109095442D01*
X138224559Y-109335858D01*
X138210416Y-109350000D01*
X138860978Y-110000562D01*
X139019273Y-109902209D01*
X139106842Y-109686896D01*
X139150723Y-109458636D01*
X139149229Y-109226201D01*
X139102419Y-108998524D01*
X139019273Y-108797791D01*
X138860980Y-108699439D01*
X138928359Y-108632060D01*
X138809100Y-108512801D01*
X139006364Y-108550723D01*
X139238799Y-108549229D01*
X139466476Y-108502419D01*
X139667209Y-108419273D01*
X139765562Y-108260978D01*
X139115000Y-107610416D01*
X139100858Y-107624559D01*
X138860442Y-107384143D01*
X138874584Y-107370000D01*
X139355416Y-107370000D01*
X140005978Y-108020562D01*
X140164273Y-107922209D01*
X140251842Y-107706896D01*
X140295723Y-107478636D01*
X140294229Y-107246201D01*
X140247419Y-107018524D01*
X140164273Y-106817791D01*
X140005978Y-106719438D01*
X139355416Y-107370000D01*
X138874584Y-107370000D01*
X138224022Y-106719438D01*
X138065727Y-106817791D01*
X137978158Y-107033104D01*
X137934277Y-107261364D01*
X137935771Y-107493799D01*
X137982581Y-107721476D01*
X138065727Y-107922209D01*
X138224020Y-108020561D01*
X138156641Y-108087940D01*
X138275900Y-108207199D01*
X138078636Y-108169277D01*
X137846201Y-108170771D01*
X137618524Y-108217581D01*
X137417791Y-108300727D01*
X137319438Y-108459022D01*
X136937272Y-108459022D01*
X137142941Y-108418112D01*
X137341309Y-108335945D01*
X137519834Y-108216658D01*
X137671658Y-108064834D01*
X137790945Y-107886309D01*
X137873112Y-107687941D01*
X137915000Y-107477356D01*
X137915000Y-107262644D01*
X137873112Y-107052059D01*
X137790945Y-106853691D01*
X137671658Y-106675166D01*
X137519834Y-106523342D01*
X137453505Y-106479022D01*
X138464438Y-106479022D01*
X139115000Y-107129584D01*
X139765562Y-106479022D01*
X139667209Y-106320727D01*
X139451896Y-106233158D01*
X139223636Y-106189277D01*
X138991201Y-106190771D01*
X138763524Y-106237581D01*
X138562791Y-106320727D01*
X138464438Y-106479022D01*
X137453505Y-106479022D01*
X137341309Y-106404055D01*
X137142941Y-106321888D01*
X136932356Y-106280000D01*
X136717644Y-106280000D01*
X136507059Y-106321888D01*
X136308691Y-106404055D01*
X136130166Y-106523342D01*
X135978342Y-106675166D01*
X135859055Y-106853691D01*
X135776888Y-107052059D01*
X135735000Y-107262644D01*
X135625000Y-107262644D01*
X135583112Y-107052059D01*
X135500945Y-106853691D01*
X135381658Y-106675166D01*
X135229834Y-106523342D01*
X135051309Y-106404055D01*
X134852941Y-106321888D01*
X134642356Y-106280000D01*
X134427644Y-106280000D01*
X134217059Y-106321888D01*
X134018691Y-106404055D01*
X133840166Y-106523342D01*
X133688342Y-106675166D01*
X133569055Y-106853691D01*
X133486888Y-107052059D01*
X133445000Y-107262644D01*
X133335000Y-107262644D01*
X133293112Y-107052059D01*
X133210945Y-106853691D01*
X133091658Y-106675166D01*
X132939834Y-106523342D01*
X132761309Y-106404055D01*
X132562941Y-106321888D01*
X132352356Y-106280000D01*
X132137644Y-106280000D01*
X131927059Y-106321888D01*
X131728691Y-106404055D01*
X131550166Y-106523342D01*
X131398342Y-106675166D01*
X131279055Y-106853691D01*
X131196888Y-107052059D01*
X131155000Y-107262644D01*
X131046161Y-107262644D01*
X131046161Y-106520000D01*
X131041527Y-106472952D01*
X131027804Y-106427712D01*
X131005518Y-106386018D01*
X130975527Y-106349473D01*
X130938982Y-106319482D01*
X130897288Y-106297196D01*
X130852048Y-106283473D01*
X130805000Y-106278839D01*
X129105000Y-106278839D01*
X129057952Y-106283473D01*
X129012712Y-106297196D01*
X128971018Y-106319482D01*
X128934473Y-106349473D01*
X128904482Y-106386018D01*
X128882196Y-106427712D01*
X128868473Y-106472952D01*
X128863839Y-106520000D01*
X128863839Y-108169629D01*
X128686201Y-108170771D01*
X128458524Y-108217581D01*
X128257791Y-108300727D01*
X128159438Y-108459022D01*
X126410000Y-108459022D01*
X126410000Y-106660831D01*
X127320832Y-105750000D01*
X132243305Y-105750000D01*
X132259998Y-105751644D01*
X132276691Y-105750000D01*
X132276699Y-105750000D01*
X132326650Y-105745080D01*
X132390740Y-105725639D01*
X132449806Y-105694067D01*
X132501577Y-105651579D01*
X132512228Y-105638601D01*
X137650316Y-100500515D01*
X137689238Y-100464176D01*
X137716623Y-100442567D01*
X137736828Y-100429677D01*
X137753508Y-100421443D01*
X137772108Y-100414526D01*
X137797975Y-100407133D01*
X137834281Y-100398353D01*
X137878891Y-100387733D01*
X137885162Y-100386150D01*
X137934750Y-100372923D01*
X137945557Y-100369768D01*
X137963887Y-100363945D01*
X137987512Y-100359246D01*
X138085786Y-100318540D01*
X138174230Y-100259444D01*
X138249446Y-100184228D01*
X138308542Y-100095784D01*
X138349248Y-99997510D01*
X138370000Y-99893183D01*
X138370000Y-99786813D01*
X138349248Y-99682486D01*
X138308542Y-99584212D01*
X138249446Y-99495768D01*
X138174230Y-99420552D01*
X138085786Y-99361456D01*
X137987512Y-99320750D01*
X137883185Y-99299998D01*
X137776815Y-99299998D01*
X137672488Y-99320750D01*
X137574214Y-99361456D01*
X137485770Y-99420552D01*
X137410554Y-99495768D01*
X137351458Y-99584212D01*
X137310752Y-99682486D01*
X137306053Y-99706107D01*
X137300231Y-99724435D01*
X137297074Y-99735247D01*
X137283847Y-99784835D01*
X137282264Y-99791106D01*
X137271644Y-99835716D01*
X137262864Y-99872022D01*
X137255471Y-99897889D01*
X137248554Y-99916489D01*
X137240320Y-99933169D01*
X137227430Y-99953374D01*
X137205816Y-99980766D01*
X137169493Y-100019672D01*
X132119167Y-105070000D01*
X127196692Y-105070000D01*
X127179999Y-105068356D01*
X127163306Y-105070000D01*
X127163299Y-105070000D01*
X127113348Y-105074920D01*
X127049258Y-105094361D01*
X126990192Y-105125933D01*
X126938421Y-105168421D01*
X126927775Y-105181393D01*
X125841394Y-106267775D01*
X125828422Y-106278421D01*
X125817776Y-106291393D01*
X125817775Y-106291394D01*
X125785933Y-106330193D01*
X125754361Y-106389259D01*
X125734920Y-106453349D01*
X125728356Y-106520000D01*
X119390000Y-106520000D01*
X119390000Y-102250912D01*
X119493134Y-102387588D01*
X119653705Y-102530712D01*
X119839112Y-102639760D01*
X119964616Y-102674812D01*
X120130000Y-102630966D01*
X120130000Y-101060000D01*
X120470000Y-101060000D01*
X120470000Y-102630966D01*
X120635384Y-102674812D01*
X120760888Y-102639760D01*
X120946295Y-102530712D01*
X121106866Y-102387588D01*
X121236429Y-102215888D01*
X121330006Y-102022211D01*
X121384000Y-101814000D01*
X121384000Y-101060000D01*
X120470000Y-101060000D01*
X120130000Y-101060000D01*
X120110000Y-101060000D01*
X120110000Y-100720000D01*
X120130000Y-100720000D01*
X120130000Y-99149034D01*
X120470000Y-99149034D01*
X120470000Y-100720000D01*
X121384000Y-100720000D01*
X121384000Y-99966000D01*
X121330006Y-99757789D01*
X121236429Y-99564112D01*
X121106866Y-99392412D01*
X120946295Y-99249288D01*
X120760888Y-99140240D01*
X120635384Y-99105188D01*
X120470000Y-99149034D01*
X120130000Y-99149034D01*
X119964616Y-99105188D01*
X119839112Y-99140240D01*
X119653705Y-99249288D01*
X119493134Y-99392412D01*
X119390000Y-99529088D01*
X119390000Y-97160000D01*
X149760000Y-97160000D01*
X149760001Y-107285744D01*
G37*
G04 #@! TD.AperFunction*
D18*
X137915932Y-100114035D02*
X137869334Y-100128837D01*
X137820208Y-100141941D01*
X137775430Y-100152601D01*
X137775386Y-100152612D01*
X137733785Y-100162672D01*
X137733280Y-100162805D01*
X137693697Y-100174118D01*
X137692760Y-100174425D01*
X137653882Y-100188883D01*
X137652687Y-100189399D01*
X137613197Y-100208894D01*
X137611989Y-100209575D01*
X137570571Y-100235997D01*
X137569534Y-100236734D01*
X137524872Y-100271976D01*
X137524072Y-100272663D01*
X137483822Y-100310243D01*
X137359755Y-100186176D01*
X137397334Y-100145925D01*
X137398021Y-100145125D01*
X137433263Y-100100463D01*
X137434000Y-100099426D01*
X137460422Y-100058008D01*
X137461103Y-100056800D01*
X137480598Y-100017310D01*
X137481114Y-100016115D01*
X137495572Y-99977237D01*
X137495879Y-99976300D01*
X137507192Y-99936717D01*
X137507325Y-99936212D01*
X137517385Y-99894611D01*
X137517396Y-99894567D01*
X137528056Y-99849789D01*
X137541160Y-99800663D01*
X137555963Y-99754066D01*
X137923110Y-99746888D01*
X137915932Y-100114035D01*
G04 #@! TA.AperFunction,Conductor*
D17*
G36*
X137915932Y-100114035D02*
G01*
X137869334Y-100128837D01*
X137820208Y-100141941D01*
X137775430Y-100152601D01*
X137775386Y-100152612D01*
X137733785Y-100162672D01*
X137733280Y-100162805D01*
X137693697Y-100174118D01*
X137692760Y-100174425D01*
X137653882Y-100188883D01*
X137652687Y-100189399D01*
X137613197Y-100208894D01*
X137611989Y-100209575D01*
X137570571Y-100235997D01*
X137569534Y-100236734D01*
X137524872Y-100271976D01*
X137524072Y-100272663D01*
X137483822Y-100310243D01*
X137359755Y-100186176D01*
X137397334Y-100145925D01*
X137398021Y-100145125D01*
X137433263Y-100100463D01*
X137434000Y-100099426D01*
X137460422Y-100058008D01*
X137461103Y-100056800D01*
X137480598Y-100017310D01*
X137481114Y-100016115D01*
X137495572Y-99977237D01*
X137495879Y-99976300D01*
X137507192Y-99936717D01*
X137507325Y-99936212D01*
X137517385Y-99894611D01*
X137517396Y-99894567D01*
X137528056Y-99849789D01*
X137541160Y-99800663D01*
X137555963Y-99754066D01*
X137923110Y-99746888D01*
X137915932Y-100114035D01*
G37*
G04 #@! TD.AperFunction*
D18*
X132830319Y-111929294D02*
X132726955Y-112040417D01*
X132726298Y-112041183D01*
X132641164Y-112148687D01*
X132640571Y-112149499D01*
X132573528Y-112249507D01*
X132573096Y-112250199D01*
X132517585Y-112345741D01*
X132517378Y-112346112D01*
X132466874Y-112440148D01*
X132414878Y-112535595D01*
X132354949Y-112635323D01*
X132280473Y-112742541D01*
X132184802Y-112860446D01*
X132070002Y-112982873D01*
X131945890Y-112858761D01*
X132039820Y-112741311D01*
X132041177Y-112739224D01*
X132041766Y-112737910D01*
X132086143Y-112621709D01*
X132086799Y-112619307D01*
X132086974Y-112616805D01*
X132083766Y-112507762D01*
X132083449Y-112505292D01*
X132082871Y-112503439D01*
X132041145Y-112398585D01*
X132039814Y-112396091D01*
X131968636Y-112292461D01*
X131967754Y-112291321D01*
X131876191Y-112185946D01*
X131875883Y-112185604D01*
X131773089Y-112075613D01*
X131668384Y-111958330D01*
X131570847Y-111830943D01*
X131493653Y-111697954D01*
X132244949Y-110925840D01*
X132830319Y-111929294D01*
G04 #@! TA.AperFunction,Conductor*
D17*
G36*
X132830319Y-111929294D02*
G01*
X132726955Y-112040417D01*
X132726298Y-112041183D01*
X132641164Y-112148687D01*
X132640571Y-112149499D01*
X132573528Y-112249507D01*
X132573096Y-112250199D01*
X132517585Y-112345741D01*
X132517378Y-112346112D01*
X132466874Y-112440148D01*
X132414878Y-112535595D01*
X132354949Y-112635323D01*
X132280473Y-112742541D01*
X132184802Y-112860446D01*
X132070002Y-112982873D01*
X131945890Y-112858761D01*
X132039820Y-112741311D01*
X132041177Y-112739224D01*
X132041766Y-112737910D01*
X132086143Y-112621709D01*
X132086799Y-112619307D01*
X132086974Y-112616805D01*
X132083766Y-112507762D01*
X132083449Y-112505292D01*
X132082871Y-112503439D01*
X132041145Y-112398585D01*
X132039814Y-112396091D01*
X131968636Y-112292461D01*
X131967754Y-112291321D01*
X131876191Y-112185946D01*
X131875883Y-112185604D01*
X131773089Y-112075613D01*
X131668384Y-111958330D01*
X131570847Y-111830943D01*
X131493653Y-111697954D01*
X132244949Y-110925840D01*
X132830319Y-111929294D01*
G37*
G04 #@! TD.AperFunction*
D18*
X139934537Y-99963008D02*
X139912047Y-100006441D01*
X139886588Y-100050422D01*
X139862458Y-100089630D01*
X139862435Y-100089668D01*
X139840131Y-100126199D01*
X139839868Y-100126650D01*
X139819879Y-100162639D01*
X139819434Y-100163519D01*
X139802166Y-100201233D01*
X139801685Y-100202443D01*
X139787546Y-100244152D01*
X139787173Y-100245488D01*
X139776570Y-100293459D01*
X139776358Y-100294713D01*
X139769697Y-100351214D01*
X139769617Y-100352265D01*
X139767728Y-100407300D01*
X139592272Y-100407300D01*
X139590382Y-100352265D01*
X139590302Y-100351214D01*
X139583641Y-100294713D01*
X139583429Y-100293459D01*
X139572826Y-100245488D01*
X139572453Y-100244152D01*
X139558314Y-100202443D01*
X139557833Y-100201233D01*
X139540565Y-100163519D01*
X139540120Y-100162639D01*
X139520131Y-100126650D01*
X139519868Y-100126199D01*
X139497564Y-100089668D01*
X139497541Y-100089630D01*
X139473411Y-100050422D01*
X139447952Y-100006441D01*
X139425463Y-99963008D01*
X139680000Y-99698322D01*
X139934537Y-99963008D01*
G04 #@! TA.AperFunction,Conductor*
D17*
G36*
X139934537Y-99963008D02*
G01*
X139912047Y-100006441D01*
X139886588Y-100050422D01*
X139862458Y-100089630D01*
X139862435Y-100089668D01*
X139840131Y-100126199D01*
X139839868Y-100126650D01*
X139819879Y-100162639D01*
X139819434Y-100163519D01*
X139802166Y-100201233D01*
X139801685Y-100202443D01*
X139787546Y-100244152D01*
X139787173Y-100245488D01*
X139776570Y-100293459D01*
X139776358Y-100294713D01*
X139769697Y-100351214D01*
X139769617Y-100352265D01*
X139767728Y-100407300D01*
X139592272Y-100407300D01*
X139590382Y-100352265D01*
X139590302Y-100351214D01*
X139583641Y-100294713D01*
X139583429Y-100293459D01*
X139572826Y-100245488D01*
X139572453Y-100244152D01*
X139558314Y-100202443D01*
X139557833Y-100201233D01*
X139540565Y-100163519D01*
X139540120Y-100162639D01*
X139520131Y-100126650D01*
X139519868Y-100126199D01*
X139497564Y-100089668D01*
X139497541Y-100089630D01*
X139473411Y-100050422D01*
X139447952Y-100006441D01*
X139425463Y-99963008D01*
X139680000Y-99698322D01*
X139934537Y-99963008D01*
G37*
G04 #@! TD.AperFunction*
D18*
X140328261Y-110246202D02*
X140206845Y-110382430D01*
X140205764Y-110383827D01*
X140116306Y-110517793D01*
X140115303Y-110519598D01*
X140058012Y-110645849D01*
X140057315Y-110647792D01*
X140024423Y-110769824D01*
X140024098Y-110771442D01*
X140007836Y-110892751D01*
X140007746Y-110893682D01*
X140000346Y-111017767D01*
X140000338Y-111017909D01*
X139994044Y-111147979D01*
X139981135Y-111287299D01*
X139953921Y-111439493D01*
X139907096Y-111599995D01*
X138826146Y-111616269D01*
X138852132Y-110535508D01*
X139012606Y-110490225D01*
X139164756Y-110464313D01*
X139303966Y-110452439D01*
X139433910Y-110446957D01*
X139434068Y-110446949D01*
X139557956Y-110440183D01*
X139558903Y-110440096D01*
X139679968Y-110424334D01*
X139681602Y-110424011D01*
X139803341Y-110391531D01*
X139805299Y-110390832D01*
X139931210Y-110333910D01*
X139933025Y-110332904D01*
X140066603Y-110243818D01*
X140068005Y-110242734D01*
X140203797Y-110121738D01*
X140328261Y-110246202D01*
G04 #@! TA.AperFunction,Conductor*
D17*
G36*
X140328261Y-110246202D02*
G01*
X140206845Y-110382430D01*
X140205764Y-110383827D01*
X140116306Y-110517793D01*
X140115303Y-110519598D01*
X140058012Y-110645849D01*
X140057315Y-110647792D01*
X140024423Y-110769824D01*
X140024098Y-110771442D01*
X140007836Y-110892751D01*
X140007746Y-110893682D01*
X140000346Y-111017767D01*
X140000338Y-111017909D01*
X139994044Y-111147979D01*
X139981135Y-111287299D01*
X139953921Y-111439493D01*
X139907096Y-111599995D01*
X138826146Y-111616269D01*
X138852132Y-110535508D01*
X139012606Y-110490225D01*
X139164756Y-110464313D01*
X139303966Y-110452439D01*
X139433910Y-110446957D01*
X139434068Y-110446949D01*
X139557956Y-110440183D01*
X139558903Y-110440096D01*
X139679968Y-110424334D01*
X139681602Y-110424011D01*
X139803341Y-110391531D01*
X139805299Y-110390832D01*
X139931210Y-110333910D01*
X139933025Y-110332904D01*
X140066603Y-110243818D01*
X140068005Y-110242734D01*
X140203797Y-110121738D01*
X140328261Y-110246202D01*
G37*
G04 #@! TD.AperFunction*
D18*
X143384537Y-104333008D02*
X143362047Y-104376441D01*
X143336588Y-104420422D01*
X143312458Y-104459630D01*
X143312435Y-104459668D01*
X143290131Y-104496199D01*
X143289868Y-104496650D01*
X143269879Y-104532639D01*
X143269434Y-104533519D01*
X143252166Y-104571233D01*
X143251685Y-104572443D01*
X143237546Y-104614152D01*
X143237173Y-104615488D01*
X143226570Y-104663459D01*
X143226358Y-104664713D01*
X143219697Y-104721214D01*
X143219617Y-104722265D01*
X143217728Y-104777300D01*
X143042272Y-104777300D01*
X143040382Y-104722265D01*
X143040302Y-104721214D01*
X143033641Y-104664713D01*
X143033429Y-104663459D01*
X143022826Y-104615488D01*
X143022453Y-104614152D01*
X143008314Y-104572443D01*
X143007833Y-104571233D01*
X142990565Y-104533519D01*
X142990120Y-104532639D01*
X142970131Y-104496650D01*
X142969868Y-104496199D01*
X142947564Y-104459668D01*
X142947541Y-104459630D01*
X142923411Y-104420422D01*
X142897952Y-104376441D01*
X142875463Y-104333008D01*
X143130000Y-104068322D01*
X143384537Y-104333008D01*
G04 #@! TA.AperFunction,Conductor*
D17*
G36*
X143384537Y-104333008D02*
G01*
X143362047Y-104376441D01*
X143336588Y-104420422D01*
X143312458Y-104459630D01*
X143312435Y-104459668D01*
X143290131Y-104496199D01*
X143289868Y-104496650D01*
X143269879Y-104532639D01*
X143269434Y-104533519D01*
X143252166Y-104571233D01*
X143251685Y-104572443D01*
X143237546Y-104614152D01*
X143237173Y-104615488D01*
X143226570Y-104663459D01*
X143226358Y-104664713D01*
X143219697Y-104721214D01*
X143219617Y-104722265D01*
X143217728Y-104777300D01*
X143042272Y-104777300D01*
X143040382Y-104722265D01*
X143040302Y-104721214D01*
X143033641Y-104664713D01*
X143033429Y-104663459D01*
X143022826Y-104615488D01*
X143022453Y-104614152D01*
X143008314Y-104572443D01*
X143007833Y-104571233D01*
X142990565Y-104533519D01*
X142990120Y-104532639D01*
X142970131Y-104496650D01*
X142969868Y-104496199D01*
X142947564Y-104459668D01*
X142947541Y-104459630D01*
X142923411Y-104420422D01*
X142897952Y-104376441D01*
X142875463Y-104333008D01*
X143130000Y-104068322D01*
X143384537Y-104333008D01*
G37*
G04 #@! TD.AperFunction*
D18*
X143219550Y-106949940D02*
X143219620Y-106950927D01*
X143226084Y-107009375D01*
X143226270Y-107010552D01*
X143236553Y-107060265D01*
X143236881Y-107061521D01*
X143250581Y-107104846D01*
X143251004Y-107105990D01*
X143267721Y-107145276D01*
X143268113Y-107146111D01*
X143287446Y-107183704D01*
X143287675Y-107184130D01*
X143309223Y-107222378D01*
X143309237Y-107222402D01*
X143332513Y-107263506D01*
X143357072Y-107309706D01*
X143378834Y-107355537D01*
X143115613Y-107611604D01*
X142870022Y-107338569D01*
X142894065Y-107295478D01*
X142920952Y-107251684D01*
X142946087Y-107212595D01*
X142946155Y-107212488D01*
X142969145Y-107175938D01*
X142969452Y-107175423D01*
X142989868Y-107139288D01*
X142990346Y-107138355D01*
X143007837Y-107100389D01*
X143008333Y-107099143D01*
X143022549Y-107057101D01*
X143022924Y-107055749D01*
X143033513Y-107007385D01*
X143033722Y-107006134D01*
X143040333Y-106949205D01*
X143040411Y-106948168D01*
X143042280Y-106892700D01*
X143217703Y-106892700D01*
X143219550Y-106949940D01*
G04 #@! TA.AperFunction,Conductor*
D17*
G36*
X143219550Y-106949940D02*
G01*
X143219620Y-106950927D01*
X143226084Y-107009375D01*
X143226270Y-107010552D01*
X143236553Y-107060265D01*
X143236881Y-107061521D01*
X143250581Y-107104846D01*
X143251004Y-107105990D01*
X143267721Y-107145276D01*
X143268113Y-107146111D01*
X143287446Y-107183704D01*
X143287675Y-107184130D01*
X143309223Y-107222378D01*
X143309237Y-107222402D01*
X143332513Y-107263506D01*
X143357072Y-107309706D01*
X143378834Y-107355537D01*
X143115613Y-107611604D01*
X142870022Y-107338569D01*
X142894065Y-107295478D01*
X142920952Y-107251684D01*
X142946087Y-107212595D01*
X142946155Y-107212488D01*
X142969145Y-107175938D01*
X142969452Y-107175423D01*
X142989868Y-107139288D01*
X142990346Y-107138355D01*
X143007837Y-107100389D01*
X143008333Y-107099143D01*
X143022549Y-107057101D01*
X143022924Y-107055749D01*
X143033513Y-107007385D01*
X143033722Y-107006134D01*
X143040333Y-106949205D01*
X143040411Y-106948168D01*
X143042280Y-106892700D01*
X143217703Y-106892700D01*
X143219550Y-106949940D01*
G37*
G04 #@! TD.AperFunction*
D18*
X156358628Y-112252507D02*
X156287439Y-112329944D01*
X156286688Y-112330841D01*
X156227531Y-112408458D01*
X156226872Y-112409410D01*
X156181154Y-112482332D01*
X156180690Y-112483136D01*
X156143529Y-112553330D01*
X156143314Y-112553755D01*
X156109870Y-112623106D01*
X156075318Y-112693464D01*
X156034925Y-112766585D01*
X155983753Y-112844664D01*
X155916825Y-112929874D01*
X155837848Y-113014935D01*
X155713789Y-112890876D01*
X155777351Y-112811538D01*
X155778710Y-112809451D01*
X155779277Y-112808198D01*
X155810930Y-112726770D01*
X155811600Y-112724373D01*
X155811792Y-112721989D01*
X155810707Y-112645333D01*
X155810428Y-112642859D01*
X155809908Y-112641078D01*
X155782368Y-112567182D01*
X155781106Y-112564679D01*
X155733397Y-112491527D01*
X155732543Y-112490367D01*
X155670946Y-112415946D01*
X155670646Y-112415598D01*
X155601546Y-112338006D01*
X155531439Y-112255490D01*
X155466649Y-112166231D01*
X155417348Y-112075778D01*
X155957110Y-111550694D01*
X156358628Y-112252507D01*
G04 #@! TA.AperFunction,Conductor*
D17*
G36*
X156358628Y-112252507D02*
G01*
X156287439Y-112329944D01*
X156286688Y-112330841D01*
X156227531Y-112408458D01*
X156226872Y-112409410D01*
X156181154Y-112482332D01*
X156180690Y-112483136D01*
X156143529Y-112553330D01*
X156143314Y-112553755D01*
X156109870Y-112623106D01*
X156075318Y-112693464D01*
X156034925Y-112766585D01*
X155983753Y-112844664D01*
X155916825Y-112929874D01*
X155837848Y-113014935D01*
X155713789Y-112890876D01*
X155777351Y-112811538D01*
X155778710Y-112809451D01*
X155779277Y-112808198D01*
X155810930Y-112726770D01*
X155811600Y-112724373D01*
X155811792Y-112721989D01*
X155810707Y-112645333D01*
X155810428Y-112642859D01*
X155809908Y-112641078D01*
X155782368Y-112567182D01*
X155781106Y-112564679D01*
X155733397Y-112491527D01*
X155732543Y-112490367D01*
X155670946Y-112415946D01*
X155670646Y-112415598D01*
X155601546Y-112338006D01*
X155531439Y-112255490D01*
X155466649Y-112166231D01*
X155417348Y-112075778D01*
X155957110Y-111550694D01*
X156358628Y-112252507D01*
G37*
G04 #@! TD.AperFunction*
D18*
X135290513Y-111688979D02*
X135206325Y-111832752D01*
X135096123Y-111968001D01*
X134974799Y-112090923D01*
X134853182Y-112204995D01*
X134852981Y-112205187D01*
X134742149Y-112313799D01*
X134741289Y-112314731D01*
X134652267Y-112421372D01*
X134650750Y-112423649D01*
X134594382Y-112531975D01*
X134593455Y-112534285D01*
X134593029Y-112536408D01*
X134580161Y-112650076D01*
X134580124Y-112652566D01*
X134580749Y-112655573D01*
X134622224Y-112778241D01*
X134623249Y-112780510D01*
X134624281Y-112782035D01*
X134723959Y-112908496D01*
X134599963Y-113032492D01*
X134489871Y-112910683D01*
X134403376Y-112789994D01*
X134341240Y-112677520D01*
X134295713Y-112570756D01*
X134259150Y-112467236D01*
X134224014Y-112364886D01*
X134223793Y-112364291D01*
X134182552Y-112261260D01*
X134182032Y-112260126D01*
X134127049Y-112154256D01*
X134126238Y-112152906D01*
X134049855Y-112041994D01*
X134048871Y-112040741D01*
X133949556Y-111929443D01*
X134530198Y-110925768D01*
X135290513Y-111688979D01*
G04 #@! TA.AperFunction,Conductor*
D17*
G36*
X135290513Y-111688979D02*
G01*
X135206325Y-111832752D01*
X135096123Y-111968001D01*
X134974799Y-112090923D01*
X134853182Y-112204995D01*
X134852981Y-112205187D01*
X134742149Y-112313799D01*
X134741289Y-112314731D01*
X134652267Y-112421372D01*
X134650750Y-112423649D01*
X134594382Y-112531975D01*
X134593455Y-112534285D01*
X134593029Y-112536408D01*
X134580161Y-112650076D01*
X134580124Y-112652566D01*
X134580749Y-112655573D01*
X134622224Y-112778241D01*
X134623249Y-112780510D01*
X134624281Y-112782035D01*
X134723959Y-112908496D01*
X134599963Y-113032492D01*
X134489871Y-112910683D01*
X134403376Y-112789994D01*
X134341240Y-112677520D01*
X134295713Y-112570756D01*
X134259150Y-112467236D01*
X134224014Y-112364886D01*
X134223793Y-112364291D01*
X134182552Y-112261260D01*
X134182032Y-112260126D01*
X134127049Y-112154256D01*
X134126238Y-112152906D01*
X134049855Y-112041994D01*
X134048871Y-112040741D01*
X133949556Y-111929443D01*
X134530198Y-110925768D01*
X135290513Y-111688979D01*
G37*
G04 #@! TD.AperFunction*
D18*
X158460201Y-111080340D02*
X158391159Y-111091677D01*
X158391095Y-111091688D01*
X158316592Y-111104315D01*
X158316147Y-111104398D01*
X158246118Y-111118853D01*
X158245221Y-111119073D01*
X158180812Y-111137335D01*
X158179386Y-111137832D01*
X158121742Y-111161883D01*
X158119787Y-111162906D01*
X158070055Y-111194726D01*
X158067823Y-111196542D01*
X158027147Y-111238111D01*
X158025199Y-111240690D01*
X157994727Y-111293989D01*
X157993540Y-111296807D01*
X157974417Y-111363815D01*
X157973970Y-111366285D01*
X157968278Y-111437300D01*
X157792673Y-111437300D01*
X157792420Y-111319228D01*
X157792420Y-111319168D01*
X157791660Y-111208833D01*
X157791659Y-111208770D01*
X157790539Y-111114169D01*
X157790538Y-111114112D01*
X157789178Y-111030572D01*
X157789178Y-111030535D01*
X157787698Y-110953379D01*
X157787698Y-110953374D01*
X157786218Y-110877929D01*
X157786217Y-110877929D01*
X157784857Y-110799548D01*
X157783739Y-110713553D01*
X157782980Y-110615255D01*
X157782725Y-110510339D01*
X158598162Y-110341893D01*
X158460201Y-111080340D01*
G04 #@! TA.AperFunction,Conductor*
D17*
G36*
X158460201Y-111080340D02*
G01*
X158391159Y-111091677D01*
X158391095Y-111091688D01*
X158316592Y-111104315D01*
X158316147Y-111104398D01*
X158246118Y-111118853D01*
X158245221Y-111119073D01*
X158180812Y-111137335D01*
X158179386Y-111137832D01*
X158121742Y-111161883D01*
X158119787Y-111162906D01*
X158070055Y-111194726D01*
X158067823Y-111196542D01*
X158027147Y-111238111D01*
X158025199Y-111240690D01*
X157994727Y-111293989D01*
X157993540Y-111296807D01*
X157974417Y-111363815D01*
X157973970Y-111366285D01*
X157968278Y-111437300D01*
X157792673Y-111437300D01*
X157792420Y-111319228D01*
X157792420Y-111319168D01*
X157791660Y-111208833D01*
X157791659Y-111208770D01*
X157790539Y-111114169D01*
X157790538Y-111114112D01*
X157789178Y-111030572D01*
X157789178Y-111030535D01*
X157787698Y-110953379D01*
X157787698Y-110953374D01*
X157786218Y-110877929D01*
X157786217Y-110877929D01*
X157784857Y-110799548D01*
X157783739Y-110713553D01*
X157782980Y-110615255D01*
X157782725Y-110510339D01*
X158598162Y-110341893D01*
X158460201Y-111080340D01*
G37*
G04 #@! TD.AperFunction*
D18*
X154402993Y-111760596D02*
X154003701Y-112403199D01*
X153880993Y-112372101D01*
X153771316Y-112332852D01*
X153676930Y-112289744D01*
X153591713Y-112244891D01*
X153509839Y-112200584D01*
X153509392Y-112200353D01*
X153425124Y-112158977D01*
X153424146Y-112158547D01*
X153331595Y-112122413D01*
X153330264Y-112121976D01*
X153223468Y-112093354D01*
X153222043Y-112093058D01*
X153095038Y-112074220D01*
X153093737Y-112074095D01*
X152952700Y-112067850D01*
X152952700Y-111892035D01*
X153070095Y-111885711D01*
X153071775Y-111885507D01*
X153177805Y-111865431D01*
X153179803Y-111864881D01*
X153267132Y-111832955D01*
X153269144Y-111832012D01*
X153342449Y-111789489D01*
X153344075Y-111788369D01*
X153408037Y-111736505D01*
X153409067Y-111735571D01*
X153468366Y-111675619D01*
X153468833Y-111675121D01*
X153528146Y-111608335D01*
X153528163Y-111608316D01*
X153592009Y-111536135D01*
X153664913Y-111459945D01*
X153745219Y-111386691D01*
X154402993Y-111760596D01*
G04 #@! TA.AperFunction,Conductor*
D17*
G36*
X154402993Y-111760596D02*
G01*
X154003701Y-112403199D01*
X153880993Y-112372101D01*
X153771316Y-112332852D01*
X153676930Y-112289744D01*
X153591713Y-112244891D01*
X153509839Y-112200584D01*
X153509392Y-112200353D01*
X153425124Y-112158977D01*
X153424146Y-112158547D01*
X153331595Y-112122413D01*
X153330264Y-112121976D01*
X153223468Y-112093354D01*
X153222043Y-112093058D01*
X153095038Y-112074220D01*
X153093737Y-112074095D01*
X152952700Y-112067850D01*
X152952700Y-111892035D01*
X153070095Y-111885711D01*
X153071775Y-111885507D01*
X153177805Y-111865431D01*
X153179803Y-111864881D01*
X153267132Y-111832955D01*
X153269144Y-111832012D01*
X153342449Y-111789489D01*
X153344075Y-111788369D01*
X153408037Y-111736505D01*
X153409067Y-111735571D01*
X153468366Y-111675619D01*
X153468833Y-111675121D01*
X153528146Y-111608335D01*
X153528163Y-111608316D01*
X153592009Y-111536135D01*
X153664913Y-111459945D01*
X153745219Y-111386691D01*
X154402993Y-111760596D01*
G37*
G04 #@! TD.AperFunction*
D18*
X146327741Y-104126872D02*
X146340683Y-104174718D01*
X146352175Y-104225022D01*
X146361734Y-104270731D01*
X146361767Y-104270886D01*
X146371171Y-104313207D01*
X146371323Y-104313818D01*
X146382365Y-104353991D01*
X146382693Y-104355012D01*
X146397186Y-104394385D01*
X146397722Y-104395631D01*
X146417481Y-104435553D01*
X146418175Y-104436780D01*
X146445015Y-104478599D01*
X146445752Y-104479630D01*
X146481487Y-104524694D01*
X146482163Y-104525478D01*
X146520217Y-104566166D01*
X146396184Y-104690199D01*
X146353781Y-104650378D01*
X146353055Y-104649747D01*
X146306658Y-104612362D01*
X146305725Y-104611677D01*
X146262903Y-104583188D01*
X146261818Y-104582542D01*
X146221169Y-104560985D01*
X146220097Y-104560479D01*
X146180220Y-104543891D01*
X146179379Y-104543576D01*
X146138872Y-104529994D01*
X146138426Y-104529853D01*
X146095888Y-104517313D01*
X146095866Y-104517307D01*
X146050076Y-104503898D01*
X145999669Y-104487680D01*
X145951413Y-104469750D01*
X145961295Y-104102650D01*
X146327741Y-104126872D01*
G04 #@! TA.AperFunction,Conductor*
D17*
G36*
X146327741Y-104126872D02*
G01*
X146340683Y-104174718D01*
X146352175Y-104225022D01*
X146361734Y-104270731D01*
X146361767Y-104270886D01*
X146371171Y-104313207D01*
X146371323Y-104313818D01*
X146382365Y-104353991D01*
X146382693Y-104355012D01*
X146397186Y-104394385D01*
X146397722Y-104395631D01*
X146417481Y-104435553D01*
X146418175Y-104436780D01*
X146445015Y-104478599D01*
X146445752Y-104479630D01*
X146481487Y-104524694D01*
X146482163Y-104525478D01*
X146520217Y-104566166D01*
X146396184Y-104690199D01*
X146353781Y-104650378D01*
X146353055Y-104649747D01*
X146306658Y-104612362D01*
X146305725Y-104611677D01*
X146262903Y-104583188D01*
X146261818Y-104582542D01*
X146221169Y-104560985D01*
X146220097Y-104560479D01*
X146180220Y-104543891D01*
X146179379Y-104543576D01*
X146138872Y-104529994D01*
X146138426Y-104529853D01*
X146095888Y-104517313D01*
X146095866Y-104517307D01*
X146050076Y-104503898D01*
X145999669Y-104487680D01*
X145951413Y-104469750D01*
X145961295Y-104102650D01*
X146327741Y-104126872D01*
G37*
G04 #@! TD.AperFunction*
D18*
X151460533Y-109504352D02*
X151460810Y-109504614D01*
X151549120Y-109585544D01*
X151549418Y-109585808D01*
X151627336Y-109652849D01*
X151627609Y-109653077D01*
X151698159Y-109710421D01*
X151698340Y-109710566D01*
X151764550Y-109762405D01*
X151764577Y-109762426D01*
X151829394Y-109812888D01*
X151895826Y-109866149D01*
X151966853Y-109926350D01*
X152045669Y-109997814D01*
X152128344Y-110077988D01*
X151727107Y-110779306D01*
X151186954Y-110253834D01*
X151222673Y-110178492D01*
X151262466Y-110100741D01*
X151262490Y-110100696D01*
X151299655Y-110027353D01*
X151299905Y-110026830D01*
X151331416Y-109956901D01*
X151331866Y-109955757D01*
X151354796Y-109888060D01*
X151355284Y-109886131D01*
X151366707Y-109819485D01*
X151366877Y-109816767D01*
X151363863Y-109749992D01*
X151363343Y-109746923D01*
X151342965Y-109678839D01*
X151341802Y-109676140D01*
X151301132Y-109605565D01*
X151299755Y-109603622D01*
X151243552Y-109538307D01*
X151367780Y-109414079D01*
X151460533Y-109504352D01*
G04 #@! TA.AperFunction,Conductor*
D17*
G36*
X151460533Y-109504352D02*
G01*
X151460810Y-109504614D01*
X151549120Y-109585544D01*
X151549418Y-109585808D01*
X151627336Y-109652849D01*
X151627609Y-109653077D01*
X151698159Y-109710421D01*
X151698340Y-109710566D01*
X151764550Y-109762405D01*
X151764577Y-109762426D01*
X151829394Y-109812888D01*
X151895826Y-109866149D01*
X151966853Y-109926350D01*
X152045669Y-109997814D01*
X152128344Y-110077988D01*
X151727107Y-110779306D01*
X151186954Y-110253834D01*
X151222673Y-110178492D01*
X151262466Y-110100741D01*
X151262490Y-110100696D01*
X151299655Y-110027353D01*
X151299905Y-110026830D01*
X151331416Y-109956901D01*
X151331866Y-109955757D01*
X151354796Y-109888060D01*
X151355284Y-109886131D01*
X151366707Y-109819485D01*
X151366877Y-109816767D01*
X151363863Y-109749992D01*
X151363343Y-109746923D01*
X151342965Y-109678839D01*
X151341802Y-109676140D01*
X151301132Y-109605565D01*
X151299755Y-109603622D01*
X151243552Y-109538307D01*
X151367780Y-109414079D01*
X151460533Y-109504352D01*
G37*
G04 #@! TD.AperFunction*
M02*
