G04 #@! TF.GenerationSoftware,KiCad,Pcbnew,(5.1.8-0-10_14)*
G04 #@! TF.CreationDate,2021-09-26T16:36:28-04:00*
G04 #@! TF.ProjectId,8DIN2VGA_Bottom,3844494e-3256-4474-915f-426f74746f6d,1*
G04 #@! TF.SameCoordinates,Original*
G04 #@! TF.FileFunction,Legend,Top*
G04 #@! TF.FilePolarity,Positive*
%FSLAX46Y46*%
G04 Gerber Fmt 4.6, Leading zero omitted, Abs format (unit mm)*
G04 Created by KiCad (PCBNEW (5.1.8-0-10_14)) date 2021-09-26 16:36:28*
%MOMM*%
%LPD*%
G01*
G04 APERTURE LIST*
%ADD10C,0.701600*%
G04 APERTURE END LIST*
%LPC*%
G36*
G01*
X144724200Y-99752900D02*
X144724200Y-95927100D01*
G75*
G02*
X145112100Y-95539200I387900J0D01*
G01*
X145887900Y-95539200D01*
G75*
G02*
X146275800Y-95927100I0J-387900D01*
G01*
X146275800Y-99752900D01*
G75*
G02*
X145887900Y-100140800I-387900J0D01*
G01*
X145112100Y-100140800D01*
G75*
G02*
X144724200Y-99752900I0J387900D01*
G01*
G37*
G36*
G01*
X141724200Y-99752900D02*
X141724200Y-95927100D01*
G75*
G02*
X142112100Y-95539200I387900J0D01*
G01*
X142887900Y-95539200D01*
G75*
G02*
X143275800Y-95927100I0J-387900D01*
G01*
X143275800Y-99752900D01*
G75*
G02*
X142887900Y-100140800I-387900J0D01*
G01*
X142112100Y-100140800D01*
G75*
G02*
X141724200Y-99752900I0J387900D01*
G01*
G37*
G36*
G01*
X146724200Y-99752900D02*
X146724200Y-95927100D01*
G75*
G02*
X147112100Y-95539200I387900J0D01*
G01*
X147887900Y-95539200D01*
G75*
G02*
X148275800Y-95927100I0J-387900D01*
G01*
X148275800Y-99752900D01*
G75*
G02*
X147887900Y-100140800I-387900J0D01*
G01*
X147112100Y-100140800D01*
G75*
G02*
X146724200Y-99752900I0J387900D01*
G01*
G37*
D10*
X144040000Y-114372828D03*
G36*
G01*
X143239200Y-115723228D02*
X143239200Y-114422428D01*
G75*
G02*
X143639600Y-114022028I400400J0D01*
G01*
X144440400Y-114022028D01*
G75*
G02*
X144840800Y-114422428I0J-400400D01*
G01*
X144840800Y-115723228D01*
G75*
G02*
X144440400Y-116123628I-400400J0D01*
G01*
X143639600Y-116123628D01*
G75*
G02*
X143239200Y-115723228I0J400400D01*
G01*
G37*
G36*
G01*
X145159200Y-115723228D02*
X145159200Y-114422428D01*
G75*
G02*
X145559600Y-114022028I400400J0D01*
G01*
X146360400Y-114022028D01*
G75*
G02*
X146760800Y-114422428I0J-400400D01*
G01*
X146760800Y-115723228D01*
G75*
G02*
X146360400Y-116123628I-400400J0D01*
G01*
X145559600Y-116123628D01*
G75*
G02*
X145159200Y-115723228I0J400400D01*
G01*
G37*
X145970000Y-114372828D03*
G36*
G01*
X141299600Y-113122028D02*
X142600400Y-113122028D01*
G75*
G02*
X143000800Y-113522428I0J-400400D01*
G01*
X143000800Y-114323228D01*
G75*
G02*
X142600400Y-114723628I-400400J0D01*
G01*
X141299600Y-114723628D01*
G75*
G02*
X140899200Y-114323228I0J400400D01*
G01*
X140899200Y-113522428D01*
G75*
G02*
X141299600Y-113122028I400400J0D01*
G01*
G37*
X142630000Y-113922828D03*
X147370000Y-113922828D03*
G36*
G01*
X148720400Y-114723628D02*
X147419600Y-114723628D01*
G75*
G02*
X147019200Y-114323228I0J400400D01*
G01*
X147019200Y-113522428D01*
G75*
G02*
X147419600Y-113122028I400400J0D01*
G01*
X148720400Y-113122028D01*
G75*
G02*
X149120800Y-113522428I0J-400400D01*
G01*
X149120800Y-114323228D01*
G75*
G02*
X148720400Y-114723628I-400400J0D01*
G01*
G37*
G36*
G01*
X141299600Y-109722028D02*
X142600400Y-109722028D01*
G75*
G02*
X143000800Y-110122428I0J-400400D01*
G01*
X143000800Y-110923228D01*
G75*
G02*
X142600400Y-111323628I-400400J0D01*
G01*
X141299600Y-111323628D01*
G75*
G02*
X140899200Y-110923228I0J400400D01*
G01*
X140899200Y-110122428D01*
G75*
G02*
X141299600Y-109722028I400400J0D01*
G01*
G37*
X142630000Y-110522828D03*
M02*
