G04 #@! TF.GenerationSoftware,KiCad,Pcbnew,(5.1.8-0-10_14)*
G04 #@! TF.CreationDate,2021-09-26T16:36:28-04:00*
G04 #@! TF.ProjectId,8DIN2VGA_Bottom,3844494e-3256-4474-915f-426f74746f6d,1*
G04 #@! TF.SameCoordinates,Original*
G04 #@! TF.FileFunction,Copper,L2,Bot*
G04 #@! TF.FilePolarity,Positive*
%FSLAX46Y46*%
G04 Gerber Fmt 4.6, Leading zero omitted, Abs format (unit mm)*
G04 Created by KiCad (PCBNEW (5.1.8-0-10_14)) date 2021-09-26 16:36:28*
%MOMM*%
%LPD*%
G01*
G04 APERTURE LIST*
G04 #@! TA.AperFunction,ComponentPad*
%ADD10C,0.600000*%
G04 #@! TD*
G04 #@! TA.AperFunction,ViaPad*
%ADD11C,0.600000*%
G04 #@! TD*
G04 #@! TA.AperFunction,Conductor*
%ADD12C,0.250000*%
G04 #@! TD*
G04 #@! TA.AperFunction,Conductor*
%ADD13C,0.200000*%
G04 #@! TD*
G04 #@! TA.AperFunction,Conductor*
%ADD14C,0.152400*%
G04 #@! TD*
G04 #@! TA.AperFunction,Conductor*
%ADD15C,0.025400*%
G04 #@! TD*
G04 APERTURE END LIST*
G04 #@! TA.AperFunction,SMDPad,CuDef*
G36*
G01*
X145275000Y-99727500D02*
X145275000Y-95952500D01*
G75*
G02*
X145637500Y-95590000I362500J0D01*
G01*
X146362500Y-95590000D01*
G75*
G02*
X146725000Y-95952500I0J-362500D01*
G01*
X146725000Y-99727500D01*
G75*
G02*
X146362500Y-100090000I-362500J0D01*
G01*
X145637500Y-100090000D01*
G75*
G02*
X145275000Y-99727500I0J362500D01*
G01*
G37*
G04 #@! TD.AperFunction*
G04 #@! TA.AperFunction,SMDPad,CuDef*
G36*
G01*
X143275000Y-99727500D02*
X143275000Y-95952500D01*
G75*
G02*
X143637500Y-95590000I362500J0D01*
G01*
X144362500Y-95590000D01*
G75*
G02*
X144725000Y-95952500I0J-362500D01*
G01*
X144725000Y-99727500D01*
G75*
G02*
X144362500Y-100090000I-362500J0D01*
G01*
X143637500Y-100090000D01*
G75*
G02*
X143275000Y-99727500I0J362500D01*
G01*
G37*
G04 #@! TD.AperFunction*
D10*
X144040000Y-114372828D03*
G04 #@! TA.AperFunction,ComponentPad*
G36*
G01*
X143290000Y-115697828D02*
X143290000Y-114447828D01*
G75*
G02*
X143665000Y-114072828I375000J0D01*
G01*
X144415000Y-114072828D01*
G75*
G02*
X144790000Y-114447828I0J-375000D01*
G01*
X144790000Y-115697828D01*
G75*
G02*
X144415000Y-116072828I-375000J0D01*
G01*
X143665000Y-116072828D01*
G75*
G02*
X143290000Y-115697828I0J375000D01*
G01*
G37*
G04 #@! TD.AperFunction*
G04 #@! TA.AperFunction,ComponentPad*
G36*
G01*
X145210000Y-115697828D02*
X145210000Y-114447828D01*
G75*
G02*
X145585000Y-114072828I375000J0D01*
G01*
X146335000Y-114072828D01*
G75*
G02*
X146710000Y-114447828I0J-375000D01*
G01*
X146710000Y-115697828D01*
G75*
G02*
X146335000Y-116072828I-375000J0D01*
G01*
X145585000Y-116072828D01*
G75*
G02*
X145210000Y-115697828I0J375000D01*
G01*
G37*
G04 #@! TD.AperFunction*
X145970000Y-114372828D03*
G04 #@! TA.AperFunction,ComponentPad*
G36*
G01*
X141325000Y-113172828D02*
X142575000Y-113172828D01*
G75*
G02*
X142950000Y-113547828I0J-375000D01*
G01*
X142950000Y-114297828D01*
G75*
G02*
X142575000Y-114672828I-375000J0D01*
G01*
X141325000Y-114672828D01*
G75*
G02*
X140950000Y-114297828I0J375000D01*
G01*
X140950000Y-113547828D01*
G75*
G02*
X141325000Y-113172828I375000J0D01*
G01*
G37*
G04 #@! TD.AperFunction*
X142630000Y-113922828D03*
X147370000Y-113922828D03*
G04 #@! TA.AperFunction,ComponentPad*
G36*
G01*
X148695000Y-114672828D02*
X147445000Y-114672828D01*
G75*
G02*
X147070000Y-114297828I0J375000D01*
G01*
X147070000Y-113547828D01*
G75*
G02*
X147445000Y-113172828I375000J0D01*
G01*
X148695000Y-113172828D01*
G75*
G02*
X149070000Y-113547828I0J-375000D01*
G01*
X149070000Y-114297828D01*
G75*
G02*
X148695000Y-114672828I-375000J0D01*
G01*
G37*
G04 #@! TD.AperFunction*
G04 #@! TA.AperFunction,ComponentPad*
G36*
G01*
X141325000Y-109772828D02*
X142575000Y-109772828D01*
G75*
G02*
X142950000Y-110147828I0J-375000D01*
G01*
X142950000Y-110897828D01*
G75*
G02*
X142575000Y-111272828I-375000J0D01*
G01*
X141325000Y-111272828D01*
G75*
G02*
X140950000Y-110897828I0J375000D01*
G01*
X140950000Y-110147828D01*
G75*
G02*
X141325000Y-109772828I375000J0D01*
G01*
G37*
G04 #@! TD.AperFunction*
X142630000Y-110522828D03*
D11*
X145660000Y-104500000D03*
X143530000Y-112800000D03*
X147570000Y-111110000D03*
X142540000Y-103410000D03*
X144960000Y-109410000D03*
D12*
X144030000Y-114350000D02*
X144020000Y-114350000D01*
X144440000Y-113940000D02*
X144030000Y-114350000D01*
X144440000Y-110550000D02*
X144440000Y-113940000D01*
X143420000Y-101300000D02*
X143420000Y-109530000D01*
X144000000Y-100720000D02*
X143420000Y-101300000D01*
X143420000Y-109530000D02*
X144440000Y-110550000D01*
X144000000Y-97840000D02*
X144000000Y-100720000D01*
X145950000Y-108810000D02*
X145950000Y-113140000D01*
X144810000Y-103720000D02*
X144810000Y-107670000D01*
X145950000Y-113140000D02*
X145960000Y-113150000D01*
X146010000Y-102520000D02*
X144810000Y-103720000D01*
X146010000Y-97850000D02*
X146010000Y-102520000D01*
X144810000Y-107670000D02*
X145950000Y-108810000D01*
X146000000Y-97840000D02*
X146010000Y-97850000D01*
X145950000Y-113140000D02*
X145950000Y-114370000D01*
D13*
X145043670Y-100124284D02*
X145132489Y-100232511D01*
X145240716Y-100321330D01*
X145364190Y-100387328D01*
X145498168Y-100427970D01*
X145535001Y-100431598D01*
X145535001Y-102323248D01*
X144490634Y-103367616D01*
X144472499Y-103382499D01*
X144413141Y-103454827D01*
X144369034Y-103537347D01*
X144350112Y-103599723D01*
X144341873Y-103626884D01*
X144332702Y-103720000D01*
X144335000Y-103743332D01*
X144335001Y-107646658D01*
X144332702Y-107670000D01*
X144341873Y-107763116D01*
X144369035Y-107852654D01*
X144413142Y-107935173D01*
X144472500Y-108007501D01*
X144490629Y-108022379D01*
X145475000Y-109006751D01*
X145475001Y-113116658D01*
X145472702Y-113140000D01*
X145475000Y-113163332D01*
X145475000Y-113731969D01*
X145443229Y-113735098D01*
X145306907Y-113776451D01*
X145181271Y-113843605D01*
X145071150Y-113933978D01*
X145000000Y-114020675D01*
X144928850Y-113933978D01*
X144915637Y-113923134D01*
X144915000Y-113916668D01*
X144915000Y-110573332D01*
X144917298Y-110550000D01*
X144908127Y-110456884D01*
X144880966Y-110367345D01*
X144865602Y-110338602D01*
X144836859Y-110284827D01*
X144777501Y-110212499D01*
X144759377Y-110197625D01*
X143895000Y-109333250D01*
X143895000Y-101496751D01*
X144319377Y-101072375D01*
X144337501Y-101057501D01*
X144396859Y-100985173D01*
X144440706Y-100903141D01*
X144440966Y-100902655D01*
X144468127Y-100813116D01*
X144477298Y-100720000D01*
X144475000Y-100696668D01*
X144475000Y-100430613D01*
X144501832Y-100427970D01*
X144635810Y-100387328D01*
X144759284Y-100321330D01*
X144867511Y-100232511D01*
X144956330Y-100124284D01*
X145000000Y-100042583D01*
X145043670Y-100124284D01*
G04 #@! TA.AperFunction,Conductor*
D14*
G36*
X145043670Y-100124284D02*
G01*
X145132489Y-100232511D01*
X145240716Y-100321330D01*
X145364190Y-100387328D01*
X145498168Y-100427970D01*
X145535001Y-100431598D01*
X145535001Y-102323248D01*
X144490634Y-103367616D01*
X144472499Y-103382499D01*
X144413141Y-103454827D01*
X144369034Y-103537347D01*
X144350112Y-103599723D01*
X144341873Y-103626884D01*
X144332702Y-103720000D01*
X144335000Y-103743332D01*
X144335001Y-107646658D01*
X144332702Y-107670000D01*
X144341873Y-107763116D01*
X144369035Y-107852654D01*
X144413142Y-107935173D01*
X144472500Y-108007501D01*
X144490629Y-108022379D01*
X145475000Y-109006751D01*
X145475001Y-113116658D01*
X145472702Y-113140000D01*
X145475000Y-113163332D01*
X145475000Y-113731969D01*
X145443229Y-113735098D01*
X145306907Y-113776451D01*
X145181271Y-113843605D01*
X145071150Y-113933978D01*
X145000000Y-114020675D01*
X144928850Y-113933978D01*
X144915637Y-113923134D01*
X144915000Y-113916668D01*
X144915000Y-110573332D01*
X144917298Y-110550000D01*
X144908127Y-110456884D01*
X144880966Y-110367345D01*
X144865602Y-110338602D01*
X144836859Y-110284827D01*
X144777501Y-110212499D01*
X144759377Y-110197625D01*
X143895000Y-109333250D01*
X143895000Y-101496751D01*
X144319377Y-101072375D01*
X144337501Y-101057501D01*
X144396859Y-100985173D01*
X144440706Y-100903141D01*
X144440966Y-100902655D01*
X144468127Y-100813116D01*
X144477298Y-100720000D01*
X144475000Y-100696668D01*
X144475000Y-100430613D01*
X144501832Y-100427970D01*
X144635810Y-100387328D01*
X144759284Y-100321330D01*
X144867511Y-100232511D01*
X144956330Y-100124284D01*
X145000000Y-100042583D01*
X145043670Y-100124284D01*
G37*
G04 #@! TD.AperFunction*
D13*
X147970001Y-112821135D02*
X147445000Y-112821135D01*
X147303229Y-112835098D01*
X147166907Y-112876451D01*
X147041271Y-112943605D01*
X146931150Y-113033978D01*
X146840777Y-113144099D01*
X146773623Y-113269735D01*
X146732270Y-113406057D01*
X146718307Y-113547828D01*
X146718307Y-113832689D01*
X146613093Y-113776451D01*
X146476771Y-113735098D01*
X146425000Y-113729999D01*
X146425000Y-113253423D01*
X146428127Y-113243115D01*
X146437298Y-113149999D01*
X146428127Y-113056884D01*
X146425000Y-113046576D01*
X146425000Y-108833329D01*
X146427298Y-108809999D01*
X146425000Y-108786668D01*
X146418127Y-108716884D01*
X146390966Y-108627346D01*
X146346859Y-108544827D01*
X146287501Y-108472499D01*
X146269371Y-108457620D01*
X145285000Y-107473250D01*
X145285000Y-103916750D01*
X146329371Y-102872380D01*
X146347501Y-102857501D01*
X146406859Y-102785173D01*
X146450966Y-102702654D01*
X146478127Y-102613116D01*
X146485000Y-102543332D01*
X146487298Y-102520001D01*
X146485000Y-102496669D01*
X146485000Y-100429628D01*
X146501832Y-100427970D01*
X146635810Y-100387328D01*
X146759284Y-100321330D01*
X146867511Y-100232511D01*
X146956330Y-100124284D01*
X147022328Y-100000810D01*
X147062970Y-99866832D01*
X147076693Y-99727500D01*
X147076693Y-95952500D01*
X147062970Y-95813168D01*
X147040775Y-95740000D01*
X147970000Y-95740000D01*
X147970001Y-112821135D01*
G04 #@! TA.AperFunction,Conductor*
D14*
G36*
X147970001Y-112821135D02*
G01*
X147445000Y-112821135D01*
X147303229Y-112835098D01*
X147166907Y-112876451D01*
X147041271Y-112943605D01*
X146931150Y-113033978D01*
X146840777Y-113144099D01*
X146773623Y-113269735D01*
X146732270Y-113406057D01*
X146718307Y-113547828D01*
X146718307Y-113832689D01*
X146613093Y-113776451D01*
X146476771Y-113735098D01*
X146425000Y-113729999D01*
X146425000Y-113253423D01*
X146428127Y-113243115D01*
X146437298Y-113149999D01*
X146428127Y-113056884D01*
X146425000Y-113046576D01*
X146425000Y-108833329D01*
X146427298Y-108809999D01*
X146425000Y-108786668D01*
X146418127Y-108716884D01*
X146390966Y-108627346D01*
X146346859Y-108544827D01*
X146287501Y-108472499D01*
X146269371Y-108457620D01*
X145285000Y-107473250D01*
X145285000Y-103916750D01*
X146329371Y-102872380D01*
X146347501Y-102857501D01*
X146406859Y-102785173D01*
X146450966Y-102702654D01*
X146478127Y-102613116D01*
X146485000Y-102543332D01*
X146487298Y-102520001D01*
X146485000Y-102496669D01*
X146485000Y-100429628D01*
X146501832Y-100427970D01*
X146635810Y-100387328D01*
X146759284Y-100321330D01*
X146867511Y-100232511D01*
X146956330Y-100124284D01*
X147022328Y-100000810D01*
X147062970Y-99866832D01*
X147076693Y-99727500D01*
X147076693Y-95952500D01*
X147062970Y-95813168D01*
X147040775Y-95740000D01*
X147970000Y-95740000D01*
X147970001Y-112821135D01*
G37*
G04 #@! TD.AperFunction*
D13*
X142937030Y-95813168D02*
X142923307Y-95952500D01*
X142923307Y-99727500D01*
X142937030Y-99866832D01*
X142977672Y-100000810D01*
X143043670Y-100124284D01*
X143132489Y-100232511D01*
X143240716Y-100321330D01*
X143364190Y-100387328D01*
X143498168Y-100427970D01*
X143525001Y-100430613D01*
X143525001Y-100523248D01*
X143100633Y-100947617D01*
X143082499Y-100962499D01*
X143023141Y-101034827D01*
X142979034Y-101117347D01*
X142960112Y-101179723D01*
X142951873Y-101206884D01*
X142942702Y-101300000D01*
X142945000Y-101323332D01*
X142945001Y-109506658D01*
X142942702Y-109530000D01*
X142951873Y-109623116D01*
X142979035Y-109712654D01*
X143023142Y-109795173D01*
X143082500Y-109867501D01*
X143100629Y-109882379D01*
X143965000Y-110746752D01*
X143965001Y-113721135D01*
X143665000Y-113721135D01*
X143523229Y-113735098D01*
X143386907Y-113776451D01*
X143301693Y-113821999D01*
X143301693Y-113547828D01*
X143287730Y-113406057D01*
X143246377Y-113269735D01*
X143179223Y-113144099D01*
X143088850Y-113033978D01*
X142978729Y-112943605D01*
X142853093Y-112876451D01*
X142716771Y-112835098D01*
X142575000Y-112821135D01*
X142060000Y-112821135D01*
X142060000Y-95740000D01*
X142959225Y-95740000D01*
X142937030Y-95813168D01*
G04 #@! TA.AperFunction,Conductor*
D14*
G36*
X142937030Y-95813168D02*
G01*
X142923307Y-95952500D01*
X142923307Y-99727500D01*
X142937030Y-99866832D01*
X142977672Y-100000810D01*
X143043670Y-100124284D01*
X143132489Y-100232511D01*
X143240716Y-100321330D01*
X143364190Y-100387328D01*
X143498168Y-100427970D01*
X143525001Y-100430613D01*
X143525001Y-100523248D01*
X143100633Y-100947617D01*
X143082499Y-100962499D01*
X143023141Y-101034827D01*
X142979034Y-101117347D01*
X142960112Y-101179723D01*
X142951873Y-101206884D01*
X142942702Y-101300000D01*
X142945000Y-101323332D01*
X142945001Y-109506658D01*
X142942702Y-109530000D01*
X142951873Y-109623116D01*
X142979035Y-109712654D01*
X143023142Y-109795173D01*
X143082500Y-109867501D01*
X143100629Y-109882379D01*
X143965000Y-110746752D01*
X143965001Y-113721135D01*
X143665000Y-113721135D01*
X143523229Y-113735098D01*
X143386907Y-113776451D01*
X143301693Y-113821999D01*
X143301693Y-113547828D01*
X143287730Y-113406057D01*
X143246377Y-113269735D01*
X143179223Y-113144099D01*
X143088850Y-113033978D01*
X142978729Y-112943605D01*
X142853093Y-112876451D01*
X142716771Y-112835098D01*
X142575000Y-112821135D01*
X142060000Y-112821135D01*
X142060000Y-95740000D01*
X142959225Y-95740000D01*
X142937030Y-95813168D01*
G37*
G04 #@! TD.AperFunction*
D15*
X144546173Y-113985838D02*
X144529847Y-114038950D01*
X144505793Y-114082536D01*
X144476238Y-114119805D01*
X144443479Y-114153645D01*
X144410247Y-114186675D01*
X144409677Y-114187281D01*
X144379076Y-114221966D01*
X144377919Y-114223496D01*
X144352720Y-114262656D01*
X144351480Y-114265147D01*
X144334380Y-114311671D01*
X144333677Y-114314651D01*
X144328316Y-114362966D01*
X143954220Y-114470201D01*
X143933160Y-114106959D01*
X143973963Y-114093689D01*
X144025664Y-114085222D01*
X144078520Y-114081387D01*
X144130574Y-114079274D01*
X144130938Y-114079254D01*
X144180033Y-114075846D01*
X144181350Y-114075685D01*
X144225509Y-114067932D01*
X144228078Y-114067195D01*
X144265521Y-114052040D01*
X144267726Y-114050885D01*
X144269171Y-114049780D01*
X144298120Y-114024167D01*
X144299814Y-114022342D01*
X144301167Y-114020125D01*
X144319841Y-113980998D01*
X144320687Y-113978657D01*
X144320990Y-113977027D01*
X144326280Y-113932528D01*
X144551078Y-113932528D01*
X144546173Y-113985838D01*
G04 #@! TA.AperFunction,Conductor*
D14*
G36*
X144546173Y-113985838D02*
G01*
X144529847Y-114038950D01*
X144505793Y-114082536D01*
X144476238Y-114119805D01*
X144443479Y-114153645D01*
X144410247Y-114186675D01*
X144409677Y-114187281D01*
X144379076Y-114221966D01*
X144377919Y-114223496D01*
X144352720Y-114262656D01*
X144351480Y-114265147D01*
X144334380Y-114311671D01*
X144333677Y-114314651D01*
X144328316Y-114362966D01*
X143954220Y-114470201D01*
X143933160Y-114106959D01*
X143973963Y-114093689D01*
X144025664Y-114085222D01*
X144078520Y-114081387D01*
X144130574Y-114079274D01*
X144130938Y-114079254D01*
X144180033Y-114075846D01*
X144181350Y-114075685D01*
X144225509Y-114067932D01*
X144228078Y-114067195D01*
X144265521Y-114052040D01*
X144267726Y-114050885D01*
X144269171Y-114049780D01*
X144298120Y-114024167D01*
X144299814Y-114022342D01*
X144301167Y-114020125D01*
X144319841Y-113980998D01*
X144320687Y-113978657D01*
X144320990Y-113977027D01*
X144326280Y-113932528D01*
X144551078Y-113932528D01*
X144546173Y-113985838D01*
G37*
G04 #@! TD.AperFunction*
D15*
X144636916Y-98158137D02*
X144568794Y-98284091D01*
X144495557Y-98395623D01*
X144423219Y-98491757D01*
X144353734Y-98579044D01*
X144353560Y-98579267D01*
X144289100Y-98664048D01*
X144288543Y-98664843D01*
X144231246Y-98753526D01*
X144230487Y-98754874D01*
X144182386Y-98854000D01*
X144181708Y-98855700D01*
X144144833Y-98971812D01*
X144144415Y-98973538D01*
X144120801Y-99113176D01*
X144120638Y-99114672D01*
X144112907Y-99272300D01*
X143887093Y-99272300D01*
X143879361Y-99114672D01*
X143879198Y-99113176D01*
X143855584Y-98973538D01*
X143855166Y-98971812D01*
X143818291Y-98855700D01*
X143817613Y-98854000D01*
X143769512Y-98754874D01*
X143768753Y-98753526D01*
X143711456Y-98664843D01*
X143710899Y-98664048D01*
X143646439Y-98579267D01*
X143646265Y-98579044D01*
X143576780Y-98491757D01*
X143504442Y-98395623D01*
X143431205Y-98284091D01*
X143363084Y-98158137D01*
X144000000Y-97495822D01*
X144636916Y-98158137D01*
G04 #@! TA.AperFunction,Conductor*
D14*
G36*
X144636916Y-98158137D02*
G01*
X144568794Y-98284091D01*
X144495557Y-98395623D01*
X144423219Y-98491757D01*
X144353734Y-98579044D01*
X144353560Y-98579267D01*
X144289100Y-98664048D01*
X144288543Y-98664843D01*
X144231246Y-98753526D01*
X144230487Y-98754874D01*
X144182386Y-98854000D01*
X144181708Y-98855700D01*
X144144833Y-98971812D01*
X144144415Y-98973538D01*
X144120801Y-99113176D01*
X144120638Y-99114672D01*
X144112907Y-99272300D01*
X143887093Y-99272300D01*
X143879361Y-99114672D01*
X143879198Y-99113176D01*
X143855584Y-98973538D01*
X143855166Y-98971812D01*
X143818291Y-98855700D01*
X143817613Y-98854000D01*
X143769512Y-98754874D01*
X143768753Y-98753526D01*
X143711456Y-98664843D01*
X143710899Y-98664048D01*
X143646439Y-98579267D01*
X143646265Y-98579044D01*
X143576780Y-98491757D01*
X143504442Y-98395623D01*
X143431205Y-98284091D01*
X143363084Y-98158137D01*
X144000000Y-97495822D01*
X144636916Y-98158137D01*
G37*
G04 #@! TD.AperFunction*
D15*
X146641218Y-98149388D02*
X146574103Y-98277835D01*
X146501855Y-98391577D01*
X146430386Y-98489654D01*
X146361637Y-98578711D01*
X146361475Y-98578926D01*
X146297634Y-98665349D01*
X146297100Y-98666132D01*
X146240303Y-98756405D01*
X146239575Y-98757731D01*
X146191855Y-98858467D01*
X146191204Y-98860136D01*
X146154599Y-98977945D01*
X146154198Y-98979636D01*
X146130742Y-99121131D01*
X146130586Y-99122597D01*
X146122897Y-99282300D01*
X145897097Y-99282300D01*
X145889404Y-99124183D01*
X145889244Y-99122696D01*
X145865713Y-98982600D01*
X145865298Y-98980878D01*
X145828483Y-98864363D01*
X145827805Y-98862657D01*
X145779673Y-98763200D01*
X145778906Y-98761837D01*
X145721422Y-98672915D01*
X145720849Y-98672100D01*
X145655980Y-98587190D01*
X145655786Y-98586942D01*
X145585574Y-98499616D01*
X145512193Y-98403632D01*
X145437472Y-98292374D01*
X145367495Y-98166838D01*
X145995286Y-97495856D01*
X146641218Y-98149388D01*
G04 #@! TA.AperFunction,Conductor*
D14*
G36*
X146641218Y-98149388D02*
G01*
X146574103Y-98277835D01*
X146501855Y-98391577D01*
X146430386Y-98489654D01*
X146361637Y-98578711D01*
X146361475Y-98578926D01*
X146297634Y-98665349D01*
X146297100Y-98666132D01*
X146240303Y-98756405D01*
X146239575Y-98757731D01*
X146191855Y-98858467D01*
X146191204Y-98860136D01*
X146154599Y-98977945D01*
X146154198Y-98979636D01*
X146130742Y-99121131D01*
X146130586Y-99122597D01*
X146122897Y-99282300D01*
X145897097Y-99282300D01*
X145889404Y-99124183D01*
X145889244Y-99122696D01*
X145865713Y-98982600D01*
X145865298Y-98980878D01*
X145828483Y-98864363D01*
X145827805Y-98862657D01*
X145779673Y-98763200D01*
X145778906Y-98761837D01*
X145721422Y-98672915D01*
X145720849Y-98672100D01*
X145655980Y-98587190D01*
X145655786Y-98586942D01*
X145585574Y-98499616D01*
X145512193Y-98403632D01*
X145437472Y-98292374D01*
X145367495Y-98166838D01*
X145995286Y-97495856D01*
X146641218Y-98149388D01*
G37*
G04 #@! TD.AperFunction*
D15*
X146064047Y-113845356D02*
X146064097Y-113846193D01*
X146069239Y-113901423D01*
X146069380Y-113902467D01*
X146077799Y-113949862D01*
X146078069Y-113951050D01*
X146089638Y-113992563D01*
X146090034Y-113993752D01*
X146104630Y-114031333D01*
X146105070Y-114032337D01*
X146122566Y-114067937D01*
X146122930Y-114068623D01*
X146143202Y-114104195D01*
X146143401Y-114104532D01*
X146166325Y-114142027D01*
X146166343Y-114142057D01*
X146191734Y-114183331D01*
X146214960Y-114222689D01*
X145978972Y-114504199D01*
X145706917Y-114257405D01*
X145725842Y-114212548D01*
X145746793Y-114166332D01*
X145766070Y-114124867D01*
X145766147Y-114124700D01*
X145783579Y-114085737D01*
X145783786Y-114085245D01*
X145799111Y-114046723D01*
X145799396Y-114045933D01*
X145812405Y-114005678D01*
X145812677Y-114004706D01*
X145823160Y-113960548D01*
X145823355Y-113959551D01*
X145831102Y-113909317D01*
X145831207Y-113908420D01*
X145836009Y-113849939D01*
X145836048Y-113849204D01*
X145837400Y-113792700D01*
X146062636Y-113792700D01*
X146064047Y-113845356D01*
G04 #@! TA.AperFunction,Conductor*
D14*
G36*
X146064047Y-113845356D02*
G01*
X146064097Y-113846193D01*
X146069239Y-113901423D01*
X146069380Y-113902467D01*
X146077799Y-113949862D01*
X146078069Y-113951050D01*
X146089638Y-113992563D01*
X146090034Y-113993752D01*
X146104630Y-114031333D01*
X146105070Y-114032337D01*
X146122566Y-114067937D01*
X146122930Y-114068623D01*
X146143202Y-114104195D01*
X146143401Y-114104532D01*
X146166325Y-114142027D01*
X146166343Y-114142057D01*
X146191734Y-114183331D01*
X146214960Y-114222689D01*
X145978972Y-114504199D01*
X145706917Y-114257405D01*
X145725842Y-114212548D01*
X145746793Y-114166332D01*
X145766070Y-114124867D01*
X145766147Y-114124700D01*
X145783579Y-114085737D01*
X145783786Y-114085245D01*
X145799111Y-114046723D01*
X145799396Y-114045933D01*
X145812405Y-114005678D01*
X145812677Y-114004706D01*
X145823160Y-113960548D01*
X145823355Y-113959551D01*
X145831102Y-113909317D01*
X145831207Y-113908420D01*
X145836009Y-113849939D01*
X145836048Y-113849204D01*
X145837400Y-113792700D01*
X146062636Y-113792700D01*
X146064047Y-113845356D01*
G37*
G04 #@! TD.AperFunction*
M02*
