G04 #@! TF.GenerationSoftware,KiCad,Pcbnew,(5.1.8-0-10_14)*
G04 #@! TF.CreationDate,2021-09-26T16:36:28-04:00*
G04 #@! TF.ProjectId,8DIN2VGA_Bottom,3844494e-3256-4474-915f-426f74746f6d,1*
G04 #@! TF.SameCoordinates,Original*
G04 #@! TF.FileFunction,Legend,Bot*
G04 #@! TF.FilePolarity,Positive*
%FSLAX46Y46*%
G04 Gerber Fmt 4.6, Leading zero omitted, Abs format (unit mm)*
G04 Created by KiCad (PCBNEW (5.1.8-0-10_14)) date 2021-09-26 16:36:28*
%MOMM*%
%LPD*%
G01*
G04 APERTURE LIST*
%ADD10C,0.187500*%
%ADD11C,0.701600*%
G04 APERTURE END LIST*
D10*
X146552142Y-103099285D02*
X146552142Y-102349285D01*
X146266428Y-102349285D01*
X146195000Y-102385000D01*
X146159285Y-102420714D01*
X146123571Y-102492142D01*
X146123571Y-102599285D01*
X146159285Y-102670714D01*
X146195000Y-102706428D01*
X146266428Y-102742142D01*
X146552142Y-102742142D01*
X145445000Y-103099285D02*
X145802142Y-103099285D01*
X145802142Y-102349285D01*
X145195000Y-102349285D02*
X145195000Y-102956428D01*
X145159285Y-103027857D01*
X145123571Y-103063571D01*
X145052142Y-103099285D01*
X144909285Y-103099285D01*
X144837857Y-103063571D01*
X144802142Y-103027857D01*
X144766428Y-102956428D01*
X144766428Y-102349285D01*
X144016428Y-102385000D02*
X144087857Y-102349285D01*
X144195000Y-102349285D01*
X144302142Y-102385000D01*
X144373571Y-102456428D01*
X144409285Y-102527857D01*
X144445000Y-102670714D01*
X144445000Y-102777857D01*
X144409285Y-102920714D01*
X144373571Y-102992142D01*
X144302142Y-103063571D01*
X144195000Y-103099285D01*
X144123571Y-103099285D01*
X144016428Y-103063571D01*
X143980714Y-103027857D01*
X143980714Y-102777857D01*
X144123571Y-102777857D01*
X143373571Y-103099285D02*
X143373571Y-102527857D01*
X143516428Y-102670714D02*
X143373571Y-102527857D01*
X143230714Y-102670714D01*
X144976428Y-104877857D02*
X145012142Y-104985000D01*
X145047857Y-105020714D01*
X145119285Y-105056428D01*
X145226428Y-105056428D01*
X145297857Y-105020714D01*
X145333571Y-104985000D01*
X145369285Y-104913571D01*
X145369285Y-104627857D01*
X144619285Y-104627857D01*
X144619285Y-104877857D01*
X144655000Y-104949285D01*
X144690714Y-104985000D01*
X144762142Y-105020714D01*
X144833571Y-105020714D01*
X144905000Y-104985000D01*
X144940714Y-104949285D01*
X144976428Y-104877857D01*
X144976428Y-104627857D01*
X144619285Y-105520714D02*
X144619285Y-105663571D01*
X144655000Y-105735000D01*
X144726428Y-105806428D01*
X144869285Y-105842142D01*
X145119285Y-105842142D01*
X145262142Y-105806428D01*
X145333571Y-105735000D01*
X145369285Y-105663571D01*
X145369285Y-105520714D01*
X145333571Y-105449285D01*
X145262142Y-105377857D01*
X145119285Y-105342142D01*
X144869285Y-105342142D01*
X144726428Y-105377857D01*
X144655000Y-105449285D01*
X144619285Y-105520714D01*
X144619285Y-106056428D02*
X144619285Y-106485000D01*
X145369285Y-106270714D02*
X144619285Y-106270714D01*
X144619285Y-106627857D02*
X144619285Y-107056428D01*
X145369285Y-106842142D02*
X144619285Y-106842142D01*
X144619285Y-107449285D02*
X144619285Y-107592142D01*
X144655000Y-107663571D01*
X144726428Y-107735000D01*
X144869285Y-107770714D01*
X145119285Y-107770714D01*
X145262142Y-107735000D01*
X145333571Y-107663571D01*
X145369285Y-107592142D01*
X145369285Y-107449285D01*
X145333571Y-107377857D01*
X145262142Y-107306428D01*
X145119285Y-107270714D01*
X144869285Y-107270714D01*
X144726428Y-107306428D01*
X144655000Y-107377857D01*
X144619285Y-107449285D01*
X145369285Y-108092142D02*
X144619285Y-108092142D01*
X145155000Y-108342142D01*
X144619285Y-108592142D01*
X145369285Y-108592142D01*
%LPC*%
G36*
G01*
X145224200Y-99752900D02*
X145224200Y-95927100D01*
G75*
G02*
X145612100Y-95539200I387900J0D01*
G01*
X146387900Y-95539200D01*
G75*
G02*
X146775800Y-95927100I0J-387900D01*
G01*
X146775800Y-99752900D01*
G75*
G02*
X146387900Y-100140800I-387900J0D01*
G01*
X145612100Y-100140800D01*
G75*
G02*
X145224200Y-99752900I0J387900D01*
G01*
G37*
G36*
G01*
X143224200Y-99752900D02*
X143224200Y-95927100D01*
G75*
G02*
X143612100Y-95539200I387900J0D01*
G01*
X144387900Y-95539200D01*
G75*
G02*
X144775800Y-95927100I0J-387900D01*
G01*
X144775800Y-99752900D01*
G75*
G02*
X144387900Y-100140800I-387900J0D01*
G01*
X143612100Y-100140800D01*
G75*
G02*
X143224200Y-99752900I0J387900D01*
G01*
G37*
D11*
X144040000Y-114372828D03*
G36*
G01*
X143239200Y-115723228D02*
X143239200Y-114422428D01*
G75*
G02*
X143639600Y-114022028I400400J0D01*
G01*
X144440400Y-114022028D01*
G75*
G02*
X144840800Y-114422428I0J-400400D01*
G01*
X144840800Y-115723228D01*
G75*
G02*
X144440400Y-116123628I-400400J0D01*
G01*
X143639600Y-116123628D01*
G75*
G02*
X143239200Y-115723228I0J400400D01*
G01*
G37*
G36*
G01*
X145159200Y-115723228D02*
X145159200Y-114422428D01*
G75*
G02*
X145559600Y-114022028I400400J0D01*
G01*
X146360400Y-114022028D01*
G75*
G02*
X146760800Y-114422428I0J-400400D01*
G01*
X146760800Y-115723228D01*
G75*
G02*
X146360400Y-116123628I-400400J0D01*
G01*
X145559600Y-116123628D01*
G75*
G02*
X145159200Y-115723228I0J400400D01*
G01*
G37*
X145970000Y-114372828D03*
G36*
G01*
X141299600Y-113122028D02*
X142600400Y-113122028D01*
G75*
G02*
X143000800Y-113522428I0J-400400D01*
G01*
X143000800Y-114323228D01*
G75*
G02*
X142600400Y-114723628I-400400J0D01*
G01*
X141299600Y-114723628D01*
G75*
G02*
X140899200Y-114323228I0J400400D01*
G01*
X140899200Y-113522428D01*
G75*
G02*
X141299600Y-113122028I400400J0D01*
G01*
G37*
X142630000Y-113922828D03*
X147370000Y-113922828D03*
G36*
G01*
X148720400Y-114723628D02*
X147419600Y-114723628D01*
G75*
G02*
X147019200Y-114323228I0J400400D01*
G01*
X147019200Y-113522428D01*
G75*
G02*
X147419600Y-113122028I400400J0D01*
G01*
X148720400Y-113122028D01*
G75*
G02*
X149120800Y-113522428I0J-400400D01*
G01*
X149120800Y-114323228D01*
G75*
G02*
X148720400Y-114723628I-400400J0D01*
G01*
G37*
G36*
G01*
X141299600Y-109722028D02*
X142600400Y-109722028D01*
G75*
G02*
X143000800Y-110122428I0J-400400D01*
G01*
X143000800Y-110923228D01*
G75*
G02*
X142600400Y-111323628I-400400J0D01*
G01*
X141299600Y-111323628D01*
G75*
G02*
X140899200Y-110923228I0J400400D01*
G01*
X140899200Y-110122428D01*
G75*
G02*
X141299600Y-109722028I400400J0D01*
G01*
G37*
X142630000Y-110522828D03*
M02*
